%TF.GenerationSoftware,KiCad,Pcbnew,(6.0.11)*%
%TF.CreationDate,2023-05-04T09:55:51-04:00*%
%TF.ProjectId,echopilot_ai_carrier,6563686f-7069-46c6-9f74-5f61695f6361,rev?*%
%TF.SameCoordinates,Original*%
%TF.FileFunction,Legend,Top*%
%TF.FilePolarity,Positive*%
%FSLAX46Y46*%
G04 Gerber Fmt 4.6, Leading zero omitted, Abs format (unit mm)*
G04 Created by KiCad (PCBNEW (6.0.11)) date 2023-05-04 09:55:51*
%MOMM*%
%LPD*%
G01*
G04 APERTURE LIST*
%ADD10C,0.127000*%
%ADD11C,0.150000*%
%ADD12C,0.203200*%
%ADD13C,0.152400*%
%ADD14C,0.120000*%
%ADD15C,0.200000*%
%ADD16C,0.250000*%
%ADD17C,0.304800*%
%ADD18C,0.609600*%
%ADD19C,0.100000*%
G04 APERTURE END LIST*
D10*
X101746485Y-134463971D02*
X101492485Y-134463971D01*
X101492485Y-134863114D02*
X101492485Y-134101114D01*
X101855342Y-134101114D01*
X102145628Y-134863114D02*
X102145628Y-134101114D01*
X102399628Y-134645400D01*
X102653628Y-134101114D01*
X102653628Y-134863114D01*
X103016485Y-134101114D02*
X103016485Y-134717971D01*
X103052771Y-134790542D01*
X103089057Y-134826828D01*
X103161628Y-134863114D01*
X103306771Y-134863114D01*
X103379342Y-134826828D01*
X103415628Y-134790542D01*
X103451914Y-134717971D01*
X103451914Y-134101114D01*
X100784914Y-80641114D02*
X100784914Y-81185400D01*
X100748628Y-81294257D01*
X100676057Y-81366828D01*
X100567200Y-81403114D01*
X100494628Y-81403114D01*
X101147771Y-81003971D02*
X101401771Y-81003971D01*
X101510628Y-81403114D02*
X101147771Y-81403114D01*
X101147771Y-80641114D01*
X101510628Y-80641114D01*
X101728342Y-80641114D02*
X102163771Y-80641114D01*
X101946057Y-81403114D02*
X101946057Y-80641114D01*
X102381485Y-81366828D02*
X102490342Y-81403114D01*
X102671771Y-81403114D01*
X102744342Y-81366828D01*
X102780628Y-81330542D01*
X102816914Y-81257971D01*
X102816914Y-81185400D01*
X102780628Y-81112828D01*
X102744342Y-81076542D01*
X102671771Y-81040257D01*
X102526628Y-81003971D01*
X102454057Y-80967685D01*
X102417771Y-80931400D01*
X102381485Y-80858828D01*
X102381485Y-80786257D01*
X102417771Y-80713685D01*
X102454057Y-80677400D01*
X102526628Y-80641114D01*
X102708057Y-80641114D01*
X102816914Y-80677400D01*
X103288628Y-80641114D02*
X103433771Y-80641114D01*
X103506342Y-80677400D01*
X103578914Y-80749971D01*
X103615200Y-80895114D01*
X103615200Y-81149114D01*
X103578914Y-81294257D01*
X103506342Y-81366828D01*
X103433771Y-81403114D01*
X103288628Y-81403114D01*
X103216057Y-81366828D01*
X103143485Y-81294257D01*
X103107200Y-81149114D01*
X103107200Y-80895114D01*
X103143485Y-80749971D01*
X103216057Y-80677400D01*
X103288628Y-80641114D01*
X103941771Y-81403114D02*
X103941771Y-80641114D01*
X104377200Y-81403114D01*
X104377200Y-80641114D01*
D11*
X75704747Y-130635048D02*
X76466652Y-130635048D01*
X76085700Y-131016000D02*
X76085700Y-130254096D01*
D10*
X68559157Y-132461928D02*
X69139728Y-132461928D01*
X68849442Y-132752214D02*
X68849442Y-132171642D01*
X69865442Y-131990214D02*
X69502585Y-131990214D01*
X69466300Y-132353071D01*
X69502585Y-132316785D01*
X69575157Y-132280500D01*
X69756585Y-132280500D01*
X69829157Y-132316785D01*
X69865442Y-132353071D01*
X69901728Y-132425642D01*
X69901728Y-132607071D01*
X69865442Y-132679642D01*
X69829157Y-132715928D01*
X69756585Y-132752214D01*
X69575157Y-132752214D01*
X69502585Y-132715928D01*
X69466300Y-132679642D01*
X70577771Y-135034114D02*
X70577771Y-135288114D01*
X70976914Y-135288114D02*
X70214914Y-135288114D01*
X70214914Y-134925257D01*
X70976914Y-134634971D02*
X70214914Y-134634971D01*
X70759200Y-134380971D01*
X70214914Y-134126971D01*
X70976914Y-134126971D01*
X70214914Y-133764114D02*
X70831771Y-133764114D01*
X70904342Y-133727828D01*
X70940628Y-133691542D01*
X70976914Y-133618971D01*
X70976914Y-133473828D01*
X70940628Y-133401257D01*
X70904342Y-133364971D01*
X70831771Y-133328685D01*
X70214914Y-133328685D01*
X65975614Y-134876742D02*
X66519900Y-134876742D01*
X66628757Y-134913028D01*
X66701328Y-134985600D01*
X66737614Y-135094457D01*
X66737614Y-135167028D01*
X66338471Y-134513885D02*
X66338471Y-134259885D01*
X66737614Y-134151028D02*
X66737614Y-134513885D01*
X65975614Y-134513885D01*
X65975614Y-134151028D01*
X65975614Y-133933314D02*
X65975614Y-133497885D01*
X66737614Y-133715600D02*
X65975614Y-133715600D01*
X63701914Y-84052704D02*
X64209914Y-84052704D01*
X63883342Y-84814704D01*
X64500200Y-84524418D02*
X65080771Y-84524418D01*
X65806485Y-84052704D02*
X65443628Y-84052704D01*
X65407342Y-84415561D01*
X65443628Y-84379275D01*
X65516200Y-84342990D01*
X65697628Y-84342990D01*
X65770200Y-84379275D01*
X65806485Y-84415561D01*
X65842771Y-84488132D01*
X65842771Y-84669561D01*
X65806485Y-84742132D01*
X65770200Y-84778418D01*
X65697628Y-84814704D01*
X65516200Y-84814704D01*
X65443628Y-84778418D01*
X65407342Y-84742132D01*
X66495914Y-84052704D02*
X66350771Y-84052704D01*
X66278200Y-84088990D01*
X66241914Y-84125275D01*
X66169342Y-84234132D01*
X66133057Y-84379275D01*
X66133057Y-84669561D01*
X66169342Y-84742132D01*
X66205628Y-84778418D01*
X66278200Y-84814704D01*
X66423342Y-84814704D01*
X66495914Y-84778418D01*
X66532200Y-84742132D01*
X66568485Y-84669561D01*
X66568485Y-84488132D01*
X66532200Y-84415561D01*
X66495914Y-84379275D01*
X66423342Y-84342990D01*
X66278200Y-84342990D01*
X66205628Y-84379275D01*
X66169342Y-84415561D01*
X66133057Y-84488132D01*
X67366771Y-84052704D02*
X67620771Y-84814704D01*
X67874771Y-84052704D01*
X68128771Y-84814704D02*
X68128771Y-84052704D01*
X68310200Y-84052704D01*
X68419057Y-84088990D01*
X68491628Y-84161561D01*
X68527914Y-84234132D01*
X68564200Y-84379275D01*
X68564200Y-84488132D01*
X68527914Y-84633275D01*
X68491628Y-84705847D01*
X68419057Y-84778418D01*
X68310200Y-84814704D01*
X68128771Y-84814704D01*
X69326200Y-84742132D02*
X69289914Y-84778418D01*
X69181057Y-84814704D01*
X69108485Y-84814704D01*
X68999628Y-84778418D01*
X68927057Y-84705847D01*
X68890771Y-84633275D01*
X68854485Y-84488132D01*
X68854485Y-84379275D01*
X68890771Y-84234132D01*
X68927057Y-84161561D01*
X68999628Y-84088990D01*
X69108485Y-84052704D01*
X69181057Y-84052704D01*
X69289914Y-84088990D01*
X69326200Y-84125275D01*
X64482057Y-85279524D02*
X64953771Y-85279524D01*
X64699771Y-85569810D01*
X64808628Y-85569810D01*
X64881200Y-85606095D01*
X64917485Y-85642381D01*
X64953771Y-85714952D01*
X64953771Y-85896381D01*
X64917485Y-85968952D01*
X64881200Y-86005238D01*
X64808628Y-86041524D01*
X64590914Y-86041524D01*
X64518342Y-86005238D01*
X64482057Y-85968952D01*
X65824628Y-85823810D02*
X66187485Y-85823810D01*
X65752057Y-86041524D02*
X66006057Y-85279524D01*
X66260057Y-86041524D01*
X66514057Y-86041524D02*
X66514057Y-85279524D01*
X66768057Y-85823810D01*
X67022057Y-85279524D01*
X67022057Y-86041524D01*
X67384914Y-86041524D02*
X67384914Y-85279524D01*
X67675200Y-85279524D01*
X67747771Y-85315810D01*
X67784057Y-85352095D01*
X67820342Y-85424667D01*
X67820342Y-85533524D01*
X67784057Y-85606095D01*
X67747771Y-85642381D01*
X67675200Y-85678667D01*
X67384914Y-85678667D01*
X68110628Y-86005238D02*
X68219485Y-86041524D01*
X68400914Y-86041524D01*
X68473485Y-86005238D01*
X68509771Y-85968952D01*
X68546057Y-85896381D01*
X68546057Y-85823810D01*
X68509771Y-85751238D01*
X68473485Y-85714952D01*
X68400914Y-85678667D01*
X68255771Y-85642381D01*
X68183200Y-85606095D01*
X68146914Y-85569810D01*
X68110628Y-85497238D01*
X68110628Y-85424667D01*
X68146914Y-85352095D01*
X68183200Y-85315810D01*
X68255771Y-85279524D01*
X68437200Y-85279524D01*
X68546057Y-85315810D01*
X73807628Y-86223114D02*
X73807628Y-85461114D01*
X74605914Y-86223114D02*
X74351914Y-85860257D01*
X74170485Y-86223114D02*
X74170485Y-85461114D01*
X74460771Y-85461114D01*
X74533342Y-85497400D01*
X74569628Y-85533685D01*
X74605914Y-85606257D01*
X74605914Y-85715114D01*
X74569628Y-85787685D01*
X74533342Y-85823971D01*
X74460771Y-85860257D01*
X74170485Y-85860257D01*
X74932485Y-86223114D02*
X74932485Y-85461114D01*
X75295342Y-86223114D02*
X75295342Y-85461114D01*
X75476771Y-85461114D01*
X75585628Y-85497400D01*
X75658200Y-85569971D01*
X75694485Y-85642542D01*
X75730771Y-85787685D01*
X75730771Y-85896542D01*
X75694485Y-86041685D01*
X75658200Y-86114257D01*
X75585628Y-86186828D01*
X75476771Y-86223114D01*
X75295342Y-86223114D01*
X76057342Y-86223114D02*
X76057342Y-85461114D01*
X76420200Y-85461114D02*
X76420200Y-86077971D01*
X76456485Y-86150542D01*
X76492771Y-86186828D01*
X76565342Y-86223114D01*
X76710485Y-86223114D01*
X76783057Y-86186828D01*
X76819342Y-86150542D01*
X76855628Y-86077971D01*
X76855628Y-85461114D01*
X77218485Y-86223114D02*
X77218485Y-85461114D01*
X77472485Y-86005400D01*
X77726485Y-85461114D01*
X77726485Y-86223114D01*
X78633628Y-86186828D02*
X78742485Y-86223114D01*
X78923914Y-86223114D01*
X78996485Y-86186828D01*
X79032771Y-86150542D01*
X79069057Y-86077971D01*
X79069057Y-86005400D01*
X79032771Y-85932828D01*
X78996485Y-85896542D01*
X78923914Y-85860257D01*
X78778771Y-85823971D01*
X78706200Y-85787685D01*
X78669914Y-85751400D01*
X78633628Y-85678828D01*
X78633628Y-85606257D01*
X78669914Y-85533685D01*
X78706200Y-85497400D01*
X78778771Y-85461114D01*
X78960200Y-85461114D01*
X79069057Y-85497400D01*
X79649628Y-85823971D02*
X79758485Y-85860257D01*
X79794771Y-85896542D01*
X79831057Y-85969114D01*
X79831057Y-86077971D01*
X79794771Y-86150542D01*
X79758485Y-86186828D01*
X79685914Y-86223114D01*
X79395628Y-86223114D01*
X79395628Y-85461114D01*
X79649628Y-85461114D01*
X79722200Y-85497400D01*
X79758485Y-85533685D01*
X79794771Y-85606257D01*
X79794771Y-85678828D01*
X79758485Y-85751400D01*
X79722200Y-85787685D01*
X79649628Y-85823971D01*
X79395628Y-85823971D01*
X80157628Y-86223114D02*
X80157628Y-85461114D01*
X80339057Y-85461114D01*
X80447914Y-85497400D01*
X80520485Y-85569971D01*
X80556771Y-85642542D01*
X80593057Y-85787685D01*
X80593057Y-85896542D01*
X80556771Y-86041685D01*
X80520485Y-86114257D01*
X80447914Y-86186828D01*
X80339057Y-86223114D01*
X80157628Y-86223114D01*
D11*
X85534547Y-130596948D02*
X86296452Y-130596948D01*
X85915500Y-130977900D02*
X85915500Y-130215996D01*
X86746127Y-130614728D02*
X87508032Y-130614728D01*
D12*
X84467700Y-85403871D02*
X84407223Y-85464347D01*
X84467700Y-85524823D01*
X84528176Y-85464347D01*
X84467700Y-85403871D01*
X84467700Y-85524823D01*
D10*
X132207485Y-114944828D02*
X132969485Y-114944828D01*
X132969485Y-115235114D01*
X132933200Y-115307685D01*
X132896914Y-115343971D01*
X132824342Y-115380257D01*
X132715485Y-115380257D01*
X132642914Y-115343971D01*
X132606628Y-115307685D01*
X132570342Y-115235114D01*
X132570342Y-114944828D01*
X132969485Y-115634257D02*
X132207485Y-115815685D01*
X132751771Y-115960828D01*
X132207485Y-116105971D01*
X132969485Y-116287400D01*
X132207485Y-116577685D02*
X132969485Y-116577685D01*
X132425200Y-116831685D01*
X132969485Y-117085685D01*
X132207485Y-117085685D01*
X132606628Y-118283114D02*
X132570342Y-118391971D01*
X132534057Y-118428257D01*
X132461485Y-118464542D01*
X132352628Y-118464542D01*
X132280057Y-118428257D01*
X132243771Y-118391971D01*
X132207485Y-118319400D01*
X132207485Y-118029114D01*
X132969485Y-118029114D01*
X132969485Y-118283114D01*
X132933200Y-118355685D01*
X132896914Y-118391971D01*
X132824342Y-118428257D01*
X132751771Y-118428257D01*
X132679200Y-118391971D01*
X132642914Y-118355685D01*
X132606628Y-118283114D01*
X132606628Y-118029114D01*
X132207485Y-119226542D02*
X132570342Y-118972542D01*
X132207485Y-118791114D02*
X132969485Y-118791114D01*
X132969485Y-119081400D01*
X132933200Y-119153971D01*
X132896914Y-119190257D01*
X132824342Y-119226542D01*
X132715485Y-119226542D01*
X132642914Y-119190257D01*
X132606628Y-119153971D01*
X132570342Y-119081400D01*
X132570342Y-118791114D01*
X132606628Y-119553114D02*
X132606628Y-119807114D01*
X132207485Y-119915971D02*
X132207485Y-119553114D01*
X132969485Y-119553114D01*
X132969485Y-119915971D01*
X132425200Y-120206257D02*
X132425200Y-120569114D01*
X132207485Y-120133685D02*
X132969485Y-120387685D01*
X132207485Y-120641685D01*
X132207485Y-120895685D02*
X132969485Y-120895685D01*
X132207485Y-121331114D02*
X132642914Y-121004542D01*
X132969485Y-121331114D02*
X132534057Y-120895685D01*
X132969485Y-121802828D02*
X132969485Y-121947971D01*
X132933200Y-122020542D01*
X132860628Y-122093114D01*
X132715485Y-122129400D01*
X132461485Y-122129400D01*
X132316342Y-122093114D01*
X132243771Y-122020542D01*
X132207485Y-121947971D01*
X132207485Y-121802828D01*
X132243771Y-121730257D01*
X132316342Y-121657685D01*
X132461485Y-121621400D01*
X132715485Y-121621400D01*
X132860628Y-121657685D01*
X132933200Y-121730257D01*
X132969485Y-121802828D01*
X132969485Y-122455971D02*
X132352628Y-122455971D01*
X132280057Y-122492257D01*
X132243771Y-122528542D01*
X132207485Y-122601114D01*
X132207485Y-122746257D01*
X132243771Y-122818828D01*
X132280057Y-122855114D01*
X132352628Y-122891400D01*
X132969485Y-122891400D01*
X132969485Y-123145400D02*
X132969485Y-123580828D01*
X132207485Y-123363114D02*
X132969485Y-123363114D01*
D11*
X134413153Y-111197741D02*
X133651248Y-111197741D01*
D10*
X66123200Y-118956114D02*
X66159485Y-118883542D01*
X66159485Y-118774685D01*
X66123200Y-118665828D01*
X66050628Y-118593257D01*
X65978057Y-118556971D01*
X65832914Y-118520685D01*
X65724057Y-118520685D01*
X65578914Y-118556971D01*
X65506342Y-118593257D01*
X65433771Y-118665828D01*
X65397485Y-118774685D01*
X65397485Y-118847257D01*
X65433771Y-118956114D01*
X65470057Y-118992400D01*
X65724057Y-118992400D01*
X65724057Y-118847257D01*
X65397485Y-119318971D02*
X66159485Y-119318971D01*
X66159485Y-119609257D01*
X66123200Y-119681828D01*
X66086914Y-119718114D01*
X66014342Y-119754400D01*
X65905485Y-119754400D01*
X65832914Y-119718114D01*
X65796628Y-119681828D01*
X65760342Y-119609257D01*
X65760342Y-119318971D01*
X65433771Y-120044685D02*
X65397485Y-120153542D01*
X65397485Y-120334971D01*
X65433771Y-120407542D01*
X65470057Y-120443828D01*
X65542628Y-120480114D01*
X65615200Y-120480114D01*
X65687771Y-120443828D01*
X65724057Y-120407542D01*
X65760342Y-120334971D01*
X65796628Y-120189828D01*
X65832914Y-120117257D01*
X65869200Y-120080971D01*
X65941771Y-120044685D01*
X66014342Y-120044685D01*
X66086914Y-120080971D01*
X66123200Y-120117257D01*
X66159485Y-120189828D01*
X66159485Y-120371257D01*
X66123200Y-120480114D01*
X66195771Y-121350971D02*
X65216057Y-120697828D01*
X65470057Y-122040400D02*
X65433771Y-122004114D01*
X65397485Y-121895257D01*
X65397485Y-121822685D01*
X65433771Y-121713828D01*
X65506342Y-121641257D01*
X65578914Y-121604971D01*
X65724057Y-121568685D01*
X65832914Y-121568685D01*
X65978057Y-121604971D01*
X66050628Y-121641257D01*
X66123200Y-121713828D01*
X66159485Y-121822685D01*
X66159485Y-121895257D01*
X66123200Y-122004114D01*
X66086914Y-122040400D01*
X66159485Y-122512114D02*
X66159485Y-122657257D01*
X66123200Y-122729828D01*
X66050628Y-122802400D01*
X65905485Y-122838685D01*
X65651485Y-122838685D01*
X65506342Y-122802400D01*
X65433771Y-122729828D01*
X65397485Y-122657257D01*
X65397485Y-122512114D01*
X65433771Y-122439542D01*
X65506342Y-122366971D01*
X65651485Y-122330685D01*
X65905485Y-122330685D01*
X66050628Y-122366971D01*
X66123200Y-122439542D01*
X66159485Y-122512114D01*
X65397485Y-123165257D02*
X66159485Y-123165257D01*
X65615200Y-123419257D01*
X66159485Y-123673257D01*
X65397485Y-123673257D01*
X65397485Y-124036114D02*
X66159485Y-124036114D01*
X66159485Y-124326400D01*
X66123200Y-124398971D01*
X66086914Y-124435257D01*
X66014342Y-124471542D01*
X65905485Y-124471542D01*
X65832914Y-124435257D01*
X65796628Y-124398971D01*
X65760342Y-124326400D01*
X65760342Y-124036114D01*
X65615200Y-124761828D02*
X65615200Y-125124685D01*
X65397485Y-124689257D02*
X66159485Y-124943257D01*
X65397485Y-125197257D01*
X65433771Y-125414971D02*
X65397485Y-125523828D01*
X65397485Y-125705257D01*
X65433771Y-125777828D01*
X65470057Y-125814114D01*
X65542628Y-125850400D01*
X65615200Y-125850400D01*
X65687771Y-125814114D01*
X65724057Y-125777828D01*
X65760342Y-125705257D01*
X65796628Y-125560114D01*
X65832914Y-125487542D01*
X65869200Y-125451257D01*
X65941771Y-125414971D01*
X66014342Y-125414971D01*
X66086914Y-125451257D01*
X66123200Y-125487542D01*
X66159485Y-125560114D01*
X66159485Y-125741542D01*
X66123200Y-125850400D01*
X65433771Y-126140685D02*
X65397485Y-126249542D01*
X65397485Y-126430971D01*
X65433771Y-126503542D01*
X65470057Y-126539828D01*
X65542628Y-126576114D01*
X65615200Y-126576114D01*
X65687771Y-126539828D01*
X65724057Y-126503542D01*
X65760342Y-126430971D01*
X65796628Y-126285828D01*
X65832914Y-126213257D01*
X65869200Y-126176971D01*
X65941771Y-126140685D01*
X66014342Y-126140685D01*
X66086914Y-126176971D01*
X66123200Y-126213257D01*
X66159485Y-126285828D01*
X66159485Y-126467257D01*
X66123200Y-126576114D01*
X64516914Y-128262828D02*
X65097485Y-128262828D01*
X65487485Y-109105257D02*
X65850342Y-108851257D01*
X65487485Y-108669828D02*
X66249485Y-108669828D01*
X66249485Y-108960114D01*
X66213200Y-109032685D01*
X66176914Y-109068971D01*
X66104342Y-109105257D01*
X65995485Y-109105257D01*
X65922914Y-109068971D01*
X65886628Y-109032685D01*
X65850342Y-108960114D01*
X65850342Y-108669828D01*
X65705200Y-109395542D02*
X65705200Y-109758400D01*
X65487485Y-109322971D02*
X66249485Y-109576971D01*
X65487485Y-109830971D01*
X65487485Y-110084971D02*
X66249485Y-110084971D01*
X66249485Y-110266400D01*
X66213200Y-110375257D01*
X66140628Y-110447828D01*
X66068057Y-110484114D01*
X65922914Y-110520400D01*
X65814057Y-110520400D01*
X65668914Y-110484114D01*
X65596342Y-110447828D01*
X65523771Y-110375257D01*
X65487485Y-110266400D01*
X65487485Y-110084971D01*
X65487485Y-110846971D02*
X66249485Y-110846971D01*
X66249485Y-111354971D02*
X66249485Y-111500114D01*
X66213200Y-111572685D01*
X66140628Y-111645257D01*
X65995485Y-111681542D01*
X65741485Y-111681542D01*
X65596342Y-111645257D01*
X65523771Y-111572685D01*
X65487485Y-111500114D01*
X65487485Y-111354971D01*
X65523771Y-111282400D01*
X65596342Y-111209828D01*
X65741485Y-111173542D01*
X65995485Y-111173542D01*
X66140628Y-111209828D01*
X66213200Y-111282400D01*
X66249485Y-111354971D01*
X65487485Y-112588685D02*
X66249485Y-112588685D01*
X65487485Y-112951542D02*
X66249485Y-112951542D01*
X65487485Y-113386971D01*
X66249485Y-113386971D01*
X64564485Y-108566828D02*
X64673342Y-108603114D01*
X64854771Y-108603114D01*
X64927342Y-108566828D01*
X64963628Y-108530542D01*
X64999914Y-108457971D01*
X64999914Y-108385400D01*
X64963628Y-108312828D01*
X64927342Y-108276542D01*
X64854771Y-108240257D01*
X64709628Y-108203971D01*
X64637057Y-108167685D01*
X64600771Y-108131400D01*
X64564485Y-108058828D01*
X64564485Y-107986257D01*
X64600771Y-107913685D01*
X64637057Y-107877400D01*
X64709628Y-107841114D01*
X64891057Y-107841114D01*
X64999914Y-107877400D01*
X134156628Y-101352542D02*
X134156628Y-101606542D01*
X133757485Y-101715400D02*
X133757485Y-101352542D01*
X134519485Y-101352542D01*
X134519485Y-101715400D01*
X134519485Y-101933114D02*
X134519485Y-102368542D01*
X133757485Y-102150828D02*
X134519485Y-102150828D01*
X133757485Y-102622542D02*
X134519485Y-102622542D01*
X134156628Y-102622542D02*
X134156628Y-103057971D01*
X133757485Y-103057971D02*
X134519485Y-103057971D01*
X133757485Y-104400542D02*
X133757485Y-103965114D01*
X133757485Y-104182828D02*
X134519485Y-104182828D01*
X134410628Y-104110257D01*
X134338057Y-104037685D01*
X134301771Y-103965114D01*
X132937914Y-96283114D02*
X132683914Y-95920257D01*
X132502485Y-96283114D02*
X132502485Y-95521114D01*
X132792771Y-95521114D01*
X132865342Y-95557400D01*
X132901628Y-95593685D01*
X132937914Y-95666257D01*
X132937914Y-95775114D01*
X132901628Y-95847685D01*
X132865342Y-95883971D01*
X132792771Y-95920257D01*
X132502485Y-95920257D01*
X133191914Y-96283114D02*
X133591057Y-95775114D01*
X133191914Y-95775114D02*
X133591057Y-96283114D01*
X133881342Y-95992828D02*
X134461914Y-95992828D01*
X134171628Y-96283114D02*
X134171628Y-95702542D01*
X84161914Y-85912828D02*
X84742485Y-85912828D01*
D11*
X77840438Y-128509661D02*
X77983295Y-128557280D01*
X78221390Y-128557280D01*
X78316628Y-128509661D01*
X78364247Y-128462042D01*
X78411866Y-128366804D01*
X78411866Y-128271566D01*
X78364247Y-128176328D01*
X78316628Y-128128709D01*
X78221390Y-128081090D01*
X78030914Y-128033471D01*
X77935676Y-127985852D01*
X77888057Y-127938233D01*
X77840438Y-127842995D01*
X77840438Y-127747757D01*
X77888057Y-127652519D01*
X77935676Y-127604900D01*
X78030914Y-127557280D01*
X78269009Y-127557280D01*
X78411866Y-127604900D01*
X78840438Y-128557280D02*
X78840438Y-127557280D01*
X79221390Y-127557280D01*
X79316628Y-127604900D01*
X79364247Y-127652519D01*
X79411866Y-127747757D01*
X79411866Y-127890614D01*
X79364247Y-127985852D01*
X79316628Y-128033471D01*
X79221390Y-128081090D01*
X78840438Y-128081090D01*
X79792819Y-128271566D02*
X80269009Y-128271566D01*
X79697580Y-128557280D02*
X80030914Y-127557280D01*
X80364247Y-128557280D01*
X81269009Y-128557280D02*
X80935676Y-128081090D01*
X80697580Y-128557280D02*
X80697580Y-127557280D01*
X81078533Y-127557280D01*
X81173771Y-127604900D01*
X81221390Y-127652519D01*
X81269009Y-127747757D01*
X81269009Y-127890614D01*
X81221390Y-127985852D01*
X81173771Y-128033471D01*
X81078533Y-128081090D01*
X80697580Y-128081090D01*
X81697580Y-128033471D02*
X82030914Y-128033471D01*
X82173771Y-128557280D02*
X81697580Y-128557280D01*
X81697580Y-127557280D01*
X82173771Y-127557280D01*
X83221390Y-127557280D02*
X83554723Y-128557280D01*
X83888057Y-127557280D01*
X84411866Y-127557280D02*
X84602342Y-127557280D01*
X84697580Y-127604900D01*
X84792819Y-127700138D01*
X84840438Y-127890614D01*
X84840438Y-128223947D01*
X84792819Y-128414423D01*
X84697580Y-128509661D01*
X84602342Y-128557280D01*
X84411866Y-128557280D01*
X84316628Y-128509661D01*
X84221390Y-128414423D01*
X84173771Y-128223947D01*
X84173771Y-127890614D01*
X84221390Y-127700138D01*
X84316628Y-127604900D01*
X84411866Y-127557280D01*
X85269009Y-127557280D02*
X85269009Y-128366804D01*
X85316628Y-128462042D01*
X85364247Y-128509661D01*
X85459485Y-128557280D01*
X85649961Y-128557280D01*
X85745200Y-128509661D01*
X85792819Y-128462042D01*
X85840438Y-128366804D01*
X85840438Y-127557280D01*
X86173771Y-127557280D02*
X86745200Y-127557280D01*
X86459485Y-128557280D02*
X86459485Y-127557280D01*
X76078650Y-128954280D02*
X76411983Y-129954280D01*
X76745317Y-128954280D01*
X77411983Y-129430471D02*
X77554840Y-129478090D01*
X77602460Y-129525709D01*
X77650079Y-129620947D01*
X77650079Y-129763804D01*
X77602460Y-129859042D01*
X77554840Y-129906661D01*
X77459602Y-129954280D01*
X77078650Y-129954280D01*
X77078650Y-128954280D01*
X77411983Y-128954280D01*
X77507221Y-129001900D01*
X77554840Y-129049519D01*
X77602460Y-129144757D01*
X77602460Y-129239995D01*
X77554840Y-129335233D01*
X77507221Y-129382852D01*
X77411983Y-129430471D01*
X77078650Y-129430471D01*
X78031031Y-129668566D02*
X78507221Y-129668566D01*
X77935793Y-129954280D02*
X78269126Y-128954280D01*
X78602460Y-129954280D01*
X78792936Y-128954280D02*
X79364364Y-128954280D01*
X79078650Y-129954280D02*
X79078650Y-128954280D01*
X79554840Y-128954280D02*
X80126269Y-128954280D01*
X79840555Y-129954280D02*
X79840555Y-128954280D01*
X86436223Y-128954280D02*
X85960033Y-128954280D01*
X85912414Y-129430471D01*
X85960033Y-129382852D01*
X86055271Y-129335233D01*
X86293366Y-129335233D01*
X86388604Y-129382852D01*
X86436223Y-129430471D01*
X86483842Y-129525709D01*
X86483842Y-129763804D01*
X86436223Y-129859042D01*
X86388604Y-129906661D01*
X86293366Y-129954280D01*
X86055271Y-129954280D01*
X85960033Y-129906661D01*
X85912414Y-129859042D01*
X86769557Y-128954280D02*
X87102890Y-129954280D01*
X87436223Y-128954280D01*
X76974747Y-130635048D02*
X77736652Y-130635048D01*
X77355700Y-131016000D02*
X77355700Y-130254096D01*
X80225852Y-130675071D02*
X79463947Y-130675071D01*
X78186327Y-130652828D02*
X78948232Y-130652828D01*
D10*
X66641457Y-132487328D02*
X67222028Y-132487328D01*
X66931742Y-132777614D02*
X66931742Y-132197042D01*
X67947742Y-132015614D02*
X67584885Y-132015614D01*
X67548600Y-132378471D01*
X67584885Y-132342185D01*
X67657457Y-132305900D01*
X67838885Y-132305900D01*
X67911457Y-132342185D01*
X67947742Y-132378471D01*
X67984028Y-132451042D01*
X67984028Y-132632471D01*
X67947742Y-132705042D01*
X67911457Y-132741328D01*
X67838885Y-132777614D01*
X67657457Y-132777614D01*
X67584885Y-132741328D01*
X67548600Y-132705042D01*
X130071948Y-126512320D02*
X129999377Y-126476034D01*
X129890520Y-126476034D01*
X129781662Y-126512320D01*
X129709091Y-126584891D01*
X129672805Y-126657462D01*
X129636520Y-126802605D01*
X129636520Y-126911462D01*
X129672805Y-127056605D01*
X129709091Y-127129177D01*
X129781662Y-127201748D01*
X129890520Y-127238034D01*
X129963091Y-127238034D01*
X130071948Y-127201748D01*
X130108234Y-127165462D01*
X130108234Y-126911462D01*
X129963091Y-126911462D01*
X130434805Y-127238034D02*
X130434805Y-126476034D01*
X130870234Y-127238034D01*
X130870234Y-126476034D01*
X131233091Y-127238034D02*
X131233091Y-126476034D01*
X131414520Y-126476034D01*
X131523377Y-126512320D01*
X131595948Y-126584891D01*
X131632234Y-126657462D01*
X131668520Y-126802605D01*
X131668520Y-126911462D01*
X131632234Y-127056605D01*
X131595948Y-127129177D01*
X131523377Y-127201748D01*
X131414520Y-127238034D01*
X131233091Y-127238034D01*
X134177342Y-120848804D02*
X134032200Y-120848804D01*
X133959628Y-120885090D01*
X133923342Y-120921375D01*
X133850771Y-121030232D01*
X133814485Y-121175375D01*
X133814485Y-121465661D01*
X133850771Y-121538232D01*
X133887057Y-121574518D01*
X133959628Y-121610804D01*
X134104771Y-121610804D01*
X134177342Y-121574518D01*
X134213628Y-121538232D01*
X134249914Y-121465661D01*
X134249914Y-121284232D01*
X134213628Y-121211661D01*
X134177342Y-121175375D01*
X134104771Y-121139090D01*
X133959628Y-121139090D01*
X133887057Y-121175375D01*
X133850771Y-121211661D01*
X133814485Y-121284232D01*
X82086628Y-87118114D02*
X82086628Y-86537542D01*
X82376914Y-86827828D02*
X81796342Y-86827828D01*
X81614914Y-85811828D02*
X81614914Y-86174685D01*
X81977771Y-86210971D01*
X81941485Y-86174685D01*
X81905200Y-86102114D01*
X81905200Y-85920685D01*
X81941485Y-85848114D01*
X81977771Y-85811828D01*
X82050342Y-85775542D01*
X82231771Y-85775542D01*
X82304342Y-85811828D01*
X82340628Y-85848114D01*
X82376914Y-85920685D01*
X82376914Y-86102114D01*
X82340628Y-86174685D01*
X82304342Y-86210971D01*
X81614914Y-85557828D02*
X82376914Y-85303828D01*
X81614914Y-85049828D01*
X133778200Y-124597649D02*
X134249914Y-124597649D01*
X133995914Y-124887935D01*
X134104771Y-124887935D01*
X134177342Y-124924220D01*
X134213628Y-124960506D01*
X134249914Y-125033077D01*
X134249914Y-125214506D01*
X134213628Y-125287077D01*
X134177342Y-125323363D01*
X134104771Y-125359649D01*
X133887057Y-125359649D01*
X133814485Y-125323363D01*
X133778200Y-125287077D01*
X134177342Y-123602034D02*
X134177342Y-124110034D01*
X133995914Y-123311748D02*
X133814485Y-123856034D01*
X134286200Y-123856034D01*
X131714914Y-97553114D02*
X131460914Y-97190257D01*
X131279485Y-97553114D02*
X131279485Y-96791114D01*
X131569771Y-96791114D01*
X131642342Y-96827400D01*
X131678628Y-96863685D01*
X131714914Y-96936257D01*
X131714914Y-97045114D01*
X131678628Y-97117685D01*
X131642342Y-97153971D01*
X131569771Y-97190257D01*
X131279485Y-97190257D01*
X132005200Y-97516828D02*
X132114057Y-97553114D01*
X132295485Y-97553114D01*
X132368057Y-97516828D01*
X132404342Y-97480542D01*
X132440628Y-97407971D01*
X132440628Y-97335400D01*
X132404342Y-97262828D01*
X132368057Y-97226542D01*
X132295485Y-97190257D01*
X132150342Y-97153971D01*
X132077771Y-97117685D01*
X132041485Y-97081400D01*
X132005200Y-97008828D01*
X132005200Y-96936257D01*
X132041485Y-96863685D01*
X132077771Y-96827400D01*
X132150342Y-96791114D01*
X132331771Y-96791114D01*
X132440628Y-96827400D01*
X132658342Y-96791114D02*
X133093771Y-96791114D01*
X132876057Y-97553114D02*
X132876057Y-96791114D01*
X132917914Y-105383114D02*
X132663914Y-105020257D01*
X132482485Y-105383114D02*
X132482485Y-104621114D01*
X132772771Y-104621114D01*
X132845342Y-104657400D01*
X132881628Y-104693685D01*
X132917914Y-104766257D01*
X132917914Y-104875114D01*
X132881628Y-104947685D01*
X132845342Y-104983971D01*
X132772771Y-105020257D01*
X132482485Y-105020257D01*
X133171914Y-105383114D02*
X133571057Y-104875114D01*
X133171914Y-104875114D02*
X133571057Y-105383114D01*
X133861342Y-105092828D02*
X134441914Y-105092828D01*
X134151628Y-105383114D02*
X134151628Y-104802542D01*
X132704342Y-91241114D02*
X133139771Y-91241114D01*
X132922057Y-92003114D02*
X132922057Y-91241114D01*
X133321200Y-92003114D02*
X133720342Y-91495114D01*
X133321200Y-91495114D02*
X133720342Y-92003114D01*
X134010628Y-91712828D02*
X134591200Y-91712828D01*
X133814485Y-125919835D02*
X133850771Y-125883550D01*
X133923342Y-125847264D01*
X134104771Y-125847264D01*
X134177342Y-125883550D01*
X134213628Y-125919835D01*
X134249914Y-125992407D01*
X134249914Y-126064978D01*
X134213628Y-126173835D01*
X133778200Y-126609264D01*
X134249914Y-126609264D01*
X133778200Y-119599189D02*
X134286200Y-119599189D01*
X133959628Y-120361189D01*
X134216628Y-92382542D02*
X134216628Y-92636542D01*
X133817485Y-92745400D02*
X133817485Y-92382542D01*
X134579485Y-92382542D01*
X134579485Y-92745400D01*
X134579485Y-92963114D02*
X134579485Y-93398542D01*
X133817485Y-93180828D02*
X134579485Y-93180828D01*
X133817485Y-93652542D02*
X134579485Y-93652542D01*
X134216628Y-93652542D02*
X134216628Y-94087971D01*
X133817485Y-94087971D02*
X134579485Y-94087971D01*
X134506914Y-94995114D02*
X134543200Y-95031400D01*
X134579485Y-95103971D01*
X134579485Y-95285400D01*
X134543200Y-95357971D01*
X134506914Y-95394257D01*
X134434342Y-95430542D01*
X134361771Y-95430542D01*
X134252914Y-95394257D01*
X133817485Y-94958828D01*
X133817485Y-95430542D01*
X64491914Y-116962828D02*
X65072485Y-116962828D01*
X64782200Y-117253114D02*
X64782200Y-116672542D01*
D13*
X113478485Y-105152704D02*
X113732485Y-105914704D01*
X113986485Y-105152704D01*
X114240485Y-105515561D02*
X114494485Y-105515561D01*
X114603342Y-105914704D02*
X114240485Y-105914704D01*
X114240485Y-105152704D01*
X114603342Y-105152704D01*
X115365342Y-105842132D02*
X115329057Y-105878418D01*
X115220200Y-105914704D01*
X115147628Y-105914704D01*
X115038771Y-105878418D01*
X114966200Y-105805847D01*
X114929914Y-105733275D01*
X114893628Y-105588132D01*
X114893628Y-105479275D01*
X114929914Y-105334132D01*
X114966200Y-105261561D01*
X115038771Y-105188990D01*
X115147628Y-105152704D01*
X115220200Y-105152704D01*
X115329057Y-105188990D01*
X115365342Y-105225275D01*
X115583057Y-105152704D02*
X116018485Y-105152704D01*
X115800771Y-105914704D02*
X115800771Y-105152704D01*
X116417628Y-105152704D02*
X116562771Y-105152704D01*
X116635342Y-105188990D01*
X116707914Y-105261561D01*
X116744200Y-105406704D01*
X116744200Y-105660704D01*
X116707914Y-105805847D01*
X116635342Y-105878418D01*
X116562771Y-105914704D01*
X116417628Y-105914704D01*
X116345057Y-105878418D01*
X116272485Y-105805847D01*
X116236200Y-105660704D01*
X116236200Y-105406704D01*
X116272485Y-105261561D01*
X116345057Y-105188990D01*
X116417628Y-105152704D01*
X117506200Y-105914704D02*
X117252200Y-105551847D01*
X117070771Y-105914704D02*
X117070771Y-105152704D01*
X117361057Y-105152704D01*
X117433628Y-105188990D01*
X117469914Y-105225275D01*
X117506200Y-105297847D01*
X117506200Y-105406704D01*
X117469914Y-105479275D01*
X117433628Y-105515561D01*
X117361057Y-105551847D01*
X117070771Y-105551847D01*
X117832771Y-105914704D02*
X117832771Y-105152704D01*
X118268200Y-105914704D01*
X118268200Y-105152704D01*
X118594771Y-105696990D02*
X118957628Y-105696990D01*
X118522200Y-105914704D02*
X118776200Y-105152704D01*
X119030200Y-105914704D01*
X119175342Y-105152704D02*
X119429342Y-105914704D01*
X119683342Y-105152704D01*
X120409057Y-105152704D02*
X120663057Y-105914704D01*
X120917057Y-105152704D01*
X121171057Y-105914704D02*
X121171057Y-105152704D01*
X121606485Y-105914704D01*
X121606485Y-105152704D01*
X121969342Y-105624418D02*
X122549914Y-105624418D01*
X122840200Y-105152704D02*
X123348200Y-105914704D01*
X123348200Y-105152704D02*
X122840200Y-105914704D01*
X123783628Y-105152704D02*
X123856200Y-105152704D01*
X123928771Y-105188990D01*
X123965057Y-105225275D01*
X124001342Y-105297847D01*
X124037628Y-105442990D01*
X124037628Y-105624418D01*
X124001342Y-105769561D01*
X123965057Y-105842132D01*
X123928771Y-105878418D01*
X123856200Y-105914704D01*
X123783628Y-105914704D01*
X123711057Y-105878418D01*
X123674771Y-105842132D01*
X123638485Y-105769561D01*
X123602200Y-105624418D01*
X123602200Y-105442990D01*
X123638485Y-105297847D01*
X123674771Y-105225275D01*
X123711057Y-105188990D01*
X123783628Y-105152704D01*
X124509342Y-105152704D02*
X124581914Y-105152704D01*
X124654485Y-105188990D01*
X124690771Y-105225275D01*
X124727057Y-105297847D01*
X124763342Y-105442990D01*
X124763342Y-105624418D01*
X124727057Y-105769561D01*
X124690771Y-105842132D01*
X124654485Y-105878418D01*
X124581914Y-105914704D01*
X124509342Y-105914704D01*
X124436771Y-105878418D01*
X124400485Y-105842132D01*
X124364200Y-105769561D01*
X124327914Y-105624418D01*
X124327914Y-105442990D01*
X124364200Y-105297847D01*
X124400485Y-105225275D01*
X124436771Y-105188990D01*
X124509342Y-105152704D01*
X116508342Y-106379524D02*
X116653485Y-106379524D01*
X116726057Y-106415810D01*
X116798628Y-106488381D01*
X116834914Y-106633524D01*
X116834914Y-106887524D01*
X116798628Y-107032667D01*
X116726057Y-107105238D01*
X116653485Y-107141524D01*
X116508342Y-107141524D01*
X116435771Y-107105238D01*
X116363200Y-107032667D01*
X116326914Y-106887524D01*
X116326914Y-106633524D01*
X116363200Y-106488381D01*
X116435771Y-106415810D01*
X116508342Y-106379524D01*
X117161485Y-107141524D02*
X117161485Y-106379524D01*
X117451771Y-106379524D01*
X117524342Y-106415810D01*
X117560628Y-106452095D01*
X117596914Y-106524667D01*
X117596914Y-106633524D01*
X117560628Y-106706095D01*
X117524342Y-106742381D01*
X117451771Y-106778667D01*
X117161485Y-106778667D01*
X117814628Y-106379524D02*
X118250057Y-106379524D01*
X118032342Y-107141524D02*
X118032342Y-106379524D01*
X118504057Y-107141524D02*
X118504057Y-106379524D01*
X119012057Y-106379524D02*
X119157200Y-106379524D01*
X119229771Y-106415810D01*
X119302342Y-106488381D01*
X119338628Y-106633524D01*
X119338628Y-106887524D01*
X119302342Y-107032667D01*
X119229771Y-107105238D01*
X119157200Y-107141524D01*
X119012057Y-107141524D01*
X118939485Y-107105238D01*
X118866914Y-107032667D01*
X118830628Y-106887524D01*
X118830628Y-106633524D01*
X118866914Y-106488381D01*
X118939485Y-106415810D01*
X119012057Y-106379524D01*
X119665200Y-107141524D02*
X119665200Y-106379524D01*
X120100628Y-107141524D01*
X120100628Y-106379524D01*
X120427200Y-106923810D02*
X120790057Y-106923810D01*
X120354628Y-107141524D02*
X120608628Y-106379524D01*
X120862628Y-107141524D01*
X121479485Y-107141524D02*
X121116628Y-107141524D01*
X121116628Y-106379524D01*
D10*
X133487914Y-113895400D02*
X133850771Y-113895400D01*
X133415342Y-114113114D02*
X133669342Y-113351114D01*
X133923342Y-114113114D01*
X134503914Y-113605114D02*
X134503914Y-114113114D01*
X134322485Y-113314828D02*
X134141057Y-113859114D01*
X134612771Y-113859114D01*
X133741914Y-112573213D02*
X134322485Y-112573213D01*
X134032200Y-112863499D02*
X134032200Y-112282927D01*
X64491914Y-110782828D02*
X65072485Y-110782828D01*
X133487914Y-117644245D02*
X133850771Y-117644245D01*
X133415342Y-117861959D02*
X133669342Y-117099959D01*
X133923342Y-117861959D01*
X134576485Y-117861959D02*
X134141057Y-117861959D01*
X134358771Y-117861959D02*
X134358771Y-117099959D01*
X134286200Y-117208816D01*
X134213628Y-117281387D01*
X134141057Y-117317673D01*
X133487914Y-116394630D02*
X133850771Y-116394630D01*
X133415342Y-116612344D02*
X133669342Y-115850344D01*
X133923342Y-116612344D01*
X134141057Y-115922915D02*
X134177342Y-115886630D01*
X134249914Y-115850344D01*
X134431342Y-115850344D01*
X134503914Y-115886630D01*
X134540200Y-115922915D01*
X134576485Y-115995487D01*
X134576485Y-116068058D01*
X134540200Y-116176915D01*
X134104771Y-116612344D01*
X134576485Y-116612344D01*
X64491914Y-109552828D02*
X65072485Y-109552828D01*
X64782200Y-109843114D02*
X64782200Y-109262542D01*
X133487914Y-115145015D02*
X133850771Y-115145015D01*
X133415342Y-115362729D02*
X133669342Y-114600729D01*
X133923342Y-115362729D01*
X134104771Y-114600729D02*
X134576485Y-114600729D01*
X134322485Y-114891015D01*
X134431342Y-114891015D01*
X134503914Y-114927300D01*
X134540200Y-114963586D01*
X134576485Y-115036157D01*
X134576485Y-115217586D01*
X134540200Y-115290157D01*
X134503914Y-115326443D01*
X134431342Y-115362729D01*
X134213628Y-115362729D01*
X134141057Y-115326443D01*
X134104771Y-115290157D01*
X134213628Y-122098419D02*
X133850771Y-122098419D01*
X133814485Y-122461276D01*
X133850771Y-122424990D01*
X133923342Y-122388705D01*
X134104771Y-122388705D01*
X134177342Y-122424990D01*
X134213628Y-122461276D01*
X134249914Y-122533847D01*
X134249914Y-122715276D01*
X134213628Y-122787847D01*
X134177342Y-122824133D01*
X134104771Y-122860419D01*
X133923342Y-122860419D01*
X133850771Y-122824133D01*
X133814485Y-122787847D01*
X133959628Y-118676145D02*
X133887057Y-118639860D01*
X133850771Y-118603574D01*
X133814485Y-118531002D01*
X133814485Y-118494717D01*
X133850771Y-118422145D01*
X133887057Y-118385860D01*
X133959628Y-118349574D01*
X134104771Y-118349574D01*
X134177342Y-118385860D01*
X134213628Y-118422145D01*
X134249914Y-118494717D01*
X134249914Y-118531002D01*
X134213628Y-118603574D01*
X134177342Y-118639860D01*
X134104771Y-118676145D01*
X133959628Y-118676145D01*
X133887057Y-118712431D01*
X133850771Y-118748717D01*
X133814485Y-118821288D01*
X133814485Y-118966431D01*
X133850771Y-119039002D01*
X133887057Y-119075288D01*
X133959628Y-119111574D01*
X134104771Y-119111574D01*
X134177342Y-119075288D01*
X134213628Y-119039002D01*
X134249914Y-118966431D01*
X134249914Y-118821288D01*
X134213628Y-118748717D01*
X134177342Y-118712431D01*
X134104771Y-118676145D01*
X134249914Y-127858879D02*
X133814485Y-127858879D01*
X134032200Y-127858879D02*
X134032200Y-127096879D01*
X133959628Y-127205736D01*
X133887057Y-127278307D01*
X133814485Y-127314593D01*
%TO.C,C9*%
X75931366Y-87435185D02*
X75901128Y-87465423D01*
X75810414Y-87495661D01*
X75749938Y-87495661D01*
X75659223Y-87465423D01*
X75598747Y-87404947D01*
X75568509Y-87344471D01*
X75538271Y-87223519D01*
X75538271Y-87132804D01*
X75568509Y-87011852D01*
X75598747Y-86951376D01*
X75659223Y-86890900D01*
X75749938Y-86860661D01*
X75810414Y-86860661D01*
X75901128Y-86890900D01*
X75931366Y-86921138D01*
X76233747Y-87495661D02*
X76354700Y-87495661D01*
X76415176Y-87465423D01*
X76445414Y-87435185D01*
X76505890Y-87344471D01*
X76536128Y-87223519D01*
X76536128Y-86981614D01*
X76505890Y-86921138D01*
X76475652Y-86890900D01*
X76415176Y-86860661D01*
X76294223Y-86860661D01*
X76233747Y-86890900D01*
X76203509Y-86921138D01*
X76173271Y-86981614D01*
X76173271Y-87132804D01*
X76203509Y-87193280D01*
X76233747Y-87223519D01*
X76294223Y-87253757D01*
X76415176Y-87253757D01*
X76475652Y-87223519D01*
X76505890Y-87193280D01*
X76536128Y-87132804D01*
%TO.C,D1*%
X75889461Y-94307090D02*
X75254461Y-94307090D01*
X75254461Y-94155900D01*
X75284700Y-94065185D01*
X75345176Y-94004709D01*
X75405652Y-93974471D01*
X75526604Y-93944233D01*
X75617319Y-93944233D01*
X75738271Y-93974471D01*
X75798747Y-94004709D01*
X75859223Y-94065185D01*
X75889461Y-94155900D01*
X75889461Y-94307090D01*
X75889461Y-93339471D02*
X75889461Y-93702328D01*
X75889461Y-93520900D02*
X75254461Y-93520900D01*
X75345176Y-93581376D01*
X75405652Y-93641852D01*
X75435890Y-93702328D01*
%TO.C,D6*%
X88923509Y-91955661D02*
X88923509Y-91320661D01*
X89074700Y-91320661D01*
X89165414Y-91350900D01*
X89225890Y-91411376D01*
X89256128Y-91471852D01*
X89286366Y-91592804D01*
X89286366Y-91683519D01*
X89256128Y-91804471D01*
X89225890Y-91864947D01*
X89165414Y-91925423D01*
X89074700Y-91955661D01*
X88923509Y-91955661D01*
X89830652Y-91320661D02*
X89709700Y-91320661D01*
X89649223Y-91350900D01*
X89618985Y-91381138D01*
X89558509Y-91471852D01*
X89528271Y-91592804D01*
X89528271Y-91834709D01*
X89558509Y-91895185D01*
X89588747Y-91925423D01*
X89649223Y-91955661D01*
X89770176Y-91955661D01*
X89830652Y-91925423D01*
X89860890Y-91895185D01*
X89891128Y-91834709D01*
X89891128Y-91683519D01*
X89860890Y-91623042D01*
X89830652Y-91592804D01*
X89770176Y-91562566D01*
X89649223Y-91562566D01*
X89588747Y-91592804D01*
X89558509Y-91623042D01*
X89528271Y-91683519D01*
%TO.C,J9*%
X135044461Y-97390066D02*
X135498033Y-97390066D01*
X135588747Y-97420304D01*
X135649223Y-97480780D01*
X135679461Y-97571495D01*
X135679461Y-97631971D01*
X135679461Y-97057447D02*
X135679461Y-96936495D01*
X135649223Y-96876019D01*
X135618985Y-96845780D01*
X135528271Y-96785304D01*
X135407319Y-96755066D01*
X135165414Y-96755066D01*
X135104938Y-96785304D01*
X135074700Y-96815542D01*
X135044461Y-96876019D01*
X135044461Y-96996971D01*
X135074700Y-97057447D01*
X135104938Y-97087685D01*
X135165414Y-97117923D01*
X135316604Y-97117923D01*
X135377080Y-97087685D01*
X135407319Y-97057447D01*
X135437557Y-96996971D01*
X135437557Y-96876019D01*
X135407319Y-96815542D01*
X135377080Y-96785304D01*
X135316604Y-96755066D01*
%TO.C,J10*%
X85638152Y-83680661D02*
X85638152Y-84134233D01*
X85607914Y-84224947D01*
X85547438Y-84285423D01*
X85456723Y-84315661D01*
X85396247Y-84315661D01*
X86273152Y-84315661D02*
X85910295Y-84315661D01*
X86091723Y-84315661D02*
X86091723Y-83680661D01*
X86031247Y-83771376D01*
X85970771Y-83831852D01*
X85910295Y-83862090D01*
X86666247Y-83680661D02*
X86726723Y-83680661D01*
X86787200Y-83710900D01*
X86817438Y-83741138D01*
X86847676Y-83801614D01*
X86877914Y-83922566D01*
X86877914Y-84073757D01*
X86847676Y-84194709D01*
X86817438Y-84255185D01*
X86787200Y-84285423D01*
X86726723Y-84315661D01*
X86666247Y-84315661D01*
X86605771Y-84285423D01*
X86575533Y-84255185D01*
X86545295Y-84194709D01*
X86515057Y-84073757D01*
X86515057Y-83922566D01*
X86545295Y-83801614D01*
X86575533Y-83741138D01*
X86605771Y-83710900D01*
X86666247Y-83680661D01*
%TO.C,J20*%
X64185758Y-129380792D02*
X63732186Y-129380792D01*
X63641472Y-129350554D01*
X63580996Y-129290078D01*
X63550758Y-129199363D01*
X63550758Y-129138887D01*
X64125281Y-129652935D02*
X64155520Y-129683173D01*
X64185758Y-129743649D01*
X64185758Y-129894840D01*
X64155520Y-129955316D01*
X64125281Y-129985554D01*
X64064805Y-130015792D01*
X64004329Y-130015792D01*
X63913615Y-129985554D01*
X63550758Y-129622697D01*
X63550758Y-130015792D01*
X64185758Y-130408887D02*
X64185758Y-130469363D01*
X64155520Y-130529840D01*
X64125281Y-130560078D01*
X64064805Y-130590316D01*
X63943853Y-130620554D01*
X63792662Y-130620554D01*
X63671710Y-130590316D01*
X63611234Y-130560078D01*
X63580996Y-130529840D01*
X63550758Y-130469363D01*
X63550758Y-130408887D01*
X63580996Y-130348411D01*
X63611234Y-130318173D01*
X63671710Y-130287935D01*
X63792662Y-130257697D01*
X63943853Y-130257697D01*
X64064805Y-130287935D01*
X64125281Y-130318173D01*
X64155520Y-130348411D01*
X64185758Y-130408887D01*
%TO.C,J27*%
X65863972Y-97162101D02*
X65863972Y-97615673D01*
X65833734Y-97706387D01*
X65773258Y-97766863D01*
X65682543Y-97797101D01*
X65622067Y-97797101D01*
X66136115Y-97222578D02*
X66166353Y-97192340D01*
X66226829Y-97162101D01*
X66378020Y-97162101D01*
X66438496Y-97192340D01*
X66468734Y-97222578D01*
X66498972Y-97283054D01*
X66498972Y-97343530D01*
X66468734Y-97434244D01*
X66105877Y-97797101D01*
X66498972Y-97797101D01*
X66710639Y-97162101D02*
X67133972Y-97162101D01*
X66861829Y-97797101D01*
D11*
X71417842Y-97744988D02*
X71417842Y-96602131D01*
X71989271Y-97173560D02*
X70846414Y-97173560D01*
X71417842Y-86744988D02*
X71417842Y-85602131D01*
D10*
%TO.C,R5*%
X78754461Y-93444233D02*
X78452080Y-93655900D01*
X78754461Y-93807090D02*
X78119461Y-93807090D01*
X78119461Y-93565185D01*
X78149700Y-93504709D01*
X78179938Y-93474471D01*
X78240414Y-93444233D01*
X78331128Y-93444233D01*
X78391604Y-93474471D01*
X78421842Y-93504709D01*
X78452080Y-93565185D01*
X78452080Y-93807090D01*
X78119461Y-92869709D02*
X78119461Y-93172090D01*
X78421842Y-93202328D01*
X78391604Y-93172090D01*
X78361366Y-93111614D01*
X78361366Y-92960423D01*
X78391604Y-92899947D01*
X78421842Y-92869709D01*
X78482319Y-92839471D01*
X78633509Y-92839471D01*
X78693985Y-92869709D01*
X78724223Y-92899947D01*
X78754461Y-92960423D01*
X78754461Y-93111614D01*
X78724223Y-93172090D01*
X78693985Y-93202328D01*
%TO.C,R18*%
X88593985Y-87185661D02*
X88382319Y-86883280D01*
X88231128Y-87185661D02*
X88231128Y-86550661D01*
X88473033Y-86550661D01*
X88533509Y-86580900D01*
X88563747Y-86611138D01*
X88593985Y-86671614D01*
X88593985Y-86762328D01*
X88563747Y-86822804D01*
X88533509Y-86853042D01*
X88473033Y-86883280D01*
X88231128Y-86883280D01*
X89198747Y-87185661D02*
X88835890Y-87185661D01*
X89017319Y-87185661D02*
X89017319Y-86550661D01*
X88956842Y-86641376D01*
X88896366Y-86701852D01*
X88835890Y-86732090D01*
X89561604Y-86822804D02*
X89501128Y-86792566D01*
X89470890Y-86762328D01*
X89440652Y-86701852D01*
X89440652Y-86671614D01*
X89470890Y-86611138D01*
X89501128Y-86580900D01*
X89561604Y-86550661D01*
X89682557Y-86550661D01*
X89743033Y-86580900D01*
X89773271Y-86611138D01*
X89803509Y-86671614D01*
X89803509Y-86701852D01*
X89773271Y-86762328D01*
X89743033Y-86792566D01*
X89682557Y-86822804D01*
X89561604Y-86822804D01*
X89501128Y-86853042D01*
X89470890Y-86883280D01*
X89440652Y-86943757D01*
X89440652Y-87064709D01*
X89470890Y-87125185D01*
X89501128Y-87155423D01*
X89561604Y-87185661D01*
X89682557Y-87185661D01*
X89743033Y-87155423D01*
X89773271Y-87125185D01*
X89803509Y-87064709D01*
X89803509Y-86943757D01*
X89773271Y-86883280D01*
X89743033Y-86853042D01*
X89682557Y-86822804D01*
%TO.C,C7*%
X101068266Y-97055285D02*
X101038028Y-97085523D01*
X100947314Y-97115761D01*
X100886838Y-97115761D01*
X100796123Y-97085523D01*
X100735647Y-97025047D01*
X100705409Y-96964571D01*
X100675171Y-96843619D01*
X100675171Y-96752904D01*
X100705409Y-96631952D01*
X100735647Y-96571476D01*
X100796123Y-96511000D01*
X100886838Y-96480761D01*
X100947314Y-96480761D01*
X101038028Y-96511000D01*
X101068266Y-96541238D01*
X101279933Y-96480761D02*
X101703266Y-96480761D01*
X101431123Y-97115761D01*
%TO.C,C24*%
X101248985Y-104560185D02*
X101218747Y-104590423D01*
X101128033Y-104620661D01*
X101067557Y-104620661D01*
X100976842Y-104590423D01*
X100916366Y-104529947D01*
X100886128Y-104469471D01*
X100855890Y-104348519D01*
X100855890Y-104257804D01*
X100886128Y-104136852D01*
X100916366Y-104076376D01*
X100976842Y-104015900D01*
X101067557Y-103985661D01*
X101128033Y-103985661D01*
X101218747Y-104015900D01*
X101248985Y-104046138D01*
X101490890Y-104046138D02*
X101521128Y-104015900D01*
X101581604Y-103985661D01*
X101732795Y-103985661D01*
X101793271Y-104015900D01*
X101823509Y-104046138D01*
X101853747Y-104106614D01*
X101853747Y-104167090D01*
X101823509Y-104257804D01*
X101460652Y-104620661D01*
X101853747Y-104620661D01*
X102398033Y-104197328D02*
X102398033Y-104620661D01*
X102246842Y-103955423D02*
X102095652Y-104408995D01*
X102488747Y-104408995D01*
%TO.C,C10*%
X101065885Y-99214785D02*
X101035647Y-99245023D01*
X100944933Y-99275261D01*
X100884457Y-99275261D01*
X100793742Y-99245023D01*
X100733266Y-99184547D01*
X100703028Y-99124071D01*
X100672790Y-99003119D01*
X100672790Y-98912404D01*
X100703028Y-98791452D01*
X100733266Y-98730976D01*
X100793742Y-98670500D01*
X100884457Y-98640261D01*
X100944933Y-98640261D01*
X101035647Y-98670500D01*
X101065885Y-98700738D01*
X101670647Y-99275261D02*
X101307790Y-99275261D01*
X101489219Y-99275261D02*
X101489219Y-98640261D01*
X101428742Y-98730976D01*
X101368266Y-98791452D01*
X101307790Y-98821690D01*
X102063742Y-98640261D02*
X102124219Y-98640261D01*
X102184695Y-98670500D01*
X102214933Y-98700738D01*
X102245171Y-98761214D01*
X102275409Y-98882166D01*
X102275409Y-99033357D01*
X102245171Y-99154309D01*
X102214933Y-99214785D01*
X102184695Y-99245023D01*
X102124219Y-99275261D01*
X102063742Y-99275261D01*
X102003266Y-99245023D01*
X101973028Y-99214785D01*
X101942790Y-99154309D01*
X101912552Y-99033357D01*
X101912552Y-98882166D01*
X101942790Y-98761214D01*
X101973028Y-98700738D01*
X102003266Y-98670500D01*
X102063742Y-98640261D01*
%TO.C,C12*%
X101098985Y-101430185D02*
X101068747Y-101460423D01*
X100978033Y-101490661D01*
X100917557Y-101490661D01*
X100826842Y-101460423D01*
X100766366Y-101399947D01*
X100736128Y-101339471D01*
X100705890Y-101218519D01*
X100705890Y-101127804D01*
X100736128Y-101006852D01*
X100766366Y-100946376D01*
X100826842Y-100885900D01*
X100917557Y-100855661D01*
X100978033Y-100855661D01*
X101068747Y-100885900D01*
X101098985Y-100916138D01*
X101703747Y-101490661D02*
X101340890Y-101490661D01*
X101522319Y-101490661D02*
X101522319Y-100855661D01*
X101461842Y-100946376D01*
X101401366Y-101006852D01*
X101340890Y-101037090D01*
X101945652Y-100916138D02*
X101975890Y-100885900D01*
X102036366Y-100855661D01*
X102187557Y-100855661D01*
X102248033Y-100885900D01*
X102278271Y-100916138D01*
X102308509Y-100976614D01*
X102308509Y-101037090D01*
X102278271Y-101127804D01*
X101915414Y-101490661D01*
X102308509Y-101490661D01*
%TO.C,C14*%
X92355885Y-103116714D02*
X92386123Y-103146952D01*
X92416361Y-103237666D01*
X92416361Y-103298142D01*
X92386123Y-103388857D01*
X92325647Y-103449333D01*
X92265171Y-103479571D01*
X92144219Y-103509809D01*
X92053504Y-103509809D01*
X91932552Y-103479571D01*
X91872076Y-103449333D01*
X91811600Y-103388857D01*
X91781361Y-103298142D01*
X91781361Y-103237666D01*
X91811600Y-103146952D01*
X91841838Y-103116714D01*
X92416361Y-102511952D02*
X92416361Y-102874809D01*
X92416361Y-102693380D02*
X91781361Y-102693380D01*
X91872076Y-102753857D01*
X91932552Y-102814333D01*
X91962790Y-102874809D01*
X91993028Y-101967666D02*
X92416361Y-101967666D01*
X91751123Y-102118857D02*
X92204695Y-102270047D01*
X92204695Y-101876952D01*
%TO.C,C16*%
X96623985Y-109085185D02*
X96593747Y-109115423D01*
X96503033Y-109145661D01*
X96442557Y-109145661D01*
X96351842Y-109115423D01*
X96291366Y-109054947D01*
X96261128Y-108994471D01*
X96230890Y-108873519D01*
X96230890Y-108782804D01*
X96261128Y-108661852D01*
X96291366Y-108601376D01*
X96351842Y-108540900D01*
X96442557Y-108510661D01*
X96503033Y-108510661D01*
X96593747Y-108540900D01*
X96623985Y-108571138D01*
X97228747Y-109145661D02*
X96865890Y-109145661D01*
X97047319Y-109145661D02*
X97047319Y-108510661D01*
X96986842Y-108601376D01*
X96926366Y-108661852D01*
X96865890Y-108692090D01*
X97773033Y-108510661D02*
X97652080Y-108510661D01*
X97591604Y-108540900D01*
X97561366Y-108571138D01*
X97500890Y-108661852D01*
X97470652Y-108782804D01*
X97470652Y-109024709D01*
X97500890Y-109085185D01*
X97531128Y-109115423D01*
X97591604Y-109145661D01*
X97712557Y-109145661D01*
X97773033Y-109115423D01*
X97803271Y-109085185D01*
X97833509Y-109024709D01*
X97833509Y-108873519D01*
X97803271Y-108813042D01*
X97773033Y-108782804D01*
X97712557Y-108752566D01*
X97591604Y-108752566D01*
X97531128Y-108782804D01*
X97500890Y-108813042D01*
X97470652Y-108873519D01*
%TO.C,C22*%
X98998985Y-104510185D02*
X98968747Y-104540423D01*
X98878033Y-104570661D01*
X98817557Y-104570661D01*
X98726842Y-104540423D01*
X98666366Y-104479947D01*
X98636128Y-104419471D01*
X98605890Y-104298519D01*
X98605890Y-104207804D01*
X98636128Y-104086852D01*
X98666366Y-104026376D01*
X98726842Y-103965900D01*
X98817557Y-103935661D01*
X98878033Y-103935661D01*
X98968747Y-103965900D01*
X98998985Y-103996138D01*
X99240890Y-103996138D02*
X99271128Y-103965900D01*
X99331604Y-103935661D01*
X99482795Y-103935661D01*
X99543271Y-103965900D01*
X99573509Y-103996138D01*
X99603747Y-104056614D01*
X99603747Y-104117090D01*
X99573509Y-104207804D01*
X99210652Y-104570661D01*
X99603747Y-104570661D01*
X99845652Y-103996138D02*
X99875890Y-103965900D01*
X99936366Y-103935661D01*
X100087557Y-103935661D01*
X100148033Y-103965900D01*
X100178271Y-103996138D01*
X100208509Y-104056614D01*
X100208509Y-104117090D01*
X100178271Y-104207804D01*
X99815414Y-104570661D01*
X100208509Y-104570661D01*
%TO.C,C26*%
X103348985Y-104510185D02*
X103318747Y-104540423D01*
X103228033Y-104570661D01*
X103167557Y-104570661D01*
X103076842Y-104540423D01*
X103016366Y-104479947D01*
X102986128Y-104419471D01*
X102955890Y-104298519D01*
X102955890Y-104207804D01*
X102986128Y-104086852D01*
X103016366Y-104026376D01*
X103076842Y-103965900D01*
X103167557Y-103935661D01*
X103228033Y-103935661D01*
X103318747Y-103965900D01*
X103348985Y-103996138D01*
X103590890Y-103996138D02*
X103621128Y-103965900D01*
X103681604Y-103935661D01*
X103832795Y-103935661D01*
X103893271Y-103965900D01*
X103923509Y-103996138D01*
X103953747Y-104056614D01*
X103953747Y-104117090D01*
X103923509Y-104207804D01*
X103560652Y-104570661D01*
X103953747Y-104570661D01*
X104498033Y-103935661D02*
X104377080Y-103935661D01*
X104316604Y-103965900D01*
X104286366Y-103996138D01*
X104225890Y-104086852D01*
X104195652Y-104207804D01*
X104195652Y-104449709D01*
X104225890Y-104510185D01*
X104256128Y-104540423D01*
X104316604Y-104570661D01*
X104437557Y-104570661D01*
X104498033Y-104540423D01*
X104528271Y-104510185D01*
X104558509Y-104449709D01*
X104558509Y-104298519D01*
X104528271Y-104238042D01*
X104498033Y-104207804D01*
X104437557Y-104177566D01*
X104316604Y-104177566D01*
X104256128Y-104207804D01*
X104225890Y-104238042D01*
X104195652Y-104298519D01*
%TO.C,C18*%
X96523985Y-109885185D02*
X96493747Y-109915423D01*
X96403033Y-109945661D01*
X96342557Y-109945661D01*
X96251842Y-109915423D01*
X96191366Y-109854947D01*
X96161128Y-109794471D01*
X96130890Y-109673519D01*
X96130890Y-109582804D01*
X96161128Y-109461852D01*
X96191366Y-109401376D01*
X96251842Y-109340900D01*
X96342557Y-109310661D01*
X96403033Y-109310661D01*
X96493747Y-109340900D01*
X96523985Y-109371138D01*
X97128747Y-109945661D02*
X96765890Y-109945661D01*
X96947319Y-109945661D02*
X96947319Y-109310661D01*
X96886842Y-109401376D01*
X96826366Y-109461852D01*
X96765890Y-109492090D01*
X97491604Y-109582804D02*
X97431128Y-109552566D01*
X97400890Y-109522328D01*
X97370652Y-109461852D01*
X97370652Y-109431614D01*
X97400890Y-109371138D01*
X97431128Y-109340900D01*
X97491604Y-109310661D01*
X97612557Y-109310661D01*
X97673033Y-109340900D01*
X97703271Y-109371138D01*
X97733509Y-109431614D01*
X97733509Y-109461852D01*
X97703271Y-109522328D01*
X97673033Y-109552566D01*
X97612557Y-109582804D01*
X97491604Y-109582804D01*
X97431128Y-109613042D01*
X97400890Y-109643280D01*
X97370652Y-109703757D01*
X97370652Y-109824709D01*
X97400890Y-109885185D01*
X97431128Y-109915423D01*
X97491604Y-109945661D01*
X97612557Y-109945661D01*
X97673033Y-109915423D01*
X97703271Y-109885185D01*
X97733509Y-109824709D01*
X97733509Y-109703757D01*
X97703271Y-109643280D01*
X97673033Y-109613042D01*
X97612557Y-109582804D01*
%TO.C,C20*%
X98798985Y-103110185D02*
X98768747Y-103140423D01*
X98678033Y-103170661D01*
X98617557Y-103170661D01*
X98526842Y-103140423D01*
X98466366Y-103079947D01*
X98436128Y-103019471D01*
X98405890Y-102898519D01*
X98405890Y-102807804D01*
X98436128Y-102686852D01*
X98466366Y-102626376D01*
X98526842Y-102565900D01*
X98617557Y-102535661D01*
X98678033Y-102535661D01*
X98768747Y-102565900D01*
X98798985Y-102596138D01*
X99040890Y-102596138D02*
X99071128Y-102565900D01*
X99131604Y-102535661D01*
X99282795Y-102535661D01*
X99343271Y-102565900D01*
X99373509Y-102596138D01*
X99403747Y-102656614D01*
X99403747Y-102717090D01*
X99373509Y-102807804D01*
X99010652Y-103170661D01*
X99403747Y-103170661D01*
X99796842Y-102535661D02*
X99857319Y-102535661D01*
X99917795Y-102565900D01*
X99948033Y-102596138D01*
X99978271Y-102656614D01*
X100008509Y-102777566D01*
X100008509Y-102928757D01*
X99978271Y-103049709D01*
X99948033Y-103110185D01*
X99917795Y-103140423D01*
X99857319Y-103170661D01*
X99796842Y-103170661D01*
X99736366Y-103140423D01*
X99706128Y-103110185D01*
X99675890Y-103049709D01*
X99645652Y-102928757D01*
X99645652Y-102777566D01*
X99675890Y-102656614D01*
X99706128Y-102596138D01*
X99736366Y-102565900D01*
X99796842Y-102535661D01*
%TO.C,R6*%
X92496838Y-105772666D02*
X92799219Y-105561000D01*
X92496838Y-105409809D02*
X93131838Y-105409809D01*
X93131838Y-105651714D01*
X93101600Y-105712190D01*
X93071361Y-105742428D01*
X93010885Y-105772666D01*
X92920171Y-105772666D01*
X92859695Y-105742428D01*
X92829457Y-105712190D01*
X92799219Y-105651714D01*
X92799219Y-105409809D01*
X93131838Y-106316952D02*
X93131838Y-106196000D01*
X93101600Y-106135523D01*
X93071361Y-106105285D01*
X92980647Y-106044809D01*
X92859695Y-106014571D01*
X92617790Y-106014571D01*
X92557314Y-106044809D01*
X92527076Y-106075047D01*
X92496838Y-106135523D01*
X92496838Y-106256476D01*
X92527076Y-106316952D01*
X92557314Y-106347190D01*
X92617790Y-106377428D01*
X92768980Y-106377428D01*
X92829457Y-106347190D01*
X92859695Y-106316952D01*
X92889933Y-106256476D01*
X92889933Y-106135523D01*
X92859695Y-106075047D01*
X92829457Y-106044809D01*
X92768980Y-106014571D01*
%TO.C,R8*%
X93384861Y-103244333D02*
X93082480Y-103456000D01*
X93384861Y-103607190D02*
X92749861Y-103607190D01*
X92749861Y-103365285D01*
X92780100Y-103304809D01*
X92810338Y-103274571D01*
X92870814Y-103244333D01*
X92961528Y-103244333D01*
X93022004Y-103274571D01*
X93052242Y-103304809D01*
X93082480Y-103365285D01*
X93082480Y-103607190D01*
X93022004Y-102881476D02*
X92991766Y-102941952D01*
X92961528Y-102972190D01*
X92901052Y-103002428D01*
X92870814Y-103002428D01*
X92810338Y-102972190D01*
X92780100Y-102941952D01*
X92749861Y-102881476D01*
X92749861Y-102760523D01*
X92780100Y-102700047D01*
X92810338Y-102669809D01*
X92870814Y-102639571D01*
X92901052Y-102639571D01*
X92961528Y-102669809D01*
X92991766Y-102700047D01*
X93022004Y-102760523D01*
X93022004Y-102881476D01*
X93052242Y-102941952D01*
X93082480Y-102972190D01*
X93142957Y-103002428D01*
X93263909Y-103002428D01*
X93324385Y-102972190D01*
X93354623Y-102941952D01*
X93384861Y-102881476D01*
X93384861Y-102760523D01*
X93354623Y-102700047D01*
X93324385Y-102669809D01*
X93263909Y-102639571D01*
X93142957Y-102639571D01*
X93082480Y-102669809D01*
X93052242Y-102700047D01*
X93022004Y-102760523D01*
%TO.C,U3*%
X94073390Y-102360661D02*
X94073390Y-102874709D01*
X94103628Y-102935185D01*
X94133866Y-102965423D01*
X94194342Y-102995661D01*
X94315295Y-102995661D01*
X94375771Y-102965423D01*
X94406009Y-102935185D01*
X94436247Y-102874709D01*
X94436247Y-102360661D01*
X94678152Y-102360661D02*
X95071247Y-102360661D01*
X94859580Y-102602566D01*
X94950295Y-102602566D01*
X95010771Y-102632804D01*
X95041009Y-102663042D01*
X95071247Y-102723519D01*
X95071247Y-102874709D01*
X95041009Y-102935185D01*
X95010771Y-102965423D01*
X94950295Y-102995661D01*
X94768866Y-102995661D01*
X94708390Y-102965423D01*
X94678152Y-102935185D01*
%TO.C,D2*%
X87903409Y-113820921D02*
X87903409Y-113185921D01*
X88054600Y-113185921D01*
X88145314Y-113216160D01*
X88205790Y-113276636D01*
X88236028Y-113337112D01*
X88266266Y-113458064D01*
X88266266Y-113548779D01*
X88236028Y-113669731D01*
X88205790Y-113730207D01*
X88145314Y-113790683D01*
X88054600Y-113820921D01*
X87903409Y-113820921D01*
X88508171Y-113246398D02*
X88538409Y-113216160D01*
X88598885Y-113185921D01*
X88750076Y-113185921D01*
X88810552Y-113216160D01*
X88840790Y-113246398D01*
X88871028Y-113306874D01*
X88871028Y-113367350D01*
X88840790Y-113458064D01*
X88477933Y-113820921D01*
X88871028Y-113820921D01*
%TO.C,J16*%
X64171758Y-112008572D02*
X63718186Y-112008572D01*
X63627472Y-111978334D01*
X63566996Y-111917858D01*
X63536758Y-111827143D01*
X63536758Y-111766667D01*
X63536758Y-112643572D02*
X63536758Y-112280715D01*
X63536758Y-112462143D02*
X64171758Y-112462143D01*
X64081043Y-112401667D01*
X64020567Y-112341191D01*
X63990329Y-112280715D01*
X64171758Y-113187858D02*
X64171758Y-113066905D01*
X64141520Y-113006429D01*
X64111281Y-112976191D01*
X64020567Y-112915715D01*
X63899615Y-112885477D01*
X63657710Y-112885477D01*
X63597234Y-112915715D01*
X63566996Y-112945953D01*
X63536758Y-113006429D01*
X63536758Y-113127381D01*
X63566996Y-113187858D01*
X63597234Y-113218096D01*
X63657710Y-113248334D01*
X63808900Y-113248334D01*
X63869377Y-113218096D01*
X63899615Y-113187858D01*
X63929853Y-113127381D01*
X63929853Y-113006429D01*
X63899615Y-112945953D01*
X63869377Y-112915715D01*
X63808900Y-112885477D01*
%TO.C,Q1*%
X107848303Y-123236338D02*
X107787827Y-123206100D01*
X107727351Y-123145623D01*
X107636637Y-123054909D01*
X107576160Y-123024671D01*
X107515684Y-123024671D01*
X107545922Y-123175861D02*
X107485446Y-123145623D01*
X107424970Y-123085147D01*
X107394732Y-122964195D01*
X107394732Y-122752528D01*
X107424970Y-122631576D01*
X107485446Y-122571100D01*
X107545922Y-122540861D01*
X107666875Y-122540861D01*
X107727351Y-122571100D01*
X107787827Y-122631576D01*
X107818065Y-122752528D01*
X107818065Y-122964195D01*
X107787827Y-123085147D01*
X107727351Y-123145623D01*
X107666875Y-123175861D01*
X107545922Y-123175861D01*
X108422827Y-123175861D02*
X108059970Y-123175861D01*
X108241399Y-123175861D02*
X108241399Y-122540861D01*
X108180922Y-122631576D01*
X108120446Y-122692052D01*
X108059970Y-122722290D01*
%TO.C,R1*%
X111761366Y-119695661D02*
X111549700Y-119393280D01*
X111398509Y-119695661D02*
X111398509Y-119060661D01*
X111640414Y-119060661D01*
X111700890Y-119090900D01*
X111731128Y-119121138D01*
X111761366Y-119181614D01*
X111761366Y-119272328D01*
X111731128Y-119332804D01*
X111700890Y-119363042D01*
X111640414Y-119393280D01*
X111398509Y-119393280D01*
X112366128Y-119695661D02*
X112003271Y-119695661D01*
X112184700Y-119695661D02*
X112184700Y-119060661D01*
X112124223Y-119151376D01*
X112063747Y-119211852D01*
X112003271Y-119242090D01*
%TO.C,R2*%
X113776366Y-124470661D02*
X113564700Y-124168280D01*
X113413509Y-124470661D02*
X113413509Y-123835661D01*
X113655414Y-123835661D01*
X113715890Y-123865900D01*
X113746128Y-123896138D01*
X113776366Y-123956614D01*
X113776366Y-124047328D01*
X113746128Y-124107804D01*
X113715890Y-124138042D01*
X113655414Y-124168280D01*
X113413509Y-124168280D01*
X114018271Y-123896138D02*
X114048509Y-123865900D01*
X114108985Y-123835661D01*
X114260176Y-123835661D01*
X114320652Y-123865900D01*
X114350890Y-123896138D01*
X114381128Y-123956614D01*
X114381128Y-124017090D01*
X114350890Y-124107804D01*
X113988033Y-124470661D01*
X114381128Y-124470661D01*
%TO.C,R9*%
X74944461Y-103039233D02*
X74642080Y-103250900D01*
X74944461Y-103402090D02*
X74309461Y-103402090D01*
X74309461Y-103160185D01*
X74339700Y-103099709D01*
X74369938Y-103069471D01*
X74430414Y-103039233D01*
X74521128Y-103039233D01*
X74581604Y-103069471D01*
X74611842Y-103099709D01*
X74642080Y-103160185D01*
X74642080Y-103402090D01*
X74944461Y-102736852D02*
X74944461Y-102615900D01*
X74914223Y-102555423D01*
X74883985Y-102525185D01*
X74793271Y-102464709D01*
X74672319Y-102434471D01*
X74430414Y-102434471D01*
X74369938Y-102464709D01*
X74339700Y-102494947D01*
X74309461Y-102555423D01*
X74309461Y-102676376D01*
X74339700Y-102736852D01*
X74369938Y-102767090D01*
X74430414Y-102797328D01*
X74581604Y-102797328D01*
X74642080Y-102767090D01*
X74672319Y-102736852D01*
X74702557Y-102676376D01*
X74702557Y-102555423D01*
X74672319Y-102494947D01*
X74642080Y-102464709D01*
X74581604Y-102434471D01*
%TO.C,L2*%
X86626366Y-120570661D02*
X86323985Y-120570661D01*
X86323985Y-119935661D01*
X86807795Y-119996138D02*
X86838033Y-119965900D01*
X86898509Y-119935661D01*
X87049700Y-119935661D01*
X87110176Y-119965900D01*
X87140414Y-119996138D01*
X87170652Y-120056614D01*
X87170652Y-120117090D01*
X87140414Y-120207804D01*
X86777557Y-120570661D01*
X87170652Y-120570661D01*
D11*
X74231720Y-117479320D02*
X74231720Y-117717416D01*
X73993624Y-117622178D02*
X74231720Y-117717416D01*
X74469815Y-117622178D01*
X74088862Y-117907892D02*
X74231720Y-117717416D01*
X74374577Y-117907892D01*
D10*
%TO.C,C25*%
X82823985Y-104410185D02*
X82793747Y-104440423D01*
X82703033Y-104470661D01*
X82642557Y-104470661D01*
X82551842Y-104440423D01*
X82491366Y-104379947D01*
X82461128Y-104319471D01*
X82430890Y-104198519D01*
X82430890Y-104107804D01*
X82461128Y-103986852D01*
X82491366Y-103926376D01*
X82551842Y-103865900D01*
X82642557Y-103835661D01*
X82703033Y-103835661D01*
X82793747Y-103865900D01*
X82823985Y-103896138D01*
X83065890Y-103896138D02*
X83096128Y-103865900D01*
X83156604Y-103835661D01*
X83307795Y-103835661D01*
X83368271Y-103865900D01*
X83398509Y-103896138D01*
X83428747Y-103956614D01*
X83428747Y-104017090D01*
X83398509Y-104107804D01*
X83035652Y-104470661D01*
X83428747Y-104470661D01*
X84003271Y-103835661D02*
X83700890Y-103835661D01*
X83670652Y-104138042D01*
X83700890Y-104107804D01*
X83761366Y-104077566D01*
X83912557Y-104077566D01*
X83973033Y-104107804D01*
X84003271Y-104138042D01*
X84033509Y-104198519D01*
X84033509Y-104349709D01*
X84003271Y-104410185D01*
X83973033Y-104440423D01*
X83912557Y-104470661D01*
X83761366Y-104470661D01*
X83700890Y-104440423D01*
X83670652Y-104410185D01*
%TO.C,C13*%
X86015885Y-97048185D02*
X85985647Y-97078423D01*
X85894933Y-97108661D01*
X85834457Y-97108661D01*
X85743742Y-97078423D01*
X85683266Y-97017947D01*
X85653028Y-96957471D01*
X85622790Y-96836519D01*
X85622790Y-96745804D01*
X85653028Y-96624852D01*
X85683266Y-96564376D01*
X85743742Y-96503900D01*
X85834457Y-96473661D01*
X85894933Y-96473661D01*
X85985647Y-96503900D01*
X86015885Y-96534138D01*
X86620647Y-97108661D02*
X86257790Y-97108661D01*
X86439219Y-97108661D02*
X86439219Y-96473661D01*
X86378742Y-96564376D01*
X86318266Y-96624852D01*
X86257790Y-96655090D01*
X86832314Y-96473661D02*
X87225409Y-96473661D01*
X87013742Y-96715566D01*
X87104457Y-96715566D01*
X87164933Y-96745804D01*
X87195171Y-96776042D01*
X87225409Y-96836519D01*
X87225409Y-96987709D01*
X87195171Y-97048185D01*
X87164933Y-97078423D01*
X87104457Y-97108661D01*
X86923028Y-97108661D01*
X86862552Y-97078423D01*
X86832314Y-97048185D01*
%TO.C,C23*%
X80623985Y-104410185D02*
X80593747Y-104440423D01*
X80503033Y-104470661D01*
X80442557Y-104470661D01*
X80351842Y-104440423D01*
X80291366Y-104379947D01*
X80261128Y-104319471D01*
X80230890Y-104198519D01*
X80230890Y-104107804D01*
X80261128Y-103986852D01*
X80291366Y-103926376D01*
X80351842Y-103865900D01*
X80442557Y-103835661D01*
X80503033Y-103835661D01*
X80593747Y-103865900D01*
X80623985Y-103896138D01*
X80865890Y-103896138D02*
X80896128Y-103865900D01*
X80956604Y-103835661D01*
X81107795Y-103835661D01*
X81168271Y-103865900D01*
X81198509Y-103896138D01*
X81228747Y-103956614D01*
X81228747Y-104017090D01*
X81198509Y-104107804D01*
X80835652Y-104470661D01*
X81228747Y-104470661D01*
X81440414Y-103835661D02*
X81833509Y-103835661D01*
X81621842Y-104077566D01*
X81712557Y-104077566D01*
X81773033Y-104107804D01*
X81803271Y-104138042D01*
X81833509Y-104198519D01*
X81833509Y-104349709D01*
X81803271Y-104410185D01*
X81773033Y-104440423D01*
X81712557Y-104470661D01*
X81531128Y-104470661D01*
X81470652Y-104440423D01*
X81440414Y-104410185D01*
%TO.C,C17*%
X78445885Y-109105285D02*
X78415647Y-109135523D01*
X78324933Y-109165761D01*
X78264457Y-109165761D01*
X78173742Y-109135523D01*
X78113266Y-109075047D01*
X78083028Y-109014571D01*
X78052790Y-108893619D01*
X78052790Y-108802904D01*
X78083028Y-108681952D01*
X78113266Y-108621476D01*
X78173742Y-108561000D01*
X78264457Y-108530761D01*
X78324933Y-108530761D01*
X78415647Y-108561000D01*
X78445885Y-108591238D01*
X79050647Y-109165761D02*
X78687790Y-109165761D01*
X78869219Y-109165761D02*
X78869219Y-108530761D01*
X78808742Y-108621476D01*
X78748266Y-108681952D01*
X78687790Y-108712190D01*
X79262314Y-108530761D02*
X79685647Y-108530761D01*
X79413504Y-109165761D01*
%TO.C,C11*%
X85990885Y-99273185D02*
X85960647Y-99303423D01*
X85869933Y-99333661D01*
X85809457Y-99333661D01*
X85718742Y-99303423D01*
X85658266Y-99242947D01*
X85628028Y-99182471D01*
X85597790Y-99061519D01*
X85597790Y-98970804D01*
X85628028Y-98849852D01*
X85658266Y-98789376D01*
X85718742Y-98728900D01*
X85809457Y-98698661D01*
X85869933Y-98698661D01*
X85960647Y-98728900D01*
X85990885Y-98759138D01*
X86595647Y-99333661D02*
X86232790Y-99333661D01*
X86414219Y-99333661D02*
X86414219Y-98698661D01*
X86353742Y-98789376D01*
X86293266Y-98849852D01*
X86232790Y-98880090D01*
X87200409Y-99333661D02*
X86837552Y-99333661D01*
X87018980Y-99333661D02*
X87018980Y-98698661D01*
X86958504Y-98789376D01*
X86898028Y-98849852D01*
X86837552Y-98880090D01*
%TO.C,C8*%
X85996366Y-101375185D02*
X85966128Y-101405423D01*
X85875414Y-101435661D01*
X85814938Y-101435661D01*
X85724223Y-101405423D01*
X85663747Y-101344947D01*
X85633509Y-101284471D01*
X85603271Y-101163519D01*
X85603271Y-101072804D01*
X85633509Y-100951852D01*
X85663747Y-100891376D01*
X85724223Y-100830900D01*
X85814938Y-100800661D01*
X85875414Y-100800661D01*
X85966128Y-100830900D01*
X85996366Y-100861138D01*
X86359223Y-101072804D02*
X86298747Y-101042566D01*
X86268509Y-101012328D01*
X86238271Y-100951852D01*
X86238271Y-100921614D01*
X86268509Y-100861138D01*
X86298747Y-100830900D01*
X86359223Y-100800661D01*
X86480176Y-100800661D01*
X86540652Y-100830900D01*
X86570890Y-100861138D01*
X86601128Y-100921614D01*
X86601128Y-100951852D01*
X86570890Y-101012328D01*
X86540652Y-101042566D01*
X86480176Y-101072804D01*
X86359223Y-101072804D01*
X86298747Y-101103042D01*
X86268509Y-101133280D01*
X86238271Y-101193757D01*
X86238271Y-101314709D01*
X86268509Y-101375185D01*
X86298747Y-101405423D01*
X86359223Y-101435661D01*
X86480176Y-101435661D01*
X86540652Y-101405423D01*
X86570890Y-101375185D01*
X86601128Y-101314709D01*
X86601128Y-101193757D01*
X86570890Y-101133280D01*
X86540652Y-101103042D01*
X86480176Y-101072804D01*
%TO.C,C19*%
X78140885Y-109990285D02*
X78110647Y-110020523D01*
X78019933Y-110050761D01*
X77959457Y-110050761D01*
X77868742Y-110020523D01*
X77808266Y-109960047D01*
X77778028Y-109899571D01*
X77747790Y-109778619D01*
X77747790Y-109687904D01*
X77778028Y-109566952D01*
X77808266Y-109506476D01*
X77868742Y-109446000D01*
X77959457Y-109415761D01*
X78019933Y-109415761D01*
X78110647Y-109446000D01*
X78140885Y-109476238D01*
X78745647Y-110050761D02*
X78382790Y-110050761D01*
X78564219Y-110050761D02*
X78564219Y-109415761D01*
X78503742Y-109506476D01*
X78443266Y-109566952D01*
X78382790Y-109597190D01*
X79048028Y-110050761D02*
X79168980Y-110050761D01*
X79229457Y-110020523D01*
X79259695Y-109990285D01*
X79320171Y-109899571D01*
X79350409Y-109778619D01*
X79350409Y-109536714D01*
X79320171Y-109476238D01*
X79289933Y-109446000D01*
X79229457Y-109415761D01*
X79108504Y-109415761D01*
X79048028Y-109446000D01*
X79017790Y-109476238D01*
X78987552Y-109536714D01*
X78987552Y-109687904D01*
X79017790Y-109748380D01*
X79048028Y-109778619D01*
X79108504Y-109808857D01*
X79229457Y-109808857D01*
X79289933Y-109778619D01*
X79320171Y-109748380D01*
X79350409Y-109687904D01*
%TO.C,C15*%
X73883985Y-103091614D02*
X73914223Y-103121852D01*
X73944461Y-103212566D01*
X73944461Y-103273042D01*
X73914223Y-103363757D01*
X73853747Y-103424233D01*
X73793271Y-103454471D01*
X73672319Y-103484709D01*
X73581604Y-103484709D01*
X73460652Y-103454471D01*
X73400176Y-103424233D01*
X73339700Y-103363757D01*
X73309461Y-103273042D01*
X73309461Y-103212566D01*
X73339700Y-103121852D01*
X73369938Y-103091614D01*
X73944461Y-102486852D02*
X73944461Y-102849709D01*
X73944461Y-102668280D02*
X73309461Y-102668280D01*
X73400176Y-102728757D01*
X73460652Y-102789233D01*
X73490890Y-102849709D01*
X73309461Y-101912328D02*
X73309461Y-102214709D01*
X73611842Y-102244947D01*
X73581604Y-102214709D01*
X73551366Y-102154233D01*
X73551366Y-102003042D01*
X73581604Y-101942566D01*
X73611842Y-101912328D01*
X73672319Y-101882090D01*
X73823509Y-101882090D01*
X73883985Y-101912328D01*
X73914223Y-101942566D01*
X73944461Y-102003042D01*
X73944461Y-102154233D01*
X73914223Y-102214709D01*
X73883985Y-102244947D01*
%TO.C,C21*%
X80473985Y-103060185D02*
X80443747Y-103090423D01*
X80353033Y-103120661D01*
X80292557Y-103120661D01*
X80201842Y-103090423D01*
X80141366Y-103029947D01*
X80111128Y-102969471D01*
X80080890Y-102848519D01*
X80080890Y-102757804D01*
X80111128Y-102636852D01*
X80141366Y-102576376D01*
X80201842Y-102515900D01*
X80292557Y-102485661D01*
X80353033Y-102485661D01*
X80443747Y-102515900D01*
X80473985Y-102546138D01*
X80715890Y-102546138D02*
X80746128Y-102515900D01*
X80806604Y-102485661D01*
X80957795Y-102485661D01*
X81018271Y-102515900D01*
X81048509Y-102546138D01*
X81078747Y-102606614D01*
X81078747Y-102667090D01*
X81048509Y-102757804D01*
X80685652Y-103120661D01*
X81078747Y-103120661D01*
X81683509Y-103120661D02*
X81320652Y-103120661D01*
X81502080Y-103120661D02*
X81502080Y-102485661D01*
X81441604Y-102576376D01*
X81381128Y-102636852D01*
X81320652Y-102667090D01*
%TO.C,C27*%
X85148985Y-104360185D02*
X85118747Y-104390423D01*
X85028033Y-104420661D01*
X84967557Y-104420661D01*
X84876842Y-104390423D01*
X84816366Y-104329947D01*
X84786128Y-104269471D01*
X84755890Y-104148519D01*
X84755890Y-104057804D01*
X84786128Y-103936852D01*
X84816366Y-103876376D01*
X84876842Y-103815900D01*
X84967557Y-103785661D01*
X85028033Y-103785661D01*
X85118747Y-103815900D01*
X85148985Y-103846138D01*
X85390890Y-103846138D02*
X85421128Y-103815900D01*
X85481604Y-103785661D01*
X85632795Y-103785661D01*
X85693271Y-103815900D01*
X85723509Y-103846138D01*
X85753747Y-103906614D01*
X85753747Y-103967090D01*
X85723509Y-104057804D01*
X85360652Y-104420661D01*
X85753747Y-104420661D01*
X85965414Y-103785661D02*
X86388747Y-103785661D01*
X86116604Y-104420661D01*
%TO.C,U4*%
X75573390Y-102385661D02*
X75573390Y-102899709D01*
X75603628Y-102960185D01*
X75633866Y-102990423D01*
X75694342Y-103020661D01*
X75815295Y-103020661D01*
X75875771Y-102990423D01*
X75906009Y-102960185D01*
X75936247Y-102899709D01*
X75936247Y-102385661D01*
X76510771Y-102597328D02*
X76510771Y-103020661D01*
X76359580Y-102355423D02*
X76208390Y-102808995D01*
X76601485Y-102808995D01*
%TO.C,D3*%
X70059689Y-113608361D02*
X70059689Y-112973361D01*
X70210880Y-112973361D01*
X70301594Y-113003600D01*
X70362070Y-113064076D01*
X70392308Y-113124552D01*
X70422546Y-113245504D01*
X70422546Y-113336219D01*
X70392308Y-113457171D01*
X70362070Y-113517647D01*
X70301594Y-113578123D01*
X70210880Y-113608361D01*
X70059689Y-113608361D01*
X70634213Y-112973361D02*
X71027308Y-112973361D01*
X70815641Y-113215266D01*
X70906356Y-113215266D01*
X70966832Y-113245504D01*
X70997070Y-113275742D01*
X71027308Y-113336219D01*
X71027308Y-113487409D01*
X70997070Y-113547885D01*
X70966832Y-113578123D01*
X70906356Y-113608361D01*
X70724927Y-113608361D01*
X70664451Y-113578123D01*
X70634213Y-113547885D01*
%TO.C,J5*%
X92185369Y-81465661D02*
X92185369Y-81919233D01*
X92155130Y-82009947D01*
X92094654Y-82070423D01*
X92003940Y-82100661D01*
X91943464Y-82100661D01*
X92790130Y-81465661D02*
X92487750Y-81465661D01*
X92457511Y-81768042D01*
X92487750Y-81737804D01*
X92548226Y-81707566D01*
X92699416Y-81707566D01*
X92759892Y-81737804D01*
X92790130Y-81768042D01*
X92820369Y-81828519D01*
X92820369Y-81979709D01*
X92790130Y-82040185D01*
X92759892Y-82070423D01*
X92699416Y-82100661D01*
X92548226Y-82100661D01*
X92487750Y-82070423D01*
X92457511Y-82040185D01*
%TO.C,J6*%
X123109869Y-124391661D02*
X123109869Y-124845233D01*
X123079630Y-124935947D01*
X123019154Y-124996423D01*
X122928440Y-125026661D01*
X122867964Y-125026661D01*
X123684392Y-124391661D02*
X123563440Y-124391661D01*
X123502964Y-124421900D01*
X123472726Y-124452138D01*
X123412250Y-124542852D01*
X123382011Y-124663804D01*
X123382011Y-124905709D01*
X123412250Y-124966185D01*
X123442488Y-124996423D01*
X123502964Y-125026661D01*
X123623916Y-125026661D01*
X123684392Y-124996423D01*
X123714630Y-124966185D01*
X123744869Y-124905709D01*
X123744869Y-124754519D01*
X123714630Y-124694042D01*
X123684392Y-124663804D01*
X123623916Y-124633566D01*
X123502964Y-124633566D01*
X123442488Y-124663804D01*
X123412250Y-124694042D01*
X123382011Y-124754519D01*
%TO.C,J11*%
X88436752Y-131249661D02*
X88436752Y-131703233D01*
X88406514Y-131793947D01*
X88346038Y-131854423D01*
X88255323Y-131884661D01*
X88194847Y-131884661D01*
X89071752Y-131884661D02*
X88708895Y-131884661D01*
X88890323Y-131884661D02*
X88890323Y-131249661D01*
X88829847Y-131340376D01*
X88769371Y-131400852D01*
X88708895Y-131431090D01*
X89676514Y-131884661D02*
X89313657Y-131884661D01*
X89495085Y-131884661D02*
X89495085Y-131249661D01*
X89434609Y-131340376D01*
X89374133Y-131400852D01*
X89313657Y-131431090D01*
%TO.C,J12*%
X81134252Y-131275061D02*
X81134252Y-131728633D01*
X81104014Y-131819347D01*
X81043538Y-131879823D01*
X80952823Y-131910061D01*
X80892347Y-131910061D01*
X81769252Y-131910061D02*
X81406395Y-131910061D01*
X81587823Y-131910061D02*
X81587823Y-131275061D01*
X81527347Y-131365776D01*
X81466871Y-131426252D01*
X81406395Y-131456490D01*
X82011157Y-131335538D02*
X82041395Y-131305300D01*
X82101871Y-131275061D01*
X82253061Y-131275061D01*
X82313538Y-131305300D01*
X82343776Y-131335538D01*
X82374014Y-131396014D01*
X82374014Y-131456490D01*
X82343776Y-131547204D01*
X81980919Y-131910061D01*
X82374014Y-131910061D01*
%TO.C,L1*%
X104401366Y-120470661D02*
X104098985Y-120470661D01*
X104098985Y-119835661D01*
X104945652Y-120470661D02*
X104582795Y-120470661D01*
X104764223Y-120470661D02*
X104764223Y-119835661D01*
X104703747Y-119926376D01*
X104643271Y-119986852D01*
X104582795Y-120017090D01*
D11*
X92177640Y-117484400D02*
X92177640Y-117722496D01*
X91939544Y-117627258D02*
X92177640Y-117722496D01*
X92415735Y-117627258D01*
X92034782Y-117912972D02*
X92177640Y-117722496D01*
X92320497Y-117912972D01*
D10*
%TO.C,R28*%
X73791785Y-123927261D02*
X73580119Y-123624880D01*
X73428928Y-123927261D02*
X73428928Y-123292261D01*
X73670833Y-123292261D01*
X73731309Y-123322500D01*
X73761547Y-123352738D01*
X73791785Y-123413214D01*
X73791785Y-123503928D01*
X73761547Y-123564404D01*
X73731309Y-123594642D01*
X73670833Y-123624880D01*
X73428928Y-123624880D01*
X74033690Y-123352738D02*
X74063928Y-123322500D01*
X74124404Y-123292261D01*
X74275595Y-123292261D01*
X74336071Y-123322500D01*
X74366309Y-123352738D01*
X74396547Y-123413214D01*
X74396547Y-123473690D01*
X74366309Y-123564404D01*
X74003452Y-123927261D01*
X74396547Y-123927261D01*
X74759404Y-123564404D02*
X74698928Y-123534166D01*
X74668690Y-123503928D01*
X74638452Y-123443452D01*
X74638452Y-123413214D01*
X74668690Y-123352738D01*
X74698928Y-123322500D01*
X74759404Y-123292261D01*
X74880357Y-123292261D01*
X74940833Y-123322500D01*
X74971071Y-123352738D01*
X75001309Y-123413214D01*
X75001309Y-123443452D01*
X74971071Y-123503928D01*
X74940833Y-123534166D01*
X74880357Y-123564404D01*
X74759404Y-123564404D01*
X74698928Y-123594642D01*
X74668690Y-123624880D01*
X74638452Y-123685357D01*
X74638452Y-123806309D01*
X74668690Y-123866785D01*
X74698928Y-123897023D01*
X74759404Y-123927261D01*
X74880357Y-123927261D01*
X74940833Y-123897023D01*
X74971071Y-123866785D01*
X75001309Y-123806309D01*
X75001309Y-123685357D01*
X74971071Y-123624880D01*
X74940833Y-123594642D01*
X74880357Y-123564404D01*
%TO.C,L3*%
X70744166Y-131217261D02*
X70441785Y-131217261D01*
X70441785Y-130582261D01*
X70895357Y-130582261D02*
X71288452Y-130582261D01*
X71076785Y-130824166D01*
X71167500Y-130824166D01*
X71227976Y-130854404D01*
X71258214Y-130884642D01*
X71288452Y-130945119D01*
X71288452Y-131096309D01*
X71258214Y-131156785D01*
X71227976Y-131187023D01*
X71167500Y-131217261D01*
X70986071Y-131217261D01*
X70925595Y-131187023D01*
X70895357Y-131156785D01*
%TO.C,R11*%
X65823985Y-102745661D02*
X65612319Y-102443280D01*
X65461128Y-102745661D02*
X65461128Y-102110661D01*
X65703033Y-102110661D01*
X65763509Y-102140900D01*
X65793747Y-102171138D01*
X65823985Y-102231614D01*
X65823985Y-102322328D01*
X65793747Y-102382804D01*
X65763509Y-102413042D01*
X65703033Y-102443280D01*
X65461128Y-102443280D01*
X66428747Y-102745661D02*
X66065890Y-102745661D01*
X66247319Y-102745661D02*
X66247319Y-102110661D01*
X66186842Y-102201376D01*
X66126366Y-102261852D01*
X66065890Y-102292090D01*
X67033509Y-102745661D02*
X66670652Y-102745661D01*
X66852080Y-102745661D02*
X66852080Y-102110661D01*
X66791604Y-102201376D01*
X66731128Y-102261852D01*
X66670652Y-102292090D01*
%TO.C,R31*%
X67931785Y-121967261D02*
X67720119Y-121664880D01*
X67568928Y-121967261D02*
X67568928Y-121332261D01*
X67810833Y-121332261D01*
X67871309Y-121362500D01*
X67901547Y-121392738D01*
X67931785Y-121453214D01*
X67931785Y-121543928D01*
X67901547Y-121604404D01*
X67871309Y-121634642D01*
X67810833Y-121664880D01*
X67568928Y-121664880D01*
X68143452Y-121332261D02*
X68536547Y-121332261D01*
X68324880Y-121574166D01*
X68415595Y-121574166D01*
X68476071Y-121604404D01*
X68506309Y-121634642D01*
X68536547Y-121695119D01*
X68536547Y-121846309D01*
X68506309Y-121906785D01*
X68476071Y-121937023D01*
X68415595Y-121967261D01*
X68234166Y-121967261D01*
X68173690Y-121937023D01*
X68143452Y-121906785D01*
X69141309Y-121967261D02*
X68778452Y-121967261D01*
X68959880Y-121967261D02*
X68959880Y-121332261D01*
X68899404Y-121422976D01*
X68838928Y-121483452D01*
X68778452Y-121513690D01*
%TO.C,J15*%
X135108461Y-107097447D02*
X135562033Y-107097447D01*
X135652747Y-107127685D01*
X135713223Y-107188161D01*
X135743461Y-107278876D01*
X135743461Y-107339352D01*
X135743461Y-106462447D02*
X135743461Y-106825304D01*
X135743461Y-106643876D02*
X135108461Y-106643876D01*
X135199176Y-106704352D01*
X135259652Y-106764828D01*
X135289890Y-106825304D01*
X135108461Y-105887923D02*
X135108461Y-106190304D01*
X135410842Y-106220542D01*
X135380604Y-106190304D01*
X135350366Y-106129828D01*
X135350366Y-105978638D01*
X135380604Y-105918161D01*
X135410842Y-105887923D01*
X135471319Y-105857685D01*
X135622509Y-105857685D01*
X135682985Y-105887923D01*
X135713223Y-105918161D01*
X135743461Y-105978638D01*
X135743461Y-106129828D01*
X135713223Y-106190304D01*
X135682985Y-106220542D01*
%TO.C,C46*%
X67451785Y-125866785D02*
X67421547Y-125897023D01*
X67330833Y-125927261D01*
X67270357Y-125927261D01*
X67179642Y-125897023D01*
X67119166Y-125836547D01*
X67088928Y-125776071D01*
X67058690Y-125655119D01*
X67058690Y-125564404D01*
X67088928Y-125443452D01*
X67119166Y-125382976D01*
X67179642Y-125322500D01*
X67270357Y-125292261D01*
X67330833Y-125292261D01*
X67421547Y-125322500D01*
X67451785Y-125352738D01*
X67996071Y-125503928D02*
X67996071Y-125927261D01*
X67844880Y-125262023D02*
X67693690Y-125715595D01*
X68086785Y-125715595D01*
X68600833Y-125292261D02*
X68479880Y-125292261D01*
X68419404Y-125322500D01*
X68389166Y-125352738D01*
X68328690Y-125443452D01*
X68298452Y-125564404D01*
X68298452Y-125806309D01*
X68328690Y-125866785D01*
X68358928Y-125897023D01*
X68419404Y-125927261D01*
X68540357Y-125927261D01*
X68600833Y-125897023D01*
X68631071Y-125866785D01*
X68661309Y-125806309D01*
X68661309Y-125655119D01*
X68631071Y-125594642D01*
X68600833Y-125564404D01*
X68540357Y-125534166D01*
X68419404Y-125534166D01*
X68358928Y-125564404D01*
X68328690Y-125594642D01*
X68298452Y-125655119D01*
%TO.C,Q2*%
X82751723Y-94706138D02*
X82691247Y-94675900D01*
X82630771Y-94615423D01*
X82540057Y-94524709D01*
X82479580Y-94494471D01*
X82419104Y-94494471D01*
X82449342Y-94645661D02*
X82388866Y-94615423D01*
X82328390Y-94554947D01*
X82298152Y-94433995D01*
X82298152Y-94222328D01*
X82328390Y-94101376D01*
X82388866Y-94040900D01*
X82449342Y-94010661D01*
X82570295Y-94010661D01*
X82630771Y-94040900D01*
X82691247Y-94101376D01*
X82721485Y-94222328D01*
X82721485Y-94433995D01*
X82691247Y-94554947D01*
X82630771Y-94615423D01*
X82570295Y-94645661D01*
X82449342Y-94645661D01*
X82963390Y-94071138D02*
X82993628Y-94040900D01*
X83054104Y-94010661D01*
X83205295Y-94010661D01*
X83265771Y-94040900D01*
X83296009Y-94071138D01*
X83326247Y-94131614D01*
X83326247Y-94192090D01*
X83296009Y-94282804D01*
X82933152Y-94645661D01*
X83326247Y-94645661D01*
%TO.C,C42*%
X116798985Y-120385185D02*
X116768747Y-120415423D01*
X116678033Y-120445661D01*
X116617557Y-120445661D01*
X116526842Y-120415423D01*
X116466366Y-120354947D01*
X116436128Y-120294471D01*
X116405890Y-120173519D01*
X116405890Y-120082804D01*
X116436128Y-119961852D01*
X116466366Y-119901376D01*
X116526842Y-119840900D01*
X116617557Y-119810661D01*
X116678033Y-119810661D01*
X116768747Y-119840900D01*
X116798985Y-119871138D01*
X117343271Y-120022328D02*
X117343271Y-120445661D01*
X117192080Y-119780423D02*
X117040890Y-120233995D01*
X117433985Y-120233995D01*
X117645652Y-119871138D02*
X117675890Y-119840900D01*
X117736366Y-119810661D01*
X117887557Y-119810661D01*
X117948033Y-119840900D01*
X117978271Y-119871138D01*
X118008509Y-119931614D01*
X118008509Y-119992090D01*
X117978271Y-120082804D01*
X117615414Y-120445661D01*
X118008509Y-120445661D01*
%TO.C,U7*%
X108178390Y-92940661D02*
X108178390Y-93454709D01*
X108208628Y-93515185D01*
X108238866Y-93545423D01*
X108299342Y-93575661D01*
X108420295Y-93575661D01*
X108480771Y-93545423D01*
X108511009Y-93515185D01*
X108541247Y-93454709D01*
X108541247Y-92940661D01*
X108783152Y-92940661D02*
X109206485Y-92940661D01*
X108934342Y-93575661D01*
%TO.C,R24*%
X127689461Y-86076614D02*
X127387080Y-86288280D01*
X127689461Y-86439471D02*
X127054461Y-86439471D01*
X127054461Y-86197566D01*
X127084700Y-86137090D01*
X127114938Y-86106852D01*
X127175414Y-86076614D01*
X127266128Y-86076614D01*
X127326604Y-86106852D01*
X127356842Y-86137090D01*
X127387080Y-86197566D01*
X127387080Y-86439471D01*
X127114938Y-85834709D02*
X127084700Y-85804471D01*
X127054461Y-85743995D01*
X127054461Y-85592804D01*
X127084700Y-85532328D01*
X127114938Y-85502090D01*
X127175414Y-85471852D01*
X127235890Y-85471852D01*
X127326604Y-85502090D01*
X127689461Y-85864947D01*
X127689461Y-85471852D01*
X127266128Y-84927566D02*
X127689461Y-84927566D01*
X127024223Y-85078757D02*
X127477795Y-85229947D01*
X127477795Y-84836852D01*
%TO.C,C35*%
X127083985Y-88075185D02*
X127053747Y-88105423D01*
X126963033Y-88135661D01*
X126902557Y-88135661D01*
X126811842Y-88105423D01*
X126751366Y-88044947D01*
X126721128Y-87984471D01*
X126690890Y-87863519D01*
X126690890Y-87772804D01*
X126721128Y-87651852D01*
X126751366Y-87591376D01*
X126811842Y-87530900D01*
X126902557Y-87500661D01*
X126963033Y-87500661D01*
X127053747Y-87530900D01*
X127083985Y-87561138D01*
X127295652Y-87500661D02*
X127688747Y-87500661D01*
X127477080Y-87742566D01*
X127567795Y-87742566D01*
X127628271Y-87772804D01*
X127658509Y-87803042D01*
X127688747Y-87863519D01*
X127688747Y-88014709D01*
X127658509Y-88075185D01*
X127628271Y-88105423D01*
X127567795Y-88135661D01*
X127386366Y-88135661D01*
X127325890Y-88105423D01*
X127295652Y-88075185D01*
X128263271Y-87500661D02*
X127960890Y-87500661D01*
X127930652Y-87803042D01*
X127960890Y-87772804D01*
X128021366Y-87742566D01*
X128172557Y-87742566D01*
X128233033Y-87772804D01*
X128263271Y-87803042D01*
X128293509Y-87863519D01*
X128293509Y-88014709D01*
X128263271Y-88075185D01*
X128233033Y-88105423D01*
X128172557Y-88135661D01*
X128021366Y-88135661D01*
X127960890Y-88105423D01*
X127930652Y-88075185D01*
%TO.C,C38*%
X131728985Y-84016614D02*
X131759223Y-84046852D01*
X131789461Y-84137566D01*
X131789461Y-84198042D01*
X131759223Y-84288757D01*
X131698747Y-84349233D01*
X131638271Y-84379471D01*
X131517319Y-84409709D01*
X131426604Y-84409709D01*
X131305652Y-84379471D01*
X131245176Y-84349233D01*
X131184700Y-84288757D01*
X131154461Y-84198042D01*
X131154461Y-84137566D01*
X131184700Y-84046852D01*
X131214938Y-84016614D01*
X131154461Y-83804947D02*
X131154461Y-83411852D01*
X131396366Y-83623519D01*
X131396366Y-83532804D01*
X131426604Y-83472328D01*
X131456842Y-83442090D01*
X131517319Y-83411852D01*
X131668509Y-83411852D01*
X131728985Y-83442090D01*
X131759223Y-83472328D01*
X131789461Y-83532804D01*
X131789461Y-83714233D01*
X131759223Y-83774709D01*
X131728985Y-83804947D01*
X131426604Y-83048995D02*
X131396366Y-83109471D01*
X131366128Y-83139709D01*
X131305652Y-83169947D01*
X131275414Y-83169947D01*
X131214938Y-83139709D01*
X131184700Y-83109471D01*
X131154461Y-83048995D01*
X131154461Y-82928042D01*
X131184700Y-82867566D01*
X131214938Y-82837328D01*
X131275414Y-82807090D01*
X131305652Y-82807090D01*
X131366128Y-82837328D01*
X131396366Y-82867566D01*
X131426604Y-82928042D01*
X131426604Y-83048995D01*
X131456842Y-83109471D01*
X131487080Y-83139709D01*
X131547557Y-83169947D01*
X131668509Y-83169947D01*
X131728985Y-83139709D01*
X131759223Y-83109471D01*
X131789461Y-83048995D01*
X131789461Y-82928042D01*
X131759223Y-82867566D01*
X131728985Y-82837328D01*
X131668509Y-82807090D01*
X131547557Y-82807090D01*
X131487080Y-82837328D01*
X131456842Y-82867566D01*
X131426604Y-82928042D01*
%TO.C,R22*%
X133269461Y-89516614D02*
X132967080Y-89728280D01*
X133269461Y-89879471D02*
X132634461Y-89879471D01*
X132634461Y-89637566D01*
X132664700Y-89577090D01*
X132694938Y-89546852D01*
X132755414Y-89516614D01*
X132846128Y-89516614D01*
X132906604Y-89546852D01*
X132936842Y-89577090D01*
X132967080Y-89637566D01*
X132967080Y-89879471D01*
X132694938Y-89274709D02*
X132664700Y-89244471D01*
X132634461Y-89183995D01*
X132634461Y-89032804D01*
X132664700Y-88972328D01*
X132694938Y-88942090D01*
X132755414Y-88911852D01*
X132815890Y-88911852D01*
X132906604Y-88942090D01*
X133269461Y-89304947D01*
X133269461Y-88911852D01*
X132694938Y-88669947D02*
X132664700Y-88639709D01*
X132634461Y-88579233D01*
X132634461Y-88428042D01*
X132664700Y-88367566D01*
X132694938Y-88337328D01*
X132755414Y-88307090D01*
X132815890Y-88307090D01*
X132906604Y-88337328D01*
X133269461Y-88700185D01*
X133269461Y-88307090D01*
%TO.C,D11*%
X131822738Y-111138928D02*
X132457738Y-111138928D01*
X132457738Y-111290119D01*
X132427500Y-111380833D01*
X132367023Y-111441309D01*
X132306547Y-111471547D01*
X132185595Y-111501785D01*
X132094880Y-111501785D01*
X131973928Y-111471547D01*
X131913452Y-111441309D01*
X131852976Y-111380833D01*
X131822738Y-111290119D01*
X131822738Y-111138928D01*
X131822738Y-112106547D02*
X131822738Y-111743690D01*
X131822738Y-111925119D02*
X132457738Y-111925119D01*
X132367023Y-111864642D01*
X132306547Y-111804166D01*
X132276309Y-111743690D01*
X131822738Y-112711309D02*
X131822738Y-112348452D01*
X131822738Y-112529880D02*
X132457738Y-112529880D01*
X132367023Y-112469404D01*
X132306547Y-112408928D01*
X132276309Y-112348452D01*
%TO.C,U9*%
X68886190Y-123352261D02*
X68886190Y-123866309D01*
X68916428Y-123926785D01*
X68946666Y-123957023D01*
X69007142Y-123987261D01*
X69128095Y-123987261D01*
X69188571Y-123957023D01*
X69218809Y-123926785D01*
X69249047Y-123866309D01*
X69249047Y-123352261D01*
X69581666Y-123987261D02*
X69702619Y-123987261D01*
X69763095Y-123957023D01*
X69793333Y-123926785D01*
X69853809Y-123836071D01*
X69884047Y-123715119D01*
X69884047Y-123473214D01*
X69853809Y-123412738D01*
X69823571Y-123382500D01*
X69763095Y-123352261D01*
X69642142Y-123352261D01*
X69581666Y-123382500D01*
X69551428Y-123412738D01*
X69521190Y-123473214D01*
X69521190Y-123624404D01*
X69551428Y-123684880D01*
X69581666Y-123715119D01*
X69642142Y-123745357D01*
X69763095Y-123745357D01*
X69823571Y-123715119D01*
X69853809Y-123684880D01*
X69884047Y-123624404D01*
%TO.C,C47*%
X66376785Y-129338214D02*
X66407023Y-129368452D01*
X66437261Y-129459166D01*
X66437261Y-129519642D01*
X66407023Y-129610357D01*
X66346547Y-129670833D01*
X66286071Y-129701071D01*
X66165119Y-129731309D01*
X66074404Y-129731309D01*
X65953452Y-129701071D01*
X65892976Y-129670833D01*
X65832500Y-129610357D01*
X65802261Y-129519642D01*
X65802261Y-129459166D01*
X65832500Y-129368452D01*
X65862738Y-129338214D01*
X66013928Y-128793928D02*
X66437261Y-128793928D01*
X65772023Y-128945119D02*
X66225595Y-129096309D01*
X66225595Y-128703214D01*
X65802261Y-128521785D02*
X65802261Y-128098452D01*
X66437261Y-128370595D01*
%TO.C,C36*%
X129023985Y-88060185D02*
X128993747Y-88090423D01*
X128903033Y-88120661D01*
X128842557Y-88120661D01*
X128751842Y-88090423D01*
X128691366Y-88029947D01*
X128661128Y-87969471D01*
X128630890Y-87848519D01*
X128630890Y-87757804D01*
X128661128Y-87636852D01*
X128691366Y-87576376D01*
X128751842Y-87515900D01*
X128842557Y-87485661D01*
X128903033Y-87485661D01*
X128993747Y-87515900D01*
X129023985Y-87546138D01*
X129235652Y-87485661D02*
X129628747Y-87485661D01*
X129417080Y-87727566D01*
X129507795Y-87727566D01*
X129568271Y-87757804D01*
X129598509Y-87788042D01*
X129628747Y-87848519D01*
X129628747Y-87999709D01*
X129598509Y-88060185D01*
X129568271Y-88090423D01*
X129507795Y-88120661D01*
X129326366Y-88120661D01*
X129265890Y-88090423D01*
X129235652Y-88060185D01*
X130173033Y-87485661D02*
X130052080Y-87485661D01*
X129991604Y-87515900D01*
X129961366Y-87546138D01*
X129900890Y-87636852D01*
X129870652Y-87757804D01*
X129870652Y-87999709D01*
X129900890Y-88060185D01*
X129931128Y-88090423D01*
X129991604Y-88120661D01*
X130112557Y-88120661D01*
X130173033Y-88090423D01*
X130203271Y-88060185D01*
X130233509Y-87999709D01*
X130233509Y-87848519D01*
X130203271Y-87788042D01*
X130173033Y-87757804D01*
X130112557Y-87727566D01*
X129991604Y-87727566D01*
X129931128Y-87757804D01*
X129900890Y-87788042D01*
X129870652Y-87848519D01*
%TO.C,C41*%
X119723985Y-92385185D02*
X119693747Y-92415423D01*
X119603033Y-92445661D01*
X119542557Y-92445661D01*
X119451842Y-92415423D01*
X119391366Y-92354947D01*
X119361128Y-92294471D01*
X119330890Y-92173519D01*
X119330890Y-92082804D01*
X119361128Y-91961852D01*
X119391366Y-91901376D01*
X119451842Y-91840900D01*
X119542557Y-91810661D01*
X119603033Y-91810661D01*
X119693747Y-91840900D01*
X119723985Y-91871138D01*
X120268271Y-92022328D02*
X120268271Y-92445661D01*
X120117080Y-91780423D02*
X119965890Y-92233995D01*
X120358985Y-92233995D01*
X120933509Y-92445661D02*
X120570652Y-92445661D01*
X120752080Y-92445661D02*
X120752080Y-91810661D01*
X120691604Y-91901376D01*
X120631128Y-91961852D01*
X120570652Y-91992090D01*
%TO.C,C37*%
X132523985Y-79460185D02*
X132493747Y-79490423D01*
X132403033Y-79520661D01*
X132342557Y-79520661D01*
X132251842Y-79490423D01*
X132191366Y-79429947D01*
X132161128Y-79369471D01*
X132130890Y-79248519D01*
X132130890Y-79157804D01*
X132161128Y-79036852D01*
X132191366Y-78976376D01*
X132251842Y-78915900D01*
X132342557Y-78885661D01*
X132403033Y-78885661D01*
X132493747Y-78915900D01*
X132523985Y-78946138D01*
X132735652Y-78885661D02*
X133128747Y-78885661D01*
X132917080Y-79127566D01*
X133007795Y-79127566D01*
X133068271Y-79157804D01*
X133098509Y-79188042D01*
X133128747Y-79248519D01*
X133128747Y-79399709D01*
X133098509Y-79460185D01*
X133068271Y-79490423D01*
X133007795Y-79520661D01*
X132826366Y-79520661D01*
X132765890Y-79490423D01*
X132735652Y-79460185D01*
X133340414Y-78885661D02*
X133763747Y-78885661D01*
X133491604Y-79520661D01*
%TO.C,R27*%
X74091785Y-127127261D02*
X73880119Y-126824880D01*
X73728928Y-127127261D02*
X73728928Y-126492261D01*
X73970833Y-126492261D01*
X74031309Y-126522500D01*
X74061547Y-126552738D01*
X74091785Y-126613214D01*
X74091785Y-126703928D01*
X74061547Y-126764404D01*
X74031309Y-126794642D01*
X73970833Y-126824880D01*
X73728928Y-126824880D01*
X74333690Y-126552738D02*
X74363928Y-126522500D01*
X74424404Y-126492261D01*
X74575595Y-126492261D01*
X74636071Y-126522500D01*
X74666309Y-126552738D01*
X74696547Y-126613214D01*
X74696547Y-126673690D01*
X74666309Y-126764404D01*
X74303452Y-127127261D01*
X74696547Y-127127261D01*
X74908214Y-126492261D02*
X75331547Y-126492261D01*
X75059404Y-127127261D01*
%TO.C,C48*%
X72051785Y-122756785D02*
X72021547Y-122787023D01*
X71930833Y-122817261D01*
X71870357Y-122817261D01*
X71779642Y-122787023D01*
X71719166Y-122726547D01*
X71688928Y-122666071D01*
X71658690Y-122545119D01*
X71658690Y-122454404D01*
X71688928Y-122333452D01*
X71719166Y-122272976D01*
X71779642Y-122212500D01*
X71870357Y-122182261D01*
X71930833Y-122182261D01*
X72021547Y-122212500D01*
X72051785Y-122242738D01*
X72596071Y-122393928D02*
X72596071Y-122817261D01*
X72444880Y-122152023D02*
X72293690Y-122605595D01*
X72686785Y-122605595D01*
X73019404Y-122454404D02*
X72958928Y-122424166D01*
X72928690Y-122393928D01*
X72898452Y-122333452D01*
X72898452Y-122303214D01*
X72928690Y-122242738D01*
X72958928Y-122212500D01*
X73019404Y-122182261D01*
X73140357Y-122182261D01*
X73200833Y-122212500D01*
X73231071Y-122242738D01*
X73261309Y-122303214D01*
X73261309Y-122333452D01*
X73231071Y-122393928D01*
X73200833Y-122424166D01*
X73140357Y-122454404D01*
X73019404Y-122454404D01*
X72958928Y-122484642D01*
X72928690Y-122514880D01*
X72898452Y-122575357D01*
X72898452Y-122696309D01*
X72928690Y-122756785D01*
X72958928Y-122787023D01*
X73019404Y-122817261D01*
X73140357Y-122817261D01*
X73200833Y-122787023D01*
X73231071Y-122756785D01*
X73261309Y-122696309D01*
X73261309Y-122575357D01*
X73231071Y-122514880D01*
X73200833Y-122484642D01*
X73140357Y-122454404D01*
%TO.C,D10*%
X120608928Y-134707261D02*
X120608928Y-134072261D01*
X120760119Y-134072261D01*
X120850833Y-134102500D01*
X120911309Y-134162976D01*
X120941547Y-134223452D01*
X120971785Y-134344404D01*
X120971785Y-134435119D01*
X120941547Y-134556071D01*
X120911309Y-134616547D01*
X120850833Y-134677023D01*
X120760119Y-134707261D01*
X120608928Y-134707261D01*
X121576547Y-134707261D02*
X121213690Y-134707261D01*
X121395119Y-134707261D02*
X121395119Y-134072261D01*
X121334642Y-134162976D01*
X121274166Y-134223452D01*
X121213690Y-134253690D01*
X121969642Y-134072261D02*
X122030119Y-134072261D01*
X122090595Y-134102500D01*
X122120833Y-134132738D01*
X122151071Y-134193214D01*
X122181309Y-134314166D01*
X122181309Y-134465357D01*
X122151071Y-134586309D01*
X122120833Y-134646785D01*
X122090595Y-134677023D01*
X122030119Y-134707261D01*
X121969642Y-134707261D01*
X121909166Y-134677023D01*
X121878928Y-134646785D01*
X121848690Y-134586309D01*
X121818452Y-134465357D01*
X121818452Y-134314166D01*
X121848690Y-134193214D01*
X121878928Y-134132738D01*
X121909166Y-134102500D01*
X121969642Y-134072261D01*
%TO.C,FB2*%
X135891842Y-87997566D02*
X135891842Y-88209233D01*
X136224461Y-88209233D02*
X135589461Y-88209233D01*
X135589461Y-87906852D01*
X135891842Y-87453280D02*
X135922080Y-87362566D01*
X135952319Y-87332328D01*
X136012795Y-87302090D01*
X136103509Y-87302090D01*
X136163985Y-87332328D01*
X136194223Y-87362566D01*
X136224461Y-87423042D01*
X136224461Y-87664947D01*
X135589461Y-87664947D01*
X135589461Y-87453280D01*
X135619700Y-87392804D01*
X135649938Y-87362566D01*
X135710414Y-87332328D01*
X135770890Y-87332328D01*
X135831366Y-87362566D01*
X135861604Y-87392804D01*
X135891842Y-87453280D01*
X135891842Y-87664947D01*
X135649938Y-87060185D02*
X135619700Y-87029947D01*
X135589461Y-86969471D01*
X135589461Y-86818280D01*
X135619700Y-86757804D01*
X135649938Y-86727566D01*
X135710414Y-86697328D01*
X135770890Y-86697328D01*
X135861604Y-86727566D01*
X136224461Y-87090423D01*
X136224461Y-86697328D01*
%TO.C,U6*%
X127868390Y-78630661D02*
X127868390Y-79144709D01*
X127898628Y-79205185D01*
X127928866Y-79235423D01*
X127989342Y-79265661D01*
X128110295Y-79265661D01*
X128170771Y-79235423D01*
X128201009Y-79205185D01*
X128231247Y-79144709D01*
X128231247Y-78630661D01*
X128805771Y-78630661D02*
X128684819Y-78630661D01*
X128624342Y-78660900D01*
X128594104Y-78691138D01*
X128533628Y-78781852D01*
X128503390Y-78902804D01*
X128503390Y-79144709D01*
X128533628Y-79205185D01*
X128563866Y-79235423D01*
X128624342Y-79265661D01*
X128745295Y-79265661D01*
X128805771Y-79235423D01*
X128836009Y-79205185D01*
X128866247Y-79144709D01*
X128866247Y-78993519D01*
X128836009Y-78933042D01*
X128805771Y-78902804D01*
X128745295Y-78872566D01*
X128624342Y-78872566D01*
X128563866Y-78902804D01*
X128533628Y-78933042D01*
X128503390Y-78993519D01*
D11*
X125378500Y-80230780D02*
X125378500Y-80468876D01*
X125140404Y-80373638D02*
X125378500Y-80468876D01*
X125616595Y-80373638D01*
X125235642Y-80659352D02*
X125378500Y-80468876D01*
X125521357Y-80659352D01*
D10*
%TO.C,R30*%
X67901785Y-123177261D02*
X67690119Y-122874880D01*
X67538928Y-123177261D02*
X67538928Y-122542261D01*
X67780833Y-122542261D01*
X67841309Y-122572500D01*
X67871547Y-122602738D01*
X67901785Y-122663214D01*
X67901785Y-122753928D01*
X67871547Y-122814404D01*
X67841309Y-122844642D01*
X67780833Y-122874880D01*
X67538928Y-122874880D01*
X68113452Y-122542261D02*
X68506547Y-122542261D01*
X68294880Y-122784166D01*
X68385595Y-122784166D01*
X68446071Y-122814404D01*
X68476309Y-122844642D01*
X68506547Y-122905119D01*
X68506547Y-123056309D01*
X68476309Y-123116785D01*
X68446071Y-123147023D01*
X68385595Y-123177261D01*
X68204166Y-123177261D01*
X68143690Y-123147023D01*
X68113452Y-123116785D01*
X68899642Y-122542261D02*
X68960119Y-122542261D01*
X69020595Y-122572500D01*
X69050833Y-122602738D01*
X69081071Y-122663214D01*
X69111309Y-122784166D01*
X69111309Y-122935357D01*
X69081071Y-123056309D01*
X69050833Y-123116785D01*
X69020595Y-123147023D01*
X68960119Y-123177261D01*
X68899642Y-123177261D01*
X68839166Y-123147023D01*
X68808928Y-123116785D01*
X68778690Y-123056309D01*
X68748452Y-122935357D01*
X68748452Y-122784166D01*
X68778690Y-122663214D01*
X68808928Y-122602738D01*
X68839166Y-122572500D01*
X68899642Y-122542261D01*
%TO.C,J28*%
X134994461Y-129612447D02*
X135448033Y-129612447D01*
X135538747Y-129642685D01*
X135599223Y-129703161D01*
X135629461Y-129793876D01*
X135629461Y-129854352D01*
X135054938Y-129340304D02*
X135024700Y-129310066D01*
X134994461Y-129249590D01*
X134994461Y-129098400D01*
X135024700Y-129037923D01*
X135054938Y-129007685D01*
X135115414Y-128977447D01*
X135175890Y-128977447D01*
X135266604Y-129007685D01*
X135629461Y-129370542D01*
X135629461Y-128977447D01*
X135266604Y-128614590D02*
X135236366Y-128675066D01*
X135206128Y-128705304D01*
X135145652Y-128735542D01*
X135115414Y-128735542D01*
X135054938Y-128705304D01*
X135024700Y-128675066D01*
X134994461Y-128614590D01*
X134994461Y-128493638D01*
X135024700Y-128433161D01*
X135054938Y-128402923D01*
X135115414Y-128372685D01*
X135145652Y-128372685D01*
X135206128Y-128402923D01*
X135236366Y-128433161D01*
X135266604Y-128493638D01*
X135266604Y-128614590D01*
X135296842Y-128675066D01*
X135327080Y-128705304D01*
X135387557Y-128735542D01*
X135508509Y-128735542D01*
X135568985Y-128705304D01*
X135599223Y-128675066D01*
X135629461Y-128614590D01*
X135629461Y-128493638D01*
X135599223Y-128433161D01*
X135568985Y-128402923D01*
X135508509Y-128372685D01*
X135387557Y-128372685D01*
X135327080Y-128402923D01*
X135296842Y-128433161D01*
X135266604Y-128493638D01*
%TO.C,R23*%
X129138985Y-90015661D02*
X128927319Y-89713280D01*
X128776128Y-90015661D02*
X128776128Y-89380661D01*
X129018033Y-89380661D01*
X129078509Y-89410900D01*
X129108747Y-89441138D01*
X129138985Y-89501614D01*
X129138985Y-89592328D01*
X129108747Y-89652804D01*
X129078509Y-89683042D01*
X129018033Y-89713280D01*
X128776128Y-89713280D01*
X129380890Y-89441138D02*
X129411128Y-89410900D01*
X129471604Y-89380661D01*
X129622795Y-89380661D01*
X129683271Y-89410900D01*
X129713509Y-89441138D01*
X129743747Y-89501614D01*
X129743747Y-89562090D01*
X129713509Y-89652804D01*
X129350652Y-90015661D01*
X129743747Y-90015661D01*
X129955414Y-89380661D02*
X130348509Y-89380661D01*
X130136842Y-89622566D01*
X130227557Y-89622566D01*
X130288033Y-89652804D01*
X130318271Y-89683042D01*
X130348509Y-89743519D01*
X130348509Y-89894709D01*
X130318271Y-89955185D01*
X130288033Y-89985423D01*
X130227557Y-90015661D01*
X130046128Y-90015661D01*
X129985652Y-89985423D01*
X129955414Y-89955185D01*
%TO.C,C39*%
X133858985Y-84366614D02*
X133889223Y-84396852D01*
X133919461Y-84487566D01*
X133919461Y-84548042D01*
X133889223Y-84638757D01*
X133828747Y-84699233D01*
X133768271Y-84729471D01*
X133647319Y-84759709D01*
X133556604Y-84759709D01*
X133435652Y-84729471D01*
X133375176Y-84699233D01*
X133314700Y-84638757D01*
X133284461Y-84548042D01*
X133284461Y-84487566D01*
X133314700Y-84396852D01*
X133344938Y-84366614D01*
X133284461Y-84154947D02*
X133284461Y-83761852D01*
X133526366Y-83973519D01*
X133526366Y-83882804D01*
X133556604Y-83822328D01*
X133586842Y-83792090D01*
X133647319Y-83761852D01*
X133798509Y-83761852D01*
X133858985Y-83792090D01*
X133889223Y-83822328D01*
X133919461Y-83882804D01*
X133919461Y-84064233D01*
X133889223Y-84124709D01*
X133858985Y-84154947D01*
X133919461Y-83459471D02*
X133919461Y-83338519D01*
X133889223Y-83278042D01*
X133858985Y-83247804D01*
X133768271Y-83187328D01*
X133647319Y-83157090D01*
X133405414Y-83157090D01*
X133344938Y-83187328D01*
X133314700Y-83217566D01*
X133284461Y-83278042D01*
X133284461Y-83398995D01*
X133314700Y-83459471D01*
X133344938Y-83489709D01*
X133405414Y-83519947D01*
X133556604Y-83519947D01*
X133617080Y-83489709D01*
X133647319Y-83459471D01*
X133677557Y-83398995D01*
X133677557Y-83278042D01*
X133647319Y-83217566D01*
X133617080Y-83187328D01*
X133556604Y-83157090D01*
%TO.C,C40*%
X126873985Y-92310185D02*
X126843747Y-92340423D01*
X126753033Y-92370661D01*
X126692557Y-92370661D01*
X126601842Y-92340423D01*
X126541366Y-92279947D01*
X126511128Y-92219471D01*
X126480890Y-92098519D01*
X126480890Y-92007804D01*
X126511128Y-91886852D01*
X126541366Y-91826376D01*
X126601842Y-91765900D01*
X126692557Y-91735661D01*
X126753033Y-91735661D01*
X126843747Y-91765900D01*
X126873985Y-91796138D01*
X127418271Y-91947328D02*
X127418271Y-92370661D01*
X127267080Y-91705423D02*
X127115890Y-92158995D01*
X127508985Y-92158995D01*
X127871842Y-91735661D02*
X127932319Y-91735661D01*
X127992795Y-91765900D01*
X128023033Y-91796138D01*
X128053271Y-91856614D01*
X128083509Y-91977566D01*
X128083509Y-92128757D01*
X128053271Y-92249709D01*
X128023033Y-92310185D01*
X127992795Y-92340423D01*
X127932319Y-92370661D01*
X127871842Y-92370661D01*
X127811366Y-92340423D01*
X127781128Y-92310185D01*
X127750890Y-92249709D01*
X127720652Y-92128757D01*
X127720652Y-91977566D01*
X127750890Y-91856614D01*
X127781128Y-91796138D01*
X127811366Y-91765900D01*
X127871842Y-91735661D01*
%TO.C,R13*%
X68098985Y-103970661D02*
X67887319Y-103668280D01*
X67736128Y-103970661D02*
X67736128Y-103335661D01*
X67978033Y-103335661D01*
X68038509Y-103365900D01*
X68068747Y-103396138D01*
X68098985Y-103456614D01*
X68098985Y-103547328D01*
X68068747Y-103607804D01*
X68038509Y-103638042D01*
X67978033Y-103668280D01*
X67736128Y-103668280D01*
X68703747Y-103970661D02*
X68340890Y-103970661D01*
X68522319Y-103970661D02*
X68522319Y-103335661D01*
X68461842Y-103426376D01*
X68401366Y-103486852D01*
X68340890Y-103517090D01*
X68915414Y-103335661D02*
X69308509Y-103335661D01*
X69096842Y-103577566D01*
X69187557Y-103577566D01*
X69248033Y-103607804D01*
X69278271Y-103638042D01*
X69308509Y-103698519D01*
X69308509Y-103849709D01*
X69278271Y-103910185D01*
X69248033Y-103940423D01*
X69187557Y-103970661D01*
X69006128Y-103970661D01*
X68945652Y-103940423D01*
X68915414Y-103910185D01*
D14*
%TO.C,C9*%
X79872200Y-89738400D02*
X79872200Y-87738400D01*
X76912200Y-87738400D02*
X76912200Y-89738400D01*
%TO.C,D1*%
X76532200Y-93133400D02*
X76532200Y-89283400D01*
X74532200Y-93133400D02*
X76532200Y-93133400D01*
X74532200Y-93133400D02*
X74532200Y-89283400D01*
%TO.C,D6*%
X89992200Y-89218400D02*
X89992200Y-91068400D01*
X88792200Y-89218400D02*
X88792200Y-91068400D01*
X88792200Y-91068400D02*
X89992200Y-91068400D01*
%TO.C,J9*%
X136012200Y-89573400D02*
X136012200Y-91373400D01*
X137462200Y-89573400D02*
X136012200Y-89573400D01*
X140282200Y-96773400D02*
X140282200Y-90843400D01*
X136012200Y-96243400D02*
X135022200Y-96243400D01*
X137462200Y-98043400D02*
X136012200Y-98043400D01*
X136012200Y-98043400D02*
X136012200Y-96243400D01*
%TO.C,J10*%
X72465800Y-83243320D02*
X71515800Y-83243320D01*
X71515800Y-78743320D02*
X78790800Y-78743320D01*
X86065800Y-83243320D02*
X86065800Y-82843320D01*
X71515800Y-83243320D02*
X71515800Y-82843320D01*
X85115800Y-83243320D02*
X86065800Y-83243320D01*
X85115800Y-83243320D02*
X85115800Y-84743320D01*
X71515800Y-79143320D02*
X71515800Y-78743320D01*
X86065800Y-78743320D02*
X78790800Y-78743320D01*
X86065800Y-79143320D02*
X86065800Y-78743320D01*
%TO.C,J20*%
X62494200Y-130030400D02*
X61894200Y-130030400D01*
X62994200Y-114630400D02*
X62994200Y-116180400D01*
X62494200Y-116180400D02*
X62494200Y-115130400D01*
X62994200Y-130530400D02*
X62994200Y-128980400D01*
X62494200Y-115130400D02*
X61894200Y-115130400D01*
X61894200Y-130530400D02*
X62994200Y-130530400D01*
X63394200Y-115355400D02*
X63694200Y-115955400D01*
X63694200Y-115955400D02*
X63994200Y-115355400D01*
X62494200Y-128980400D02*
X62494200Y-130030400D01*
X62994200Y-116180400D02*
X62494200Y-116180400D01*
X63994200Y-115355400D02*
X63394200Y-115355400D01*
X62994200Y-128980400D02*
X62494200Y-128980400D01*
X61894200Y-115130400D02*
X61894200Y-114630400D01*
X58694200Y-116330400D02*
X58694200Y-128830400D01*
X61894200Y-114630400D02*
X62994200Y-114630400D01*
X61894200Y-130030400D02*
X61894200Y-130530400D01*
%TO.C,J27*%
X62420700Y-86613560D02*
X62420700Y-86023560D01*
X58100700Y-96733560D02*
X58100700Y-86613560D01*
X58100700Y-96733560D02*
X60200700Y-96733560D01*
X62420700Y-97323560D02*
X62420700Y-96733560D01*
X58100700Y-86613560D02*
X60200700Y-86613560D01*
X62420700Y-96733560D02*
X67320700Y-96733560D01*
X67320700Y-96733560D02*
X67320700Y-86613560D01*
X60200700Y-86613560D02*
X60200700Y-86023560D01*
X60200700Y-97323560D02*
X60200700Y-96733560D01*
X62420700Y-86613560D02*
X67320700Y-86613560D01*
X62420700Y-86023560D02*
G75*
G03*
X60200700Y-86023560I-1110000J0D01*
G01*
X60200700Y-97323560D02*
G75*
G03*
X62420700Y-97323560I1110000J0D01*
G01*
%TO.C,R5*%
X77822200Y-91718400D02*
X77822200Y-92218400D01*
X78882200Y-92218400D02*
X78882200Y-91718400D01*
%TO.C,R12*%
X92480300Y-106938300D02*
X92480300Y-107178300D01*
X93360300Y-107178300D02*
X93360300Y-106938300D01*
%TO.C,R18*%
X88757200Y-88438400D02*
X89257200Y-88438400D01*
X89257200Y-87378400D02*
X88757200Y-87378400D01*
%TO.C,C7*%
X97312200Y-97738400D02*
X99312200Y-97738400D01*
X99312200Y-95698400D02*
X97312200Y-95698400D01*
%TO.C,C24*%
X102613520Y-108001100D02*
X102613520Y-106001100D01*
X100573520Y-106001100D02*
X100573520Y-108001100D01*
%TO.C,C10*%
X97312200Y-99983500D02*
X99312200Y-99983500D01*
X99312200Y-97943500D02*
X97312200Y-97943500D01*
%TO.C,C12*%
X97307200Y-102248400D02*
X99307200Y-102248400D01*
X99307200Y-100208400D02*
X97307200Y-100208400D01*
%TO.C,C14*%
X91692200Y-104628400D02*
X91692200Y-104128400D01*
X92492200Y-104128400D02*
X92492200Y-104628400D01*
%TO.C,C16*%
X95295300Y-108423300D02*
X95795300Y-108423300D01*
X95795300Y-109223300D02*
X95295300Y-109223300D01*
%TO.C,C22*%
X100401180Y-107985860D02*
X100401180Y-105985860D01*
X98361180Y-105985860D02*
X98361180Y-107985860D01*
%TO.C,C26*%
X102750300Y-105998300D02*
X102750300Y-107998300D01*
X104790300Y-107998300D02*
X104790300Y-105998300D01*
%TO.C,C18*%
X95170300Y-109153300D02*
X94670300Y-109153300D01*
X94670300Y-110093300D02*
X95170300Y-110093300D01*
%TO.C,C20*%
X97395300Y-102373300D02*
X97895300Y-102373300D01*
X97895300Y-103173300D02*
X97395300Y-103173300D01*
%TO.C,R6*%
X94292200Y-109258400D02*
X94532200Y-109258400D01*
X94532200Y-108378400D02*
X94292200Y-108378400D01*
%TO.C,R8*%
X93512200Y-104498400D02*
X93512200Y-104258400D01*
X92632200Y-104258400D02*
X92632200Y-104498400D01*
D10*
%TO.C,U3*%
X97850300Y-103673300D02*
X97850300Y-107773300D01*
X93690300Y-103673300D02*
X93690300Y-107773300D01*
D15*
X98390300Y-103803300D02*
G75*
G03*
X98390300Y-103803300I-100000J0D01*
G01*
D13*
%TO.C,D2*%
X89896100Y-114120400D02*
X90023100Y-113358400D01*
X89261100Y-113358400D02*
X90531100Y-113358400D01*
X89896100Y-113104400D02*
X89896100Y-114374400D01*
X91991600Y-105890800D02*
X91593341Y-105890800D01*
X89896100Y-114120400D02*
X89261100Y-113358400D01*
X89896100Y-114120400D02*
X89642100Y-113358400D01*
X91727440Y-111605800D02*
X91991600Y-111605800D01*
X89896100Y-114120400D02*
X90150100Y-113358400D01*
X91991600Y-111605800D02*
X91991600Y-105890800D01*
X89896100Y-114120400D02*
X90531100Y-113358400D01*
X89896100Y-114120400D02*
X89388100Y-113358400D01*
X87699000Y-111605800D02*
X87963160Y-111605800D01*
X87699000Y-105890800D02*
X87699000Y-111605800D01*
X89896100Y-114120400D02*
X89515100Y-113358400D01*
X89896100Y-114120400D02*
X90404100Y-113358400D01*
X89261100Y-114120400D02*
X90531100Y-114120400D01*
X89896100Y-114120400D02*
X90277100Y-113358400D01*
X89896100Y-114120400D02*
X89769100Y-113358400D01*
X88097259Y-105890800D02*
X87699000Y-105890800D01*
D14*
%TO.C,R19*%
X67222200Y-124848400D02*
X67462200Y-124848400D01*
X67462200Y-123968400D02*
X67222200Y-123968400D01*
%TO.C,J16*%
X63107200Y-105908400D02*
X63107200Y-107458400D01*
X62607200Y-111558400D02*
X62607200Y-112608400D01*
X63107200Y-107458400D02*
X62607200Y-107458400D01*
X58807200Y-107608400D02*
X58807200Y-111408400D01*
X62607200Y-112608400D02*
X62007200Y-112608400D01*
X62607200Y-107458400D02*
X62607200Y-106408400D01*
X62007200Y-105908400D02*
X63107200Y-105908400D01*
X62007200Y-113108400D02*
X63107200Y-113108400D01*
X63807200Y-107258400D02*
X64107200Y-106658400D01*
X63507200Y-106658400D02*
X63807200Y-107258400D01*
X63107200Y-113108400D02*
X63107200Y-111558400D01*
X63107200Y-111558400D02*
X62607200Y-111558400D01*
X62607200Y-106408400D02*
X62007200Y-106408400D01*
X64107200Y-106658400D02*
X63507200Y-106658400D01*
X62007200Y-106408400D02*
X62007200Y-105908400D01*
X62007200Y-112608400D02*
X62007200Y-113108400D01*
%TO.C,Q1*%
X112087200Y-123318400D02*
X111157200Y-123318400D01*
X108927200Y-123318400D02*
X109857200Y-123318400D01*
X112087200Y-123318400D02*
X112087200Y-121158400D01*
X108927200Y-123318400D02*
X108927200Y-121858400D01*
%TO.C,R1*%
X111722200Y-120798400D02*
X111962200Y-120798400D01*
X111962200Y-119918400D02*
X111722200Y-119918400D01*
%TO.C,R2*%
X113172200Y-124258400D02*
X113172200Y-124018400D01*
X112292200Y-124018400D02*
X112292200Y-124258400D01*
%TO.C,R7*%
X75882200Y-109208400D02*
X76122200Y-109208400D01*
X76122200Y-108328400D02*
X75882200Y-108328400D01*
%TO.C,R9*%
X74205300Y-104078300D02*
X74205300Y-104318300D01*
X75085300Y-104318300D02*
X75085300Y-104078300D01*
D13*
%TO.C,L2*%
X74897400Y-110340900D02*
X74897400Y-113538760D01*
X74897400Y-120805700D02*
X85743200Y-120805700D01*
X85743200Y-113538760D02*
X85743200Y-110340900D01*
X85743200Y-120805700D02*
X85743200Y-117607840D01*
X74897400Y-117607840D02*
X74897400Y-120805700D01*
X85743200Y-110340900D02*
X74897400Y-110340900D01*
D14*
%TO.C,C25*%
X82325300Y-105848300D02*
X82325300Y-107848300D01*
X84365300Y-107848300D02*
X84365300Y-105848300D01*
%TO.C,C13*%
X82198200Y-97766400D02*
X84198200Y-97766400D01*
X84198200Y-95726400D02*
X82198200Y-95726400D01*
%TO.C,C23*%
X80025300Y-105873300D02*
X80025300Y-107873300D01*
X82065300Y-107873300D02*
X82065300Y-105873300D01*
%TO.C,C17*%
X77392200Y-109168400D02*
X76892200Y-109168400D01*
X76892200Y-108368400D02*
X77392200Y-108368400D01*
%TO.C,C11*%
X84212200Y-97928400D02*
X82212200Y-97928400D01*
X82212200Y-99968400D02*
X84212200Y-99968400D01*
%TO.C,C8*%
X84212200Y-100128400D02*
X82212200Y-100128400D01*
X82212200Y-102168400D02*
X84212200Y-102168400D01*
%TO.C,C19*%
X76262200Y-110198400D02*
X76762200Y-110198400D01*
X76762200Y-109258400D02*
X76262200Y-109258400D01*
%TO.C,C15*%
X74045300Y-103948300D02*
X74045300Y-104448300D01*
X73245300Y-104448300D02*
X73245300Y-103948300D01*
%TO.C,C21*%
X79595300Y-103123300D02*
X79095300Y-103123300D01*
X79095300Y-102323300D02*
X79595300Y-102323300D01*
%TO.C,C27*%
X84550300Y-105848300D02*
X84550300Y-107848300D01*
X86590300Y-107848300D02*
X86590300Y-105848300D01*
D10*
%TO.C,U4*%
X79525300Y-103673300D02*
X79525300Y-107773300D01*
X75365300Y-103673300D02*
X75365300Y-107773300D01*
D15*
X80115300Y-103693300D02*
G75*
G03*
X80115300Y-103693300I-100000J0D01*
G01*
D14*
%TO.C,R15*%
X74330300Y-107478300D02*
X74330300Y-107718300D01*
X75210300Y-107718300D02*
X75210300Y-107478300D01*
D13*
%TO.C,D3*%
X71945700Y-114019600D02*
X71691700Y-113257600D01*
X74066600Y-105840800D02*
X73668341Y-105840800D01*
X73802440Y-111555800D02*
X74066600Y-111555800D01*
X71945700Y-114019600D02*
X72199700Y-113257600D01*
X71945700Y-114019600D02*
X72580700Y-113257600D01*
X71310700Y-113257600D02*
X72580700Y-113257600D01*
X70172259Y-105840800D02*
X69774000Y-105840800D01*
X71945700Y-114019600D02*
X71564700Y-113257600D01*
X69774000Y-111555800D02*
X70038160Y-111555800D01*
X71945700Y-114019600D02*
X72072700Y-113257600D01*
X71945700Y-113003600D02*
X71945700Y-114273600D01*
X71310700Y-114019600D02*
X72580700Y-114019600D01*
X69774000Y-105840800D02*
X69774000Y-111555800D01*
X71945700Y-114019600D02*
X71437700Y-113257600D01*
X71945700Y-114019600D02*
X72453700Y-113257600D01*
X74066600Y-111555800D02*
X74066600Y-105840800D01*
X71945700Y-114019600D02*
X71818700Y-113257600D01*
X71945700Y-114019600D02*
X72326700Y-113257600D01*
X71945700Y-114019600D02*
X71310700Y-113257600D01*
D11*
%TO.C,J5*%
X96925000Y-89700000D02*
X97725000Y-89700000D01*
X121425000Y-82800000D02*
X124250000Y-82800000D01*
X91750000Y-84275000D02*
X91750000Y-82800000D01*
X91750000Y-82800000D02*
X94575000Y-82800000D01*
X124250000Y-89700000D02*
X124250000Y-88225000D01*
X121425000Y-89700000D02*
X124250000Y-89700000D01*
X91750000Y-89700000D02*
X91750000Y-88225000D01*
X118275000Y-82800000D02*
X119075000Y-82800000D01*
X124250000Y-84275000D02*
X124250000Y-82800000D01*
X96925000Y-82800000D02*
X97725000Y-82800000D01*
X118275000Y-89700000D02*
X119075000Y-89700000D01*
X91750000Y-89700000D02*
X94575000Y-89700000D01*
D16*
X98375000Y-90950000D02*
G75*
G03*
X98375000Y-90950000I-125000J0D01*
G01*
D11*
%TO.C,J6*%
X121425000Y-125800000D02*
X124250000Y-125800000D01*
X91750000Y-132700000D02*
X94575000Y-132700000D01*
X124250000Y-132700000D02*
X124250000Y-131225000D01*
X118275000Y-125800000D02*
X119075000Y-125800000D01*
X121425000Y-132700000D02*
X124250000Y-132700000D01*
X91750000Y-132700000D02*
X91750000Y-131225000D01*
X118275000Y-132700000D02*
X119075000Y-132700000D01*
X91750000Y-125800000D02*
X94575000Y-125800000D01*
X124250000Y-127275000D02*
X124250000Y-125800000D01*
X96925000Y-132700000D02*
X97725000Y-132700000D01*
X91750000Y-127275000D02*
X91750000Y-125800000D01*
X96925000Y-125800000D02*
X97725000Y-125800000D01*
D16*
X98375000Y-133950000D02*
G75*
G03*
X98375000Y-133950000I-125000J0D01*
G01*
D14*
%TO.C,D4*%
X67035900Y-135599900D02*
X68035900Y-135599900D01*
X67035900Y-135599900D02*
X67035900Y-133499900D01*
X68035900Y-135599900D02*
X68035900Y-133499900D01*
%TO.C,D5*%
X68877400Y-135574500D02*
X69877400Y-135574500D01*
X69877400Y-135574500D02*
X69877400Y-133474500D01*
X68877400Y-135574500D02*
X68877400Y-133474500D01*
%TO.C,J11*%
X88985420Y-132818900D02*
X88985420Y-133418900D01*
X85285420Y-136618900D02*
X87785420Y-136618900D01*
X85135420Y-132818900D02*
X84085420Y-132818900D01*
X84085420Y-133418900D02*
X83585420Y-133418900D01*
X89485420Y-133418900D02*
X89485420Y-132318900D01*
X84910420Y-131618900D02*
X84310420Y-131318900D01*
X88985420Y-133418900D02*
X89485420Y-133418900D01*
X85135420Y-132318900D02*
X85135420Y-132818900D01*
X84310420Y-131918900D02*
X84910420Y-131618900D01*
X84085420Y-132818900D02*
X84085420Y-133418900D01*
X87935420Y-132818900D02*
X88985420Y-132818900D01*
X83585420Y-133418900D02*
X83585420Y-132318900D01*
X89485420Y-132318900D02*
X87935420Y-132318900D01*
X84310420Y-131318900D02*
X84310420Y-131918900D01*
X87935420Y-132318900D02*
X87935420Y-132818900D01*
X83585420Y-132318900D02*
X85135420Y-132318900D01*
%TO.C,J12*%
X82198320Y-133439420D02*
X82198320Y-132339420D01*
X74523320Y-131339420D02*
X74523320Y-131939420D01*
X73798320Y-132339420D02*
X75348320Y-132339420D01*
X75498320Y-136639420D02*
X80498320Y-136639420D01*
X75123320Y-131639420D02*
X74523320Y-131339420D01*
X73798320Y-133439420D02*
X73798320Y-132339420D01*
X80648320Y-132339420D02*
X80648320Y-132839420D01*
X74298320Y-133439420D02*
X73798320Y-133439420D01*
X81698320Y-132839420D02*
X81698320Y-133439420D01*
X75348320Y-132339420D02*
X75348320Y-132839420D01*
X74298320Y-132839420D02*
X74298320Y-133439420D01*
X80648320Y-132839420D02*
X81698320Y-132839420D01*
X81698320Y-133439420D02*
X82198320Y-133439420D01*
X82198320Y-132339420D02*
X80648320Y-132339420D01*
X75348320Y-132839420D02*
X74298320Y-132839420D01*
X74523320Y-131939420D02*
X75123320Y-131639420D01*
D13*
%TO.C,L1*%
X103643200Y-113538760D02*
X103643200Y-110340900D01*
X103643200Y-110340900D02*
X92797400Y-110340900D01*
X92797400Y-110340900D02*
X92797400Y-113538760D01*
X92797400Y-120805700D02*
X103643200Y-120805700D01*
X92797400Y-117607840D02*
X92797400Y-120805700D01*
X103643200Y-120805700D02*
X103643200Y-117607840D01*
D11*
%TO.C,TP1*%
X131808400Y-131516200D02*
X129608400Y-131516200D01*
X129608400Y-127716200D02*
X131808400Y-127716200D01*
X129608400Y-131516200D02*
X129608400Y-127716200D01*
X131808400Y-127716200D02*
X131808400Y-131516200D01*
D10*
%TO.C,L3*%
X72500000Y-130263500D02*
X69300000Y-130263500D01*
X69300000Y-127636500D02*
X72500000Y-127636500D01*
%TO.C,SW1*%
X133332200Y-101658400D02*
X133332200Y-98658400D01*
X130832200Y-101658400D02*
X130832200Y-98658400D01*
D15*
X131982200Y-102858400D02*
G75*
G03*
X131982200Y-102858400I-100000J0D01*
G01*
D14*
%TO.C,J15*%
X137462200Y-98787400D02*
X136012200Y-98787400D01*
X136012200Y-107257400D02*
X136012200Y-105457400D01*
X136012200Y-98787400D02*
X136012200Y-100587400D01*
X136012200Y-105457400D02*
X135022200Y-105457400D01*
X140282200Y-105987400D02*
X140282200Y-100057400D01*
X137462200Y-107257400D02*
X136012200Y-107257400D01*
D13*
%TO.C,Q2*%
X85279849Y-93697300D02*
X86004400Y-93697300D01*
X86004400Y-90750900D02*
X86004400Y-88439500D01*
X86004400Y-88439500D02*
X85279849Y-88439500D01*
X86158161Y-90750900D02*
X86004400Y-90750900D01*
X86004400Y-93697300D02*
X86004400Y-91385900D01*
X86004400Y-91385900D02*
X86158161Y-91385900D01*
D14*
%TO.C,C42*%
X114370948Y-119373400D02*
X114893452Y-119373400D01*
X114370948Y-120843400D02*
X114893452Y-120843400D01*
D17*
%TO.C,U7*%
X108064200Y-117495400D02*
X109334200Y-117495400D01*
X127876200Y-94381400D02*
X129146200Y-94381400D01*
X108064200Y-95651400D02*
X108064200Y-94381400D01*
X129146200Y-117495400D02*
X129146200Y-116225400D01*
X108064200Y-117495400D02*
X108064200Y-116225400D01*
X127876200Y-117495400D02*
X129146200Y-117495400D01*
X129146200Y-95651400D02*
X129146200Y-94381400D01*
X108064200Y-94381400D02*
X109334200Y-94381400D01*
D18*
X130467000Y-118638400D02*
G75*
G03*
X130467000Y-118638400I-304800J0D01*
G01*
D19*
%TO.C,D11*%
X133130000Y-112952500D02*
G75*
G03*
X133130000Y-112952500I-50000J0D01*
G01*
D14*
%TO.C,U9*%
X70960000Y-127340000D02*
X70160000Y-127340000D01*
X70960000Y-124220000D02*
X69160000Y-124220000D01*
X70960000Y-127340000D02*
X71760000Y-127340000D01*
X70960000Y-124220000D02*
X71760000Y-124220000D01*
%TO.C,G\u002A\u002A\u002A*%
G36*
X124494700Y-135158227D02*
G01*
X124593419Y-135161296D01*
X124596207Y-135596191D01*
X124598994Y-136031086D01*
X125431192Y-136031086D01*
X125431192Y-136191170D01*
X124395982Y-136191170D01*
X124395982Y-135155159D01*
X124494700Y-135158227D01*
G37*
G36*
X116850688Y-136201842D02*
G01*
X116756416Y-136201842D01*
X116713469Y-136201085D01*
X116679009Y-136199062D01*
X116658339Y-136196145D01*
X116655029Y-136194727D01*
X116653604Y-136182943D01*
X116652274Y-136151918D01*
X116651069Y-136103758D01*
X116650016Y-136040567D01*
X116649145Y-135964449D01*
X116648486Y-135877509D01*
X116648066Y-135781851D01*
X116647915Y-135679580D01*
X116647915Y-135166632D01*
X116850688Y-135166632D01*
X116850688Y-136201842D01*
G37*
G36*
X125539284Y-135494588D02*
G01*
X125541573Y-135428915D01*
X125545444Y-135377102D01*
X125551281Y-135336656D01*
X125559470Y-135305085D01*
X125570395Y-135279895D01*
X125584441Y-135258592D01*
X125601991Y-135238683D01*
X125606275Y-135234330D01*
X125624828Y-135216346D01*
X125642863Y-135201305D01*
X125662384Y-135188958D01*
X125685395Y-135179058D01*
X125713901Y-135171357D01*
X125749906Y-135165610D01*
X125795414Y-135161567D01*
X125852430Y-135158982D01*
X125922959Y-135157608D01*
X126009005Y-135157197D01*
X126112572Y-135157501D01*
X126223295Y-135158188D01*
X126676071Y-135161296D01*
X126738809Y-135193395D01*
X126777100Y-135215335D01*
X126802830Y-135237862D01*
X126823666Y-135268366D01*
X126831412Y-135282659D01*
X126861276Y-135339826D01*
X126861276Y-135660205D01*
X126861085Y-135761405D01*
X126860279Y-135843695D01*
X126858509Y-135909508D01*
X126855424Y-135961276D01*
X126850675Y-136001434D01*
X126843913Y-136032413D01*
X126834787Y-136056647D01*
X126822947Y-136076568D01*
X126808045Y-136094610D01*
X126797225Y-136105809D01*
X126779369Y-136122907D01*
X126761639Y-136137178D01*
X126742006Y-136148876D01*
X126718442Y-136158253D01*
X126688916Y-136165563D01*
X126651401Y-136171059D01*
X126603866Y-136174993D01*
X126544284Y-136177619D01*
X126470626Y-136179189D01*
X126380862Y-136179957D01*
X126272963Y-136180175D01*
X126201038Y-136180149D01*
X126090551Y-136179994D01*
X125999247Y-136179660D01*
X125924965Y-136179061D01*
X125865543Y-136178112D01*
X125818819Y-136176725D01*
X125782633Y-136174816D01*
X125754823Y-136172298D01*
X125733227Y-136169085D01*
X125715684Y-136165091D01*
X125700032Y-136160231D01*
X125699948Y-136160201D01*
X125659554Y-136141833D01*
X125621160Y-136117355D01*
X125606273Y-136104811D01*
X125587551Y-136084936D01*
X125572559Y-136063784D01*
X125560890Y-136038817D01*
X125552138Y-136007496D01*
X125545897Y-135967284D01*
X125541760Y-135915640D01*
X125539322Y-135850027D01*
X125538176Y-135767906D01*
X125537915Y-135677489D01*
X125537932Y-135671426D01*
X125740688Y-135671426D01*
X125740704Y-135762638D01*
X125741052Y-135834917D01*
X125742175Y-135890674D01*
X125744520Y-135932320D01*
X125748532Y-135962266D01*
X125754656Y-135982923D01*
X125763338Y-135996703D01*
X125775024Y-136006016D01*
X125790159Y-136013273D01*
X125804941Y-136019175D01*
X125823181Y-136022171D01*
X125859681Y-136024707D01*
X125911359Y-136026780D01*
X125975136Y-136028389D01*
X126047929Y-136029533D01*
X126126660Y-136030210D01*
X126208247Y-136030417D01*
X126289610Y-136030154D01*
X126367668Y-136029418D01*
X126439341Y-136028209D01*
X126501548Y-136026523D01*
X126551208Y-136024360D01*
X126585242Y-136021717D01*
X126597990Y-136019617D01*
X126618040Y-136012882D01*
X126633940Y-136003490D01*
X126646167Y-135989094D01*
X126655200Y-135967347D01*
X126661516Y-135935902D01*
X126665593Y-135892413D01*
X126667910Y-135834533D01*
X126668945Y-135759916D01*
X126669175Y-135670164D01*
X126668714Y-135585849D01*
X126667394Y-135511886D01*
X126665309Y-135450804D01*
X126662557Y-135405133D01*
X126659231Y-135377402D01*
X126657972Y-135372469D01*
X126651605Y-135356474D01*
X126643350Y-135343499D01*
X126631054Y-135333202D01*
X126612560Y-135325240D01*
X126585713Y-135319270D01*
X126548359Y-135314952D01*
X126498341Y-135311942D01*
X126433505Y-135309898D01*
X126351696Y-135308478D01*
X126250758Y-135307340D01*
X126247620Y-135307309D01*
X126137415Y-135306380D01*
X126046475Y-135306094D01*
X125972727Y-135306607D01*
X125914096Y-135308073D01*
X125868510Y-135310646D01*
X125833894Y-135314481D01*
X125808174Y-135319732D01*
X125789278Y-135326554D01*
X125775130Y-135335101D01*
X125765936Y-135343186D01*
X125740688Y-135368435D01*
X125740688Y-135671426D01*
X125537932Y-135671426D01*
X125538193Y-135576615D01*
X125539284Y-135494588D01*
G37*
G36*
X121311696Y-135848475D02*
G01*
X121311735Y-135906682D01*
X121313618Y-135950497D01*
X121320001Y-135982019D01*
X121333535Y-136003345D01*
X121356874Y-136016571D01*
X121392670Y-136023796D01*
X121443577Y-136027116D01*
X121512247Y-136028629D01*
X121540185Y-136029106D01*
X121727915Y-136032462D01*
X121727915Y-136191170D01*
X121538482Y-136190468D01*
X121448590Y-136189184D01*
X121378113Y-136185996D01*
X121325197Y-136180779D01*
X121290352Y-136174062D01*
X121223781Y-136146749D01*
X121168846Y-136104835D01*
X121135604Y-136061971D01*
X121126798Y-136044090D01*
X121120491Y-136022455D01*
X121116137Y-135992966D01*
X121113192Y-135951525D01*
X121111112Y-135894034D01*
X121110590Y-135873670D01*
X121106922Y-135721590D01*
X121311696Y-135721590D01*
X121311696Y-135848475D01*
G37*
G36*
X119892284Y-135561506D02*
G01*
X120735394Y-135561506D01*
X120735394Y-135155960D01*
X120927494Y-135155960D01*
X120927494Y-136191170D01*
X120735394Y-136191170D01*
X120735394Y-135721590D01*
X119892284Y-135721590D01*
X119892284Y-136191170D01*
X119700183Y-136191170D01*
X119700183Y-135155960D01*
X119892284Y-135155960D01*
X119892284Y-135561506D01*
G37*
G36*
X121727915Y-135316044D02*
G01*
X121556628Y-135316044D01*
X121479498Y-135316877D01*
X121420973Y-135319742D01*
X121378366Y-135325185D01*
X121348988Y-135333753D01*
X121330152Y-135345994D01*
X121319170Y-135362454D01*
X121318325Y-135364547D01*
X121315722Y-135381614D01*
X121313598Y-135415103D01*
X121312182Y-135460092D01*
X121311696Y-135509018D01*
X121311696Y-135636212D01*
X121108923Y-135636212D01*
X121108923Y-135499065D01*
X121109988Y-135427716D01*
X121113788Y-135373202D01*
X121121232Y-135331089D01*
X121133229Y-135296945D01*
X121150686Y-135266339D01*
X121159040Y-135254580D01*
X121187585Y-135223676D01*
X121223720Y-135199406D01*
X121269875Y-135181162D01*
X121328476Y-135168334D01*
X121401951Y-135160314D01*
X121492728Y-135156492D01*
X121552347Y-135155960D01*
X121727915Y-135155960D01*
X121727915Y-135316044D01*
G37*
G36*
X128216654Y-135316044D02*
G01*
X127683041Y-135316044D01*
X127683041Y-136191170D01*
X127480268Y-136191170D01*
X127480268Y-135316044D01*
X126946654Y-135316044D01*
X126946654Y-135166632D01*
X128216654Y-135166632D01*
X128216654Y-135316044D01*
G37*
G36*
X130799343Y-136191170D02*
G01*
X130596570Y-136191170D01*
X130596570Y-135166632D01*
X130799343Y-135166632D01*
X130799343Y-136191170D01*
G37*
G36*
X122085003Y-135157027D02*
G01*
X122159046Y-135160581D01*
X122218304Y-135167155D01*
X122266014Y-135177279D01*
X122305410Y-135191484D01*
X122339727Y-135210302D01*
X122344924Y-135213750D01*
X122377626Y-135238628D01*
X122401850Y-135265020D01*
X122418929Y-135296669D01*
X122430197Y-135337316D01*
X122436988Y-135390704D01*
X122440637Y-135460575D01*
X122441289Y-135484132D01*
X122444958Y-135636212D01*
X122240183Y-135636212D01*
X122240183Y-135509018D01*
X122239648Y-135457661D01*
X122238191Y-135413128D01*
X122236038Y-135380338D01*
X122233554Y-135364547D01*
X122223523Y-135347815D01*
X122206223Y-135335255D01*
X122178981Y-135326334D01*
X122139120Y-135320521D01*
X122083964Y-135317283D01*
X122010839Y-135316086D01*
X121989915Y-135316044D01*
X121813293Y-135316044D01*
X121813293Y-135155960D01*
X121992941Y-135155960D01*
X122085003Y-135157027D01*
G37*
G36*
X118195394Y-135764279D02*
G01*
X117362957Y-135764279D01*
X117362957Y-135614867D01*
X118195394Y-135614867D01*
X118195394Y-135764279D01*
G37*
G36*
X118238083Y-135326716D02*
G01*
X117362957Y-135326716D01*
X117362957Y-135166632D01*
X118238083Y-135166632D01*
X118238083Y-135326716D01*
G37*
G36*
X122442897Y-135846989D02*
G01*
X122440420Y-135932355D01*
X122432173Y-135999909D01*
X122416796Y-136052725D01*
X122392928Y-136093875D01*
X122359211Y-136126433D01*
X122314285Y-136153470D01*
X122305359Y-136157774D01*
X122284105Y-136167315D01*
X122264317Y-136174478D01*
X122242450Y-136179671D01*
X122214957Y-136183300D01*
X122178293Y-136185771D01*
X122128912Y-136187492D01*
X122063269Y-136188867D01*
X122028919Y-136189457D01*
X121812319Y-136193081D01*
X121815474Y-136114751D01*
X121818629Y-136036422D01*
X122000057Y-136031086D01*
X122075534Y-136028298D01*
X122132466Y-136024587D01*
X122173652Y-136019369D01*
X122201890Y-136012064D01*
X122219978Y-136002088D01*
X122230713Y-135988859D01*
X122233592Y-135982484D01*
X122236234Y-135965322D01*
X122238371Y-135931876D01*
X122239764Y-135887206D01*
X122240183Y-135843448D01*
X122240183Y-135721590D01*
X122442957Y-135721590D01*
X122442897Y-135846989D01*
G37*
G36*
X129784331Y-135671613D02*
G01*
X129827060Y-135700782D01*
X129827346Y-135701067D01*
X129856766Y-135741478D01*
X129866298Y-135785416D01*
X129856247Y-135835333D01*
X129846778Y-135857591D01*
X129820857Y-135888956D01*
X129781379Y-135910452D01*
X129734891Y-135919378D01*
X129702858Y-135916938D01*
X129679884Y-135906461D01*
X129653508Y-135886554D01*
X129648291Y-135881585D01*
X129618575Y-135838652D01*
X129608417Y-135791604D01*
X129617834Y-135744597D01*
X129646843Y-135701788D01*
X129647559Y-135701067D01*
X129690241Y-135671756D01*
X129737278Y-135661938D01*
X129784331Y-135671613D01*
G37*
G36*
X124193209Y-136180498D02*
G01*
X124001108Y-136180498D01*
X124001108Y-135155960D01*
X124193209Y-135155960D01*
X124193209Y-136180498D01*
G37*
G36*
X130499502Y-136191170D02*
G01*
X130271057Y-136191170D01*
X130009591Y-135785919D01*
X129955645Y-135702523D01*
X129905165Y-135624898D01*
X129859336Y-135554836D01*
X129819342Y-135494131D01*
X129786369Y-135444574D01*
X129761600Y-135407956D01*
X129746222Y-135386071D01*
X129741471Y-135380373D01*
X129734413Y-135388938D01*
X129716842Y-135413577D01*
X129689955Y-135452521D01*
X129654952Y-135503999D01*
X129613030Y-135566241D01*
X129565388Y-135637477D01*
X129513223Y-135715938D01*
X129467123Y-135785624D01*
X129199430Y-136191170D01*
X128976220Y-136191170D01*
X129211158Y-135841653D01*
X129268459Y-135756371D01*
X129326748Y-135669553D01*
X129383843Y-135584452D01*
X129437562Y-135504326D01*
X129485722Y-135432427D01*
X129526141Y-135372013D01*
X129554421Y-135329661D01*
X129662747Y-135167186D01*
X129737861Y-135166909D01*
X129812976Y-135166632D01*
X130499502Y-136191170D01*
G37*
G36*
X119540099Y-135305372D02*
G01*
X119126549Y-135305836D01*
X119032591Y-135306175D01*
X118943639Y-135306940D01*
X118862353Y-135308074D01*
X118791396Y-135309523D01*
X118733428Y-135311230D01*
X118691110Y-135313140D01*
X118667104Y-135315197D01*
X118665361Y-135315493D01*
X118641544Y-135320395D01*
X118622603Y-135326431D01*
X118607979Y-135335901D01*
X118597114Y-135351107D01*
X118589450Y-135374348D01*
X118584428Y-135407925D01*
X118581490Y-135454139D01*
X118580077Y-135515290D01*
X118579631Y-135593678D01*
X118579595Y-135668816D01*
X118579595Y-135965862D01*
X118605343Y-135995806D01*
X118631090Y-136025750D01*
X119085595Y-136028854D01*
X119540099Y-136031959D01*
X119540099Y-136191170D01*
X119099868Y-136189922D01*
X119002585Y-136189425D01*
X118909991Y-136188528D01*
X118824707Y-136187289D01*
X118749353Y-136185764D01*
X118686550Y-136184009D01*
X118638919Y-136182080D01*
X118609080Y-136180033D01*
X118603255Y-136179287D01*
X118528059Y-136158318D01*
X118466987Y-136123462D01*
X118421509Y-136075951D01*
X118393097Y-136017017D01*
X118388559Y-135999385D01*
X118384890Y-135970640D01*
X118381917Y-135924379D01*
X118379643Y-135864392D01*
X118378071Y-135794468D01*
X118377204Y-135718396D01*
X118377046Y-135639967D01*
X118377601Y-135562970D01*
X118378871Y-135491193D01*
X118380859Y-135428428D01*
X118383570Y-135378462D01*
X118387006Y-135345086D01*
X118387985Y-135339750D01*
X118411675Y-135278636D01*
X118453467Y-135226950D01*
X118511234Y-135187304D01*
X118512580Y-135186631D01*
X118563587Y-135161296D01*
X119540099Y-135154958D01*
X119540099Y-135305372D01*
G37*
G36*
X123141465Y-135155960D02*
G01*
X123261990Y-135156235D01*
X123369430Y-135157041D01*
X123462360Y-135158345D01*
X123539356Y-135160117D01*
X123598995Y-135162325D01*
X123639851Y-135164938D01*
X123658020Y-135167291D01*
X123721735Y-135188961D01*
X123777570Y-135223256D01*
X123820080Y-135266471D01*
X123832522Y-135286144D01*
X123842414Y-135306518D01*
X123849237Y-135327106D01*
X123853549Y-135352367D01*
X123855911Y-135386760D01*
X123856881Y-135434746D01*
X123857032Y-135481464D01*
X123856724Y-135542405D01*
X123855429Y-135586452D01*
X123852595Y-135618052D01*
X123847669Y-135641652D01*
X123840098Y-135661699D01*
X123832809Y-135676221D01*
X123807888Y-135711239D01*
X123775560Y-135742772D01*
X123766147Y-135749651D01*
X123742665Y-135763972D01*
X123718114Y-135775706D01*
X123690166Y-135785104D01*
X123656489Y-135792421D01*
X123614756Y-135797910D01*
X123562636Y-135801824D01*
X123497800Y-135804417D01*
X123417918Y-135805943D01*
X123320661Y-135806653D01*
X123240709Y-135806802D01*
X122880520Y-135806968D01*
X122880520Y-136180498D01*
X122677747Y-136180498D01*
X122677747Y-135646884D01*
X122880520Y-135646884D01*
X123597204Y-135646884D01*
X123628399Y-135615688D01*
X123643395Y-135599451D01*
X123652600Y-135583691D01*
X123657411Y-135562770D01*
X123659224Y-135531051D01*
X123659450Y-135490289D01*
X123658657Y-135444589D01*
X123656672Y-135404666D01*
X123653867Y-135377140D01*
X123652757Y-135371646D01*
X123647860Y-135357377D01*
X123640198Y-135345775D01*
X123627702Y-135336565D01*
X123608304Y-135329472D01*
X123579936Y-135324224D01*
X123540529Y-135320545D01*
X123488014Y-135318162D01*
X123420323Y-135316800D01*
X123335387Y-135316185D01*
X123233234Y-135316044D01*
X122880520Y-135316044D01*
X122880520Y-135646884D01*
X122677747Y-135646884D01*
X122677747Y-135155960D01*
X123141465Y-135155960D01*
G37*
G36*
X117224217Y-136191170D02*
G01*
X117021444Y-136191170D01*
X117021444Y-135155960D01*
X117224217Y-135155960D01*
X117224217Y-136191170D01*
G37*
G36*
X116487831Y-136180498D02*
G01*
X116285057Y-136180498D01*
X116285057Y-135155960D01*
X116487831Y-135155960D01*
X116487831Y-136180498D01*
G37*
G36*
X118238083Y-136191170D02*
G01*
X117362957Y-136191170D01*
X117362957Y-136041758D01*
X118238083Y-136041758D01*
X118238083Y-136191170D01*
G37*
%TO.C,C37*%
X132197200Y-81544652D02*
X132197200Y-81022148D01*
X133667200Y-81544652D02*
X133667200Y-81022148D01*
D19*
%TO.C,D10*%
X118435000Y-134390000D02*
G75*
G03*
X118435000Y-134390000I-50000J0D01*
G01*
D14*
%TO.C,FB2*%
X135202200Y-86931179D02*
X135202200Y-86605621D01*
X134182200Y-86931179D02*
X134182200Y-86605621D01*
D13*
%TO.C,U6*%
X126191300Y-79907500D02*
X126191300Y-80568659D01*
X126852459Y-79907500D02*
X126191300Y-79907500D01*
X130433100Y-80568659D02*
X130433100Y-79907500D01*
X126191300Y-83488141D02*
X126191300Y-84149300D01*
X130433100Y-84149300D02*
X130433100Y-83488141D01*
X129771941Y-84149300D02*
X130433100Y-84149300D01*
X126191300Y-84149300D02*
X126852459Y-84149300D01*
X130433100Y-79907500D02*
X129771941Y-79907500D01*
G36*
X127502699Y-79475700D02*
G01*
X127121699Y-79475700D01*
X127121699Y-79221700D01*
X127502699Y-79221700D01*
X127502699Y-79475700D01*
G37*
G36*
X129502701Y-84835100D02*
G01*
X129121701Y-84835100D01*
X129121701Y-84581100D01*
X129502701Y-84581100D01*
X129502701Y-84835100D01*
G37*
D14*
%TO.C,J28*%
X136012200Y-128013400D02*
X135022200Y-128013400D01*
X140282200Y-128543400D02*
X140282200Y-110113400D01*
X137462200Y-108843400D02*
X136012200Y-108843400D01*
X136012200Y-108843400D02*
X136012200Y-110643400D01*
X137462200Y-129813400D02*
X136012200Y-129813400D01*
X136012200Y-129813400D02*
X136012200Y-128013400D01*
%TO.C,C40*%
X124345948Y-92818400D02*
X124868452Y-92818400D01*
X124345948Y-91348400D02*
X124868452Y-91348400D01*
%TD*%
M02*
