%TF.GenerationSoftware,KiCad,Pcbnew,(6.0.11)*%
%TF.CreationDate,2023-05-04T09:55:51-04:00*%
%TF.ProjectId,echopilot_ai_carrier,6563686f-7069-46c6-9f74-5f61695f6361,rev?*%
%TF.SameCoordinates,Original*%
%TF.FileFunction,Soldermask,Top*%
%TF.FilePolarity,Negative*%
%FSLAX46Y46*%
G04 Gerber Fmt 4.6, Leading zero omitted, Abs format (unit mm)*
G04 Created by KiCad (PCBNEW (6.0.11)) date 2023-05-04 09:55:51*
%MOMM*%
%LPD*%
G01*
G04 APERTURE LIST*
G04 Aperture macros list*
%AMRoundRect*
0 Rectangle with rounded corners*
0 $1 Rounding radius*
0 $2 $3 $4 $5 $6 $7 $8 $9 X,Y pos of 4 corners*
0 Add a 4 corners polygon primitive as box body*
4,1,4,$2,$3,$4,$5,$6,$7,$8,$9,$2,$3,0*
0 Add four circle primitives for the rounded corners*
1,1,$1+$1,$2,$3*
1,1,$1+$1,$4,$5*
1,1,$1+$1,$6,$7*
1,1,$1+$1,$8,$9*
0 Add four rect primitives between the rounded corners*
20,1,$1+$1,$2,$3,$4,$5,0*
20,1,$1+$1,$4,$5,$6,$7,0*
20,1,$1+$1,$6,$7,$8,$9,0*
20,1,$1+$1,$8,$9,$2,$3,0*%
G04 Aperture macros list end*
%ADD10C,0.010000*%
%ADD11R,2.500000X1.000000*%
%ADD12R,1.100000X1.100000*%
%ADD13R,0.700000X0.600000*%
%ADD14RoundRect,0.150000X0.700000X-0.150000X0.700000X0.150000X-0.700000X0.150000X-0.700000X-0.150000X0*%
%ADD15RoundRect,0.250000X1.100000X-0.250000X1.100000X0.250000X-1.100000X0.250000X-1.100000X-0.250000X0*%
%ADD16R,2.200000X3.100000*%
%ADD17R,0.800000X1.700000*%
%ADD18R,2.800000X1.000000*%
%ADD19R,1.800000X0.600000*%
%ADD20C,1.400000*%
%ADD21R,3.500000X3.500000*%
%ADD22C,3.500000*%
%ADD23R,0.600000X0.400000*%
%ADD24R,0.430000X0.280000*%
%ADD25R,0.400000X0.600000*%
%ADD26R,1.000000X1.600000*%
%ADD27R,1.600000X1.000000*%
%ADD28R,0.350000X0.300000*%
%ADD29R,0.300000X0.350000*%
%ADD30R,0.600000X0.500000*%
%ADD31R,0.280000X0.430000*%
%ADD32R,0.320000X0.860000*%
%ADD33R,3.000000X2.600000*%
%ADD34R,3.098800X5.207000*%
%ADD35R,0.990600X1.143000*%
%ADD36R,0.800000X0.900000*%
%ADD37R,4.100000X3.500000*%
%ADD38R,4.099999X3.500001*%
%ADD39RoundRect,0.100000X0.100000X-0.130000X0.100000X0.130000X-0.100000X0.130000X-0.100000X-0.130000X0*%
%ADD40C,0.800000*%
%ADD41C,5.400000*%
%ADD42R,0.300000X1.900000*%
%ADD43C,1.600000*%
%ADD44R,2.450000X3.200000*%
%ADD45R,0.800000X0.800000*%
%ADD46C,1.000000*%
%ADD47R,1.000000X2.800000*%
%ADD48R,0.600000X1.800000*%
%ADD49R,1.800000X3.400000*%
%ADD50RoundRect,0.100000X-0.130000X-0.100000X0.130000X-0.100000X0.130000X0.100000X-0.130000X0.100000X0*%
%ADD51RoundRect,0.100000X0.130000X0.100000X-0.130000X0.100000X-0.130000X-0.100000X0.130000X-0.100000X0*%
%ADD52R,1.700000X0.800000*%
%ADD53RoundRect,0.100000X-0.100000X0.130000X-0.100000X-0.130000X0.100000X-0.130000X0.100000X0.130000X0*%
%ADD54R,1.524000X0.533400*%
%ADD55R,4.648200X5.054600*%
%ADD56RoundRect,0.250000X-0.250000X-0.475000X0.250000X-0.475000X0.250000X0.475000X-0.250000X0.475000X0*%
%ADD57R,2.540000X1.143000*%
%ADD58R,1.143000X2.540000*%
%ADD59RoundRect,0.147500X0.172500X-0.147500X0.172500X0.147500X-0.172500X0.147500X-0.172500X-0.147500X0*%
%ADD60RoundRect,0.125000X-0.537500X-0.125000X0.537500X-0.125000X0.537500X0.125000X-0.537500X0.125000X0*%
%ADD61RoundRect,0.250000X0.475000X-0.250000X0.475000X0.250000X-0.475000X0.250000X-0.475000X-0.250000X0*%
%ADD62RoundRect,0.147500X-0.147500X-0.172500X0.147500X-0.172500X0.147500X0.172500X-0.147500X0.172500X0*%
%ADD63RoundRect,0.218750X0.256250X-0.218750X0.256250X0.218750X-0.256250X0.218750X-0.256250X-0.218750X0*%
%ADD64R,0.812800X0.254000*%
%ADD65R,0.254000X0.812800*%
%ADD66R,2.057400X2.057400*%
%ADD67C,0.650000*%
%ADD68O,0.650000X0.950000*%
%ADD69O,1.400000X0.800000*%
G04 APERTURE END LIST*
%TO.C,L3*%
G36*
X70350000Y-130050000D02*
G01*
X69150000Y-130050000D01*
X69150000Y-129550000D01*
X68050000Y-129550000D01*
X68050000Y-128350000D01*
X69150000Y-128350000D01*
X69150000Y-127850000D01*
X70350000Y-127850000D01*
X70350000Y-130050000D01*
G37*
D10*
X70350000Y-130050000D02*
X69150000Y-130050000D01*
X69150000Y-129550000D01*
X68050000Y-129550000D01*
X68050000Y-128350000D01*
X69150000Y-128350000D01*
X69150000Y-127850000D01*
X70350000Y-127850000D01*
X70350000Y-130050000D01*
G36*
X72650000Y-128350000D02*
G01*
X73750000Y-128350000D01*
X73750000Y-129550000D01*
X72650000Y-129550000D01*
X72650000Y-130050000D01*
X71450000Y-130050000D01*
X71450000Y-127850000D01*
X72650000Y-127850000D01*
X72650000Y-128350000D01*
G37*
X72650000Y-128350000D02*
X73750000Y-128350000D01*
X73750000Y-129550000D01*
X72650000Y-129550000D01*
X72650000Y-130050000D01*
X71450000Y-130050000D01*
X71450000Y-127850000D01*
X72650000Y-127850000D01*
X72650000Y-128350000D01*
%TD*%
D11*
%TO.C,C9*%
X78392200Y-90238400D03*
X78392200Y-87238400D03*
%TD*%
D12*
%TO.C,D1*%
X75532200Y-92333400D03*
X75532200Y-89533400D03*
%TD*%
D13*
%TO.C,D6*%
X89392200Y-90618400D03*
X89392200Y-89218400D03*
%TD*%
D14*
%TO.C,J9*%
X135872200Y-95683400D03*
X135872200Y-94433400D03*
X135872200Y-93183400D03*
X135872200Y-91933400D03*
D15*
X139072200Y-97533400D03*
X139072200Y-90083400D03*
%TD*%
D16*
%TO.C,J10*%
X86915800Y-80993320D03*
X70665800Y-80993320D03*
D17*
X84415800Y-83893320D03*
X83165800Y-83893320D03*
X81915800Y-83893320D03*
X80665800Y-83893320D03*
X79415800Y-83893320D03*
X78165800Y-83893320D03*
X76915800Y-83893320D03*
X75665800Y-83893320D03*
X74415800Y-83893320D03*
X73165800Y-83893320D03*
%TD*%
D18*
%TO.C,J20*%
X59944200Y-129930400D03*
X59944200Y-115230400D03*
D19*
X63144200Y-116955400D03*
X63144200Y-118205400D03*
X63144200Y-119455400D03*
X63144200Y-120705400D03*
X63144200Y-121955400D03*
X63144200Y-123205400D03*
X63144200Y-124455400D03*
X63144200Y-125705400D03*
X63144200Y-126955400D03*
X63144200Y-128205400D03*
%TD*%
D20*
%TO.C,J27*%
X61310700Y-97173560D03*
X61310700Y-86173560D03*
D21*
X71310700Y-89173560D03*
D22*
X71310700Y-94173560D03*
%TD*%
D23*
%TO.C,R5*%
X78352200Y-92418400D03*
X78352200Y-91518400D03*
%TD*%
D24*
%TO.C,R12*%
X92920300Y-107318300D03*
X92920300Y-106798300D03*
%TD*%
D25*
%TO.C,R18*%
X88557200Y-87908400D03*
X89457200Y-87908400D03*
%TD*%
D26*
%TO.C,C7*%
X96812200Y-96718400D03*
X99812200Y-96718400D03*
%TD*%
D27*
%TO.C,C24*%
X101593520Y-108501100D03*
X101593520Y-105501100D03*
%TD*%
D26*
%TO.C,C10*%
X96812200Y-98963500D03*
X99812200Y-98963500D03*
%TD*%
%TO.C,C12*%
X96807200Y-101228400D03*
X99807200Y-101228400D03*
%TD*%
D28*
%TO.C,C14*%
X92092200Y-104098400D03*
X92092200Y-104658400D03*
%TD*%
D29*
%TO.C,C16*%
X95265300Y-108823300D03*
X95825300Y-108823300D03*
%TD*%
D27*
%TO.C,C22*%
X99381180Y-108485860D03*
X99381180Y-105485860D03*
%TD*%
%TO.C,C26*%
X103770300Y-108498300D03*
X103770300Y-105498300D03*
%TD*%
D30*
%TO.C,C18*%
X94370300Y-109623300D03*
X95470300Y-109623300D03*
%TD*%
D29*
%TO.C,C20*%
X97925300Y-102773300D03*
X97365300Y-102773300D03*
%TD*%
D31*
%TO.C,R6*%
X94672200Y-108818400D03*
X94152200Y-108818400D03*
%TD*%
D24*
%TO.C,R8*%
X93072200Y-104638400D03*
X93072200Y-104118400D03*
%TD*%
D32*
%TO.C,U3*%
X97370300Y-103788300D03*
X96570300Y-103788300D03*
X95770300Y-103788300D03*
X94970300Y-103788300D03*
X94170300Y-103788300D03*
X94170300Y-107658300D03*
X94970300Y-107658300D03*
X95770300Y-107658300D03*
X96570300Y-107658300D03*
X97370300Y-107658300D03*
D33*
X95770300Y-105723300D03*
%TD*%
D34*
%TO.C,D2*%
X89845300Y-109802400D03*
D35*
X90765301Y-105814600D03*
X88925299Y-105814600D03*
%TD*%
D31*
%TO.C,R19*%
X67082200Y-124408400D03*
X67602200Y-124408400D03*
%TD*%
D18*
%TO.C,J16*%
X60057200Y-112508400D03*
X60057200Y-106508400D03*
D19*
X63257200Y-108258400D03*
X63257200Y-109508400D03*
X63257200Y-110758400D03*
%TD*%
D36*
%TO.C,Q1*%
X111457200Y-121558400D03*
X109557200Y-121558400D03*
X110507200Y-123558400D03*
%TD*%
D31*
%TO.C,R1*%
X111582200Y-120358400D03*
X112102200Y-120358400D03*
%TD*%
D24*
%TO.C,R2*%
X112732200Y-124398400D03*
X112732200Y-123878400D03*
%TD*%
D31*
%TO.C,R7*%
X76262200Y-108768400D03*
X75742200Y-108768400D03*
%TD*%
D24*
%TO.C,R9*%
X74645300Y-104458300D03*
X74645300Y-103938300D03*
%TD*%
D37*
%TO.C,L2*%
X75570300Y-115573300D03*
D38*
X85070300Y-115573300D03*
%TD*%
D39*
%TO.C,R14*%
X74770300Y-109248300D03*
X74770300Y-108608300D03*
%TD*%
D27*
%TO.C,C25*%
X83345300Y-108348300D03*
X83345300Y-105348300D03*
%TD*%
D26*
%TO.C,C13*%
X81698200Y-96746400D03*
X84698200Y-96746400D03*
%TD*%
D27*
%TO.C,C23*%
X81045300Y-108373300D03*
X81045300Y-105373300D03*
%TD*%
D29*
%TO.C,C17*%
X76862200Y-108768400D03*
X77422200Y-108768400D03*
%TD*%
D26*
%TO.C,C11*%
X81712200Y-98948400D03*
X84712200Y-98948400D03*
%TD*%
%TO.C,C8*%
X81712200Y-101148400D03*
X84712200Y-101148400D03*
%TD*%
D30*
%TO.C,C19*%
X75962200Y-109728400D03*
X77062200Y-109728400D03*
%TD*%
D28*
%TO.C,C15*%
X73645300Y-103918300D03*
X73645300Y-104478300D03*
%TD*%
D29*
%TO.C,C21*%
X79625300Y-102723300D03*
X79065300Y-102723300D03*
%TD*%
D27*
%TO.C,C27*%
X85570300Y-108348300D03*
X85570300Y-105348300D03*
%TD*%
D32*
%TO.C,U4*%
X79045300Y-103788300D03*
X78245300Y-103788300D03*
X77445300Y-103788300D03*
X76645300Y-103788300D03*
X75845300Y-103788300D03*
X75845300Y-107658300D03*
X76645300Y-107658300D03*
X77445300Y-107658300D03*
X78245300Y-107658300D03*
X79045300Y-107658300D03*
D33*
X77445300Y-105723300D03*
%TD*%
D24*
%TO.C,R15*%
X74770300Y-107858300D03*
X74770300Y-107338300D03*
%TD*%
D34*
%TO.C,D3*%
X71920300Y-109752400D03*
D35*
X72840301Y-105764600D03*
X71000299Y-105764600D03*
%TD*%
D40*
%TO.C,J1*%
X59475000Y-81750000D03*
X63525000Y-81750000D03*
X60068109Y-80318109D03*
X61500000Y-79725000D03*
D41*
X61500000Y-81750000D03*
D40*
X61500000Y-83775000D03*
X62931891Y-83181891D03*
X62931891Y-80318109D03*
X60068109Y-83181891D03*
%TD*%
%TO.C,J2*%
X62931891Y-135181891D03*
X62931891Y-132318109D03*
X61500000Y-135775000D03*
D41*
X61500000Y-133750000D03*
D40*
X63525000Y-133750000D03*
X60068109Y-135181891D03*
X59475000Y-133750000D03*
X61500000Y-131725000D03*
X60068109Y-132318109D03*
%TD*%
%TO.C,J3*%
X137500000Y-83775000D03*
X137500000Y-79725000D03*
X135475000Y-81750000D03*
X136068109Y-83181891D03*
X136068109Y-80318109D03*
D41*
X137500000Y-81750000D03*
D40*
X139525000Y-81750000D03*
X138931891Y-80318109D03*
X138931891Y-83181891D03*
%TD*%
%TO.C,J4*%
X137500000Y-135775000D03*
X136068109Y-135181891D03*
X136068109Y-132318109D03*
D41*
X137500000Y-133750000D03*
D40*
X139525000Y-133750000D03*
X138931891Y-135181891D03*
X135475000Y-133750000D03*
X137500000Y-131725000D03*
X138931891Y-132318109D03*
%TD*%
D42*
%TO.C,J5*%
X98250000Y-89400000D03*
X98750000Y-89400000D03*
X99250000Y-89400000D03*
X99750000Y-89400000D03*
X100250000Y-89400000D03*
X100750000Y-89400000D03*
X101250000Y-89400000D03*
X101750000Y-89400000D03*
X102250000Y-89400000D03*
X102750000Y-89400000D03*
X103250000Y-89400000D03*
X103750000Y-89400000D03*
X104250000Y-89400000D03*
X104750000Y-89400000D03*
X105250000Y-89400000D03*
X105750000Y-89400000D03*
X106250000Y-89400000D03*
X106750000Y-89400000D03*
X107250000Y-89400000D03*
X107750000Y-89400000D03*
X108250000Y-89400000D03*
X108750000Y-89400000D03*
X109250000Y-89400000D03*
X109750000Y-89400000D03*
X110250000Y-89400000D03*
X110750000Y-89400000D03*
X111250000Y-89400000D03*
X111750000Y-89400000D03*
X112250000Y-89400000D03*
X112750000Y-89400000D03*
X113250000Y-89400000D03*
X113750000Y-89400000D03*
X114250000Y-89400000D03*
X114750000Y-89400000D03*
X115250000Y-89400000D03*
X115750000Y-89400000D03*
X116250000Y-89400000D03*
X116750000Y-89400000D03*
X117250000Y-89400000D03*
X117750000Y-89400000D03*
X98250000Y-83100000D03*
X98750000Y-83100000D03*
X99250000Y-83100000D03*
X99750000Y-83100000D03*
X100250000Y-83100000D03*
X100750000Y-83100000D03*
X101250000Y-83100000D03*
X101750000Y-83100000D03*
X102250000Y-83100000D03*
X102750000Y-83100000D03*
X103250000Y-83100000D03*
X103750000Y-83100000D03*
X104250000Y-83100000D03*
X104750000Y-83100000D03*
X105250000Y-83100000D03*
X105750000Y-83100000D03*
X106250000Y-83100000D03*
X106750000Y-83100000D03*
X107250000Y-83100000D03*
X107750000Y-83100000D03*
X108250000Y-83100000D03*
X108750000Y-83100000D03*
X109250000Y-83100000D03*
X109750000Y-83100000D03*
X110250000Y-83100000D03*
X110750000Y-83100000D03*
X111250000Y-83100000D03*
X111750000Y-83100000D03*
X112250000Y-83100000D03*
X112750000Y-83100000D03*
X113250000Y-83100000D03*
X113750000Y-83100000D03*
X114250000Y-83100000D03*
X114750000Y-83100000D03*
X115250000Y-83100000D03*
X115750000Y-83100000D03*
X116250000Y-83100000D03*
X116750000Y-83100000D03*
X117250000Y-83100000D03*
X117750000Y-83100000D03*
D43*
X95750000Y-88625000D03*
X120250000Y-88625000D03*
X95750000Y-83875000D03*
X120250000Y-83875000D03*
D44*
X91825000Y-86250000D03*
X124175000Y-86250000D03*
%TD*%
D42*
%TO.C,J6*%
X98250000Y-132400000D03*
X98750000Y-132400000D03*
X99250000Y-132400000D03*
X99750000Y-132400000D03*
X100250000Y-132400000D03*
X100750000Y-132400000D03*
X101250000Y-132400000D03*
X101750000Y-132400000D03*
X102250000Y-132400000D03*
X102750000Y-132400000D03*
X103250000Y-132400000D03*
X103750000Y-132400000D03*
X104250000Y-132400000D03*
X104750000Y-132400000D03*
X105250000Y-132400000D03*
X105750000Y-132400000D03*
X106250000Y-132400000D03*
X106750000Y-132400000D03*
X107250000Y-132400000D03*
X107750000Y-132400000D03*
X108250000Y-132400000D03*
X108750000Y-132400000D03*
X109250000Y-132400000D03*
X109750000Y-132400000D03*
X110250000Y-132400000D03*
X110750000Y-132400000D03*
X111250000Y-132400000D03*
X111750000Y-132400000D03*
X112250000Y-132400000D03*
X112750000Y-132400000D03*
X113250000Y-132400000D03*
X113750000Y-132400000D03*
X114250000Y-132400000D03*
X114750000Y-132400000D03*
X115250000Y-132400000D03*
X115750000Y-132400000D03*
X116250000Y-132400000D03*
X116750000Y-132400000D03*
X117250000Y-132400000D03*
X117750000Y-132400000D03*
X98250000Y-126100000D03*
X98750000Y-126100000D03*
X99250000Y-126100000D03*
X99750000Y-126100000D03*
X100250000Y-126100000D03*
X100750000Y-126100000D03*
X101250000Y-126100000D03*
X101750000Y-126100000D03*
X102250000Y-126100000D03*
X102750000Y-126100000D03*
X103250000Y-126100000D03*
X103750000Y-126100000D03*
X104250000Y-126100000D03*
X104750000Y-126100000D03*
X105250000Y-126100000D03*
X105750000Y-126100000D03*
X106250000Y-126100000D03*
X106750000Y-126100000D03*
X107250000Y-126100000D03*
X107750000Y-126100000D03*
X108250000Y-126100000D03*
X108750000Y-126100000D03*
X109250000Y-126100000D03*
X109750000Y-126100000D03*
X110250000Y-126100000D03*
X110750000Y-126100000D03*
X111250000Y-126100000D03*
X111750000Y-126100000D03*
X112250000Y-126100000D03*
X112750000Y-126100000D03*
X113250000Y-126100000D03*
X113750000Y-126100000D03*
X114250000Y-126100000D03*
X114750000Y-126100000D03*
X115250000Y-126100000D03*
X115750000Y-126100000D03*
X116250000Y-126100000D03*
X116750000Y-126100000D03*
X117250000Y-126100000D03*
X117750000Y-126100000D03*
D43*
X95750000Y-131625000D03*
X120250000Y-131625000D03*
X95750000Y-126875000D03*
X120250000Y-126875000D03*
D44*
X91825000Y-129250000D03*
X124175000Y-129250000D03*
%TD*%
D45*
%TO.C,D4*%
X67535900Y-135099900D03*
X67535900Y-133499900D03*
%TD*%
%TO.C,D5*%
X69377400Y-135074500D03*
X69377400Y-133474500D03*
%TD*%
D46*
%TO.C,FID1*%
X70660000Y-119640000D03*
%TD*%
%TO.C,FID4*%
X106412200Y-94498400D03*
%TD*%
D47*
%TO.C,J11*%
X88885420Y-135368900D03*
X84185420Y-135368900D03*
D48*
X85910420Y-132168900D03*
X87160420Y-132168900D03*
%TD*%
D47*
%TO.C,J12*%
X81598320Y-135389420D03*
X74398320Y-135389420D03*
D48*
X76123320Y-132189420D03*
X77373320Y-132189420D03*
X78623320Y-132189420D03*
X79873320Y-132189420D03*
%TD*%
D37*
%TO.C,L1*%
X93470300Y-115573300D03*
D38*
X102970300Y-115573300D03*
%TD*%
D49*
%TO.C,TP1*%
X130708400Y-129616200D03*
%TD*%
D46*
%TO.C,FID2*%
X121112200Y-123338400D03*
%TD*%
D50*
%TO.C,R28*%
X72210000Y-123600000D03*
X72850000Y-123600000D03*
%TD*%
D51*
%TO.C,R11*%
X66427200Y-103283400D03*
X65787200Y-103283400D03*
%TD*%
D52*
%TO.C,SW1*%
X132082200Y-101858400D03*
X132082200Y-98458400D03*
%TD*%
D53*
%TO.C,R31*%
X69630000Y-121395000D03*
X69630000Y-122035000D03*
%TD*%
D39*
%TO.C,R10*%
X92920300Y-108643300D03*
X92920300Y-108003300D03*
%TD*%
D14*
%TO.C,J15*%
X135872200Y-104897400D03*
X135872200Y-103647400D03*
X135872200Y-102397400D03*
X135872200Y-101147400D03*
D15*
X139072200Y-99297400D03*
X139072200Y-106747400D03*
%TD*%
D39*
%TO.C,R25*%
X128917200Y-86188400D03*
X128917200Y-85548400D03*
%TD*%
D51*
%TO.C,C46*%
X68415000Y-126390000D03*
X67775000Y-126390000D03*
%TD*%
D54*
%TO.C,Q2*%
X87249000Y-92973400D03*
X87249000Y-91703400D03*
X87249000Y-90433400D03*
X87249000Y-89163400D03*
D55*
X82638900Y-91068400D03*
%TD*%
D56*
%TO.C,C42*%
X113682200Y-120108400D03*
X115582200Y-120108400D03*
%TD*%
D57*
%TO.C,U7*%
X128892200Y-114828400D03*
X128892200Y-112288400D03*
X128892200Y-109748400D03*
X128892200Y-107208400D03*
X128892200Y-104668400D03*
X128892200Y-102128400D03*
X128892200Y-99588400D03*
X128892200Y-97048400D03*
D58*
X126225200Y-94635400D03*
X123685200Y-94635400D03*
X121145200Y-94635400D03*
X118605200Y-94635400D03*
X116065200Y-94635400D03*
X113525200Y-94635400D03*
X110985200Y-94635400D03*
D57*
X108318200Y-97048400D03*
X108318200Y-99588400D03*
X108318200Y-102128400D03*
X108318200Y-104668400D03*
X108318200Y-107208400D03*
X108318200Y-109748400D03*
X108318200Y-112288400D03*
X108318200Y-114828400D03*
D58*
X110985200Y-117241400D03*
X113525200Y-117241400D03*
X116065200Y-117241400D03*
X118605200Y-117241400D03*
X121145200Y-117241400D03*
X123685200Y-117241400D03*
X126225200Y-117241400D03*
%TD*%
D39*
%TO.C,R24*%
X128227200Y-86208400D03*
X128227200Y-85568400D03*
%TD*%
D51*
%TO.C,C35*%
X128237200Y-86958400D03*
X127597200Y-86958400D03*
%TD*%
D39*
%TO.C,C38*%
X131507200Y-82218400D03*
X131507200Y-81578400D03*
%TD*%
%TO.C,R22*%
X133852200Y-89428400D03*
X133852200Y-88788400D03*
%TD*%
D59*
%TO.C,D11*%
X133080000Y-112347500D03*
X133080000Y-111377500D03*
%TD*%
D60*
%TO.C,U9*%
X69822500Y-124805000D03*
X69822500Y-125455000D03*
X69822500Y-126105000D03*
X69822500Y-126755000D03*
X72097500Y-126755000D03*
X72097500Y-126105000D03*
X72097500Y-125455000D03*
X72097500Y-124805000D03*
%TD*%
D50*
%TO.C,R29*%
X70630000Y-123600000D03*
X71270000Y-123600000D03*
%TD*%
D53*
%TO.C,C47*%
X66130000Y-126950000D03*
X66130000Y-127590000D03*
%TD*%
D50*
%TO.C,C36*%
X128987200Y-86938400D03*
X129627200Y-86938400D03*
%TD*%
D51*
%TO.C,C41*%
X122227200Y-92158400D03*
X121587200Y-92158400D03*
%TD*%
D61*
%TO.C,C37*%
X132932200Y-82233400D03*
X132932200Y-80333400D03*
%TD*%
D50*
%TO.C,R27*%
X74220000Y-125990000D03*
X74860000Y-125990000D03*
%TD*%
D39*
%TO.C,C48*%
X71170000Y-122830000D03*
X71170000Y-122190000D03*
%TD*%
D62*
%TO.C,D10*%
X118990000Y-134390000D03*
X119960000Y-134390000D03*
%TD*%
D63*
%TO.C,FB2*%
X134692200Y-87555900D03*
X134692200Y-85980900D03*
%TD*%
D64*
%TO.C,U6*%
X126419900Y-81028399D03*
X126419900Y-81528401D03*
X126419900Y-82028400D03*
X126419900Y-82528399D03*
X126419900Y-83028401D03*
D65*
X127312199Y-83920700D03*
X127812201Y-83920700D03*
X128312200Y-83920700D03*
X128812199Y-83920700D03*
X129312201Y-83920700D03*
D64*
X130204500Y-83028401D03*
X130204500Y-82528399D03*
X130204500Y-82028400D03*
X130204500Y-81528401D03*
X130204500Y-81028399D03*
D65*
X129312201Y-80136100D03*
X128812199Y-80136100D03*
X128312200Y-80136100D03*
X127812201Y-80136100D03*
X127312199Y-80136100D03*
D66*
X128312200Y-82028400D03*
%TD*%
D50*
%TO.C,R30*%
X69625000Y-122865000D03*
X70265000Y-122865000D03*
%TD*%
D14*
%TO.C,J28*%
X135872200Y-127453400D03*
X135872200Y-126203400D03*
X135872200Y-124953400D03*
X135872200Y-123703400D03*
X135872200Y-122453400D03*
X135872200Y-121203400D03*
X135872200Y-119953400D03*
X135872200Y-118703400D03*
X135872200Y-117453400D03*
X135872200Y-116203400D03*
X135872200Y-114953400D03*
X135872200Y-113703400D03*
X135872200Y-112453400D03*
X135872200Y-111203400D03*
D15*
X139072200Y-109353400D03*
X139072200Y-129303400D03*
%TD*%
D51*
%TO.C,R23*%
X129867200Y-88828400D03*
X129227200Y-88828400D03*
%TD*%
D53*
%TO.C,C39*%
X132792200Y-83458400D03*
X132792200Y-84098400D03*
%TD*%
D56*
%TO.C,C40*%
X123657200Y-92083400D03*
X125557200Y-92083400D03*
%TD*%
D50*
%TO.C,R13*%
X68162200Y-104533400D03*
X68802200Y-104533400D03*
%TD*%
D67*
%TO.C,J7*%
X67512200Y-107368400D03*
D68*
X67512200Y-100168400D03*
D69*
X60312200Y-99278400D03*
X66262200Y-99638400D03*
X60312200Y-108258400D03*
X66262200Y-107898400D03*
%TD*%
D67*
%TO.C,J29*%
X131462200Y-86228400D03*
D68*
X131462200Y-93428400D03*
D69*
X138662200Y-85338400D03*
X132712200Y-93958400D03*
X132712200Y-85698400D03*
X138662200Y-94318400D03*
%TD*%
M02*
