%TF.GenerationSoftware,KiCad,Pcbnew,(6.0.11)*%
%TF.CreationDate,2023-05-04T09:55:51-04:00*%
%TF.ProjectId,echopilot_ai_carrier,6563686f-7069-46c6-9f74-5f61695f6361,rev?*%
%TF.SameCoordinates,Original*%
%TF.FileFunction,Paste,Top*%
%TF.FilePolarity,Positive*%
%FSLAX46Y46*%
G04 Gerber Fmt 4.6, Leading zero omitted, Abs format (unit mm)*
G04 Created by KiCad (PCBNEW (6.0.11)) date 2023-05-04 09:55:51*
%MOMM*%
%LPD*%
G01*
G04 APERTURE LIST*
G04 Aperture macros list*
%AMRoundRect*
0 Rectangle with rounded corners*
0 $1 Rounding radius*
0 $2 $3 $4 $5 $6 $7 $8 $9 X,Y pos of 4 corners*
0 Add a 4 corners polygon primitive as box body*
4,1,4,$2,$3,$4,$5,$6,$7,$8,$9,$2,$3,0*
0 Add four circle primitives for the rounded corners*
1,1,$1+$1,$2,$3*
1,1,$1+$1,$4,$5*
1,1,$1+$1,$6,$7*
1,1,$1+$1,$8,$9*
0 Add four rect primitives between the rounded corners*
20,1,$1+$1,$2,$3,$4,$5,0*
20,1,$1+$1,$4,$5,$6,$7,0*
20,1,$1+$1,$6,$7,$8,$9,0*
20,1,$1+$1,$8,$9,$2,$3,0*%
G04 Aperture macros list end*
%ADD10C,0.010000*%
%ADD11R,2.500000X1.000000*%
%ADD12R,1.100000X1.100000*%
%ADD13R,0.700000X0.600000*%
%ADD14RoundRect,0.150000X0.700000X-0.150000X0.700000X0.150000X-0.700000X0.150000X-0.700000X-0.150000X0*%
%ADD15RoundRect,0.250000X1.100000X-0.250000X1.100000X0.250000X-1.100000X0.250000X-1.100000X-0.250000X0*%
%ADD16R,2.200000X3.100000*%
%ADD17R,0.800000X1.700000*%
%ADD18R,2.800000X1.000000*%
%ADD19R,1.800000X0.600000*%
%ADD20R,0.600000X0.400000*%
%ADD21R,0.430000X0.280000*%
%ADD22R,0.400000X0.600000*%
%ADD23R,1.000000X1.600000*%
%ADD24R,1.600000X1.000000*%
%ADD25R,0.350000X0.300000*%
%ADD26R,0.300000X0.350000*%
%ADD27R,0.600000X0.500000*%
%ADD28R,0.280000X0.430000*%
%ADD29R,0.320000X0.860000*%
%ADD30R,3.098800X5.207000*%
%ADD31R,0.990600X1.143000*%
%ADD32R,0.800000X0.900000*%
%ADD33R,4.100000X3.500000*%
%ADD34R,4.099999X3.500001*%
%ADD35RoundRect,0.079500X0.100500X-0.079500X0.100500X0.079500X-0.100500X0.079500X-0.100500X-0.079500X0*%
%ADD36R,0.300000X1.900000*%
%ADD37R,2.450000X3.200000*%
%ADD38R,0.800000X0.800000*%
%ADD39R,1.000000X2.800000*%
%ADD40R,0.600000X1.800000*%
%ADD41R,1.800000X3.400000*%
%ADD42RoundRect,0.079500X-0.079500X-0.100500X0.079500X-0.100500X0.079500X0.100500X-0.079500X0.100500X0*%
%ADD43RoundRect,0.079500X0.079500X0.100500X-0.079500X0.100500X-0.079500X-0.100500X0.079500X-0.100500X0*%
%ADD44R,1.700000X0.800000*%
%ADD45RoundRect,0.079500X-0.100500X0.079500X-0.100500X-0.079500X0.100500X-0.079500X0.100500X0.079500X0*%
%ADD46R,1.524000X0.533400*%
%ADD47R,4.648200X5.054600*%
%ADD48RoundRect,0.250000X-0.250000X-0.475000X0.250000X-0.475000X0.250000X0.475000X-0.250000X0.475000X0*%
%ADD49R,2.540000X1.143000*%
%ADD50R,1.143000X2.540000*%
%ADD51RoundRect,0.147500X0.172500X-0.147500X0.172500X0.147500X-0.172500X0.147500X-0.172500X-0.147500X0*%
%ADD52RoundRect,0.125000X-0.537500X-0.125000X0.537500X-0.125000X0.537500X0.125000X-0.537500X0.125000X0*%
%ADD53RoundRect,0.250000X0.475000X-0.250000X0.475000X0.250000X-0.475000X0.250000X-0.475000X-0.250000X0*%
%ADD54RoundRect,0.147500X-0.147500X-0.172500X0.147500X-0.172500X0.147500X0.172500X-0.147500X0.172500X0*%
%ADD55RoundRect,0.218750X0.256250X-0.218750X0.256250X0.218750X-0.256250X0.218750X-0.256250X-0.218750X0*%
%ADD56R,0.812800X0.254000*%
%ADD57R,0.254000X0.812800*%
%ADD58R,2.057400X2.057400*%
G04 APERTURE END LIST*
%TO.C,U3*%
G36*
X96720300Y-106543300D02*
G01*
X94820300Y-106543300D01*
X94820300Y-104903300D01*
X96720300Y-104903300D01*
X96720300Y-106543300D01*
G37*
D10*
X96720300Y-106543300D02*
X94820300Y-106543300D01*
X94820300Y-104903300D01*
X96720300Y-104903300D01*
X96720300Y-106543300D01*
%TO.C,U4*%
G36*
X78395300Y-106543300D02*
G01*
X76495300Y-106543300D01*
X76495300Y-104903300D01*
X78395300Y-104903300D01*
X78395300Y-106543300D01*
G37*
X78395300Y-106543300D02*
X76495300Y-106543300D01*
X76495300Y-104903300D01*
X78395300Y-104903300D01*
X78395300Y-106543300D01*
%TO.C,L3*%
G36*
X70250000Y-129950000D02*
G01*
X69250000Y-129950000D01*
X69250000Y-129450000D01*
X68150000Y-129450000D01*
X68150000Y-128450000D01*
X69250000Y-128450000D01*
X69250000Y-127950000D01*
X70250000Y-127950000D01*
X70250000Y-129950000D01*
G37*
X70250000Y-129950000D02*
X69250000Y-129950000D01*
X69250000Y-129450000D01*
X68150000Y-129450000D01*
X68150000Y-128450000D01*
X69250000Y-128450000D01*
X69250000Y-127950000D01*
X70250000Y-127950000D01*
X70250000Y-129950000D01*
G36*
X72550000Y-128450000D02*
G01*
X73650000Y-128450000D01*
X73650000Y-129450000D01*
X72550000Y-129450000D01*
X72550000Y-129950000D01*
X71550000Y-129950000D01*
X71550000Y-127950000D01*
X72550000Y-127950000D01*
X72550000Y-128450000D01*
G37*
X72550000Y-128450000D02*
X73650000Y-128450000D01*
X73650000Y-129450000D01*
X72550000Y-129450000D01*
X72550000Y-129950000D01*
X71550000Y-129950000D01*
X71550000Y-127950000D01*
X72550000Y-127950000D01*
X72550000Y-128450000D01*
%TD*%
D11*
%TO.C,C9*%
X78392200Y-90238400D03*
X78392200Y-87238400D03*
%TD*%
D12*
%TO.C,D1*%
X75532200Y-92333400D03*
X75532200Y-89533400D03*
%TD*%
D13*
%TO.C,D6*%
X89392200Y-90618400D03*
X89392200Y-89218400D03*
%TD*%
D14*
%TO.C,J9*%
X135872200Y-95683400D03*
X135872200Y-94433400D03*
X135872200Y-93183400D03*
X135872200Y-91933400D03*
D15*
X139072200Y-97533400D03*
X139072200Y-90083400D03*
%TD*%
D16*
%TO.C,J10*%
X86915800Y-80993320D03*
X70665800Y-80993320D03*
D17*
X84415800Y-83893320D03*
X83165800Y-83893320D03*
X81915800Y-83893320D03*
X80665800Y-83893320D03*
X79415800Y-83893320D03*
X78165800Y-83893320D03*
X76915800Y-83893320D03*
X75665800Y-83893320D03*
X74415800Y-83893320D03*
X73165800Y-83893320D03*
%TD*%
D18*
%TO.C,J20*%
X59944200Y-129930400D03*
X59944200Y-115230400D03*
D19*
X63144200Y-116955400D03*
X63144200Y-118205400D03*
X63144200Y-119455400D03*
X63144200Y-120705400D03*
X63144200Y-121955400D03*
X63144200Y-123205400D03*
X63144200Y-124455400D03*
X63144200Y-125705400D03*
X63144200Y-126955400D03*
X63144200Y-128205400D03*
%TD*%
D20*
%TO.C,R5*%
X78352200Y-92418400D03*
X78352200Y-91518400D03*
%TD*%
D21*
%TO.C,R12*%
X92920300Y-107318300D03*
X92920300Y-106798300D03*
%TD*%
D22*
%TO.C,R18*%
X88557200Y-87908400D03*
X89457200Y-87908400D03*
%TD*%
D23*
%TO.C,C7*%
X96812200Y-96718400D03*
X99812200Y-96718400D03*
%TD*%
D24*
%TO.C,C24*%
X101593520Y-108501100D03*
X101593520Y-105501100D03*
%TD*%
D23*
%TO.C,C10*%
X96812200Y-98963500D03*
X99812200Y-98963500D03*
%TD*%
%TO.C,C12*%
X96807200Y-101228400D03*
X99807200Y-101228400D03*
%TD*%
D25*
%TO.C,C14*%
X92092200Y-104098400D03*
X92092200Y-104658400D03*
%TD*%
D26*
%TO.C,C16*%
X95265300Y-108823300D03*
X95825300Y-108823300D03*
%TD*%
D24*
%TO.C,C22*%
X99381180Y-108485860D03*
X99381180Y-105485860D03*
%TD*%
%TO.C,C26*%
X103770300Y-108498300D03*
X103770300Y-105498300D03*
%TD*%
D27*
%TO.C,C18*%
X94370300Y-109623300D03*
X95470300Y-109623300D03*
%TD*%
D26*
%TO.C,C20*%
X97925300Y-102773300D03*
X97365300Y-102773300D03*
%TD*%
D28*
%TO.C,R6*%
X94672200Y-108818400D03*
X94152200Y-108818400D03*
%TD*%
D21*
%TO.C,R8*%
X93072200Y-104638400D03*
X93072200Y-104118400D03*
%TD*%
D29*
%TO.C,U3*%
X97370300Y-103788300D03*
X96570300Y-103788300D03*
X95770300Y-103788300D03*
X94970300Y-103788300D03*
X94170300Y-103788300D03*
X94170300Y-107658300D03*
X94970300Y-107658300D03*
X95770300Y-107658300D03*
X96570300Y-107658300D03*
X97370300Y-107658300D03*
%TD*%
D30*
%TO.C,D2*%
X89845300Y-109802400D03*
D31*
X90765301Y-105814600D03*
X88925299Y-105814600D03*
%TD*%
D28*
%TO.C,R19*%
X67082200Y-124408400D03*
X67602200Y-124408400D03*
%TD*%
D18*
%TO.C,J16*%
X60057200Y-112508400D03*
X60057200Y-106508400D03*
D19*
X63257200Y-108258400D03*
X63257200Y-109508400D03*
X63257200Y-110758400D03*
%TD*%
D32*
%TO.C,Q1*%
X111457200Y-121558400D03*
X109557200Y-121558400D03*
X110507200Y-123558400D03*
%TD*%
D28*
%TO.C,R1*%
X111582200Y-120358400D03*
X112102200Y-120358400D03*
%TD*%
D21*
%TO.C,R2*%
X112732200Y-124398400D03*
X112732200Y-123878400D03*
%TD*%
D28*
%TO.C,R7*%
X76262200Y-108768400D03*
X75742200Y-108768400D03*
%TD*%
D21*
%TO.C,R9*%
X74645300Y-104458300D03*
X74645300Y-103938300D03*
%TD*%
D33*
%TO.C,L2*%
X75570300Y-115573300D03*
D34*
X85070300Y-115573300D03*
%TD*%
D35*
%TO.C,R14*%
X74770300Y-108583300D03*
X74770300Y-109273300D03*
%TD*%
D24*
%TO.C,C25*%
X83345300Y-108348300D03*
X83345300Y-105348300D03*
%TD*%
D23*
%TO.C,C13*%
X81698200Y-96746400D03*
X84698200Y-96746400D03*
%TD*%
D24*
%TO.C,C23*%
X81045300Y-108373300D03*
X81045300Y-105373300D03*
%TD*%
D26*
%TO.C,C17*%
X76862200Y-108768400D03*
X77422200Y-108768400D03*
%TD*%
D23*
%TO.C,C11*%
X81712200Y-98948400D03*
X84712200Y-98948400D03*
%TD*%
%TO.C,C8*%
X81712200Y-101148400D03*
X84712200Y-101148400D03*
%TD*%
D27*
%TO.C,C19*%
X75962200Y-109728400D03*
X77062200Y-109728400D03*
%TD*%
D25*
%TO.C,C15*%
X73645300Y-103918300D03*
X73645300Y-104478300D03*
%TD*%
D26*
%TO.C,C21*%
X79625300Y-102723300D03*
X79065300Y-102723300D03*
%TD*%
D24*
%TO.C,C27*%
X85570300Y-108348300D03*
X85570300Y-105348300D03*
%TD*%
D29*
%TO.C,U4*%
X79045300Y-103788300D03*
X78245300Y-103788300D03*
X77445300Y-103788300D03*
X76645300Y-103788300D03*
X75845300Y-103788300D03*
X75845300Y-107658300D03*
X76645300Y-107658300D03*
X77445300Y-107658300D03*
X78245300Y-107658300D03*
X79045300Y-107658300D03*
%TD*%
D21*
%TO.C,R15*%
X74770300Y-107858300D03*
X74770300Y-107338300D03*
%TD*%
D30*
%TO.C,D3*%
X71920300Y-109752400D03*
D31*
X72840301Y-105764600D03*
X71000299Y-105764600D03*
%TD*%
D36*
%TO.C,J5*%
X98250000Y-89400000D03*
X98750000Y-89400000D03*
X99250000Y-89400000D03*
X99750000Y-89400000D03*
X100250000Y-89400000D03*
X100750000Y-89400000D03*
X101250000Y-89400000D03*
X101750000Y-89400000D03*
X102250000Y-89400000D03*
X102750000Y-89400000D03*
X103250000Y-89400000D03*
X103750000Y-89400000D03*
X104250000Y-89400000D03*
X104750000Y-89400000D03*
X105250000Y-89400000D03*
X105750000Y-89400000D03*
X106250000Y-89400000D03*
X106750000Y-89400000D03*
X107250000Y-89400000D03*
X107750000Y-89400000D03*
X108250000Y-89400000D03*
X108750000Y-89400000D03*
X109250000Y-89400000D03*
X109750000Y-89400000D03*
X110250000Y-89400000D03*
X110750000Y-89400000D03*
X111250000Y-89400000D03*
X111750000Y-89400000D03*
X112250000Y-89400000D03*
X112750000Y-89400000D03*
X113250000Y-89400000D03*
X113750000Y-89400000D03*
X114250000Y-89400000D03*
X114750000Y-89400000D03*
X115250000Y-89400000D03*
X115750000Y-89400000D03*
X116250000Y-89400000D03*
X116750000Y-89400000D03*
X117250000Y-89400000D03*
X117750000Y-89400000D03*
X98250000Y-83100000D03*
X98750000Y-83100000D03*
X99250000Y-83100000D03*
X99750000Y-83100000D03*
X100250000Y-83100000D03*
X100750000Y-83100000D03*
X101250000Y-83100000D03*
X101750000Y-83100000D03*
X102250000Y-83100000D03*
X102750000Y-83100000D03*
X103250000Y-83100000D03*
X103750000Y-83100000D03*
X104250000Y-83100000D03*
X104750000Y-83100000D03*
X105250000Y-83100000D03*
X105750000Y-83100000D03*
X106250000Y-83100000D03*
X106750000Y-83100000D03*
X107250000Y-83100000D03*
X107750000Y-83100000D03*
X108250000Y-83100000D03*
X108750000Y-83100000D03*
X109250000Y-83100000D03*
X109750000Y-83100000D03*
X110250000Y-83100000D03*
X110750000Y-83100000D03*
X111250000Y-83100000D03*
X111750000Y-83100000D03*
X112250000Y-83100000D03*
X112750000Y-83100000D03*
X113250000Y-83100000D03*
X113750000Y-83100000D03*
X114250000Y-83100000D03*
X114750000Y-83100000D03*
X115250000Y-83100000D03*
X115750000Y-83100000D03*
X116250000Y-83100000D03*
X116750000Y-83100000D03*
X117250000Y-83100000D03*
X117750000Y-83100000D03*
D37*
X91825000Y-86250000D03*
X124175000Y-86250000D03*
%TD*%
D36*
%TO.C,J6*%
X98250000Y-132400000D03*
X98750000Y-132400000D03*
X99250000Y-132400000D03*
X99750000Y-132400000D03*
X100250000Y-132400000D03*
X100750000Y-132400000D03*
X101250000Y-132400000D03*
X101750000Y-132400000D03*
X102250000Y-132400000D03*
X102750000Y-132400000D03*
X103250000Y-132400000D03*
X103750000Y-132400000D03*
X104250000Y-132400000D03*
X104750000Y-132400000D03*
X105250000Y-132400000D03*
X105750000Y-132400000D03*
X106250000Y-132400000D03*
X106750000Y-132400000D03*
X107250000Y-132400000D03*
X107750000Y-132400000D03*
X108250000Y-132400000D03*
X108750000Y-132400000D03*
X109250000Y-132400000D03*
X109750000Y-132400000D03*
X110250000Y-132400000D03*
X110750000Y-132400000D03*
X111250000Y-132400000D03*
X111750000Y-132400000D03*
X112250000Y-132400000D03*
X112750000Y-132400000D03*
X113250000Y-132400000D03*
X113750000Y-132400000D03*
X114250000Y-132400000D03*
X114750000Y-132400000D03*
X115250000Y-132400000D03*
X115750000Y-132400000D03*
X116250000Y-132400000D03*
X116750000Y-132400000D03*
X117250000Y-132400000D03*
X117750000Y-132400000D03*
X98250000Y-126100000D03*
X98750000Y-126100000D03*
X99250000Y-126100000D03*
X99750000Y-126100000D03*
X100250000Y-126100000D03*
X100750000Y-126100000D03*
X101250000Y-126100000D03*
X101750000Y-126100000D03*
X102250000Y-126100000D03*
X102750000Y-126100000D03*
X103250000Y-126100000D03*
X103750000Y-126100000D03*
X104250000Y-126100000D03*
X104750000Y-126100000D03*
X105250000Y-126100000D03*
X105750000Y-126100000D03*
X106250000Y-126100000D03*
X106750000Y-126100000D03*
X107250000Y-126100000D03*
X107750000Y-126100000D03*
X108250000Y-126100000D03*
X108750000Y-126100000D03*
X109250000Y-126100000D03*
X109750000Y-126100000D03*
X110250000Y-126100000D03*
X110750000Y-126100000D03*
X111250000Y-126100000D03*
X111750000Y-126100000D03*
X112250000Y-126100000D03*
X112750000Y-126100000D03*
X113250000Y-126100000D03*
X113750000Y-126100000D03*
X114250000Y-126100000D03*
X114750000Y-126100000D03*
X115250000Y-126100000D03*
X115750000Y-126100000D03*
X116250000Y-126100000D03*
X116750000Y-126100000D03*
X117250000Y-126100000D03*
X117750000Y-126100000D03*
D37*
X91825000Y-129250000D03*
X124175000Y-129250000D03*
%TD*%
D38*
%TO.C,D4*%
X67535900Y-135099900D03*
X67535900Y-133499900D03*
%TD*%
%TO.C,D5*%
X69377400Y-135074500D03*
X69377400Y-133474500D03*
%TD*%
D39*
%TO.C,J11*%
X88885420Y-135368900D03*
X84185420Y-135368900D03*
D40*
X85910420Y-132168900D03*
X87160420Y-132168900D03*
%TD*%
D39*
%TO.C,J12*%
X81598320Y-135389420D03*
X74398320Y-135389420D03*
D40*
X76123320Y-132189420D03*
X77373320Y-132189420D03*
X78623320Y-132189420D03*
X79873320Y-132189420D03*
%TD*%
D33*
%TO.C,L1*%
X93470300Y-115573300D03*
D34*
X102970300Y-115573300D03*
%TD*%
D41*
%TO.C,TP1*%
X130708400Y-129616200D03*
%TD*%
D42*
%TO.C,R28*%
X72185000Y-123600000D03*
X72875000Y-123600000D03*
%TD*%
D43*
%TO.C,R11*%
X66452200Y-103283400D03*
X65762200Y-103283400D03*
%TD*%
D44*
%TO.C,SW1*%
X132082200Y-101858400D03*
X132082200Y-98458400D03*
%TD*%
D45*
%TO.C,R31*%
X69630000Y-122060000D03*
X69630000Y-121370000D03*
%TD*%
D35*
%TO.C,R10*%
X92920300Y-108668300D03*
X92920300Y-107978300D03*
%TD*%
D14*
%TO.C,J15*%
X135872200Y-104897400D03*
X135872200Y-103647400D03*
X135872200Y-102397400D03*
X135872200Y-101147400D03*
D15*
X139072200Y-99297400D03*
X139072200Y-106747400D03*
%TD*%
D35*
%TO.C,R25*%
X128917200Y-86213400D03*
X128917200Y-85523400D03*
%TD*%
D43*
%TO.C,C46*%
X68440000Y-126390000D03*
X67750000Y-126390000D03*
%TD*%
D46*
%TO.C,Q2*%
X87249000Y-92973400D03*
X87249000Y-91703400D03*
X87249000Y-90433400D03*
X87249000Y-89163400D03*
D47*
X82638900Y-91068400D03*
%TD*%
D48*
%TO.C,C42*%
X113682200Y-120108400D03*
X115582200Y-120108400D03*
%TD*%
D49*
%TO.C,U7*%
X128892200Y-114828400D03*
X128892200Y-112288400D03*
X128892200Y-109748400D03*
X128892200Y-107208400D03*
X128892200Y-104668400D03*
X128892200Y-102128400D03*
X128892200Y-99588400D03*
X128892200Y-97048400D03*
D50*
X126225200Y-94635400D03*
X123685200Y-94635400D03*
X121145200Y-94635400D03*
X118605200Y-94635400D03*
X116065200Y-94635400D03*
X113525200Y-94635400D03*
X110985200Y-94635400D03*
D49*
X108318200Y-97048400D03*
X108318200Y-99588400D03*
X108318200Y-102128400D03*
X108318200Y-104668400D03*
X108318200Y-107208400D03*
X108318200Y-109748400D03*
X108318200Y-112288400D03*
X108318200Y-114828400D03*
D50*
X110985200Y-117241400D03*
X113525200Y-117241400D03*
X116065200Y-117241400D03*
X118605200Y-117241400D03*
X121145200Y-117241400D03*
X123685200Y-117241400D03*
X126225200Y-117241400D03*
%TD*%
D35*
%TO.C,R24*%
X128227200Y-85543400D03*
X128227200Y-86233400D03*
%TD*%
D43*
%TO.C,C35*%
X127572200Y-86958400D03*
X128262200Y-86958400D03*
%TD*%
D35*
%TO.C,C38*%
X131507200Y-82243400D03*
X131507200Y-81553400D03*
%TD*%
%TO.C,R22*%
X133852200Y-88763400D03*
X133852200Y-89453400D03*
%TD*%
D51*
%TO.C,D11*%
X133080000Y-112347500D03*
X133080000Y-111377500D03*
%TD*%
D52*
%TO.C,U9*%
X69822500Y-124805000D03*
X69822500Y-125455000D03*
X69822500Y-126105000D03*
X69822500Y-126755000D03*
X72097500Y-126755000D03*
X72097500Y-126105000D03*
X72097500Y-125455000D03*
X72097500Y-124805000D03*
%TD*%
D42*
%TO.C,R29*%
X71295000Y-123600000D03*
X70605000Y-123600000D03*
%TD*%
D45*
%TO.C,C47*%
X66130000Y-127615000D03*
X66130000Y-126925000D03*
%TD*%
D42*
%TO.C,C36*%
X128962200Y-86938400D03*
X129652200Y-86938400D03*
%TD*%
D43*
%TO.C,C41*%
X122252200Y-92158400D03*
X121562200Y-92158400D03*
%TD*%
D53*
%TO.C,C37*%
X132932200Y-82233400D03*
X132932200Y-80333400D03*
%TD*%
D42*
%TO.C,R27*%
X74195000Y-125990000D03*
X74885000Y-125990000D03*
%TD*%
D35*
%TO.C,C48*%
X71170000Y-122855000D03*
X71170000Y-122165000D03*
%TD*%
D54*
%TO.C,D10*%
X118990000Y-134390000D03*
X119960000Y-134390000D03*
%TD*%
D55*
%TO.C,FB2*%
X134692200Y-87555900D03*
X134692200Y-85980900D03*
%TD*%
D56*
%TO.C,U6*%
X126419900Y-81028399D03*
X126419900Y-81528401D03*
X126419900Y-82028400D03*
X126419900Y-82528399D03*
X126419900Y-83028401D03*
D57*
X127312199Y-83920700D03*
X127812201Y-83920700D03*
X128312200Y-83920700D03*
X128812199Y-83920700D03*
X129312201Y-83920700D03*
D56*
X130204500Y-83028401D03*
X130204500Y-82528399D03*
X130204500Y-82028400D03*
X130204500Y-81528401D03*
X130204500Y-81028399D03*
D57*
X129312201Y-80136100D03*
X128812199Y-80136100D03*
X128312200Y-80136100D03*
X127812201Y-80136100D03*
X127312199Y-80136100D03*
D58*
X128312200Y-82028400D03*
%TD*%
D42*
%TO.C,R30*%
X70290000Y-122865000D03*
X69600000Y-122865000D03*
%TD*%
D14*
%TO.C,J28*%
X135872200Y-127453400D03*
X135872200Y-126203400D03*
X135872200Y-124953400D03*
X135872200Y-123703400D03*
X135872200Y-122453400D03*
X135872200Y-121203400D03*
X135872200Y-119953400D03*
X135872200Y-118703400D03*
X135872200Y-117453400D03*
X135872200Y-116203400D03*
X135872200Y-114953400D03*
X135872200Y-113703400D03*
X135872200Y-112453400D03*
X135872200Y-111203400D03*
D15*
X139072200Y-109353400D03*
X139072200Y-129303400D03*
%TD*%
D43*
%TO.C,R23*%
X129892200Y-88828400D03*
X129202200Y-88828400D03*
%TD*%
D45*
%TO.C,C39*%
X132792200Y-84123400D03*
X132792200Y-83433400D03*
%TD*%
D48*
%TO.C,C40*%
X123657200Y-92083400D03*
X125557200Y-92083400D03*
%TD*%
D42*
%TO.C,R13*%
X68137200Y-104533400D03*
X68827200Y-104533400D03*
%TD*%
M02*
