%TF.GenerationSoftware,KiCad,Pcbnew,(6.0.11)*%
%TF.CreationDate,2023-05-04T09:55:51-04:00*%
%TF.ProjectId,echopilot_ai_carrier,6563686f-7069-46c6-9f74-5f61695f6361,rev?*%
%TF.SameCoordinates,Original*%
%TF.FileFunction,Paste,Bot*%
%TF.FilePolarity,Positive*%
%FSLAX46Y46*%
G04 Gerber Fmt 4.6, Leading zero omitted, Abs format (unit mm)*
G04 Created by KiCad (PCBNEW (6.0.11)) date 2023-05-04 09:55:51*
%MOMM*%
%LPD*%
G01*
G04 APERTURE LIST*
G04 Aperture macros list*
%AMRoundRect*
0 Rectangle with rounded corners*
0 $1 Rounding radius*
0 $2 $3 $4 $5 $6 $7 $8 $9 X,Y pos of 4 corners*
0 Add a 4 corners polygon primitive as box body*
4,1,4,$2,$3,$4,$5,$6,$7,$8,$9,$2,$3,0*
0 Add four circle primitives for the rounded corners*
1,1,$1+$1,$2,$3*
1,1,$1+$1,$4,$5*
1,1,$1+$1,$6,$7*
1,1,$1+$1,$8,$9*
0 Add four rect primitives between the rounded corners*
20,1,$1+$1,$2,$3,$4,$5,0*
20,1,$1+$1,$4,$5,$6,$7,0*
20,1,$1+$1,$6,$7,$8,$9,0*
20,1,$1+$1,$8,$9,$2,$3,0*%
G04 Aperture macros list end*
%ADD10C,0.000100*%
%ADD11RoundRect,0.150000X0.150000X0.700000X-0.150000X0.700000X-0.150000X-0.700000X0.150000X-0.700000X0*%
%ADD12RoundRect,0.250000X0.250000X1.100000X-0.250000X1.100000X-0.250000X-1.100000X0.250000X-1.100000X0*%
%ADD13RoundRect,0.150000X0.700000X-0.150000X0.700000X0.150000X-0.700000X0.150000X-0.700000X-0.150000X0*%
%ADD14RoundRect,0.250000X1.100000X-0.250000X1.100000X0.250000X-1.100000X0.250000X-1.100000X-0.250000X0*%
%ADD15RoundRect,0.150000X-0.700000X0.150000X-0.700000X-0.150000X0.700000X-0.150000X0.700000X0.150000X0*%
%ADD16RoundRect,0.250000X-1.100000X0.250000X-1.100000X-0.250000X1.100000X-0.250000X1.100000X0.250000X0*%
%ADD17R,0.350000X0.300000*%
%ADD18R,0.430000X0.280000*%
%ADD19R,0.280000X0.430000*%
%ADD20R,1.714500X0.762000*%
%ADD21R,0.300000X0.350000*%
%ADD22RoundRect,0.250000X0.475000X-0.250000X0.475000X0.250000X-0.475000X0.250000X-0.475000X-0.250000X0*%
%ADD23RoundRect,0.079500X0.100500X-0.079500X0.100500X0.079500X-0.100500X0.079500X-0.100500X-0.079500X0*%
%ADD24RoundRect,0.140000X-0.140000X-0.170000X0.140000X-0.170000X0.140000X0.170000X-0.140000X0.170000X0*%
%ADD25R,1.700000X4.100000*%
%ADD26RoundRect,0.079500X0.079500X0.100500X-0.079500X0.100500X-0.079500X-0.100500X0.079500X-0.100500X0*%
%ADD27R,0.700000X0.300000*%
%ADD28R,1.800000X2.500000*%
%ADD29RoundRect,0.079500X-0.079500X-0.100500X0.079500X-0.100500X0.079500X0.100500X-0.079500X0.100500X0*%
%ADD30RoundRect,0.150000X-0.150000X0.512500X-0.150000X-0.512500X0.150000X-0.512500X0.150000X0.512500X0*%
%ADD31RoundRect,0.135000X-0.135000X-0.185000X0.135000X-0.185000X0.135000X0.185000X-0.135000X0.185000X0*%
%ADD32R,0.812800X0.254000*%
%ADD33R,0.254000X0.812800*%
%ADD34R,2.057400X2.057400*%
%ADD35R,0.610000X2.000000*%
%ADD36R,2.680000X3.600000*%
%ADD37RoundRect,0.250000X-0.250000X-0.475000X0.250000X-0.475000X0.250000X0.475000X-0.250000X0.475000X0*%
%ADD38RoundRect,0.079500X-0.100500X0.079500X-0.100500X-0.079500X0.100500X-0.079500X0.100500X0.079500X0*%
%ADD39R,0.450000X0.600000*%
%ADD40RoundRect,0.218750X-0.218750X-0.256250X0.218750X-0.256250X0.218750X0.256250X-0.218750X0.256250X0*%
%ADD41RoundRect,0.218750X-0.256250X0.218750X-0.256250X-0.218750X0.256250X-0.218750X0.256250X0.218750X0*%
G04 APERTURE END LIST*
%TO.C,BT1*%
G36*
X112307200Y-113033400D02*
G01*
X109907200Y-113033400D01*
X109907200Y-110633400D01*
X112307200Y-113033400D01*
G37*
D10*
X112307200Y-113033400D02*
X109907200Y-113033400D01*
X109907200Y-110633400D01*
X112307200Y-113033400D01*
%TD*%
D11*
%TO.C,J13*%
X117607200Y-132268400D03*
X116357200Y-132268400D03*
X115107200Y-132268400D03*
D12*
X119457200Y-135468400D03*
X113257200Y-135468400D03*
%TD*%
D13*
%TO.C,J18*%
X63394200Y-127483400D03*
X63394200Y-126233400D03*
X63394200Y-124983400D03*
X63394200Y-123733400D03*
X63394200Y-122483400D03*
X63394200Y-121233400D03*
D14*
X60194200Y-119383400D03*
X60194200Y-129333400D03*
%TD*%
D15*
%TO.C,J21*%
X135872200Y-97763400D03*
X135872200Y-99013400D03*
X135872200Y-100263400D03*
X135872200Y-101513400D03*
D16*
X139072200Y-103363400D03*
X139072200Y-95913400D03*
%TD*%
D15*
%TO.C,J22*%
X135852200Y-106640066D03*
X135852200Y-107890066D03*
X135852200Y-109140066D03*
X135852200Y-110390066D03*
D16*
X139052200Y-112240066D03*
X139052200Y-104790066D03*
%TD*%
D15*
%TO.C,J23*%
X135902200Y-115516732D03*
X135902200Y-116766732D03*
X135902200Y-118016732D03*
X135902200Y-119266732D03*
D16*
X139102200Y-113666732D03*
X139102200Y-121116732D03*
%TD*%
D15*
%TO.C,J24*%
X135882200Y-124393398D03*
X135882200Y-125643398D03*
X135882200Y-126893398D03*
X135882200Y-128143398D03*
D16*
X139082200Y-129993398D03*
X139082200Y-122543398D03*
%TD*%
D13*
%TO.C,J17*%
X63372200Y-115793400D03*
X63372200Y-114543400D03*
X63372200Y-113293400D03*
X63372200Y-112043400D03*
D14*
X60172200Y-110193400D03*
X60172200Y-117643400D03*
%TD*%
D17*
%TO.C,C1*%
X118932200Y-115738400D03*
X118932200Y-115178400D03*
%TD*%
%TO.C,C2*%
X118822200Y-99108400D03*
X118822200Y-98548400D03*
%TD*%
%TO.C,C3*%
X118932200Y-113878400D03*
X118932200Y-114438400D03*
%TD*%
%TO.C,C4*%
X118862200Y-97208400D03*
X118862200Y-97768400D03*
%TD*%
%TO.C,C6*%
X131562200Y-98348400D03*
X131562200Y-98908400D03*
%TD*%
D18*
%TO.C,R4*%
X131582200Y-97718400D03*
X131582200Y-97198400D03*
%TD*%
D19*
%TO.C,R16*%
X67662900Y-136458800D03*
X68182900Y-136458800D03*
%TD*%
%TO.C,R17*%
X69567200Y-136433400D03*
X69047200Y-136433400D03*
%TD*%
D20*
%TO.C,U1*%
X120809450Y-119497200D03*
X120809450Y-118227200D03*
X120809450Y-116957200D03*
X120809450Y-113147200D03*
X120809450Y-111877200D03*
X120809450Y-110607200D03*
X129254950Y-110607200D03*
X129254950Y-111877200D03*
X129254950Y-113147200D03*
X129254950Y-116957200D03*
X129254950Y-118227200D03*
X129254950Y-119497200D03*
%TD*%
%TO.C,U2*%
X120929450Y-102697200D03*
X120929450Y-101427200D03*
X120929450Y-100157200D03*
X120929450Y-96347200D03*
X120929450Y-95077200D03*
X120929450Y-93807200D03*
X129374950Y-93807200D03*
X129374950Y-95077200D03*
X129374950Y-96347200D03*
X129374950Y-100157200D03*
X129374950Y-101427200D03*
X129374950Y-102697200D03*
%TD*%
D21*
%TO.C,C5*%
X131462200Y-116198400D03*
X132022200Y-116198400D03*
%TD*%
D18*
%TO.C,R3*%
X131532200Y-115428400D03*
X131532200Y-114908400D03*
%TD*%
D22*
%TO.C,C32*%
X73682200Y-99683400D03*
X73682200Y-97783400D03*
%TD*%
D23*
%TO.C,C31*%
X74607200Y-101988400D03*
X74607200Y-102678400D03*
%TD*%
D24*
%TO.C,C45*%
X107827200Y-107458400D03*
X108787200Y-107458400D03*
%TD*%
D25*
%TO.C,BT1*%
X114457200Y-110983400D03*
%TD*%
D26*
%TO.C,C34*%
X75077200Y-100908400D03*
X74387200Y-100908400D03*
%TD*%
D27*
%TO.C,J7*%
X68172200Y-106518400D03*
X68172200Y-106018400D03*
X68172200Y-105518400D03*
X68172200Y-105018400D03*
X68172200Y-104518400D03*
X68172200Y-104018400D03*
X68172200Y-103518400D03*
X68172200Y-103018400D03*
X68172200Y-102518400D03*
X68172200Y-102018400D03*
X68172200Y-101518400D03*
X68172200Y-101018400D03*
X66472200Y-101268400D03*
X66472200Y-101768400D03*
X66472200Y-102268400D03*
X66472200Y-102768400D03*
X66472200Y-103268400D03*
X66472200Y-103768400D03*
X66472200Y-104268400D03*
X66472200Y-104768400D03*
X66472200Y-105268400D03*
X66472200Y-105768400D03*
X66472200Y-106268400D03*
X66472200Y-106768400D03*
%TD*%
%TO.C,J29*%
X130802200Y-87078400D03*
X130802200Y-87578400D03*
X130802200Y-88078400D03*
X130802200Y-88578400D03*
X130802200Y-89078400D03*
X130802200Y-89578400D03*
X130802200Y-90078400D03*
X130802200Y-90578400D03*
X130802200Y-91078400D03*
X130802200Y-91578400D03*
X130802200Y-92078400D03*
X130802200Y-92578400D03*
X132502200Y-92328400D03*
X132502200Y-91828400D03*
X132502200Y-91328400D03*
X132502200Y-90828400D03*
X132502200Y-90328400D03*
X132502200Y-89828400D03*
X132502200Y-89328400D03*
X132502200Y-88828400D03*
X132502200Y-88328400D03*
X132502200Y-87828400D03*
X132502200Y-87328400D03*
X132502200Y-86828400D03*
%TD*%
D28*
%TO.C,D8*%
X85852200Y-128228400D03*
X85852200Y-124228400D03*
%TD*%
D29*
%TO.C,C28*%
X90167200Y-86718400D03*
X89477200Y-86718400D03*
%TD*%
D28*
%TO.C,D9*%
X76832200Y-128258400D03*
X76832200Y-124258400D03*
%TD*%
D30*
%TO.C,U8*%
X107857200Y-101695900D03*
X108807200Y-101695900D03*
X109757200Y-101695900D03*
X109757200Y-103970900D03*
X107857200Y-103970900D03*
%TD*%
D31*
%TO.C,R26*%
X107847200Y-112408400D03*
X108867200Y-112408400D03*
%TD*%
D11*
%TO.C,J25*%
X101417200Y-132268400D03*
X100167200Y-132268400D03*
X98917200Y-132268400D03*
X97667200Y-132268400D03*
D12*
X95817200Y-135468400D03*
X103267200Y-135468400D03*
%TD*%
D23*
%TO.C,R21*%
X77707200Y-103213400D03*
X77707200Y-103903400D03*
%TD*%
D32*
%TO.C,FL1*%
X70632200Y-103958398D03*
X70632200Y-103458399D03*
X70632200Y-102958400D03*
X71978400Y-102958400D03*
X71978400Y-103458399D03*
X71978400Y-103958398D03*
%TD*%
%TO.C,U5*%
X80374500Y-98883399D03*
X80374500Y-99383401D03*
X80374500Y-99883400D03*
X80374500Y-100383399D03*
X80374500Y-100883401D03*
D33*
X79482201Y-101775700D03*
X78982199Y-101775700D03*
X78482200Y-101775700D03*
X77982201Y-101775700D03*
X77482199Y-101775700D03*
D32*
X76589900Y-100883401D03*
X76589900Y-100383399D03*
X76589900Y-99883400D03*
X76589900Y-99383401D03*
X76589900Y-98883399D03*
D33*
X77482199Y-97991100D03*
X77982201Y-97991100D03*
X78482200Y-97991100D03*
X78982199Y-97991100D03*
X79482201Y-97991100D03*
D34*
X78482200Y-99883400D03*
%TD*%
D11*
%TO.C,J19*%
X130257200Y-132268400D03*
X129007200Y-132268400D03*
X127757200Y-132268400D03*
X126507200Y-132268400D03*
D12*
X132107200Y-135468400D03*
X124657200Y-135468400D03*
%TD*%
D23*
%TO.C,C33*%
X75132200Y-100073400D03*
X75132200Y-99383400D03*
%TD*%
D35*
%TO.C,J14*%
X101026200Y-84828400D03*
X102026200Y-84828400D03*
X103026200Y-84828400D03*
X104026200Y-84828400D03*
X105026200Y-84828400D03*
X106026200Y-84828400D03*
X107026200Y-84828400D03*
X108026200Y-84828400D03*
X109026200Y-84828400D03*
X110026200Y-84828400D03*
X111026200Y-84828400D03*
X112026200Y-84828400D03*
X113026200Y-84828400D03*
X114026200Y-84828400D03*
X115026200Y-84828400D03*
D36*
X98036200Y-82028400D03*
X118016200Y-82028400D03*
%TD*%
D37*
%TO.C,C44*%
X107882200Y-105933400D03*
X109782200Y-105933400D03*
%TD*%
D38*
%TO.C,C30*%
X74607200Y-103463400D03*
X74607200Y-104153400D03*
%TD*%
D11*
%TO.C,J26*%
X109522200Y-132268400D03*
X108272200Y-132268400D03*
X107022200Y-132268400D03*
D12*
X111372200Y-135468400D03*
X105172200Y-135468400D03*
%TD*%
D39*
%TO.C,D7*%
X107807200Y-110733400D03*
X107807200Y-108633400D03*
%TD*%
D40*
%TO.C,FB1*%
X70244700Y-99758400D03*
X71819700Y-99758400D03*
%TD*%
D29*
%TO.C,C29*%
X115702200Y-86678400D03*
X115012200Y-86678400D03*
%TD*%
D32*
%TO.C,FL2*%
X128755300Y-89568401D03*
X128755300Y-90068400D03*
X128755300Y-90568399D03*
X127409100Y-90568399D03*
X127409100Y-90068400D03*
X127409100Y-89568401D03*
%TD*%
D41*
%TO.C,F1*%
X85862200Y-130560900D03*
X85862200Y-132135900D03*
%TD*%
D37*
%TO.C,C43*%
X107857200Y-99608400D03*
X109757200Y-99608400D03*
%TD*%
D35*
%TO.C,J8*%
X75372200Y-84828400D03*
X76372200Y-84828400D03*
X77372200Y-84828400D03*
X78372200Y-84828400D03*
X79372200Y-84828400D03*
X80372200Y-84828400D03*
X81372200Y-84828400D03*
X82372200Y-84828400D03*
X83372200Y-84828400D03*
X84372200Y-84828400D03*
X85372200Y-84828400D03*
X86372200Y-84828400D03*
X87372200Y-84828400D03*
X88372200Y-84828400D03*
X89372200Y-84828400D03*
D36*
X72382200Y-82028400D03*
X92362200Y-82028400D03*
%TD*%
D23*
%TO.C,R20*%
X78482200Y-103903400D03*
X78482200Y-103213400D03*
%TD*%
M02*
