%TF.GenerationSoftware,KiCad,Pcbnew,(6.0.11)*%
%TF.CreationDate,2023-05-04T09:55:51-04:00*%
%TF.ProjectId,echopilot_ai_carrier,6563686f-7069-46c6-9f74-5f61695f6361,rev?*%
%TF.SameCoordinates,Original*%
%TF.FileFunction,Legend,Bot*%
%TF.FilePolarity,Positive*%
%FSLAX46Y46*%
G04 Gerber Fmt 4.6, Leading zero omitted, Abs format (unit mm)*
G04 Created by KiCad (PCBNEW (6.0.11)) date 2023-05-04 09:55:51*
%MOMM*%
%LPD*%
G01*
G04 APERTURE LIST*
%ADD10C,0.152400*%
%ADD11C,0.127000*%
%ADD12C,0.150000*%
%ADD13C,0.120000*%
%ADD14C,0.200000*%
G04 APERTURE END LIST*
D10*
X131976160Y-125139200D02*
X131976160Y-123838720D01*
X124422200Y-125118880D02*
X124422200Y-123818400D01*
X124422200Y-125139200D02*
X131976160Y-125139200D01*
X131320840Y-126272040D02*
X131320840Y-125611640D01*
X131320840Y-125611640D02*
X130736640Y-125972320D01*
X130736640Y-125972320D02*
X131320840Y-126297440D01*
D11*
X85916485Y-87253114D02*
X85916485Y-86491114D01*
X85662485Y-87035400D01*
X85408485Y-86491114D01*
X85408485Y-87253114D01*
X85045628Y-87253114D02*
X85045628Y-86491114D01*
X84682771Y-87253114D02*
X84682771Y-86491114D01*
X84392485Y-86491114D01*
X84319914Y-86527400D01*
X84283628Y-86563685D01*
X84247342Y-86636257D01*
X84247342Y-86745114D01*
X84283628Y-86817685D01*
X84319914Y-86853971D01*
X84392485Y-86890257D01*
X84682771Y-86890257D01*
X83920771Y-87253114D02*
X83920771Y-86491114D01*
X82541914Y-87180542D02*
X82578200Y-87216828D01*
X82687057Y-87253114D01*
X82759628Y-87253114D01*
X82868485Y-87216828D01*
X82941057Y-87144257D01*
X82977342Y-87071685D01*
X83013628Y-86926542D01*
X83013628Y-86817685D01*
X82977342Y-86672542D01*
X82941057Y-86599971D01*
X82868485Y-86527400D01*
X82759628Y-86491114D01*
X82687057Y-86491114D01*
X82578200Y-86527400D01*
X82541914Y-86563685D01*
X82251628Y-87035400D02*
X81888771Y-87035400D01*
X82324200Y-87253114D02*
X82070200Y-86491114D01*
X81816200Y-87253114D01*
X81562200Y-87253114D02*
X81562200Y-86491114D01*
X81308200Y-87035400D01*
X81054200Y-86491114D01*
X81054200Y-87253114D01*
X79711628Y-87253114D02*
X80147057Y-87253114D01*
X79929342Y-87253114D02*
X79929342Y-86491114D01*
X80001914Y-86599971D01*
X80074485Y-86672542D01*
X80147057Y-86708828D01*
X64786628Y-111798114D02*
X64786628Y-112378685D01*
X65270057Y-114711114D02*
X65233771Y-114747400D01*
X65197485Y-114856257D01*
X65197485Y-114928828D01*
X65233771Y-115037685D01*
X65306342Y-115110257D01*
X65378914Y-115146542D01*
X65524057Y-115182828D01*
X65632914Y-115182828D01*
X65778057Y-115146542D01*
X65850628Y-115110257D01*
X65923200Y-115037685D01*
X65959485Y-114928828D01*
X65959485Y-114856257D01*
X65923200Y-114747400D01*
X65886914Y-114711114D01*
X65415200Y-114420828D02*
X65415200Y-114057971D01*
X65197485Y-114493400D02*
X65959485Y-114239400D01*
X65197485Y-113985400D01*
X65197485Y-113731400D02*
X65959485Y-113731400D01*
X65197485Y-113295971D01*
X65959485Y-113295971D01*
X65886914Y-112969400D02*
X65923200Y-112933114D01*
X65959485Y-112860542D01*
X65959485Y-112679114D01*
X65923200Y-112606542D01*
X65886914Y-112570257D01*
X65814342Y-112533971D01*
X65741771Y-112533971D01*
X65632914Y-112570257D01*
X65197485Y-113005685D01*
X65197485Y-112533971D01*
X64807771Y-121518685D02*
X64807771Y-120938114D01*
X64876628Y-127188114D02*
X64876628Y-127768685D01*
X65166914Y-127478400D02*
X64586342Y-127478400D01*
X65959485Y-125979400D02*
X65959485Y-125543971D01*
X65197485Y-125761685D02*
X65959485Y-125761685D01*
X65596628Y-125289971D02*
X65596628Y-125035971D01*
X65197485Y-124927114D02*
X65197485Y-125289971D01*
X65959485Y-125289971D01*
X65959485Y-124927114D01*
X65197485Y-124237685D02*
X65197485Y-124600542D01*
X65959485Y-124600542D01*
X65596628Y-123983685D02*
X65596628Y-123729685D01*
X65197485Y-123620828D02*
X65197485Y-123983685D01*
X65959485Y-123983685D01*
X65959485Y-123620828D01*
X65197485Y-123294257D02*
X65959485Y-123294257D01*
X65415200Y-123040257D01*
X65959485Y-122786257D01*
X65197485Y-122786257D01*
X64786628Y-115498114D02*
X64786628Y-116078685D01*
X65076914Y-115788400D02*
X64496342Y-115788400D01*
X133874914Y-98273971D02*
X134491771Y-98273971D01*
X134564342Y-98310257D01*
X134600628Y-98346542D01*
X134636914Y-98419114D01*
X134636914Y-98564257D01*
X134600628Y-98636828D01*
X134564342Y-98673114D01*
X134491771Y-98709400D01*
X133874914Y-98709400D01*
X134600628Y-99035971D02*
X134636914Y-99144828D01*
X134636914Y-99326257D01*
X134600628Y-99398828D01*
X134564342Y-99435114D01*
X134491771Y-99471400D01*
X134419200Y-99471400D01*
X134346628Y-99435114D01*
X134310342Y-99398828D01*
X134274057Y-99326257D01*
X134237771Y-99181114D01*
X134201485Y-99108542D01*
X134165200Y-99072257D01*
X134092628Y-99035971D01*
X134020057Y-99035971D01*
X133947485Y-99072257D01*
X133911200Y-99108542D01*
X133874914Y-99181114D01*
X133874914Y-99362542D01*
X133911200Y-99471400D01*
X134237771Y-100051971D02*
X134274057Y-100160828D01*
X134310342Y-100197114D01*
X134382914Y-100233400D01*
X134491771Y-100233400D01*
X134564342Y-100197114D01*
X134600628Y-100160828D01*
X134636914Y-100088257D01*
X134636914Y-99797971D01*
X133874914Y-99797971D01*
X133874914Y-100051971D01*
X133911200Y-100124542D01*
X133947485Y-100160828D01*
X134020057Y-100197114D01*
X134092628Y-100197114D01*
X134165200Y-100160828D01*
X134201485Y-100124542D01*
X134237771Y-100051971D01*
X134237771Y-99797971D01*
X134636914Y-100959114D02*
X134636914Y-100523685D01*
X134636914Y-100741400D02*
X133874914Y-100741400D01*
X133983771Y-100668828D01*
X134056342Y-100596257D01*
X134092628Y-100523685D01*
X133874914Y-107143971D02*
X134491771Y-107143971D01*
X134564342Y-107180257D01*
X134600628Y-107216542D01*
X134636914Y-107289114D01*
X134636914Y-107434257D01*
X134600628Y-107506828D01*
X134564342Y-107543114D01*
X134491771Y-107579400D01*
X133874914Y-107579400D01*
X134600628Y-107905971D02*
X134636914Y-108014828D01*
X134636914Y-108196257D01*
X134600628Y-108268828D01*
X134564342Y-108305114D01*
X134491771Y-108341400D01*
X134419200Y-108341400D01*
X134346628Y-108305114D01*
X134310342Y-108268828D01*
X134274057Y-108196257D01*
X134237771Y-108051114D01*
X134201485Y-107978542D01*
X134165200Y-107942257D01*
X134092628Y-107905971D01*
X134020057Y-107905971D01*
X133947485Y-107942257D01*
X133911200Y-107978542D01*
X133874914Y-108051114D01*
X133874914Y-108232542D01*
X133911200Y-108341400D01*
X134237771Y-108921971D02*
X134274057Y-109030828D01*
X134310342Y-109067114D01*
X134382914Y-109103400D01*
X134491771Y-109103400D01*
X134564342Y-109067114D01*
X134600628Y-109030828D01*
X134636914Y-108958257D01*
X134636914Y-108667971D01*
X133874914Y-108667971D01*
X133874914Y-108921971D01*
X133911200Y-108994542D01*
X133947485Y-109030828D01*
X134020057Y-109067114D01*
X134092628Y-109067114D01*
X134165200Y-109030828D01*
X134201485Y-108994542D01*
X134237771Y-108921971D01*
X134237771Y-108667971D01*
X133947485Y-109393685D02*
X133911200Y-109429971D01*
X133874914Y-109502542D01*
X133874914Y-109683971D01*
X133911200Y-109756542D01*
X133947485Y-109792828D01*
X134020057Y-109829114D01*
X134092628Y-109829114D01*
X134201485Y-109792828D01*
X134636914Y-109357400D01*
X134636914Y-109829114D01*
X133874914Y-115783971D02*
X134491771Y-115783971D01*
X134564342Y-115820257D01*
X134600628Y-115856542D01*
X134636914Y-115929114D01*
X134636914Y-116074257D01*
X134600628Y-116146828D01*
X134564342Y-116183114D01*
X134491771Y-116219400D01*
X133874914Y-116219400D01*
X134600628Y-116545971D02*
X134636914Y-116654828D01*
X134636914Y-116836257D01*
X134600628Y-116908828D01*
X134564342Y-116945114D01*
X134491771Y-116981400D01*
X134419200Y-116981400D01*
X134346628Y-116945114D01*
X134310342Y-116908828D01*
X134274057Y-116836257D01*
X134237771Y-116691114D01*
X134201485Y-116618542D01*
X134165200Y-116582257D01*
X134092628Y-116545971D01*
X134020057Y-116545971D01*
X133947485Y-116582257D01*
X133911200Y-116618542D01*
X133874914Y-116691114D01*
X133874914Y-116872542D01*
X133911200Y-116981400D01*
X134237771Y-117561971D02*
X134274057Y-117670828D01*
X134310342Y-117707114D01*
X134382914Y-117743400D01*
X134491771Y-117743400D01*
X134564342Y-117707114D01*
X134600628Y-117670828D01*
X134636914Y-117598257D01*
X134636914Y-117307971D01*
X133874914Y-117307971D01*
X133874914Y-117561971D01*
X133911200Y-117634542D01*
X133947485Y-117670828D01*
X134020057Y-117707114D01*
X134092628Y-117707114D01*
X134165200Y-117670828D01*
X134201485Y-117634542D01*
X134237771Y-117561971D01*
X134237771Y-117307971D01*
X133874914Y-117997400D02*
X133874914Y-118469114D01*
X134165200Y-118215114D01*
X134165200Y-118323971D01*
X134201485Y-118396542D01*
X134237771Y-118432828D01*
X134310342Y-118469114D01*
X134491771Y-118469114D01*
X134564342Y-118432828D01*
X134600628Y-118396542D01*
X134636914Y-118323971D01*
X134636914Y-118106257D01*
X134600628Y-118033685D01*
X134564342Y-117997400D01*
X133874914Y-124933971D02*
X134491771Y-124933971D01*
X134564342Y-124970257D01*
X134600628Y-125006542D01*
X134636914Y-125079114D01*
X134636914Y-125224257D01*
X134600628Y-125296828D01*
X134564342Y-125333114D01*
X134491771Y-125369400D01*
X133874914Y-125369400D01*
X134600628Y-125695971D02*
X134636914Y-125804828D01*
X134636914Y-125986257D01*
X134600628Y-126058828D01*
X134564342Y-126095114D01*
X134491771Y-126131400D01*
X134419200Y-126131400D01*
X134346628Y-126095114D01*
X134310342Y-126058828D01*
X134274057Y-125986257D01*
X134237771Y-125841114D01*
X134201485Y-125768542D01*
X134165200Y-125732257D01*
X134092628Y-125695971D01*
X134020057Y-125695971D01*
X133947485Y-125732257D01*
X133911200Y-125768542D01*
X133874914Y-125841114D01*
X133874914Y-126022542D01*
X133911200Y-126131400D01*
X134237771Y-126711971D02*
X134274057Y-126820828D01*
X134310342Y-126857114D01*
X134382914Y-126893400D01*
X134491771Y-126893400D01*
X134564342Y-126857114D01*
X134600628Y-126820828D01*
X134636914Y-126748257D01*
X134636914Y-126457971D01*
X133874914Y-126457971D01*
X133874914Y-126711971D01*
X133911200Y-126784542D01*
X133947485Y-126820828D01*
X134020057Y-126857114D01*
X134092628Y-126857114D01*
X134165200Y-126820828D01*
X134201485Y-126784542D01*
X134237771Y-126711971D01*
X134237771Y-126457971D01*
X134128914Y-127546542D02*
X134636914Y-127546542D01*
X133838628Y-127365114D02*
X134382914Y-127183685D01*
X134382914Y-127655400D01*
X127870794Y-125504960D02*
X127108794Y-125504960D01*
X127108794Y-125686388D01*
X127145080Y-125795246D01*
X127217651Y-125867817D01*
X127290222Y-125904103D01*
X127435365Y-125940388D01*
X127544222Y-125940388D01*
X127689365Y-125904103D01*
X127761937Y-125867817D01*
X127834508Y-125795246D01*
X127870794Y-125686388D01*
X127870794Y-125504960D01*
X127580508Y-126266960D02*
X127580508Y-126847531D01*
X127870794Y-126557246D02*
X127290222Y-126557246D01*
X125936040Y-125904102D02*
X125899754Y-125831531D01*
X125899754Y-125722674D01*
X125936040Y-125613816D01*
X126008611Y-125541245D01*
X126081182Y-125504959D01*
X126226325Y-125468674D01*
X126335182Y-125468674D01*
X126480325Y-125504959D01*
X126552897Y-125541245D01*
X126625468Y-125613816D01*
X126661754Y-125722674D01*
X126661754Y-125795245D01*
X126625468Y-125904102D01*
X126589182Y-125940388D01*
X126335182Y-125940388D01*
X126335182Y-125795245D01*
X126661754Y-126266959D02*
X125899754Y-126266959D01*
X126661754Y-126702388D01*
X125899754Y-126702388D01*
X126661754Y-127065245D02*
X125899754Y-127065245D01*
X125899754Y-127246674D01*
X125936040Y-127355531D01*
X126008611Y-127428102D01*
X126081182Y-127464388D01*
X126226325Y-127500674D01*
X126335182Y-127500674D01*
X126480325Y-127464388D01*
X126552897Y-127428102D01*
X126625468Y-127355531D01*
X126661754Y-127246674D01*
X126661754Y-127065245D01*
X131518960Y-124158034D02*
X131518960Y-124774891D01*
X131482674Y-124847462D01*
X131446388Y-124883748D01*
X131373817Y-124920034D01*
X131228674Y-124920034D01*
X131156102Y-124883748D01*
X131119817Y-124847462D01*
X131083531Y-124774891D01*
X131083531Y-124158034D01*
X130756960Y-124883748D02*
X130648102Y-124920034D01*
X130466674Y-124920034D01*
X130394102Y-124883748D01*
X130357817Y-124847462D01*
X130321531Y-124774891D01*
X130321531Y-124702320D01*
X130357817Y-124629748D01*
X130394102Y-124593462D01*
X130466674Y-124557177D01*
X130611817Y-124520891D01*
X130684388Y-124484605D01*
X130720674Y-124448320D01*
X130756960Y-124375748D01*
X130756960Y-124303177D01*
X130720674Y-124230605D01*
X130684388Y-124194320D01*
X130611817Y-124158034D01*
X130430388Y-124158034D01*
X130321531Y-124194320D01*
X129740960Y-124520891D02*
X129632102Y-124557177D01*
X129595817Y-124593462D01*
X129559531Y-124666034D01*
X129559531Y-124774891D01*
X129595817Y-124847462D01*
X129632102Y-124883748D01*
X129704674Y-124920034D01*
X129994960Y-124920034D01*
X129994960Y-124158034D01*
X129740960Y-124158034D01*
X129668388Y-124194320D01*
X129632102Y-124230605D01*
X129595817Y-124303177D01*
X129595817Y-124375748D01*
X129632102Y-124448320D01*
X129668388Y-124484605D01*
X129740960Y-124520891D01*
X129994960Y-124520891D01*
X128652388Y-124920034D02*
X128652388Y-124158034D01*
X128362102Y-124158034D01*
X128289531Y-124194320D01*
X128253245Y-124230605D01*
X128216960Y-124303177D01*
X128216960Y-124412034D01*
X128253245Y-124484605D01*
X128289531Y-124520891D01*
X128362102Y-124557177D01*
X128652388Y-124557177D01*
X127890388Y-124920034D02*
X127890388Y-124158034D01*
X127527531Y-124920034D02*
X127527531Y-124158034D01*
X127092102Y-124920034D01*
X127092102Y-124158034D01*
X126584102Y-124158034D02*
X126438960Y-124158034D01*
X126366388Y-124194320D01*
X126293817Y-124266891D01*
X126257531Y-124412034D01*
X126257531Y-124666034D01*
X126293817Y-124811177D01*
X126366388Y-124883748D01*
X126438960Y-124920034D01*
X126584102Y-124920034D01*
X126656674Y-124883748D01*
X126729245Y-124811177D01*
X126765531Y-124666034D01*
X126765531Y-124412034D01*
X126729245Y-124266891D01*
X126656674Y-124194320D01*
X126584102Y-124158034D01*
X125930960Y-124158034D02*
X125930960Y-124774891D01*
X125894674Y-124847462D01*
X125858388Y-124883748D01*
X125785817Y-124920034D01*
X125640674Y-124920034D01*
X125568102Y-124883748D01*
X125531817Y-124847462D01*
X125495531Y-124774891D01*
X125495531Y-124158034D01*
X125241531Y-124158034D02*
X124806102Y-124158034D01*
X125023817Y-124920034D02*
X125023817Y-124158034D01*
X129161114Y-125504960D02*
X128399114Y-125504960D01*
X128399114Y-125686388D01*
X128435400Y-125795246D01*
X128507971Y-125867817D01*
X128580542Y-125904103D01*
X128725685Y-125940388D01*
X128834542Y-125940388D01*
X128979685Y-125904103D01*
X129052257Y-125867817D01*
X129124828Y-125795246D01*
X129161114Y-125686388D01*
X129161114Y-125504960D01*
X128870828Y-126266960D02*
X128870828Y-126847531D01*
X129608154Y-125867817D02*
X129608154Y-125504960D01*
X129971011Y-125468674D01*
X129934725Y-125504960D01*
X129898440Y-125577531D01*
X129898440Y-125758960D01*
X129934725Y-125831531D01*
X129971011Y-125867817D01*
X130043582Y-125904102D01*
X130225011Y-125904102D01*
X130297582Y-125867817D01*
X130333868Y-125831531D01*
X130370154Y-125758960D01*
X130370154Y-125577531D01*
X130333868Y-125504960D01*
X130297582Y-125468674D01*
X129608154Y-126121817D02*
X130370154Y-126375817D01*
X129608154Y-126629817D01*
X107262485Y-130932828D02*
X106681914Y-130932828D01*
X99996342Y-131180542D02*
X100032628Y-131216828D01*
X100141485Y-131253114D01*
X100214057Y-131253114D01*
X100322914Y-131216828D01*
X100395485Y-131144257D01*
X100431771Y-131071685D01*
X100468057Y-130926542D01*
X100468057Y-130817685D01*
X100431771Y-130672542D01*
X100395485Y-130599971D01*
X100322914Y-130527400D01*
X100214057Y-130491114D01*
X100141485Y-130491114D01*
X100032628Y-130527400D01*
X99996342Y-130563685D01*
X110989914Y-130243114D02*
X111243914Y-129880257D01*
X111425342Y-130243114D02*
X111425342Y-129481114D01*
X111135057Y-129481114D01*
X111062485Y-129517400D01*
X111026200Y-129553685D01*
X110989914Y-129626257D01*
X110989914Y-129735114D01*
X111026200Y-129807685D01*
X111062485Y-129843971D01*
X111135057Y-129880257D01*
X111425342Y-129880257D01*
X110699628Y-130206828D02*
X110590771Y-130243114D01*
X110409342Y-130243114D01*
X110336771Y-130206828D01*
X110300485Y-130170542D01*
X110264200Y-130097971D01*
X110264200Y-130025400D01*
X110300485Y-129952828D01*
X110336771Y-129916542D01*
X110409342Y-129880257D01*
X110554485Y-129843971D01*
X110627057Y-129807685D01*
X110663342Y-129771400D01*
X110699628Y-129698828D01*
X110699628Y-129626257D01*
X110663342Y-129553685D01*
X110627057Y-129517400D01*
X110554485Y-129481114D01*
X110373057Y-129481114D01*
X110264200Y-129517400D01*
X109973914Y-130206828D02*
X109865057Y-130243114D01*
X109683628Y-130243114D01*
X109611057Y-130206828D01*
X109574771Y-130170542D01*
X109538485Y-130097971D01*
X109538485Y-130025400D01*
X109574771Y-129952828D01*
X109611057Y-129916542D01*
X109683628Y-129880257D01*
X109828771Y-129843971D01*
X109901342Y-129807685D01*
X109937628Y-129771400D01*
X109973914Y-129698828D01*
X109973914Y-129626257D01*
X109937628Y-129553685D01*
X109901342Y-129517400D01*
X109828771Y-129481114D01*
X109647342Y-129481114D01*
X109538485Y-129517400D01*
X109211914Y-130243114D02*
X109211914Y-129481114D01*
X108304771Y-129444828D02*
X108957914Y-130424542D01*
X108087057Y-130206828D02*
X107978200Y-130243114D01*
X107796771Y-130243114D01*
X107724200Y-130206828D01*
X107687914Y-130170542D01*
X107651628Y-130097971D01*
X107651628Y-130025400D01*
X107687914Y-129952828D01*
X107724200Y-129916542D01*
X107796771Y-129880257D01*
X107941914Y-129843971D01*
X108014485Y-129807685D01*
X108050771Y-129771400D01*
X108087057Y-129698828D01*
X108087057Y-129626257D01*
X108050771Y-129553685D01*
X108014485Y-129517400D01*
X107941914Y-129481114D01*
X107760485Y-129481114D01*
X107651628Y-129517400D01*
X107325057Y-130170542D02*
X107288771Y-130206828D01*
X107325057Y-130243114D01*
X107361342Y-130206828D01*
X107325057Y-130170542D01*
X107325057Y-130243114D01*
X106708200Y-129843971D02*
X106599342Y-129880257D01*
X106563057Y-129916542D01*
X106526771Y-129989114D01*
X106526771Y-130097971D01*
X106563057Y-130170542D01*
X106599342Y-130206828D01*
X106671914Y-130243114D01*
X106962200Y-130243114D01*
X106962200Y-129481114D01*
X106708200Y-129481114D01*
X106635628Y-129517400D01*
X106599342Y-129553685D01*
X106563057Y-129626257D01*
X106563057Y-129698828D01*
X106599342Y-129771400D01*
X106635628Y-129807685D01*
X106708200Y-129843971D01*
X106962200Y-129843971D01*
X106200200Y-129481114D02*
X106200200Y-130097971D01*
X106163914Y-130170542D01*
X106127628Y-130206828D01*
X106055057Y-130243114D01*
X105909914Y-130243114D01*
X105837342Y-130206828D01*
X105801057Y-130170542D01*
X105764771Y-130097971D01*
X105764771Y-129481114D01*
X105438200Y-130206828D02*
X105329342Y-130243114D01*
X105147914Y-130243114D01*
X105075342Y-130206828D01*
X105039057Y-130170542D01*
X105002771Y-130097971D01*
X105002771Y-130025400D01*
X105039057Y-129952828D01*
X105075342Y-129916542D01*
X105147914Y-129880257D01*
X105293057Y-129843971D01*
X105365628Y-129807685D01*
X105401914Y-129771400D01*
X105438200Y-129698828D01*
X105438200Y-129626257D01*
X105401914Y-129553685D01*
X105365628Y-129517400D01*
X105293057Y-129481114D01*
X105111628Y-129481114D01*
X105002771Y-129517400D01*
X116360000Y-131314714D02*
X116360000Y-130552714D01*
X101446628Y-130678114D02*
X101446628Y-131258685D01*
X101736914Y-130968400D02*
X101156342Y-130968400D01*
X115372485Y-131002828D02*
X114791914Y-131002828D01*
X133778485Y-82787704D02*
X133524485Y-83549704D01*
X133270485Y-82787704D01*
X133016485Y-83549704D02*
X133016485Y-82787704D01*
X132581057Y-83549704D01*
X132581057Y-82787704D01*
X132254485Y-83331990D02*
X131891628Y-83331990D01*
X132327057Y-83549704D02*
X132073057Y-82787704D01*
X131819057Y-83549704D01*
X131673914Y-82787704D02*
X131419914Y-83549704D01*
X131165914Y-82787704D01*
X134105057Y-84740238D02*
X133996200Y-84776524D01*
X133814771Y-84776524D01*
X133742200Y-84740238D01*
X133705914Y-84703952D01*
X133669628Y-84631381D01*
X133669628Y-84558810D01*
X133705914Y-84486238D01*
X133742200Y-84449952D01*
X133814771Y-84413667D01*
X133959914Y-84377381D01*
X134032485Y-84341095D01*
X134068771Y-84304810D01*
X134105057Y-84232238D01*
X134105057Y-84159667D01*
X134068771Y-84087095D01*
X134032485Y-84050810D01*
X133959914Y-84014524D01*
X133778485Y-84014524D01*
X133669628Y-84050810D01*
X133343057Y-84377381D02*
X133089057Y-84377381D01*
X132980200Y-84776524D02*
X133343057Y-84776524D01*
X133343057Y-84014524D01*
X132980200Y-84014524D01*
X132762485Y-84014524D02*
X132327057Y-84014524D01*
X132544771Y-84776524D02*
X132544771Y-84014524D01*
X132073057Y-84014524D02*
X132073057Y-84631381D01*
X132036771Y-84703952D01*
X132000485Y-84740238D01*
X131927914Y-84776524D01*
X131782771Y-84776524D01*
X131710200Y-84740238D01*
X131673914Y-84703952D01*
X131637628Y-84631381D01*
X131637628Y-84014524D01*
X131274771Y-84776524D02*
X131274771Y-84014524D01*
X130984485Y-84014524D01*
X130911914Y-84050810D01*
X130875628Y-84087095D01*
X130839342Y-84159667D01*
X130839342Y-84268524D01*
X130875628Y-84341095D01*
X130911914Y-84377381D01*
X130984485Y-84413667D01*
X131274771Y-84413667D01*
X67639485Y-96397704D02*
X67639485Y-96941990D01*
X67675771Y-97050847D01*
X67748342Y-97123418D01*
X67857200Y-97159704D01*
X67929771Y-97159704D01*
X67276628Y-96760561D02*
X67022628Y-96760561D01*
X66913771Y-97159704D02*
X67276628Y-97159704D01*
X67276628Y-96397704D01*
X66913771Y-96397704D01*
X66696057Y-96397704D02*
X66260628Y-96397704D01*
X66478342Y-97159704D02*
X66478342Y-96397704D01*
X66042914Y-97123418D02*
X65934057Y-97159704D01*
X65752628Y-97159704D01*
X65680057Y-97123418D01*
X65643771Y-97087132D01*
X65607485Y-97014561D01*
X65607485Y-96941990D01*
X65643771Y-96869418D01*
X65680057Y-96833132D01*
X65752628Y-96796847D01*
X65897771Y-96760561D01*
X65970342Y-96724275D01*
X66006628Y-96687990D01*
X66042914Y-96615418D01*
X66042914Y-96542847D01*
X66006628Y-96470275D01*
X65970342Y-96433990D01*
X65897771Y-96397704D01*
X65716342Y-96397704D01*
X65607485Y-96433990D01*
X65135771Y-96397704D02*
X64990628Y-96397704D01*
X64918057Y-96433990D01*
X64845485Y-96506561D01*
X64809200Y-96651704D01*
X64809200Y-96905704D01*
X64845485Y-97050847D01*
X64918057Y-97123418D01*
X64990628Y-97159704D01*
X65135771Y-97159704D01*
X65208342Y-97123418D01*
X65280914Y-97050847D01*
X65317200Y-96905704D01*
X65317200Y-96651704D01*
X65280914Y-96506561D01*
X65208342Y-96433990D01*
X65135771Y-96397704D01*
X64482628Y-97159704D02*
X64482628Y-96397704D01*
X64047200Y-97159704D01*
X64047200Y-96397704D01*
X67929771Y-98313952D02*
X67966057Y-98350238D01*
X68074914Y-98386524D01*
X68147485Y-98386524D01*
X68256342Y-98350238D01*
X68328914Y-98277667D01*
X68365200Y-98205095D01*
X68401485Y-98059952D01*
X68401485Y-97951095D01*
X68365200Y-97805952D01*
X68328914Y-97733381D01*
X68256342Y-97660810D01*
X68147485Y-97624524D01*
X68074914Y-97624524D01*
X67966057Y-97660810D01*
X67929771Y-97697095D01*
X67458057Y-97624524D02*
X67312914Y-97624524D01*
X67240342Y-97660810D01*
X67167771Y-97733381D01*
X67131485Y-97878524D01*
X67131485Y-98132524D01*
X67167771Y-98277667D01*
X67240342Y-98350238D01*
X67312914Y-98386524D01*
X67458057Y-98386524D01*
X67530628Y-98350238D01*
X67603200Y-98277667D01*
X67639485Y-98132524D01*
X67639485Y-97878524D01*
X67603200Y-97733381D01*
X67530628Y-97660810D01*
X67458057Y-97624524D01*
X66804914Y-98386524D02*
X66804914Y-97624524D01*
X66369485Y-98386524D01*
X66369485Y-97624524D01*
X66042914Y-98350238D02*
X65934057Y-98386524D01*
X65752628Y-98386524D01*
X65680057Y-98350238D01*
X65643771Y-98313952D01*
X65607485Y-98241381D01*
X65607485Y-98168810D01*
X65643771Y-98096238D01*
X65680057Y-98059952D01*
X65752628Y-98023667D01*
X65897771Y-97987381D01*
X65970342Y-97951095D01*
X66006628Y-97914810D01*
X66042914Y-97842238D01*
X66042914Y-97769667D01*
X66006628Y-97697095D01*
X65970342Y-97660810D01*
X65897771Y-97624524D01*
X65716342Y-97624524D01*
X65607485Y-97660810D01*
X65135771Y-97624524D02*
X64990628Y-97624524D01*
X64918057Y-97660810D01*
X64845485Y-97733381D01*
X64809200Y-97878524D01*
X64809200Y-98132524D01*
X64845485Y-98277667D01*
X64918057Y-98350238D01*
X64990628Y-98386524D01*
X65135771Y-98386524D01*
X65208342Y-98350238D01*
X65280914Y-98277667D01*
X65317200Y-98132524D01*
X65317200Y-97878524D01*
X65280914Y-97733381D01*
X65208342Y-97660810D01*
X65135771Y-97624524D01*
X64119771Y-98386524D02*
X64482628Y-98386524D01*
X64482628Y-97624524D01*
X63865771Y-97987381D02*
X63611771Y-97987381D01*
X63502914Y-98386524D02*
X63865771Y-98386524D01*
X63865771Y-97624524D01*
X63502914Y-97624524D01*
X75111914Y-86443971D02*
X75692485Y-86443971D01*
X130266628Y-130678114D02*
X130266628Y-131258685D01*
X130556914Y-130968400D02*
X129976342Y-130968400D01*
X102166628Y-129843971D02*
X102420628Y-129843971D01*
X102420628Y-130243114D02*
X102420628Y-129481114D01*
X102057771Y-129481114D01*
X101767485Y-130243114D02*
X101767485Y-129481114D01*
X101513485Y-130025400D01*
X101259485Y-129481114D01*
X101259485Y-130243114D01*
X100896628Y-129481114D02*
X100896628Y-130097971D01*
X100860342Y-130170542D01*
X100824057Y-130206828D01*
X100751485Y-130243114D01*
X100606342Y-130243114D01*
X100533771Y-130206828D01*
X100497485Y-130170542D01*
X100461200Y-130097971D01*
X100461200Y-129481114D01*
X99517771Y-130243114D02*
X99517771Y-129481114D01*
X99191200Y-129553685D02*
X99154914Y-129517400D01*
X99082342Y-129481114D01*
X98900914Y-129481114D01*
X98828342Y-129517400D01*
X98792057Y-129553685D01*
X98755771Y-129626257D01*
X98755771Y-129698828D01*
X98792057Y-129807685D01*
X99227485Y-130243114D01*
X98755771Y-130243114D01*
X97993771Y-130170542D02*
X98030057Y-130206828D01*
X98138914Y-130243114D01*
X98211485Y-130243114D01*
X98320342Y-130206828D01*
X98392914Y-130134257D01*
X98429200Y-130061685D01*
X98465485Y-129916542D01*
X98465485Y-129807685D01*
X98429200Y-129662542D01*
X98392914Y-129589971D01*
X98320342Y-129517400D01*
X98211485Y-129481114D01*
X98138914Y-129481114D01*
X98030057Y-129517400D01*
X97993771Y-129553685D01*
X97848628Y-130315685D02*
X97268057Y-130315685D01*
X97122914Y-129553685D02*
X97086628Y-129517400D01*
X97014057Y-129481114D01*
X96832628Y-129481114D01*
X96760057Y-129517400D01*
X96723771Y-129553685D01*
X96687485Y-129626257D01*
X96687485Y-129698828D01*
X96723771Y-129807685D01*
X97159200Y-130243114D01*
X96687485Y-130243114D01*
X100741914Y-86373971D02*
X101322485Y-86373971D01*
X129234914Y-130170542D02*
X129271200Y-130206828D01*
X129380057Y-130243114D01*
X129452628Y-130243114D01*
X129561485Y-130206828D01*
X129634057Y-130134257D01*
X129670342Y-130061685D01*
X129706628Y-129916542D01*
X129706628Y-129807685D01*
X129670342Y-129662542D01*
X129634057Y-129589971D01*
X129561485Y-129517400D01*
X129452628Y-129481114D01*
X129380057Y-129481114D01*
X129271200Y-129517400D01*
X129234914Y-129553685D01*
X128944628Y-130025400D02*
X128581771Y-130025400D01*
X129017200Y-130243114D02*
X128763200Y-129481114D01*
X128509200Y-130243114D01*
X128255200Y-130243114D02*
X128255200Y-129481114D01*
X127819771Y-130243114D01*
X127819771Y-129481114D01*
X127057771Y-130243114D02*
X127493200Y-130243114D01*
X127275485Y-130243114D02*
X127275485Y-129481114D01*
X127348057Y-129589971D01*
X127420628Y-129662542D01*
X127493200Y-129698828D01*
X111946485Y-87253114D02*
X111946485Y-86491114D01*
X111692485Y-87035400D01*
X111438485Y-86491114D01*
X111438485Y-87253114D01*
X111075628Y-87253114D02*
X111075628Y-86491114D01*
X110712771Y-87253114D02*
X110712771Y-86491114D01*
X110422485Y-86491114D01*
X110349914Y-86527400D01*
X110313628Y-86563685D01*
X110277342Y-86636257D01*
X110277342Y-86745114D01*
X110313628Y-86817685D01*
X110349914Y-86853971D01*
X110422485Y-86890257D01*
X110712771Y-86890257D01*
X109950771Y-87253114D02*
X109950771Y-86491114D01*
X108571914Y-87180542D02*
X108608200Y-87216828D01*
X108717057Y-87253114D01*
X108789628Y-87253114D01*
X108898485Y-87216828D01*
X108971057Y-87144257D01*
X109007342Y-87071685D01*
X109043628Y-86926542D01*
X109043628Y-86817685D01*
X109007342Y-86672542D01*
X108971057Y-86599971D01*
X108898485Y-86527400D01*
X108789628Y-86491114D01*
X108717057Y-86491114D01*
X108608200Y-86527400D01*
X108571914Y-86563685D01*
X108281628Y-87035400D02*
X107918771Y-87035400D01*
X108354200Y-87253114D02*
X108100200Y-86491114D01*
X107846200Y-87253114D01*
X107592200Y-87253114D02*
X107592200Y-86491114D01*
X107338200Y-87035400D01*
X107084200Y-86491114D01*
X107084200Y-87253114D01*
X106177057Y-86563685D02*
X106140771Y-86527400D01*
X106068200Y-86491114D01*
X105886771Y-86491114D01*
X105814200Y-86527400D01*
X105777914Y-86563685D01*
X105741628Y-86636257D01*
X105741628Y-86708828D01*
X105777914Y-86817685D01*
X106213342Y-87253114D01*
X105741628Y-87253114D01*
X117834000Y-130542714D02*
X117580000Y-131304714D01*
X117326000Y-130542714D01*
X126782485Y-131022828D02*
X126201914Y-131022828D01*
X115751914Y-85573971D02*
X116332485Y-85573971D01*
X116042200Y-85283685D02*
X116042200Y-85864257D01*
X99101771Y-131243114D02*
X99101771Y-130481114D01*
X98920342Y-130481114D01*
X98811485Y-130517400D01*
X98738914Y-130589971D01*
X98702628Y-130662542D01*
X98666342Y-130807685D01*
X98666342Y-130916542D01*
X98702628Y-131061685D01*
X98738914Y-131134257D01*
X98811485Y-131206828D01*
X98920342Y-131243114D01*
X99101771Y-131243114D01*
X97972485Y-130972828D02*
X97391914Y-130972828D01*
X109749914Y-131196828D02*
X109641057Y-131233114D01*
X109459628Y-131233114D01*
X109387057Y-131196828D01*
X109350771Y-131160542D01*
X109314485Y-131087971D01*
X109314485Y-131015400D01*
X109350771Y-130942828D01*
X109387057Y-130906542D01*
X109459628Y-130870257D01*
X109604771Y-130833971D01*
X109677342Y-130797685D01*
X109713628Y-130761400D01*
X109749914Y-130688828D01*
X109749914Y-130616257D01*
X109713628Y-130543685D01*
X109677342Y-130507400D01*
X109604771Y-130471114D01*
X109423342Y-130471114D01*
X109314485Y-130507400D01*
D10*
X67812200Y-80090566D02*
X68108533Y-79667233D01*
X68320200Y-80090566D02*
X68320200Y-79201566D01*
X67981533Y-79201566D01*
X67896866Y-79243900D01*
X67854533Y-79286233D01*
X67812200Y-79370900D01*
X67812200Y-79497900D01*
X67854533Y-79582566D01*
X67896866Y-79624900D01*
X67981533Y-79667233D01*
X68320200Y-79667233D01*
X67431200Y-79624900D02*
X67134866Y-79624900D01*
X67007866Y-80090566D02*
X67431200Y-80090566D01*
X67431200Y-79201566D01*
X67007866Y-79201566D01*
X66753866Y-79201566D02*
X66457533Y-80090566D01*
X66161200Y-79201566D01*
X65018200Y-79201566D02*
X64933533Y-79201566D01*
X64848866Y-79243900D01*
X64806533Y-79286233D01*
X64764200Y-79370900D01*
X64721866Y-79540233D01*
X64721866Y-79751900D01*
X64764200Y-79921233D01*
X64806533Y-80005900D01*
X64848866Y-80048233D01*
X64933533Y-80090566D01*
X65018200Y-80090566D01*
X65102866Y-80048233D01*
X65145200Y-80005900D01*
X65187533Y-79921233D01*
X65229866Y-79751900D01*
X65229866Y-79540233D01*
X65187533Y-79370900D01*
X65145200Y-79286233D01*
X65102866Y-79243900D01*
X65018200Y-79201566D01*
D11*
X119171342Y-129481114D02*
X118917342Y-130243114D01*
X118663342Y-129481114D01*
X117865057Y-129444828D02*
X118518200Y-130424542D01*
X117611057Y-130243114D02*
X117611057Y-129481114D01*
X116703914Y-130206828D02*
X116595057Y-130243114D01*
X116413628Y-130243114D01*
X116341057Y-130206828D01*
X116304771Y-130170542D01*
X116268485Y-130097971D01*
X116268485Y-130025400D01*
X116304771Y-129952828D01*
X116341057Y-129916542D01*
X116413628Y-129880257D01*
X116558771Y-129843971D01*
X116631342Y-129807685D01*
X116667628Y-129771400D01*
X116703914Y-129698828D01*
X116703914Y-129626257D01*
X116667628Y-129553685D01*
X116631342Y-129517400D01*
X116558771Y-129481114D01*
X116377342Y-129481114D01*
X116268485Y-129517400D01*
X115941914Y-129843971D02*
X115687914Y-129843971D01*
X115579057Y-130243114D02*
X115941914Y-130243114D01*
X115941914Y-129481114D01*
X115579057Y-129481114D01*
X115252485Y-130243114D02*
X115252485Y-129481114D01*
X114817057Y-130243114D01*
X114817057Y-129481114D01*
X114490485Y-130206828D02*
X114381628Y-130243114D01*
X114200200Y-130243114D01*
X114127628Y-130206828D01*
X114091342Y-130170542D01*
X114055057Y-130097971D01*
X114055057Y-130025400D01*
X114091342Y-129952828D01*
X114127628Y-129916542D01*
X114200200Y-129880257D01*
X114345342Y-129843971D01*
X114417914Y-129807685D01*
X114454200Y-129771400D01*
X114490485Y-129698828D01*
X114490485Y-129626257D01*
X114454200Y-129553685D01*
X114417914Y-129517400D01*
X114345342Y-129481114D01*
X114163914Y-129481114D01*
X114055057Y-129517400D01*
X113728485Y-129843971D02*
X113474485Y-129843971D01*
X113365628Y-130243114D02*
X113728485Y-130243114D01*
X113728485Y-129481114D01*
X113365628Y-129481114D01*
X108296628Y-130638114D02*
X108296628Y-131218685D01*
X108586914Y-130928400D02*
X108006342Y-130928400D01*
X90171914Y-85713971D02*
X90752485Y-85713971D01*
X90462200Y-85423685D02*
X90462200Y-86004257D01*
%TO.C,J13*%
X121436247Y-132840661D02*
X121436247Y-133294233D01*
X121466485Y-133384947D01*
X121526961Y-133445423D01*
X121617676Y-133475661D01*
X121678152Y-133475661D01*
X120801247Y-133475661D02*
X121164104Y-133475661D01*
X120982676Y-133475661D02*
X120982676Y-132840661D01*
X121043152Y-132931376D01*
X121103628Y-132991852D01*
X121164104Y-133022090D01*
X120589580Y-132840661D02*
X120196485Y-132840661D01*
X120408152Y-133082566D01*
X120317438Y-133082566D01*
X120256961Y-133112804D01*
X120226723Y-133143042D01*
X120196485Y-133203519D01*
X120196485Y-133354709D01*
X120226723Y-133415185D01*
X120256961Y-133445423D01*
X120317438Y-133475661D01*
X120498866Y-133475661D01*
X120559342Y-133445423D01*
X120589580Y-133415185D01*
%TO.C,J18*%
X63574461Y-128564352D02*
X64028033Y-128564352D01*
X64118747Y-128534114D01*
X64179223Y-128473638D01*
X64209461Y-128382923D01*
X64209461Y-128322447D01*
X64209461Y-129199352D02*
X64209461Y-128836495D01*
X64209461Y-129017923D02*
X63574461Y-129017923D01*
X63665176Y-128957447D01*
X63725652Y-128896971D01*
X63755890Y-128836495D01*
X63846604Y-129562209D02*
X63816366Y-129501733D01*
X63786128Y-129471495D01*
X63725652Y-129441257D01*
X63695414Y-129441257D01*
X63634938Y-129471495D01*
X63604700Y-129501733D01*
X63574461Y-129562209D01*
X63574461Y-129683161D01*
X63604700Y-129743638D01*
X63634938Y-129773876D01*
X63695414Y-129804114D01*
X63725652Y-129804114D01*
X63786128Y-129773876D01*
X63816366Y-129743638D01*
X63846604Y-129683161D01*
X63846604Y-129562209D01*
X63876842Y-129501733D01*
X63907080Y-129471495D01*
X63967557Y-129441257D01*
X64088509Y-129441257D01*
X64148985Y-129471495D01*
X64179223Y-129501733D01*
X64209461Y-129562209D01*
X64209461Y-129683161D01*
X64179223Y-129743638D01*
X64148985Y-129773876D01*
X64088509Y-129804114D01*
X63967557Y-129804114D01*
X63907080Y-129773876D01*
X63876842Y-129743638D01*
X63846604Y-129683161D01*
%TO.C,J21*%
X135054461Y-95724352D02*
X135508033Y-95724352D01*
X135598747Y-95694114D01*
X135659223Y-95633638D01*
X135689461Y-95542923D01*
X135689461Y-95482447D01*
X135114938Y-95996495D02*
X135084700Y-96026733D01*
X135054461Y-96087209D01*
X135054461Y-96238400D01*
X135084700Y-96298876D01*
X135114938Y-96329114D01*
X135175414Y-96359352D01*
X135235890Y-96359352D01*
X135326604Y-96329114D01*
X135689461Y-95966257D01*
X135689461Y-96359352D01*
X135689461Y-96964114D02*
X135689461Y-96601257D01*
X135689461Y-96782685D02*
X135054461Y-96782685D01*
X135145176Y-96722209D01*
X135205652Y-96661733D01*
X135235890Y-96601257D01*
%TO.C,J22*%
X135014461Y-104611018D02*
X135468033Y-104611018D01*
X135558747Y-104580780D01*
X135619223Y-104520304D01*
X135649461Y-104429589D01*
X135649461Y-104369113D01*
X135074938Y-104883161D02*
X135044700Y-104913399D01*
X135014461Y-104973875D01*
X135014461Y-105125066D01*
X135044700Y-105185542D01*
X135074938Y-105215780D01*
X135135414Y-105246018D01*
X135195890Y-105246018D01*
X135286604Y-105215780D01*
X135649461Y-104852923D01*
X135649461Y-105246018D01*
X135074938Y-105487923D02*
X135044700Y-105518161D01*
X135014461Y-105578637D01*
X135014461Y-105729827D01*
X135044700Y-105790304D01*
X135074938Y-105820542D01*
X135135414Y-105850780D01*
X135195890Y-105850780D01*
X135286604Y-105820542D01*
X135649461Y-105457685D01*
X135649461Y-105850780D01*
%TO.C,J23*%
X135084461Y-113447684D02*
X135538033Y-113447684D01*
X135628747Y-113417446D01*
X135689223Y-113356970D01*
X135719461Y-113266255D01*
X135719461Y-113205779D01*
X135144938Y-113719827D02*
X135114700Y-113750065D01*
X135084461Y-113810541D01*
X135084461Y-113961732D01*
X135114700Y-114022208D01*
X135144938Y-114052446D01*
X135205414Y-114082684D01*
X135265890Y-114082684D01*
X135356604Y-114052446D01*
X135719461Y-113689589D01*
X135719461Y-114082684D01*
X135084461Y-114294351D02*
X135084461Y-114687446D01*
X135326366Y-114475779D01*
X135326366Y-114566493D01*
X135356604Y-114626970D01*
X135386842Y-114657208D01*
X135447319Y-114687446D01*
X135598509Y-114687446D01*
X135658985Y-114657208D01*
X135689223Y-114626970D01*
X135719461Y-114566493D01*
X135719461Y-114385065D01*
X135689223Y-114324589D01*
X135658985Y-114294351D01*
%TO.C,J24*%
X135034461Y-122264350D02*
X135488033Y-122264350D01*
X135578747Y-122234112D01*
X135639223Y-122173636D01*
X135669461Y-122082921D01*
X135669461Y-122022445D01*
X135094938Y-122536493D02*
X135064700Y-122566731D01*
X135034461Y-122627207D01*
X135034461Y-122778398D01*
X135064700Y-122838874D01*
X135094938Y-122869112D01*
X135155414Y-122899350D01*
X135215890Y-122899350D01*
X135306604Y-122869112D01*
X135669461Y-122506255D01*
X135669461Y-122899350D01*
X135246128Y-123443636D02*
X135669461Y-123443636D01*
X135004223Y-123292445D02*
X135457795Y-123141255D01*
X135457795Y-123534350D01*
%TO.C,J17*%
X63504461Y-116854352D02*
X63958033Y-116854352D01*
X64048747Y-116824114D01*
X64109223Y-116763638D01*
X64139461Y-116672923D01*
X64139461Y-116612447D01*
X64139461Y-117489352D02*
X64139461Y-117126495D01*
X64139461Y-117307923D02*
X63504461Y-117307923D01*
X63595176Y-117247447D01*
X63655652Y-117186971D01*
X63685890Y-117126495D01*
X63504461Y-117701019D02*
X63504461Y-118124352D01*
X64139461Y-117852209D01*
%TO.C,C1*%
X117798033Y-115655185D02*
X117828271Y-115685423D01*
X117918985Y-115715661D01*
X117979461Y-115715661D01*
X118070176Y-115685423D01*
X118130652Y-115624947D01*
X118160890Y-115564471D01*
X118191128Y-115443519D01*
X118191128Y-115352804D01*
X118160890Y-115231852D01*
X118130652Y-115171376D01*
X118070176Y-115110900D01*
X117979461Y-115080661D01*
X117918985Y-115080661D01*
X117828271Y-115110900D01*
X117798033Y-115141138D01*
X117193271Y-115715661D02*
X117556128Y-115715661D01*
X117374700Y-115715661D02*
X117374700Y-115080661D01*
X117435176Y-115171376D01*
X117495652Y-115231852D01*
X117556128Y-115262090D01*
%TO.C,C2*%
X117738033Y-99055185D02*
X117768271Y-99085423D01*
X117858985Y-99115661D01*
X117919461Y-99115661D01*
X118010176Y-99085423D01*
X118070652Y-99024947D01*
X118100890Y-98964471D01*
X118131128Y-98843519D01*
X118131128Y-98752804D01*
X118100890Y-98631852D01*
X118070652Y-98571376D01*
X118010176Y-98510900D01*
X117919461Y-98480661D01*
X117858985Y-98480661D01*
X117768271Y-98510900D01*
X117738033Y-98541138D01*
X117496128Y-98541138D02*
X117465890Y-98510900D01*
X117405414Y-98480661D01*
X117254223Y-98480661D01*
X117193747Y-98510900D01*
X117163509Y-98541138D01*
X117133271Y-98601614D01*
X117133271Y-98662090D01*
X117163509Y-98752804D01*
X117526366Y-99115661D01*
X117133271Y-99115661D01*
%TO.C,C3*%
X117808033Y-114425185D02*
X117838271Y-114455423D01*
X117928985Y-114485661D01*
X117989461Y-114485661D01*
X118080176Y-114455423D01*
X118140652Y-114394947D01*
X118170890Y-114334471D01*
X118201128Y-114213519D01*
X118201128Y-114122804D01*
X118170890Y-114001852D01*
X118140652Y-113941376D01*
X118080176Y-113880900D01*
X117989461Y-113850661D01*
X117928985Y-113850661D01*
X117838271Y-113880900D01*
X117808033Y-113911138D01*
X117596366Y-113850661D02*
X117203271Y-113850661D01*
X117414938Y-114092566D01*
X117324223Y-114092566D01*
X117263747Y-114122804D01*
X117233509Y-114153042D01*
X117203271Y-114213519D01*
X117203271Y-114364709D01*
X117233509Y-114425185D01*
X117263747Y-114455423D01*
X117324223Y-114485661D01*
X117505652Y-114485661D01*
X117566128Y-114455423D01*
X117596366Y-114425185D01*
%TO.C,C4*%
X117768033Y-97735185D02*
X117798271Y-97765423D01*
X117888985Y-97795661D01*
X117949461Y-97795661D01*
X118040176Y-97765423D01*
X118100652Y-97704947D01*
X118130890Y-97644471D01*
X118161128Y-97523519D01*
X118161128Y-97432804D01*
X118130890Y-97311852D01*
X118100652Y-97251376D01*
X118040176Y-97190900D01*
X117949461Y-97160661D01*
X117888985Y-97160661D01*
X117798271Y-97190900D01*
X117768033Y-97221138D01*
X117223747Y-97372328D02*
X117223747Y-97795661D01*
X117374938Y-97130423D02*
X117526128Y-97583995D01*
X117133033Y-97583995D01*
%TO.C,C6*%
X131648033Y-100015185D02*
X131678271Y-100045423D01*
X131768985Y-100075661D01*
X131829461Y-100075661D01*
X131920176Y-100045423D01*
X131980652Y-99984947D01*
X132010890Y-99924471D01*
X132041128Y-99803519D01*
X132041128Y-99712804D01*
X132010890Y-99591852D01*
X131980652Y-99531376D01*
X131920176Y-99470900D01*
X131829461Y-99440661D01*
X131768985Y-99440661D01*
X131678271Y-99470900D01*
X131648033Y-99501138D01*
X131103747Y-99440661D02*
X131224700Y-99440661D01*
X131285176Y-99470900D01*
X131315414Y-99501138D01*
X131375890Y-99591852D01*
X131406128Y-99712804D01*
X131406128Y-99954709D01*
X131375890Y-100015185D01*
X131345652Y-100045423D01*
X131285176Y-100075661D01*
X131164223Y-100075661D01*
X131103747Y-100045423D01*
X131073509Y-100015185D01*
X131043271Y-99954709D01*
X131043271Y-99803519D01*
X131073509Y-99743042D01*
X131103747Y-99712804D01*
X131164223Y-99682566D01*
X131285176Y-99682566D01*
X131345652Y-99712804D01*
X131375890Y-99743042D01*
X131406128Y-99803519D01*
%TO.C,R4*%
X131628033Y-96795661D02*
X131839700Y-96493280D01*
X131990890Y-96795661D02*
X131990890Y-96160661D01*
X131748985Y-96160661D01*
X131688509Y-96190900D01*
X131658271Y-96221138D01*
X131628033Y-96281614D01*
X131628033Y-96372328D01*
X131658271Y-96432804D01*
X131688509Y-96463042D01*
X131748985Y-96493280D01*
X131990890Y-96493280D01*
X131083747Y-96372328D02*
X131083747Y-96795661D01*
X131234938Y-96130423D02*
X131386128Y-96583995D01*
X130993033Y-96583995D01*
%TO.C,U1*%
X125596009Y-107800661D02*
X125596009Y-108314709D01*
X125565771Y-108375185D01*
X125535533Y-108405423D01*
X125475057Y-108435661D01*
X125354104Y-108435661D01*
X125293628Y-108405423D01*
X125263390Y-108375185D01*
X125233152Y-108314709D01*
X125233152Y-107800661D01*
X124598152Y-108435661D02*
X124961009Y-108435661D01*
X124779580Y-108435661D02*
X124779580Y-107800661D01*
X124840057Y-107891376D01*
X124900533Y-107951852D01*
X124961009Y-107982090D01*
%TO.C,U2*%
X125186009Y-91080661D02*
X125186009Y-91594709D01*
X125155771Y-91655185D01*
X125125533Y-91685423D01*
X125065057Y-91715661D01*
X124944104Y-91715661D01*
X124883628Y-91685423D01*
X124853390Y-91655185D01*
X124823152Y-91594709D01*
X124823152Y-91080661D01*
X124551009Y-91141138D02*
X124520771Y-91110900D01*
X124460295Y-91080661D01*
X124309104Y-91080661D01*
X124248628Y-91110900D01*
X124218390Y-91141138D01*
X124188152Y-91201614D01*
X124188152Y-91262090D01*
X124218390Y-91352804D01*
X124581247Y-91715661D01*
X124188152Y-91715661D01*
%TO.C,C5*%
X133144033Y-116387085D02*
X133174271Y-116417323D01*
X133264985Y-116447561D01*
X133325461Y-116447561D01*
X133416176Y-116417323D01*
X133476652Y-116356847D01*
X133506890Y-116296371D01*
X133537128Y-116175419D01*
X133537128Y-116084704D01*
X133506890Y-115963752D01*
X133476652Y-115903276D01*
X133416176Y-115842800D01*
X133325461Y-115812561D01*
X133264985Y-115812561D01*
X133174271Y-115842800D01*
X133144033Y-115873038D01*
X132569509Y-115812561D02*
X132871890Y-115812561D01*
X132902128Y-116114942D01*
X132871890Y-116084704D01*
X132811414Y-116054466D01*
X132660223Y-116054466D01*
X132599747Y-116084704D01*
X132569509Y-116114942D01*
X132539271Y-116175419D01*
X132539271Y-116326609D01*
X132569509Y-116387085D01*
X132599747Y-116417323D01*
X132660223Y-116447561D01*
X132811414Y-116447561D01*
X132871890Y-116417323D01*
X132902128Y-116387085D01*
%TO.C,R3*%
X132873033Y-115555661D02*
X133084700Y-115253280D01*
X133235890Y-115555661D02*
X133235890Y-114920661D01*
X132993985Y-114920661D01*
X132933509Y-114950900D01*
X132903271Y-114981138D01*
X132873033Y-115041614D01*
X132873033Y-115132328D01*
X132903271Y-115192804D01*
X132933509Y-115223042D01*
X132993985Y-115253280D01*
X133235890Y-115253280D01*
X132661366Y-114920661D02*
X132268271Y-114920661D01*
X132479938Y-115162566D01*
X132389223Y-115162566D01*
X132328747Y-115192804D01*
X132298509Y-115223042D01*
X132268271Y-115283519D01*
X132268271Y-115434709D01*
X132298509Y-115495185D01*
X132328747Y-115525423D01*
X132389223Y-115555661D01*
X132570652Y-115555661D01*
X132631128Y-115525423D01*
X132661366Y-115495185D01*
%TO.C,C32*%
X74090414Y-96785185D02*
X74120652Y-96815423D01*
X74211366Y-96845661D01*
X74271842Y-96845661D01*
X74362557Y-96815423D01*
X74423033Y-96754947D01*
X74453271Y-96694471D01*
X74483509Y-96573519D01*
X74483509Y-96482804D01*
X74453271Y-96361852D01*
X74423033Y-96301376D01*
X74362557Y-96240900D01*
X74271842Y-96210661D01*
X74211366Y-96210661D01*
X74120652Y-96240900D01*
X74090414Y-96271138D01*
X73878747Y-96210661D02*
X73485652Y-96210661D01*
X73697319Y-96452566D01*
X73606604Y-96452566D01*
X73546128Y-96482804D01*
X73515890Y-96513042D01*
X73485652Y-96573519D01*
X73485652Y-96724709D01*
X73515890Y-96785185D01*
X73546128Y-96815423D01*
X73606604Y-96845661D01*
X73788033Y-96845661D01*
X73848509Y-96815423D01*
X73878747Y-96785185D01*
X73243747Y-96271138D02*
X73213509Y-96240900D01*
X73153033Y-96210661D01*
X73001842Y-96210661D01*
X72941366Y-96240900D01*
X72911128Y-96271138D01*
X72880890Y-96331614D01*
X72880890Y-96392090D01*
X72911128Y-96482804D01*
X73273985Y-96845661D01*
X72880890Y-96845661D01*
%TO.C,C31*%
X74018985Y-101960185D02*
X74049223Y-101929947D01*
X74079461Y-101839233D01*
X74079461Y-101778757D01*
X74049223Y-101688042D01*
X73988747Y-101627566D01*
X73928271Y-101597328D01*
X73807319Y-101567090D01*
X73716604Y-101567090D01*
X73595652Y-101597328D01*
X73535176Y-101627566D01*
X73474700Y-101688042D01*
X73444461Y-101778757D01*
X73444461Y-101839233D01*
X73474700Y-101929947D01*
X73504938Y-101960185D01*
X73444461Y-102171852D02*
X73444461Y-102564947D01*
X73686366Y-102353280D01*
X73686366Y-102443995D01*
X73716604Y-102504471D01*
X73746842Y-102534709D01*
X73807319Y-102564947D01*
X73958509Y-102564947D01*
X74018985Y-102534709D01*
X74049223Y-102504471D01*
X74079461Y-102443995D01*
X74079461Y-102262566D01*
X74049223Y-102202090D01*
X74018985Y-102171852D01*
X74079461Y-103169709D02*
X74079461Y-102806852D01*
X74079461Y-102988280D02*
X73444461Y-102988280D01*
X73535176Y-102927804D01*
X73595652Y-102867328D01*
X73625890Y-102806852D01*
%TO.C,C45*%
X106740414Y-107735185D02*
X106770652Y-107765423D01*
X106861366Y-107795661D01*
X106921842Y-107795661D01*
X107012557Y-107765423D01*
X107073033Y-107704947D01*
X107103271Y-107644471D01*
X107133509Y-107523519D01*
X107133509Y-107432804D01*
X107103271Y-107311852D01*
X107073033Y-107251376D01*
X107012557Y-107190900D01*
X106921842Y-107160661D01*
X106861366Y-107160661D01*
X106770652Y-107190900D01*
X106740414Y-107221138D01*
X106196128Y-107372328D02*
X106196128Y-107795661D01*
X106347319Y-107130423D02*
X106498509Y-107583995D01*
X106105414Y-107583995D01*
X105561128Y-107160661D02*
X105863509Y-107160661D01*
X105893747Y-107463042D01*
X105863509Y-107432804D01*
X105803033Y-107402566D01*
X105651842Y-107402566D01*
X105591366Y-107432804D01*
X105561128Y-107463042D01*
X105530890Y-107523519D01*
X105530890Y-107674709D01*
X105561128Y-107735185D01*
X105591366Y-107765423D01*
X105651842Y-107795661D01*
X105803033Y-107795661D01*
X105863509Y-107765423D01*
X105893747Y-107735185D01*
%TO.C,BT1*%
X114941128Y-107323042D02*
X114850414Y-107353280D01*
X114820176Y-107383519D01*
X114789938Y-107443995D01*
X114789938Y-107534709D01*
X114820176Y-107595185D01*
X114850414Y-107625423D01*
X114910890Y-107655661D01*
X115152795Y-107655661D01*
X115152795Y-107020661D01*
X114941128Y-107020661D01*
X114880652Y-107050900D01*
X114850414Y-107081138D01*
X114820176Y-107141614D01*
X114820176Y-107202090D01*
X114850414Y-107262566D01*
X114880652Y-107292804D01*
X114941128Y-107323042D01*
X115152795Y-107323042D01*
X114608509Y-107020661D02*
X114245652Y-107020661D01*
X114427080Y-107655661D02*
X114427080Y-107020661D01*
X113701366Y-107655661D02*
X114064223Y-107655661D01*
X113882795Y-107655661D02*
X113882795Y-107020661D01*
X113943271Y-107111376D01*
X114003747Y-107171852D01*
X114064223Y-107202090D01*
D12*
X111922292Y-113444574D02*
X111922292Y-114512225D01*
X112456117Y-113978400D02*
X111388467Y-113978400D01*
D11*
%TO.C,C34*%
X73540414Y-101185185D02*
X73570652Y-101215423D01*
X73661366Y-101245661D01*
X73721842Y-101245661D01*
X73812557Y-101215423D01*
X73873033Y-101154947D01*
X73903271Y-101094471D01*
X73933509Y-100973519D01*
X73933509Y-100882804D01*
X73903271Y-100761852D01*
X73873033Y-100701376D01*
X73812557Y-100640900D01*
X73721842Y-100610661D01*
X73661366Y-100610661D01*
X73570652Y-100640900D01*
X73540414Y-100671138D01*
X73328747Y-100610661D02*
X72935652Y-100610661D01*
X73147319Y-100852566D01*
X73056604Y-100852566D01*
X72996128Y-100882804D01*
X72965890Y-100913042D01*
X72935652Y-100973519D01*
X72935652Y-101124709D01*
X72965890Y-101185185D01*
X72996128Y-101215423D01*
X73056604Y-101245661D01*
X73238033Y-101245661D01*
X73298509Y-101215423D01*
X73328747Y-101185185D01*
X72391366Y-100822328D02*
X72391366Y-101245661D01*
X72542557Y-100580423D02*
X72693747Y-101033995D01*
X72300652Y-101033995D01*
%TO.C,J7*%
X67843866Y-108870661D02*
X67843866Y-109324233D01*
X67874104Y-109414947D01*
X67934580Y-109475423D01*
X68025295Y-109505661D01*
X68085771Y-109505661D01*
X67601961Y-108870661D02*
X67178628Y-108870661D01*
X67450771Y-109505661D01*
%TO.C,J29*%
X133136247Y-94840661D02*
X133136247Y-95294233D01*
X133166485Y-95384947D01*
X133226961Y-95445423D01*
X133317676Y-95475661D01*
X133378152Y-95475661D01*
X132864104Y-94901138D02*
X132833866Y-94870900D01*
X132773390Y-94840661D01*
X132622200Y-94840661D01*
X132561723Y-94870900D01*
X132531485Y-94901138D01*
X132501247Y-94961614D01*
X132501247Y-95022090D01*
X132531485Y-95112804D01*
X132894342Y-95475661D01*
X132501247Y-95475661D01*
X132198866Y-95475661D02*
X132077914Y-95475661D01*
X132017438Y-95445423D01*
X131987200Y-95415185D01*
X131926723Y-95324471D01*
X131896485Y-95203519D01*
X131896485Y-94961614D01*
X131926723Y-94901138D01*
X131956961Y-94870900D01*
X132017438Y-94840661D01*
X132138390Y-94840661D01*
X132198866Y-94870900D01*
X132229104Y-94901138D01*
X132259342Y-94961614D01*
X132259342Y-95112804D01*
X132229104Y-95173280D01*
X132198866Y-95203519D01*
X132138390Y-95233757D01*
X132017438Y-95233757D01*
X131956961Y-95203519D01*
X131926723Y-95173280D01*
X131896485Y-95112804D01*
%TO.C,D8*%
X88639461Y-125759709D02*
X88004461Y-125759709D01*
X88004461Y-125910900D01*
X88034700Y-126001614D01*
X88095176Y-126062090D01*
X88155652Y-126092328D01*
X88276604Y-126122566D01*
X88367319Y-126122566D01*
X88488271Y-126092328D01*
X88548747Y-126062090D01*
X88609223Y-126001614D01*
X88639461Y-125910900D01*
X88639461Y-125759709D01*
X88276604Y-126485423D02*
X88246366Y-126424947D01*
X88216128Y-126394709D01*
X88155652Y-126364471D01*
X88125414Y-126364471D01*
X88064938Y-126394709D01*
X88034700Y-126424947D01*
X88004461Y-126485423D01*
X88004461Y-126606376D01*
X88034700Y-126666852D01*
X88064938Y-126697090D01*
X88125414Y-126727328D01*
X88155652Y-126727328D01*
X88216128Y-126697090D01*
X88246366Y-126666852D01*
X88276604Y-126606376D01*
X88276604Y-126485423D01*
X88306842Y-126424947D01*
X88337080Y-126394709D01*
X88397557Y-126364471D01*
X88518509Y-126364471D01*
X88578985Y-126394709D01*
X88609223Y-126424947D01*
X88639461Y-126485423D01*
X88639461Y-126606376D01*
X88609223Y-126666852D01*
X88578985Y-126697090D01*
X88518509Y-126727328D01*
X88397557Y-126727328D01*
X88337080Y-126697090D01*
X88306842Y-126666852D01*
X88276604Y-126606376D01*
%TO.C,C28*%
X90260414Y-87765185D02*
X90290652Y-87795423D01*
X90381366Y-87825661D01*
X90441842Y-87825661D01*
X90532557Y-87795423D01*
X90593033Y-87734947D01*
X90623271Y-87674471D01*
X90653509Y-87553519D01*
X90653509Y-87462804D01*
X90623271Y-87341852D01*
X90593033Y-87281376D01*
X90532557Y-87220900D01*
X90441842Y-87190661D01*
X90381366Y-87190661D01*
X90290652Y-87220900D01*
X90260414Y-87251138D01*
X90018509Y-87251138D02*
X89988271Y-87220900D01*
X89927795Y-87190661D01*
X89776604Y-87190661D01*
X89716128Y-87220900D01*
X89685890Y-87251138D01*
X89655652Y-87311614D01*
X89655652Y-87372090D01*
X89685890Y-87462804D01*
X90048747Y-87825661D01*
X89655652Y-87825661D01*
X89292795Y-87462804D02*
X89353271Y-87432566D01*
X89383509Y-87402328D01*
X89413747Y-87341852D01*
X89413747Y-87311614D01*
X89383509Y-87251138D01*
X89353271Y-87220900D01*
X89292795Y-87190661D01*
X89171842Y-87190661D01*
X89111366Y-87220900D01*
X89081128Y-87251138D01*
X89050890Y-87311614D01*
X89050890Y-87341852D01*
X89081128Y-87402328D01*
X89111366Y-87432566D01*
X89171842Y-87462804D01*
X89292795Y-87462804D01*
X89353271Y-87493042D01*
X89383509Y-87523280D01*
X89413747Y-87583757D01*
X89413747Y-87704709D01*
X89383509Y-87765185D01*
X89353271Y-87795423D01*
X89292795Y-87825661D01*
X89171842Y-87825661D01*
X89111366Y-87795423D01*
X89081128Y-87765185D01*
X89050890Y-87704709D01*
X89050890Y-87583757D01*
X89081128Y-87523280D01*
X89111366Y-87493042D01*
X89171842Y-87462804D01*
%TO.C,D9*%
X79619461Y-125789709D02*
X78984461Y-125789709D01*
X78984461Y-125940900D01*
X79014700Y-126031614D01*
X79075176Y-126092090D01*
X79135652Y-126122328D01*
X79256604Y-126152566D01*
X79347319Y-126152566D01*
X79468271Y-126122328D01*
X79528747Y-126092090D01*
X79589223Y-126031614D01*
X79619461Y-125940900D01*
X79619461Y-125789709D01*
X79619461Y-126454947D02*
X79619461Y-126575900D01*
X79589223Y-126636376D01*
X79558985Y-126666614D01*
X79468271Y-126727090D01*
X79347319Y-126757328D01*
X79105414Y-126757328D01*
X79044938Y-126727090D01*
X79014700Y-126696852D01*
X78984461Y-126636376D01*
X78984461Y-126515423D01*
X79014700Y-126454947D01*
X79044938Y-126424709D01*
X79105414Y-126394471D01*
X79256604Y-126394471D01*
X79317080Y-126424709D01*
X79347319Y-126454947D01*
X79377557Y-126515423D01*
X79377557Y-126636376D01*
X79347319Y-126696852D01*
X79317080Y-126727090D01*
X79256604Y-126757328D01*
%TO.C,U8*%
X106891009Y-102485661D02*
X106891009Y-102999709D01*
X106860771Y-103060185D01*
X106830533Y-103090423D01*
X106770057Y-103120661D01*
X106649104Y-103120661D01*
X106588628Y-103090423D01*
X106558390Y-103060185D01*
X106528152Y-102999709D01*
X106528152Y-102485661D01*
X106135057Y-102757804D02*
X106195533Y-102727566D01*
X106225771Y-102697328D01*
X106256009Y-102636852D01*
X106256009Y-102606614D01*
X106225771Y-102546138D01*
X106195533Y-102515900D01*
X106135057Y-102485661D01*
X106014104Y-102485661D01*
X105953628Y-102515900D01*
X105923390Y-102546138D01*
X105893152Y-102606614D01*
X105893152Y-102636852D01*
X105923390Y-102697328D01*
X105953628Y-102727566D01*
X106014104Y-102757804D01*
X106135057Y-102757804D01*
X106195533Y-102788042D01*
X106225771Y-102818280D01*
X106256009Y-102878757D01*
X106256009Y-102999709D01*
X106225771Y-103060185D01*
X106195533Y-103090423D01*
X106135057Y-103120661D01*
X106014104Y-103120661D01*
X105953628Y-103090423D01*
X105923390Y-103060185D01*
X105893152Y-102999709D01*
X105893152Y-102878757D01*
X105923390Y-102818280D01*
X105953628Y-102788042D01*
X106014104Y-102757804D01*
%TO.C,R26*%
X108765414Y-113865661D02*
X108977080Y-113563280D01*
X109128271Y-113865661D02*
X109128271Y-113230661D01*
X108886366Y-113230661D01*
X108825890Y-113260900D01*
X108795652Y-113291138D01*
X108765414Y-113351614D01*
X108765414Y-113442328D01*
X108795652Y-113502804D01*
X108825890Y-113533042D01*
X108886366Y-113563280D01*
X109128271Y-113563280D01*
X108523509Y-113291138D02*
X108493271Y-113260900D01*
X108432795Y-113230661D01*
X108281604Y-113230661D01*
X108221128Y-113260900D01*
X108190890Y-113291138D01*
X108160652Y-113351614D01*
X108160652Y-113412090D01*
X108190890Y-113502804D01*
X108553747Y-113865661D01*
X108160652Y-113865661D01*
X107616366Y-113230661D02*
X107737319Y-113230661D01*
X107797795Y-113260900D01*
X107828033Y-113291138D01*
X107888509Y-113381852D01*
X107918747Y-113502804D01*
X107918747Y-113744709D01*
X107888509Y-113805185D01*
X107858271Y-113835423D01*
X107797795Y-113865661D01*
X107676842Y-113865661D01*
X107616366Y-113835423D01*
X107586128Y-113805185D01*
X107555890Y-113744709D01*
X107555890Y-113593519D01*
X107586128Y-113533042D01*
X107616366Y-113502804D01*
X107676842Y-113472566D01*
X107797795Y-113472566D01*
X107858271Y-113502804D01*
X107888509Y-113533042D01*
X107918747Y-113593519D01*
%TO.C,J25*%
X103506247Y-131500661D02*
X103506247Y-131954233D01*
X103536485Y-132044947D01*
X103596961Y-132105423D01*
X103687676Y-132135661D01*
X103748152Y-132135661D01*
X103234104Y-131561138D02*
X103203866Y-131530900D01*
X103143390Y-131500661D01*
X102992200Y-131500661D01*
X102931723Y-131530900D01*
X102901485Y-131561138D01*
X102871247Y-131621614D01*
X102871247Y-131682090D01*
X102901485Y-131772804D01*
X103264342Y-132135661D01*
X102871247Y-132135661D01*
X102296723Y-131500661D02*
X102599104Y-131500661D01*
X102629342Y-131803042D01*
X102599104Y-131772804D01*
X102538628Y-131742566D01*
X102387438Y-131742566D01*
X102326961Y-131772804D01*
X102296723Y-131803042D01*
X102266485Y-131863519D01*
X102266485Y-132014709D01*
X102296723Y-132075185D01*
X102326961Y-132105423D01*
X102387438Y-132135661D01*
X102538628Y-132135661D01*
X102599104Y-132105423D01*
X102629342Y-132075185D01*
%TO.C,R21*%
X77999461Y-104840185D02*
X77697080Y-104628519D01*
X77999461Y-104477328D02*
X77364461Y-104477328D01*
X77364461Y-104719233D01*
X77394700Y-104779709D01*
X77424938Y-104809947D01*
X77485414Y-104840185D01*
X77576128Y-104840185D01*
X77636604Y-104809947D01*
X77666842Y-104779709D01*
X77697080Y-104719233D01*
X77697080Y-104477328D01*
X77424938Y-105082090D02*
X77394700Y-105112328D01*
X77364461Y-105172804D01*
X77364461Y-105323995D01*
X77394700Y-105384471D01*
X77424938Y-105414709D01*
X77485414Y-105444947D01*
X77545890Y-105444947D01*
X77636604Y-105414709D01*
X77999461Y-105051852D01*
X77999461Y-105444947D01*
X77999461Y-106049709D02*
X77999461Y-105686852D01*
X77999461Y-105868280D02*
X77364461Y-105868280D01*
X77455176Y-105807804D01*
X77515652Y-105747328D01*
X77545890Y-105686852D01*
%TO.C,FL1*%
X71773990Y-101903042D02*
X71985657Y-101903042D01*
X71985657Y-102235661D02*
X71985657Y-101600661D01*
X71683276Y-101600661D01*
X71138990Y-102235661D02*
X71441371Y-102235661D01*
X71441371Y-101600661D01*
X70594704Y-102235661D02*
X70957561Y-102235661D01*
X70776133Y-102235661D02*
X70776133Y-101600661D01*
X70836609Y-101691376D01*
X70897085Y-101751852D01*
X70957561Y-101782090D01*
%TO.C,U5*%
X78996009Y-96460661D02*
X78996009Y-96974709D01*
X78965771Y-97035185D01*
X78935533Y-97065423D01*
X78875057Y-97095661D01*
X78754104Y-97095661D01*
X78693628Y-97065423D01*
X78663390Y-97035185D01*
X78633152Y-96974709D01*
X78633152Y-96460661D01*
X78028390Y-96460661D02*
X78330771Y-96460661D01*
X78361009Y-96763042D01*
X78330771Y-96732804D01*
X78270295Y-96702566D01*
X78119104Y-96702566D01*
X78058628Y-96732804D01*
X78028390Y-96763042D01*
X77998152Y-96823519D01*
X77998152Y-96974709D01*
X78028390Y-97035185D01*
X78058628Y-97065423D01*
X78119104Y-97095661D01*
X78270295Y-97095661D01*
X78330771Y-97065423D01*
X78361009Y-97035185D01*
D12*
X81415900Y-98085780D02*
X81415900Y-98323876D01*
X81653995Y-98228638D02*
X81415900Y-98323876D01*
X81177804Y-98228638D01*
X81558757Y-98514352D02*
X81415900Y-98323876D01*
X81273042Y-98514352D01*
D11*
%TO.C,J19*%
X132346247Y-131470661D02*
X132346247Y-131924233D01*
X132376485Y-132014947D01*
X132436961Y-132075423D01*
X132527676Y-132105661D01*
X132588152Y-132105661D01*
X131711247Y-132105661D02*
X132074104Y-132105661D01*
X131892676Y-132105661D02*
X131892676Y-131470661D01*
X131953152Y-131561376D01*
X132013628Y-131621852D01*
X132074104Y-131652090D01*
X131408866Y-132105661D02*
X131287914Y-132105661D01*
X131227438Y-132075423D01*
X131197200Y-132045185D01*
X131136723Y-131954471D01*
X131106485Y-131833519D01*
X131106485Y-131591614D01*
X131136723Y-131531138D01*
X131166961Y-131500900D01*
X131227438Y-131470661D01*
X131348390Y-131470661D01*
X131408866Y-131500900D01*
X131439104Y-131531138D01*
X131469342Y-131591614D01*
X131469342Y-131742804D01*
X131439104Y-131803280D01*
X131408866Y-131833519D01*
X131348390Y-131863757D01*
X131227438Y-131863757D01*
X131166961Y-131833519D01*
X131136723Y-131803280D01*
X131106485Y-131742804D01*
%TO.C,C33*%
X75468985Y-97540185D02*
X75499223Y-97509947D01*
X75529461Y-97419233D01*
X75529461Y-97358757D01*
X75499223Y-97268042D01*
X75438747Y-97207566D01*
X75378271Y-97177328D01*
X75257319Y-97147090D01*
X75166604Y-97147090D01*
X75045652Y-97177328D01*
X74985176Y-97207566D01*
X74924700Y-97268042D01*
X74894461Y-97358757D01*
X74894461Y-97419233D01*
X74924700Y-97509947D01*
X74954938Y-97540185D01*
X74894461Y-97751852D02*
X74894461Y-98144947D01*
X75136366Y-97933280D01*
X75136366Y-98023995D01*
X75166604Y-98084471D01*
X75196842Y-98114709D01*
X75257319Y-98144947D01*
X75408509Y-98144947D01*
X75468985Y-98114709D01*
X75499223Y-98084471D01*
X75529461Y-98023995D01*
X75529461Y-97842566D01*
X75499223Y-97782090D01*
X75468985Y-97751852D01*
X74894461Y-98356614D02*
X74894461Y-98749709D01*
X75136366Y-98538042D01*
X75136366Y-98628757D01*
X75166604Y-98689233D01*
X75196842Y-98719471D01*
X75257319Y-98749709D01*
X75408509Y-98749709D01*
X75468985Y-98719471D01*
X75499223Y-98689233D01*
X75529461Y-98628757D01*
X75529461Y-98447328D01*
X75499223Y-98386852D01*
X75468985Y-98356614D01*
%TO.C,J14*%
X118466247Y-84550661D02*
X118466247Y-85004233D01*
X118496485Y-85094947D01*
X118556961Y-85155423D01*
X118647676Y-85185661D01*
X118708152Y-85185661D01*
X117831247Y-85185661D02*
X118194104Y-85185661D01*
X118012676Y-85185661D02*
X118012676Y-84550661D01*
X118073152Y-84641376D01*
X118133628Y-84701852D01*
X118194104Y-84732090D01*
X117286961Y-84762328D02*
X117286961Y-85185661D01*
X117438152Y-84520423D02*
X117589342Y-84973995D01*
X117196247Y-84973995D01*
%TO.C,C44*%
X106600414Y-106275185D02*
X106630652Y-106305423D01*
X106721366Y-106335661D01*
X106781842Y-106335661D01*
X106872557Y-106305423D01*
X106933033Y-106244947D01*
X106963271Y-106184471D01*
X106993509Y-106063519D01*
X106993509Y-105972804D01*
X106963271Y-105851852D01*
X106933033Y-105791376D01*
X106872557Y-105730900D01*
X106781842Y-105700661D01*
X106721366Y-105700661D01*
X106630652Y-105730900D01*
X106600414Y-105761138D01*
X106056128Y-105912328D02*
X106056128Y-106335661D01*
X106207319Y-105670423D02*
X106358509Y-106123995D01*
X105965414Y-106123995D01*
X105451366Y-105912328D02*
X105451366Y-106335661D01*
X105602557Y-105670423D02*
X105753747Y-106123995D01*
X105360652Y-106123995D01*
%TO.C,C30*%
X74868985Y-105040185D02*
X74899223Y-105009947D01*
X74929461Y-104919233D01*
X74929461Y-104858757D01*
X74899223Y-104768042D01*
X74838747Y-104707566D01*
X74778271Y-104677328D01*
X74657319Y-104647090D01*
X74566604Y-104647090D01*
X74445652Y-104677328D01*
X74385176Y-104707566D01*
X74324700Y-104768042D01*
X74294461Y-104858757D01*
X74294461Y-104919233D01*
X74324700Y-105009947D01*
X74354938Y-105040185D01*
X74294461Y-105251852D02*
X74294461Y-105644947D01*
X74536366Y-105433280D01*
X74536366Y-105523995D01*
X74566604Y-105584471D01*
X74596842Y-105614709D01*
X74657319Y-105644947D01*
X74808509Y-105644947D01*
X74868985Y-105614709D01*
X74899223Y-105584471D01*
X74929461Y-105523995D01*
X74929461Y-105342566D01*
X74899223Y-105282090D01*
X74868985Y-105251852D01*
X74294461Y-106038042D02*
X74294461Y-106098519D01*
X74324700Y-106158995D01*
X74354938Y-106189233D01*
X74415414Y-106219471D01*
X74536366Y-106249709D01*
X74687557Y-106249709D01*
X74808509Y-106219471D01*
X74868985Y-106189233D01*
X74899223Y-106158995D01*
X74929461Y-106098519D01*
X74929461Y-106038042D01*
X74899223Y-105977566D01*
X74868985Y-105947328D01*
X74808509Y-105917090D01*
X74687557Y-105886852D01*
X74536366Y-105886852D01*
X74415414Y-105917090D01*
X74354938Y-105947328D01*
X74324700Y-105977566D01*
X74294461Y-106038042D01*
%TO.C,J26*%
X111556247Y-131490661D02*
X111556247Y-131944233D01*
X111586485Y-132034947D01*
X111646961Y-132095423D01*
X111737676Y-132125661D01*
X111798152Y-132125661D01*
X111284104Y-131551138D02*
X111253866Y-131520900D01*
X111193390Y-131490661D01*
X111042200Y-131490661D01*
X110981723Y-131520900D01*
X110951485Y-131551138D01*
X110921247Y-131611614D01*
X110921247Y-131672090D01*
X110951485Y-131762804D01*
X111314342Y-132125661D01*
X110921247Y-132125661D01*
X110376961Y-131490661D02*
X110497914Y-131490661D01*
X110558390Y-131520900D01*
X110588628Y-131551138D01*
X110649104Y-131641852D01*
X110679342Y-131762804D01*
X110679342Y-132004709D01*
X110649104Y-132065185D01*
X110618866Y-132095423D01*
X110558390Y-132125661D01*
X110437438Y-132125661D01*
X110376961Y-132095423D01*
X110346723Y-132065185D01*
X110316485Y-132004709D01*
X110316485Y-131853519D01*
X110346723Y-131793042D01*
X110376961Y-131762804D01*
X110437438Y-131732566D01*
X110558390Y-131732566D01*
X110618866Y-131762804D01*
X110649104Y-131793042D01*
X110679342Y-131853519D01*
%TO.C,D7*%
X106610890Y-110195661D02*
X106610890Y-109560661D01*
X106459700Y-109560661D01*
X106368985Y-109590900D01*
X106308509Y-109651376D01*
X106278271Y-109711852D01*
X106248033Y-109832804D01*
X106248033Y-109923519D01*
X106278271Y-110044471D01*
X106308509Y-110104947D01*
X106368985Y-110165423D01*
X106459700Y-110195661D01*
X106610890Y-110195661D01*
X106036366Y-109560661D02*
X105613033Y-109560661D01*
X105885176Y-110195661D01*
%TO.C,FB1*%
X71521366Y-100923042D02*
X71733033Y-100923042D01*
X71733033Y-101255661D02*
X71733033Y-100620661D01*
X71430652Y-100620661D01*
X70977080Y-100923042D02*
X70886366Y-100953280D01*
X70856128Y-100983519D01*
X70825890Y-101043995D01*
X70825890Y-101134709D01*
X70856128Y-101195185D01*
X70886366Y-101225423D01*
X70946842Y-101255661D01*
X71188747Y-101255661D01*
X71188747Y-100620661D01*
X70977080Y-100620661D01*
X70916604Y-100650900D01*
X70886366Y-100681138D01*
X70856128Y-100741614D01*
X70856128Y-100802090D01*
X70886366Y-100862566D01*
X70916604Y-100892804D01*
X70977080Y-100923042D01*
X71188747Y-100923042D01*
X70221128Y-101255661D02*
X70583985Y-101255661D01*
X70402557Y-101255661D02*
X70402557Y-100620661D01*
X70463033Y-100711376D01*
X70523509Y-100771852D01*
X70583985Y-100802090D01*
%TO.C,C29*%
X115810414Y-87805185D02*
X115840652Y-87835423D01*
X115931366Y-87865661D01*
X115991842Y-87865661D01*
X116082557Y-87835423D01*
X116143033Y-87774947D01*
X116173271Y-87714471D01*
X116203509Y-87593519D01*
X116203509Y-87502804D01*
X116173271Y-87381852D01*
X116143033Y-87321376D01*
X116082557Y-87260900D01*
X115991842Y-87230661D01*
X115931366Y-87230661D01*
X115840652Y-87260900D01*
X115810414Y-87291138D01*
X115568509Y-87291138D02*
X115538271Y-87260900D01*
X115477795Y-87230661D01*
X115326604Y-87230661D01*
X115266128Y-87260900D01*
X115235890Y-87291138D01*
X115205652Y-87351614D01*
X115205652Y-87412090D01*
X115235890Y-87502804D01*
X115598747Y-87865661D01*
X115205652Y-87865661D01*
X114903271Y-87865661D02*
X114782319Y-87865661D01*
X114721842Y-87835423D01*
X114691604Y-87805185D01*
X114631128Y-87714471D01*
X114600890Y-87593519D01*
X114600890Y-87351614D01*
X114631128Y-87291138D01*
X114661366Y-87260900D01*
X114721842Y-87230661D01*
X114842795Y-87230661D01*
X114903271Y-87260900D01*
X114933509Y-87291138D01*
X114963747Y-87351614D01*
X114963747Y-87502804D01*
X114933509Y-87563280D01*
X114903271Y-87593519D01*
X114842795Y-87623757D01*
X114721842Y-87623757D01*
X114661366Y-87593519D01*
X114631128Y-87563280D01*
X114600890Y-87502804D01*
%TO.C,FL2*%
X128490890Y-88383042D02*
X128702557Y-88383042D01*
X128702557Y-88715661D02*
X128702557Y-88080661D01*
X128400176Y-88080661D01*
X127855890Y-88715661D02*
X128158271Y-88715661D01*
X128158271Y-88080661D01*
X127674461Y-88141138D02*
X127644223Y-88110900D01*
X127583747Y-88080661D01*
X127432557Y-88080661D01*
X127372080Y-88110900D01*
X127341842Y-88141138D01*
X127311604Y-88201614D01*
X127311604Y-88262090D01*
X127341842Y-88352804D01*
X127704700Y-88715661D01*
X127311604Y-88715661D01*
%TO.C,F1*%
X84386842Y-131136733D02*
X84386842Y-130925066D01*
X84719461Y-130925066D02*
X84084461Y-130925066D01*
X84084461Y-131227447D01*
X84719461Y-131801971D02*
X84719461Y-131439114D01*
X84719461Y-131620542D02*
X84084461Y-131620542D01*
X84175176Y-131560066D01*
X84235652Y-131499590D01*
X84265890Y-131439114D01*
%TO.C,C43*%
X106600414Y-99935185D02*
X106630652Y-99965423D01*
X106721366Y-99995661D01*
X106781842Y-99995661D01*
X106872557Y-99965423D01*
X106933033Y-99904947D01*
X106963271Y-99844471D01*
X106993509Y-99723519D01*
X106993509Y-99632804D01*
X106963271Y-99511852D01*
X106933033Y-99451376D01*
X106872557Y-99390900D01*
X106781842Y-99360661D01*
X106721366Y-99360661D01*
X106630652Y-99390900D01*
X106600414Y-99421138D01*
X106056128Y-99572328D02*
X106056128Y-99995661D01*
X106207319Y-99330423D02*
X106358509Y-99783995D01*
X105965414Y-99783995D01*
X105783985Y-99360661D02*
X105390890Y-99360661D01*
X105602557Y-99602566D01*
X105511842Y-99602566D01*
X105451366Y-99632804D01*
X105421128Y-99663042D01*
X105390890Y-99723519D01*
X105390890Y-99874709D01*
X105421128Y-99935185D01*
X105451366Y-99965423D01*
X105511842Y-99995661D01*
X105693271Y-99995661D01*
X105753747Y-99965423D01*
X105783985Y-99935185D01*
%TO.C,J8*%
X91993866Y-84740661D02*
X91993866Y-85194233D01*
X92024104Y-85284947D01*
X92084580Y-85345423D01*
X92175295Y-85375661D01*
X92235771Y-85375661D01*
X91600771Y-85012804D02*
X91661247Y-84982566D01*
X91691485Y-84952328D01*
X91721723Y-84891852D01*
X91721723Y-84861614D01*
X91691485Y-84801138D01*
X91661247Y-84770900D01*
X91600771Y-84740661D01*
X91479819Y-84740661D01*
X91419342Y-84770900D01*
X91389104Y-84801138D01*
X91358866Y-84861614D01*
X91358866Y-84891852D01*
X91389104Y-84952328D01*
X91419342Y-84982566D01*
X91479819Y-85012804D01*
X91600771Y-85012804D01*
X91661247Y-85043042D01*
X91691485Y-85073280D01*
X91721723Y-85133757D01*
X91721723Y-85254709D01*
X91691485Y-85315185D01*
X91661247Y-85345423D01*
X91600771Y-85375661D01*
X91479819Y-85375661D01*
X91419342Y-85345423D01*
X91389104Y-85315185D01*
X91358866Y-85254709D01*
X91358866Y-85133757D01*
X91389104Y-85073280D01*
X91419342Y-85043042D01*
X91479819Y-85012804D01*
%TO.C,R20*%
X79649461Y-103800185D02*
X79347080Y-103588519D01*
X79649461Y-103437328D02*
X79014461Y-103437328D01*
X79014461Y-103679233D01*
X79044700Y-103739709D01*
X79074938Y-103769947D01*
X79135414Y-103800185D01*
X79226128Y-103800185D01*
X79286604Y-103769947D01*
X79316842Y-103739709D01*
X79347080Y-103679233D01*
X79347080Y-103437328D01*
X79074938Y-104042090D02*
X79044700Y-104072328D01*
X79014461Y-104132804D01*
X79014461Y-104283995D01*
X79044700Y-104344471D01*
X79074938Y-104374709D01*
X79135414Y-104404947D01*
X79195890Y-104404947D01*
X79286604Y-104374709D01*
X79649461Y-104011852D01*
X79649461Y-104404947D01*
X79014461Y-104798042D02*
X79014461Y-104858519D01*
X79044700Y-104918995D01*
X79074938Y-104949233D01*
X79135414Y-104979471D01*
X79256366Y-105009709D01*
X79407557Y-105009709D01*
X79528509Y-104979471D01*
X79588985Y-104949233D01*
X79619223Y-104918995D01*
X79649461Y-104858519D01*
X79649461Y-104798042D01*
X79619223Y-104737566D01*
X79588985Y-104707328D01*
X79528509Y-104677090D01*
X79407557Y-104646852D01*
X79256366Y-104646852D01*
X79135414Y-104677090D01*
X79074938Y-104707328D01*
X79044700Y-104737566D01*
X79014461Y-104798042D01*
D13*
%TO.C,J13*%
X119967200Y-133858400D02*
X119967200Y-132408400D01*
X118697200Y-136678400D02*
X114017200Y-136678400D01*
X118167200Y-132408400D02*
X118167200Y-131418400D01*
X112747200Y-133858400D02*
X112747200Y-132408400D01*
X112747200Y-132408400D02*
X114547200Y-132408400D01*
X119967200Y-132408400D02*
X118167200Y-132408400D01*
%TO.C,J18*%
X61804200Y-118873400D02*
X63254200Y-118873400D01*
X58984200Y-128573400D02*
X58984200Y-120143400D01*
X63254200Y-129843400D02*
X63254200Y-128043400D01*
X63254200Y-128043400D02*
X64244200Y-128043400D01*
X61804200Y-129843400D02*
X63254200Y-129843400D01*
X63254200Y-118873400D02*
X63254200Y-120673400D01*
%TO.C,J21*%
X136012200Y-103873400D02*
X136012200Y-102073400D01*
X136012200Y-95403400D02*
X136012200Y-97203400D01*
X137462200Y-103873400D02*
X136012200Y-103873400D01*
X137462200Y-95403400D02*
X136012200Y-95403400D01*
X136012200Y-97203400D02*
X135022200Y-97203400D01*
X140282200Y-96673400D02*
X140282200Y-102603400D01*
%TO.C,J22*%
X137442200Y-112750066D02*
X135992200Y-112750066D01*
X135992200Y-112750066D02*
X135992200Y-110950066D01*
X137442200Y-104280066D02*
X135992200Y-104280066D01*
X140262200Y-105550066D02*
X140262200Y-111480066D01*
X135992200Y-106080066D02*
X135002200Y-106080066D01*
X135992200Y-104280066D02*
X135992200Y-106080066D01*
%TO.C,J23*%
X136042200Y-114956732D02*
X135052200Y-114956732D01*
X137492200Y-113156732D02*
X136042200Y-113156732D01*
X140312200Y-114426732D02*
X140312200Y-120356732D01*
X136042200Y-121626732D02*
X136042200Y-119826732D01*
X137492200Y-121626732D02*
X136042200Y-121626732D01*
X136042200Y-113156732D02*
X136042200Y-114956732D01*
%TO.C,J24*%
X136022200Y-123833398D02*
X135032200Y-123833398D01*
X136022200Y-130503398D02*
X136022200Y-128703398D01*
X137472200Y-122033398D02*
X136022200Y-122033398D01*
X140292200Y-123303398D02*
X140292200Y-129233398D01*
X137472200Y-130503398D02*
X136022200Y-130503398D01*
X136022200Y-122033398D02*
X136022200Y-123833398D01*
%TO.C,J17*%
X63232200Y-109683400D02*
X63232200Y-111483400D01*
X58962200Y-116883400D02*
X58962200Y-110953400D01*
X61782200Y-109683400D02*
X63232200Y-109683400D01*
X63232200Y-118153400D02*
X63232200Y-116353400D01*
X61782200Y-118153400D02*
X63232200Y-118153400D01*
X63232200Y-116353400D02*
X64222200Y-116353400D01*
%TO.C,C1*%
X118532200Y-115208400D02*
X118532200Y-115708400D01*
X119332200Y-115708400D02*
X119332200Y-115208400D01*
%TO.C,C2*%
X119222200Y-99078400D02*
X119222200Y-98578400D01*
X118422200Y-98578400D02*
X118422200Y-99078400D01*
%TO.C,C3*%
X119332200Y-114408400D02*
X119332200Y-113908400D01*
X118532200Y-113908400D02*
X118532200Y-114408400D01*
%TO.C,C4*%
X118462200Y-97238400D02*
X118462200Y-97738400D01*
X119262200Y-97738400D02*
X119262200Y-97238400D01*
%TO.C,C6*%
X131962200Y-98878400D02*
X131962200Y-98378400D01*
X131162200Y-98378400D02*
X131162200Y-98878400D01*
%TO.C,R4*%
X132022200Y-97338400D02*
X132022200Y-97578400D01*
X131142200Y-97578400D02*
X131142200Y-97338400D01*
%TO.C,R16*%
X68042900Y-136898800D02*
X67802900Y-136898800D01*
X67802900Y-136018800D02*
X68042900Y-136018800D01*
%TO.C,R17*%
X69187200Y-135993400D02*
X69427200Y-135993400D01*
X69427200Y-136873400D02*
X69187200Y-136873400D01*
D12*
%TO.C,U1*%
X128283400Y-120970400D02*
X128283400Y-109032400D01*
X128283400Y-109286400D02*
X128283400Y-108778400D01*
X121779400Y-108788400D02*
X121779400Y-109296400D01*
X121779400Y-121215400D02*
X121779400Y-121469400D01*
X128283400Y-121224400D02*
X128283400Y-120970400D01*
X128283400Y-121224400D02*
X128283400Y-121478400D01*
X121779400Y-109026400D02*
X121779400Y-121218400D01*
X128383400Y-108772400D02*
X121779400Y-108772400D01*
X121779400Y-121482400D02*
X128283400Y-121478400D01*
%TO.C,U2*%
X128403400Y-91978400D02*
X121889400Y-91978400D01*
X128403400Y-104424400D02*
X128403400Y-104170400D01*
X121889400Y-104679400D02*
X128403400Y-104678400D01*
X128403400Y-104424400D02*
X128403400Y-104678400D01*
X128403400Y-104170400D02*
X128403400Y-92232400D01*
X128403400Y-92486400D02*
X128403400Y-91978400D01*
X121889400Y-104425400D02*
X121889400Y-104679400D01*
X121889400Y-92232400D02*
X121889400Y-104424400D01*
X121889400Y-91978400D02*
X121889400Y-92486400D01*
D13*
%TO.C,C5*%
X131992200Y-115798400D02*
X131492200Y-115798400D01*
X131492200Y-116598400D02*
X131992200Y-116598400D01*
%TO.C,R3*%
X131972200Y-115048400D02*
X131972200Y-115288400D01*
X131092200Y-115288400D02*
X131092200Y-115048400D01*
%TO.C,C32*%
X72947200Y-98994652D02*
X72947200Y-98472148D01*
X74417200Y-98994652D02*
X74417200Y-98472148D01*
%TO.C,G\u002A\u002A\u002A*%
G36*
X86823672Y-135165688D02*
G01*
X86625234Y-135165688D01*
X86625234Y-134141495D01*
X86823672Y-134141495D01*
X86823672Y-135165688D01*
G37*
G36*
X85983513Y-134136531D02*
G01*
X86084332Y-134138294D01*
X86085970Y-134655192D01*
X86087609Y-135172090D01*
X85882694Y-135172090D01*
X85882694Y-134134769D01*
X85983513Y-134136531D01*
G37*
G36*
X85741868Y-134301525D02*
G01*
X84871303Y-134301525D01*
X84871303Y-134141495D01*
X85741868Y-134141495D01*
X85741868Y-134301525D01*
G37*
G36*
X85741868Y-134743209D02*
G01*
X84916111Y-134743209D01*
X84916111Y-134589580D01*
X85741868Y-134589580D01*
X85741868Y-134743209D01*
G37*
G36*
X82368430Y-134551172D02*
G01*
X83206989Y-134551172D01*
X83206989Y-134141495D01*
X83405426Y-134141495D01*
X83405426Y-135172090D01*
X83206989Y-135172090D01*
X83206989Y-134704801D01*
X82368430Y-134704801D01*
X82368430Y-135172090D01*
X82169993Y-135172090D01*
X82169993Y-134141495D01*
X82368430Y-134141495D01*
X82368430Y-134551172D01*
G37*
G36*
X85741868Y-135172090D02*
G01*
X84871303Y-135172090D01*
X84871303Y-135018461D01*
X85741868Y-135018461D01*
X85741868Y-135172090D01*
G37*
G36*
X81989584Y-134847228D02*
G01*
X81989500Y-134853387D01*
X81988809Y-134899585D01*
X81988038Y-134935122D01*
X81986991Y-134961914D01*
X81985473Y-134981880D01*
X81983289Y-134996936D01*
X81980244Y-135008999D01*
X81976142Y-135019987D01*
X81970788Y-135031817D01*
X81960890Y-135050416D01*
X81929607Y-135090320D01*
X81888411Y-135122488D01*
X81837706Y-135146647D01*
X81777895Y-135162524D01*
X81761196Y-135164827D01*
X81726617Y-135167551D01*
X81679793Y-135169581D01*
X81621040Y-135170906D01*
X81550676Y-135171512D01*
X81369841Y-135172090D01*
X81369841Y-135018461D01*
X81526356Y-135018461D01*
X81585048Y-135018196D01*
X81633138Y-135017260D01*
X81671438Y-135015451D01*
X81701460Y-135012570D01*
X81724713Y-135008417D01*
X81742708Y-135002791D01*
X81756955Y-134995493D01*
X81768965Y-134986323D01*
X81789121Y-134968326D01*
X81791080Y-134833363D01*
X81793040Y-134698400D01*
X81991610Y-134698400D01*
X81989584Y-134847228D01*
G37*
G36*
X80486474Y-135172090D02*
G01*
X80300947Y-135172090D01*
X80299293Y-134815881D01*
X80297639Y-134459673D01*
X79779141Y-135171759D01*
X79697734Y-135171924D01*
X79616327Y-135172090D01*
X79100613Y-134461998D01*
X79098958Y-134817044D01*
X79097304Y-135172090D01*
X78911777Y-135172090D01*
X78911777Y-134141495D01*
X79083518Y-134141495D01*
X79383374Y-134555973D01*
X79401328Y-134580776D01*
X79447416Y-134644305D01*
X79491191Y-134704452D01*
X79532080Y-134760438D01*
X79569509Y-134811485D01*
X79602902Y-134856814D01*
X79631685Y-134895648D01*
X79655284Y-134927207D01*
X79673124Y-134950713D01*
X79684631Y-134965387D01*
X79689231Y-134970452D01*
X79690078Y-134969763D01*
X79697289Y-134961103D01*
X79711214Y-134943133D01*
X79731276Y-134916629D01*
X79756898Y-134882371D01*
X79787504Y-134841137D01*
X79822518Y-134793706D01*
X79861361Y-134740855D01*
X79903458Y-134683364D01*
X79948233Y-134622011D01*
X79995107Y-134557574D01*
X80294982Y-134144695D01*
X80486474Y-134141161D01*
X80486474Y-135172090D01*
G37*
G36*
X80858864Y-134825973D02*
G01*
X80859832Y-134873805D01*
X80861344Y-134910750D01*
X80863948Y-134938498D01*
X80868193Y-134958854D01*
X80874628Y-134973623D01*
X80883803Y-134984611D01*
X80896267Y-134993620D01*
X80912568Y-135002458D01*
X80913936Y-135003144D01*
X80922477Y-135006853D01*
X80932393Y-135009766D01*
X80945317Y-135012004D01*
X80962882Y-135013688D01*
X80986720Y-135014940D01*
X81018462Y-135015882D01*
X81059742Y-135016634D01*
X81112193Y-135017318D01*
X81286626Y-135019377D01*
X81286626Y-135172090D01*
X81108992Y-135172041D01*
X81061899Y-135171807D01*
X81015061Y-135171140D01*
X80972393Y-135170104D01*
X80936054Y-135168766D01*
X80908202Y-135167191D01*
X80890993Y-135165443D01*
X80841945Y-135154844D01*
X80786807Y-135134418D01*
X80741837Y-135106487D01*
X80706851Y-135070957D01*
X80697300Y-135057796D01*
X80686517Y-135039917D01*
X80678223Y-135020696D01*
X80672041Y-134998224D01*
X80667595Y-134970591D01*
X80664509Y-134935887D01*
X80662408Y-134892202D01*
X80660914Y-134837626D01*
X80657898Y-134698400D01*
X80856784Y-134698400D01*
X80858864Y-134825973D01*
G37*
G36*
X86452402Y-135172090D02*
G01*
X86253964Y-135172090D01*
X86253964Y-134141495D01*
X86452402Y-134141495D01*
X86452402Y-135172090D01*
G37*
G36*
X78113507Y-134671536D02*
G01*
X78146296Y-134692387D01*
X78167512Y-134715868D01*
X78184413Y-134750964D01*
X78189804Y-134791627D01*
X78186887Y-134818526D01*
X78172956Y-134855036D01*
X78148561Y-134885231D01*
X78114826Y-134907376D01*
X78111794Y-134908675D01*
X78083500Y-134914783D01*
X78050592Y-134914168D01*
X78018289Y-134907361D01*
X77991809Y-134894889D01*
X77985388Y-134890142D01*
X77959212Y-134862172D01*
X77943035Y-134828947D01*
X77936988Y-134792911D01*
X77941201Y-134756509D01*
X77955807Y-134722186D01*
X77980937Y-134692387D01*
X78004188Y-134676182D01*
X78039827Y-134663434D01*
X78077142Y-134661885D01*
X78113507Y-134671536D01*
G37*
G36*
X84110139Y-134141507D02*
G01*
X84186859Y-134141560D01*
X84252680Y-134141679D01*
X84308575Y-134141888D01*
X84355514Y-134142211D01*
X84394469Y-134142674D01*
X84426412Y-134143300D01*
X84452313Y-134144113D01*
X84473146Y-134145139D01*
X84489880Y-134146401D01*
X84503487Y-134147924D01*
X84514940Y-134149733D01*
X84525208Y-134151851D01*
X84535264Y-134154304D01*
X84555953Y-134160069D01*
X84605192Y-134179097D01*
X84644496Y-134203723D01*
X84675506Y-134235146D01*
X84699864Y-134274567D01*
X84720875Y-134317231D01*
X84722755Y-134640171D01*
X84723069Y-134695659D01*
X84723377Y-134759741D01*
X84723523Y-134813091D01*
X84723471Y-134856896D01*
X84723186Y-134892343D01*
X84722630Y-134920616D01*
X84721768Y-134942903D01*
X84720563Y-134960389D01*
X84718979Y-134974261D01*
X84716980Y-134985705D01*
X84714530Y-134995907D01*
X84711592Y-135006052D01*
X84711492Y-135006380D01*
X84691092Y-135051949D01*
X84660149Y-135090961D01*
X84619464Y-135122788D01*
X84569835Y-135146803D01*
X84512064Y-135162381D01*
X84507743Y-135163086D01*
X84493033Y-135164772D01*
X84472804Y-135166232D01*
X84446245Y-135167478D01*
X84412547Y-135168528D01*
X84370901Y-135169395D01*
X84320499Y-135170094D01*
X84260531Y-135170641D01*
X84190188Y-135171049D01*
X84108661Y-135171335D01*
X84015141Y-135171512D01*
X83565456Y-135172090D01*
X83565456Y-135018878D01*
X84008740Y-135017069D01*
X84069769Y-135016814D01*
X84147725Y-135016456D01*
X84214467Y-135016083D01*
X84270932Y-135015668D01*
X84318059Y-135015182D01*
X84356786Y-135014598D01*
X84388051Y-135013886D01*
X84412792Y-135013019D01*
X84431948Y-135011968D01*
X84446457Y-135010705D01*
X84457257Y-135009202D01*
X84465286Y-135007431D01*
X84471482Y-135005363D01*
X84476784Y-135002970D01*
X84480966Y-135000712D01*
X84499820Y-134986736D01*
X84513670Y-134970964D01*
X84514445Y-134969677D01*
X84517131Y-134964401D01*
X84519344Y-134957802D01*
X84521121Y-134948731D01*
X84522500Y-134936042D01*
X84523517Y-134918585D01*
X84524209Y-134895214D01*
X84524615Y-134864779D01*
X84524772Y-134826135D01*
X84524716Y-134778131D01*
X84524485Y-134719622D01*
X84524116Y-134649458D01*
X84524095Y-134645584D01*
X84523732Y-134574179D01*
X84523381Y-134514409D01*
X84522871Y-134465163D01*
X84522029Y-134425331D01*
X84520685Y-134393801D01*
X84518666Y-134369463D01*
X84515800Y-134351206D01*
X84511917Y-134337920D01*
X84506845Y-134328492D01*
X84500411Y-134321814D01*
X84492445Y-134316773D01*
X84482774Y-134312260D01*
X84471227Y-134307163D01*
X84468879Y-134306128D01*
X84462926Y-134303970D01*
X84455481Y-134302121D01*
X84445602Y-134300557D01*
X84432345Y-134299253D01*
X84414768Y-134298185D01*
X84391929Y-134297330D01*
X84362885Y-134296662D01*
X84326694Y-134296160D01*
X84282413Y-134295797D01*
X84229099Y-134295550D01*
X84165811Y-134295395D01*
X84091605Y-134295308D01*
X84005539Y-134295265D01*
X83565456Y-134295124D01*
X83565456Y-134141495D01*
X84025319Y-134141495D01*
X84110139Y-134141507D01*
G37*
G36*
X80280780Y-132668518D02*
G01*
X80303336Y-132676601D01*
X80352865Y-132703260D01*
X80397237Y-132739529D01*
X80433528Y-132783214D01*
X80437988Y-132789812D01*
X80446282Y-132802018D01*
X80453490Y-132813197D01*
X80459691Y-132824271D01*
X80464965Y-132836162D01*
X80469392Y-132849791D01*
X80473052Y-132866081D01*
X80476024Y-132885955D01*
X80478388Y-132910332D01*
X80480224Y-132940136D01*
X80481611Y-132976289D01*
X80482630Y-133019712D01*
X80483360Y-133071327D01*
X80483880Y-133132057D01*
X80484271Y-133202823D01*
X80484612Y-133284547D01*
X80484983Y-133378151D01*
X80487000Y-133866243D01*
X80300839Y-133866243D01*
X80300839Y-132927978D01*
X80286437Y-132899791D01*
X80270406Y-132874948D01*
X80245254Y-132853475D01*
X80213951Y-132842709D01*
X80208536Y-132842523D01*
X80190730Y-132842341D01*
X80161183Y-132842210D01*
X80120478Y-132842127D01*
X80069203Y-132842092D01*
X80007941Y-132842102D01*
X79937278Y-132842155D01*
X79857800Y-132842249D01*
X79770091Y-132842383D01*
X79674738Y-132842554D01*
X79572325Y-132842761D01*
X79463437Y-132843001D01*
X79348661Y-132843273D01*
X79228581Y-132843575D01*
X79103782Y-132843905D01*
X78974851Y-132844261D01*
X78842372Y-132844641D01*
X78706930Y-132845043D01*
X78569111Y-132845465D01*
X78429500Y-132845906D01*
X78288683Y-132846364D01*
X78147244Y-132846836D01*
X78005770Y-132847321D01*
X77864845Y-132847816D01*
X77725054Y-132848321D01*
X77586984Y-132848832D01*
X77451219Y-132849348D01*
X77318345Y-132849868D01*
X77188946Y-132850389D01*
X77063609Y-132850909D01*
X76942918Y-132851427D01*
X76827459Y-132851940D01*
X76717817Y-132852447D01*
X76614578Y-132852945D01*
X76518327Y-132853433D01*
X76429648Y-132853910D01*
X76349128Y-132854372D01*
X76277352Y-132854818D01*
X76214904Y-132855247D01*
X76162371Y-132855655D01*
X76120338Y-132856042D01*
X75924590Y-132858052D01*
X75901090Y-132875987D01*
X75896041Y-132880092D01*
X75878844Y-132897334D01*
X75866395Y-132914394D01*
X75865344Y-132916708D01*
X75864279Y-132920245D01*
X75863291Y-132925287D01*
X75862377Y-132932286D01*
X75861534Y-132941695D01*
X75860760Y-132953964D01*
X75860051Y-132969546D01*
X75859405Y-132988893D01*
X75858818Y-133012457D01*
X75858289Y-133040689D01*
X75857813Y-133074042D01*
X75857389Y-133112967D01*
X75857013Y-133157916D01*
X75856682Y-133209341D01*
X75856393Y-133267694D01*
X75856145Y-133333427D01*
X75855933Y-133406992D01*
X75855754Y-133488840D01*
X75855607Y-133579423D01*
X75855488Y-133679194D01*
X75855394Y-133788605D01*
X75855323Y-133908106D01*
X75855271Y-134038150D01*
X75855235Y-134179189D01*
X75855213Y-134331675D01*
X75855202Y-134496060D01*
X75855199Y-134672795D01*
X75855199Y-134691351D01*
X75855221Y-134839474D01*
X75855277Y-134984280D01*
X75855365Y-135125242D01*
X75855484Y-135261833D01*
X75855632Y-135393526D01*
X75855808Y-135519793D01*
X75856011Y-135640109D01*
X75856240Y-135753946D01*
X75856491Y-135860777D01*
X75856766Y-135960075D01*
X75857061Y-136051314D01*
X75857375Y-136133965D01*
X75857707Y-136207503D01*
X75858056Y-136271401D01*
X75858420Y-136325130D01*
X75858798Y-136368165D01*
X75859188Y-136399979D01*
X75859588Y-136420044D01*
X75859998Y-136427834D01*
X75860984Y-136430824D01*
X75869680Y-136447984D01*
X75882104Y-136465511D01*
X75882923Y-136466526D01*
X75885309Y-136470061D01*
X75887083Y-136473372D01*
X75888651Y-136476467D01*
X75890421Y-136479351D01*
X75892799Y-136482030D01*
X75896192Y-136484510D01*
X75901005Y-136486797D01*
X75907645Y-136488897D01*
X75916519Y-136490815D01*
X75928034Y-136492558D01*
X75942595Y-136494132D01*
X75960610Y-136495543D01*
X75982484Y-136496796D01*
X76008625Y-136497898D01*
X76039438Y-136498854D01*
X76075331Y-136499670D01*
X76116709Y-136500353D01*
X76163979Y-136500909D01*
X76217548Y-136501342D01*
X76277822Y-136501660D01*
X76345208Y-136501868D01*
X76420112Y-136501973D01*
X76502940Y-136501979D01*
X76594100Y-136501893D01*
X76693997Y-136501722D01*
X76803038Y-136501470D01*
X76921629Y-136501144D01*
X77050178Y-136500750D01*
X77189090Y-136500294D01*
X77338772Y-136499781D01*
X77499631Y-136499218D01*
X77672072Y-136498611D01*
X77856503Y-136497965D01*
X78053330Y-136497287D01*
X78062806Y-136497255D01*
X78226558Y-136496686D01*
X78387147Y-136496109D01*
X78544093Y-136495527D01*
X78696913Y-136494942D01*
X78845125Y-136494356D01*
X78988247Y-136493771D01*
X79125797Y-136493191D01*
X79257293Y-136492616D01*
X79382252Y-136492051D01*
X79500194Y-136491496D01*
X79610635Y-136490955D01*
X79713094Y-136490429D01*
X79807090Y-136489922D01*
X79892138Y-136489435D01*
X79967759Y-136488971D01*
X80033469Y-136488532D01*
X80088787Y-136488120D01*
X80133231Y-136487739D01*
X80166319Y-136487389D01*
X80187568Y-136487074D01*
X80196497Y-136486797D01*
X80199619Y-136486457D01*
X80236275Y-136476725D01*
X80265050Y-136456988D01*
X80286437Y-136426919D01*
X80300839Y-136398409D01*
X80300839Y-135447342D01*
X80486994Y-135447342D01*
X80484983Y-135941835D01*
X80484755Y-136000000D01*
X80484416Y-136086953D01*
X80484060Y-136162570D01*
X80483610Y-136227765D01*
X80482987Y-136283453D01*
X80482113Y-136330549D01*
X80480909Y-136369968D01*
X80479298Y-136402624D01*
X80477200Y-136429433D01*
X80474538Y-136451309D01*
X80471234Y-136469167D01*
X80467208Y-136483922D01*
X80462384Y-136496489D01*
X80456682Y-136507783D01*
X80450024Y-136518718D01*
X80442332Y-136530210D01*
X80433528Y-136543173D01*
X80417383Y-136564742D01*
X80377916Y-136604167D01*
X80332047Y-136635991D01*
X80283187Y-136657617D01*
X80240028Y-136671350D01*
X78412482Y-136679252D01*
X78368178Y-136679444D01*
X78159098Y-136680348D01*
X77962361Y-136681199D01*
X77777587Y-136681997D01*
X77604394Y-136682743D01*
X77442403Y-136683436D01*
X77291231Y-136684077D01*
X77150499Y-136684667D01*
X77019825Y-136685206D01*
X76898828Y-136685695D01*
X76787128Y-136686133D01*
X76684343Y-136686522D01*
X76590093Y-136686861D01*
X76503997Y-136687152D01*
X76425675Y-136687394D01*
X76354744Y-136687588D01*
X76290824Y-136687735D01*
X76233535Y-136687834D01*
X76182496Y-136687887D01*
X76137325Y-136687893D01*
X76097641Y-136687853D01*
X76063065Y-136687768D01*
X76033214Y-136687638D01*
X76007709Y-136687464D01*
X75986168Y-136687245D01*
X75968210Y-136686982D01*
X75953455Y-136686676D01*
X75941521Y-136686327D01*
X75932028Y-136685936D01*
X75924595Y-136685502D01*
X75918841Y-136685027D01*
X75914385Y-136684511D01*
X75910846Y-136683954D01*
X75907843Y-136683356D01*
X75904996Y-136682719D01*
X75901923Y-136682042D01*
X75889385Y-136679107D01*
X75833998Y-136658529D01*
X75784409Y-136627524D01*
X75742117Y-136587450D01*
X75708620Y-136539667D01*
X75685414Y-136485535D01*
X75684962Y-136484059D01*
X75683719Y-136479697D01*
X75682563Y-136474830D01*
X75681492Y-136469003D01*
X75680502Y-136461761D01*
X75679589Y-136452649D01*
X75678751Y-136441210D01*
X75677985Y-136426989D01*
X75677287Y-136409530D01*
X75676654Y-136388379D01*
X75676083Y-136363080D01*
X75675571Y-136333177D01*
X75675115Y-136298215D01*
X75674711Y-136257738D01*
X75674356Y-136211291D01*
X75674047Y-136158418D01*
X75673780Y-136098664D01*
X75673554Y-136031574D01*
X75673364Y-135956691D01*
X75673207Y-135873561D01*
X75673080Y-135781728D01*
X75672980Y-135680736D01*
X75672904Y-135570130D01*
X75672848Y-135449454D01*
X75672810Y-135318254D01*
X75672785Y-135176073D01*
X75672772Y-135022456D01*
X75672766Y-134856948D01*
X75672765Y-134679093D01*
X75672766Y-134515496D01*
X75672773Y-134348885D01*
X75672789Y-134194205D01*
X75672816Y-134051001D01*
X75672858Y-133918818D01*
X75672917Y-133797202D01*
X75672997Y-133685698D01*
X75673102Y-133583851D01*
X75673232Y-133491207D01*
X75673393Y-133407310D01*
X75673587Y-133331707D01*
X75673817Y-133263941D01*
X75674086Y-133203560D01*
X75674397Y-133150106D01*
X75674754Y-133103127D01*
X75675158Y-133062168D01*
X75675614Y-133026773D01*
X75676125Y-132996488D01*
X75676693Y-132970858D01*
X75677321Y-132949428D01*
X75678013Y-132931744D01*
X75678771Y-132917351D01*
X75679600Y-132905794D01*
X75680500Y-132896619D01*
X75681477Y-132889370D01*
X75682533Y-132883594D01*
X75683670Y-132878834D01*
X75684892Y-132874638D01*
X75694645Y-132848088D01*
X75723026Y-132796818D01*
X75760863Y-132752690D01*
X75806647Y-132717002D01*
X75858866Y-132691050D01*
X75916011Y-132676133D01*
X75917851Y-132675945D01*
X75932127Y-132675317D01*
X75958896Y-132674671D01*
X75997923Y-132674008D01*
X76048971Y-132673329D01*
X76111804Y-132672636D01*
X76186185Y-132671931D01*
X76271879Y-132671215D01*
X76368649Y-132670489D01*
X76476259Y-132669754D01*
X76594472Y-132669014D01*
X76723053Y-132668268D01*
X76861765Y-132667518D01*
X77010372Y-132666767D01*
X77168638Y-132666015D01*
X77336326Y-132665264D01*
X77513200Y-132664515D01*
X77699024Y-132663770D01*
X77893562Y-132663030D01*
X78096577Y-132662298D01*
X80235535Y-132654775D01*
X80280780Y-132668518D01*
G37*
G36*
X78475793Y-134653617D02*
G01*
X78494424Y-134681687D01*
X78542120Y-134753592D01*
X78587572Y-134822177D01*
X78630296Y-134886709D01*
X78669808Y-134946452D01*
X78705624Y-135000673D01*
X78737258Y-135048637D01*
X78764226Y-135089611D01*
X78786045Y-135122860D01*
X78802230Y-135147649D01*
X78812296Y-135163245D01*
X78815759Y-135168914D01*
X78812069Y-135169735D01*
X78797521Y-135170674D01*
X78773873Y-135171419D01*
X78743209Y-135171912D01*
X78707617Y-135172090D01*
X78599474Y-135172090D01*
X78331545Y-134759515D01*
X78286890Y-134690784D01*
X78242951Y-134623260D01*
X78205068Y-134565211D01*
X78172772Y-134515960D01*
X78145595Y-134474827D01*
X78123068Y-134441137D01*
X78104722Y-134414211D01*
X78090089Y-134393371D01*
X78078700Y-134377940D01*
X78070087Y-134367240D01*
X78063780Y-134360593D01*
X78059312Y-134357323D01*
X78056213Y-134356750D01*
X78054015Y-134358198D01*
X78049221Y-134365103D01*
X78038073Y-134381981D01*
X78021158Y-134407931D01*
X77999036Y-134442081D01*
X77972268Y-134483563D01*
X77941414Y-134531505D01*
X77907037Y-134585038D01*
X77869695Y-134643291D01*
X77829951Y-134705394D01*
X77788365Y-134770477D01*
X77532316Y-135171498D01*
X77421362Y-135171794D01*
X77396776Y-135171741D01*
X77361381Y-135171135D01*
X77334618Y-135169943D01*
X77317876Y-135168239D01*
X77312541Y-135166095D01*
X77313026Y-135165228D01*
X77319010Y-135155772D01*
X77331402Y-135136624D01*
X77349713Y-135108529D01*
X77373457Y-135072229D01*
X77402144Y-135028470D01*
X77435286Y-134977994D01*
X77472396Y-134921545D01*
X77512984Y-134859867D01*
X77556563Y-134793705D01*
X77602644Y-134723800D01*
X77650739Y-134650899D01*
X77986802Y-134141698D01*
X78061315Y-134141596D01*
X78135828Y-134141495D01*
X78475793Y-134653617D01*
G37*
G36*
X81579481Y-134143152D02*
G01*
X81617475Y-134143658D01*
X81671073Y-134144571D01*
X81714082Y-134145638D01*
X81747886Y-134146933D01*
X81773866Y-134148530D01*
X81793405Y-134150500D01*
X81807884Y-134152919D01*
X81818685Y-134155860D01*
X81868022Y-134176209D01*
X81910429Y-134202540D01*
X81943489Y-134234727D01*
X81968734Y-134273973D01*
X81987533Y-134311127D01*
X81989662Y-134459955D01*
X81991790Y-134608783D01*
X81792321Y-134608783D01*
X81792321Y-134353180D01*
X81773425Y-134331659D01*
X81765452Y-134323227D01*
X81754976Y-134314711D01*
X81742393Y-134308097D01*
X81726178Y-134303149D01*
X81704802Y-134299630D01*
X81676736Y-134297304D01*
X81640455Y-134295935D01*
X81594429Y-134295287D01*
X81537130Y-134295124D01*
X81369841Y-134295124D01*
X81369841Y-134140565D01*
X81579481Y-134143152D01*
G37*
G36*
X81286626Y-134294393D02*
G01*
X81105791Y-134296359D01*
X81096546Y-134296456D01*
X81035944Y-134297098D01*
X80986762Y-134298263D01*
X80947794Y-134300858D01*
X80917831Y-134305792D01*
X80895667Y-134313972D01*
X80880095Y-134326306D01*
X80869908Y-134343701D01*
X80863898Y-134367066D01*
X80860859Y-134397308D01*
X80859584Y-134435336D01*
X80858864Y-134482055D01*
X80856784Y-134608783D01*
X80659307Y-134608783D01*
X80659434Y-134498362D01*
X80659604Y-134473926D01*
X80660441Y-134433911D01*
X80661851Y-134396805D01*
X80663697Y-134365905D01*
X80665841Y-134344509D01*
X80666727Y-134338789D01*
X80681111Y-134286787D01*
X80705770Y-134242410D01*
X80740656Y-134205726D01*
X80785722Y-134176801D01*
X80802080Y-134169101D01*
X80822331Y-134161197D01*
X80844069Y-134154936D01*
X80868908Y-134150134D01*
X80898465Y-134146608D01*
X80934356Y-134144176D01*
X80978196Y-134142654D01*
X81031602Y-134141858D01*
X81096190Y-134141606D01*
X81286626Y-134141495D01*
X81286626Y-134294393D01*
G37*
G36*
X76198828Y-134141815D02*
G01*
X76309685Y-134142135D01*
X76571643Y-134551492D01*
X76576725Y-134559433D01*
X76618426Y-134624502D01*
X76658090Y-134686244D01*
X76695180Y-134743830D01*
X76729157Y-134796429D01*
X76759482Y-134843212D01*
X76785616Y-134883349D01*
X76807020Y-134916011D01*
X76823155Y-134940368D01*
X76833484Y-134955591D01*
X76837467Y-134960850D01*
X76837625Y-134960743D01*
X76842573Y-134954055D01*
X76853849Y-134937554D01*
X76870912Y-134912065D01*
X76893219Y-134878413D01*
X76920227Y-134837424D01*
X76951395Y-134789921D01*
X76986179Y-134736729D01*
X77024038Y-134678673D01*
X77064429Y-134616579D01*
X77106810Y-134551270D01*
X77372286Y-134141689D01*
X77482707Y-134141592D01*
X77512721Y-134141725D01*
X77544804Y-134142271D01*
X77570275Y-134143169D01*
X77587071Y-134144339D01*
X77593128Y-134145706D01*
X77592642Y-134146662D01*
X77586657Y-134156246D01*
X77574237Y-134175473D01*
X77555866Y-134203606D01*
X77532031Y-134239910D01*
X77503218Y-134283649D01*
X77469912Y-134334087D01*
X77432599Y-134390488D01*
X77391764Y-134452116D01*
X77347894Y-134518235D01*
X77301475Y-134588110D01*
X77252991Y-134661004D01*
X76912855Y-135172090D01*
X76769014Y-135172090D01*
X76440637Y-134674396D01*
X76432453Y-134661993D01*
X76384960Y-134590022D01*
X76339383Y-134520971D01*
X76296235Y-134455618D01*
X76256031Y-134394740D01*
X76219283Y-134339111D01*
X76186504Y-134289510D01*
X76158208Y-134246714D01*
X76134908Y-134211497D01*
X76117117Y-134184638D01*
X76105349Y-134166913D01*
X76100116Y-134159098D01*
X76087972Y-134141495D01*
X76198828Y-134141815D01*
G37*
%TO.C,C45*%
X108199364Y-107818400D02*
X108415036Y-107818400D01*
X108199364Y-107098400D02*
X108415036Y-107098400D01*
D11*
%TO.C,BT1*%
X114247199Y-108583400D02*
G75*
G03*
X110207200Y-110393400I-1645136J-1741711D01*
G01*
X112390200Y-112743400D02*
G75*
G03*
X113437200Y-112593400I98151J3043933D01*
G01*
D13*
%TO.C,J7*%
X68522200Y-100518400D02*
X68522200Y-99018400D01*
X68522200Y-99018400D02*
X61262200Y-99018400D01*
X68522200Y-108518400D02*
X68522200Y-107018400D01*
X68522200Y-108518400D02*
X61262200Y-108518400D01*
%TO.C,J29*%
X130452200Y-94578400D02*
X137712200Y-94578400D01*
X130452200Y-85078400D02*
X137712200Y-85078400D01*
X130452200Y-85078400D02*
X130452200Y-86578400D01*
X130452200Y-93078400D02*
X130452200Y-94578400D01*
%TO.C,D8*%
X84202200Y-129628400D02*
X84202200Y-124228400D01*
X87502200Y-129628400D02*
X84202200Y-129628400D01*
X87502200Y-129628400D02*
X87502200Y-124228400D01*
%TO.C,D9*%
X78482200Y-129658400D02*
X78482200Y-124258400D01*
X78482200Y-129658400D02*
X75182200Y-129658400D01*
X75182200Y-129658400D02*
X75182200Y-124258400D01*
%TO.C,U8*%
X107247200Y-102833400D02*
X107247200Y-103633400D01*
X110367200Y-102833400D02*
X110367200Y-103633400D01*
X107247200Y-102833400D02*
X107247200Y-101033400D01*
X110367200Y-102833400D02*
X110367200Y-102033400D01*
%TO.C,G\u002A\u002A\u002A*%
G36*
X128012536Y-79968652D02*
G01*
X128012536Y-79595122D01*
X127652347Y-79594956D01*
X127572395Y-79594807D01*
X127475138Y-79594097D01*
X127395256Y-79592571D01*
X127330420Y-79589978D01*
X127278300Y-79586064D01*
X127236567Y-79580575D01*
X127202890Y-79573258D01*
X127174942Y-79563860D01*
X127150391Y-79552126D01*
X127126909Y-79537805D01*
X127117496Y-79530926D01*
X127085168Y-79499393D01*
X127060247Y-79464375D01*
X127052958Y-79449853D01*
X127045387Y-79429806D01*
X127040461Y-79406206D01*
X127037627Y-79374606D01*
X127036332Y-79330559D01*
X127036069Y-79278443D01*
X127233606Y-79278443D01*
X127233832Y-79319205D01*
X127235645Y-79350924D01*
X127240456Y-79371845D01*
X127249661Y-79387605D01*
X127264657Y-79403842D01*
X127295852Y-79435038D01*
X128012536Y-79435038D01*
X128012536Y-79104198D01*
X127659822Y-79104198D01*
X127557669Y-79104339D01*
X127472733Y-79104954D01*
X127405042Y-79106316D01*
X127352527Y-79108699D01*
X127313120Y-79112378D01*
X127284752Y-79117626D01*
X127265354Y-79124719D01*
X127252858Y-79133929D01*
X127245196Y-79145531D01*
X127240299Y-79159800D01*
X127239189Y-79165294D01*
X127236384Y-79192820D01*
X127234399Y-79232743D01*
X127233606Y-79278443D01*
X127036069Y-79278443D01*
X127036024Y-79269618D01*
X127036175Y-79222900D01*
X127037145Y-79174914D01*
X127039507Y-79140521D01*
X127043819Y-79115260D01*
X127050642Y-79094672D01*
X127060534Y-79074298D01*
X127072976Y-79054625D01*
X127115486Y-79011410D01*
X127171321Y-78977115D01*
X127235036Y-78955445D01*
X127253205Y-78953092D01*
X127294061Y-78950479D01*
X127353700Y-78948271D01*
X127430696Y-78946499D01*
X127523626Y-78945195D01*
X127631066Y-78944389D01*
X127751591Y-78944114D01*
X128215309Y-78944114D01*
X128215309Y-79968652D01*
X128012536Y-79968652D01*
G37*
G36*
X121155195Y-78955063D02*
G01*
X121230309Y-78955340D01*
X121338635Y-79117815D01*
X121366915Y-79160167D01*
X121407334Y-79220581D01*
X121455494Y-79292480D01*
X121509213Y-79372606D01*
X121566308Y-79457707D01*
X121624597Y-79544525D01*
X121681898Y-79629807D01*
X121916836Y-79979324D01*
X121693626Y-79979324D01*
X121425933Y-79573778D01*
X121379833Y-79504092D01*
X121327668Y-79425631D01*
X121280026Y-79354395D01*
X121238104Y-79292153D01*
X121203101Y-79240675D01*
X121176214Y-79201731D01*
X121158643Y-79177092D01*
X121151585Y-79168527D01*
X121146834Y-79174225D01*
X121131456Y-79196110D01*
X121106687Y-79232728D01*
X121073714Y-79282285D01*
X121033720Y-79342990D01*
X120987891Y-79413052D01*
X120937411Y-79490677D01*
X120883465Y-79574073D01*
X120621999Y-79979324D01*
X120393554Y-79979324D01*
X121080080Y-78954786D01*
X121155195Y-78955063D01*
G37*
G36*
X120296486Y-79979324D02*
G01*
X120093713Y-79979324D01*
X120093713Y-78954786D01*
X120296486Y-78954786D01*
X120296486Y-79979324D01*
G37*
G36*
X129782466Y-79661824D02*
G01*
X129781944Y-79682188D01*
X129779864Y-79739679D01*
X129776919Y-79781120D01*
X129772565Y-79810609D01*
X129766258Y-79832244D01*
X129757452Y-79850125D01*
X129724210Y-79892989D01*
X129669275Y-79934903D01*
X129602704Y-79962216D01*
X129567859Y-79968933D01*
X129514943Y-79974150D01*
X129444466Y-79977338D01*
X129354574Y-79978622D01*
X129165141Y-79979324D01*
X129165141Y-79820616D01*
X129352871Y-79817260D01*
X129380809Y-79816783D01*
X129449479Y-79815270D01*
X129500386Y-79811950D01*
X129536182Y-79804725D01*
X129559521Y-79791499D01*
X129573055Y-79770173D01*
X129579438Y-79738651D01*
X129581321Y-79694836D01*
X129581360Y-79636629D01*
X129581360Y-79509744D01*
X129786134Y-79509744D01*
X129782466Y-79661824D01*
G37*
G36*
X133530099Y-79114870D02*
G01*
X132654973Y-79114870D01*
X132654973Y-78954786D01*
X133530099Y-78954786D01*
X133530099Y-79114870D01*
G37*
G36*
X126497074Y-79979324D02*
G01*
X125461864Y-79979324D01*
X125461864Y-79819240D01*
X126294062Y-79819240D01*
X126296849Y-79384345D01*
X126299637Y-78949450D01*
X126398356Y-78946381D01*
X126497074Y-78943313D01*
X126497074Y-79979324D01*
G37*
G36*
X129079763Y-79104198D02*
G01*
X128903141Y-79104198D01*
X128882217Y-79104240D01*
X128809092Y-79105437D01*
X128753936Y-79108675D01*
X128714075Y-79114488D01*
X128686833Y-79123409D01*
X128669533Y-79135969D01*
X128659502Y-79152701D01*
X128657018Y-79168492D01*
X128654865Y-79201282D01*
X128653408Y-79245815D01*
X128652873Y-79297172D01*
X128652873Y-79424366D01*
X128448098Y-79424366D01*
X128451767Y-79272286D01*
X128452419Y-79248729D01*
X128456068Y-79178858D01*
X128462859Y-79125470D01*
X128474127Y-79084823D01*
X128491206Y-79053174D01*
X128515430Y-79026782D01*
X128548132Y-79001904D01*
X128553329Y-78998456D01*
X128587646Y-78979638D01*
X128627042Y-78965433D01*
X128674752Y-78955309D01*
X128734010Y-78948735D01*
X128808053Y-78945181D01*
X128900115Y-78944114D01*
X129079763Y-78944114D01*
X129079763Y-79104198D01*
G37*
G36*
X130157662Y-79349660D02*
G01*
X131000772Y-79349660D01*
X131000772Y-78944114D01*
X131192873Y-78944114D01*
X131192873Y-79979324D01*
X131000772Y-79979324D01*
X131000772Y-79509744D01*
X130157662Y-79509744D01*
X130157662Y-79979324D01*
X129965562Y-79979324D01*
X129965562Y-78944114D01*
X130157662Y-78944114D01*
X130157662Y-79349660D01*
G37*
G36*
X121202815Y-79459910D02*
G01*
X121245497Y-79489221D01*
X121246213Y-79489942D01*
X121275222Y-79532751D01*
X121284639Y-79579758D01*
X121274481Y-79626806D01*
X121244765Y-79669739D01*
X121239548Y-79674708D01*
X121213172Y-79694615D01*
X121190198Y-79705092D01*
X121158165Y-79707532D01*
X121111677Y-79698606D01*
X121072199Y-79677110D01*
X121046278Y-79645745D01*
X121036809Y-79623487D01*
X121026758Y-79573570D01*
X121036290Y-79529632D01*
X121065710Y-79489221D01*
X121065996Y-79488936D01*
X121108725Y-79459767D01*
X121155778Y-79450092D01*
X121202815Y-79459910D01*
G37*
G36*
X133871612Y-79979324D02*
G01*
X133668839Y-79979324D01*
X133668839Y-78944114D01*
X133871612Y-78944114D01*
X133871612Y-79979324D01*
G37*
G36*
X132329469Y-78949450D02*
G01*
X132380476Y-78974785D01*
X132381822Y-78975458D01*
X132439589Y-79015104D01*
X132481381Y-79066790D01*
X132505071Y-79127904D01*
X132506050Y-79133240D01*
X132509486Y-79166616D01*
X132512197Y-79216582D01*
X132514185Y-79279347D01*
X132515455Y-79351124D01*
X132516010Y-79428121D01*
X132515852Y-79506550D01*
X132514985Y-79582622D01*
X132513413Y-79652546D01*
X132511139Y-79712533D01*
X132508166Y-79758794D01*
X132504497Y-79787539D01*
X132499959Y-79805171D01*
X132471547Y-79864105D01*
X132426069Y-79911616D01*
X132364997Y-79946472D01*
X132289801Y-79967441D01*
X132283976Y-79968187D01*
X132254137Y-79970234D01*
X132206506Y-79972163D01*
X132143703Y-79973918D01*
X132068349Y-79975443D01*
X131983065Y-79976682D01*
X131890471Y-79977579D01*
X131793188Y-79978076D01*
X131352957Y-79979324D01*
X131352957Y-79820113D01*
X131807461Y-79817008D01*
X132261966Y-79813904D01*
X132287713Y-79783960D01*
X132313461Y-79754016D01*
X132313461Y-79456970D01*
X132313425Y-79381832D01*
X132312979Y-79303444D01*
X132311566Y-79242293D01*
X132308628Y-79196079D01*
X132303606Y-79162502D01*
X132295942Y-79139261D01*
X132285077Y-79124055D01*
X132270453Y-79114585D01*
X132251512Y-79108549D01*
X132227695Y-79103647D01*
X132225952Y-79103351D01*
X132201946Y-79101294D01*
X132159628Y-79099384D01*
X132101660Y-79097677D01*
X132030703Y-79096228D01*
X131949417Y-79095094D01*
X131860465Y-79094329D01*
X131766507Y-79093990D01*
X131352957Y-79093526D01*
X131352957Y-78943112D01*
X132329469Y-78949450D01*
G37*
G36*
X133530099Y-79979324D02*
G01*
X132654973Y-79979324D01*
X132654973Y-79829912D01*
X133530099Y-79829912D01*
X133530099Y-79979324D01*
G37*
G36*
X133530099Y-79552433D02*
G01*
X132697662Y-79552433D01*
X132697662Y-79403021D01*
X133530099Y-79403021D01*
X133530099Y-79552433D01*
G37*
G36*
X128652873Y-79631602D02*
G01*
X128653292Y-79675360D01*
X128654685Y-79720030D01*
X128656822Y-79753476D01*
X128659464Y-79770638D01*
X128662343Y-79777013D01*
X128673078Y-79790242D01*
X128691166Y-79800218D01*
X128719404Y-79807523D01*
X128760590Y-79812741D01*
X128817522Y-79816452D01*
X128892999Y-79819240D01*
X129074427Y-79824576D01*
X129077582Y-79902905D01*
X129080737Y-79981235D01*
X128864137Y-79977611D01*
X128829787Y-79977021D01*
X128764144Y-79975646D01*
X128714763Y-79973925D01*
X128678099Y-79971454D01*
X128650606Y-79967825D01*
X128628739Y-79962632D01*
X128608951Y-79955469D01*
X128587697Y-79945928D01*
X128578771Y-79941624D01*
X128533845Y-79914587D01*
X128500128Y-79882029D01*
X128476260Y-79840879D01*
X128460883Y-79788063D01*
X128452636Y-79720509D01*
X128450159Y-79635143D01*
X128450099Y-79509744D01*
X128652873Y-79509744D01*
X128652873Y-79631602D01*
G37*
G36*
X125354880Y-79556060D02*
G01*
X125353734Y-79638181D01*
X125351296Y-79703794D01*
X125347159Y-79755438D01*
X125340918Y-79795650D01*
X125332166Y-79826971D01*
X125320497Y-79851938D01*
X125305505Y-79873090D01*
X125286783Y-79892965D01*
X125271896Y-79905509D01*
X125233502Y-79929987D01*
X125193108Y-79948355D01*
X125193024Y-79948385D01*
X125177372Y-79953245D01*
X125159829Y-79957239D01*
X125138233Y-79960452D01*
X125110423Y-79962970D01*
X125074237Y-79964879D01*
X125027513Y-79966266D01*
X124968091Y-79967215D01*
X124893809Y-79967814D01*
X124802505Y-79968148D01*
X124692018Y-79968303D01*
X124620093Y-79968329D01*
X124512194Y-79968111D01*
X124422430Y-79967343D01*
X124348772Y-79965773D01*
X124289190Y-79963147D01*
X124241655Y-79959213D01*
X124204140Y-79953717D01*
X124174614Y-79946407D01*
X124151050Y-79937030D01*
X124131417Y-79925332D01*
X124113687Y-79911061D01*
X124095831Y-79893963D01*
X124085011Y-79882764D01*
X124070109Y-79864722D01*
X124058269Y-79844801D01*
X124049143Y-79820567D01*
X124042381Y-79789588D01*
X124037632Y-79749430D01*
X124034547Y-79697662D01*
X124032777Y-79631849D01*
X124031971Y-79549559D01*
X124031799Y-79458318D01*
X124223881Y-79458318D01*
X124224111Y-79548070D01*
X124225146Y-79622687D01*
X124227463Y-79680567D01*
X124231540Y-79724056D01*
X124237856Y-79755501D01*
X124246889Y-79777248D01*
X124259116Y-79791644D01*
X124275016Y-79801036D01*
X124295066Y-79807771D01*
X124307814Y-79809871D01*
X124341848Y-79812514D01*
X124391508Y-79814677D01*
X124453715Y-79816363D01*
X124525388Y-79817572D01*
X124603446Y-79818308D01*
X124684809Y-79818571D01*
X124766396Y-79818364D01*
X124845127Y-79817687D01*
X124917920Y-79816543D01*
X124981697Y-79814934D01*
X125033375Y-79812861D01*
X125069875Y-79810325D01*
X125088115Y-79807329D01*
X125102897Y-79801427D01*
X125118032Y-79794170D01*
X125129718Y-79784857D01*
X125138400Y-79771077D01*
X125144524Y-79750420D01*
X125148536Y-79720474D01*
X125150881Y-79678828D01*
X125152004Y-79623071D01*
X125152352Y-79550792D01*
X125152368Y-79459580D01*
X125152368Y-79156589D01*
X125127120Y-79131340D01*
X125117926Y-79123255D01*
X125103778Y-79114708D01*
X125084882Y-79107886D01*
X125059162Y-79102635D01*
X125024546Y-79098800D01*
X124978960Y-79096227D01*
X124920329Y-79094761D01*
X124846581Y-79094248D01*
X124755641Y-79094534D01*
X124645436Y-79095463D01*
X124642298Y-79095494D01*
X124541360Y-79096632D01*
X124459551Y-79098052D01*
X124394715Y-79100096D01*
X124344697Y-79103106D01*
X124307343Y-79107424D01*
X124280496Y-79113394D01*
X124262002Y-79121356D01*
X124249706Y-79131653D01*
X124241451Y-79144628D01*
X124235084Y-79160623D01*
X124233825Y-79165556D01*
X124230499Y-79193287D01*
X124227747Y-79238958D01*
X124225662Y-79300040D01*
X124224342Y-79374003D01*
X124223881Y-79458318D01*
X124031799Y-79458318D01*
X124031780Y-79448359D01*
X124031780Y-79127980D01*
X124061644Y-79070813D01*
X124069390Y-79056520D01*
X124090226Y-79026016D01*
X124115956Y-79003489D01*
X124154247Y-78981549D01*
X124216985Y-78949450D01*
X124669761Y-78946342D01*
X124780484Y-78945655D01*
X124884051Y-78945351D01*
X124970097Y-78945762D01*
X125040626Y-78947136D01*
X125097642Y-78949721D01*
X125143150Y-78953764D01*
X125179155Y-78959511D01*
X125207661Y-78967212D01*
X125230672Y-78977112D01*
X125250193Y-78989459D01*
X125268228Y-79004500D01*
X125286781Y-79022484D01*
X125291065Y-79026837D01*
X125308615Y-79046746D01*
X125322661Y-79068049D01*
X125333586Y-79093239D01*
X125341775Y-79124810D01*
X125347612Y-79165256D01*
X125351483Y-79217069D01*
X125353772Y-79282742D01*
X125354863Y-79364769D01*
X125355124Y-79459580D01*
X125355141Y-79465643D01*
X125354880Y-79556060D01*
G37*
G36*
X134607999Y-79968652D02*
G01*
X134405225Y-79968652D01*
X134405225Y-78944114D01*
X134607999Y-78944114D01*
X134607999Y-79968652D01*
G37*
G36*
X134245141Y-79467734D02*
G01*
X134244990Y-79570005D01*
X134244570Y-79665663D01*
X134243911Y-79752603D01*
X134243040Y-79828721D01*
X134241987Y-79891912D01*
X134240782Y-79940072D01*
X134239452Y-79971097D01*
X134238027Y-79982881D01*
X134234717Y-79984299D01*
X134214047Y-79987216D01*
X134179587Y-79989239D01*
X134136640Y-79989996D01*
X134042368Y-79989996D01*
X134042368Y-78954786D01*
X134245141Y-78954786D01*
X134245141Y-79467734D01*
G37*
G36*
X123946402Y-79104198D02*
G01*
X123412788Y-79104198D01*
X123412788Y-79979324D01*
X123210015Y-79979324D01*
X123210015Y-79104198D01*
X122676402Y-79104198D01*
X122676402Y-78954786D01*
X123946402Y-78954786D01*
X123946402Y-79104198D01*
G37*
G36*
X126891948Y-79968652D02*
G01*
X126699847Y-79968652D01*
X126699847Y-78944114D01*
X126891948Y-78944114D01*
X126891948Y-79968652D01*
G37*
G36*
X129400328Y-78944646D02*
G01*
X129491105Y-78948468D01*
X129564580Y-78956488D01*
X129623181Y-78969316D01*
X129669336Y-78987560D01*
X129705471Y-79011830D01*
X129734016Y-79042734D01*
X129742370Y-79054493D01*
X129759827Y-79085099D01*
X129771824Y-79119243D01*
X129779268Y-79161356D01*
X129783068Y-79215870D01*
X129784133Y-79287219D01*
X129784133Y-79424366D01*
X129581360Y-79424366D01*
X129581360Y-79297172D01*
X129580874Y-79248246D01*
X129579458Y-79203257D01*
X129577334Y-79169768D01*
X129574731Y-79152701D01*
X129573886Y-79150608D01*
X129562904Y-79134148D01*
X129544068Y-79121907D01*
X129514690Y-79113339D01*
X129472083Y-79107896D01*
X129413558Y-79105031D01*
X129336428Y-79104198D01*
X129165141Y-79104198D01*
X129165141Y-78944114D01*
X129340709Y-78944114D01*
X129400328Y-78944646D01*
G37*
%TO.C,R26*%
X108203559Y-112028400D02*
X108510841Y-112028400D01*
X108203559Y-112788400D02*
X108510841Y-112788400D01*
%TO.C,J25*%
X95307200Y-133858400D02*
X95307200Y-132408400D01*
X101977200Y-132408400D02*
X101977200Y-131418400D01*
X103777200Y-133858400D02*
X103777200Y-132408400D01*
X95307200Y-132408400D02*
X97107200Y-132408400D01*
X103777200Y-132408400D02*
X101977200Y-132408400D01*
X102507200Y-136678400D02*
X96577200Y-136678400D01*
D10*
%TO.C,FL1*%
X72207000Y-104461699D02*
X70403600Y-104461699D01*
X70403600Y-102455099D02*
X72207000Y-102455099D01*
X69776600Y-103958399D02*
G75*
G03*
X69776600Y-103958399I-101600J0D01*
G01*
%TO.C,U5*%
X80603100Y-102004300D02*
X79941941Y-102004300D01*
X76361300Y-98423659D02*
X76361300Y-97762500D01*
X80603100Y-97762500D02*
X80603100Y-98423659D01*
X79941941Y-97762500D02*
X80603100Y-97762500D01*
X76361300Y-102004300D02*
X76361300Y-101343141D01*
X76361300Y-97762500D02*
X77022459Y-97762500D01*
X80603100Y-101343141D02*
X80603100Y-102004300D01*
X77022459Y-102004300D02*
X76361300Y-102004300D01*
G36*
X77672699Y-102690100D02*
G01*
X77291699Y-102690100D01*
X77291699Y-102436100D01*
X77672699Y-102436100D01*
X77672699Y-102690100D01*
G37*
G36*
X79672701Y-97330700D02*
G01*
X79291701Y-97330700D01*
X79291701Y-97076700D01*
X79672701Y-97076700D01*
X79672701Y-97330700D01*
G37*
D13*
%TO.C,J19*%
X131347200Y-136678400D02*
X125417200Y-136678400D01*
X132617200Y-132408400D02*
X130817200Y-132408400D01*
X132617200Y-133858400D02*
X132617200Y-132408400D01*
X130817200Y-132408400D02*
X130817200Y-131418400D01*
X124147200Y-132408400D02*
X125947200Y-132408400D01*
X124147200Y-133858400D02*
X124147200Y-132408400D01*
D11*
%TO.C,J14*%
X97351200Y-79318400D02*
X96566200Y-79318400D01*
X119486200Y-79318400D02*
X119486200Y-78428400D01*
X119486200Y-78428400D02*
X96566200Y-78428400D01*
X99826200Y-83828400D02*
X100386200Y-83828400D01*
X115666200Y-83828400D02*
X116226200Y-83828400D01*
X96566200Y-78428400D02*
X96566200Y-79318400D01*
X119486200Y-79318400D02*
X118701200Y-79318400D01*
X97351200Y-79828400D02*
X97351200Y-79318400D01*
X118701200Y-79828400D02*
X118701200Y-79318400D01*
D14*
X100126200Y-84998400D02*
G75*
G03*
X100126200Y-84998400I-100000J0D01*
G01*
D13*
%TO.C,C44*%
X108570948Y-105198400D02*
X109093452Y-105198400D01*
X108570948Y-106668400D02*
X109093452Y-106668400D01*
%TO.C,J26*%
X111882200Y-132408400D02*
X110082200Y-132408400D01*
X110612200Y-136678400D02*
X105932200Y-136678400D01*
X110082200Y-132408400D02*
X110082200Y-131418400D01*
X104662200Y-132408400D02*
X106462200Y-132408400D01*
X111882200Y-133858400D02*
X111882200Y-132408400D01*
X104662200Y-133858400D02*
X104662200Y-132408400D01*
%TO.C,D7*%
X106957200Y-111183400D02*
X106957200Y-108633400D01*
X108657200Y-111183400D02*
X106957200Y-111183400D01*
X108657200Y-111183400D02*
X108657200Y-108633400D01*
%TO.C,FB1*%
X70869421Y-100268400D02*
X71194979Y-100268400D01*
X70869421Y-99248400D02*
X71194979Y-99248400D01*
D10*
%TO.C,FL2*%
X128983900Y-91071700D02*
X127180500Y-91071700D01*
X127180500Y-89065100D02*
X128983900Y-89065100D01*
X129814100Y-89568400D02*
G75*
G03*
X129814100Y-89568400I-101600J0D01*
G01*
D13*
%TO.C,F1*%
X86372200Y-131185621D02*
X86372200Y-131511179D01*
X85352200Y-131185621D02*
X85352200Y-131511179D01*
%TO.C,C43*%
X108545948Y-98873400D02*
X109068452Y-98873400D01*
X108545948Y-100343400D02*
X109068452Y-100343400D01*
D11*
%TO.C,J8*%
X93832200Y-79318400D02*
X93832200Y-78428400D01*
X93832200Y-79318400D02*
X93047200Y-79318400D01*
X71697200Y-79828400D02*
X71697200Y-79318400D01*
X93047200Y-79828400D02*
X93047200Y-79318400D01*
X93832200Y-78428400D02*
X70912200Y-78428400D01*
X71697200Y-79318400D02*
X70912200Y-79318400D01*
X70912200Y-78428400D02*
X70912200Y-79318400D01*
X90012200Y-83828400D02*
X90572200Y-83828400D01*
X74172200Y-83828400D02*
X74732200Y-83828400D01*
D14*
X74472200Y-84998400D02*
G75*
G03*
X74472200Y-84998400I-100000J0D01*
G01*
%TD*%
M02*
