M48
; DRILL file {KiCad (6.0.11)} date Thu May  4 09:55:54 2023
; FORMAT={-:-/ absolute / inch / decimal}
; #@! TF.CreationDate,2023-05-04T09:55:54-04:00
; #@! TF.GenerationSoftware,Kicad,Pcbnew,(6.0.11)
; #@! TF.FileFunction,Plated,1,8,PTH
FMAT,2
INCH
; #@! TA.AperFunction,Plated,PTH,ViaDrill
T1C0.0079
; #@! TA.AperFunction,Plated,PTH,ViaDrill
T2C0.0083
; #@! TA.AperFunction,Plated,PTH,ViaDrill
T3C0.0118
; #@! TA.AperFunction,Plated,PTH,ViaDrill
T4C0.0138
; #@! TA.AperFunction,Plated,PTH,ViaDrill
T5C0.0157
; #@! TA.AperFunction,Plated,PTH,ComponentDrill
T6C0.0197
; #@! TA.AperFunction,Plated,PTH,ComponentDrill
T7C0.0394
; #@! TA.AperFunction,Plated,PTH,ComponentDrill
T8C0.0472
; #@! TA.AperFunction,Plated,PTH,ComponentDrill
T9C0.0748
; #@! TA.AperFunction,Plated,PTH,ComponentDrill
T10C0.1063
%
G90
G05
T1
X2.4643Y-5.0495
X2.4713Y-4.361
X2.4792Y-4.4129
X2.5028Y-5.0488
X2.5068Y-4.3606
X2.5131Y-4.4129
X2.5481Y-4.9495
X2.5497Y-4.6543
X2.5517Y-4.3117
X2.5572Y-4.2641
X2.5595Y-4.7728
X2.5599Y-4.7507
X2.5619Y-4.7035
X2.5654Y-4.0669
X2.569Y-4.8527
X2.5698Y-4.5574
X2.5713Y-4.7984
X2.5733Y-4.8243
X2.5733Y-5.0527
X2.5773Y-4.8736
X2.5832Y-4.2082
X2.5922Y-4.9212
X2.6091Y-4.968
X2.6162Y-4.0657
X2.6391Y-4.1054
X2.6587Y-5.3208
X2.6595Y-4.1161
X2.6836Y-4.8984
X2.6839Y-4.0755
X2.6913Y-4.8661
X2.7021Y-5.3582
X2.7206Y-3.9771
X2.7312Y-5.3188
X2.7339Y-4.1228
X2.7394Y-4.7343
X2.7472Y-5.015
X2.7489Y-4.9392
X2.767Y-4.0188
X2.8106Y-4.7646
X2.8385Y-4.9392
X2.8725Y-3.1822
X2.8816Y-3.3669
X2.8894Y-4.9059
X2.921Y-3.8011
X2.9213Y-4.961
X2.9367Y-3.9948
X2.9647Y-4.0866
X2.9788Y-3.9169
X2.9854Y-4.9622
X2.9958Y-3.7803
X3.0173Y-3.3947
X3.0221Y-3.7838
X3.0231Y-3.9966
X3.044Y-3.3947
X3.0698Y-3.9507
X3.0702Y-3.9121
X3.095Y-5.1562
X3.145Y-5.1539
X3.1568Y-3.4165
X3.165Y-3.8751
X3.1757Y-3.3976
X3.1765Y-3.2369
X3.1958Y-3.2149
X3.2154Y-3.1944
X3.2377Y-3.1776
X3.2643Y-3.2263
X3.2643Y-3.2531
X3.3611Y-3.3397
X3.4005Y-3.3397
X3.4316Y-5.1507
X3.4399Y-3.3397
X3.4792Y-3.3397
X3.5186Y-3.3413
X3.5485Y-3.474
X3.6115Y-5.0905
X3.6115Y-5.1314
X3.6139Y-5.048
X3.6375Y-3.1834
X3.8336Y-3.2751
X3.8426Y-3.5747
X3.8446Y-5.131
X3.8505Y-3.4397
X3.8666Y-4.9043
X3.8681Y-5.0172
X3.878Y-3.6791
X3.8867Y-3.5783
X3.8934Y-5.2649
X3.9075Y-5.066
X3.9265Y-3.2192
X3.9269Y-5.083
X3.9436Y-5.2675
X3.9446Y-4.7854
X3.9517Y-5.1019
X3.954Y-3.5743
X3.9619Y-3.5964
X3.9619Y-3.6232
X3.9765Y-3.5755
X3.9773Y-3.1685
X3.9773Y-3.1952
X3.9796Y-5.0972
X3.9816Y-4.9027
X3.9863Y-5.1515
X3.9867Y-3.459
X4.0072Y-5.1346
X4.0077Y-3.2113
X4.0265Y-4.6905
X4.03Y-3.2051
X4.0304Y-5.1169
X4.0461Y-4.7003
X4.0528Y-5.0995
X4.0627Y-3.2062
X4.0666Y-4.8051
X4.0713Y-5.0806
X4.0745Y-3.4566
X4.0859Y-3.6196
X4.0859Y-5.0554
X4.0871Y-4.8204
X4.0985Y-3.4582
X4.1044Y-5.0369
X4.1056Y-4.9054
X4.1129Y-3.6375
X4.1229Y-4.8322
X4.1318Y-3.6564
X4.1339Y-5.0224
X4.1418Y-4.8452
X4.1422Y-5.1614
X4.1434Y-4.0334
X4.1513Y-3.2062
X4.1627Y-5.161
X4.1647Y-4.8621
X4.1808Y-3.2141
X4.1812Y-4.8791
X4.1831Y-5.2126
X4.1891Y-3.4641
X4.1977Y-5.1531
X4.1981Y-5.0173
X4.1996Y-3.1621
X4.2052Y-5.2712
X4.2198Y-4.9141
X4.2206Y-3.1712
X4.2225Y-5.0141
X4.2363Y-5.2724
X4.2414Y-5.1586
X4.243Y-4.9117
X4.2469Y-3.1897
X4.2591Y-3.2129
X4.2619Y-5.0149
X4.2791Y-3.1817
X4.2804Y-4.0755
X4.2839Y-5.1413
X4.2934Y-3.6247
X4.2994Y-3.2
X4.3017Y-5.1539
X4.3139Y-4.7413
X4.3214Y-5.257
X4.3217Y-3.8688
X4.3351Y-3.2043
X4.3391Y-3.6224
X4.3489Y-4.2279
X4.3584Y-5.1432
X4.3604Y-3.2188
X4.3607Y-5.0141
X4.3619Y-4.1759
X4.3804Y-4.9117
X4.3812Y-5.146
X4.3856Y-3.2192
X4.3993Y-5.2562
X4.4001Y-3.624
X4.4001Y-5.0165
X4.4147Y-4.9114
X4.4154Y-3.2184
X4.4202Y-5.1543
X4.4237Y-5.3362
X4.4328Y-4.7393
X4.4355Y-5.2696
X4.4385Y-3.2172
X4.4615Y-3.2152
X4.4654Y-4.546
X4.4769Y-5.0192
X4.4776Y-3.198
X4.491Y-3.6224
X4.4958Y-4.9031
X4.4969Y-5.2885
X4.4989Y-3.2078
X4.4989Y-5.2665
X4.5009Y-3.4606
X4.5162Y-5.1625
X4.5186Y-3.2216
X4.5229Y-4.9023
X4.5371Y-5.148
X4.5375Y-3.2023
X4.5375Y-5.0145
X4.5387Y-5.2751
X4.5513Y-4.3728
X4.5568Y-3.2204
X4.5695Y-3.7258
X4.5753Y-5.2641
X4.5902Y-3.6259
X4.5965Y-4.7283
X4.6154Y-3.3314
X4.6154Y-5.1488
X4.6163Y-5.2631
X4.6249Y-3.4342
X4.6284Y-3.3984
X4.6544Y-4.524
X4.6556Y-3.8621
X4.6695Y-3.7258
X4.6733Y-4.6846
X4.6765Y-4.3688
X4.6773Y-3.2873
X4.6922Y-4.7035
X4.6954Y-4.3499
X4.7552Y-4.7507
X4.7575Y-5.2941
X4.7749Y-3.6507
X4.8572Y-5.1354
X4.9158Y-5.1366
X4.9206Y-3.1519
X4.9426Y-3.1881
X4.9454Y-3.211
X4.9706Y-4.8094
X4.9816Y-5.2531
X4.9938Y-3.4251
X4.9946Y-3.1554
X4.9946Y-4.0755
X5.0013Y-4.1417
X5.0048Y-3.609
X5.0095Y-4.22
X5.0269Y-3.4558
X5.0304Y-3.2121
X5.032Y-3.2464
X5.0446Y-5.0133
X5.0487Y-3.4236
X5.0729Y-3.2491
X5.0753Y-3.211
X5.0973Y-3.4566
X5.1028Y-3.5692
X5.1107Y-3.5267
X5.1131Y-3.4972
X5.119Y-4.5606
X5.1215Y-3.2946
X5.1308Y-5.1373
X5.1351Y-3.3988
X5.145Y-4.3212
X5.1517Y-4.4314
X5.165Y-5.1377
X5.1721Y-3.9074
X5.1863Y-3.5503
X5.1879Y-4.9334
X5.1981Y-4.598
X5.204Y-4.9551
X5.2147Y-3.3362
X5.2213Y-3.6629
X5.2225Y-4.9669
X5.2284Y-4.3501
X5.2336Y-3.1627
X5.2422Y-4.9858
X5.2461Y-3.4188
X5.2572Y-4.2588
X5.2572Y-4.2857
X5.2591Y-5.0121
X5.2698Y-3.5208
X5.2761Y-5.0476
X5.291Y-3.4948
X5.292Y-3.9093
X5.292Y-3.9362
X5.2926Y-3.8436
X5.295Y-5.0767
X5.2989Y-5.1066
X5.3028Y-3.4471
X5.3036Y-4.5263
X5.3056Y-4.6271
X5.308Y-4.5747
X5.3485Y-4.1984
X5.3493Y-4.4765
X5.3985Y-4.346
X5.3997Y-4.3787
X5.4013Y-4.548
X5.4041Y-4.6082
X5.4041Y-4.6352
X5.4041Y-4.9577
X5.4041Y-4.9847
X5.4044Y-4.6956
X5.4052Y-5.0456
X5.415Y-3.9972
T2
X2.9438Y-4.3011
X3.0804Y-4.2393
X3.1347Y-4.044
X3.6587Y-4.2771
X3.8017Y-4.2385
X3.8548Y-4.046
T3
X2.6568Y-5.1775
X2.6929Y-4.9988
X2.9099Y-3.6177
X2.9363Y-3.7169
X2.9678Y-3.3602
X3.0127Y-4.1373
X3.0147Y-4.1881
X3.0367Y-3.6598
X3.0387Y-3.6102
X3.0493Y-4.161
X3.0611Y-3.4334
X3.0859Y-3.3617
X3.0863Y-4.1366
X3.0906Y-4.1842
X3.1111Y-3.4346
X3.1343Y-3.6137
X3.1343Y-3.6594
X3.1757Y-4.2673
X3.2044Y-3.3598
X3.2091Y-4.268
X3.2225Y-3.246
X3.2375Y-3.6358
X3.2383Y-3.5495
X3.2674Y-4.2657
X3.2729Y-3.5968
X3.2985Y-4.2669
X3.3048Y-3.6369
X3.3056Y-4.5818
X3.3068Y-4.518
X3.3072Y-3.5495
X3.3225Y-3.3232
X3.3505Y-4.5495
X3.354Y-4.2677
X3.3871Y-4.2677
X3.3942Y-4.5795
X3.3958Y-4.5169
X3.7332Y-4.135
X3.7351Y-4.1858
X3.7698Y-4.1586
X3.8068Y-4.1342
X3.8111Y-4.1818
X3.8981Y-4.272
X3.9261Y-3.3543
X3.9276Y-4.2724
X3.945Y-3.4287
X3.9773Y-3.3432
X3.9796Y-3.4287
X3.9836Y-4.272
X4.008Y-4.5948
X4.0091Y-4.5157
X4.0143Y-4.2732
X4.0544Y-4.5562
X4.0706Y-4.2736
X4.0958Y-3.3429
X4.1005Y-4.2743
X4.104Y-4.5173
X4.1056Y-4.5948
X4.1808Y-3.6236
X4.2093Y-3.6253
X4.2143Y-3.3393
X4.2315Y-3.6434
X4.2528Y-3.8696
X4.2532Y-3.3401
X4.2619Y-3.6338
X4.2922Y-3.3653
X4.3178Y-3.42
X4.3182Y-3.4546
X4.3324Y-3.3397
X4.3725Y-3.3456
X4.4021Y-3.9566
X4.4111Y-3.3436
X4.4149Y-3.4416
X4.4517Y-3.4224
X4.4518Y-3.4568
X4.4887Y-3.4334
X4.632Y-3.6467
X4.6666Y-3.6467
X4.7599Y-4.044
X4.7611Y-3.9948
X5.1276Y-3.6936
X5.1521Y-3.7181
X5.1572Y-4.6623
X5.1572Y-4.6969
X5.1575Y-4.3623
X5.1575Y-4.3969
X5.1914Y-3.9334
X5.2159Y-3.9578
X5.2178Y-3.9956
X5.2866Y-4.1008
X5.2918Y-3.989
X5.2918Y-4.0236
X5.3001Y-4.4275
X5.3111Y-4.1252
X5.3493Y-3.6194
X5.3493Y-3.6686
X5.3493Y-3.7179
X5.3493Y-3.7671
T4
X2.7304Y-5.1873
X2.9316Y-4.924
X2.9749Y-3.5251
X3.0249Y-5.0495
X3.3824Y-5.2043
X3.4804Y-4.9275
X3.5918Y-3.3641
X3.6284Y-3.4023
X3.8658Y-4.6247
X4.3135Y-4.9003
X4.3887Y-4.8228
X4.867Y-3.5818
X4.8855Y-3.4208
X4.8863Y-3.361
T5
X3.4946Y-3.6547
X3.4946Y-3.6921
T6
X2.3415Y-3.2185
X2.3415Y-5.2657
X2.3649Y-3.1621
X2.3649Y-3.2749
X2.3649Y-5.2094
X2.3649Y-5.3221
X2.4213Y-3.1388
X2.4213Y-3.2982
X2.4213Y-5.186
X2.4213Y-5.3455
X2.4776Y-3.1621
X2.4776Y-3.2749
X2.4776Y-5.2094
X2.4776Y-5.3221
X2.501Y-3.2185
X2.501Y-5.2657
X5.3337Y-3.2185
X5.3337Y-5.2657
X5.357Y-3.1621
X5.357Y-3.2749
X5.357Y-5.2094
X5.357Y-5.3221
X5.4134Y-3.1388
X5.4134Y-3.2982
X5.4134Y-5.186
X5.4134Y-5.3455
X5.4698Y-3.1621
X5.4698Y-3.2749
X5.4698Y-5.2094
X5.4698Y-5.3221
X5.4931Y-3.2185
X5.4931Y-5.2657
T7
X2.4138Y-3.3927
X2.4138Y-3.8257
T8
X3.7697Y-3.3022
X3.7697Y-3.4892
X3.7697Y-4.9951
X3.7697Y-5.1821
X4.7343Y-3.3022
X4.7343Y-3.4892
X4.7343Y-4.9951
X4.7343Y-5.1821
T9
X2.8075Y-3.5108
X2.8075Y-3.7076
T10
X2.4213Y-3.2185
X2.4213Y-5.2657
X5.4134Y-3.2185
X5.4134Y-5.2657
T6
G00X2.3627Y-3.9086
M15
G01X2.3863Y-3.9086
M16
G05
G00X2.3627Y-4.2621
M15
G01X2.3863Y-4.2621
M16
G05
G00X2.5969Y-3.9228
M15
G01X2.6206Y-3.9228
M16
G05
G00X2.5969Y-4.248
M15
G01X2.6206Y-4.248
M16
G05
G00X5.2367Y-3.374
M15
G01X5.2131Y-3.374
M16
G05
G00X5.2367Y-3.6991
M15
G01X5.2131Y-3.6991
M16
G05
G00X5.471Y-3.3598
M15
G01X5.4473Y-3.3598
M16
G05
G00X5.471Y-3.7133
M15
G01X5.4473Y-3.7133
M16
G05
T0
M30
