%TF.GenerationSoftware,KiCad,Pcbnew,(6.0.11)*%
%TF.CreationDate,2023-05-04T09:55:51-04:00*%
%TF.ProjectId,echopilot_ai_carrier,6563686f-7069-46c6-9f74-5f61695f6361,rev?*%
%TF.SameCoordinates,Original*%
%TF.FileFunction,Copper,L2,Inr*%
%TF.FilePolarity,Positive*%
%FSLAX46Y46*%
G04 Gerber Fmt 4.6, Leading zero omitted, Abs format (unit mm)*
G04 Created by KiCad (PCBNEW (6.0.11)) date 2023-05-04 09:55:51*
%MOMM*%
%LPD*%
G01*
G04 APERTURE LIST*
%TA.AperFunction,ComponentPad*%
%ADD10C,1.400000*%
%TD*%
%TA.AperFunction,ComponentPad*%
%ADD11R,3.500000X3.500000*%
%TD*%
%TA.AperFunction,ComponentPad*%
%ADD12C,3.500000*%
%TD*%
%TA.AperFunction,ComponentPad*%
%ADD13C,0.800000*%
%TD*%
%TA.AperFunction,ComponentPad*%
%ADD14C,5.400000*%
%TD*%
%TA.AperFunction,ComponentPad*%
%ADD15C,1.600000*%
%TD*%
%TA.AperFunction,ComponentPad*%
%ADD16O,1.400000X0.800000*%
%TD*%
%TA.AperFunction,ViaPad*%
%ADD17C,0.400000*%
%TD*%
%TA.AperFunction,ViaPad*%
%ADD18C,0.600000*%
%TD*%
%TA.AperFunction,ViaPad*%
%ADD19C,0.700000*%
%TD*%
%TA.AperFunction,ViaPad*%
%ADD20C,0.800000*%
%TD*%
%TA.AperFunction,Conductor*%
%ADD21C,0.304800*%
%TD*%
%TA.AperFunction,Conductor*%
%ADD22C,0.152400*%
%TD*%
%TA.AperFunction,Conductor*%
%ADD23C,0.127000*%
%TD*%
G04 APERTURE END LIST*
D10*
%TO.N,*%
%TO.C,J27*%
X61310700Y-97173560D03*
X61310700Y-86173560D03*
D11*
%TO.N,GND*%
X71310700Y-89173560D03*
D12*
%TO.N,/MainPower/PWR_IN*%
X71310700Y-94173560D03*
%TD*%
D13*
%TO.N,GND*%
%TO.C,J1*%
X59475000Y-81750000D03*
X63525000Y-81750000D03*
X60068109Y-80318109D03*
X61500000Y-79725000D03*
D14*
X61500000Y-81750000D03*
D13*
X61500000Y-83775000D03*
X62931891Y-83181891D03*
X62931891Y-80318109D03*
X60068109Y-83181891D03*
%TD*%
%TO.N,GND*%
%TO.C,J2*%
X62931891Y-135181891D03*
X62931891Y-132318109D03*
X61500000Y-135775000D03*
D14*
X61500000Y-133750000D03*
D13*
X63525000Y-133750000D03*
X60068109Y-135181891D03*
X59475000Y-133750000D03*
X61500000Y-131725000D03*
X60068109Y-132318109D03*
%TD*%
%TO.N,GND*%
%TO.C,J3*%
X137500000Y-83775000D03*
X137500000Y-79725000D03*
X135475000Y-81750000D03*
X136068109Y-83181891D03*
X136068109Y-80318109D03*
D14*
X137500000Y-81750000D03*
D13*
X139525000Y-81750000D03*
X138931891Y-80318109D03*
X138931891Y-83181891D03*
%TD*%
%TO.N,GND*%
%TO.C,J4*%
X137500000Y-135775000D03*
X136068109Y-135181891D03*
X136068109Y-132318109D03*
D14*
X137500000Y-133750000D03*
D13*
X139525000Y-133750000D03*
X138931891Y-135181891D03*
X135475000Y-133750000D03*
X137500000Y-131725000D03*
X138931891Y-132318109D03*
%TD*%
D15*
%TO.N,+5V*%
%TO.C,J5*%
X95750000Y-88625000D03*
X120250000Y-88625000D03*
%TO.N,GND*%
X95750000Y-83875000D03*
X120250000Y-83875000D03*
%TD*%
%TO.N,+5V*%
%TO.C,J6*%
X95750000Y-131625000D03*
X120250000Y-131625000D03*
%TO.N,GND*%
X95750000Y-126875000D03*
X120250000Y-126875000D03*
%TD*%
D16*
%TO.N,GND*%
%TO.C,J7*%
X60312200Y-99278400D03*
X66262200Y-99638400D03*
X60312200Y-108258400D03*
X66262200Y-107898400D03*
%TD*%
%TO.N,GND*%
%TO.C,J29*%
X138662200Y-85338400D03*
X132712200Y-93958400D03*
X132712200Y-85698400D03*
X138662200Y-94318400D03*
%TD*%
D17*
%TO.N,GND*%
X106622200Y-130888400D03*
X131372200Y-99248400D03*
X69102200Y-101018400D03*
X75302200Y-103798400D03*
D18*
X96802200Y-106218400D03*
D17*
X73390000Y-124610000D03*
X128852200Y-82528400D03*
X110462200Y-107388400D03*
X111762200Y-92048400D03*
D18*
X76572200Y-106378400D03*
D17*
X132032200Y-116788400D03*
D18*
X78502200Y-106278400D03*
D19*
X124092200Y-86888400D03*
D17*
X104282200Y-124598400D03*
X123372200Y-130438400D03*
D18*
X76522200Y-105088400D03*
D17*
X114072200Y-92008400D03*
D18*
X77752200Y-87208400D03*
D17*
X116211441Y-133708065D03*
X126252200Y-122158400D03*
X127242200Y-107188400D03*
D18*
X104032200Y-84908400D03*
X94872200Y-106318400D03*
D17*
X115282200Y-133988400D03*
X107732200Y-131028400D03*
X117254300Y-133683463D03*
X128912200Y-81558400D03*
X87162200Y-130828400D03*
X134392200Y-88768400D03*
D18*
X84392200Y-84408400D03*
D17*
X105212200Y-131098400D03*
X132452200Y-84738400D03*
X137292200Y-128158400D03*
D18*
X77452200Y-105688400D03*
D17*
X137272200Y-119268400D03*
X137542200Y-101528400D03*
X132622200Y-93038400D03*
X131192200Y-130498400D03*
X137122200Y-110388400D03*
X129472200Y-87798400D03*
X109572200Y-120428400D03*
D18*
X107042200Y-84818400D03*
D17*
X118252200Y-98098400D03*
X126532200Y-133428400D03*
X62772200Y-110768400D03*
D18*
X81392200Y-85338400D03*
X94822200Y-105028400D03*
D17*
X130022200Y-115838400D03*
X106632200Y-127438400D03*
X63572200Y-128238400D03*
X71390000Y-121020000D03*
X62972200Y-112088400D03*
X125612200Y-81558400D03*
X120782200Y-120668400D03*
X112592200Y-120378400D03*
X63672200Y-110758400D03*
X69780000Y-127380000D03*
X118222200Y-114908400D03*
X118802200Y-83498400D03*
X105242200Y-102448400D03*
X62592200Y-128258400D03*
X109052200Y-92068400D03*
X130432200Y-86328400D03*
X74592200Y-101468400D03*
X109772200Y-98268400D03*
X113732200Y-81228400D03*
X111262200Y-124758400D03*
X79882200Y-130908400D03*
X109764828Y-133528383D03*
X105732200Y-131088400D03*
X69442200Y-104718400D03*
X108722200Y-103518400D03*
X112132200Y-124748400D03*
D18*
X78392200Y-105068400D03*
D17*
X63832200Y-112088400D03*
X103192200Y-81438400D03*
X124862200Y-130468400D03*
X129612200Y-90658400D03*
X114712200Y-131128400D03*
X130852200Y-112558400D03*
X91732200Y-129298400D03*
X103782200Y-91938400D03*
X110792200Y-106068400D03*
X117562200Y-86318400D03*
X110212200Y-92008400D03*
X105442200Y-81438400D03*
D19*
X91232200Y-85448400D03*
D17*
X69580000Y-120250000D03*
X97652200Y-130328400D03*
X130322200Y-130488400D03*
X78612200Y-130968400D03*
X77982200Y-99368400D03*
X68632200Y-136098400D03*
X70282200Y-102078400D03*
X91732200Y-130338400D03*
X127812200Y-82458400D03*
X74192200Y-96548400D03*
X137152200Y-111218400D03*
X127772200Y-81588400D03*
X110762200Y-127358400D03*
D18*
X96692200Y-105008400D03*
X75382200Y-85348400D03*
D17*
X106402200Y-87988400D03*
X111762200Y-127418400D03*
D18*
X79022200Y-87238400D03*
D17*
X101132200Y-124528400D03*
X92392200Y-80858400D03*
X97372200Y-83188400D03*
X116752200Y-120098400D03*
X116592200Y-92098400D03*
D18*
X101022200Y-84918400D03*
D17*
X115602200Y-111068400D03*
X65612200Y-106888400D03*
X98502200Y-93448400D03*
X65162200Y-103298400D03*
X65012200Y-121228400D03*
X115252200Y-127368400D03*
X133252200Y-86838400D03*
X111742200Y-133508400D03*
X90132200Y-88238400D03*
D18*
X110042200Y-84828400D03*
D17*
X108252200Y-127378400D03*
D19*
X92162200Y-86418400D03*
D17*
X132932200Y-80333400D03*
D18*
X78382200Y-85388400D03*
D17*
X91792200Y-128218400D03*
X72962200Y-80828400D03*
X126842200Y-86998400D03*
X107872200Y-81018400D03*
X77972200Y-100348400D03*
D19*
X124112200Y-85368400D03*
D18*
X95752200Y-105628400D03*
D17*
X130682200Y-109758400D03*
X121282200Y-92728400D03*
X75662200Y-99488400D03*
D19*
X75562200Y-89538400D03*
D17*
X127122200Y-91668400D03*
D19*
%TO.N,+BATT*%
X74462700Y-125068400D03*
D20*
X88762200Y-93778400D03*
X88762200Y-92828400D03*
D18*
%TO.N,+5V*%
X86212200Y-116318400D03*
X83992200Y-114758400D03*
X80662200Y-108388400D03*
X86032200Y-108398400D03*
X108022200Y-98288400D03*
X67482200Y-131508400D03*
X111812200Y-100498400D03*
X85102200Y-115558400D03*
D17*
X74772200Y-109248400D03*
D19*
X88402200Y-125158400D03*
D18*
X132532200Y-101488400D03*
X86252200Y-114728400D03*
X85192200Y-108398400D03*
X83782200Y-108378400D03*
X82992200Y-108348400D03*
X68400000Y-126970000D03*
X83962200Y-116378400D03*
D19*
X123622200Y-90978400D03*
D18*
X81852200Y-82448400D03*
X81512200Y-108408400D03*
D17*
%TO.N,3V3_SYS*%
X117232200Y-84618400D03*
X89372200Y-84868400D03*
X114322200Y-87898400D03*
%TO.N,USB2-*%
X113321900Y-81667170D03*
X134417178Y-99296160D03*
%TO.N,USB2+*%
X112737470Y-81717003D03*
X134417178Y-99980640D03*
%TO.N,PORT_VBUS_2*%
X112152200Y-81748400D03*
X134432200Y-97628400D03*
%TO.N,USB3-*%
X111394440Y-81768400D03*
X133532200Y-108172826D03*
%TO.N,USB3+*%
X110754300Y-81756262D03*
X133532200Y-108857306D03*
%TO.N,PORT_VBUS_3*%
X135852200Y-106640066D03*
X110112200Y-81388400D03*
%TO.N,USB4-*%
X137263200Y-117049492D03*
X109203500Y-81279315D03*
%TO.N,USB4+*%
X137263200Y-117733972D03*
X108690199Y-80816399D03*
%TO.N,PORT_VBUS_4*%
X108182200Y-81608400D03*
X137192200Y-115518400D03*
%TO.N,USB5-*%
X107203500Y-80548878D03*
X137263919Y-125926158D03*
%TO.N,USB5+*%
X106670199Y-80316500D03*
X137263919Y-126610638D03*
%TO.N,PORT_VBUS_5*%
X132802200Y-110492200D03*
X106192200Y-81638400D03*
%TO.N,ETH_RADIO_TX_N*%
X102361900Y-81408400D03*
X119262405Y-110488195D03*
%TO.N,ETH_RADIO_TX_P*%
X101795006Y-81567732D03*
X118781995Y-110968605D03*
%TO.N,ETH_RADIO_RX_N*%
X118701995Y-118988195D03*
X101022200Y-81158100D03*
%TO.N,ETH_RADIO_RX_P*%
X101022200Y-80478700D03*
X119182405Y-119468605D03*
D18*
%TO.N,ETH_SPARE_RX_P*%
X120902200Y-102718400D03*
D17*
X99732200Y-81768400D03*
D18*
%TO.N,ETH_SPARE_RX_N*%
X99722200Y-85198400D03*
X120932200Y-101468400D03*
%TO.N,ETH_SPARE_TX_P*%
X117652500Y-92626198D03*
X100202500Y-87088400D03*
%TO.N,ETH_SPARE_TX_N*%
X118531900Y-92626198D03*
X101081900Y-87088400D03*
D17*
%TO.N,XAVIER_CONSOLE_TX_OUT*%
X80392200Y-98428400D03*
X98722200Y-90888400D03*
%TO.N,XAVIER_CONSOLE_RX_IN*%
X97602200Y-90798400D03*
X76092200Y-96018400D03*
%TO.N,FMU_I2C_1_SDA*%
X65312200Y-121878400D03*
X103812200Y-122438400D03*
%TO.N,FMU_I2C_1_SCL*%
X103292200Y-122048400D03*
X65022200Y-120668400D03*
%TO.N,GPS1_RX*%
X102772200Y-119388400D03*
X65072200Y-119468400D03*
%TO.N,GPS1_TX*%
X102272200Y-119138400D03*
X64762200Y-118218400D03*
%TO.N,+VDD_5V_PERIPH*%
X98212200Y-124568400D03*
X65272200Y-115758400D03*
X106250000Y-132400000D03*
X112272200Y-130918400D03*
X100192200Y-121548400D03*
X128132200Y-127338400D03*
X98250000Y-127436200D03*
X65362200Y-128338400D03*
%TO.N,BATT_VOLTAGE_SENS_PROT*%
X117232200Y-130778400D03*
%TO.N,BATT_CURRENT_SENS_PROT*%
X115242200Y-130758400D03*
%TO.N,FMU-CH1-PROT*%
X101082200Y-129468400D03*
X134762200Y-117528400D03*
%TO.N,IO-CH8-PROT*%
X105002200Y-127568400D03*
X131772200Y-125308400D03*
%TO.N,IO-CH7-PROT*%
X132182200Y-125858400D03*
X104252200Y-127938400D03*
%TO.N,IO-CH6-PROT*%
X103782200Y-128408400D03*
X132652200Y-126158400D03*
%TO.N,IO-CH5-PROT*%
X133152200Y-126638400D03*
X103412200Y-129048400D03*
%TO.N,IO-CH4-PROT*%
X133582200Y-127308400D03*
X102942200Y-129528400D03*
%TO.N,IO-CH3-PROT*%
X134012200Y-128208400D03*
X102372200Y-129968400D03*
%TO.N,IO-CH2-PROT*%
X134492200Y-128948400D03*
X101782200Y-130418400D03*
%TO.N,IO-CH1-PROT*%
X134592200Y-129708400D03*
X101252200Y-130848400D03*
D18*
%TO.N,ETH_RADIO_TX_POSTMAG_N*%
X134412904Y-101320460D03*
X131001382Y-110802500D03*
%TO.N,ETH_RADIO_TX_POSTMAG_P*%
X131001382Y-111681900D03*
X134412904Y-102199860D03*
%TO.N,ETH_RADIO_RX_POSTMAG_N*%
X134279799Y-104159205D03*
X130992200Y-118422500D03*
%TO.N,ETH_RADIO_RX_POSTMAG_P*%
X130992200Y-119301900D03*
X134901629Y-104781035D03*
%TO.N,ETH_SPARE_TX_POSTMAG_N*%
X135872200Y-91933400D03*
X130240261Y-93817537D03*
%TO.N,ETH_SPARE_TX_POSTMAG_P*%
X130862091Y-94439367D03*
X135872200Y-93183400D03*
%TO.N,ETH_SPARE_RX_POSTMAG_N*%
X131861285Y-99907485D03*
X135872200Y-94433400D03*
%TO.N,ETH_SPARE_RX_POSTMAG_P*%
X135872200Y-95683400D03*
X132483115Y-100529315D03*
D17*
%TO.N,Net-(C20-Pad1)*%
X96562200Y-107658400D03*
X97912200Y-102768400D03*
%TO.N,Net-(D4-Pad1)*%
X67532200Y-135148400D03*
%TO.N,Net-(C21-Pad1)*%
X79622200Y-102718400D03*
X78242200Y-107678400D03*
D18*
%TO.N,+5V_FMU*%
X104282200Y-116708400D03*
X101832200Y-114698400D03*
D19*
X69352200Y-131758400D03*
D18*
X102982200Y-115728400D03*
X104152200Y-108568400D03*
X101182200Y-108508400D03*
X99762200Y-108518400D03*
X104242200Y-114738400D03*
X99012200Y-108508400D03*
X109562200Y-124468400D03*
X101802200Y-116708400D03*
D17*
X92932200Y-108638400D03*
D19*
X98192200Y-117468400D03*
D18*
X103392200Y-108548400D03*
X111472200Y-122498400D03*
X101962200Y-108538400D03*
D17*
%TO.N,Net-(D5-Pad1)*%
X69372200Y-135098400D03*
%TO.N,IRID_ON_OFF_3.3*%
X115742200Y-81798400D03*
X80682200Y-82218400D03*
%TO.N,IRID_TX_IN_3.3*%
X115252200Y-81338400D03*
X81172200Y-81658400D03*
%TO.N,IRID_RING_3.3*%
X81672200Y-81138400D03*
X114772200Y-81828400D03*
%TO.N,IRID_NA_3.3*%
X114272200Y-81478400D03*
X82238400Y-80712200D03*
%TO.N,IRID_RX_OUT_3.3*%
X73192200Y-85518400D03*
X117472200Y-87228400D03*
D18*
%TO.N,CAM1_D0_N*%
X113076005Y-87803097D03*
%TO.N,CAM1_D0_P*%
X112138357Y-87415414D03*
%TO.N,CAM1_C_N*%
X108032200Y-84838400D03*
%TO.N,CAM1_C_P*%
X109022200Y-85478400D03*
%TO.N,CAM1_D1_N*%
X109682200Y-87748100D03*
%TO.N,CAM1_D1_P*%
X109672200Y-86868700D03*
D17*
%TO.N,RC_INPUT*%
X107772200Y-124758400D03*
X64952200Y-108308400D03*
%TO.N,+VDD_5V_RADIO*%
X107252200Y-127358400D03*
X107182200Y-124818400D03*
X64812200Y-109518400D03*
%TO.N,SAFETY_VDD*%
X105782200Y-123498400D03*
X64722200Y-125718400D03*
%TO.N,~{SAFETY_SWITCH_LED_OUT}*%
X68162200Y-124418400D03*
X105202200Y-123068400D03*
%TO.N,SAFETY_SWITCH_IN*%
X65252200Y-123258400D03*
X104722200Y-122738400D03*
%TO.N,TELEM1_TX*%
X114272200Y-133768400D03*
X66272200Y-126188400D03*
%TO.N,TELEM1_RX*%
X65842200Y-124998400D03*
X114222200Y-134328400D03*
%TO.N,TELEM1_CTS*%
X112362200Y-135538400D03*
X65462200Y-123788400D03*
%TO.N,TELEM1_RTS*%
X65362200Y-122538400D03*
X112662200Y-133848400D03*
D19*
%TO.N,Net-(D9-Pad1)*%
X76832200Y-128258400D03*
%TO.N,Net-(F1-Pad2)*%
X85912200Y-132188400D03*
D17*
%TO.N,CAN_2+*%
X108812200Y-130588400D03*
%TO.N,CAN_2-*%
X109262200Y-130908400D03*
%TO.N,FMU_I2C_2_SDA*%
X98892200Y-133728400D03*
X107602200Y-133918400D03*
%TO.N,FMU_I2C_2_SCL*%
X106812200Y-133888400D03*
X100167200Y-133793400D03*
%TO.N,FMU-CH4-PROT*%
X135872200Y-113703400D03*
X99250000Y-128676200D03*
%TO.N,FMU-CH3-PROT*%
X99742200Y-129108400D03*
X134712200Y-114968400D03*
%TO.N,FMU-CH2-PROT*%
X100372200Y-129588400D03*
X134822200Y-116198400D03*
D18*
%TO.N,CAM1_GPIO*%
X108252200Y-92298400D03*
X111062200Y-84978400D03*
%TO.N,CAM1_MCLK*%
X107479301Y-92542221D03*
X112042200Y-84928400D03*
%TO.N,CAM1_SCL0*%
X106917411Y-92081695D03*
X113072200Y-86928400D03*
%TO.N,CAM1_SDA0*%
X106192200Y-92038400D03*
X114012200Y-87208400D03*
D17*
%TO.N,CAM0_D0_N*%
X104947405Y-92873605D03*
X76639012Y-86224581D03*
%TO.N,CAM0_D0_P*%
X104466995Y-92393195D03*
X77318412Y-86224581D03*
%TO.N,CAM0_C_N*%
X82912200Y-81948700D03*
X104102200Y-87838400D03*
%TO.N,CAM0_C_P*%
X82912200Y-82628100D03*
X103492200Y-87798400D03*
%TO.N,CAM0_D1_N*%
X100632200Y-92028100D03*
X80181995Y-86778605D03*
%TO.N,CAM0_D1_P*%
X80662405Y-86298195D03*
X100632200Y-91348700D03*
%TO.N,CAM0_GPIO*%
X101262200Y-87858400D03*
X85372200Y-84828400D03*
%TO.N,CAM0_MCLK*%
X86372200Y-84828400D03*
X101002200Y-90818400D03*
%TO.N,CAM0_SCL0*%
X100432200Y-90788400D03*
X87372200Y-84828400D03*
%TO.N,CAM0_SDA0*%
X97802200Y-87368400D03*
X88372200Y-84828400D03*
%TO.N,UART4_RX*%
X114882200Y-124518400D03*
X127032200Y-105198400D03*
%TO.N,UART4_TX*%
X126862200Y-103518400D03*
X114192200Y-124538400D03*
%TO.N,S.BUS_OUT*%
X113712200Y-127488400D03*
%TO.N,Net-(C34-Pad1)*%
X76762200Y-96108400D03*
X76787200Y-101513400D03*
%TO.N,Net-(FL1-Pad2)*%
X68172200Y-103518400D03*
X67032200Y-104278400D03*
%TO.N,Net-(J7-PadA5)*%
X67552200Y-104548400D03*
%TO.N,Net-(J7-PadB5)*%
X66452200Y-103268400D03*
%TO.N,Net-(C35-Pad1)*%
X128237200Y-86958400D03*
%TO.N,Net-(C36-Pad1)*%
X127682200Y-87778400D03*
%TO.N,Net-(C39-Pad1)*%
X126862200Y-80148400D03*
X130087200Y-83683400D03*
%TO.N,Net-(FB2-Pad1)*%
X134692200Y-87555900D03*
%TO.N,Net-(FL2-Pad1)*%
X131732200Y-90178400D03*
X129812200Y-89578400D03*
%TO.N,Net-(J29-PadA5)*%
X129872200Y-88828400D03*
%TO.N,Net-(J29-PadB5)*%
X133852200Y-89428400D03*
%TO.N,VNAV_UART_TX_OUT*%
X118605200Y-94635400D03*
X125542200Y-80978400D03*
%TO.N,VNAV_UART_RX_IN*%
X124982200Y-80058400D03*
X116065200Y-94635400D03*
%TO.N,Net-(BT1-Pad1)*%
X113422200Y-115468400D03*
%TO.N,CAN_1+*%
X110702200Y-130638400D03*
%TO.N,CAN_1-*%
X111282200Y-130708400D03*
D18*
%TO.N,/MainPower/PWR_IN*%
X79612200Y-91788400D03*
X82252200Y-90158400D03*
X83942200Y-92378400D03*
X82232200Y-92348400D03*
X74582200Y-94408400D03*
X73912200Y-91888400D03*
X77132200Y-92958400D03*
X83132200Y-91358400D03*
X79612200Y-92948400D03*
X84002200Y-90158400D03*
X77182200Y-91698400D03*
D17*
%TO.N,Net-(D10-Pad2)*%
X120840000Y-134470000D03*
D18*
X134622200Y-112458400D03*
D17*
%TO.N,BUZZER_1*%
X75830000Y-126040000D03*
X106202199Y-123928401D03*
%TO.N,Net-(R27-Pad1)*%
X72097500Y-125455000D03*
X74200000Y-126010000D03*
%TO.N,Net-(R30-Pad1)*%
X69822500Y-125455000D03*
X68360000Y-123600000D03*
%TD*%
D21*
%TO.N,+VDD_5V_PERIPH*%
X98592200Y-130788400D02*
X98592200Y-127778400D01*
X100203800Y-132400000D02*
X98592200Y-130788400D01*
X98592200Y-127778400D02*
X98250000Y-127436200D01*
X106250000Y-132400000D02*
X100203800Y-132400000D01*
D22*
%TO.N,RC_INPUT*%
X64952200Y-108878400D02*
X64952200Y-108308400D01*
X104407099Y-119973299D02*
X76047099Y-119973299D01*
X107772200Y-123338400D02*
X104407099Y-119973299D01*
X107772200Y-124758400D02*
X107772200Y-123338400D01*
X76047099Y-119973299D02*
X64952200Y-108878400D01*
D21*
%TO.N,+VDD_5V_RADIO*%
X75782200Y-120488400D02*
X64812200Y-109518400D01*
X104072200Y-120488400D02*
X75782200Y-120488400D01*
X107182200Y-124818400D02*
X107182200Y-123598400D01*
X107182200Y-123598400D02*
X104072200Y-120488400D01*
D22*
%TO.N,TELEM1_TX*%
X112972200Y-134798400D02*
X74402200Y-134798400D01*
X66272200Y-126668400D02*
X66272200Y-126188400D01*
X114002200Y-133768400D02*
X112972200Y-134798400D01*
X114272200Y-133768400D02*
X114002200Y-133768400D01*
X74402200Y-134798400D02*
X66272200Y-126668400D01*
%TO.N,TELEM1_RX*%
X74246626Y-135108400D02*
X65842200Y-126703974D01*
X65842200Y-126703974D02*
X65842200Y-124998400D01*
X114222200Y-134328400D02*
X113442200Y-135108400D01*
X113442200Y-135108400D02*
X74246626Y-135108400D01*
%TO.N,TELEM1_CTS*%
X65402200Y-123848400D02*
X65402200Y-126658400D01*
X112322200Y-135498400D02*
X112362200Y-135538400D01*
X74242200Y-135498400D02*
X112322200Y-135498400D01*
X65462200Y-123788400D02*
X65402200Y-123848400D01*
X65402200Y-126658400D02*
X74242200Y-135498400D01*
%TO.N,TELEM1_RTS*%
X67222200Y-127118400D02*
X67222200Y-126638400D01*
X112662200Y-133848400D02*
X112052200Y-134458400D01*
X66692200Y-123868400D02*
X65362200Y-122538400D01*
X66692200Y-126108400D02*
X66692200Y-123868400D01*
X112052200Y-134458400D02*
X74562200Y-134458400D01*
X74562200Y-134458400D02*
X67222200Y-127118400D01*
X67222200Y-126638400D02*
X66692200Y-126108400D01*
%TO.N,FMU_I2C_2_SCL*%
X106717200Y-133793400D02*
X106812200Y-133888400D01*
X100167200Y-133793400D02*
X106717200Y-133793400D01*
%TO.N,CAM1_GPIO*%
X109002200Y-86658400D02*
X108252200Y-87408400D01*
X111062200Y-84978400D02*
X110682200Y-84978400D01*
X110682200Y-84978400D02*
X109002200Y-86658400D01*
X108252200Y-87408400D02*
X108252200Y-92298400D01*
%TO.N,CAM1_MCLK*%
X107742200Y-85918400D02*
X107742200Y-92279322D01*
X112042200Y-84928400D02*
X111382200Y-84268400D01*
X109392200Y-84268400D02*
X107742200Y-85918400D01*
X107742200Y-92279322D02*
X107479301Y-92542221D01*
X111382200Y-84268400D02*
X109392200Y-84268400D01*
%TO.N,CAM1_SCL0*%
X106182200Y-86698400D02*
X107072200Y-87588400D01*
X107072200Y-91926906D02*
X106917411Y-92081695D01*
X113022200Y-86878400D02*
X113072200Y-86928400D01*
X106182200Y-84948400D02*
X106182200Y-86698400D01*
X107072200Y-87588400D02*
X107072200Y-91926906D01*
X111922200Y-83788400D02*
X107342200Y-83788400D01*
X107342200Y-83788400D02*
X106182200Y-84948400D01*
X113022200Y-84888400D02*
X111922200Y-83788400D01*
X113022200Y-84888400D02*
X113022200Y-86878400D01*
%TO.N,CAM1_SDA0*%
X105882200Y-91728400D02*
X105882200Y-84668400D01*
X112572200Y-83468400D02*
X114012200Y-84908400D01*
X107082200Y-83468400D02*
X112572200Y-83468400D01*
X106192200Y-92038400D02*
X105882200Y-91728400D01*
X114012200Y-84908400D02*
X114012200Y-87208400D01*
X105882200Y-84668400D02*
X107082200Y-83468400D01*
D23*
%TO.N,CAM0_D0_N*%
X104947405Y-92873605D02*
X93520035Y-92873605D01*
X93520035Y-92873605D02*
X89238030Y-88591600D01*
X89238030Y-88591600D02*
X77688030Y-88591600D01*
X77688030Y-88591600D02*
X76775511Y-87679081D01*
X76775511Y-87679081D02*
X76775511Y-86361080D01*
X76775511Y-86361080D02*
X76639012Y-86224581D01*
%TO.N,CAM0_D0_P*%
X77856370Y-88185200D02*
X77181913Y-87510743D01*
X103283395Y-92217205D02*
X103283395Y-91728587D01*
X104466995Y-92393195D02*
X104392985Y-92467205D01*
X101170366Y-92467205D02*
X93688375Y-92467205D01*
X104392985Y-92467205D02*
X103533395Y-92467205D01*
X93688375Y-92467205D02*
X89406370Y-88185200D01*
X77181913Y-86361080D02*
X77318412Y-86224581D01*
X77181913Y-87510743D02*
X77181913Y-86361080D01*
X89406370Y-88185200D02*
X77856370Y-88185200D01*
X102783395Y-91728587D02*
X102783395Y-92217205D01*
X102533395Y-92467205D02*
X101170366Y-92467205D01*
X102783387Y-91728587D02*
G75*
G02*
X103033395Y-91478587I250013J-13D01*
G01*
X103283395Y-92217205D02*
G75*
G03*
X103533395Y-92467205I250005J5D01*
G01*
X103033395Y-91478605D02*
G75*
G02*
X103283395Y-91728587I5J-249995D01*
G01*
X102533395Y-92467195D02*
G75*
G03*
X102783395Y-92217205I5J249995D01*
G01*
%TO.N,CAM0_C_N*%
X90639870Y-81948700D02*
X94536370Y-85845200D01*
X94536370Y-85845200D02*
X102123071Y-85845200D01*
X104102200Y-87824329D02*
X104102200Y-87838400D01*
X82912200Y-81948700D02*
X90639870Y-81948700D01*
X102123071Y-85845200D02*
X104102200Y-87824329D01*
%TO.N,CAM0_C_P*%
X87153554Y-82999755D02*
X87381900Y-82999755D01*
X87767727Y-82256445D02*
X87996073Y-82256445D01*
X82912200Y-82628100D02*
X86781900Y-82628100D01*
X88367727Y-82999755D02*
X88596073Y-82999755D01*
X87567727Y-82813928D02*
X87567727Y-82813927D01*
X88967727Y-82628100D02*
X89973370Y-82628100D01*
X87567727Y-82628100D02*
X87581900Y-82628100D01*
X86967727Y-82813927D02*
X86967727Y-82813928D01*
X88181900Y-82442272D02*
X88181900Y-82628100D01*
X90744530Y-82628100D02*
X94368030Y-86251600D01*
X88181900Y-82628100D02*
X88181900Y-82813928D01*
X94368030Y-86251600D02*
X101945400Y-86251600D01*
X89973370Y-82628100D02*
X90744530Y-82628100D01*
X88781900Y-82813928D02*
X88781900Y-82813927D01*
X101945400Y-86251600D02*
X103492200Y-87798400D01*
X87581900Y-82628100D02*
X87581900Y-82442272D01*
X87567727Y-82813927D02*
X87567727Y-82628100D01*
X87153554Y-82999773D02*
G75*
G02*
X86967727Y-82813928I46J185873D01*
G01*
X88781955Y-82813928D02*
G75*
G02*
X88596073Y-82999755I-185855J28D01*
G01*
X87567755Y-82813928D02*
G75*
G02*
X87381900Y-82999755I-185855J28D01*
G01*
X87767727Y-82256500D02*
G75*
G03*
X87581900Y-82442272I-27J-185800D01*
G01*
X86967700Y-82813927D02*
G75*
G03*
X86781900Y-82628100I-185800J27D01*
G01*
X88181955Y-82442272D02*
G75*
G03*
X87996073Y-82256445I-185855J-28D01*
G01*
X88367727Y-82999700D02*
G75*
G02*
X88181900Y-82813928I-27J185800D01*
G01*
X88967727Y-82628100D02*
G75*
G03*
X88781900Y-82813927I-27J-185800D01*
G01*
%TO.N,CAM0_D1_N*%
X100632200Y-92028100D02*
X100495701Y-91891601D01*
X80375036Y-86778605D02*
X80181995Y-86778605D01*
X94478031Y-91891601D02*
X90268030Y-87681600D01*
X90268030Y-87681600D02*
X81278031Y-87681600D01*
X81278031Y-87681600D02*
X80375036Y-86778605D01*
X100495701Y-91891601D02*
X94478031Y-91891601D01*
%TO.N,CAM0_D1_P*%
X80662405Y-86491236D02*
X81446369Y-87275200D01*
X85660400Y-86475469D02*
X85660400Y-86900200D01*
X94646369Y-91485199D02*
X100495701Y-91485199D01*
X87178842Y-87275200D02*
X90436370Y-87275200D01*
X90436370Y-87275200D02*
X94646369Y-91485199D01*
X100495701Y-91485199D02*
X100632200Y-91348700D01*
X86035400Y-87275200D02*
X87178842Y-87275200D01*
X81446369Y-87275200D02*
X84535400Y-87275200D01*
X84910400Y-86900200D02*
X84910400Y-86475469D01*
X80662405Y-86298195D02*
X80662405Y-86491236D01*
X85285400Y-86100500D02*
G75*
G03*
X84910400Y-86475469I0J-375000D01*
G01*
X85660431Y-86475469D02*
G75*
G03*
X85285400Y-86100469I-375031J-31D01*
G01*
X84910400Y-86900200D02*
G75*
G02*
X84535400Y-87275200I-375000J0D01*
G01*
X86035400Y-87275200D02*
G75*
G02*
X85660400Y-86900200I0J375000D01*
G01*
D22*
%TO.N,CAM0_GPIO*%
X86167200Y-83338400D02*
X85372200Y-84133400D01*
X94082200Y-86808400D02*
X90602200Y-83328400D01*
X85372200Y-84133400D02*
X85372200Y-84828400D01*
X98782200Y-86808400D02*
X94082200Y-86808400D01*
X101262200Y-87858400D02*
X99832200Y-87858400D01*
X90092200Y-83338400D02*
X86167200Y-83338400D01*
X99832200Y-87858400D02*
X98782200Y-86808400D01*
X90602200Y-83328400D02*
X90102200Y-83328400D01*
X90102200Y-83328400D02*
X90092200Y-83338400D01*
%TO.N,CAM0_SCL0*%
X87372200Y-86118400D02*
X87372200Y-84828400D01*
X99522200Y-89878400D02*
X93642200Y-89878400D01*
X100432200Y-90788400D02*
X99522200Y-89878400D01*
X87982200Y-86728400D02*
X87372200Y-86118400D01*
X93642200Y-89878400D02*
X90492200Y-86728400D01*
X90492200Y-86728400D02*
X87982200Y-86728400D01*
%TO.N,CAM0_SDA0*%
X97802200Y-87368400D02*
X91662200Y-87368400D01*
X88372200Y-85878400D02*
X88372200Y-84828400D01*
X88822200Y-86328400D02*
X88372200Y-85878400D01*
X90622200Y-86328400D02*
X88822200Y-86328400D01*
X91662200Y-87368400D02*
X90622200Y-86328400D01*
%TO.N,UART4_RX*%
X122382200Y-105198400D02*
X116312200Y-111268400D01*
X116312200Y-111268400D02*
X116312200Y-122068400D01*
X116312200Y-122068400D02*
X114882200Y-123498400D01*
X114882200Y-123498400D02*
X114882200Y-124518400D01*
X127032200Y-105198400D02*
X122382200Y-105198400D01*
%TO.N,UART4_TX*%
X116033298Y-121952876D02*
X116033298Y-111152876D01*
X125472200Y-104908400D02*
X126862200Y-103518400D01*
X114192200Y-123793974D02*
X116033298Y-121952876D01*
X114192200Y-124538400D02*
X114192200Y-123793974D01*
X116033298Y-111152876D02*
X122277774Y-104908400D01*
X122277774Y-104908400D02*
X125472200Y-104908400D01*
%TO.N,Net-(C34-Pad1)*%
X76787200Y-96133400D02*
X76762200Y-96108400D01*
X76787200Y-101513400D02*
X76787200Y-96133400D01*
%TO.N,Net-(FL2-Pad1)*%
X131132200Y-89578400D02*
X131732200Y-90178400D01*
X129812200Y-89578400D02*
X131132200Y-89578400D01*
%TO.N,VNAV_UART_TX_OUT*%
X122362200Y-82958400D02*
X124342200Y-80978400D01*
X118605200Y-94275400D02*
X122362200Y-90518400D01*
X124342200Y-80978400D02*
X125542200Y-80978400D01*
X118605200Y-94635400D02*
X118605200Y-94275400D01*
X122362200Y-90518400D02*
X122362200Y-82958400D01*
%TO.N,VNAV_UART_RX_IN*%
X122072200Y-90358400D02*
X117795200Y-94635400D01*
X124867774Y-80058400D02*
X122072200Y-82853974D01*
X124982200Y-80058400D02*
X124867774Y-80058400D01*
X117795200Y-94635400D02*
X116065200Y-94635400D01*
X122072200Y-82853974D02*
X122072200Y-90358400D01*
D21*
%TO.N,Net-(D10-Pad2)*%
X133052200Y-114028400D02*
X133052200Y-120388400D01*
X124092200Y-129348400D02*
X123191600Y-129348400D01*
X134622200Y-112458400D02*
X133052200Y-114028400D01*
X122190000Y-133410000D02*
X121130000Y-134470000D01*
X133052200Y-120388400D02*
X124092200Y-129348400D01*
X123191600Y-129348400D02*
X122190000Y-130350000D01*
X121130000Y-134470000D02*
X120840000Y-134470000D01*
X122190000Y-130350000D02*
X122190000Y-133410000D01*
%TD*%
M02*
