%TF.GenerationSoftware,KiCad,Pcbnew,7.0.6-rc1-29-g152dc56df4*%
%TF.CreationDate,2023-07-03T16:00:48-04:00*%
%TF.ProjectId,pixc4-jetson-universal-carrier,70697863-342d-46a6-9574-736f6e2d756e,rev?*%
%TF.SameCoordinates,Original*%
%TF.FileFunction,Copper,L10,Bot*%
%TF.FilePolarity,Positive*%
%FSLAX46Y46*%
G04 Gerber Fmt 4.6, Leading zero omitted, Abs format (unit mm)*
G04 Created by KiCad (PCBNEW 7.0.6-rc1-29-g152dc56df4) date 2023-07-03 16:00:48*
%MOMM*%
%LPD*%
G01*
G04 APERTURE LIST*
G04 Aperture macros list*
%AMRoundRect*
0 Rectangle with rounded corners*
0 $1 Rounding radius*
0 $2 $3 $4 $5 $6 $7 $8 $9 X,Y pos of 4 corners*
0 Add a 4 corners polygon primitive as box body*
4,1,4,$2,$3,$4,$5,$6,$7,$8,$9,$2,$3,0*
0 Add four circle primitives for the rounded corners*
1,1,$1+$1,$2,$3*
1,1,$1+$1,$4,$5*
1,1,$1+$1,$6,$7*
1,1,$1+$1,$8,$9*
0 Add four rect primitives between the rounded corners*
20,1,$1+$1,$2,$3,$4,$5,0*
20,1,$1+$1,$4,$5,$6,$7,0*
20,1,$1+$1,$6,$7,$8,$9,0*
20,1,$1+$1,$8,$9,$2,$3,0*%
G04 Aperture macros list end*
%TA.AperFunction,ComponentPad*%
%ADD10C,1.400000*%
%TD*%
%TA.AperFunction,ComponentPad*%
%ADD11R,3.500000X3.500000*%
%TD*%
%TA.AperFunction,ComponentPad*%
%ADD12C,3.500000*%
%TD*%
%TA.AperFunction,ComponentPad*%
%ADD13C,0.800000*%
%TD*%
%TA.AperFunction,ComponentPad*%
%ADD14C,5.400000*%
%TD*%
%TA.AperFunction,ComponentPad*%
%ADD15C,1.600000*%
%TD*%
%TA.AperFunction,ComponentPad*%
%ADD16C,0.600000*%
%TD*%
%TA.AperFunction,SMDPad,CuDef*%
%ADD17R,1.650000X2.400000*%
%TD*%
%TA.AperFunction,SMDPad,CuDef*%
%ADD18RoundRect,0.150000X0.150000X0.700000X-0.150000X0.700000X-0.150000X-0.700000X0.150000X-0.700000X0*%
%TD*%
%TA.AperFunction,SMDPad,CuDef*%
%ADD19RoundRect,0.250000X0.250000X1.100000X-0.250000X1.100000X-0.250000X-1.100000X0.250000X-1.100000X0*%
%TD*%
%TA.AperFunction,SMDPad,CuDef*%
%ADD20RoundRect,0.150000X-0.700000X0.150000X-0.700000X-0.150000X0.700000X-0.150000X0.700000X0.150000X0*%
%TD*%
%TA.AperFunction,SMDPad,CuDef*%
%ADD21RoundRect,0.250000X-1.100000X0.250000X-1.100000X-0.250000X1.100000X-0.250000X1.100000X0.250000X0*%
%TD*%
%TA.AperFunction,SMDPad,CuDef*%
%ADD22R,2.800000X1.000000*%
%TD*%
%TA.AperFunction,SMDPad,CuDef*%
%ADD23R,1.800000X0.600000*%
%TD*%
%TA.AperFunction,SMDPad,CuDef*%
%ADD24R,0.350000X0.300000*%
%TD*%
%TA.AperFunction,SMDPad,CuDef*%
%ADD25C,0.500000*%
%TD*%
%TA.AperFunction,SMDPad,CuDef*%
%ADD26RoundRect,0.100000X0.100000X-0.130000X0.100000X0.130000X-0.100000X0.130000X-0.100000X-0.130000X0*%
%TD*%
%TA.AperFunction,SMDPad,CuDef*%
%ADD27R,1.714500X0.762000*%
%TD*%
%TA.AperFunction,SMDPad,CuDef*%
%ADD28RoundRect,0.100000X-0.100000X0.130000X-0.100000X-0.130000X0.100000X-0.130000X0.100000X0.130000X0*%
%TD*%
%TA.AperFunction,SMDPad,CuDef*%
%ADD29RoundRect,0.135000X-0.185000X0.135000X-0.185000X-0.135000X0.185000X-0.135000X0.185000X0.135000X0*%
%TD*%
%TA.AperFunction,SMDPad,CuDef*%
%ADD30RoundRect,0.100000X-0.130000X-0.100000X0.130000X-0.100000X0.130000X0.100000X-0.130000X0.100000X0*%
%TD*%
%TA.AperFunction,SMDPad,CuDef*%
%ADD31RoundRect,0.218750X-0.218750X-0.256250X0.218750X-0.256250X0.218750X0.256250X-0.218750X0.256250X0*%
%TD*%
%TA.AperFunction,SMDPad,CuDef*%
%ADD32RoundRect,0.218750X-0.256250X0.218750X-0.256250X-0.218750X0.256250X-0.218750X0.256250X0.218750X0*%
%TD*%
%TA.AperFunction,SMDPad,CuDef*%
%ADD33R,0.800000X1.140000*%
%TD*%
%TA.AperFunction,SMDPad,CuDef*%
%ADD34R,0.700000X2.100000*%
%TD*%
%TA.AperFunction,SMDPad,CuDef*%
%ADD35RoundRect,0.100000X0.130000X0.100000X-0.130000X0.100000X-0.130000X-0.100000X0.130000X-0.100000X0*%
%TD*%
%TA.AperFunction,SMDPad,CuDef*%
%ADD36R,0.812800X0.254000*%
%TD*%
%TA.AperFunction,SMDPad,CuDef*%
%ADD37R,0.254000X0.812800*%
%TD*%
%TA.AperFunction,SMDPad,CuDef*%
%ADD38R,5.994400X5.994400*%
%TD*%
%TA.AperFunction,SMDPad,CuDef*%
%ADD39RoundRect,0.250000X-0.650000X0.325000X-0.650000X-0.325000X0.650000X-0.325000X0.650000X0.325000X0*%
%TD*%
%TA.AperFunction,SMDPad,CuDef*%
%ADD40R,0.299999X0.449999*%
%TD*%
%TA.AperFunction,SMDPad,CuDef*%
%ADD41R,1.599999X1.000000*%
%TD*%
%TA.AperFunction,SMDPad,CuDef*%
%ADD42R,0.280000X0.850000*%
%TD*%
%TA.AperFunction,SMDPad,CuDef*%
%ADD43R,0.700000X0.280000*%
%TD*%
%TA.AperFunction,SMDPad,CuDef*%
%ADD44R,2.400000X1.650000*%
%TD*%
%TA.AperFunction,SMDPad,CuDef*%
%ADD45R,0.711200X0.254000*%
%TD*%
%TA.AperFunction,SMDPad,CuDef*%
%ADD46R,1.600200X2.387600*%
%TD*%
%TA.AperFunction,SMDPad,CuDef*%
%ADD47RoundRect,0.225000X0.250000X-0.225000X0.250000X0.225000X-0.250000X0.225000X-0.250000X-0.225000X0*%
%TD*%
%TA.AperFunction,SMDPad,CuDef*%
%ADD48RoundRect,0.150000X0.700000X-0.150000X0.700000X0.150000X-0.700000X0.150000X-0.700000X-0.150000X0*%
%TD*%
%TA.AperFunction,SMDPad,CuDef*%
%ADD49RoundRect,0.250000X1.100000X-0.250000X1.100000X0.250000X-1.100000X0.250000X-1.100000X-0.250000X0*%
%TD*%
%TA.AperFunction,ComponentPad*%
%ADD50C,3.900000*%
%TD*%
%TA.AperFunction,SMDPad,CuDef*%
%ADD51R,1.497551X0.711200*%
%TD*%
%TA.AperFunction,SMDPad,CuDef*%
%ADD52R,0.850000X0.750000*%
%TD*%
%TA.AperFunction,SMDPad,CuDef*%
%ADD53RoundRect,0.250000X0.412500X0.925000X-0.412500X0.925000X-0.412500X-0.925000X0.412500X-0.925000X0*%
%TD*%
%TA.AperFunction,SMDPad,CuDef*%
%ADD54R,0.610000X2.000000*%
%TD*%
%TA.AperFunction,SMDPad,CuDef*%
%ADD55R,2.680000X3.600000*%
%TD*%
%TA.AperFunction,SMDPad,CuDef*%
%ADD56R,1.550000X0.300000*%
%TD*%
%TA.AperFunction,SMDPad,CuDef*%
%ADD57R,2.750000X1.200000*%
%TD*%
%TA.AperFunction,SMDPad,CuDef*%
%ADD58RoundRect,0.250000X-0.475000X0.250000X-0.475000X-0.250000X0.475000X-0.250000X0.475000X0.250000X0*%
%TD*%
%TA.AperFunction,SMDPad,CuDef*%
%ADD59RoundRect,0.250000X-0.412500X-0.925000X0.412500X-0.925000X0.412500X0.925000X-0.412500X0.925000X0*%
%TD*%
%TA.AperFunction,ViaPad*%
%ADD60C,0.400000*%
%TD*%
%TA.AperFunction,ViaPad*%
%ADD61C,0.500000*%
%TD*%
%TA.AperFunction,ViaPad*%
%ADD62C,0.600000*%
%TD*%
%TA.AperFunction,Conductor*%
%ADD63C,0.152400*%
%TD*%
%TA.AperFunction,Conductor*%
%ADD64C,0.304800*%
%TD*%
%TA.AperFunction,Conductor*%
%ADD65C,0.254000*%
%TD*%
%TA.AperFunction,Conductor*%
%ADD66C,0.157480*%
%TD*%
%TA.AperFunction,Conductor*%
%ADD67C,0.127254*%
%TD*%
%TA.AperFunction,Conductor*%
%ADD68C,0.144780*%
%TD*%
%TA.AperFunction,Conductor*%
%ADD69C,0.102108*%
%TD*%
%TA.AperFunction,Conductor*%
%ADD70C,0.355600*%
%TD*%
%TA.AperFunction,Conductor*%
%ADD71C,0.508000*%
%TD*%
G04 APERTURE END LIST*
D10*
%TO.P,J27,*%
%TO.N,*%
X61310700Y-97173560D03*
X61310700Y-86173560D03*
D11*
%TO.P,J27,1,Pin_1*%
%TO.N,GND*%
X71310700Y-89173560D03*
D12*
%TO.P,J27,2,Pin_2*%
%TO.N,/MainPower/PWR_IN*%
X71310700Y-94173560D03*
%TD*%
D13*
%TO.P,J1,1,Pin_1*%
%TO.N,GND*%
X59475000Y-81750000D03*
X60068109Y-80318109D03*
X60068109Y-83181891D03*
X61500000Y-79725000D03*
D14*
X61500000Y-81750000D03*
D13*
X61500000Y-83775000D03*
X62931891Y-80318109D03*
X62931891Y-83181891D03*
X63525000Y-81750000D03*
%TD*%
%TO.P,J2,1,Pin_1*%
%TO.N,GND*%
X59475000Y-133750000D03*
X60068109Y-132318109D03*
X60068109Y-135181891D03*
X61500000Y-131725000D03*
D14*
X61500000Y-133750000D03*
D13*
X61500000Y-135775000D03*
X62931891Y-132318109D03*
X62931891Y-135181891D03*
X63525000Y-133750000D03*
%TD*%
%TO.P,J3,1,Pin_1*%
%TO.N,GND*%
X135475000Y-81750000D03*
X136068109Y-80318109D03*
X136068109Y-83181891D03*
X137500000Y-79725000D03*
D14*
X137500000Y-81750000D03*
D13*
X137500000Y-83775000D03*
X138931891Y-80318109D03*
X138931891Y-83181891D03*
X139525000Y-81750000D03*
%TD*%
%TO.P,J4,1,Pin_1*%
%TO.N,GND*%
X135475000Y-133750000D03*
X136068109Y-132318109D03*
X136068109Y-135181891D03*
X137500000Y-131725000D03*
D14*
X137500000Y-133750000D03*
D13*
X137500000Y-135775000D03*
X138931891Y-132318109D03*
X138931891Y-135181891D03*
X139525000Y-133750000D03*
%TD*%
D15*
%TO.P,J5,81,P1*%
%TO.N,+5V*%
X95750000Y-88625000D03*
%TO.P,J5,82,P2*%
X120250000Y-88625000D03*
%TO.P,J5,83,P3*%
%TO.N,GND*%
X95750000Y-83875000D03*
%TO.P,J5,84,P4*%
X120250000Y-83875000D03*
%TD*%
%TO.P,J6,81,P1*%
%TO.N,+5V*%
X95750000Y-131625000D03*
%TO.P,J6,82,P2*%
X120250000Y-131625000D03*
%TO.P,J6,83,P3*%
%TO.N,GND*%
X95750000Y-126875000D03*
%TO.P,J6,84,P4*%
X120250000Y-126875000D03*
%TD*%
D16*
%TO.P,U6,11,PAD*%
%TO.N,GND*%
X88900800Y-121406200D03*
X88900800Y-123126200D03*
X89380800Y-122266200D03*
D17*
X89380800Y-122266200D03*
D16*
X89860800Y-121406200D03*
X89860800Y-123126200D03*
%TD*%
D18*
%TO.P,J18,1,Pin_1*%
%TO.N,+VDD_5V_PERIPH*%
X76410000Y-132211200D03*
%TO.P,J18,2,Pin_2*%
%TO.N,TELEM1_TX*%
X75160000Y-132211200D03*
%TO.P,J18,3,Pin_3*%
%TO.N,TELEM1_RX*%
X73910000Y-132211200D03*
%TO.P,J18,4,Pin_4*%
%TO.N,TELEM1_CTS*%
X72660000Y-132211200D03*
%TO.P,J18,5,Pin_5*%
%TO.N,TELEM1_RTS*%
X71410000Y-132211200D03*
%TO.P,J18,6,Pin_6*%
%TO.N,GND*%
X70160000Y-132211200D03*
D19*
%TO.P,J18,MP*%
%TO.N,N/C*%
X78260000Y-135411200D03*
X68310000Y-135411200D03*
%TD*%
D20*
%TO.P,J21,1,Pin_1*%
%TO.N,PORT_VBUS_2*%
X135919600Y-87763334D03*
%TO.P,J21,2,Pin_2*%
%TO.N,USB2-*%
X135919600Y-89013334D03*
%TO.P,J21,3,Pin_3*%
%TO.N,USB2+*%
X135919600Y-90263334D03*
%TO.P,J21,4,Pin_4*%
%TO.N,GND*%
X135919600Y-91513334D03*
D21*
%TO.P,J21,MP*%
%TO.N,N/C*%
X139119600Y-85913334D03*
X139119600Y-93363334D03*
%TD*%
D20*
%TO.P,J22,1,Pin_1*%
%TO.N,PORT_VBUS_3*%
X135919600Y-96740000D03*
%TO.P,J22,2,Pin_2*%
%TO.N,USB3-*%
X135919600Y-97990000D03*
%TO.P,J22,3,Pin_3*%
%TO.N,USB3+*%
X135919600Y-99240000D03*
%TO.P,J22,4,Pin_4*%
%TO.N,GND*%
X135919600Y-100490000D03*
D21*
%TO.P,J22,MP*%
%TO.N,N/C*%
X139119600Y-94890000D03*
X139119600Y-102340000D03*
%TD*%
D20*
%TO.P,J23,1,Pin_1*%
%TO.N,PORT_VBUS_4*%
X135919600Y-105760000D03*
%TO.P,J23,2,Pin_2*%
%TO.N,USB4-*%
X135919600Y-107010000D03*
%TO.P,J23,3,Pin_3*%
%TO.N,USB4+*%
X135919600Y-108260000D03*
%TO.P,J23,4,Pin_4*%
%TO.N,GND*%
X135919600Y-109510000D03*
D21*
%TO.P,J23,MP*%
%TO.N,N/C*%
X139119600Y-103910000D03*
X139119600Y-111360000D03*
%TD*%
D22*
%TO.P,J16,*%
%TO.N,*%
X59870000Y-94570000D03*
X59870000Y-88570000D03*
D23*
%TO.P,J16,1,Pin_1*%
%TO.N,RC_INPUT*%
X63070000Y-92820000D03*
%TO.P,J16,2,Pin_2*%
%TO.N,+VDD_5V_RADIO*%
X63070000Y-91570000D03*
%TO.P,J16,3,Pin_3*%
%TO.N,GND*%
X63070000Y-90320000D03*
%TD*%
D20*
%TO.P,J17,1,Pin_1*%
%TO.N,+VDD_5V_PERIPH*%
X135919600Y-123900000D03*
%TO.P,J17,2,Pin_2*%
%TO.N,CAN_2+*%
X135919600Y-125150000D03*
%TO.P,J17,3,Pin_3*%
%TO.N,CAN_2-*%
X135919600Y-126400000D03*
%TO.P,J17,4,Pin_4*%
%TO.N,GND*%
X135919600Y-127650000D03*
D21*
%TO.P,J17,MP*%
%TO.N,N/C*%
X139119600Y-122050000D03*
X139119600Y-129500000D03*
%TD*%
D24*
%TO.P,C1,1*%
%TO.N,Net-(U1-RDCT)*%
X122910600Y-122102400D03*
%TO.P,C1,2*%
%TO.N,GND*%
X122910600Y-121542400D03*
%TD*%
%TO.P,C2,1*%
%TO.N,Net-(U2-RDCT)*%
X123012200Y-103531000D03*
%TO.P,C2,2*%
%TO.N,GND*%
X123012200Y-102971000D03*
%TD*%
%TO.P,C3,1*%
%TO.N,Net-(U1-TDCT)*%
X122910600Y-120242400D03*
%TO.P,C3,2*%
%TO.N,GND*%
X122910600Y-120802400D03*
%TD*%
%TO.P,C4,1*%
%TO.N,Net-(U2-TDCT)*%
X123012200Y-101751200D03*
%TO.P,C4,2*%
%TO.N,GND*%
X123012200Y-102311200D03*
%TD*%
%TO.P,C6,1*%
%TO.N,Net-(C6-Pad1)*%
X134340600Y-102971600D03*
%TO.P,C6,2*%
%TO.N,GND*%
X134340600Y-103531600D03*
%TD*%
D25*
%TO.P,FID3,~*%
%TO.N,N/C*%
X115770000Y-89080000D03*
%TD*%
%TO.P,FID5,~*%
%TO.N,N/C*%
X78280000Y-95850000D03*
%TD*%
%TO.P,FID6,~*%
%TO.N,N/C*%
X116250000Y-124950000D03*
%TD*%
D26*
%TO.P,R4,1*%
%TO.N,Net-(C6-Pad1)*%
X134360600Y-102401600D03*
%TO.P,R4,2*%
%TO.N,Net-(U2-RXCT)*%
X134360600Y-101761600D03*
%TD*%
D27*
%TO.P,U1,1,RD+*%
%TO.N,ETH_RADIO_RX_P*%
X124407250Y-125649800D03*
%TO.P,U1,2,RD-*%
%TO.N,ETH_RADIO_RX_N*%
X124407250Y-124379800D03*
%TO.P,U1,3,RDCT*%
%TO.N,Net-(U1-RDCT)*%
X124407250Y-123109800D03*
%TO.P,U1,4,TDCT*%
%TO.N,Net-(U1-TDCT)*%
X124407250Y-119299800D03*
%TO.P,U1,5,TD+*%
%TO.N,ETH_RADIO_TX_P*%
X124407250Y-118029800D03*
%TO.P,U1,6,TD-*%
%TO.N,ETH_RADIO_TX_N*%
X124407250Y-116759800D03*
%TO.P,U1,7,TX-*%
%TO.N,ETH_RADIO_TX_POSTMAG_N*%
X132852750Y-116759800D03*
%TO.P,U1,8,TX+*%
%TO.N,ETH_RADIO_TX_POSTMAG_P*%
X132852750Y-118029800D03*
%TO.P,U1,9,TXCT*%
%TO.N,Net-(U1-RXCT)*%
X132852750Y-119299800D03*
%TO.P,U1,10,RXCT*%
X132852750Y-123109800D03*
%TO.P,U1,11,RX-*%
%TO.N,ETH_RADIO_RX_POSTMAG_N*%
X132852750Y-124379800D03*
%TO.P,U1,12,RX+*%
%TO.N,ETH_RADIO_RX_POSTMAG_P*%
X132852750Y-125649800D03*
%TD*%
%TO.P,U2,1,RD+*%
%TO.N,ETH_SPARE_RX_P*%
X124350000Y-107140000D03*
%TO.P,U2,2,RD-*%
%TO.N,ETH_SPARE_RX_N*%
X124350000Y-105870000D03*
%TO.P,U2,3,RDCT*%
%TO.N,Net-(U2-RDCT)*%
X124350000Y-104600000D03*
%TO.P,U2,4,TDCT*%
%TO.N,Net-(U2-TDCT)*%
X124350000Y-100790000D03*
%TO.P,U2,5,TD+*%
%TO.N,ETH_SPARE_TX_P*%
X124350000Y-99520000D03*
%TO.P,U2,6,TD-*%
%TO.N,ETH_SPARE_TX_N*%
X124350000Y-98250000D03*
%TO.P,U2,7,TX-*%
%TO.N,ETH_SPARE_TX_POSTMAG_N*%
X132795500Y-98250000D03*
%TO.P,U2,8,TX+*%
%TO.N,ETH_SPARE_TX_POSTMAG_P*%
X132795500Y-99520000D03*
%TO.P,U2,9,TXCT*%
%TO.N,Net-(U2-RXCT)*%
X132795500Y-100790000D03*
%TO.P,U2,10,RXCT*%
X132795500Y-104600000D03*
%TO.P,U2,11,RX-*%
%TO.N,ETH_SPARE_RX_POSTMAG_N*%
X132795500Y-105870000D03*
%TO.P,U2,12,RX+*%
%TO.N,ETH_SPARE_RX_POSTMAG_P*%
X132795500Y-107140000D03*
%TD*%
D24*
%TO.P,C5,1*%
%TO.N,Net-(C5-Pad1)*%
X134112000Y-121664800D03*
%TO.P,C5,2*%
%TO.N,GND*%
X134112000Y-122224800D03*
%TD*%
D26*
%TO.P,R3,1*%
%TO.N,Net-(C5-Pad1)*%
X134112000Y-120985200D03*
%TO.P,R3,2*%
%TO.N,Net-(U1-RXCT)*%
X134112000Y-120345200D03*
%TD*%
D28*
%TO.P,C50,1*%
%TO.N,USB_EXT2_SSTX+*%
X100228400Y-129728000D03*
%TO.P,C50,2*%
%TO.N,Net-(J29-Pin_9)*%
X100228400Y-130368000D03*
%TD*%
D29*
%TO.P,R47,1*%
%TO.N,SPARE1_ADC1*%
X91320000Y-116060000D03*
%TO.P,R47,2*%
%TO.N,Net-(J13-Pin_6)*%
X91320000Y-117080000D03*
%TD*%
D30*
%TO.P,C88,1*%
%TO.N,+3.3V_MODEM*%
X73441200Y-124409200D03*
%TO.P,C88,2*%
%TO.N,Net-(U12-OUT)*%
X74081200Y-124409200D03*
%TD*%
D26*
%TO.P,C56,1*%
%TO.N,Net-(IC1-USB_SSRXP_UP)*%
X111709200Y-92257400D03*
%TO.P,C56,2*%
%TO.N,USBSS_TX_P*%
X111709200Y-91617400D03*
%TD*%
D31*
%TO.P,D12,1,K*%
%TO.N,Net-(D12-K)*%
X70256300Y-99669600D03*
%TO.P,D12,2,A*%
%TO.N,Net-(D12-A)*%
X71831300Y-99669600D03*
%TD*%
D30*
%TO.P,C81,1*%
%TO.N,USB_CELL_SSTX-*%
X65430000Y-111074200D03*
%TO.P,C81,2*%
%TO.N,Net-(J30-PETn1{slash}USB3.0-Tx-{slash}SSIC-TxN)*%
X66070000Y-111074200D03*
%TD*%
D32*
%TO.P,D13,1,K*%
%TO.N,Net-(D13-K)*%
X66192400Y-126720800D03*
%TO.P,D13,2,A*%
%TO.N,+3.3V_MODEM*%
X66192400Y-128295800D03*
%TD*%
D26*
%TO.P,R50,1*%
%TO.N,Net-(D13-K)*%
X66217800Y-125527200D03*
%TO.P,R50,2*%
%TO.N,GND*%
X66217800Y-124887200D03*
%TD*%
D33*
%TO.P,J31,C1,VCC*%
%TO.N,+SIM_VCC*%
X127653400Y-94703800D03*
%TO.P,J31,C2,RST*%
%TO.N,SIM_RESET*%
X125113400Y-94703800D03*
%TO.P,J31,C3,CLK*%
%TO.N,SIM_CLK*%
X122573400Y-94703800D03*
%TO.P,J31,C5,GND*%
%TO.N,GND*%
X128923400Y-94703800D03*
%TO.P,J31,C6,VPP*%
%TO.N,unconnected-(J31-VPP-PadC6)*%
X126383400Y-94703800D03*
%TO.P,J31,C7,I/O*%
%TO.N,SIM_DATA*%
X123843400Y-94703800D03*
%TO.P,J31,CD,CD*%
%TO.N,SIM_DETECT*%
X129873400Y-94703800D03*
D34*
%TO.P,J31,S1,SH*%
%TO.N,GND*%
X120903400Y-93223800D03*
%TO.P,J31,S2,SH*%
X133903400Y-93223800D03*
%TO.P,J31,S3,SH*%
X120903400Y-81223800D03*
%TO.P,J31,S4,SH*%
X133903400Y-81223800D03*
%TD*%
D35*
%TO.P,R48,1*%
%TO.N,Net-(U12-OUT)*%
X74081600Y-123698000D03*
%TO.P,R48,2*%
%TO.N,+3.3V_MODEM*%
X73441600Y-123698000D03*
%TD*%
D36*
%TO.P,IC1,1,USB_DP_DN1*%
%TO.N,USB_CELL_D+*%
X115316000Y-94068001D03*
%TO.P,IC1,2,USB_DM_DN1*%
%TO.N,USB_CELL_D-*%
X115316000Y-94568000D03*
%TO.P,IC1,3,USB_SSTXP_DN1*%
%TO.N,USB_CELL_SSTX+*%
X115316000Y-95068001D03*
%TO.P,IC1,4,USB_SSTXM_DN1*%
%TO.N,USB_CELL_SSTX-*%
X115316000Y-95568000D03*
%TO.P,IC1,5,VDD_1*%
%TO.N,+1V1*%
X115316000Y-96068002D03*
%TO.P,IC1,6,USB_SSRXP_DN1*%
%TO.N,USB_CELL_SSRX+*%
X115316000Y-96568001D03*
%TO.P,IC1,7,USB_SSRXM_DN1*%
%TO.N,USB_CELL_SSRX-*%
X115316000Y-97068000D03*
%TO.P,IC1,8,VDD_2*%
%TO.N,+1V1*%
X115316000Y-97568001D03*
%TO.P,IC1,9,USB_DP_DN2*%
%TO.N,USB_EXT1_D+*%
X115316000Y-98068001D03*
%TO.P,IC1,10,USB_DM_DN2*%
%TO.N,USB_EXT1_D-*%
X115316000Y-98568002D03*
%TO.P,IC1,11,USB_SSTXP_DN2*%
%TO.N,USB_EXT1_SSTX+*%
X115316000Y-99068001D03*
%TO.P,IC1,12,USB_SSTXM_DN2*%
%TO.N,USB_EXT1_SSTX-*%
X115316000Y-99568000D03*
%TO.P,IC1,13,VDD_3*%
%TO.N,+1V1*%
X115316000Y-100068002D03*
%TO.P,IC1,14,USB_SSRXP_DN2*%
%TO.N,USB_EXT1_SSRX+*%
X115316000Y-100568001D03*
%TO.P,IC1,15,USB_SSRXM_DN2*%
%TO.N,USB_EXT1_SSRX-*%
X115316000Y-101068002D03*
%TO.P,IC1,16,VDD33_1*%
%TO.N,+3V3*%
X115316000Y-101568001D03*
D37*
%TO.P,IC1,17,USB_DP_DN3*%
%TO.N,USB_EXT2_D+*%
X114617599Y-102266402D03*
%TO.P,IC1,18,USB_DM_DN3*%
%TO.N,USB_EXT2_D-*%
X114117600Y-102266402D03*
%TO.P,IC1,19,USB_SSTXP_DN3*%
%TO.N,USB_EXT2_SSTX+*%
X113617599Y-102266402D03*
%TO.P,IC1,20,USB_SSTXM_DN3*%
%TO.N,USB_EXT2_SSTX-*%
X113117600Y-102266402D03*
%TO.P,IC1,21,VDD_4*%
%TO.N,+1V1*%
X112617598Y-102266402D03*
%TO.P,IC1,22,USB_SSRXP_DN3*%
%TO.N,USB_EXT2_SSRX+*%
X112117599Y-102266402D03*
%TO.P,IC1,23,USB_SSRXM_DN3*%
%TO.N,USB_EXT2_SSRX-*%
X111617600Y-102266402D03*
%TO.P,IC1,24,USB_DP_DN4*%
%TO.N,unconnected-(IC1-USB_DP_DN4-Pad24)*%
X111117599Y-102266402D03*
%TO.P,IC1,25,USB_DM_DN4*%
%TO.N,unconnected-(IC1-USB_DM_DN4-Pad25)*%
X110617599Y-102266402D03*
%TO.P,IC1,26,USB_SSTXP_DN4*%
%TO.N,unconnected-(IC1-USB_SSTXP_DN4-Pad26)*%
X110117598Y-102266402D03*
%TO.P,IC1,27,USB_SSTXM_DN4*%
%TO.N,unconnected-(IC1-USB_SSTXM_DN4-Pad27)*%
X109617599Y-102266402D03*
%TO.P,IC1,28,VDD_5*%
%TO.N,+1V1*%
X109117600Y-102266402D03*
%TO.P,IC1,29,USB_SSRXP_DN4*%
%TO.N,unconnected-(IC1-USB_SSRXP_DN4-Pad29)*%
X108617598Y-102266402D03*
%TO.P,IC1,30,USB_SSRXM_DN4*%
%TO.N,unconnected-(IC1-USB_SSRXM_DN4-Pad30)*%
X108117599Y-102266402D03*
%TO.P,IC1,31,VDD_6*%
%TO.N,+1V1*%
X107617598Y-102266402D03*
%TO.P,IC1,32,PWRCTL4/BATEN4*%
%TO.N,unconnected-(IC1-PWRCTL4{slash}BATEN4-Pad32)*%
X107117599Y-102266402D03*
D36*
%TO.P,IC1,33,PWRCTL3/BATEN3*%
%TO.N,PWRCTRL3*%
X106419198Y-101568001D03*
%TO.P,IC1,34,VDD33_2*%
%TO.N,+3V3*%
X106419198Y-101068002D03*
%TO.P,IC1,35,PWRCTL2/BATEN2*%
%TO.N,PWRCTRL2*%
X106419198Y-100568001D03*
%TO.P,IC1,36,PWRCTL1/BATEN1*%
%TO.N,PWRCTRL1*%
X106419198Y-100068002D03*
%TO.P,IC1,37,SDA/SMBDAT*%
%TO.N,unconnected-(IC1-SDA{slash}SMBDAT-Pad37)*%
X106419198Y-99568000D03*
%TO.P,IC1,38,SCL/SMBCLK*%
%TO.N,unconnected-(IC1-SCL{slash}SMBCLK-Pad38)*%
X106419198Y-99068001D03*
%TO.P,IC1,39,SMBUSZ/SS_SUSPEND*%
%TO.N,unconnected-(IC1-SMBUSZ{slash}SS_SUSPEND-Pad39)*%
X106419198Y-98568002D03*
%TO.P,IC1,40,FULLPWRMGMTZ/SMBA1/SS_UP*%
%TO.N,Net-(IC1-FULLPWRMGMTZ{slash}SMBA1{slash}SS_UP)*%
X106419198Y-98068001D03*
%TO.P,IC1,41,PWRCTL_POL*%
%TO.N,unconnected-(IC1-PWRCTL_POL-Pad41)*%
X106419198Y-97568001D03*
%TO.P,IC1,42,GANGED/SMBA2/HS_UP*%
%TO.N,unconnected-(IC1-GANGED{slash}SMBA2{slash}HS_UP-Pad42)*%
X106419198Y-97068000D03*
%TO.P,IC1,43,OVERCUR4Z*%
%TO.N,unconnected-(IC1-OVERCUR4Z-Pad43)*%
X106419198Y-96568001D03*
%TO.P,IC1,44,OVERCUR3Z*%
%TO.N,OVERCUR3*%
X106419198Y-96068002D03*
%TO.P,IC1,45,AUTOENZ/HS_SUSPEND*%
%TO.N,Net-(IC1-AUTOENZ{slash}HS_SUSPEND)*%
X106419198Y-95568000D03*
%TO.P,IC1,46,OVERCUR1Z*%
%TO.N,OVERCUR1*%
X106419198Y-95068001D03*
%TO.P,IC1,47,OVERCUR2Z*%
%TO.N,OVERCUR2*%
X106419198Y-94568000D03*
%TO.P,IC1,48,USB_VBUS*%
%TO.N,Net-(IC1-USB_VBUS)*%
X106419198Y-94068001D03*
D37*
%TO.P,IC1,49,TEST*%
%TO.N,Net-(IC1-TEST)*%
X107117599Y-93369600D03*
%TO.P,IC1,50,GRSTZ*%
%TO.N,Net-(IC1-GRSTZ)*%
X107617598Y-93369600D03*
%TO.P,IC1,51,VDD_7*%
%TO.N,+1V1*%
X108117599Y-93369600D03*
%TO.P,IC1,52,VDD33_3*%
%TO.N,+3V3*%
X108617598Y-93369600D03*
%TO.P,IC1,53,USB_DP_UP*%
%TO.N,JETSON_USB1_D_P*%
X109117600Y-93369600D03*
%TO.P,IC1,54,USB_DM_UP*%
%TO.N,JETSON_USB1_D_N*%
X109617599Y-93369600D03*
%TO.P,IC1,55,USB_SSTXP_UP*%
%TO.N,USBSS_RX_P*%
X110117598Y-93369600D03*
%TO.P,IC1,56,USB_SSTXM_UP*%
%TO.N,USBSS_RX_N*%
X110617599Y-93369600D03*
%TO.P,IC1,57,VDD_8*%
%TO.N,+1V1*%
X111117599Y-93369600D03*
%TO.P,IC1,58,USB_SSRXP_UP*%
%TO.N,Net-(IC1-USB_SSRXP_UP)*%
X111617600Y-93369600D03*
%TO.P,IC1,59,USB_SSRXM_UP*%
%TO.N,Net-(IC1-USB_SSRXM_UP)*%
X112117599Y-93369600D03*
%TO.P,IC1,60,NC*%
%TO.N,unconnected-(IC1-NC-Pad60)*%
X112617598Y-93369600D03*
%TO.P,IC1,61,XO*%
%TO.N,Net-(IC1-XO)*%
X113117600Y-93369600D03*
%TO.P,IC1,62,XI*%
%TO.N,Net-(IC1-XI)*%
X113617599Y-93369600D03*
%TO.P,IC1,63,VDD33_4*%
%TO.N,+3V3*%
X114117600Y-93369600D03*
%TO.P,IC1,64,USB_R1*%
%TO.N,Net-(IC1-USB_R1)*%
X114617599Y-93369600D03*
D38*
%TO.P,IC1,65,EP*%
%TO.N,GND*%
X110867599Y-97818001D03*
%TD*%
D35*
%TO.P,R49,1*%
%TO.N,GND*%
X75529400Y-123952000D03*
%TO.P,R49,2*%
%TO.N,Net-(U12-OUT)*%
X74889400Y-123952000D03*
%TD*%
D39*
%TO.P,C89,1*%
%TO.N,+3.3V_MODEM*%
X68326000Y-125220600D03*
%TO.P,C89,2*%
%TO.N,GND*%
X68326000Y-128170600D03*
%TD*%
D35*
%TO.P,R32,1*%
%TO.N,Net-(IC1-XI)*%
X113807200Y-92024200D03*
%TO.P,R32,2*%
%TO.N,Net-(IC1-XO)*%
X113167200Y-92024200D03*
%TD*%
D28*
%TO.P,C44,1*%
%TO.N,Net-(IC1-XI)*%
X118821200Y-93609200D03*
%TO.P,C44,2*%
%TO.N,GND*%
X118821200Y-94249200D03*
%TD*%
D40*
%TO.P,U11,1,OUT*%
%TO.N,VBUS_CELL*%
X99207800Y-97967800D03*
%TO.P,U11,2,ILM*%
%TO.N,Net-(U11-ILM)*%
X99857801Y-97967800D03*
%TO.P,U11,3,~{FAULT}*%
%TO.N,OVERCUR1*%
X100507800Y-97967800D03*
%TO.P,U11,4,EN*%
%TO.N,PWRCTRL1*%
X100507800Y-99917798D03*
%TO.P,U11,5,GND*%
%TO.N,GND*%
X99857801Y-99917798D03*
%TO.P,U11,6,IN*%
%TO.N,+5V*%
X99207800Y-99917798D03*
D41*
%TO.P,U11,7,PAD*%
%TO.N,GND*%
X99857801Y-98942799D03*
%TD*%
D26*
%TO.P,C82,1*%
%TO.N,GND*%
X76657200Y-121274800D03*
%TO.P,C82,2*%
%TO.N,+3.3V_MODEM*%
X76657200Y-120634800D03*
%TD*%
D29*
%TO.P,R51,1*%
%TO.N,GND*%
X91320000Y-114130000D03*
%TO.P,R51,2*%
%TO.N,SPARE1_ADC1*%
X91320000Y-115150000D03*
%TD*%
%TO.P,R53,1*%
%TO.N,SPARE2_ADC1*%
X94640000Y-116060000D03*
%TO.P,R53,2*%
%TO.N,Net-(J13-Pin_7)*%
X94640000Y-117080000D03*
%TD*%
D42*
%TO.P,U10,1,GND*%
%TO.N,GND*%
X97301600Y-111349200D03*
%TO.P,U10,2,IN*%
%TO.N,+5V*%
X97801600Y-111349200D03*
%TO.P,U10,3,IN*%
X98301600Y-111349200D03*
%TO.P,U10,4,EN1*%
%TO.N,PWRCTRL2*%
X98801600Y-111349200D03*
%TO.P,U10,5,EN2*%
%TO.N,PWRCTRL3*%
X99301600Y-111349200D03*
%TO.P,U10,6,~{FAULT2}*%
%TO.N,OVERCUR3*%
X99301600Y-114299200D03*
%TO.P,U10,7,ILM*%
%TO.N,Net-(U10-ILM)*%
X98801600Y-114299200D03*
%TO.P,U10,8,OUT2*%
%TO.N,VBUS_EXT2*%
X98301600Y-114299200D03*
%TO.P,U10,9,OUT1*%
%TO.N,VBUS_EXT1*%
X97801600Y-114299200D03*
%TO.P,U10,10,~{FAULT1}*%
%TO.N,OVERCUR2*%
X97301600Y-114299200D03*
D16*
%TO.P,U10,11,PAD*%
%TO.N,GND*%
X99161600Y-112344200D03*
X97441600Y-112344200D03*
D43*
X99851600Y-112574200D03*
X96751600Y-112574200D03*
D16*
X98301600Y-112824200D03*
D44*
X98301600Y-112824200D03*
D43*
X99851600Y-113074200D03*
X96751600Y-113074200D03*
D16*
X99161600Y-113304200D03*
X97441600Y-113304200D03*
%TD*%
D45*
%TO.P,U12,1,~{RESET}*%
%TO.N,unconnected-(U12-~{RESET}-Pad1)*%
X79070200Y-125660398D03*
%TO.P,U12,2,SSEN*%
%TO.N,GND*%
X79070200Y-126160400D03*
%TO.P,U12,3,AV*%
%TO.N,Net-(U12-AV)*%
X79070200Y-126660399D03*
%TO.P,U12,4,GND*%
%TO.N,GND*%
X79070200Y-127160398D03*
%TO.P,U12,5,SYNC*%
%TO.N,+5V_FMU*%
X79070200Y-127660400D03*
%TO.P,U12,6,PGND*%
%TO.N,GND*%
X76073000Y-127660400D03*
%TO.P,U12,7,LX*%
%TO.N,Net-(U12-LX)*%
X76073000Y-127160398D03*
%TO.P,U12,8,PV*%
%TO.N,+5V_FMU*%
X76073000Y-126660399D03*
%TO.P,U12,9,OUT*%
%TO.N,Net-(U12-OUT)*%
X76073000Y-126160400D03*
%TO.P,U12,10,EN*%
%TO.N,+5V_FMU*%
X76073000Y-125660398D03*
D46*
%TO.P,U12,11,EP*%
%TO.N,GND*%
X77571600Y-126660399D03*
%TD*%
D28*
%TO.P,C58,1*%
%TO.N,GND*%
X108762800Y-91587800D03*
%TO.P,C58,2*%
%TO.N,+3V3*%
X108762800Y-92227800D03*
%TD*%
D30*
%TO.P,C43,1*%
%TO.N,GND*%
X115544600Y-91414600D03*
%TO.P,C43,2*%
%TO.N,Net-(IC1-XO)*%
X116184600Y-91414600D03*
%TD*%
D18*
%TO.P,J32,1,Pin_1*%
%TO.N,+5V_PROT_INS*%
X131160000Y-132190000D03*
%TO.P,J32,2,Pin_2*%
%TO.N,RS232_TXD*%
X129910000Y-132190000D03*
%TO.P,J32,3,Pin_3*%
%TO.N,RS232_RXD*%
X128660000Y-132190000D03*
%TO.P,J32,4,Pin_4*%
%TO.N,GND*%
X127410000Y-132190000D03*
D19*
%TO.P,J32,MP*%
%TO.N,N/C*%
X133010000Y-135390000D03*
X125560000Y-135390000D03*
%TD*%
D26*
%TO.P,C75,1*%
%TO.N,GND*%
X108864400Y-128717000D03*
%TO.P,C75,2*%
%TO.N,VBUS_EXT2*%
X108864400Y-128077000D03*
%TD*%
D35*
%TO.P,R44,1*%
%TO.N,PCIE_DIS*%
X78374200Y-108483400D03*
%TO.P,R44,2*%
%TO.N,+3.3V_MODEM*%
X77734200Y-108483400D03*
%TD*%
D26*
%TO.P,R37,1*%
%TO.N,Net-(IC1-TEST)*%
X106680000Y-92217200D03*
%TO.P,R37,2*%
%TO.N,GND*%
X106680000Y-91577200D03*
%TD*%
D47*
%TO.P,C83,1*%
%TO.N,GND*%
X78155800Y-122695000D03*
%TO.P,C83,2*%
%TO.N,+3.3V_MODEM*%
X78155800Y-121145000D03*
%TD*%
D48*
%TO.P,J13,1,Pin_1*%
%TO.N,+VDD_5V_PERIPH*%
X63170000Y-118610000D03*
%TO.P,J13,2,Pin_2*%
%TO.N,BATT_VOLTAGE_SENS_PROT*%
X63170000Y-117360000D03*
%TO.P,J13,3,Pin_3*%
%TO.N,BATT_CURRENT_SENS_PROT*%
X63170000Y-116110000D03*
%TO.P,J13,4,Pin_4*%
%TO.N,BATT2_VOLTAGE_SENS_PROT*%
X63170000Y-114860000D03*
%TO.P,J13,5,Pin_5*%
%TO.N,BATT2_CURRENT_SENS_PROT*%
X63170000Y-113610000D03*
%TO.P,J13,6,Pin_6*%
%TO.N,Net-(J13-Pin_6)*%
X63170000Y-112360000D03*
%TO.P,J13,7,Pin_7*%
%TO.N,Net-(J13-Pin_7)*%
X63170000Y-111110000D03*
%TO.P,J13,8,Pin_8*%
%TO.N,GND*%
X63170000Y-109860000D03*
D49*
%TO.P,J13,MP*%
%TO.N,N/C*%
X59970000Y-120460000D03*
X59970000Y-108010000D03*
%TD*%
D18*
%TO.P,J29,1,Pin_1*%
%TO.N,Net-(J29-Pin_1)*%
X110010000Y-132211200D03*
%TO.P,J29,2,Pin_2*%
%TO.N,USB_EXT2_D-*%
X108760000Y-132211200D03*
%TO.P,J29,3,Pin_3*%
%TO.N,USB_EXT2_D+*%
X107510000Y-132211200D03*
%TO.P,J29,4,Pin_4*%
%TO.N,GND*%
X106260000Y-132211200D03*
%TO.P,J29,5,Pin_5*%
%TO.N,USB_EXT2_SSRX-*%
X105010000Y-132211200D03*
%TO.P,J29,6,Pin_6*%
%TO.N,USB_EXT2_SSRX+*%
X103760000Y-132211200D03*
%TO.P,J29,7,Pin_7*%
%TO.N,GND*%
X102510000Y-132211200D03*
%TO.P,J29,8,Pin_8*%
%TO.N,Net-(J29-Pin_8)*%
X101260000Y-132211200D03*
%TO.P,J29,9,Pin_9*%
%TO.N,Net-(J29-Pin_9)*%
X100010000Y-132211200D03*
%TO.P,J29,10,Pin_10*%
%TO.N,GND*%
X98760000Y-132211200D03*
D19*
%TO.P,J29,MP*%
%TO.N,N/C*%
X111860000Y-135411200D03*
X96910000Y-135411200D03*
%TD*%
D28*
%TO.P,C45,1*%
%TO.N,USB_EXT2_SSTX-*%
X101041200Y-129728000D03*
%TO.P,C45,2*%
%TO.N,Net-(J29-Pin_8)*%
X101041200Y-130368000D03*
%TD*%
%TO.P,C54,1*%
%TO.N,GND*%
X94411800Y-129616200D03*
%TO.P,C54,2*%
%TO.N,Net-(J24-Pin_1)*%
X94411800Y-130256200D03*
%TD*%
D26*
%TO.P,C74,1*%
%TO.N,GND*%
X94411800Y-128706400D03*
%TO.P,C74,2*%
%TO.N,VBUS_EXT1*%
X94411800Y-128066400D03*
%TD*%
D50*
%TO.P,SP1,1,1*%
%TO.N,GND*%
X123000000Y-112000000D03*
%TD*%
D48*
%TO.P,J33,1,Pin_1*%
%TO.N,GPIO02*%
X63170000Y-104440000D03*
%TO.P,J33,2,Pin_2*%
%TO.N,GPIO10*%
X63170000Y-103190000D03*
%TO.P,J33,3,Pin_3*%
%TO.N,GPIO12*%
X63170000Y-101940000D03*
%TO.P,J33,4,Pin_4*%
%TO.N,GND*%
X63170000Y-100690000D03*
D49*
%TO.P,J33,MP*%
%TO.N,N/C*%
X59970000Y-106290000D03*
X59970000Y-98840000D03*
%TD*%
D28*
%TO.P,C53,1*%
%TO.N,GND*%
X108864400Y-129540000D03*
%TO.P,C53,2*%
%TO.N,Net-(J29-Pin_1)*%
X108864400Y-130180000D03*
%TD*%
D30*
%TO.P,R40,1*%
%TO.N,+3V3*%
X104378800Y-98094800D03*
%TO.P,R40,2*%
%TO.N,Net-(IC1-FULLPWRMGMTZ{slash}SMBA1{slash}SS_UP)*%
X105018800Y-98094800D03*
%TD*%
%TO.P,C28,1*%
%TO.N,3V3_SYS*%
X89502200Y-86718400D03*
%TO.P,C28,2*%
%TO.N,GND*%
X90142200Y-86718400D03*
%TD*%
D51*
%TO.P,L4,1,1*%
%TO.N,Net-(U12-LX)*%
X73190624Y-126949200D03*
%TO.P,L4,2,2*%
%TO.N,+3.3V_MODEM*%
X70725776Y-126949200D03*
%TD*%
D26*
%TO.P,C55,1*%
%TO.N,Net-(IC1-USB_SSRXM_UP)*%
X112369600Y-92257800D03*
%TO.P,C55,2*%
%TO.N,USBSS_TX_N*%
X112369600Y-91617800D03*
%TD*%
D35*
%TO.P,R45,1*%
%TO.N,GND*%
X78348800Y-107416600D03*
%TO.P,R45,2*%
%TO.N,PCIE_DIS*%
X77708800Y-107416600D03*
%TD*%
%TO.P,R22,1*%
%TO.N,Net-(IC1-USB_VBUS)*%
X105131000Y-94081600D03*
%TO.P,R22,2*%
%TO.N,PORT_VBUS_JETSON*%
X104491000Y-94081600D03*
%TD*%
D30*
%TO.P,C79,1*%
%TO.N,+5V*%
X99324200Y-100660200D03*
%TO.P,C79,2*%
%TO.N,GND*%
X99964200Y-100660200D03*
%TD*%
D32*
%TO.P,FB1,1*%
%TO.N,VBUS_EXT2*%
X110032800Y-128498500D03*
%TO.P,FB1,2*%
%TO.N,Net-(J29-Pin_1)*%
X110032800Y-130073500D03*
%TD*%
D48*
%TO.P,J25,1,Pin_1*%
%TO.N,+VDD_5V_PERIPH*%
X63190000Y-127780000D03*
%TO.P,J25,2,Pin_2*%
%TO.N,FMU_I2C_2_SCL*%
X63190000Y-126530000D03*
%TO.P,J25,3,Pin_3*%
%TO.N,FMU_I2C_2_SDA*%
X63190000Y-125280000D03*
%TO.P,J25,4,Pin_4*%
%TO.N,GND*%
X63190000Y-124030000D03*
D49*
%TO.P,J25,MP*%
%TO.N,N/C*%
X59990000Y-129630000D03*
X59990000Y-122180000D03*
%TD*%
D28*
%TO.P,R41,1*%
%TO.N,GND*%
X99872800Y-96540400D03*
%TO.P,R41,2*%
%TO.N,Net-(U11-ILM)*%
X99872800Y-97180400D03*
%TD*%
D18*
%TO.P,J24,1,Pin_1*%
%TO.N,Net-(J24-Pin_1)*%
X93240000Y-132211200D03*
%TO.P,J24,2,Pin_2*%
%TO.N,USB_EXT1_D-*%
X91990000Y-132211200D03*
%TO.P,J24,3,Pin_3*%
%TO.N,USB_EXT1_D+*%
X90740000Y-132211200D03*
%TO.P,J24,4,Pin_4*%
%TO.N,GND*%
X89490000Y-132211200D03*
%TO.P,J24,5,Pin_5*%
%TO.N,USB_EXT1_SSRX-*%
X88240000Y-132211200D03*
%TO.P,J24,6,Pin_6*%
%TO.N,USB_EXT1_SSRX+*%
X86990000Y-132211200D03*
%TO.P,J24,7,Pin_7*%
%TO.N,GND*%
X85740000Y-132211200D03*
%TO.P,J24,8,Pin_8*%
%TO.N,Net-(J24-Pin_8)*%
X84490000Y-132211200D03*
%TO.P,J24,9,Pin_9*%
%TO.N,Net-(J24-Pin_9)*%
X83240000Y-132211200D03*
%TO.P,J24,10,Pin_10*%
%TO.N,GND*%
X81990000Y-132211200D03*
D19*
%TO.P,J24,MP*%
%TO.N,N/C*%
X95090000Y-135411200D03*
X80140000Y-135411200D03*
%TD*%
D28*
%TO.P,C52,1*%
%TO.N,USB_EXT1_SSTX+*%
X83540600Y-129702600D03*
%TO.P,C52,2*%
%TO.N,Net-(J24-Pin_9)*%
X83540600Y-130342600D03*
%TD*%
%TO.P,C78,1*%
%TO.N,GND*%
X107416600Y-91587400D03*
%TO.P,C78,2*%
%TO.N,Net-(IC1-GRSTZ)*%
X107416600Y-92227400D03*
%TD*%
D35*
%TO.P,R23,1*%
%TO.N,Net-(IC1-USB_VBUS)*%
X105135200Y-93192600D03*
%TO.P,R23,2*%
%TO.N,GND*%
X104495200Y-93192600D03*
%TD*%
D52*
%TO.P,U8,1,XI*%
%TO.N,Net-(IC1-XI)*%
X118770400Y-92481400D03*
%TO.P,U8,2,GND*%
%TO.N,GND*%
X117420400Y-92481400D03*
%TO.P,U8,3,XO*%
%TO.N,Net-(IC1-XO)*%
X117420400Y-91431400D03*
%TO.P,U8,4,GND*%
%TO.N,GND*%
X118770400Y-91431400D03*
%TD*%
D20*
%TO.P,J19,1,Pin_1*%
%TO.N,+VDD_5V_PERIPH*%
X135919600Y-114790000D03*
%TO.P,J19,2,Pin_2*%
%TO.N,CAN_1+*%
X135919600Y-116040000D03*
%TO.P,J19,3,Pin_3*%
%TO.N,CAN_1-*%
X135919600Y-117290000D03*
%TO.P,J19,4,Pin_4*%
%TO.N,GND*%
X135919600Y-118540000D03*
D21*
%TO.P,J19,MP*%
%TO.N,N/C*%
X139119600Y-112940000D03*
X139119600Y-120390000D03*
%TD*%
D32*
%TO.P,FB3,1*%
%TO.N,VBUS_EXT1*%
X93218000Y-128371500D03*
%TO.P,FB3,2*%
%TO.N,Net-(J24-Pin_1)*%
X93218000Y-129946500D03*
%TD*%
D28*
%TO.P,C51,1*%
%TO.N,USB_EXT1_SSTX-*%
X84480400Y-129677200D03*
%TO.P,C51,2*%
%TO.N,Net-(J24-Pin_8)*%
X84480400Y-130317200D03*
%TD*%
D53*
%TO.P,C76,1*%
%TO.N,VBUS_EXT1*%
X90539100Y-129133600D03*
%TO.P,C76,2*%
%TO.N,GND*%
X87464100Y-129133600D03*
%TD*%
D54*
%TO.P,J14,1,Pin_1*%
%TO.N,GND*%
X101026200Y-84828400D03*
%TO.P,J14,2,Pin_2*%
%TO.N,CAM1_D0_N*%
X102026200Y-84828400D03*
%TO.P,J14,3,Pin_3*%
%TO.N,CAM1_D0_P*%
X103026200Y-84828400D03*
%TO.P,J14,4,Pin_4*%
%TO.N,GND*%
X104026200Y-84828400D03*
%TO.P,J14,5,Pin_5*%
%TO.N,CAM1_D1_N*%
X105026200Y-84828400D03*
%TO.P,J14,6,Pin_6*%
%TO.N,CAM1_D1_P*%
X106026200Y-84828400D03*
%TO.P,J14,7,Pin_7*%
%TO.N,GND*%
X107026200Y-84828400D03*
%TO.P,J14,8,Pin_8*%
%TO.N,CAM1_C_N*%
X108026200Y-84828400D03*
%TO.P,J14,9,Pin_9*%
%TO.N,CAM1_C_P*%
X109026200Y-84828400D03*
%TO.P,J14,10,Pin_10*%
%TO.N,GND*%
X110026200Y-84828400D03*
%TO.P,J14,11,Pin_11*%
%TO.N,CAM1_GPIO*%
X111026200Y-84828400D03*
%TO.P,J14,12,Pin_12*%
%TO.N,CAM1_MCLK*%
X112026200Y-84828400D03*
%TO.P,J14,13,Pin_13*%
%TO.N,CAM1_SCL0*%
X113026200Y-84828400D03*
%TO.P,J14,14,Pin_14*%
%TO.N,CAM1_SDA0*%
X114026200Y-84828400D03*
%TO.P,J14,15,Pin_15*%
%TO.N,3V3_SYS*%
X115026200Y-84828400D03*
D55*
%TO.P,J14,S1,S1*%
%TO.N,GND*%
X98036200Y-82028400D03*
%TO.P,J14,S2,S2*%
X118016200Y-82028400D03*
%TD*%
D56*
%TO.P,J30,1,CONFIG_3*%
%TO.N,unconnected-(J30-CONFIG_3-Pad1)*%
X67525000Y-102750000D03*
%TO.P,J30,2,3.3V*%
%TO.N,+3.3V_MODEM*%
X74975000Y-103000000D03*
%TO.P,J30,3,GND*%
%TO.N,GND*%
X67525000Y-103250000D03*
%TO.P,J30,4,3.3V*%
%TO.N,+3.3V_MODEM*%
X74975000Y-103500000D03*
%TO.P,J30,5,GND*%
%TO.N,GND*%
X67525000Y-103750000D03*
%TO.P,J30,6,~{FULL_CARD_POWER_OFF}*%
%TO.N,Net-(J30-~{FULL_CARD_POWER_OFF})*%
X74975000Y-104000000D03*
%TO.P,J30,7,USB_D+*%
%TO.N,USB_CELL_D+*%
X67525000Y-104250000D03*
%TO.P,J30,8,~{W_DISABLE1}*%
%TO.N,unconnected-(J30-~{W_DISABLE1}-Pad8)*%
X74975000Y-104500000D03*
%TO.P,J30,9,USB_D-*%
%TO.N,USB_CELL_D-*%
X67525000Y-104750000D03*
%TO.P,J30,10,GPIO_9/DAS/~{DSS}/~{LED1}*%
%TO.N,Net-(D12-K)*%
X74975000Y-105000000D03*
%TO.P,J30,11,GND*%
%TO.N,GND*%
X67525000Y-105250000D03*
%TO.P,J30,20,GPIO_5*%
%TO.N,PCIE_DIS*%
X74975000Y-107500000D03*
%TO.P,J30,21,CONFIG_0*%
%TO.N,unconnected-(J30-CONFIG_0-Pad21)*%
X67525000Y-107750000D03*
%TO.P,J30,22,GPIO_6*%
%TO.N,VBUS_CELL*%
X74975000Y-108000000D03*
%TO.P,J30,23,GPIO_11*%
%TO.N,unconnected-(J30-GPIO_11-Pad23)*%
X67525000Y-108250000D03*
%TO.P,J30,24,GPIO_7*%
%TO.N,+3.3V_MODEM*%
X74975000Y-108500000D03*
%TO.P,J30,25,DPR*%
%TO.N,unconnected-(J30-DPR-Pad25)*%
X67525000Y-108750000D03*
%TO.P,J30,26,GPIO_10*%
%TO.N,unconnected-(J30-GPIO_10-Pad26)*%
X74975000Y-109000000D03*
%TO.P,J30,27,GND*%
%TO.N,GND*%
X67525000Y-109250000D03*
%TO.P,J30,28,GPIO_8*%
%TO.N,unconnected-(J30-GPIO_8-Pad28)*%
X74975000Y-109500000D03*
%TO.P,J30,29,PERn1/USB3.0-Rx-/SSIC-RxN*%
%TO.N,USB_CELL_SSRX-*%
X67525000Y-109750000D03*
%TO.P,J30,30,UIM-RESET*%
%TO.N,SIM_RESET*%
X74975000Y-110000000D03*
%TO.P,J30,31,PERp1/USB3.0-Rx+/SSIC-RxP*%
%TO.N,USB_CELL_SSRX+*%
X67525000Y-110250000D03*
%TO.P,J30,32,UIM-CLK*%
%TO.N,SIM_CLK*%
X74975000Y-110500000D03*
%TO.P,J30,33,GND*%
%TO.N,GND*%
X67525000Y-110750000D03*
%TO.P,J30,34,UIM-DATA*%
%TO.N,SIM_DATA*%
X74975000Y-111000000D03*
%TO.P,J30,35,PETn1/USB3.0-Tx-/SSIC-TxN*%
%TO.N,Net-(J30-PETn1{slash}USB3.0-Tx-{slash}SSIC-TxN)*%
X67525000Y-111250000D03*
%TO.P,J30,36,UIM-PWR*%
%TO.N,+SIM_VCC*%
X74975000Y-111500000D03*
%TO.P,J30,37,PETp1/USB3.0-Tx+/SSIC-TxP*%
%TO.N,Net-(J30-PETp1{slash}USB3.0-Tx+{slash}SSIC-TxP)*%
X67525000Y-111750000D03*
%TO.P,J30,38,DEVSLP*%
%TO.N,+3.3V_MODEM*%
X74975000Y-112000000D03*
%TO.P,J30,39,GND*%
%TO.N,GND*%
X67525000Y-112250000D03*
%TO.P,J30,40,GPIO_0*%
%TO.N,unconnected-(J30-GPIO_0-Pad40)*%
X74975000Y-112500000D03*
%TO.P,J30,41,PERn0/SATA-B+*%
%TO.N,unconnected-(J30-PERn0{slash}SATA-B+-Pad41)*%
X67525000Y-112750000D03*
%TO.P,J30,42,GPIO_1*%
%TO.N,unconnected-(J30-GPIO_1-Pad42)*%
X74975000Y-113000000D03*
%TO.P,J30,43,PERp0/SATA-B-*%
%TO.N,unconnected-(J30-PERp0{slash}SATA-B--Pad43)*%
X67525000Y-113250000D03*
%TO.P,J30,44,GPIO_2*%
%TO.N,unconnected-(J30-GPIO_2-Pad44)*%
X74975000Y-113500000D03*
%TO.P,J30,45,GND*%
%TO.N,GND*%
X67525000Y-113750000D03*
%TO.P,J30,46,GPIO_3*%
%TO.N,unconnected-(J30-GPIO_3-Pad46)*%
X74975000Y-114000000D03*
%TO.P,J30,47,PETn0/SATA-A-*%
%TO.N,unconnected-(J30-PETn0{slash}SATA-A--Pad47)*%
X67525000Y-114250000D03*
%TO.P,J30,48,GPIO_4*%
%TO.N,unconnected-(J30-GPIO_4-Pad48)*%
X74975000Y-114500000D03*
%TO.P,J30,49,PETp0/SATA-A+*%
%TO.N,unconnected-(J30-PETp0{slash}SATA-A+-Pad49)*%
X67525000Y-114750000D03*
%TO.P,J30,50,~{PERST}*%
%TO.N,unconnected-(J30-~{PERST}-Pad50)*%
X74975000Y-115000000D03*
%TO.P,J30,51,GND*%
%TO.N,GND*%
X67525000Y-115250000D03*
%TO.P,J30,52,~{CLKREQ}*%
%TO.N,unconnected-(J30-~{CLKREQ}-Pad52)*%
X74975000Y-115500000D03*
%TO.P,J30,53,REFCLKn*%
%TO.N,unconnected-(J30-REFCLKn-Pad53)*%
X67525000Y-115750000D03*
%TO.P,J30,54,~{PEWAKE}*%
%TO.N,unconnected-(J30-~{PEWAKE}-Pad54)*%
X74975000Y-116000000D03*
%TO.P,J30,55,REFCLKp*%
%TO.N,unconnected-(J30-REFCLKp-Pad55)*%
X67525000Y-116250000D03*
%TO.P,J30,56,NC*%
%TO.N,unconnected-(J30-NC-Pad56)*%
X74975000Y-116500000D03*
%TO.P,J30,57,GND*%
%TO.N,GND*%
X67525000Y-116750000D03*
%TO.P,J30,58,NC*%
%TO.N,unconnected-(J30-NC-Pad58)*%
X74975000Y-117000000D03*
%TO.P,J30,59,ANTCTL0*%
%TO.N,unconnected-(J30-ANTCTL0-Pad59)*%
X67525000Y-117250000D03*
%TO.P,J30,60,COEX3*%
%TO.N,unconnected-(J30-COEX3-Pad60)*%
X74975000Y-117500000D03*
%TO.P,J30,61,ANTCTL1*%
%TO.N,unconnected-(J30-ANTCTL1-Pad61)*%
X67525000Y-117750000D03*
%TO.P,J30,62,COEX2*%
%TO.N,unconnected-(J30-COEX2-Pad62)*%
X74975000Y-118000000D03*
%TO.P,J30,63,ANTCTL2*%
%TO.N,unconnected-(J30-ANTCTL2-Pad63)*%
X67525000Y-118250000D03*
%TO.P,J30,64,COEX1*%
%TO.N,unconnected-(J30-COEX1-Pad64)*%
X74975000Y-118500000D03*
%TO.P,J30,65,ANTCTL3*%
%TO.N,unconnected-(J30-ANTCTL3-Pad65)*%
X67525000Y-118750000D03*
%TO.P,J30,66,SIM_DETECT*%
%TO.N,SIM_DETECT*%
X74975000Y-119000000D03*
%TO.P,J30,67,~{RESET}*%
%TO.N,unconnected-(J30-~{RESET}-Pad67)*%
X67525000Y-119250000D03*
%TO.P,J30,68,SUSCLK*%
%TO.N,+3.3V_MODEM*%
X74975000Y-119500000D03*
%TO.P,J30,69,CONFIG_1*%
%TO.N,unconnected-(J30-CONFIG_1-Pad69)*%
X67525000Y-119750000D03*
%TO.P,J30,70,3.3V*%
%TO.N,+3.3V_MODEM*%
X74975000Y-120000000D03*
%TO.P,J30,71,GND*%
%TO.N,GND*%
X67525000Y-120250000D03*
%TO.P,J30,72,3.3V*%
%TO.N,+3.3V_MODEM*%
X74975000Y-120500000D03*
%TO.P,J30,73,GND*%
%TO.N,GND*%
X67525000Y-120750000D03*
%TO.P,J30,74,3.3V*%
%TO.N,+3.3V_MODEM*%
X74975000Y-121000000D03*
%TO.P,J30,75,CONFIG_2*%
%TO.N,unconnected-(J30-CONFIG_2-Pad75)*%
X67525000Y-121250000D03*
D57*
%TO.P,J30,S1,SH*%
%TO.N,GND*%
X68250000Y-101650000D03*
%TO.P,J30,S2,SH*%
X68250000Y-122350000D03*
%TD*%
D35*
%TO.P,C73,1*%
%TO.N,+5V*%
X97729000Y-110236000D03*
%TO.P,C73,2*%
%TO.N,GND*%
X97089000Y-110236000D03*
%TD*%
D30*
%TO.P,C80,1*%
%TO.N,USB_CELL_SSTX+*%
X65430000Y-111810800D03*
%TO.P,C80,2*%
%TO.N,Net-(J30-PETp1{slash}USB3.0-Tx+{slash}SSIC-TxP)*%
X66070000Y-111810800D03*
%TD*%
%TO.P,R26,1*%
%TO.N,OVERCUR1*%
X101425000Y-97000000D03*
%TO.P,R26,2*%
%TO.N,+3V3*%
X102065000Y-97000000D03*
%TD*%
D29*
%TO.P,R52,1*%
%TO.N,GND*%
X94630000Y-114130000D03*
%TO.P,R52,2*%
%TO.N,SPARE2_ADC1*%
X94630000Y-115150000D03*
%TD*%
D30*
%TO.P,R39,1*%
%TO.N,GND*%
X104531200Y-95605600D03*
%TO.P,R39,2*%
%TO.N,Net-(IC1-AUTOENZ{slash}HS_SUSPEND)*%
X105171200Y-95605600D03*
%TD*%
D58*
%TO.P,C87,1*%
%TO.N,+5V_FMU*%
X82118200Y-127640000D03*
%TO.P,C87,2*%
%TO.N,GND*%
X82118200Y-129540000D03*
%TD*%
D26*
%TO.P,C86,1*%
%TO.N,Net-(U12-AV)*%
X81508600Y-125197000D03*
%TO.P,C86,2*%
%TO.N,GND*%
X81508600Y-124557000D03*
%TD*%
D30*
%TO.P,C29,1*%
%TO.N,3V3_SYS*%
X115037200Y-86678400D03*
%TO.P,C29,2*%
%TO.N,GND*%
X115677200Y-86678400D03*
%TD*%
D28*
%TO.P,R42,1*%
%TO.N,+3.3V_MODEM*%
X77241400Y-103428400D03*
%TO.P,R42,2*%
%TO.N,Net-(J30-~{FULL_CARD_POWER_OFF})*%
X77241400Y-104068400D03*
%TD*%
D59*
%TO.P,C77,1*%
%TO.N,VBUS_EXT2*%
X111910800Y-129133600D03*
%TO.P,C77,2*%
%TO.N,GND*%
X114985800Y-129133600D03*
%TD*%
D26*
%TO.P,R33,1*%
%TO.N,GND*%
X99030000Y-116140000D03*
%TO.P,R33,2*%
%TO.N,Net-(U10-ILM)*%
X99030000Y-115500000D03*
%TD*%
D28*
%TO.P,R43,1*%
%TO.N,Net-(D12-A)*%
X77241400Y-101864200D03*
%TO.P,R43,2*%
%TO.N,+3.3V_MODEM*%
X77241400Y-102504200D03*
%TD*%
D35*
%TO.P,R46,1*%
%TO.N,+5V_FMU*%
X82148200Y-125984000D03*
%TO.P,R46,2*%
%TO.N,Net-(U12-AV)*%
X81508200Y-125984000D03*
%TD*%
D54*
%TO.P,J8,1,Pin_1*%
%TO.N,GND*%
X75372200Y-84828400D03*
%TO.P,J8,2,Pin_2*%
%TO.N,CAM0_D0_N*%
X76372200Y-84828400D03*
%TO.P,J8,3,Pin_3*%
%TO.N,CAM0_D0_P*%
X77372200Y-84828400D03*
%TO.P,J8,4,Pin_4*%
%TO.N,GND*%
X78372200Y-84828400D03*
%TO.P,J8,5,Pin_5*%
%TO.N,CAM0_D1_N*%
X79372200Y-84828400D03*
%TO.P,J8,6,Pin_6*%
%TO.N,CAM0_D1_P*%
X80372200Y-84828400D03*
%TO.P,J8,7,Pin_7*%
%TO.N,GND*%
X81372200Y-84828400D03*
%TO.P,J8,8,Pin_8*%
%TO.N,CAM0_C_N*%
X82372200Y-84828400D03*
%TO.P,J8,9,Pin_9*%
%TO.N,CAM0_C_P*%
X83372200Y-84828400D03*
%TO.P,J8,10,Pin_10*%
%TO.N,GND*%
X84372200Y-84828400D03*
%TO.P,J8,11,Pin_11*%
%TO.N,CAM0_GPIO*%
X85372200Y-84828400D03*
%TO.P,J8,12,Pin_12*%
%TO.N,CAM0_MCLK*%
X86372200Y-84828400D03*
%TO.P,J8,13,Pin_13*%
%TO.N,CAM0_SCL0*%
X87372200Y-84828400D03*
%TO.P,J8,14,Pin_14*%
%TO.N,CAM0_SDA0*%
X88372200Y-84828400D03*
%TO.P,J8,15,Pin_15*%
%TO.N,3V3_SYS*%
X89372200Y-84828400D03*
D55*
%TO.P,J8,S1,S1*%
%TO.N,GND*%
X72382200Y-82028400D03*
%TO.P,J8,S2,S2*%
X92362200Y-82028400D03*
%TD*%
D60*
%TO.N,GND*%
X86800000Y-130910000D03*
X118643400Y-80822800D03*
X127630000Y-109890000D03*
D61*
X110093600Y-115900000D03*
D60*
X118000000Y-129240000D03*
X99910000Y-124320000D03*
X92700000Y-95800000D03*
X118668800Y-101193600D03*
X82510000Y-81420000D03*
X92120000Y-129990000D03*
D61*
X108772800Y-106984800D03*
D60*
X78650000Y-130750000D03*
X132980000Y-107910000D03*
D61*
X107496771Y-105674800D03*
D60*
X130110000Y-91710000D03*
X113250000Y-90680000D03*
X97180000Y-110690000D03*
D61*
X119352800Y-110730000D03*
X107492800Y-109434000D03*
D60*
X90144600Y-86715600D03*
D61*
X114054284Y-113250000D03*
D60*
X104930000Y-130230000D03*
X69090000Y-109390000D03*
X70530000Y-130740000D03*
X87570000Y-101850000D03*
D61*
X114047084Y-112050000D03*
X107492800Y-106984800D03*
X118006771Y-105674800D03*
X111409942Y-106984800D03*
X115372855Y-113250000D03*
D60*
X81380000Y-86170000D03*
D61*
X116686455Y-114560000D03*
D60*
X117440000Y-85600000D03*
X114450000Y-99990000D03*
X65960000Y-97970000D03*
X99872800Y-96545400D03*
X105580000Y-90790000D03*
D61*
X82510000Y-129470000D03*
D60*
X128880000Y-126660000D03*
D61*
X107494600Y-108314000D03*
X108772800Y-109434000D03*
D60*
X95732600Y-105079800D03*
D61*
X115367455Y-108314000D03*
X108780000Y-113250000D03*
X116686026Y-108314000D03*
D60*
X100190000Y-98680000D03*
X116350000Y-86660000D03*
D61*
X119354600Y-108334000D03*
D60*
X86070000Y-121250000D03*
D61*
X107492800Y-110710000D03*
D60*
X67500000Y-115260000D03*
X124200000Y-87220000D03*
X77546200Y-106426000D03*
X112240000Y-127350000D03*
X105300000Y-99580000D03*
D61*
X107495029Y-114560000D03*
X115387084Y-118327800D03*
D60*
X64500000Y-105990000D03*
X92220000Y-130890000D03*
D61*
X108772800Y-117017800D03*
D60*
X86454400Y-129184400D03*
X102300000Y-129100000D03*
X97300000Y-82830000D03*
D61*
X111409942Y-112050000D03*
X110091371Y-106984800D03*
X110867599Y-97818001D03*
D60*
X66220000Y-124290000D03*
X76708000Y-106426000D03*
X111250000Y-127350000D03*
D61*
X118005029Y-115900000D03*
D60*
X117260000Y-131130000D03*
X67700000Y-120260000D03*
X130090000Y-92420000D03*
X103790000Y-130120000D03*
X78409800Y-105689400D03*
X117110000Y-95790000D03*
X79121000Y-87299800D03*
X75920000Y-82050000D03*
X111125000Y-91617800D03*
D61*
X119355029Y-115920000D03*
D60*
X104750000Y-88100000D03*
X100220000Y-84370000D03*
D61*
X116684226Y-117017800D03*
D60*
X95710000Y-86590000D03*
X124170000Y-85200000D03*
D61*
X79180000Y-108630000D03*
D60*
X124240000Y-129090000D03*
D61*
X118024229Y-118327800D03*
D60*
X120180000Y-93080000D03*
X86840000Y-133580000D03*
D61*
X116684226Y-106984800D03*
D60*
X88940000Y-97730000D03*
X102510000Y-130870000D03*
X93410000Y-123100000D03*
D61*
X111412171Y-115900000D03*
X114051055Y-105674800D03*
D60*
X90660000Y-130820000D03*
X95290000Y-129190000D03*
X79070000Y-112080000D03*
X64580000Y-100660000D03*
D61*
X119355029Y-114580000D03*
D60*
X115544600Y-91414600D03*
D61*
X108775029Y-114560000D03*
D60*
X94530000Y-96670000D03*
D61*
X118005029Y-114560000D03*
D60*
X128730000Y-93520000D03*
D61*
X116688197Y-105674800D03*
D60*
X95783400Y-105841800D03*
X118643400Y-97510600D03*
X76010000Y-96300000D03*
X136960000Y-97400000D03*
X96723200Y-105816400D03*
X92130000Y-113030000D03*
X77495400Y-105664000D03*
X115260000Y-127350000D03*
X64560000Y-109860000D03*
X65200000Y-103420000D03*
X85760000Y-133540000D03*
X102600000Y-100790000D03*
X133890000Y-81170000D03*
X115600000Y-102970000D03*
X134160000Y-99780000D03*
X103260000Y-88160000D03*
X64580000Y-110640000D03*
X133870000Y-93080000D03*
X114970000Y-129890000D03*
X61850000Y-90360000D03*
X94894400Y-105816400D03*
X116484400Y-103505000D03*
X65420000Y-109220000D03*
X83490000Y-121800000D03*
D61*
X119352800Y-107004800D03*
X77550000Y-125780000D03*
D60*
X108762800Y-91587800D03*
X65020000Y-105420000D03*
X124256800Y-130124200D03*
X133270000Y-102810000D03*
D61*
X107500000Y-113250000D03*
D60*
X137130000Y-107700000D03*
X70170000Y-133510000D03*
X122428000Y-100558600D03*
D61*
X107514229Y-118327800D03*
X116705655Y-118327800D03*
D60*
X81980000Y-133400000D03*
X85330000Y-124520000D03*
D61*
X107495029Y-115900000D03*
D60*
X94894400Y-106527600D03*
X120910000Y-81110000D03*
D61*
X109093000Y-99771200D03*
D60*
X121793000Y-121285000D03*
X121640600Y-100533200D03*
D61*
X112728513Y-109434000D03*
D60*
X107600000Y-134300000D03*
D61*
X115365655Y-110710000D03*
D60*
X126441200Y-99898200D03*
X97120000Y-84340000D03*
X110970000Y-81070000D03*
D61*
X77560000Y-127460000D03*
X115365655Y-117017800D03*
D60*
X118550000Y-123850000D03*
X103790000Y-102990000D03*
D61*
X114047084Y-110710000D03*
X108774600Y-108314000D03*
D60*
X68760000Y-128220000D03*
X111950000Y-131030000D03*
D61*
X108772800Y-112050000D03*
D60*
X112960000Y-103960000D03*
D61*
X114047084Y-109434000D03*
X119356771Y-105694800D03*
X111411742Y-108314000D03*
X114049313Y-114560000D03*
D60*
X102750000Y-81750000D03*
X84450000Y-82790000D03*
X92405200Y-83108800D03*
X105810000Y-81340000D03*
X78390000Y-86180000D03*
X105950000Y-103570000D03*
X99640000Y-116120000D03*
D61*
X119352800Y-112070000D03*
D60*
X68840000Y-111770000D03*
D61*
X107492800Y-117017800D03*
X119360000Y-113270000D03*
X81710000Y-129460000D03*
X109093000Y-95986600D03*
D60*
X78409800Y-106426000D03*
X80580000Y-122980000D03*
X106740000Y-127400000D03*
D61*
X110091371Y-112050000D03*
D60*
X99974400Y-100660200D03*
X69060000Y-101690000D03*
X134420000Y-111230000D03*
X68170000Y-95500000D03*
D61*
X118002800Y-109434000D03*
X114047084Y-106984800D03*
D60*
X116484400Y-102895400D03*
D61*
X115367884Y-115900000D03*
X110112800Y-118327800D03*
X110947200Y-99771200D03*
D60*
X76708000Y-105638600D03*
D61*
X116684226Y-110710000D03*
D60*
X137120000Y-100480000D03*
X98800000Y-128580000D03*
X129290000Y-99330000D03*
X75565000Y-89179400D03*
X89490000Y-130980000D03*
X101780000Y-90720000D03*
X98780000Y-87830000D03*
X122428000Y-97917000D03*
D61*
X112749942Y-118327800D03*
D60*
X64490000Y-123240000D03*
X84390000Y-86270000D03*
X114960000Y-129070000D03*
D61*
X112732484Y-105674800D03*
X116684226Y-112050000D03*
D60*
X137890000Y-116700000D03*
X108780000Y-130840000D03*
D61*
X108775029Y-115900000D03*
D60*
X137310000Y-91510000D03*
X108864400Y-128717000D03*
X83490000Y-129070000D03*
X114760000Y-133790000D03*
X73760000Y-97900000D03*
X127320000Y-130570000D03*
X128920000Y-94700000D03*
D61*
X119352800Y-109454000D03*
D60*
X116280000Y-133840000D03*
D61*
X118002800Y-106984800D03*
D60*
X131200000Y-130240000D03*
X104521000Y-95605600D03*
X117144800Y-100076000D03*
X137290000Y-118500000D03*
D61*
X111417142Y-113250000D03*
D60*
X88470000Y-130880000D03*
X121996200Y-99263200D03*
X136940000Y-93830000D03*
X96697800Y-105079800D03*
X75372200Y-86022200D03*
X137270000Y-96050000D03*
D61*
X119374229Y-118347800D03*
D60*
X111180000Y-90820000D03*
X108102400Y-91567000D03*
D61*
X119352800Y-117037800D03*
D60*
X113080000Y-81160000D03*
D61*
X108772800Y-110710000D03*
D60*
X117144800Y-101549200D03*
X120910000Y-93070000D03*
D61*
X112877600Y-99771200D03*
D60*
X67880000Y-128210000D03*
D61*
X78160000Y-123520000D03*
D60*
X107320000Y-80780000D03*
X77698600Y-87299800D03*
X120180000Y-92520000D03*
X97282000Y-80949800D03*
X121793000Y-122174000D03*
X88690000Y-102670000D03*
X117250000Y-94730000D03*
D61*
X115365655Y-106984800D03*
D60*
X135440000Y-128550000D03*
D61*
X118002800Y-112050000D03*
D60*
X137150000Y-111190000D03*
X66290000Y-105510000D03*
D61*
X114068513Y-118327800D03*
X110093171Y-108314000D03*
X112852200Y-97790000D03*
D60*
X68770000Y-105300000D03*
D61*
X110091371Y-109434000D03*
X108776771Y-105674800D03*
D60*
X104485000Y-93192600D03*
X67350000Y-106650000D03*
X77495400Y-104978200D03*
X91770000Y-86410000D03*
X58790000Y-128800000D03*
X123610000Y-102650000D03*
D61*
X109118400Y-97840800D03*
D60*
X117120000Y-98330000D03*
X101710000Y-87850000D03*
X117424200Y-80848200D03*
X87200000Y-99460000D03*
D61*
X112728513Y-110710000D03*
X110098571Y-113250000D03*
D60*
X78384400Y-104978200D03*
X126480000Y-123650000D03*
D61*
X114048884Y-108314000D03*
D60*
X79900000Y-130760000D03*
X68820000Y-103550000D03*
X111060000Y-101420000D03*
X76810000Y-97580000D03*
X134550000Y-90510000D03*
X112240000Y-123220000D03*
X109410000Y-80970000D03*
X128410000Y-121740000D03*
D61*
X118002800Y-110710000D03*
X108794229Y-118327800D03*
D60*
X78780000Y-81230000D03*
X134210000Y-109040000D03*
D61*
X110947200Y-96062800D03*
X111409942Y-117017800D03*
X116691426Y-113250000D03*
D60*
X92140000Y-128350000D03*
X69780000Y-115080000D03*
X82120000Y-124520000D03*
D61*
X112728513Y-117017800D03*
D60*
X68100000Y-101680000D03*
X68790000Y-97750000D03*
D61*
X115365655Y-109434000D03*
D60*
X134110000Y-122250000D03*
D61*
X115367884Y-114560000D03*
D60*
X94630000Y-112830000D03*
D61*
X76420000Y-121770000D03*
D60*
X129930000Y-126630000D03*
D61*
X112728513Y-112050000D03*
D60*
X107750000Y-122430000D03*
D61*
X116684226Y-109434000D03*
D60*
X109821900Y-133780000D03*
X116586000Y-92481400D03*
X67530000Y-116760000D03*
D61*
X118002800Y-117017800D03*
X114047084Y-117017800D03*
D60*
X104250000Y-83100000D03*
X105440000Y-130810000D03*
X97470000Y-87730000D03*
X94869000Y-105105200D03*
D61*
X112730313Y-108314000D03*
D60*
X110660000Y-103400000D03*
D61*
X112730742Y-114560000D03*
D60*
X121793000Y-123215400D03*
D61*
X112728513Y-106984800D03*
D60*
X79980000Y-80550000D03*
D61*
X111409942Y-109434000D03*
X110091371Y-110710000D03*
D60*
X68840000Y-110990000D03*
X134570000Y-88710000D03*
X64470000Y-124030000D03*
D61*
X115365655Y-112050000D03*
X118010000Y-113250000D03*
D60*
X99510000Y-98680000D03*
X72770000Y-80850000D03*
X89331800Y-87909400D03*
D61*
X111409942Y-110710000D03*
X110093600Y-114560000D03*
X111431371Y-118327800D03*
X77540000Y-126650000D03*
D60*
X107350000Y-130440000D03*
X95808800Y-106527600D03*
X98750000Y-130770000D03*
X66380000Y-109250000D03*
X134150000Y-98050000D03*
D61*
X112852200Y-96037400D03*
D60*
X96748600Y-106502200D03*
D61*
X110091371Y-117017800D03*
D60*
X114280000Y-103780000D03*
X76708000Y-104978200D03*
X129910000Y-112290000D03*
X85090000Y-130080000D03*
X75565000Y-89789000D03*
D61*
X114049313Y-115900000D03*
D60*
X91795600Y-87198200D03*
D61*
X116686455Y-115900000D03*
D60*
X72770000Y-81950000D03*
X108260000Y-127350000D03*
X105040000Y-128060000D03*
X123647200Y-121310400D03*
X92354400Y-80797400D03*
X64380000Y-130250000D03*
D61*
X112730742Y-115900000D03*
X111412171Y-114560000D03*
D60*
X117527399Y-87473352D03*
X68800000Y-114020000D03*
X112680000Y-101450000D03*
X87690000Y-100850000D03*
D61*
X111413913Y-105674800D03*
X107492800Y-112050000D03*
X118004600Y-108314000D03*
D60*
X106260000Y-130890000D03*
D61*
X112735713Y-113250000D03*
D60*
X68260000Y-123950000D03*
X137200000Y-99590000D03*
X125755400Y-92278200D03*
D61*
X110095342Y-105674800D03*
X115369626Y-105674800D03*
D60*
X119532400Y-91414600D03*
D61*
%TO.N,+5V*%
X85242400Y-116586000D03*
D60*
X97729000Y-110236000D03*
D61*
X85242400Y-115570000D03*
X86156800Y-111556800D03*
X85242400Y-114554000D03*
D60*
X86660000Y-122380000D03*
X121900000Y-105630000D03*
D61*
X86156800Y-116535200D03*
X85242400Y-111607600D03*
X86156800Y-114503200D03*
X86156800Y-112572800D03*
D60*
X86060000Y-121770000D03*
D61*
X73840000Y-109260000D03*
X86156800Y-113538000D03*
D60*
X124570000Y-97240000D03*
X127950000Y-99070000D03*
D61*
X85242400Y-112623600D03*
D60*
X127540000Y-99520000D03*
D61*
X86156800Y-115519200D03*
X86156800Y-110591600D03*
X85242400Y-113538000D03*
D60*
X120548400Y-98221800D03*
X104960000Y-90810000D03*
X102720000Y-93000000D03*
X124360000Y-95940000D03*
X60850000Y-127070000D03*
D62*
X102311200Y-102438200D03*
D61*
X85242400Y-110591600D03*
D60*
%TO.N,3V3_SYS*%
X116770000Y-79560000D03*
%TO.N,USB2-*%
X134540000Y-89374834D03*
X113263500Y-81640000D03*
%TO.N,USB2+*%
X134540000Y-89901834D03*
X112736500Y-81640000D03*
%TO.N,PORT_VBUS_2*%
X134243334Y-87763334D03*
X117020000Y-87100000D03*
%TO.N,USB3-*%
X111263500Y-81680000D03*
X137250000Y-98351500D03*
%TO.N,USB3+*%
X137250000Y-98878500D03*
X110736500Y-81680000D03*
%TO.N,PORT_VBUS_3*%
X133700000Y-96750000D03*
X110070000Y-80960000D03*
%TO.N,USB4-*%
X109263500Y-81660000D03*
X133583677Y-108053677D03*
%TO.N,USB4+*%
X133956323Y-108426323D03*
X108736500Y-81660000D03*
%TO.N,PORT_VBUS_4*%
X137300000Y-105760000D03*
X108740000Y-80850000D03*
%TO.N,ETH_RADIO_TX_N*%
X102304140Y-81090000D03*
X122125060Y-116374940D03*
X102240000Y-119063800D03*
%TO.N,ETH_RADIO_TX_P*%
X101695860Y-81090000D03*
X121694940Y-116805060D03*
X102240000Y-119616200D03*
%TO.N,ETH_RADIO_RX_N*%
X101304140Y-80290000D03*
X122000000Y-125635860D03*
X98955303Y-120204697D03*
%TO.N,ETH_RADIO_RX_P*%
X98564697Y-120595303D03*
X122000000Y-126244140D03*
X100695860Y-80290000D03*
%TO.N,ETH_SPARE_RX_P*%
X121780000Y-107694140D03*
X99804140Y-79690000D03*
%TO.N,ETH_SPARE_RX_N*%
X121780000Y-107085860D03*
X99195860Y-79690000D03*
%TO.N,ETH_SPARE_TX_P*%
X118770000Y-96504140D03*
X98304140Y-79720000D03*
%TO.N,ETH_SPARE_TX_N*%
X118770000Y-95895860D03*
X97695860Y-79720000D03*
D61*
%TO.N,Net-(D2-K)*%
X96580000Y-107730000D03*
X97920000Y-102810000D03*
D60*
%TO.N,FMU_I2C_1_SDA*%
X65000000Y-116980000D03*
X103437300Y-123567300D03*
%TO.N,FMU_I2C_1_SCL*%
X64970000Y-115710000D03*
X101670000Y-120520000D03*
%TO.N,GPS1_RX*%
X101200000Y-120150000D03*
X65820000Y-115280000D03*
%TO.N,GPS1_TX*%
X65800000Y-114720000D03*
X100782162Y-119804123D03*
%TO.N,+VDD_5V_PERIPH*%
X108220000Y-134110000D03*
X110960000Y-134390000D03*
X65910000Y-114190000D03*
X105710000Y-134240000D03*
X61760000Y-118630000D03*
X66840000Y-130060000D03*
X138330000Y-123950000D03*
X110235000Y-134265000D03*
X76380000Y-133550000D03*
X100400000Y-119480000D03*
X137560000Y-114790000D03*
X102590000Y-128570000D03*
%TO.N,BATT_VOLTAGE_SENS_PROT*%
X61860000Y-117380000D03*
X117320000Y-129400000D03*
X114360000Y-122780000D03*
%TO.N,BATT_CURRENT_SENS_PROT*%
X116740000Y-129380000D03*
X61780000Y-116110000D03*
X113840000Y-122360000D03*
%TO.N,FMU-CH1-PROT*%
X101840000Y-128640000D03*
X134410000Y-118330000D03*
%TO.N,IO-CH8-PROT*%
X104730000Y-134610000D03*
X137170000Y-119280000D03*
%TO.N,IO-CH7-PROT*%
X137110000Y-119990000D03*
X104290000Y-134910000D03*
%TO.N,IO-CH6-PROT*%
X103750000Y-134520000D03*
X137090000Y-121220000D03*
%TO.N,IO-CH5-PROT*%
X137130000Y-122480000D03*
X103320979Y-134848867D03*
%TO.N,IO-CH4-PROT*%
X137190000Y-123720000D03*
X102820000Y-134860000D03*
%TO.N,IO-CH3-PROT*%
X102260000Y-134870000D03*
X137250000Y-124990000D03*
%TO.N,IO-CH2-PROT*%
X101750000Y-134780000D03*
X134220000Y-126240000D03*
%TO.N,IO-CH1-PROT*%
X101140000Y-134670000D03*
X137320000Y-127470000D03*
%TO.N,ETH_RADIO_TX_POSTMAG_N*%
X137120000Y-101925460D03*
X134370000Y-117131300D03*
%TO.N,ETH_RADIO_TX_POSTMAG_P*%
X137120000Y-102533740D03*
X134370000Y-117658300D03*
%TO.N,ETH_RADIO_RX_POSTMAG_N*%
X134088279Y-124573677D03*
X137130000Y-104425460D03*
%TO.N,ETH_RADIO_RX_POSTMAG_P*%
X137130000Y-105033740D03*
X134460925Y-124946323D03*
%TO.N,ETH_SPARE_TX_POSTMAG_N*%
X137340000Y-92266500D03*
X134167726Y-98621500D03*
%TO.N,ETH_SPARE_TX_POSTMAG_P*%
X137340000Y-92793500D03*
X134167726Y-99148500D03*
%TO.N,ETH_SPARE_RX_POSTMAG_N*%
X134200000Y-106241500D03*
X137090000Y-94754260D03*
%TO.N,ETH_SPARE_RX_POSTMAG_P*%
X137090000Y-95362540D03*
X134200000Y-106768500D03*
D61*
%TO.N,Net-(D3-K)*%
X78245300Y-109710000D03*
X79640000Y-102720000D03*
D60*
%TO.N,+1V1*%
X118668800Y-98221800D03*
X122148600Y-92684600D03*
X122148600Y-93243400D03*
X108102400Y-92227400D03*
X111125000Y-92252800D03*
X107518200Y-103581200D03*
X123740000Y-95930000D03*
X112664200Y-103454200D03*
X116454000Y-96062800D03*
X103370000Y-92990000D03*
X121890000Y-104970000D03*
X116494600Y-100076000D03*
X109139200Y-103428800D03*
X116454400Y-97561400D03*
X122580000Y-95890000D03*
X121880000Y-95870000D03*
%TO.N,+5V_FMU*%
X124820000Y-126640000D03*
X108910000Y-123310000D03*
X108960000Y-124290000D03*
D61*
X103225600Y-116687600D03*
X75210000Y-125330000D03*
X104089200Y-113588800D03*
X104089200Y-115671600D03*
D60*
X102710000Y-95610000D03*
X122540000Y-91460000D03*
D61*
X75350000Y-126660000D03*
X104089200Y-111658400D03*
X92910000Y-108670000D03*
X103225600Y-111658400D03*
X74760000Y-126660000D03*
D62*
X69392800Y-119126000D03*
D60*
X126350000Y-95960000D03*
D61*
X79970000Y-127700000D03*
X104089200Y-112572800D03*
D60*
X109930000Y-124290000D03*
X62160000Y-127160000D03*
X109580000Y-123300000D03*
X66070000Y-119030000D03*
X109430000Y-124300000D03*
D61*
X104089200Y-114655600D03*
X103225600Y-110642400D03*
D60*
X81110000Y-127508000D03*
D61*
X103225600Y-113588800D03*
D60*
X65760000Y-122210000D03*
D61*
X103225600Y-112572800D03*
D60*
X122670000Y-105620000D03*
D61*
X103225600Y-115671600D03*
X104089200Y-116687600D03*
X103225600Y-114655600D03*
X104089200Y-110642400D03*
D60*
%TO.N,IRID_ON_OFF_3.3*%
X115760000Y-81710000D03*
X81070000Y-80190000D03*
%TO.N,IRID_TX_IN_3.3*%
X115610000Y-81130000D03*
X79360000Y-81070000D03*
%TO.N,IRID_RING_3.3*%
X115560000Y-80370000D03*
X78150000Y-81040000D03*
%TO.N,IRID_NA_3.3*%
X77170000Y-80930000D03*
X113690000Y-79760000D03*
%TO.N,IRID_RX_OUT_3.3*%
X117710000Y-87940000D03*
X73170000Y-85550000D03*
%TO.N,USB_EXT2_SSTX-*%
X113280000Y-103430000D03*
X100390000Y-128380000D03*
%TO.N,Net-(U9-VCC)*%
X69750000Y-115860000D03*
X70730000Y-119120000D03*
%TO.N,XAVIER_I2C1_SCL*%
X128010000Y-130660000D03*
X130370000Y-95980000D03*
X116920000Y-84940000D03*
%TO.N,CAM1_D0_N*%
X112454284Y-87445716D03*
%TO.N,CAM1_D0_P*%
X112045716Y-87854284D03*
X104100000Y-86720000D03*
X103010000Y-85540000D03*
%TO.N,CAM1_C_N*%
X108110000Y-86280000D03*
%TO.N,CAM1_C_P*%
X108990000Y-86830000D03*
%TO.N,CAM1_D1_N*%
X105510000Y-86160000D03*
%TO.N,CAM1_D1_P*%
X106035716Y-86644284D03*
%TO.N,XAVIER_I2C1_SDA*%
X130570000Y-129980000D03*
X116250000Y-84480000D03*
X130960000Y-95960000D03*
%TO.N,GPIO10*%
X76440000Y-87260000D03*
X116660000Y-87560000D03*
X72080000Y-97970000D03*
%TO.N,GPIO12*%
X75800000Y-87420000D03*
X116250000Y-87910000D03*
X69460000Y-97990000D03*
%TO.N,RC_INPUT*%
X76820000Y-100840000D03*
X101790000Y-110737300D03*
X64970000Y-92840000D03*
X106390000Y-122150000D03*
%TO.N,+VDD_5V_RADIO*%
X69240000Y-130350000D03*
X66500000Y-91570000D03*
X107240000Y-127840000D03*
%TO.N,BUZZER_OUT*%
X66320000Y-117840000D03*
X64810000Y-121970000D03*
%TO.N,SAFETY_VDD*%
X105750000Y-127550000D03*
X64880000Y-120720000D03*
X99280000Y-123780000D03*
%TO.N,SAFETY_SWITCH_IN*%
X64980000Y-118250000D03*
X103874349Y-123900000D03*
%TO.N,TELEM1_TX*%
X114280000Y-131130000D03*
X75180000Y-133430000D03*
%TO.N,TELEM1_RX*%
X113750000Y-133660000D03*
X73900000Y-133360000D03*
%TO.N,TELEM1_CTS*%
X113240000Y-134040000D03*
X72680000Y-133380000D03*
%TO.N,TELEM1_RTS*%
X71390000Y-133380000D03*
X112780000Y-134420000D03*
%TO.N,INTVCC*%
X125791000Y-99872800D03*
X120497600Y-99237800D03*
%TO.N,USB_EXT2_SSTX+*%
X113840000Y-103410000D03*
X100380000Y-128930000D03*
%TO.N,CAN_2+*%
X137730000Y-125470860D03*
X108695860Y-133920000D03*
%TO.N,CAN_2-*%
X109304140Y-133920000D03*
X137730000Y-126079140D03*
%TO.N,FMU_I2C_2_SDA*%
X64780000Y-125880000D03*
X107200000Y-133820000D03*
%TO.N,FMU_I2C_2_SCL*%
X64750000Y-126590000D03*
X106750000Y-134270000D03*
%TO.N,FMU-CH4-PROT*%
X99310000Y-129550000D03*
X134370000Y-113670000D03*
%TO.N,FMU-CH3-PROT*%
X99750000Y-128470000D03*
X134420000Y-115000000D03*
%TO.N,FMU-CH2-PROT*%
X134420000Y-116120000D03*
X101330000Y-128710000D03*
%TO.N,USB_EXT1_SSTX-*%
X84426323Y-128806323D03*
X117356323Y-99316323D03*
X87690000Y-100322070D03*
%TO.N,USB_EXT1_SSTX+*%
X87690000Y-99817930D03*
X84053677Y-128433677D03*
X116983677Y-98943677D03*
%TO.N,CAM1_GPIO*%
X108290000Y-90700000D03*
X112170000Y-80767300D03*
%TO.N,CAM1_MCLK*%
X107760000Y-90690000D03*
X112551641Y-81092037D03*
%TO.N,CAM1_SCL0*%
X113830000Y-80940000D03*
X107240000Y-90680000D03*
%TO.N,CAM1_SDA0*%
X106600000Y-88150000D03*
X114572700Y-80500000D03*
%TO.N,CAM0_D0_N*%
X76965716Y-82075716D03*
X97670000Y-84671100D03*
%TO.N,CAM0_D0_P*%
X97670000Y-85248900D03*
X77374284Y-82484284D03*
%TO.N,CAM0_C_N*%
X96410000Y-85730000D03*
X82895716Y-81935716D03*
%TO.N,CAM0_C_P*%
X83304284Y-82344284D03*
X96480000Y-86280000D03*
%TO.N,CAM0_D1_N*%
X97830000Y-86581100D03*
X80205716Y-81145716D03*
%TO.N,CAM0_D1_P*%
X80614284Y-81554284D03*
X97830000Y-87158900D03*
%TO.N,CAM0_GPIO*%
X101640000Y-91900000D03*
%TO.N,CAM0_MCLK*%
X100180000Y-93130000D03*
%TO.N,CAM0_SCL0*%
X100200000Y-90700000D03*
%TO.N,CAM0_SDA0*%
X98680000Y-93020000D03*
%TO.N,USBSS_TX_N*%
X112290000Y-90990000D03*
X105263500Y-81350000D03*
%TO.N,USBSS_TX_P*%
X111770000Y-90980000D03*
X104736500Y-81350000D03*
%TO.N,UART4_RX*%
X114660000Y-127480000D03*
X119167208Y-126152989D03*
%TO.N,UART4_TX*%
X119190000Y-125630000D03*
X114120000Y-127490000D03*
%TO.N,S.BUS_OUT*%
X67920000Y-130900000D03*
X113470000Y-127530000D03*
%TO.N,USB_CELL_SSTX+*%
X116643677Y-94833677D03*
X64600000Y-111706000D03*
X66200000Y-96937930D03*
%TO.N,USB_CELL_SSTX-*%
X66200000Y-97442070D03*
X117016323Y-95206323D03*
X64600000Y-111179000D03*
%TO.N,+SIM_VCC*%
X83310000Y-102980000D03*
X76300000Y-111520000D03*
X128077000Y-93522800D03*
X127650000Y-96140000D03*
%TO.N,Net-(D9-K)*%
X77380000Y-130360000D03*
X75950000Y-100150000D03*
X76190000Y-130290000D03*
%TO.N,Net-(D10-A)*%
X132010000Y-112350000D03*
X120780000Y-134330000D03*
X128030000Y-134220000D03*
%TO.N,USB_CELL_D+*%
X68330000Y-96097930D03*
X114180000Y-94260000D03*
X68710000Y-104236500D03*
%TO.N,USB_CELL_D-*%
X114526323Y-94706323D03*
X68710000Y-104763500D03*
X68330000Y-96602070D03*
%TO.N,USB_CELL_SSRX+*%
X114470000Y-96554501D03*
X75891759Y-96891759D03*
X68740000Y-110263500D03*
%TO.N,USB_CELL_SSRX-*%
X114470000Y-97081501D03*
X69410000Y-110310000D03*
X76248241Y-97248241D03*
%TO.N,USB_EXT1_D+*%
X114490000Y-98054502D03*
X91101500Y-131190000D03*
%TO.N,USB_EXT1_D-*%
X114490000Y-98581502D03*
X91628500Y-131190000D03*
%TO.N,USB_EXT1_SSRX+*%
X114460000Y-100554502D03*
X87351500Y-130890000D03*
X88311759Y-101721759D03*
%TO.N,USB_EXT1_SSRX-*%
X114460000Y-101081502D03*
X88668241Y-102078241D03*
X87878500Y-130890000D03*
%TO.N,USB_EXT2_D+*%
X115136323Y-103243677D03*
X107871500Y-130740000D03*
%TO.N,USB_EXT2_D-*%
X114763677Y-103616323D03*
X107850000Y-130170000D03*
%TO.N,USB_EXT2_SSRX+*%
X112150000Y-101440000D03*
X104121500Y-130750000D03*
X104132930Y-122230000D03*
%TO.N,USB_EXT2_SSRX-*%
X104648500Y-130750000D03*
X104637070Y-122230000D03*
X111630000Y-101430000D03*
%TO.N,PWRCTRL2*%
X101720000Y-109750000D03*
X102100000Y-100330000D03*
%TO.N,+3V3*%
X118414800Y-103454200D03*
X121920000Y-102463600D03*
X125710000Y-95960000D03*
X123260000Y-92170000D03*
X122650000Y-104980000D03*
X103378000Y-96951800D03*
X118389400Y-102844600D03*
X104889600Y-101142800D03*
X121920000Y-103784400D03*
X118668800Y-99745800D03*
X114528600Y-92242600D03*
X116484400Y-101549200D03*
X103454200Y-94640400D03*
X104368600Y-98069400D03*
X103360000Y-95590000D03*
X121920000Y-103124000D03*
X108770000Y-92220000D03*
%TO.N,OVERCUR3*%
X103378000Y-96312200D03*
X102330000Y-113400000D03*
%TO.N,OVERCUR2*%
X104104400Y-94640400D03*
X105321401Y-117240000D03*
X97290000Y-116550000D03*
%TO.N,CAN_1+*%
X137380000Y-116360860D03*
X110695860Y-131020000D03*
%TO.N,CAN_1-*%
X111304140Y-131020000D03*
X137380000Y-116969140D03*
D61*
%TO.N,/MainPower/PWR_IN*%
X81305400Y-91541600D03*
X83591400Y-90551000D03*
X82346800Y-92583000D03*
X82346800Y-90551000D03*
X81305400Y-90551000D03*
X83591400Y-89509600D03*
X83591400Y-92583000D03*
X83591400Y-91541600D03*
D60*
X75539600Y-91998800D03*
D61*
X81305400Y-89509600D03*
X82346800Y-91541600D03*
D60*
X78359000Y-92430600D03*
D61*
X82346800Y-89509600D03*
D60*
X75539600Y-92583000D03*
D61*
X81305400Y-92583000D03*
D60*
%TO.N,JETSON_USB1_D_P*%
X106736500Y-81290000D03*
X109104100Y-90900000D03*
%TO.N,JETSON_USB1_D_N*%
X107263500Y-81290000D03*
X109631100Y-90900000D03*
%TO.N,USBSS_RX_P*%
X110104099Y-91130000D03*
X103236500Y-81450000D03*
%TO.N,USBSS_RX_N*%
X103763500Y-81450000D03*
X110631099Y-91130000D03*
%TO.N,Net-(IC1-USB_R1)*%
X115351600Y-93141800D03*
%TO.N,JETSON_CAN+*%
X93324894Y-96144894D03*
X64870000Y-103830860D03*
X98170000Y-90720000D03*
%TO.N,JETSON_CAN-*%
X98750000Y-90720000D03*
X64870000Y-104439140D03*
X93895106Y-96715106D03*
%TO.N,PORT_VBUS_JETSON*%
X103780000Y-93469350D03*
X106180000Y-80830000D03*
%TO.N,GPIO02*%
X72830000Y-97870000D03*
X118720000Y-89360000D03*
X76640000Y-89050000D03*
%TO.N,BATT2_CURRENT_SENS_PROT*%
X115010000Y-122940000D03*
X61800000Y-113610000D03*
%TO.N,BATT2_VOLTAGE_SENS_PROT*%
X115350000Y-122320000D03*
X61730000Y-114680000D03*
%TO.N,SPARE1_ADC1*%
X116740000Y-122220000D03*
X93065744Y-117871709D03*
%TO.N,SPARE2_ADC1*%
X97100000Y-117090000D03*
X117180000Y-120710000D03*
%TO.N,Net-(J20-Pin_7)*%
X64730000Y-119600000D03*
X105230000Y-123190000D03*
D61*
%TO.N,Net-(J30-~{FULL_CARD_POWER_OFF})*%
X76510000Y-101360000D03*
X72880000Y-103890000D03*
%TO.N,PCIE_DIS*%
X78870000Y-109230000D03*
X74000000Y-107520000D03*
D60*
%TO.N,VBUS_CELL*%
X71810000Y-106720000D03*
X98950000Y-96640000D03*
%TO.N,SIM_RESET*%
X125160000Y-94710000D03*
X89220000Y-104260000D03*
X92490000Y-98950000D03*
X74730000Y-110000000D03*
%TO.N,SIM_CLK*%
X76200000Y-110440000D03*
X123490000Y-93560000D03*
X89220000Y-99210000D03*
%TO.N,SIM_DATA*%
X123850000Y-94710000D03*
X76850000Y-110440000D03*
X88560000Y-99240000D03*
%TO.N,SIM_DETECT*%
X129870000Y-94700000D03*
X90850000Y-99180000D03*
X76280000Y-119050000D03*
%TO.N,Net-(U9-+IN)*%
X106330000Y-122870000D03*
X72110000Y-118490000D03*
%TO.N,PGOOD2*%
X120548400Y-100228400D03*
X126570000Y-98370000D03*
%TO.N,+5V_PROT*%
X90115000Y-117095000D03*
X66310000Y-102250000D03*
%TO.N,RS232_TXD*%
X129870000Y-130500000D03*
%TO.N,RS232_RXD*%
X128750000Y-130550000D03*
%TO.N,+5V_PROT_INS*%
X118680000Y-133420000D03*
X118670000Y-124710000D03*
X95590000Y-122640000D03*
X93740000Y-122620000D03*
%TO.N,Net-(J13-Pin_6)*%
X61810000Y-112540000D03*
X91980000Y-117848700D03*
%TO.N,Net-(J13-Pin_7)*%
X95873592Y-117560000D03*
X61840000Y-111170000D03*
%TD*%
D63*
%TO.N,GND*%
X67525000Y-103750000D02*
X68620000Y-103750000D01*
X78348800Y-107416600D02*
X78986600Y-107416600D01*
D64*
X68250000Y-123940000D02*
X68260000Y-123950000D01*
D63*
X68720000Y-105250000D02*
X68770000Y-105300000D01*
D65*
X135919600Y-100490000D02*
X137110000Y-100490000D01*
X137306666Y-91513334D02*
X137310000Y-91510000D01*
X97089000Y-110236000D02*
X97089000Y-110599000D01*
D63*
X76073000Y-127660400D02*
X77359600Y-127660400D01*
X67525000Y-110750000D02*
X68600000Y-110750000D01*
D65*
X64550000Y-100690000D02*
X64580000Y-100660000D01*
D63*
X134220000Y-103531600D02*
X134218400Y-103530000D01*
D64*
X106260000Y-132211200D02*
X106260000Y-130890000D01*
D63*
X75372200Y-86022200D02*
X75372200Y-84828400D01*
D65*
X63170000Y-100690000D02*
X64550000Y-100690000D01*
D63*
X118770400Y-91431400D02*
X119515600Y-91431400D01*
X122910600Y-120802400D02*
X122275600Y-120802400D01*
X108123200Y-91587800D02*
X108102400Y-91567000D01*
X67525000Y-113750000D02*
X68530000Y-113750000D01*
X119515600Y-91431400D02*
X119532400Y-91414600D01*
X123012200Y-102650000D02*
X123610000Y-102650000D01*
D65*
X134210000Y-109040000D02*
X134680000Y-109510000D01*
X105840000Y-81340000D02*
X107026200Y-82526200D01*
D63*
X99620000Y-116140000D02*
X99030000Y-116140000D01*
X115677200Y-86678400D02*
X116331600Y-86678400D01*
X68950000Y-109250000D02*
X69090000Y-109390000D01*
X107416600Y-91587400D02*
X108082000Y-91587400D01*
X76892000Y-123952000D02*
X77550000Y-124610000D01*
X78372200Y-84828400D02*
X78372200Y-86162200D01*
X66550000Y-105250000D02*
X67525000Y-105250000D01*
D64*
X70160000Y-133500000D02*
X70170000Y-133510000D01*
D63*
X68620000Y-103750000D02*
X68820000Y-103550000D01*
X67525000Y-120750000D02*
X67525000Y-120435000D01*
D65*
X105810000Y-81340000D02*
X105840000Y-81340000D01*
D63*
X94630000Y-114130000D02*
X94630000Y-112830000D01*
D65*
X137110000Y-100490000D02*
X137120000Y-100480000D01*
D63*
X68520000Y-103250000D02*
X68820000Y-103550000D01*
X82083000Y-124557000D02*
X82120000Y-124520000D01*
X127410000Y-130660000D02*
X127320000Y-130570000D01*
X108082000Y-91587400D02*
X108102400Y-91567000D01*
X134218400Y-103530000D02*
X133990000Y-103530000D01*
X123012200Y-102650000D02*
X123012200Y-102971000D01*
X91640000Y-113130000D02*
X91740000Y-113030000D01*
X78372200Y-86162200D02*
X78390000Y-86180000D01*
X78986600Y-107416600D02*
X79180000Y-107610000D01*
X99857801Y-99917798D02*
X99857801Y-100553801D01*
D64*
X98760000Y-132211200D02*
X98760000Y-130780000D01*
D63*
X79070200Y-127160398D02*
X78071599Y-127160398D01*
D65*
X107026200Y-82526200D02*
X107026200Y-84828400D01*
D63*
X66217800Y-124887200D02*
X66217800Y-124292200D01*
X67525000Y-120435000D02*
X67700000Y-120260000D01*
X123415200Y-121542400D02*
X123647200Y-121310400D01*
X67525000Y-109250000D02*
X66380000Y-109250000D01*
D65*
X95290000Y-129190000D02*
X94895400Y-129190000D01*
D63*
X123012200Y-102311200D02*
X123012200Y-102650000D01*
D65*
X97301600Y-111349200D02*
X97301600Y-110811600D01*
D63*
X68530000Y-113750000D02*
X68800000Y-114020000D01*
D64*
X78155800Y-123515800D02*
X78160000Y-123520000D01*
X78155800Y-122695000D02*
X78155800Y-123515800D01*
D63*
X117730800Y-94249200D02*
X117250000Y-94730000D01*
D65*
X94895400Y-129190000D02*
X94411800Y-128706400D01*
D63*
X118821200Y-94249200D02*
X117730800Y-94249200D01*
D64*
X89490000Y-132211200D02*
X89490000Y-130980000D01*
D63*
X134340600Y-103531600D02*
X134220000Y-103531600D01*
X84372200Y-84828400D02*
X84372200Y-86252200D01*
X67525000Y-109250000D02*
X68950000Y-109250000D01*
D64*
X102510000Y-132211200D02*
X102510000Y-130870000D01*
D63*
X122910600Y-121542400D02*
X123415200Y-121542400D01*
D65*
X95290000Y-129190000D02*
X94838000Y-129190000D01*
D63*
X133990000Y-103530000D02*
X133270000Y-102810000D01*
X137250000Y-118540000D02*
X137290000Y-118500000D01*
X77550000Y-124610000D02*
X77550000Y-125780000D01*
D64*
X81990000Y-132211200D02*
X81990000Y-133390000D01*
D63*
X122275600Y-120802400D02*
X121793000Y-121285000D01*
X76657200Y-121274800D02*
X76657200Y-121532800D01*
D65*
X104026200Y-83323800D02*
X104250000Y-83100000D01*
X101026200Y-84828400D02*
X101026200Y-87166200D01*
X110026200Y-81586200D02*
X110026200Y-84828400D01*
D63*
X81372200Y-84828400D02*
X81372200Y-86162200D01*
X66290000Y-105510000D02*
X66550000Y-105250000D01*
X79180000Y-107610000D02*
X79180000Y-108630000D01*
D65*
X61890000Y-90320000D02*
X61850000Y-90360000D01*
D64*
X98760000Y-130780000D02*
X98750000Y-130770000D01*
D63*
X108762800Y-91587800D02*
X108123200Y-91587800D01*
D65*
X134680000Y-109510000D02*
X135919600Y-109510000D01*
X63170000Y-109860000D02*
X64560000Y-109860000D01*
D63*
X117420400Y-92481400D02*
X116586000Y-92481400D01*
X67525000Y-105250000D02*
X68720000Y-105250000D01*
D65*
X94838000Y-129190000D02*
X94411800Y-129616200D01*
D63*
X68600000Y-110750000D02*
X68840000Y-110990000D01*
X75529400Y-123952000D02*
X76892000Y-123952000D01*
X67525000Y-112250000D02*
X68360000Y-112250000D01*
X68360000Y-112250000D02*
X68840000Y-111770000D01*
X91320000Y-113450000D02*
X91640000Y-113130000D01*
X91320000Y-114130000D02*
X91320000Y-113450000D01*
X99640000Y-116120000D02*
X99620000Y-116140000D01*
D64*
X81990000Y-133390000D02*
X81980000Y-133400000D01*
D63*
X91740000Y-113030000D02*
X92130000Y-113030000D01*
D64*
X108864400Y-129540000D02*
X108864400Y-128717000D01*
D63*
X135919600Y-118540000D02*
X137250000Y-118540000D01*
X106680000Y-91577200D02*
X107406400Y-91577200D01*
X76657200Y-121532800D02*
X76420000Y-121770000D01*
X84372200Y-86252200D02*
X84390000Y-86270000D01*
D64*
X85740000Y-133520000D02*
X85760000Y-133540000D01*
X70160000Y-132211200D02*
X70160000Y-133500000D01*
D63*
X116331600Y-86678400D02*
X116350000Y-86660000D01*
D65*
X97301600Y-110811600D02*
X97180000Y-110690000D01*
D64*
X86454400Y-129184400D02*
X87464100Y-129184400D01*
D65*
X135919600Y-128070400D02*
X135440000Y-128550000D01*
D63*
X67525000Y-103250000D02*
X68520000Y-103250000D01*
D65*
X97089000Y-110599000D02*
X97180000Y-110690000D01*
D64*
X85740000Y-132211200D02*
X85740000Y-133520000D01*
D63*
X81372200Y-86162200D02*
X81380000Y-86170000D01*
D65*
X135919600Y-127650000D02*
X135919600Y-128070400D01*
D63*
X66217800Y-124292200D02*
X66220000Y-124290000D01*
D65*
X135919600Y-91513334D02*
X137306666Y-91513334D01*
X101026200Y-87166200D02*
X101710000Y-87850000D01*
X63070000Y-90320000D02*
X61890000Y-90320000D01*
X104026200Y-84828400D02*
X104026200Y-83323800D01*
D64*
X68250000Y-122350000D02*
X68250000Y-123940000D01*
D65*
X63190000Y-124030000D02*
X64470000Y-124030000D01*
X109410000Y-80970000D02*
X110026200Y-81586200D01*
D63*
X81508600Y-124557000D02*
X82083000Y-124557000D01*
X127410000Y-132190000D02*
X127410000Y-130660000D01*
X79070200Y-126160400D02*
X78071599Y-126160400D01*
%TO.N,Net-(U1-RDCT)*%
X122910600Y-122102400D02*
X123822400Y-122102400D01*
X123822400Y-122102400D02*
X124407250Y-122687250D01*
X124407250Y-122687250D02*
X124407250Y-123109800D01*
%TO.N,Net-(U2-RDCT)*%
X123012200Y-104002200D02*
X123012200Y-103531000D01*
X123610000Y-104600000D02*
X123012200Y-104002200D01*
%TO.N,Net-(U1-TDCT)*%
X124407250Y-119299800D02*
X124407250Y-119682750D01*
X124407250Y-119682750D02*
X123847600Y-120242400D01*
X123847600Y-120242400D02*
X122910600Y-120242400D01*
%TO.N,Net-(C5-Pad1)*%
X134112000Y-120985200D02*
X134112000Y-121664800D01*
%TO.N,Net-(C6-Pad1)*%
X134360600Y-102401600D02*
X134360600Y-102951600D01*
%TO.N,Net-(U2-TDCT)*%
X123012200Y-101397800D02*
X123012200Y-101751200D01*
X123620000Y-100790000D02*
X123012200Y-101397800D01*
D64*
%TO.N,+5V*%
X99324200Y-100660200D02*
X99324200Y-101584800D01*
D65*
X97801600Y-111349200D02*
X97801600Y-110308600D01*
D64*
X99207800Y-100543800D02*
X99324200Y-100660200D01*
X99324200Y-101584800D02*
X100177600Y-102438200D01*
D65*
X98301600Y-111349200D02*
X97801600Y-111349200D01*
D64*
X99207800Y-99917798D02*
X99207800Y-100543800D01*
X100177600Y-102438200D02*
X102311200Y-102438200D01*
%TO.N,3V3_SYS*%
X115026200Y-79616200D02*
X116713800Y-79616200D01*
X89372200Y-86588400D02*
X89502200Y-86718400D01*
X115026200Y-79616200D02*
X115026200Y-84828400D01*
X90294000Y-79236000D02*
X114646000Y-79236000D01*
X89372200Y-80157800D02*
X90294000Y-79236000D01*
X89372200Y-84828400D02*
X89372200Y-86588400D01*
X89372200Y-84828400D02*
X89372200Y-80157800D01*
X116713800Y-79616200D02*
X116770000Y-79560000D01*
X115026200Y-84828400D02*
X115026200Y-86667400D01*
X114646000Y-79236000D02*
X115026200Y-79616200D01*
D66*
%TO.N,USB2-*%
X134661260Y-89496094D02*
X134540000Y-89374834D01*
X134886840Y-89496094D02*
X134661260Y-89496094D01*
X135369600Y-89013334D02*
X134886840Y-89496094D01*
%TO.N,USB2+*%
X134886840Y-89780574D02*
X134661260Y-89780574D01*
X135369600Y-90263334D02*
X134886840Y-89780574D01*
X134661260Y-89780574D02*
X134540000Y-89901834D01*
D65*
%TO.N,PORT_VBUS_2*%
X135919600Y-87763334D02*
X134243334Y-87763334D01*
D66*
%TO.N,USB3-*%
X137128740Y-98472760D02*
X137250000Y-98351500D01*
X136469600Y-97990000D02*
X136952360Y-98472760D01*
X136952360Y-98472760D02*
X137128740Y-98472760D01*
%TO.N,USB3+*%
X136952360Y-98757240D02*
X137128740Y-98757240D01*
X137128740Y-98757240D02*
X137250000Y-98878500D01*
X136469600Y-99240000D02*
X136952360Y-98757240D01*
D65*
%TO.N,PORT_VBUS_3*%
X133710000Y-96740000D02*
X133700000Y-96750000D01*
X135919600Y-96740000D02*
X133710000Y-96740000D01*
D66*
%TO.N,USB4-*%
X133755165Y-108053677D02*
X133583677Y-108053677D01*
X134886840Y-107492760D02*
X134316082Y-107492760D01*
X135369600Y-107010000D02*
X134886840Y-107492760D01*
X134316082Y-107492760D02*
X133755165Y-108053677D01*
%TO.N,USB4+*%
X135369600Y-108260000D02*
X134886840Y-107777240D01*
X134886840Y-107777240D02*
X134433918Y-107777240D01*
X134433918Y-107777240D02*
X133956323Y-108254835D01*
X133956323Y-108254835D02*
X133956323Y-108426323D01*
D65*
%TO.N,PORT_VBUS_4*%
X135919600Y-105760000D02*
X137300000Y-105760000D01*
D67*
%TO.N,ETH_RADIO_TX_N*%
X123410554Y-117280246D02*
X123931000Y-116759800D01*
X122125060Y-116643056D02*
X122727450Y-117245446D01*
X122125060Y-116374940D02*
X122125060Y-116643056D01*
X122967675Y-117245446D02*
X123002475Y-117280246D01*
X122727450Y-117245446D02*
X122967675Y-117245446D01*
X123931000Y-116759800D02*
X124407250Y-116759800D01*
X123002475Y-117280246D02*
X123410554Y-117280246D01*
%TO.N,ETH_RADIO_TX_P*%
X122632550Y-117474554D02*
X122880000Y-117474554D01*
X122914800Y-117509354D02*
X123410554Y-117509354D01*
X121694940Y-116805060D02*
X121963056Y-116805060D01*
X123410554Y-117509354D02*
X123931000Y-118029800D01*
X121963056Y-116805060D02*
X122632550Y-117474554D01*
X122880000Y-117474554D02*
X122914800Y-117509354D01*
X123931000Y-118029800D02*
X124407250Y-118029800D01*
%TO.N,ETH_RADIO_RX_N*%
X122000000Y-125635860D02*
X122189586Y-125825446D01*
X123931000Y-124379800D02*
X124407250Y-124379800D01*
X123410554Y-124900246D02*
X123931000Y-124379800D01*
X122189586Y-125825446D02*
X122222550Y-125825446D01*
X123147750Y-124900246D02*
X123410554Y-124900246D01*
X122222550Y-125825446D02*
X123147750Y-124900246D01*
%TO.N,ETH_RADIO_RX_P*%
X123242650Y-125129354D02*
X123410554Y-125129354D01*
X122000000Y-126244140D02*
X122189586Y-126054554D01*
X122317450Y-126054554D02*
X123242650Y-125129354D01*
X122189586Y-126054554D02*
X122317450Y-126054554D01*
X123410554Y-125129354D02*
X123931000Y-125649800D01*
X123931000Y-125649800D02*
X124407250Y-125649800D01*
%TO.N,ETH_SPARE_RX_P*%
X123353304Y-106619554D02*
X123873750Y-107140000D01*
X121780000Y-107694140D02*
X121969586Y-107504554D01*
X123192450Y-106619554D02*
X123353304Y-106619554D01*
X121969586Y-107504554D02*
X122307450Y-107504554D01*
X123873750Y-107140000D02*
X124350000Y-107140000D01*
X122307450Y-107504554D02*
X123192450Y-106619554D01*
%TO.N,ETH_SPARE_RX_N*%
X123097550Y-106390446D02*
X123353304Y-106390446D01*
X121969586Y-107275446D02*
X122212550Y-107275446D01*
X123353304Y-106390446D02*
X123873750Y-105870000D01*
X122212550Y-107275446D02*
X123097550Y-106390446D01*
X121780000Y-107085860D02*
X121969586Y-107275446D01*
X123873750Y-105870000D02*
X124350000Y-105870000D01*
%TO.N,ETH_SPARE_TX_P*%
X119902550Y-96314554D02*
X121415446Y-97827450D01*
X122118542Y-98910546D02*
X122454670Y-98910546D01*
X118959586Y-96314554D02*
X119902550Y-96314554D01*
X123064124Y-99520000D02*
X124350000Y-99520000D01*
X121415446Y-98207450D02*
X122118542Y-98910546D01*
X118770000Y-96504140D02*
X118959586Y-96314554D01*
X121415446Y-97827450D02*
X121415446Y-98207450D01*
X122454670Y-98910546D02*
X123064124Y-99520000D01*
%TO.N,ETH_SPARE_TX_N*%
X118959586Y-96085446D02*
X119997450Y-96085446D01*
X122213462Y-98681458D02*
X122632666Y-98681458D01*
X121644554Y-98112550D02*
X122213462Y-98681458D01*
X118770000Y-95895860D02*
X118959586Y-96085446D01*
X122632666Y-98681458D02*
X123064124Y-98250000D01*
X123064124Y-98250000D02*
X124350000Y-98250000D01*
X121644554Y-97732550D02*
X121644554Y-98112550D01*
X119997450Y-96085446D02*
X121644554Y-97732550D01*
D63*
%TO.N,Net-(D2-K)*%
X97920000Y-102810000D02*
X97920000Y-106840000D01*
X97030000Y-107730000D02*
X96580000Y-107730000D01*
X97920000Y-106840000D02*
X97030000Y-107730000D01*
D65*
%TO.N,+VDD_5V_PERIPH*%
X135919600Y-114790000D02*
X137560000Y-114790000D01*
X64590000Y-127780000D02*
X65260000Y-128450000D01*
X136960000Y-124270000D02*
X138010000Y-124270000D01*
X76410000Y-133520000D02*
X76380000Y-133550000D01*
X66120000Y-130060000D02*
X66840000Y-130060000D01*
X63190000Y-127780000D02*
X64590000Y-127780000D01*
X61780000Y-118610000D02*
X61760000Y-118630000D01*
X65260000Y-129200000D02*
X66120000Y-130060000D01*
X63170000Y-118610000D02*
X61780000Y-118610000D01*
X76410000Y-132211200D02*
X76410000Y-133520000D01*
X65260000Y-128450000D02*
X65260000Y-129200000D01*
X138010000Y-124270000D02*
X138330000Y-123950000D01*
X136590000Y-123900000D02*
X136960000Y-124270000D01*
D63*
%TO.N,BATT_VOLTAGE_SENS_PROT*%
X63170000Y-117360000D02*
X61880000Y-117360000D01*
X61880000Y-117360000D02*
X61860000Y-117380000D01*
%TO.N,BATT_CURRENT_SENS_PROT*%
X63170000Y-116110000D02*
X61780000Y-116110000D01*
D67*
%TO.N,ETH_RADIO_TX_POSTMAG_N*%
X132852750Y-116759800D02*
X133360749Y-117267799D01*
X133360749Y-117267799D02*
X134233501Y-117267799D01*
X134233501Y-117267799D02*
X134370000Y-117131300D01*
%TO.N,ETH_RADIO_TX_POSTMAG_P*%
X134233501Y-117521801D02*
X134370000Y-117658300D01*
X133360749Y-117521801D02*
X134233501Y-117521801D01*
X132852750Y-118029800D02*
X133360749Y-117521801D01*
%TO.N,ETH_RADIO_RX_POSTMAG_N*%
X132979800Y-124379800D02*
X133487800Y-124887800D01*
X133487800Y-124887800D02*
X133967196Y-124887800D01*
X133967196Y-124887800D02*
X134088279Y-124766717D01*
X134088279Y-124766717D02*
X134088279Y-124573677D01*
X132852750Y-124379800D02*
X132979800Y-124379800D01*
%TO.N,ETH_RADIO_RX_POSTMAG_P*%
X134054208Y-125160000D02*
X134267885Y-124946323D01*
X133470000Y-125160000D02*
X134054208Y-125160000D01*
X132852750Y-125649800D02*
X132980200Y-125649800D01*
X134267885Y-124946323D02*
X134460925Y-124946323D01*
X132980200Y-125649800D02*
X133470000Y-125160000D01*
%TO.N,ETH_SPARE_TX_POSTMAG_N*%
X133303499Y-98757999D02*
X134031227Y-98757999D01*
X134031227Y-98757999D02*
X134167726Y-98621500D01*
X132795500Y-98250000D02*
X133303499Y-98757999D01*
%TO.N,ETH_SPARE_TX_POSTMAG_P*%
X133303499Y-99012001D02*
X134031227Y-99012001D01*
X132795500Y-99520000D02*
X133303499Y-99012001D01*
X134031227Y-99012001D02*
X134167726Y-99148500D01*
%TO.N,ETH_SPARE_RX_POSTMAG_N*%
X132795500Y-105870000D02*
X133303499Y-106377999D01*
X133303499Y-106377999D02*
X134063501Y-106377999D01*
X134063501Y-106377999D02*
X134200000Y-106241500D01*
%TO.N,ETH_SPARE_RX_POSTMAG_P*%
X132795500Y-107140000D02*
X133303499Y-106632001D01*
X134063501Y-106632001D02*
X134200000Y-106768500D01*
X133303499Y-106632001D02*
X134063501Y-106632001D01*
D63*
%TO.N,Net-(D3-K)*%
X79640000Y-109310000D02*
X79640000Y-102720000D01*
X79240000Y-109710000D02*
X79640000Y-109310000D01*
X78245300Y-109710000D02*
X79240000Y-109710000D01*
%TO.N,+1V1*%
X112617598Y-102266402D02*
X112617598Y-103407598D01*
X112617598Y-103407598D02*
X112664200Y-103454200D01*
X115316000Y-96068002D02*
X116448798Y-96068002D01*
X109117600Y-103407200D02*
X109139200Y-103428800D01*
X115316000Y-97568001D02*
X116447799Y-97568001D01*
X116447799Y-97568001D02*
X116454400Y-97561400D01*
X108117599Y-92242599D02*
X108102400Y-92227400D01*
X109117600Y-102266402D02*
X109117600Y-103407200D01*
X107617598Y-103481802D02*
X107518200Y-103581200D01*
X107617598Y-102266402D02*
X107617598Y-103481802D01*
X115316000Y-100068002D02*
X116486602Y-100068002D01*
X111117599Y-92260201D02*
X111125000Y-92252800D01*
X111117599Y-93369600D02*
X111117599Y-92260201D01*
X116486602Y-100068002D02*
X116494600Y-100076000D01*
X116448798Y-96068002D02*
X116454000Y-96062800D01*
X108117599Y-93369600D02*
X108117599Y-92242599D01*
%TO.N,Net-(IC1-XO)*%
X116184600Y-91414600D02*
X116184600Y-90987800D01*
X113117600Y-92520800D02*
X113167200Y-92471200D01*
X113842800Y-90805000D02*
X113167200Y-91480600D01*
X113167200Y-92471200D02*
X113167200Y-92024200D01*
X117420400Y-91431400D02*
X116201400Y-91431400D01*
X113167200Y-91480600D02*
X113167200Y-92024200D01*
X116001800Y-90805000D02*
X113842800Y-90805000D01*
X116184600Y-90987800D02*
X116001800Y-90805000D01*
X113117600Y-93369600D02*
X113117600Y-92520800D01*
%TO.N,+5V_FMU*%
X75540398Y-125660398D02*
X75210000Y-125330000D01*
X76073000Y-125660398D02*
X75540398Y-125660398D01*
D64*
X81242000Y-127640000D02*
X82118200Y-127640000D01*
D65*
X76073000Y-126660399D02*
X75350399Y-126660399D01*
D63*
X82148200Y-125984000D02*
X82148200Y-127610000D01*
D65*
X75350000Y-126660000D02*
X74760000Y-126660000D01*
D63*
X82148200Y-127610000D02*
X82118200Y-127640000D01*
D65*
X75350399Y-126660399D02*
X75350000Y-126660000D01*
D64*
X81110000Y-127508000D02*
X81242000Y-127640000D01*
D63*
X79930400Y-127660400D02*
X79970000Y-127700000D01*
X79070200Y-127660400D02*
X79930400Y-127660400D01*
%TO.N,Net-(IC1-XI)*%
X113617599Y-92681201D02*
X113807200Y-92491600D01*
X118770400Y-92481400D02*
X118770400Y-93558400D01*
X118684000Y-93472000D02*
X118821200Y-93609200D01*
X113807200Y-92491600D02*
X113807200Y-92024200D01*
X114630200Y-91592400D02*
X116509800Y-93472000D01*
X113807200Y-91958200D02*
X114173000Y-91592400D01*
X116509800Y-93472000D02*
X118684000Y-93472000D01*
X113617599Y-93369600D02*
X113617599Y-92681201D01*
X114173000Y-91592400D02*
X114630200Y-91592400D01*
D66*
%TO.N,USB_EXT2_SSTX-*%
X100390000Y-128380000D02*
X101041200Y-129031200D01*
X113270000Y-103420000D02*
X113280000Y-103430000D01*
X113117600Y-102266402D02*
X113270000Y-102418802D01*
X113270000Y-102418802D02*
X113270000Y-103420000D01*
X101041200Y-129031200D02*
X101041200Y-129728000D01*
D63*
%TO.N,Net-(J29-Pin_8)*%
X101260000Y-131110000D02*
X101260000Y-132211200D01*
X101041200Y-130891200D02*
X101260000Y-131110000D01*
X101041200Y-130368000D02*
X101041200Y-130891200D01*
%TO.N,Net-(U9-VCC)*%
X70730000Y-119120000D02*
X70730000Y-116840000D01*
X70730000Y-116840000D02*
X69750000Y-115860000D01*
D68*
%TO.N,CAM1_D0_N*%
X104456810Y-86518710D02*
X104456810Y-86486810D01*
X102026200Y-85946200D02*
X102026200Y-84828400D01*
X112454284Y-87445716D02*
X105383816Y-87445716D01*
X105383816Y-87445716D02*
X104456810Y-86518710D01*
X104456810Y-86486810D02*
X104260000Y-86290000D01*
X102390000Y-86310000D02*
X102026200Y-85946200D01*
X104260000Y-86290000D02*
X104240000Y-86310000D01*
X104240000Y-86310000D02*
X102390000Y-86310000D01*
%TO.N,CAM1_D0_P*%
X107630000Y-88109547D02*
X107630000Y-88068297D01*
X105250197Y-87768297D02*
X106730000Y-87768297D01*
X107930000Y-87768297D02*
X111959729Y-87768297D01*
X104323190Y-86841290D02*
X105250197Y-87768297D01*
X104100000Y-86720000D02*
X104221290Y-86841290D01*
X107030000Y-88068297D02*
X107030000Y-88109547D01*
X104221290Y-86841290D02*
X104323190Y-86841290D01*
X111959729Y-87768297D02*
X112045716Y-87854284D01*
X107030003Y-88068297D02*
G75*
G03*
X106730000Y-87768297I-300003J-3D01*
G01*
X107930000Y-87768300D02*
G75*
G03*
X107630000Y-88068297I0J-300000D01*
G01*
X107029953Y-88109547D02*
G75*
G03*
X107330000Y-88409547I300047J47D01*
G01*
X107330000Y-88409500D02*
G75*
G03*
X107630000Y-88109547I0J300000D01*
G01*
%TO.N,CAM1_C_N*%
X108026200Y-84828400D02*
X108026200Y-86196200D01*
X108026200Y-86196200D02*
X108110000Y-86280000D01*
%TO.N,CAM1_C_P*%
X109026200Y-84828400D02*
X109026200Y-86793800D01*
X109026200Y-86793800D02*
X108990000Y-86830000D01*
%TO.N,CAM1_D1_N*%
X105026200Y-85676200D02*
X105510000Y-86160000D01*
%TO.N,CAM1_D1_P*%
X106026200Y-86634768D02*
X106035716Y-86644284D01*
X106026200Y-84828400D02*
X106026200Y-86634768D01*
D63*
%TO.N,GPIO10*%
X64820000Y-103190000D02*
X65376000Y-102634000D01*
X71476000Y-98574000D02*
X72080000Y-97970000D01*
X65376000Y-100614790D02*
X67416790Y-98574000D01*
X65376000Y-102634000D02*
X65376000Y-100614790D01*
X63170000Y-103190000D02*
X64820000Y-103190000D01*
X67416790Y-98574000D02*
X71476000Y-98574000D01*
%TO.N,GPIO12*%
X65122000Y-100509580D02*
X65122000Y-101578000D01*
X65122000Y-101578000D02*
X64760000Y-101940000D01*
X64760000Y-101940000D02*
X63170000Y-101940000D01*
X69460000Y-97990000D02*
X69130000Y-98320000D01*
X69130000Y-98320000D02*
X67311580Y-98320000D01*
X67311580Y-98320000D02*
X65122000Y-100509580D01*
%TO.N,RC_INPUT*%
X63070000Y-92820000D02*
X64950000Y-92820000D01*
X64950000Y-92820000D02*
X64970000Y-92840000D01*
D65*
%TO.N,+VDD_5V_RADIO*%
X63070000Y-91570000D02*
X66500000Y-91570000D01*
D63*
%TO.N,BUZZER_OUT*%
X65590000Y-121190000D02*
X64810000Y-121970000D01*
X66200000Y-117840000D02*
X65620000Y-118420000D01*
X66320000Y-117840000D02*
X66200000Y-117840000D01*
X65590000Y-118450000D02*
X65590000Y-121190000D01*
X65620000Y-118420000D02*
X65590000Y-118450000D01*
%TO.N,TELEM1_TX*%
X75160000Y-133410000D02*
X75180000Y-133430000D01*
X75160000Y-132211200D02*
X75160000Y-133410000D01*
%TO.N,TELEM1_RX*%
X73910000Y-132211200D02*
X73910000Y-133350000D01*
X73910000Y-133350000D02*
X73900000Y-133360000D01*
%TO.N,TELEM1_CTS*%
X72660000Y-133360000D02*
X72680000Y-133380000D01*
X72660000Y-132211200D02*
X72660000Y-133360000D01*
%TO.N,TELEM1_RTS*%
X71410000Y-132211200D02*
X71410000Y-133360000D01*
X71410000Y-133360000D02*
X71390000Y-133380000D01*
D66*
%TO.N,USB_EXT2_SSTX+*%
X113617599Y-102266402D02*
X113550000Y-102334001D01*
X100228400Y-129728000D02*
X100228400Y-129081600D01*
X100228400Y-129081600D02*
X100380000Y-128930000D01*
X113550000Y-103120000D02*
X113840000Y-103410000D01*
X113550000Y-102334001D02*
X113550000Y-103120000D01*
D69*
%TO.N,CAN_2+*%
X136469600Y-125150000D02*
X136939406Y-125619806D01*
X136939406Y-125619806D02*
X137581054Y-125619806D01*
X137581054Y-125619806D02*
X137730000Y-125470860D01*
%TO.N,CAN_2-*%
X137581054Y-125930194D02*
X137730000Y-126079140D01*
X136469600Y-126400000D02*
X136939406Y-125930194D01*
X136939406Y-125930194D02*
X137581054Y-125930194D01*
D63*
%TO.N,FMU_I2C_2_SDA*%
X63190000Y-125280000D02*
X64180000Y-125280000D01*
X64180000Y-125280000D02*
X64780000Y-125880000D01*
%TO.N,FMU_I2C_2_SCL*%
X64690000Y-126530000D02*
X64750000Y-126590000D01*
X63190000Y-126530000D02*
X64690000Y-126530000D01*
%TO.N,Net-(J29-Pin_9)*%
X100228400Y-130368000D02*
X100228400Y-130871600D01*
X100010000Y-131090000D02*
X100010000Y-132211200D01*
X100228400Y-130871600D02*
X100010000Y-131090000D01*
D66*
%TO.N,USB_EXT1_SSTX-*%
X84480400Y-129677200D02*
X84165440Y-129362240D01*
X117184835Y-99316323D02*
X117356323Y-99316323D01*
X84165440Y-128895718D02*
X84254835Y-128806323D01*
X84165440Y-129362240D02*
X84165440Y-128895718D01*
X84254835Y-128806323D02*
X84426323Y-128806323D01*
X117040918Y-99460240D02*
X117184835Y-99316323D01*
X115925601Y-99568000D02*
X116033361Y-99460240D01*
X116033361Y-99460240D02*
X117040918Y-99460240D01*
X115316000Y-99568000D02*
X115925601Y-99568000D01*
D63*
%TO.N,Net-(J24-Pin_8)*%
X84480400Y-130317200D02*
X84480400Y-132201600D01*
D66*
%TO.N,USB_EXT1_SSTX+*%
X83880960Y-128777882D02*
X84053677Y-128605165D01*
X115316000Y-99068001D02*
X115925601Y-99068001D01*
X115925601Y-99068001D02*
X116033361Y-99175761D01*
X116983677Y-99115165D02*
X116983677Y-98943677D01*
X83880960Y-129362240D02*
X83880960Y-128777882D01*
X116033361Y-99175761D02*
X116923081Y-99175761D01*
X116923081Y-99175761D02*
X116983677Y-99115165D01*
X83540600Y-129702600D02*
X83880960Y-129362240D01*
X84053677Y-128605165D02*
X84053677Y-128433677D01*
D63*
%TO.N,Net-(J24-Pin_9)*%
X83540600Y-130342600D02*
X83540600Y-130999400D01*
X83540600Y-130999400D02*
X83240000Y-131300000D01*
X83240000Y-131300000D02*
X83240000Y-132211200D01*
D64*
%TO.N,Net-(J29-Pin_1)*%
X108864400Y-130180000D02*
X109926300Y-130180000D01*
X110010000Y-132211200D02*
X110010000Y-130096300D01*
D65*
%TO.N,Net-(J24-Pin_1)*%
X93218000Y-129946500D02*
X93218000Y-132189200D01*
X94166200Y-130256200D02*
X93856500Y-129946500D01*
X94411800Y-130256200D02*
X94166200Y-130256200D01*
X93856500Y-129946500D02*
X93218000Y-129946500D01*
D63*
%TO.N,CAM1_GPIO*%
X112046000Y-80891300D02*
X112046000Y-82244000D01*
X111026200Y-83263800D02*
X111026200Y-84828400D01*
X112046000Y-82244000D02*
X111026200Y-83263800D01*
X112170000Y-80767300D02*
X112046000Y-80891300D01*
%TO.N,CAM1_MCLK*%
X112300000Y-82640000D02*
X112026200Y-82913800D01*
X112551641Y-81092037D02*
X112300000Y-81343678D01*
X112026200Y-82913800D02*
X112026200Y-84828400D01*
X112300000Y-81343678D02*
X112300000Y-82640000D01*
%TO.N,CAM1_SCL0*%
X113026200Y-83083800D02*
X113026200Y-84828400D01*
X113830000Y-82280000D02*
X113026200Y-83083800D01*
X113830000Y-80940000D02*
X113830000Y-82280000D01*
%TO.N,CAM1_SDA0*%
X114587800Y-82412200D02*
X114026200Y-82973800D01*
X114026200Y-82973800D02*
X114026200Y-84828400D01*
X114587800Y-80515100D02*
X114587800Y-82412200D01*
X114572700Y-80500000D02*
X114587800Y-80515100D01*
D68*
%TO.N,CAM0_D0_N*%
X76372200Y-84828400D02*
X76372200Y-83328399D01*
X76372200Y-83328399D02*
X76710910Y-82989689D01*
X76710910Y-82989689D02*
X76710910Y-82510991D01*
X76710910Y-82510991D02*
X76965716Y-82256185D01*
X76965716Y-82256185D02*
X76965716Y-82075716D01*
%TO.N,CAM0_D0_P*%
X77193815Y-82484284D02*
X77374284Y-82484284D01*
X77033490Y-82644609D02*
X77193815Y-82484284D01*
X77372200Y-84828400D02*
X77372200Y-83328399D01*
X77033490Y-82989689D02*
X77033490Y-82644609D01*
X77372200Y-83328399D02*
X77033490Y-82989689D01*
%TO.N,CAM0_C_N*%
X82895716Y-82116185D02*
X82895716Y-81935716D01*
X82710910Y-82989689D02*
X82710910Y-82300991D01*
X82710910Y-82300991D02*
X82895716Y-82116185D01*
X82372200Y-84828400D02*
X82372200Y-83328399D01*
X82372200Y-83328399D02*
X82710910Y-82989689D01*
%TO.N,CAM0_C_P*%
X83033490Y-82434609D02*
X83123815Y-82344284D01*
X83033490Y-82989689D02*
X83033490Y-82434609D01*
X83123815Y-82344284D02*
X83304284Y-82344284D01*
X83372200Y-84828400D02*
X83372200Y-83328399D01*
X83372200Y-83328399D02*
X83033490Y-82989689D01*
%TO.N,CAM0_D1_N*%
X79710910Y-81820991D02*
X80205716Y-81326185D01*
X79372200Y-83328399D02*
X79710910Y-82989689D01*
X79372200Y-84828400D02*
X79372200Y-83328399D01*
X79710910Y-82989689D02*
X79710910Y-81820991D01*
X80205716Y-81326185D02*
X80205716Y-81145716D01*
%TO.N,CAM0_D1_P*%
X80372200Y-84828400D02*
X80372200Y-83328399D01*
X80433815Y-81554284D02*
X80614284Y-81554284D01*
X80372200Y-83328399D02*
X80033490Y-82989689D01*
X80033490Y-82989689D02*
X80033490Y-81954609D01*
X80033490Y-81954609D02*
X80433815Y-81554284D01*
D63*
%TO.N,CAM0_GPIO*%
X85372200Y-86002200D02*
X85372200Y-84828400D01*
X101640000Y-91900000D02*
X101640000Y-92520000D01*
X101640000Y-92520000D02*
X100160000Y-94000000D01*
X100160000Y-94000000D02*
X93370000Y-94000000D01*
X93370000Y-94000000D02*
X85372200Y-86002200D01*
%TO.N,CAM0_MCLK*%
X99592000Y-93718000D02*
X93447210Y-93718000D01*
X100180000Y-93130000D02*
X99592000Y-93718000D01*
X93447210Y-93718000D02*
X86372200Y-86642990D01*
X86372200Y-86642990D02*
X86372200Y-84828400D01*
%TO.N,CAM0_SCL0*%
X93552420Y-93464000D02*
X87440000Y-87351580D01*
X100200000Y-90700000D02*
X100200000Y-92310000D01*
X87440000Y-87351580D02*
X87440000Y-84896200D01*
X100200000Y-92310000D02*
X99046000Y-93464000D01*
X99046000Y-93464000D02*
X93552420Y-93464000D01*
%TO.N,CAM0_SDA0*%
X98680000Y-93020000D02*
X98490000Y-93210000D01*
X88372200Y-87924570D02*
X88372200Y-84828400D01*
X93657630Y-93210000D02*
X88372200Y-87924570D01*
X98490000Y-93210000D02*
X93657630Y-93210000D01*
%TO.N,Net-(IC1-USB_SSRXM_UP)*%
X112117599Y-93369600D02*
X112117599Y-92862401D01*
X112117599Y-92862401D02*
X112369600Y-92610400D01*
X112369600Y-92610400D02*
X112369600Y-92257800D01*
D66*
%TO.N,USBSS_TX_N*%
X112369600Y-91069600D02*
X112290000Y-90990000D01*
X112369600Y-91617800D02*
X112369600Y-91069600D01*
D63*
%TO.N,Net-(IC1-USB_SSRXP_UP)*%
X111617600Y-93369600D02*
X111617600Y-92832400D01*
X111709200Y-92740800D02*
X111709200Y-92257400D01*
X111617600Y-92832400D02*
X111709200Y-92740800D01*
D66*
%TO.N,USBSS_TX_P*%
X111709200Y-91040800D02*
X111770000Y-90980000D01*
X111709200Y-91617400D02*
X111709200Y-91040800D01*
D64*
%TO.N,VBUS_EXT1*%
X90539100Y-129184400D02*
X92185600Y-129184400D01*
D70*
X97801600Y-114299200D02*
X97801600Y-117498400D01*
X94411800Y-120888200D02*
X94411800Y-128066400D01*
X93628500Y-128371500D02*
X93933600Y-128066400D01*
X97801600Y-117498400D02*
X94411800Y-120888200D01*
X93218000Y-128371500D02*
X93628500Y-128371500D01*
D64*
X92185600Y-129184400D02*
X92998500Y-128371500D01*
D70*
X93933600Y-128066400D02*
X94411800Y-128066400D01*
D64*
%TO.N,VBUS_EXT2*%
X111663600Y-129133600D02*
X111028500Y-128498500D01*
D70*
X108864400Y-128077000D02*
X108864400Y-125314400D01*
X103670000Y-118160000D02*
X99710000Y-118160000D01*
X106970000Y-123420000D02*
X106970000Y-121460000D01*
X98301600Y-116751600D02*
X98301600Y-114299200D01*
X108864400Y-125314400D02*
X106970000Y-123420000D01*
X109317000Y-128077000D02*
X108864400Y-128077000D01*
X99710000Y-118160000D02*
X98301600Y-116751600D01*
X106970000Y-121460000D02*
X103670000Y-118160000D01*
X109738500Y-128498500D02*
X109317000Y-128077000D01*
D64*
X111028500Y-128498500D02*
X110032800Y-128498500D01*
D63*
%TO.N,Net-(IC1-GRSTZ)*%
X107416600Y-92608400D02*
X107416600Y-92227400D01*
X107617598Y-93369600D02*
X107617598Y-92809398D01*
X107617598Y-92809398D02*
X107416600Y-92608400D01*
D66*
%TO.N,USB_CELL_SSTX+*%
X65084999Y-111810800D02*
X64858939Y-111584740D01*
X116473081Y-95175761D02*
X116643677Y-95005165D01*
X116643677Y-95005165D02*
X116643677Y-94833677D01*
X64721260Y-111584740D02*
X64600000Y-111706000D01*
X64858939Y-111584740D02*
X64721260Y-111584740D01*
X115925601Y-95068001D02*
X116033361Y-95175761D01*
X116033361Y-95175761D02*
X116473081Y-95175761D01*
X115316000Y-95068001D02*
X115925601Y-95068001D01*
X65430000Y-111810800D02*
X65084999Y-111810800D01*
D63*
%TO.N,Net-(J30-PETp1{slash}USB3.0-Tx+{slash}SSIC-TxP)*%
X67525000Y-111750000D02*
X66520000Y-111750000D01*
X66459200Y-111810800D02*
X66070000Y-111810800D01*
X66520000Y-111750000D02*
X66459200Y-111810800D01*
D66*
%TO.N,USB_CELL_SSTX-*%
X115316000Y-95568000D02*
X115925601Y-95568000D01*
X116844835Y-95206323D02*
X117016323Y-95206323D01*
X116590918Y-95460240D02*
X116844835Y-95206323D01*
X115925601Y-95568000D02*
X116033361Y-95460240D01*
X64721260Y-111300260D02*
X64600000Y-111179000D01*
X65084999Y-111074200D02*
X64858939Y-111300260D01*
X65430000Y-111074200D02*
X65084999Y-111074200D01*
X116033361Y-95460240D02*
X116590918Y-95460240D01*
X64858939Y-111300260D02*
X64721260Y-111300260D01*
D63*
%TO.N,Net-(J30-PETn1{slash}USB3.0-Tx-{slash}SSIC-TxN)*%
X66590000Y-111250000D02*
X66414200Y-111074200D01*
X66414200Y-111074200D02*
X66070000Y-111074200D01*
X67525000Y-111250000D02*
X66590000Y-111250000D01*
D71*
%TO.N,+3.3V_MODEM*%
X74975000Y-120500000D02*
X75990000Y-120500000D01*
D64*
X77241400Y-103428400D02*
X77241400Y-102504200D01*
X76210000Y-103500000D02*
X76580000Y-103500000D01*
D71*
X77370000Y-112000000D02*
X77750000Y-112000000D01*
X75990000Y-120500000D02*
X76124800Y-120634800D01*
X76350000Y-122860000D02*
X73780000Y-122860000D01*
D64*
X74975000Y-120500000D02*
X74975000Y-121000000D01*
D71*
X77750000Y-112000000D02*
X78155800Y-112405800D01*
D64*
X74975000Y-120000000D02*
X74975000Y-120500000D01*
D71*
X73441600Y-123198400D02*
X73441600Y-123698000D01*
D63*
X66192400Y-128257600D02*
X68326000Y-126124000D01*
D64*
X76651600Y-103428400D02*
X77241400Y-103428400D01*
D63*
X66192400Y-128295800D02*
X66192400Y-128257600D01*
D71*
X76124800Y-120634800D02*
X76657200Y-120634800D01*
D64*
X76210000Y-103500000D02*
X76210000Y-108500000D01*
D71*
X73780000Y-122860000D02*
X73441600Y-123198400D01*
D64*
X74975000Y-108500000D02*
X76210000Y-108500000D01*
D71*
X78155800Y-121054200D02*
X76350000Y-122860000D01*
X76657200Y-120634800D02*
X77820600Y-120634800D01*
D64*
X74975000Y-112000000D02*
X77370000Y-112000000D01*
X74975000Y-103500000D02*
X76210000Y-103500000D01*
X76210000Y-108500000D02*
X77717600Y-108500000D01*
X74975000Y-119500000D02*
X74975000Y-120000000D01*
X77370000Y-108847600D02*
X77734200Y-108483400D01*
D71*
X78155800Y-112405800D02*
X78155800Y-120970000D01*
D63*
X68326000Y-126124000D02*
X68326000Y-125220600D01*
D64*
X76580000Y-103500000D02*
X76651600Y-103428400D01*
X74975000Y-103500000D02*
X74975000Y-103000000D01*
X77370000Y-112000000D02*
X77370000Y-108847600D01*
D63*
%TO.N,+SIM_VCC*%
X127653400Y-93946400D02*
X128077000Y-93522800D01*
X127650000Y-95500000D02*
X127653400Y-95496600D01*
X74975000Y-111500000D02*
X76280000Y-111500000D01*
X76280000Y-111500000D02*
X76300000Y-111520000D01*
X127653400Y-95496600D02*
X127653400Y-94703800D01*
X127653400Y-94703800D02*
X127653400Y-93946400D01*
X127650000Y-96140000D02*
X127650000Y-95500000D01*
%TO.N,Net-(U12-AV)*%
X81096000Y-125984000D02*
X81508200Y-125984000D01*
X79070200Y-126660399D02*
X80419601Y-126660399D01*
X81508200Y-125984000D02*
X81508200Y-125197400D01*
X80419601Y-126660399D02*
X81096000Y-125984000D01*
%TO.N,Net-(U12-OUT)*%
X74081600Y-123698000D02*
X74635400Y-123698000D01*
X74081200Y-125181200D02*
X74081200Y-124409200D01*
X74081600Y-123698000D02*
X74081600Y-124408800D01*
X74635400Y-123698000D02*
X74889400Y-123952000D01*
X76073000Y-126160400D02*
X75060400Y-126160400D01*
X75060400Y-126160400D02*
X74081200Y-125181200D01*
%TO.N,Net-(D12-K)*%
X74975000Y-105000000D02*
X71750000Y-105000000D01*
X71750000Y-105000000D02*
X70500000Y-103750000D01*
X70500000Y-103750000D02*
X70500000Y-99913300D01*
%TO.N,Net-(D12-A)*%
X72979600Y-99669600D02*
X75270000Y-101960000D01*
X75270000Y-101960000D02*
X77145600Y-101960000D01*
X71831300Y-99669600D02*
X72979600Y-99669600D01*
%TO.N,Net-(D13-K)*%
X66192400Y-126720800D02*
X66192400Y-125552600D01*
X66192400Y-125552600D02*
X66217800Y-125527200D01*
D66*
%TO.N,USB_CELL_D+*%
X114180000Y-94260000D02*
X114398842Y-94260000D01*
X68257760Y-104357760D02*
X68588740Y-104357760D01*
X114928840Y-94175761D02*
X115036600Y-94068001D01*
X114398842Y-94260000D02*
X114483081Y-94175761D01*
X68588740Y-104357760D02*
X68710000Y-104236500D01*
X68150000Y-104250000D02*
X68257760Y-104357760D01*
X114483081Y-94175761D02*
X114928840Y-94175761D01*
%TO.N,USB_CELL_D-*%
X68257760Y-104642240D02*
X68588740Y-104642240D01*
X68150000Y-104750000D02*
X68257760Y-104642240D01*
X68588740Y-104642240D02*
X68710000Y-104763500D01*
X114928840Y-94460240D02*
X114600918Y-94460240D01*
X115036600Y-94568000D02*
X114928840Y-94460240D01*
X114526323Y-94534835D02*
X114526323Y-94706323D01*
X114600918Y-94460240D02*
X114526323Y-94534835D01*
%TO.N,USB_CELL_SSRX+*%
X115208240Y-96675761D02*
X114591260Y-96675761D01*
X68618740Y-110142240D02*
X68740000Y-110263500D01*
X115316000Y-96568001D02*
X115208240Y-96675761D01*
X68150000Y-110250000D02*
X68257760Y-110142240D01*
X114591260Y-96675761D02*
X114470000Y-96554501D01*
X68257760Y-110142240D02*
X68618740Y-110142240D01*
%TO.N,USB_CELL_SSRX-*%
X114591260Y-96960241D02*
X114470000Y-97081501D01*
X115208240Y-96960241D02*
X114591260Y-96960241D01*
X69410000Y-110310000D02*
X68957760Y-109857760D01*
X68257760Y-109857760D02*
X68150000Y-109750000D01*
X68957760Y-109857760D02*
X68257760Y-109857760D01*
X115316000Y-97068000D02*
X115208240Y-96960241D01*
%TO.N,USB_EXT1_D+*%
X91222760Y-131728440D02*
X91222760Y-131311260D01*
X115208239Y-98175762D02*
X114611260Y-98175762D01*
X91222760Y-131311260D02*
X91101500Y-131190000D01*
X114611260Y-98175762D02*
X114490000Y-98054502D01*
X115316000Y-98068001D02*
X115208239Y-98175762D01*
X90740000Y-132211200D02*
X91222760Y-131728440D01*
%TO.N,USB_EXT1_D-*%
X91507240Y-131728440D02*
X91507240Y-131311260D01*
X114611260Y-98460242D02*
X114490000Y-98581502D01*
X91507240Y-131311260D02*
X91628500Y-131190000D01*
X115316000Y-98568002D02*
X115208239Y-98460242D01*
X91990000Y-132211200D02*
X91507240Y-131728440D01*
X115208239Y-98460242D02*
X114611260Y-98460242D01*
%TO.N,USB_EXT1_SSRX+*%
X87472760Y-131011260D02*
X87351500Y-130890000D01*
X114581260Y-100675762D02*
X114460000Y-100554502D01*
X86990000Y-131661200D02*
X87472760Y-131178440D01*
X87472760Y-131178440D02*
X87472760Y-131011260D01*
X115208239Y-100675762D02*
X114581260Y-100675762D01*
X115316000Y-100568001D02*
X115208239Y-100675762D01*
%TO.N,USB_EXT1_SSRX-*%
X114581260Y-100960242D02*
X114460000Y-101081502D01*
X115208239Y-100960242D02*
X114581260Y-100960242D01*
X115316000Y-101068002D02*
X115208239Y-100960242D01*
X88240000Y-131661200D02*
X87757240Y-131178440D01*
X87757240Y-131178440D02*
X87757240Y-131011260D01*
X87757240Y-131011260D02*
X87878500Y-130890000D01*
%TO.N,USB_EXT2_D+*%
X114509839Y-102653562D02*
X114509839Y-102788681D01*
X114509839Y-102788681D02*
X114964835Y-103243677D01*
X107992760Y-130861260D02*
X107871500Y-130740000D01*
X114964835Y-103243677D02*
X115136323Y-103243677D01*
X107510000Y-131661200D02*
X107992760Y-131178440D01*
X107992760Y-131178440D02*
X107992760Y-130861260D01*
X114617599Y-102545802D02*
X114509839Y-102653562D01*
%TO.N,USB_EXT2_D-*%
X114117600Y-102545802D02*
X114225360Y-102653562D01*
X108277240Y-130597240D02*
X108277240Y-131178440D01*
X114763677Y-103444835D02*
X114763677Y-103616323D01*
X114225360Y-102906518D02*
X114763677Y-103444835D01*
X108277240Y-131178440D02*
X108760000Y-131661200D01*
X107850000Y-130170000D02*
X108277240Y-130597240D01*
X114225360Y-102653562D02*
X114225360Y-102906518D01*
%TO.N,USB_EXT2_SSRX+*%
X112150000Y-101440000D02*
X112010000Y-101580000D01*
X103760000Y-131661200D02*
X104242760Y-131178440D01*
X104242760Y-131178440D02*
X104242760Y-130871260D01*
X112010000Y-102158803D02*
X112117599Y-102266402D01*
X112010000Y-101580000D02*
X112010000Y-102158803D01*
X104242760Y-130871260D02*
X104121500Y-130750000D01*
%TO.N,USB_EXT2_SSRX-*%
X104527240Y-130871260D02*
X104648500Y-130750000D01*
X111700000Y-101500000D02*
X111700000Y-102184002D01*
X111700000Y-102184002D02*
X111617600Y-102266402D01*
X105010000Y-131661200D02*
X104527240Y-131178440D01*
X111630000Y-101430000D02*
X111700000Y-101500000D01*
X104527240Y-131178440D02*
X104527240Y-130871260D01*
D63*
%TO.N,PWRCTRL3*%
X99690000Y-110360000D02*
X102060000Y-110360000D01*
X99301600Y-110748400D02*
X99690000Y-110360000D01*
X103880000Y-104107199D02*
X106419198Y-101568001D01*
X103880000Y-108540000D02*
X103880000Y-104107199D01*
X102060000Y-110360000D02*
X103880000Y-108540000D01*
X99301600Y-111349200D02*
X99301600Y-110748400D01*
%TO.N,PWRCTRL2*%
X98801600Y-110558400D02*
X99610000Y-109750000D01*
X98801600Y-111349200D02*
X98801600Y-110558400D01*
X106419198Y-100568001D02*
X105028001Y-100568001D01*
X104800000Y-100340000D02*
X104790000Y-100330000D01*
X99610000Y-109750000D02*
X101720000Y-109750000D01*
X105028001Y-100568001D02*
X104800000Y-100340000D01*
X104790000Y-100330000D02*
X102100000Y-100330000D01*
%TO.N,PWRCTRL1*%
X104867798Y-99917798D02*
X105018002Y-100068002D01*
X100507800Y-99917798D02*
X104867798Y-99917798D01*
X105018002Y-100068002D02*
X106419198Y-100068002D01*
%TO.N,Net-(IC1-FULLPWRMGMTZ{slash}SMBA1{slash}SS_UP)*%
X106419198Y-98068001D02*
X105045599Y-98068001D01*
%TO.N,+3V3*%
X106419198Y-101068002D02*
X104964398Y-101068002D01*
X102065000Y-97000000D02*
X103329800Y-97000000D01*
X108617598Y-93369600D02*
X108617598Y-92804402D01*
X103329800Y-97000000D02*
X103378000Y-96951800D01*
X115316000Y-101568001D02*
X116465599Y-101568001D01*
X108617598Y-92804402D02*
X108762800Y-92659200D01*
X114117600Y-93369600D02*
X114117600Y-92653600D01*
X116465599Y-101568001D02*
X116484400Y-101549200D01*
X114117600Y-92653600D02*
X114528600Y-92242600D01*
X104964398Y-101068002D02*
X104889600Y-101142800D01*
X108762800Y-92659200D02*
X108770000Y-92220000D01*
%TO.N,OVERCUR3*%
X105760398Y-96068002D02*
X105516200Y-96312200D01*
X101430800Y-114299200D02*
X102330000Y-113400000D01*
X106419198Y-96068002D02*
X105760398Y-96068002D01*
X105516200Y-96312200D02*
X103378000Y-96312200D01*
X99301600Y-114299200D02*
X101430800Y-114299200D01*
%TO.N,Net-(IC1-AUTOENZ{slash}HS_SUSPEND)*%
X106419198Y-95568000D02*
X105208800Y-95568000D01*
%TO.N,OVERCUR1*%
X101425000Y-97000000D02*
X100507800Y-97000000D01*
X100507800Y-97000000D02*
X100507800Y-97967800D01*
X100507800Y-96742200D02*
X100507800Y-97000000D01*
X102181999Y-95068001D02*
X100507800Y-96742200D01*
X106419198Y-95068001D02*
X102181999Y-95068001D01*
%TO.N,OVERCUR2*%
X97301600Y-116538400D02*
X97290000Y-116550000D01*
X106419198Y-94568000D02*
X105660200Y-94568000D01*
X97301600Y-114299200D02*
X97301600Y-116538400D01*
X105660200Y-94568000D02*
X105562400Y-94665800D01*
X105562400Y-94665800D02*
X105537000Y-94640400D01*
X105537000Y-94640400D02*
X104104400Y-94640400D01*
D69*
%TO.N,CAN_1+*%
X136469600Y-116040000D02*
X136939406Y-116509806D01*
X137231054Y-116509806D02*
X137380000Y-116360860D01*
X136939406Y-116509806D02*
X137231054Y-116509806D01*
%TO.N,CAN_1-*%
X137231054Y-116820194D02*
X137380000Y-116969140D01*
X136939406Y-116820194D02*
X137231054Y-116820194D01*
X136469600Y-117290000D02*
X136939406Y-116820194D01*
D63*
%TO.N,Net-(IC1-USB_VBUS)*%
X106419198Y-94068001D02*
X105144599Y-94068001D01*
X105131000Y-94081600D02*
X105131000Y-93196800D01*
%TO.N,Net-(IC1-TEST)*%
X107117599Y-93045999D02*
X106680000Y-92608400D01*
X106680000Y-92608400D02*
X106680000Y-92217200D01*
D66*
%TO.N,JETSON_USB1_D_P*%
X109225360Y-93261840D02*
X109225360Y-91021260D01*
X109225360Y-91021260D02*
X109104100Y-90900000D01*
X109117600Y-93369600D02*
X109225360Y-93261840D01*
%TO.N,JETSON_USB1_D_N*%
X109617599Y-93369600D02*
X109509840Y-93261840D01*
X109509840Y-93261840D02*
X109509840Y-91021260D01*
X109509840Y-91021260D02*
X109631100Y-90900000D01*
%TO.N,USBSS_RX_P*%
X110117598Y-93369600D02*
X110225359Y-93261839D01*
X110225359Y-93261839D02*
X110225359Y-91251260D01*
X110225359Y-91251260D02*
X110104099Y-91130000D01*
%TO.N,USBSS_RX_N*%
X110509839Y-91251260D02*
X110631099Y-91130000D01*
X110617599Y-93369600D02*
X110509839Y-93261839D01*
X110509839Y-93261839D02*
X110509839Y-91251260D01*
D63*
%TO.N,Net-(IC1-USB_R1)*%
X114617599Y-93369600D02*
X115123800Y-93369600D01*
X115123800Y-93369600D02*
X115351600Y-93141800D01*
%TO.N,PORT_VBUS_JETSON*%
X103780000Y-93469350D02*
X103780000Y-94020000D01*
X103841600Y-94081600D02*
X104491000Y-94081600D01*
X103780000Y-94020000D02*
X103841600Y-94081600D01*
%TO.N,GPIO02*%
X65130000Y-104960000D02*
X63690000Y-104960000D01*
X67500000Y-98870000D02*
X65630000Y-100740000D01*
X65630000Y-104460000D02*
X65130000Y-104960000D01*
X63690000Y-104960000D02*
X63170000Y-104440000D01*
X72790000Y-97870000D02*
X71790000Y-98870000D01*
X72830000Y-97870000D02*
X72790000Y-97870000D01*
X71790000Y-98870000D02*
X67500000Y-98870000D01*
X65630000Y-100740000D02*
X65630000Y-104460000D01*
%TO.N,BATT2_CURRENT_SENS_PROT*%
X63170000Y-113610000D02*
X61800000Y-113610000D01*
%TO.N,BATT2_VOLTAGE_SENS_PROT*%
X61910000Y-114860000D02*
X61730000Y-114680000D01*
X63170000Y-114860000D02*
X61910000Y-114860000D01*
%TO.N,SPARE1_ADC1*%
X91320000Y-116060000D02*
X91320000Y-115150000D01*
X91930000Y-116060000D02*
X91320000Y-116060000D01*
X93065744Y-117871709D02*
X93065744Y-117195744D01*
X93065744Y-117195744D02*
X91930000Y-116060000D01*
%TO.N,SPARE2_ADC1*%
X94640000Y-115160000D02*
X94630000Y-115150000D01*
X97090000Y-117080000D02*
X97100000Y-117090000D01*
X94640000Y-116060000D02*
X95410000Y-116060000D01*
X95410000Y-116060000D02*
X96440000Y-117090000D01*
X94640000Y-116060000D02*
X94640000Y-115160000D01*
X96440000Y-117090000D02*
X97100000Y-117090000D01*
%TO.N,Net-(J30-~{FULL_CARD_POWER_OFF})*%
X72990000Y-104000000D02*
X72880000Y-103890000D01*
X78020000Y-102019931D02*
X78020000Y-103760000D01*
X76510000Y-101360000D02*
X77360069Y-101360000D01*
X78020000Y-103760000D02*
X77711600Y-104068400D01*
X74975000Y-104000000D02*
X72990000Y-104000000D01*
X77711600Y-104068400D02*
X77241400Y-104068400D01*
X77360069Y-101360000D02*
X78020000Y-102019931D01*
D64*
%TO.N,PCIE_DIS*%
X74975000Y-107500000D02*
X74020000Y-107500000D01*
D63*
X77708800Y-107618800D02*
X77708800Y-107416600D01*
X78374200Y-108284200D02*
X77708800Y-107618800D01*
X78374200Y-108483400D02*
X78374200Y-108284200D01*
X78374200Y-108734200D02*
X78870000Y-109230000D01*
X78374200Y-108483400D02*
X78374200Y-108734200D01*
D64*
X74020000Y-107500000D02*
X74000000Y-107520000D01*
D63*
%TO.N,VBUS_CELL*%
X73090000Y-108000000D02*
X74690000Y-108000000D01*
X73090000Y-108000000D02*
X71810000Y-106720000D01*
X99000000Y-96690000D02*
X98950000Y-96640000D01*
X99207800Y-97667800D02*
X99000000Y-97460000D01*
X99207800Y-97967800D02*
X99207800Y-97667800D01*
X99000000Y-97460000D02*
X99000000Y-96690000D01*
%TO.N,SIM_CLK*%
X122573400Y-94476600D02*
X123490000Y-93560000D01*
X74975000Y-110500000D02*
X76140000Y-110500000D01*
X76140000Y-110500000D02*
X76200000Y-110440000D01*
%TO.N,SIM_DATA*%
X76290000Y-111000000D02*
X76850000Y-110440000D01*
X74975000Y-111000000D02*
X76290000Y-111000000D01*
%TO.N,SIM_DETECT*%
X76230000Y-119000000D02*
X76280000Y-119050000D01*
X74975000Y-119000000D02*
X76230000Y-119000000D01*
D64*
%TO.N,Net-(U12-LX)*%
X75200000Y-127480000D02*
X73721424Y-127480000D01*
X76073000Y-127160398D02*
X75519602Y-127160398D01*
X75519602Y-127160398D02*
X75200000Y-127480000D01*
X73721424Y-127480000D02*
X73190624Y-126949200D01*
D63*
%TO.N,Net-(U1-RXCT)*%
X132852750Y-119772750D02*
X133425200Y-120345200D01*
X132852750Y-123109800D02*
X132852750Y-120917650D01*
X132852750Y-119299800D02*
X132852750Y-119772750D01*
X133425200Y-120345200D02*
X134112000Y-120345200D01*
X132852750Y-120917650D02*
X133425200Y-120345200D01*
%TO.N,Net-(U2-RXCT)*%
X132795500Y-101780000D02*
X132795500Y-100790000D01*
X132795500Y-101780000D02*
X134342200Y-101780000D01*
X132795500Y-104600000D02*
X132795500Y-101780000D01*
%TO.N,Net-(U10-ILM)*%
X98801600Y-115021600D02*
X98801600Y-114299200D01*
X99030000Y-115250000D02*
X98801600Y-115021600D01*
X99030000Y-115500000D02*
X99030000Y-115250000D01*
%TO.N,Net-(U11-ILM)*%
X99857801Y-97967800D02*
X99857801Y-97195399D01*
%TO.N,RS232_TXD*%
X129910000Y-130540000D02*
X129870000Y-130500000D01*
X129910000Y-132190000D02*
X129910000Y-130540000D01*
%TO.N,RS232_RXD*%
X128660000Y-130640000D02*
X128750000Y-130550000D01*
X128660000Y-132190000D02*
X128660000Y-130640000D01*
D65*
%TO.N,+5V_PROT_INS*%
X131180000Y-133170000D02*
X131180000Y-132210000D01*
X118680000Y-133420000D02*
X118860000Y-133600000D01*
X130750000Y-133600000D02*
X131180000Y-133170000D01*
X118860000Y-133600000D02*
X130750000Y-133600000D01*
D63*
%TO.N,Net-(J13-Pin_6)*%
X61810000Y-112540000D02*
X61990000Y-112360000D01*
X91320000Y-117188700D02*
X91980000Y-117848700D01*
X61990000Y-112360000D02*
X63170000Y-112360000D01*
X91320000Y-117080000D02*
X91320000Y-117188700D01*
%TO.N,Net-(J13-Pin_7)*%
X95873592Y-117553592D02*
X95400000Y-117080000D01*
X95873592Y-117560000D02*
X95873592Y-117553592D01*
X95400000Y-117080000D02*
X94640000Y-117080000D01*
X63170000Y-111110000D02*
X61900000Y-111110000D01*
X61900000Y-111110000D02*
X61840000Y-111170000D01*
%TD*%
%TA.AperFunction,Conductor*%
%TO.N,/MainPower/PWR_IN*%
G36*
X84924321Y-88908402D02*
G01*
X84970814Y-88962058D01*
X84982200Y-89014400D01*
X84982200Y-93442400D01*
X84962198Y-93510521D01*
X84908542Y-93557014D01*
X84856200Y-93568400D01*
X78460600Y-93568400D01*
X76712199Y-94640399D01*
X76712200Y-94640400D01*
X74072081Y-96220516D01*
X74007374Y-96238400D01*
X69108200Y-96238400D01*
X69040079Y-96218398D01*
X68993586Y-96164742D01*
X68982200Y-96112400D01*
X68982200Y-91394400D01*
X69002202Y-91326279D01*
X69055858Y-91279786D01*
X69108200Y-91268400D01*
X79502199Y-91268400D01*
X79502200Y-91268400D01*
X80192200Y-90728400D01*
X80192200Y-89014400D01*
X80212202Y-88946279D01*
X80265858Y-88899786D01*
X80318200Y-88888400D01*
X84856200Y-88888400D01*
X84924321Y-88908402D01*
G37*
%TD.AperFunction*%
%TD*%
%TA.AperFunction,Conductor*%
%TO.N,GND*%
G36*
X120033039Y-104250485D02*
G01*
X120078794Y-104303289D01*
X120090000Y-104354800D01*
X120090000Y-119891000D01*
X120070315Y-119958039D01*
X120017511Y-120003794D01*
X119966000Y-120015000D01*
X107214000Y-120015000D01*
X107146961Y-119995315D01*
X107101206Y-119942511D01*
X107090000Y-119891000D01*
X107090000Y-104354800D01*
X107109685Y-104287761D01*
X107162489Y-104242006D01*
X107214000Y-104230800D01*
X119966000Y-104230800D01*
X120033039Y-104250485D01*
G37*
%TD.AperFunction*%
%TD*%
%TA.AperFunction,Conductor*%
%TO.N,+3.3V_MODEM*%
G36*
X73598427Y-123389685D02*
G01*
X73644182Y-123442489D01*
X73654126Y-123511647D01*
X73651039Y-123526550D01*
X73650847Y-123527255D01*
X73647900Y-123552653D01*
X73647900Y-123843337D01*
X73647902Y-123843360D01*
X73650845Y-123868734D01*
X73650846Y-123868737D01*
X73696707Y-123972604D01*
X73703202Y-123982085D01*
X73699967Y-123984300D01*
X73723306Y-124027041D01*
X73718322Y-124096733D01*
X73700919Y-124123820D01*
X73702804Y-124125111D01*
X73696309Y-124134593D01*
X73650446Y-124238460D01*
X73650446Y-124238462D01*
X73647500Y-124263853D01*
X73647500Y-124554537D01*
X73647502Y-124554560D01*
X73650445Y-124579934D01*
X73650446Y-124579937D01*
X73696307Y-124683804D01*
X73723570Y-124711067D01*
X73757055Y-124772390D01*
X73752071Y-124842082D01*
X73723570Y-124886429D01*
X72556319Y-126053681D01*
X72494996Y-126087166D01*
X72468638Y-126090000D01*
X72009999Y-126090000D01*
X71970000Y-126129999D01*
X71970000Y-127396000D01*
X71950315Y-127463039D01*
X71897511Y-127508794D01*
X71846000Y-127520000D01*
X69861362Y-127520000D01*
X69794323Y-127500315D01*
X69773681Y-127483681D01*
X69090000Y-126800000D01*
X67384000Y-126800000D01*
X67316961Y-126780315D01*
X67271206Y-126727511D01*
X67260000Y-126676000D01*
X67260000Y-124221361D01*
X67279685Y-124154322D01*
X67296314Y-124133685D01*
X67651284Y-123778715D01*
X67712605Y-123745232D01*
X67782297Y-123750216D01*
X67838230Y-123792088D01*
X67862647Y-123857552D01*
X67861437Y-123885795D01*
X67851269Y-123949997D01*
X67851268Y-123950002D01*
X67871271Y-124076302D01*
X67929328Y-124190245D01*
X67929333Y-124190252D01*
X68019747Y-124280666D01*
X68019750Y-124280668D01*
X68019753Y-124280671D01*
X68133695Y-124338727D01*
X68133697Y-124338728D01*
X68259998Y-124358732D01*
X68260000Y-124358732D01*
X68260002Y-124358732D01*
X68386302Y-124338728D01*
X68386303Y-124338727D01*
X68386305Y-124338727D01*
X68500247Y-124280671D01*
X68590671Y-124190247D01*
X68648727Y-124076305D01*
X68648727Y-124076303D01*
X68648728Y-124076302D01*
X68668732Y-123950002D01*
X68668732Y-123949997D01*
X68648728Y-123823697D01*
X68619615Y-123766559D01*
X68606100Y-123710265D01*
X68606100Y-123494000D01*
X68625785Y-123426961D01*
X68678589Y-123381206D01*
X68730100Y-123370000D01*
X73531388Y-123370000D01*
X73598427Y-123389685D01*
G37*
%TD.AperFunction*%
%TD*%
M02*
