%TF.GenerationSoftware,KiCad,Pcbnew,7.0.10*%
%TF.CreationDate,2024-02-09T12:16:23-05:00*%
%TF.ProjectId,pixc4-jetson-universal-carrier,70697863-342d-46a6-9574-736f6e2d756e,rev?*%
%TF.SameCoordinates,Original*%
%TF.FileFunction,Copper,L8,Inr*%
%TF.FilePolarity,Positive*%
%FSLAX46Y46*%
G04 Gerber Fmt 4.6, Leading zero omitted, Abs format (unit mm)*
G04 Created by KiCad (PCBNEW 7.0.10) date 2024-02-09 12:16:23*
%MOMM*%
%LPD*%
G01*
G04 APERTURE LIST*
%TA.AperFunction,ComponentPad*%
%ADD10C,0.499999*%
%TD*%
%TA.AperFunction,ComponentPad*%
%ADD11C,1.400000*%
%TD*%
%TA.AperFunction,ComponentPad*%
%ADD12R,3.500000X3.500000*%
%TD*%
%TA.AperFunction,ComponentPad*%
%ADD13C,3.500000*%
%TD*%
%TA.AperFunction,ComponentPad*%
%ADD14C,0.800000*%
%TD*%
%TA.AperFunction,ComponentPad*%
%ADD15C,5.400000*%
%TD*%
%TA.AperFunction,ComponentPad*%
%ADD16C,1.600000*%
%TD*%
%TA.AperFunction,ComponentPad*%
%ADD17C,0.600000*%
%TD*%
%TA.AperFunction,ComponentPad*%
%ADD18C,3.900000*%
%TD*%
%TA.AperFunction,ViaPad*%
%ADD19C,0.400000*%
%TD*%
%TA.AperFunction,ViaPad*%
%ADD20C,0.500000*%
%TD*%
%TA.AperFunction,ViaPad*%
%ADD21C,0.600000*%
%TD*%
%TA.AperFunction,Conductor*%
%ADD22C,0.144780*%
%TD*%
%TA.AperFunction,Conductor*%
%ADD23C,0.152400*%
%TD*%
%TA.AperFunction,Conductor*%
%ADD24C,0.254000*%
%TD*%
%TA.AperFunction,Conductor*%
%ADD25C,0.102108*%
%TD*%
%TA.AperFunction,Conductor*%
%ADD26C,0.157480*%
%TD*%
%TA.AperFunction,Conductor*%
%ADD27C,0.129540*%
%TD*%
%TA.AperFunction,Conductor*%
%ADD28C,0.457200*%
%TD*%
G04 APERTURE END LIST*
D10*
%TO.N,GND*%
%TO.C,U14*%
X93459999Y-100730000D03*
X92360001Y-100730000D03*
%TD*%
D11*
%TO.N,*%
%TO.C,J27*%
X61310700Y-97173560D03*
X61310700Y-86173560D03*
D12*
%TO.N,GND*%
X71310700Y-89173560D03*
D13*
%TO.N,/MainPower/PWR_IN*%
X71310700Y-94173560D03*
%TD*%
D14*
%TO.N,GND*%
%TO.C,J1*%
X59475000Y-81750000D03*
X60068109Y-80318109D03*
X60068109Y-83181891D03*
X61500000Y-79725000D03*
D15*
X61500000Y-81750000D03*
D14*
X61500000Y-83775000D03*
X62931891Y-80318109D03*
X62931891Y-83181891D03*
X63525000Y-81750000D03*
%TD*%
%TO.N,GND*%
%TO.C,J2*%
X59475000Y-133750000D03*
X60068109Y-132318109D03*
X60068109Y-135181891D03*
X61500000Y-131725000D03*
D15*
X61500000Y-133750000D03*
D14*
X61500000Y-135775000D03*
X62931891Y-132318109D03*
X62931891Y-135181891D03*
X63525000Y-133750000D03*
%TD*%
%TO.N,GND*%
%TO.C,J3*%
X135475000Y-81750000D03*
X136068109Y-80318109D03*
X136068109Y-83181891D03*
X137500000Y-79725000D03*
D15*
X137500000Y-81750000D03*
D14*
X137500000Y-83775000D03*
X138931891Y-80318109D03*
X138931891Y-83181891D03*
X139525000Y-81750000D03*
%TD*%
%TO.N,GND*%
%TO.C,J4*%
X135475000Y-133750000D03*
X136068109Y-132318109D03*
X136068109Y-135181891D03*
X137500000Y-131725000D03*
D15*
X137500000Y-133750000D03*
D14*
X137500000Y-135775000D03*
X138931891Y-132318109D03*
X138931891Y-135181891D03*
X139525000Y-133750000D03*
%TD*%
D16*
%TO.N,+5V*%
%TO.C,J5*%
X95750000Y-88625000D03*
X120250000Y-88625000D03*
%TO.N,GND*%
X95750000Y-83875000D03*
X120250000Y-83875000D03*
%TD*%
%TO.N,+5V*%
%TO.C,J6*%
X95750000Y-131625000D03*
X120250000Y-131625000D03*
%TO.N,GND*%
X95750000Y-126875000D03*
X120250000Y-126875000D03*
%TD*%
D17*
%TO.N,GND*%
%TO.C,U6*%
X88900800Y-121406200D03*
X88900800Y-123126200D03*
X89380800Y-122266200D03*
X89860800Y-121406200D03*
X89860800Y-123126200D03*
%TD*%
%TO.N,GND*%
%TO.C,U10*%
X99161600Y-112344200D03*
X97441600Y-112344200D03*
X98301600Y-112824200D03*
X99161600Y-113304200D03*
X97441600Y-113304200D03*
%TD*%
D18*
%TO.N,GND*%
%TO.C,SP1*%
X123000000Y-112000000D03*
%TD*%
D19*
%TO.N,GND*%
X81280000Y-81970000D03*
X79910000Y-81120000D03*
%TO.N,CAM0_GPIO*%
X81180000Y-87440000D03*
X80630000Y-81790000D03*
%TO.N,CAM0_MCLK*%
X80030000Y-81720000D03*
X80620000Y-87510000D03*
%TO.N,CAM0_SCL0*%
X95260000Y-90820000D03*
X100200000Y-90700000D03*
X78910000Y-81550000D03*
%TO.N,CAM0_SDA0*%
X78600000Y-82020000D03*
%TO.N,CAM0_D1_N*%
X86557310Y-84170000D03*
%TO.N,CAM0_D1_P*%
X86022690Y-84170000D03*
%TO.N,CAM0_D3_N*%
X82040000Y-85660000D03*
%TO.N,CAM0_D3_P*%
X82540000Y-86080000D03*
%TO.N,CAM0_D2_N*%
X83199298Y-85718200D03*
%TO.N,CAM0_D2_P*%
X83180000Y-85170000D03*
%TO.N,CAM0_C_N*%
X85429017Y-85010983D03*
%TO.N,CAM0_C_P*%
X85050983Y-85389017D03*
%TO.N,GND*%
X89020000Y-84300000D03*
%TO.N,CAM0_D0_P*%
X87620000Y-84210000D03*
%TO.N,CAM0_D0_N*%
X88200000Y-84170000D03*
%TO.N,GND*%
X76350000Y-85220000D03*
%TO.N,+3V3_MIPI*%
X90085000Y-87815000D03*
X89235000Y-86965000D03*
%TO.N,GND*%
X86800000Y-130910000D03*
X118643400Y-80822800D03*
X127630000Y-109890000D03*
D20*
X110093600Y-115900000D03*
D19*
X118000000Y-129240000D03*
X99910000Y-124320000D03*
X92700000Y-95800000D03*
X82670000Y-81930000D03*
X118668800Y-101193600D03*
X92120000Y-129990000D03*
D20*
X108772800Y-106984800D03*
D19*
X78650000Y-130750000D03*
X132980000Y-107910000D03*
D20*
X107496771Y-105674800D03*
D19*
X130110000Y-91710000D03*
X113250000Y-90680000D03*
X97180000Y-110690000D03*
D20*
X119352800Y-110730000D03*
X107492800Y-109434000D03*
X114054284Y-113250000D03*
D19*
X104930000Y-130230000D03*
X69090000Y-109390000D03*
X70530000Y-130740000D03*
X87570000Y-101850000D03*
D20*
X114047084Y-112050000D03*
X107492800Y-106984800D03*
X118006771Y-105674800D03*
X111409942Y-106984800D03*
X115372855Y-113250000D03*
D19*
X81186305Y-86045166D03*
D20*
X116686455Y-114560000D03*
D19*
X114210500Y-86131400D03*
X114450000Y-99990000D03*
X65960000Y-97970000D03*
X99872800Y-96545400D03*
X105580000Y-90790000D03*
D20*
X82510000Y-129470000D03*
D19*
X128880000Y-126660000D03*
D20*
X107494600Y-108314000D03*
X108772800Y-109434000D03*
D19*
X95732600Y-105079800D03*
D20*
X115367455Y-108314000D03*
X108780000Y-113250000D03*
X116686026Y-108314000D03*
D19*
X100190000Y-98680000D03*
X116350000Y-86660000D03*
X87000000Y-84620000D03*
D20*
X119354600Y-108334000D03*
D19*
X86070000Y-121250000D03*
D20*
X107492800Y-110710000D03*
D19*
X67500000Y-115260000D03*
X124200000Y-87220000D03*
X77546200Y-106426000D03*
X112240000Y-127350000D03*
X105300000Y-99580000D03*
D20*
X107495029Y-114560000D03*
X115387084Y-118327800D03*
D19*
X64500000Y-105990000D03*
X92220000Y-130890000D03*
D20*
X108772800Y-117017800D03*
D19*
X86454400Y-129184400D03*
X102300000Y-129100000D03*
X97300000Y-82830000D03*
D20*
X111409942Y-112050000D03*
X110091371Y-106984800D03*
X110867599Y-97818001D03*
D19*
X66220000Y-124290000D03*
X76708000Y-106426000D03*
X111250000Y-127350000D03*
D20*
X118005029Y-115900000D03*
D19*
X117260000Y-131130000D03*
X67700000Y-120260000D03*
X130090000Y-92420000D03*
X103790000Y-130120000D03*
X78409800Y-105689400D03*
X117110000Y-95790000D03*
X78522207Y-87132533D03*
X75920000Y-82050000D03*
X111125000Y-91617800D03*
D20*
X119355029Y-115920000D03*
D19*
X104750000Y-88100000D03*
X100220000Y-84370000D03*
D20*
X116684226Y-117017800D03*
D19*
X124170000Y-85200000D03*
D20*
X79180000Y-108630000D03*
D19*
X124240000Y-129090000D03*
D20*
X118024229Y-118327800D03*
D19*
X120180000Y-93080000D03*
X86840000Y-133580000D03*
D20*
X116684226Y-106984800D03*
D19*
X88490000Y-97830000D03*
X102510000Y-130870000D03*
X93410000Y-123100000D03*
D20*
X111412171Y-115900000D03*
X114051055Y-105674800D03*
D19*
X90660000Y-130820000D03*
X95290000Y-129190000D03*
X79070000Y-112080000D03*
X64580000Y-100660000D03*
D20*
X119355029Y-114580000D03*
D19*
X115650000Y-91900000D03*
X94090000Y-98750000D03*
D20*
X108775029Y-114560000D03*
D19*
X94530000Y-96670000D03*
D20*
X118005029Y-114560000D03*
D19*
X128730000Y-93520000D03*
D20*
X116688197Y-105674800D03*
D19*
X95783400Y-105841800D03*
X118643400Y-97510600D03*
X76010000Y-96300000D03*
X136960000Y-97400000D03*
X96723200Y-105816400D03*
X92130000Y-113030000D03*
X77495400Y-105664000D03*
X115260000Y-127350000D03*
X64560000Y-109860000D03*
X65200000Y-103420000D03*
X85760000Y-133540000D03*
X102600000Y-100790000D03*
X133890000Y-81170000D03*
X115600000Y-102970000D03*
X134160000Y-99780000D03*
X103260000Y-88160000D03*
X64580000Y-110640000D03*
X133870000Y-93080000D03*
X114970000Y-129890000D03*
X61850000Y-90360000D03*
X94894400Y-105816400D03*
X116484400Y-103505000D03*
X65420000Y-109220000D03*
X83490000Y-121800000D03*
D20*
X119352800Y-107004800D03*
X77550000Y-125780000D03*
D19*
X108762800Y-91587800D03*
X65020000Y-105420000D03*
X124256800Y-130124200D03*
X133270000Y-102810000D03*
D20*
X107500000Y-113250000D03*
D19*
X137130000Y-107700000D03*
X70170000Y-133510000D03*
X122428000Y-100558600D03*
D20*
X107514229Y-118327800D03*
X116705655Y-118327800D03*
D19*
X81980000Y-133400000D03*
X85330000Y-124520000D03*
D20*
X107495029Y-115900000D03*
D19*
X94894400Y-106527600D03*
X120910000Y-81110000D03*
D20*
X109093000Y-99771200D03*
D19*
X121793000Y-121285000D03*
X121640600Y-100533200D03*
D20*
X112728513Y-109434000D03*
D19*
X107600000Y-134300000D03*
D20*
X115365655Y-110710000D03*
D19*
X126441200Y-99898200D03*
X97120000Y-84340000D03*
X110970000Y-81070000D03*
D20*
X77560000Y-127460000D03*
X115365655Y-117017800D03*
D19*
X118550000Y-123850000D03*
X103790000Y-102990000D03*
D20*
X114047084Y-110710000D03*
X108774600Y-108314000D03*
D19*
X68760000Y-128220000D03*
X111950000Y-131030000D03*
X91370000Y-103220000D03*
D20*
X108772800Y-112050000D03*
D19*
X112960000Y-103960000D03*
D20*
X114047084Y-109434000D03*
X119356771Y-105694800D03*
X111411742Y-108314000D03*
X114049313Y-114560000D03*
D19*
X102750000Y-81750000D03*
X105810000Y-81340000D03*
X105950000Y-103570000D03*
X99640000Y-116120000D03*
D20*
X119352800Y-112070000D03*
D19*
X68840000Y-111770000D03*
D20*
X107492800Y-117017800D03*
X119360000Y-113270000D03*
X81710000Y-129460000D03*
X109093000Y-95986600D03*
D19*
X78409800Y-106426000D03*
X80580000Y-122980000D03*
X106740000Y-127400000D03*
D20*
X110091371Y-112050000D03*
D19*
X99974400Y-100660200D03*
X69060000Y-101690000D03*
X134420000Y-111230000D03*
X68170000Y-95500000D03*
X84348626Y-85323326D03*
D20*
X118002800Y-109434000D03*
X114047084Y-106984800D03*
D19*
X116484400Y-102895400D03*
D20*
X115367884Y-115900000D03*
X110112800Y-118327800D03*
X110947200Y-99771200D03*
D19*
X76708000Y-105638600D03*
D20*
X116684226Y-110710000D03*
D19*
X137120000Y-100480000D03*
X98800000Y-128580000D03*
X129290000Y-99330000D03*
X75565000Y-89179400D03*
X89490000Y-130980000D03*
X101780000Y-90720000D03*
X98780000Y-87830000D03*
X122428000Y-97917000D03*
D20*
X112749942Y-118327800D03*
D19*
X64490000Y-123240000D03*
X114960000Y-129070000D03*
D20*
X112732484Y-105674800D03*
X116684226Y-112050000D03*
D19*
X137890000Y-116700000D03*
X108780000Y-130840000D03*
D20*
X108775029Y-115900000D03*
D19*
X137310000Y-91510000D03*
X108864400Y-128717000D03*
X83490000Y-129070000D03*
X114760000Y-133790000D03*
X73760000Y-97900000D03*
X127320000Y-130570000D03*
X128920000Y-94700000D03*
D20*
X119352800Y-109454000D03*
D19*
X116280000Y-133840000D03*
D20*
X118002800Y-106984800D03*
D19*
X131200000Y-130240000D03*
X104521000Y-95605600D03*
X117144800Y-100076000D03*
X137290000Y-118500000D03*
D20*
X111417142Y-113250000D03*
D19*
X88470000Y-130880000D03*
X121996200Y-99263200D03*
X136940000Y-93830000D03*
X96697800Y-105079800D03*
X137270000Y-96050000D03*
D20*
X119374229Y-118347800D03*
D19*
X111180000Y-90820000D03*
X108102400Y-91567000D03*
D20*
X119352800Y-117037800D03*
D19*
X113080000Y-81160000D03*
D20*
X108772800Y-110710000D03*
D19*
X117144800Y-101549200D03*
X120910000Y-93070000D03*
D20*
X112877600Y-99771200D03*
D19*
X67880000Y-128210000D03*
D20*
X78160000Y-123520000D03*
D19*
X107320000Y-80780000D03*
X77698600Y-87299800D03*
X120180000Y-92520000D03*
X97282000Y-80949800D03*
X121793000Y-122174000D03*
X88690000Y-102670000D03*
X85510000Y-84280000D03*
X117250000Y-94730000D03*
D20*
X115365655Y-106984800D03*
D19*
X135440000Y-128550000D03*
D20*
X118002800Y-112050000D03*
D19*
X137150000Y-111190000D03*
X66290000Y-105510000D03*
D20*
X114068513Y-118327800D03*
X110093171Y-108314000D03*
X112852200Y-97790000D03*
D19*
X68770000Y-105300000D03*
D20*
X110091371Y-109434000D03*
X108776771Y-105674800D03*
D19*
X104485000Y-93192600D03*
X67350000Y-106650000D03*
X77495400Y-104978200D03*
X91330000Y-86610000D03*
X58790000Y-128800000D03*
X123610000Y-102650000D03*
D20*
X109118400Y-97840800D03*
D19*
X117120000Y-98330000D03*
X101710000Y-87850000D03*
X117424200Y-80848200D03*
X87200000Y-99460000D03*
D20*
X112728513Y-110710000D03*
X110098571Y-113250000D03*
D19*
X78384400Y-104978200D03*
X126480000Y-123650000D03*
D20*
X114048884Y-108314000D03*
D19*
X79900000Y-130760000D03*
X68820000Y-103550000D03*
X111060000Y-101420000D03*
X76810000Y-97580000D03*
X134550000Y-90510000D03*
X112240000Y-123220000D03*
X109410000Y-80970000D03*
X128410000Y-121740000D03*
D20*
X118002800Y-110710000D03*
X108794229Y-118327800D03*
D19*
X134210000Y-109040000D03*
D20*
X110947200Y-96062800D03*
X111409942Y-117017800D03*
X116691426Y-113250000D03*
D19*
X92140000Y-128350000D03*
X69780000Y-115080000D03*
X82120000Y-124520000D03*
D20*
X112728513Y-117017800D03*
D19*
X68100000Y-101680000D03*
X68790000Y-97750000D03*
D20*
X115365655Y-109434000D03*
D19*
X134110000Y-122250000D03*
D20*
X115367884Y-114560000D03*
D19*
X94630000Y-112830000D03*
D20*
X76420000Y-121770000D03*
D19*
X129930000Y-126630000D03*
D20*
X112728513Y-112050000D03*
D19*
X107750000Y-122430000D03*
D20*
X116684226Y-109434000D03*
D19*
X109821900Y-133780000D03*
X116586000Y-92481400D03*
X67530000Y-116760000D03*
D20*
X118002800Y-117017800D03*
X114047084Y-117017800D03*
D19*
X104250000Y-83100000D03*
X105440000Y-130810000D03*
X97470000Y-87730000D03*
X94869000Y-105105200D03*
D20*
X112730313Y-108314000D03*
D19*
X110660000Y-103400000D03*
D20*
X112730742Y-114560000D03*
D19*
X121793000Y-123215400D03*
D20*
X112728513Y-106984800D03*
X111409942Y-109434000D03*
X110091371Y-110710000D03*
D19*
X68840000Y-110990000D03*
X134570000Y-88710000D03*
X64470000Y-124030000D03*
D20*
X115365655Y-112050000D03*
X118010000Y-113250000D03*
D19*
X84000000Y-81970000D03*
X99510000Y-98680000D03*
X76330000Y-80520000D03*
X89331800Y-87909400D03*
D20*
X111409942Y-110710000D03*
X110093600Y-114560000D03*
X111431371Y-118327800D03*
X77540000Y-126650000D03*
D19*
X107350000Y-130440000D03*
X95808800Y-106527600D03*
X98750000Y-130770000D03*
X66380000Y-109250000D03*
X134150000Y-98050000D03*
D20*
X112852200Y-96037400D03*
D19*
X96748600Y-106502200D03*
D20*
X110091371Y-117017800D03*
D19*
X114280000Y-103780000D03*
X76708000Y-104978200D03*
X90270000Y-80570000D03*
X129910000Y-112290000D03*
X85090000Y-130080000D03*
X75565000Y-89789000D03*
D20*
X114049313Y-115900000D03*
D19*
X92470000Y-86570000D03*
D20*
X116686455Y-115900000D03*
D19*
X108260000Y-127350000D03*
X105040000Y-128060000D03*
X123647200Y-121310400D03*
X64380000Y-130250000D03*
D20*
X112730742Y-115900000D03*
X111412171Y-114560000D03*
D19*
X68800000Y-114020000D03*
X112680000Y-101450000D03*
X87690000Y-100850000D03*
D20*
X111413913Y-105674800D03*
D19*
X90220000Y-82180000D03*
D20*
X107492800Y-112050000D03*
X118004600Y-108314000D03*
D19*
X106260000Y-130890000D03*
D20*
X112735713Y-113250000D03*
D19*
X68260000Y-123950000D03*
X137200000Y-99590000D03*
X125755400Y-92278200D03*
D20*
X110095342Y-105674800D03*
X115369626Y-105674800D03*
D19*
X119532400Y-91414600D03*
D20*
%TO.N,+5V*%
X85242400Y-116586000D03*
D19*
X97729000Y-110236000D03*
D20*
X85242400Y-115570000D03*
X86156800Y-111556800D03*
X85242400Y-114554000D03*
D19*
X86660000Y-122380000D03*
X121900000Y-105630000D03*
D20*
X86156800Y-116535200D03*
X85242400Y-111607600D03*
X86156800Y-114503200D03*
X86156800Y-112572800D03*
D19*
X86060000Y-121770000D03*
D20*
X73840000Y-109260000D03*
X86156800Y-113538000D03*
D19*
X124570000Y-97240000D03*
D20*
X85242400Y-112623600D03*
X86156800Y-115519200D03*
X86156800Y-110591600D03*
X85242400Y-113538000D03*
D19*
X120548400Y-98221800D03*
X104960000Y-90810000D03*
X102720000Y-93000000D03*
X124360000Y-95940000D03*
X60850000Y-127070000D03*
D21*
X102311200Y-102438200D03*
D20*
X85242400Y-110591600D03*
D19*
%TO.N,3V3_SYS*%
X118830000Y-87560000D03*
%TO.N,USB2-*%
X134540000Y-89374834D03*
X113263500Y-81640000D03*
%TO.N,USB2+*%
X134540000Y-89901834D03*
X112736500Y-81640000D03*
%TO.N,PORT_VBUS_2*%
X134243334Y-87763334D03*
X117020000Y-87100000D03*
%TO.N,USB3-*%
X111263500Y-81680000D03*
X137250000Y-98351500D03*
%TO.N,USB3+*%
X137250000Y-98878500D03*
X110736500Y-81680000D03*
%TO.N,PORT_VBUS_3*%
X133700000Y-96750000D03*
X110070000Y-80960000D03*
%TO.N,USB4-*%
X109263500Y-81660000D03*
X133583677Y-108053677D03*
%TO.N,USB4+*%
X133956323Y-108426323D03*
X108736500Y-81660000D03*
%TO.N,PORT_VBUS_4*%
X137300000Y-105760000D03*
X108740000Y-80850000D03*
%TO.N,ETH_RADIO_TX_N*%
X102630000Y-119546800D03*
X102304140Y-81090000D03*
X122125060Y-116374940D03*
%TO.N,ETH_RADIO_TX_P*%
X101695860Y-81090000D03*
X121694940Y-116805060D03*
X102630000Y-120353200D03*
%TO.N,ETH_RADIO_RX_N*%
X97575106Y-120014894D03*
X101304140Y-80290000D03*
X122000000Y-125635860D03*
%TO.N,ETH_RADIO_RX_P*%
X97004894Y-120585106D03*
X122000000Y-126244140D03*
X100695860Y-80290000D03*
%TO.N,ETH_SPARE_RX_P*%
X121780000Y-107694140D03*
X99804140Y-79690000D03*
%TO.N,ETH_SPARE_RX_N*%
X121780000Y-107085860D03*
X99195860Y-79690000D03*
%TO.N,ETH_SPARE_TX_P*%
X118770000Y-96504140D03*
X98304140Y-79720000D03*
%TO.N,ETH_SPARE_TX_N*%
X118770000Y-95895860D03*
X97695860Y-79720000D03*
D20*
%TO.N,Net-(D2-K)*%
X96580000Y-107730000D03*
X97920000Y-102810000D03*
D19*
%TO.N,FMU_I2C_1_SDA*%
X65000000Y-116980000D03*
X103437300Y-123567300D03*
%TO.N,FMU_I2C_1_SCL*%
X64970000Y-115710000D03*
X101670000Y-120520000D03*
%TO.N,GPS1_RX*%
X101200000Y-120150000D03*
X65820000Y-115280000D03*
%TO.N,GPS1_TX*%
X65800000Y-114720000D03*
X100782162Y-119804123D03*
%TO.N,+VDD_5V_PERIPH*%
X108220000Y-134110000D03*
X110960000Y-134390000D03*
X65910000Y-114190000D03*
X105710000Y-134240000D03*
X61760000Y-118630000D03*
X66840000Y-130060000D03*
X138330000Y-123950000D03*
X110235000Y-134265000D03*
X76380000Y-133550000D03*
X100400000Y-119480000D03*
X137560000Y-114790000D03*
X102590000Y-128570000D03*
%TO.N,BATT_VOLTAGE_SENS_PROT*%
X61860000Y-117380000D03*
X117320000Y-129400000D03*
X114360000Y-122780000D03*
%TO.N,BATT_CURRENT_SENS_PROT*%
X116740000Y-129380000D03*
X61780000Y-116110000D03*
X113840000Y-122360000D03*
%TO.N,FMU-CH1-PROT*%
X101840000Y-128640000D03*
X134410000Y-118330000D03*
%TO.N,IO-CH8-PROT*%
X104730000Y-134610000D03*
X137170000Y-119280000D03*
%TO.N,IO-CH7-PROT*%
X137110000Y-119990000D03*
X104290000Y-134910000D03*
%TO.N,IO-CH6-PROT*%
X103750000Y-134520000D03*
X137090000Y-121220000D03*
%TO.N,IO-CH5-PROT*%
X137130000Y-122480000D03*
X103320979Y-134848867D03*
%TO.N,IO-CH4-PROT*%
X137190000Y-123720000D03*
X102820000Y-134860000D03*
%TO.N,IO-CH3-PROT*%
X102260000Y-134870000D03*
X137250000Y-124990000D03*
%TO.N,IO-CH2-PROT*%
X101750000Y-134780000D03*
X134220000Y-126240000D03*
%TO.N,IO-CH1-PROT*%
X101140000Y-134670000D03*
X137320000Y-127470000D03*
%TO.N,ETH_RADIO_TX_POSTMAG_N*%
X134220000Y-117090660D03*
X137120000Y-101925460D03*
%TO.N,ETH_RADIO_TX_POSTMAG_P*%
X137120000Y-102533740D03*
X134220000Y-117698940D03*
%TO.N,ETH_RADIO_RX_POSTMAG_N*%
X134160000Y-124710660D03*
X137130000Y-104425460D03*
%TO.N,ETH_RADIO_RX_POSTMAG_P*%
X134160000Y-125318940D03*
X137130000Y-105033740D03*
%TO.N,ETH_SPARE_TX_POSTMAG_N*%
X137190000Y-92254260D03*
X134150000Y-98580860D03*
%TO.N,ETH_SPARE_TX_POSTMAG_P*%
X134150000Y-99189140D03*
X137190000Y-92862540D03*
%TO.N,ETH_SPARE_RX_POSTMAG_N*%
X134120000Y-106200860D03*
X137090000Y-94754260D03*
%TO.N,ETH_SPARE_RX_POSTMAG_P*%
X134120000Y-106809140D03*
X137090000Y-95362540D03*
D20*
%TO.N,Net-(D3-K)*%
X78245300Y-109710000D03*
X79640000Y-102720000D03*
D19*
%TO.N,+1V1*%
X118668800Y-98221800D03*
X122148600Y-92684600D03*
X122148600Y-93243400D03*
X108102400Y-92227400D03*
X111125000Y-92252800D03*
X107518200Y-103581200D03*
X123740000Y-95930000D03*
X112664200Y-103454200D03*
X116454000Y-96062800D03*
X103370000Y-92990000D03*
X121890000Y-104970000D03*
X116494600Y-100076000D03*
X109139200Y-103428800D03*
X116454400Y-97561400D03*
X122580000Y-95890000D03*
X121880000Y-95870000D03*
%TO.N,+5V_FMU*%
X124820000Y-126640000D03*
X108910000Y-123310000D03*
X108960000Y-124290000D03*
D20*
X103225600Y-116687600D03*
X75210000Y-125330000D03*
X104089200Y-113588800D03*
X104089200Y-115671600D03*
D19*
X102710000Y-95610000D03*
X122540000Y-91460000D03*
D20*
X75350000Y-126660000D03*
X104089200Y-111658400D03*
X92910000Y-108670000D03*
X103225600Y-111658400D03*
X74760000Y-126660000D03*
D21*
X69392800Y-119126000D03*
D19*
X126350000Y-95960000D03*
D20*
X79970000Y-127700000D03*
X104089200Y-112572800D03*
D19*
X109930000Y-124290000D03*
X62160000Y-127160000D03*
X109580000Y-123300000D03*
X66070000Y-119030000D03*
X109430000Y-124300000D03*
D20*
X104089200Y-114655600D03*
X103225600Y-110642400D03*
D19*
X81110000Y-127508000D03*
D20*
X103225600Y-113588800D03*
D19*
X65760000Y-122210000D03*
D20*
X103225600Y-112572800D03*
D19*
X122670000Y-105620000D03*
D20*
X103225600Y-115671600D03*
X104089200Y-116687600D03*
X103225600Y-114655600D03*
X104089200Y-110642400D03*
D19*
%TO.N,IRID_TX_IN_3.3*%
X115610000Y-81130000D03*
X79360000Y-81070000D03*
%TO.N,IRID_RING_3.3*%
X113309400Y-80014500D03*
X78640000Y-79270000D03*
%TO.N,IRID_RX_OUT_3.3*%
X115300000Y-80360000D03*
X73230000Y-82460000D03*
%TO.N,USB_EXT2_SSTX-*%
X113280000Y-103430000D03*
X100390000Y-128380000D03*
%TO.N,Net-(U9-VCC)*%
X69750000Y-115860000D03*
X70730000Y-119120000D03*
%TO.N,XAVIER_I2C1_SCL*%
X128010000Y-130660000D03*
X130370000Y-95980000D03*
X116920000Y-84940000D03*
%TO.N,CAM1_D0_N*%
X112454284Y-87445716D03*
%TO.N,CAM1_D0_P*%
X112045716Y-87854284D03*
X104100000Y-86720000D03*
X103010000Y-85540000D03*
%TO.N,CAM1_C_N*%
X108110000Y-86280000D03*
%TO.N,CAM1_C_P*%
X108990000Y-86830000D03*
%TO.N,CAM1_D1_N*%
X105510000Y-86160000D03*
%TO.N,CAM1_D1_P*%
X106035716Y-86644284D03*
%TO.N,XAVIER_I2C1_SDA*%
X130570000Y-129980000D03*
X116250000Y-84480000D03*
X130960000Y-95960000D03*
%TO.N,+3V3_MIPI*%
X90270000Y-95590000D03*
%TO.N,CAM0_D2_P*%
X113732690Y-90863129D03*
%TO.N,RC_INPUT*%
X76820000Y-100840000D03*
X101790000Y-110737300D03*
X64970000Y-92840000D03*
X106390000Y-122150000D03*
%TO.N,+VDD_5V_RADIO*%
X69240000Y-130350000D03*
X66500000Y-91570000D03*
X107240000Y-127840000D03*
%TO.N,BUZZER_OUT*%
X66320000Y-117840000D03*
X64810000Y-121970000D03*
%TO.N,SAFETY_VDD*%
X105750000Y-127550000D03*
X64880000Y-120720000D03*
X99280000Y-123780000D03*
%TO.N,SAFETY_SWITCH_IN*%
X64980000Y-118250000D03*
X103874349Y-123900000D03*
%TO.N,TELEM1_TX*%
X114280000Y-131130000D03*
X75180000Y-133430000D03*
%TO.N,TELEM1_RX*%
X113750000Y-133660000D03*
X73900000Y-133360000D03*
%TO.N,TELEM1_CTS*%
X113240000Y-134040000D03*
X72680000Y-133380000D03*
%TO.N,TELEM1_RTS*%
X71390000Y-133380000D03*
X112780000Y-134420000D03*
%TO.N,INTVCC*%
X125791000Y-99872800D03*
X120497600Y-99237800D03*
%TO.N,USB_EXT2_SSTX+*%
X113840000Y-103410000D03*
X100380000Y-128930000D03*
%TO.N,CAN_2+*%
X137730000Y-125470860D03*
X108695860Y-133920000D03*
%TO.N,CAN_2-*%
X109304140Y-133920000D03*
X137730000Y-126079140D03*
%TO.N,FMU_I2C_2_SDA*%
X64780000Y-125880000D03*
X107200000Y-133820000D03*
%TO.N,FMU_I2C_2_SCL*%
X64750000Y-126590000D03*
X106750000Y-134270000D03*
%TO.N,FMU-CH4-PROT*%
X99310000Y-129550000D03*
X134370000Y-113670000D03*
%TO.N,FMU-CH3-PROT*%
X99750000Y-128470000D03*
X134420000Y-115000000D03*
%TO.N,FMU-CH2-PROT*%
X134420000Y-116120000D03*
X101330000Y-128710000D03*
%TO.N,USB_EXT1_SSTX-*%
X84426323Y-128806323D03*
X117356323Y-99316323D03*
X87690000Y-100322070D03*
%TO.N,USB_EXT1_SSTX+*%
X87690000Y-99817930D03*
X84053677Y-128433677D03*
X116983677Y-98943677D03*
%TO.N,CAM0_D2_N*%
X114267310Y-90863129D03*
%TO.N,CAM0_D3_P*%
X115640983Y-87310983D03*
%TO.N,CAM1_GPIO*%
X108290000Y-90700000D03*
X112170000Y-80767300D03*
%TO.N,CAM1_MCLK*%
X107760000Y-90690000D03*
X112551641Y-81092037D03*
%TO.N,CAM1_SCL0*%
X113830000Y-80940000D03*
X107240000Y-90680000D03*
%TO.N,CAM1_SDA0*%
X106600000Y-88150000D03*
X114572700Y-80500000D03*
%TO.N,CAM0_D0_N*%
X97670000Y-84671100D03*
%TO.N,CAM0_D0_P*%
X97670000Y-85248900D03*
%TO.N,CAM0_C_N*%
X96410000Y-85730000D03*
%TO.N,CAM0_C_P*%
X96480000Y-86280000D03*
%TO.N,CAM0_D1_N*%
X97830000Y-86581100D03*
%TO.N,CAM0_D1_P*%
X97830000Y-87158900D03*
%TO.N,CAM0_GPIO*%
X101660000Y-93200000D03*
%TO.N,CAM0_MCLK*%
X100180000Y-93130000D03*
%TO.N,CAM0_SDA0*%
X98680000Y-93020000D03*
%TO.N,USBSS_TX_N*%
X112290000Y-90990000D03*
X105263500Y-81350000D03*
%TO.N,USBSS_TX_P*%
X111770000Y-90980000D03*
X104736500Y-81350000D03*
%TO.N,UART4_RX*%
X114660000Y-127480000D03*
X119167208Y-126152989D03*
%TO.N,UART4_TX*%
X119190000Y-125630000D03*
X114120000Y-127490000D03*
%TO.N,S.BUS_OUT*%
X67920000Y-130900000D03*
X113470000Y-127530000D03*
%TO.N,USB_CELL_SSTX+*%
X116643677Y-94833677D03*
X64600000Y-111706000D03*
X66200000Y-96937930D03*
%TO.N,USB_CELL_SSTX-*%
X66200000Y-97442070D03*
X117016323Y-95206323D03*
X64600000Y-111179000D03*
%TO.N,+SIM_VCC*%
X83310000Y-102980000D03*
X76300000Y-111520000D03*
X128077000Y-93522800D03*
X127650000Y-96140000D03*
%TO.N,Net-(D9-K)*%
X77380000Y-130360000D03*
X75950000Y-100150000D03*
X76190000Y-130290000D03*
%TO.N,Net-(D10-A)*%
X132010000Y-112350000D03*
X120780000Y-134330000D03*
X128030000Y-134220000D03*
%TO.N,USB_CELL_D+*%
X68330000Y-96097930D03*
X114180000Y-94260000D03*
X68710000Y-104236500D03*
%TO.N,USB_CELL_D-*%
X114526323Y-94706323D03*
X68710000Y-104763500D03*
X68330000Y-96602070D03*
%TO.N,USB_CELL_SSRX+*%
X114470000Y-96554501D03*
X75891759Y-96891759D03*
X68740000Y-110263500D03*
%TO.N,USB_CELL_SSRX-*%
X114470000Y-97081501D03*
X69410000Y-110310000D03*
X76248241Y-97248241D03*
%TO.N,USB_EXT1_D+*%
X114490000Y-98054502D03*
X91101500Y-131190000D03*
%TO.N,USB_EXT1_D-*%
X114490000Y-98581502D03*
X91628500Y-131190000D03*
%TO.N,USB_EXT1_SSRX+*%
X114460000Y-100554502D03*
X87351500Y-130890000D03*
X88311759Y-101721759D03*
%TO.N,USB_EXT1_SSRX-*%
X114460000Y-101081502D03*
X88668241Y-102078241D03*
X87878500Y-130890000D03*
%TO.N,USB_EXT2_D+*%
X115136323Y-103243677D03*
X107871500Y-130740000D03*
%TO.N,USB_EXT2_D-*%
X114763677Y-103616323D03*
X107850000Y-130170000D03*
%TO.N,USB_EXT2_SSRX+*%
X112150000Y-101440000D03*
X104121500Y-130750000D03*
X104132930Y-122230000D03*
%TO.N,USB_EXT2_SSRX-*%
X104648500Y-130750000D03*
X104637070Y-122230000D03*
X111630000Y-101430000D03*
%TO.N,PWRCTRL2*%
X101720000Y-109750000D03*
X102100000Y-100330000D03*
%TO.N,+3V3*%
X118414800Y-103454200D03*
X121920000Y-102463600D03*
X125710000Y-95960000D03*
X123260000Y-92170000D03*
X122650000Y-104980000D03*
X103378000Y-96951800D03*
X118389400Y-102844600D03*
X104889600Y-101142800D03*
X121920000Y-103784400D03*
X118668800Y-99745800D03*
X103480000Y-103710000D03*
X114528600Y-92242600D03*
X116484400Y-101549200D03*
X103454200Y-94640400D03*
X104368600Y-98069400D03*
X103360000Y-95590000D03*
X121920000Y-103124000D03*
X108770000Y-92220000D03*
%TO.N,OVERCUR3*%
X103378000Y-96312200D03*
X102330000Y-113400000D03*
%TO.N,OVERCUR2*%
X104104400Y-94640400D03*
X105321401Y-117240000D03*
X97290000Y-116550000D03*
%TO.N,CAN_1+*%
X137380000Y-116360860D03*
X110695860Y-131020000D03*
%TO.N,CAN_1-*%
X111304140Y-131020000D03*
X137380000Y-116969140D03*
D20*
%TO.N,/MainPower/PWR_IN*%
X81305400Y-91541600D03*
X83591400Y-90551000D03*
X82346800Y-92583000D03*
X82346800Y-90551000D03*
X81305400Y-90551000D03*
X83591400Y-89509600D03*
X83591400Y-92583000D03*
X83591400Y-91541600D03*
D19*
X75539600Y-91998800D03*
D20*
X81305400Y-89509600D03*
X82346800Y-91541600D03*
D19*
X78359000Y-92430600D03*
D20*
X82346800Y-89509600D03*
D19*
X75539600Y-92583000D03*
D20*
X81305400Y-92583000D03*
D19*
%TO.N,JETSON_USB1_D_P*%
X106736500Y-81290000D03*
X109104100Y-90900000D03*
%TO.N,JETSON_USB1_D_N*%
X107263500Y-81290000D03*
X109631100Y-90900000D03*
%TO.N,USBSS_RX_P*%
X110104099Y-91130000D03*
X103236500Y-81450000D03*
%TO.N,USBSS_RX_N*%
X103763500Y-81450000D03*
X110631099Y-91130000D03*
%TO.N,Net-(IC1-USB_R1)*%
X115351600Y-93141800D03*
%TO.N,JETSON_CAN+*%
X93324894Y-96144894D03*
X64870000Y-103830860D03*
X98020000Y-91929350D03*
%TO.N,JETSON_CAN-*%
X98650000Y-91929350D03*
X64870000Y-104439140D03*
X93895106Y-96715106D03*
%TO.N,PORT_VBUS_JETSON*%
X103780000Y-93469350D03*
X106180000Y-80830000D03*
%TO.N,GPIO02*%
X72830000Y-97870000D03*
X118320000Y-89190000D03*
X76640000Y-89050000D03*
%TO.N,BATT2_CURRENT_SENS_PROT*%
X115010000Y-122940000D03*
X61800000Y-113610000D03*
%TO.N,BATT2_VOLTAGE_SENS_PROT*%
X115350000Y-122320000D03*
X61730000Y-114680000D03*
%TO.N,SPARE1_ADC1*%
X116740000Y-122220000D03*
X93065744Y-117871709D03*
%TO.N,SPARE2_ADC1*%
X97100000Y-117090000D03*
X117180000Y-120710000D03*
%TO.N,Net-(J20-Pin_7)*%
X64730000Y-119600000D03*
X105230000Y-123190000D03*
D20*
%TO.N,Net-(J30-~{FULL_CARD_POWER_OFF})*%
X76510000Y-101360000D03*
X72880000Y-103890000D03*
%TO.N,PCIE_DIS*%
X78870000Y-109230000D03*
X74000000Y-107520000D03*
D19*
%TO.N,VBUS_CELL*%
X71810000Y-106720000D03*
X98950000Y-96640000D03*
%TO.N,SIM_RESET*%
X125160000Y-94710000D03*
X89220000Y-104260000D03*
X92490000Y-98950000D03*
X74730000Y-110000000D03*
%TO.N,SIM_CLK*%
X76200000Y-110440000D03*
X123490000Y-93560000D03*
X89220000Y-99210000D03*
%TO.N,SIM_DATA*%
X123850000Y-94710000D03*
X76850000Y-110440000D03*
X88560000Y-99240000D03*
%TO.N,SIM_DETECT*%
X129870000Y-94700000D03*
X90850000Y-99180000D03*
X76280000Y-119050000D03*
%TO.N,Net-(U9-+IN)*%
X106330000Y-122870000D03*
X72110000Y-118490000D03*
%TO.N,PGOOD2*%
X120548400Y-100228400D03*
X126570000Y-98370000D03*
%TO.N,+5V_PROT*%
X90115000Y-117095000D03*
X66310000Y-102250000D03*
%TO.N,RS232_TXD*%
X129870000Y-130500000D03*
%TO.N,RS232_RXD*%
X128750000Y-130550000D03*
%TO.N,+5V_PROT_INS*%
X118680000Y-133420000D03*
X118670000Y-124710000D03*
X95590000Y-122640000D03*
X93740000Y-122620000D03*
%TO.N,Net-(J13-Pin_6)*%
X61810000Y-112540000D03*
X91980000Y-117848700D03*
%TO.N,Net-(J13-Pin_7)*%
X95873592Y-117560000D03*
X61840000Y-111170000D03*
%TO.N,CAM0_D3_N*%
X116019017Y-87689017D03*
%TO.N,nMOD_SLEEP*%
X76100000Y-88310000D03*
X117030000Y-87660000D03*
X72080000Y-97970000D03*
%TO.N,SLEEP{slash}WAKE*%
X75580000Y-87660000D03*
X71420000Y-97870000D03*
X117640000Y-87940000D03*
%TD*%
D22*
%TO.N,CAM0_D1_N*%
X86429700Y-85122134D02*
X86429700Y-84297610D01*
X87027866Y-85720300D02*
X86429700Y-85122134D01*
X90682134Y-87230300D02*
X90667866Y-87230300D01*
X86429700Y-84297610D02*
X86557310Y-84170000D01*
X92321834Y-88209700D02*
X92321834Y-87670000D01*
X93582134Y-86730300D02*
X93082134Y-87230300D01*
X97680800Y-86730300D02*
X93582134Y-86730300D01*
X88350300Y-86160000D02*
X88350300Y-86699700D01*
X97830000Y-86581100D02*
X97680800Y-86730300D01*
X88029700Y-86699700D02*
G75*
G03*
X88190000Y-86860000I160300J0D01*
G01*
X88190000Y-86860000D02*
G75*
G03*
X88350300Y-86699700I0J160300D01*
G01*
X92642434Y-87670000D02*
X92642434Y-88209700D01*
X91121800Y-88209700D02*
G75*
G03*
X91282134Y-88370000I160300J0D01*
G01*
X91882134Y-87230334D02*
G75*
G03*
X91442434Y-87670000I-34J-439666D01*
G01*
X92321800Y-87670000D02*
G75*
G03*
X91882134Y-87230300I-439700J0D01*
G01*
X92321800Y-88209700D02*
G75*
G03*
X92482134Y-88370000I160300J0D01*
G01*
X92482134Y-88370034D02*
G75*
G03*
X92642434Y-88209700I-34J160334D01*
G01*
X90667866Y-87230300D02*
X89157866Y-85720300D01*
%TO.N,CAM0_D1_P*%
X86150300Y-84297610D02*
X86022690Y-84170000D01*
X86150300Y-85237866D02*
X86150300Y-84297610D01*
X86912134Y-85999700D02*
X86150300Y-85237866D01*
%TO.N,CAM0_D1_N*%
X88029700Y-86160000D02*
G75*
G03*
X87590000Y-85720300I-439700J0D01*
G01*
%TO.N,CAM0_D1_P*%
X87590000Y-85999700D02*
X86986753Y-85999700D01*
X87750300Y-86699700D02*
X87750300Y-86160000D01*
X88629700Y-86160000D02*
X88629700Y-86699700D01*
X89042134Y-85999700D02*
X88790000Y-85999700D01*
X90552134Y-87509700D02*
X89042134Y-85999700D01*
X90842434Y-88209700D02*
X90842434Y-87670000D01*
X91721834Y-87670000D02*
X91721834Y-88209700D01*
%TO.N,CAM0_D1_N*%
X89157866Y-85720300D02*
X88790000Y-85720300D01*
%TO.N,CAM0_D1_P*%
X92042434Y-88209700D02*
X92042434Y-87670000D01*
X92921834Y-87670000D02*
X92921834Y-88209700D01*
X93697866Y-87009700D02*
X93197866Y-87509700D01*
%TO.N,CAM0_D1_N*%
X91121834Y-88209700D02*
X91121834Y-87670000D01*
%TO.N,CAM0_D1_P*%
X97680800Y-87009700D02*
X93697866Y-87009700D01*
%TO.N,CAM0_D1_N*%
X88790000Y-85720300D02*
G75*
G03*
X88350300Y-86160000I0J-439700D01*
G01*
%TO.N,CAM0_D1_P*%
X97830000Y-87158900D02*
X97680800Y-87009700D01*
%TO.N,CAM0_D1_N*%
X91121800Y-87670000D02*
G75*
G03*
X90682134Y-87230300I-439700J0D01*
G01*
%TO.N,CAM0_D1_P*%
X87750300Y-86160000D02*
G75*
G03*
X87590000Y-85999700I-160300J0D01*
G01*
X93197866Y-87509700D02*
X93082134Y-87509700D01*
%TO.N,CAM0_D1_N*%
X93082134Y-87230334D02*
G75*
G03*
X92642434Y-87670000I-34J-439666D01*
G01*
%TO.N,CAM0_D1_P*%
X87750300Y-86699700D02*
G75*
G03*
X88190000Y-87139400I439700J0D01*
G01*
X88190000Y-87139400D02*
G75*
G03*
X88629700Y-86699700I0J439700D01*
G01*
X86986753Y-85999700D02*
X86912134Y-85999700D01*
X88790000Y-85999700D02*
G75*
G03*
X88629700Y-86160000I0J-160300D01*
G01*
X91282134Y-88649434D02*
G75*
G03*
X91721834Y-88209700I-34J439734D01*
G01*
%TO.N,CAM0_D1_N*%
X91282134Y-88370034D02*
G75*
G03*
X91442434Y-88209700I-34J160334D01*
G01*
%TO.N,CAM0_D1_P*%
X91882134Y-87509734D02*
G75*
G03*
X91721834Y-87670000I-34J-160266D01*
G01*
X92042400Y-87670000D02*
G75*
G03*
X91882134Y-87509700I-160300J0D01*
G01*
%TO.N,CAM0_D1_N*%
X91442434Y-87670000D02*
X91442434Y-88209700D01*
%TO.N,CAM0_D1_P*%
X92042400Y-88209700D02*
G75*
G03*
X92482134Y-88649400I439700J0D01*
G01*
X90842400Y-88209700D02*
G75*
G03*
X91282134Y-88649400I439700J0D01*
G01*
%TO.N,CAM0_D1_N*%
X88029700Y-86699700D02*
X88029700Y-86160000D01*
%TO.N,CAM0_D1_P*%
X92482134Y-88649434D02*
G75*
G03*
X92921834Y-88209700I-34J439734D01*
G01*
X93082134Y-87509734D02*
G75*
G03*
X92921834Y-87670000I-34J-160266D01*
G01*
X90682134Y-87509700D02*
X90552134Y-87509700D01*
X90842400Y-87670000D02*
G75*
G03*
X90682134Y-87509700I-160300J0D01*
G01*
%TO.N,CAM0_D1_N*%
X87590000Y-85720300D02*
X87027866Y-85720300D01*
%TO.N,CAM0_D3_N*%
X82140000Y-85760000D02*
X82040000Y-85660000D01*
X82140000Y-86566380D02*
X82140000Y-85760000D01*
X82293620Y-86720000D02*
X82140000Y-86566380D01*
X82293620Y-87251186D02*
X82293620Y-86720000D01*
X86529094Y-91486660D02*
X82293620Y-87251186D01*
X94930000Y-91486660D02*
X86529094Y-91486660D01*
X95257750Y-91486660D02*
X94930000Y-91486660D01*
X95393875Y-91622786D02*
X95393875Y-91622785D01*
X95857750Y-91758911D02*
X95530000Y-91758911D01*
X95993875Y-91622785D02*
X95993875Y-91622786D01*
X98844912Y-91486660D02*
X96130000Y-91486660D01*
X98867952Y-91509700D02*
X98844912Y-91486660D01*
X105672134Y-93819700D02*
X103362134Y-91509700D01*
X114027866Y-93819700D02*
X105672134Y-93819700D01*
X115199700Y-92647866D02*
X114027866Y-93819700D01*
X115199700Y-91057866D02*
X115199700Y-92647866D01*
X115639700Y-87887866D02*
X115639700Y-90617866D01*
X116019017Y-87689017D02*
X115838549Y-87689017D01*
X95393940Y-91622785D02*
G75*
G03*
X95257750Y-91486660I-136140J-15D01*
G01*
X95857750Y-91758875D02*
G75*
G03*
X95993875Y-91622786I50J136075D01*
G01*
X115639700Y-90617866D02*
X115199700Y-91057866D01*
X96130000Y-91486675D02*
G75*
G03*
X95993875Y-91622785I0J-136125D01*
G01*
X115838549Y-87689017D02*
X115639700Y-87887866D01*
X95393889Y-91622786D02*
G75*
G03*
X95530000Y-91758911I136111J-14D01*
G01*
X103362134Y-91509700D02*
X98867952Y-91509700D01*
%TO.N,CAM0_D2_N*%
X83790300Y-86175432D02*
X83333068Y-85718200D01*
X83790300Y-87317866D02*
X83790300Y-86175432D01*
X86562134Y-90089700D02*
X83790300Y-87317866D01*
X103282134Y-90089700D02*
X86562134Y-90089700D01*
X106112134Y-92919700D02*
X103282134Y-90089700D01*
X112717866Y-92919700D02*
X106112134Y-92919700D01*
X114139700Y-91497866D02*
X112717866Y-92919700D01*
%TO.N,CAM0_D2_P*%
X84069700Y-86059700D02*
X83180000Y-85170000D01*
X84069700Y-87202134D02*
X84069700Y-86059700D01*
X86677866Y-89810300D02*
X84069700Y-87202134D01*
X88860000Y-89810300D02*
X86677866Y-89810300D01*
X89160000Y-89371556D02*
X89160000Y-89510300D01*
X89760000Y-89510300D02*
X89760000Y-89371556D01*
%TO.N,CAM0_D2_N*%
X83333068Y-85718200D02*
X83199298Y-85718200D01*
%TO.N,CAM0_D2_P*%
X103397866Y-89810300D02*
X90060000Y-89810300D01*
%TO.N,CAM0_D2_N*%
X114139700Y-90990739D02*
X114139700Y-91497866D01*
%TO.N,CAM0_D2_P*%
X106227866Y-92640300D02*
X103397866Y-89810300D01*
X89460000Y-89071600D02*
G75*
G03*
X89160000Y-89371556I0J-300000D01*
G01*
X88860000Y-89810300D02*
G75*
G03*
X89160000Y-89510300I0J300000D01*
G01*
%TO.N,CAM0_D2_N*%
X114267310Y-90863129D02*
X114139700Y-90990739D01*
%TO.N,CAM0_D2_P*%
X89760000Y-89510300D02*
G75*
G03*
X90060000Y-89810300I300000J0D01*
G01*
X113860300Y-90990739D02*
X113860300Y-91382134D01*
X113860300Y-91382134D02*
X112602134Y-92640300D01*
X112602134Y-92640300D02*
X106227866Y-92640300D01*
X89760044Y-89371556D02*
G75*
G03*
X89460000Y-89071556I-300044J-44D01*
G01*
X113732690Y-90863129D02*
X113860300Y-90990739D01*
%TO.N,CAM0_D3_P*%
X82629700Y-86620000D02*
X82540000Y-86530300D01*
X82629700Y-87192134D02*
X82629700Y-86620000D01*
X86644846Y-91207280D02*
X82629700Y-87192134D01*
X98960634Y-91207280D02*
X86644846Y-91207280D01*
X98983655Y-91230300D02*
X98960634Y-91207280D01*
X103477866Y-91230300D02*
X98983655Y-91230300D01*
X114920300Y-90942134D02*
X114920300Y-92532134D01*
X114920300Y-92532134D02*
X113912134Y-93540300D01*
X115360300Y-90502134D02*
X114920300Y-90942134D01*
X115360300Y-87772134D02*
X115360300Y-90502134D01*
X105787866Y-93540300D02*
X103477866Y-91230300D01*
X82540000Y-86530300D02*
X82540000Y-86080000D01*
X115640983Y-87491451D02*
X115360300Y-87772134D01*
X115640983Y-87310983D02*
X115640983Y-87491451D01*
X113912134Y-93540300D02*
X105787866Y-93540300D01*
%TO.N,CAM0_GPIO*%
X80630000Y-86890000D02*
X81180000Y-87440000D01*
X80630000Y-81790000D02*
X80630000Y-86890000D01*
D23*
%TO.N,CAM0_MCLK*%
X80100000Y-81790000D02*
X80030000Y-81720000D01*
X80100000Y-85030000D02*
X80100000Y-81790000D01*
X80100000Y-86990000D02*
X80100000Y-85030000D01*
X80620000Y-87510000D02*
X80100000Y-86990000D01*
D24*
%TO.N,PORT_VBUS_2*%
X117020000Y-87100000D02*
X118340000Y-85780000D01*
X118340000Y-85780000D02*
X132260000Y-85780000D01*
X132260000Y-85780000D02*
X134243334Y-87763334D01*
D23*
%TO.N,FMU_I2C_1_SDA*%
X65157800Y-117137800D02*
X66917800Y-117137800D01*
X76121462Y-115041200D02*
X81636262Y-120556000D01*
X66917800Y-117137800D02*
X67030000Y-117250000D01*
X67030000Y-117250000D02*
X69719738Y-117250000D01*
X76110410Y-115041200D02*
X76121462Y-115041200D01*
X94534000Y-120556000D02*
X95804000Y-121826000D01*
X76105210Y-115036000D02*
X76110410Y-115041200D01*
X69719738Y-117250000D02*
X71933738Y-115036000D01*
X71933738Y-115036000D02*
X76105210Y-115036000D01*
X95804000Y-121826000D02*
X101696000Y-121826000D01*
X65000000Y-116980000D02*
X65157800Y-117137800D01*
X101696000Y-121826000D02*
X103437300Y-123567300D01*
X81636262Y-120556000D02*
X94534000Y-120556000D01*
%TO.N,FMU_I2C_1_SCL*%
X76215620Y-114787200D02*
X76210420Y-114782000D01*
X76226672Y-114787200D02*
X76215620Y-114787200D01*
X76210420Y-114782000D02*
X71889580Y-114782000D01*
X81733472Y-120294000D02*
X76226672Y-114787200D01*
X100992582Y-121572000D02*
X95909210Y-121572000D01*
X65630000Y-116370000D02*
X64970000Y-115710000D01*
X71889580Y-114782000D02*
X71884380Y-114787200D01*
X71884380Y-114787200D02*
X71823328Y-114787200D01*
X95909210Y-121572000D02*
X94631210Y-120294000D01*
X94631210Y-120294000D02*
X81733472Y-120294000D01*
X101670000Y-120520000D02*
X101670000Y-120894582D01*
X70240528Y-116370000D02*
X65630000Y-116370000D01*
X101670000Y-120894582D02*
X100992582Y-121572000D01*
X71823328Y-114787200D02*
X70240528Y-116370000D01*
%TO.N,GPS1_RX*%
X100887372Y-121318000D02*
X101200000Y-121005372D01*
X68760000Y-115780000D02*
X69070000Y-115470000D01*
X66320000Y-115780000D02*
X68760000Y-115780000D01*
X69070000Y-115470000D02*
X70781318Y-115470000D01*
X76320830Y-114533200D02*
X76331882Y-114533200D01*
X76331882Y-114533200D02*
X81838682Y-120040000D01*
X71723318Y-114528000D02*
X76315630Y-114528000D01*
X101200000Y-121005372D02*
X101200000Y-120150000D01*
X70781318Y-115470000D02*
X71723318Y-114528000D01*
X76315630Y-114528000D02*
X76320830Y-114533200D01*
X81838682Y-120040000D02*
X94736420Y-120040000D01*
X96014420Y-121318000D02*
X100887372Y-121318000D01*
X65820000Y-115280000D02*
X66320000Y-115780000D01*
X94736420Y-120040000D02*
X96014420Y-121318000D01*
%TO.N,GPS1_TX*%
X69906000Y-114274000D02*
X69410000Y-114770000D01*
X65850000Y-114770000D02*
X65800000Y-114720000D01*
X100782162Y-119804123D02*
X100782162Y-121064000D01*
X94840430Y-119784800D02*
X81942692Y-119784800D01*
X81942692Y-119784800D02*
X76431892Y-114274000D01*
X69410000Y-114770000D02*
X65850000Y-114770000D01*
X96119630Y-121064000D02*
X94840430Y-119784800D01*
X76431892Y-114274000D02*
X69906000Y-114274000D01*
X100782162Y-121064000D02*
X96119630Y-121064000D01*
D24*
%TO.N,+VDD_5V_PERIPH*%
X107880000Y-133180000D02*
X106310000Y-133180000D01*
X69700800Y-113969200D02*
X69221400Y-114448600D01*
X105710000Y-133780000D02*
X105710000Y-134240000D01*
X110620000Y-133180000D02*
X108560000Y-133180000D01*
X110960000Y-134390000D02*
X110960000Y-133520000D01*
X108560000Y-133180000D02*
X108220000Y-133520000D01*
X108220000Y-134110000D02*
X108220000Y-133520000D01*
X76558144Y-113969200D02*
X69700800Y-113969200D01*
X69221400Y-114448600D02*
X66168600Y-114448600D01*
X66168600Y-114448600D02*
X65910000Y-114190000D01*
X106310000Y-133180000D02*
X105710000Y-133780000D01*
X82068944Y-119480000D02*
X76558144Y-113969200D01*
X100400000Y-119480000D02*
X82068944Y-119480000D01*
X108220000Y-133520000D02*
X107880000Y-133180000D01*
X110960000Y-133520000D02*
X110620000Y-133180000D01*
D23*
%TO.N,BATT_VOLTAGE_SENS_PROT*%
X82330000Y-119090000D02*
X104580000Y-119090000D01*
X113260000Y-122360000D02*
X113680000Y-122780000D01*
X61860000Y-116760000D02*
X62500000Y-116120000D01*
X62500000Y-114800000D02*
X63790000Y-113510000D01*
X62500000Y-116120000D02*
X62500000Y-114800000D01*
X113260000Y-121060000D02*
X113260000Y-122360000D01*
X104580000Y-119090000D02*
X105870000Y-120380000D01*
X76750000Y-113510000D02*
X82330000Y-119090000D01*
X63790000Y-113510000D02*
X76750000Y-113510000D01*
X105870000Y-120380000D02*
X112580000Y-120380000D01*
X112580000Y-120380000D02*
X113260000Y-121060000D01*
X113680000Y-122780000D02*
X114360000Y-122780000D01*
X61860000Y-117380000D02*
X61860000Y-116760000D01*
%TO.N,BATT_CURRENT_SENS_PROT*%
X104649210Y-118800000D02*
X82399210Y-118800000D01*
X63634790Y-113256000D02*
X62116000Y-114774790D01*
X76855210Y-113256000D02*
X63634790Y-113256000D01*
X82399210Y-118800000D02*
X76855210Y-113256000D01*
X105975210Y-120126000D02*
X104649210Y-118800000D01*
X112685210Y-120126000D02*
X105975210Y-120126000D01*
X113840000Y-122360000D02*
X113840000Y-121280790D01*
X113840000Y-121280790D02*
X112685210Y-120126000D01*
X62116000Y-114774790D02*
X62116000Y-115774000D01*
X62116000Y-115774000D02*
X61780000Y-116110000D01*
%TO.N,FMU-CH1-PROT*%
X123180000Y-118330000D02*
X134410000Y-118330000D01*
X116070000Y-125440000D02*
X123180000Y-118330000D01*
X101840000Y-128640000D02*
X101840000Y-126370000D01*
X101840000Y-126370000D02*
X102770000Y-125440000D01*
X102770000Y-125440000D02*
X116070000Y-125440000D01*
%TO.N,IO-CH8-PROT*%
X132470000Y-122490000D02*
X135680000Y-119280000D01*
X104730000Y-134610000D02*
X104962000Y-134842000D01*
X104962000Y-134842000D02*
X128483530Y-134842000D01*
X128483530Y-134842000D02*
X132470000Y-130855530D01*
X132470000Y-130855530D02*
X132470000Y-122490000D01*
X135680000Y-119280000D02*
X137170000Y-119280000D01*
%TO.N,IO-CH7-PROT*%
X104290000Y-134910000D02*
X104476000Y-135096000D01*
X135570000Y-119990000D02*
X137110000Y-119990000D01*
X104476000Y-135096000D02*
X128588740Y-135096000D01*
X128588740Y-135096000D02*
X132724000Y-130960740D01*
X132724000Y-130960740D02*
X132724000Y-122836000D01*
X132724000Y-122836000D02*
X135570000Y-119990000D01*
%TO.N,IO-CH6-PROT*%
X103750000Y-134520000D02*
X103750000Y-135210000D01*
X128693950Y-135350000D02*
X132978000Y-131065950D01*
X103890000Y-135350000D02*
X128693950Y-135350000D01*
X132978000Y-131065950D02*
X132978000Y-123916290D01*
X103750000Y-135210000D02*
X103890000Y-135350000D01*
X132978000Y-123916290D02*
X135674290Y-121220000D01*
X135674290Y-121220000D02*
X137090000Y-121220000D01*
%TO.N,IO-CH5-PROT*%
X135110000Y-122480000D02*
X137130000Y-122480000D01*
X103320979Y-134848867D02*
X103320979Y-135410979D01*
X133232000Y-131171160D02*
X133232000Y-124358000D01*
X103514000Y-135604000D02*
X128799160Y-135604000D01*
X133232000Y-124358000D02*
X135110000Y-122480000D01*
X128799160Y-135604000D02*
X133232000Y-131171160D01*
X103320979Y-135410979D02*
X103514000Y-135604000D01*
%TO.N,IO-CH4-PROT*%
X133486000Y-131276370D02*
X128904370Y-135858000D01*
X102820000Y-135570000D02*
X102820000Y-134860000D01*
X133486000Y-124544000D02*
X133486000Y-131276370D01*
X128904370Y-135858000D02*
X103108000Y-135858000D01*
X134310000Y-123720000D02*
X133486000Y-124544000D01*
X137190000Y-123720000D02*
X134310000Y-123720000D01*
X103108000Y-135858000D02*
X102820000Y-135570000D01*
%TO.N,IO-CH3-PROT*%
X135023230Y-124990000D02*
X137250000Y-124990000D01*
X102260000Y-135570000D02*
X102802000Y-136112000D01*
X129009580Y-136112000D02*
X133740000Y-131381580D01*
X134233230Y-125780000D02*
X135023230Y-124990000D01*
X102802000Y-136112000D02*
X129009580Y-136112000D01*
X102260000Y-134870000D02*
X102260000Y-135570000D01*
X133740000Y-131381580D02*
X133740000Y-126170000D01*
X133740000Y-126170000D02*
X134130000Y-125780000D01*
X134130000Y-125780000D02*
X134233230Y-125780000D01*
%TO.N,IO-CH2-PROT*%
X101750000Y-135580000D02*
X102536000Y-136366000D01*
X134070000Y-131410790D02*
X134070000Y-126390000D01*
X129114790Y-136366000D02*
X134070000Y-131410790D01*
X101750000Y-134780000D02*
X101750000Y-135580000D01*
X134070000Y-126390000D02*
X134220000Y-126240000D01*
X102536000Y-136366000D02*
X129114790Y-136366000D01*
%TO.N,IO-CH1-PROT*%
X134324000Y-130466000D02*
X137320000Y-127470000D01*
X102270000Y-136620000D02*
X129220000Y-136620000D01*
X101140000Y-135490000D02*
X102270000Y-136620000D01*
X101140000Y-134670000D02*
X101140000Y-135490000D01*
X134324000Y-131516000D02*
X134324000Y-130466000D01*
X129220000Y-136620000D02*
X134324000Y-131516000D01*
D25*
%TO.N,ETH_SPARE_RX_POSTMAG_N*%
X134439684Y-106250746D02*
X134875746Y-105814684D01*
X134875746Y-95974684D02*
X136046284Y-94804146D01*
X134120000Y-106200860D02*
X134169886Y-106250746D01*
X137040114Y-94804146D02*
X137090000Y-94754260D01*
X134169886Y-106250746D02*
X134439684Y-106250746D01*
X134875746Y-105814684D02*
X134875746Y-95974684D01*
X136046284Y-94804146D02*
X137040114Y-94804146D01*
%TO.N,ETH_SPARE_RX_POSTMAG_P*%
X134650316Y-106759254D02*
X135384254Y-106025316D01*
X135384254Y-106025316D02*
X135384254Y-96185316D01*
X135384254Y-96185316D02*
X136256916Y-95312654D01*
X137040114Y-95312654D02*
X137090000Y-95362540D01*
X134120000Y-106809140D02*
X134169886Y-106759254D01*
X134169886Y-106759254D02*
X134650316Y-106759254D01*
X136256916Y-95312654D02*
X137040114Y-95312654D01*
D23*
%TO.N,IRID_RX_OUT_3.3*%
X78770000Y-80050000D02*
X79640000Y-79180000D01*
X105480000Y-79180000D02*
X114120000Y-79180000D01*
X79640000Y-79180000D02*
X105480000Y-79180000D01*
X114120000Y-79180000D02*
X115300000Y-80360000D01*
X73230000Y-82460000D02*
X75640000Y-80050000D01*
X75640000Y-80050000D02*
X78770000Y-80050000D01*
D24*
%TO.N,SAFETY_VDD*%
X75890000Y-115600000D02*
X84070000Y-123780000D01*
X64986132Y-120720000D02*
X66016132Y-119690000D01*
X69162600Y-118597400D02*
X72160000Y-115600000D01*
X66016132Y-119690000D02*
X66930000Y-119690000D01*
X66930000Y-119690000D02*
X68022600Y-118597400D01*
X72160000Y-115600000D02*
X75890000Y-115600000D01*
X84070000Y-123780000D02*
X99280000Y-123780000D01*
X64880000Y-120720000D02*
X64986132Y-120720000D01*
X68022600Y-118597400D02*
X69162600Y-118597400D01*
D23*
%TO.N,SAFETY_SWITCH_IN*%
X103874349Y-123900000D02*
X103770000Y-123900000D01*
X72100000Y-115290000D02*
X72094800Y-115295200D01*
X76011052Y-115290000D02*
X72100000Y-115290000D01*
X94428790Y-120810000D02*
X81531052Y-120810000D01*
X103570000Y-124100000D02*
X102970000Y-124100000D01*
X72094800Y-115295200D02*
X72033748Y-115295200D01*
X103770000Y-123900000D02*
X103570000Y-124100000D01*
X69078948Y-118250000D02*
X64980000Y-118250000D01*
X100950000Y-122080000D02*
X95698790Y-122080000D01*
X102970000Y-124100000D02*
X100950000Y-122080000D01*
X72033748Y-115295200D02*
X69078948Y-118250000D01*
X95698790Y-122080000D02*
X94428790Y-120810000D01*
X81531052Y-120810000D02*
X76011052Y-115290000D01*
%TO.N,FMU-CH4-PROT*%
X126762370Y-113670000D02*
X115754370Y-124678000D01*
X134370000Y-113670000D02*
X126762370Y-113670000D01*
X102222790Y-124678000D02*
X99310000Y-127590790D01*
X99310000Y-127590790D02*
X99310000Y-129550000D01*
X115754370Y-124678000D02*
X102222790Y-124678000D01*
%TO.N,FMU-CH3-PROT*%
X100410000Y-126860000D02*
X100410000Y-126850000D01*
X125791580Y-115000000D02*
X134420000Y-115000000D01*
X115859580Y-124932000D02*
X125791580Y-115000000D01*
X100410000Y-126850000D02*
X102328000Y-124932000D01*
X99750000Y-127520000D02*
X100410000Y-126860000D01*
X102328000Y-124932000D02*
X115859580Y-124932000D01*
X99750000Y-128470000D02*
X99750000Y-127520000D01*
%TO.N,FMU-CH2-PROT*%
X102494790Y-125356000D02*
X102294790Y-125356000D01*
X125030790Y-116120000D02*
X115964790Y-125186000D01*
X134420000Y-116120000D02*
X125030790Y-116120000D01*
X101330000Y-126320790D02*
X101330000Y-128710000D01*
X102294790Y-125356000D02*
X101330000Y-126320790D01*
X115964790Y-125186000D02*
X102664790Y-125186000D01*
X102664790Y-125186000D02*
X102494790Y-125356000D01*
D26*
%TO.N,USB_EXT1_SSTX-*%
X116944184Y-99540810D02*
X113815816Y-99540810D01*
X113325816Y-99050810D02*
X101924184Y-99050810D01*
D27*
X100788154Y-100186840D02*
X87825230Y-100186840D01*
D26*
X101924184Y-99050810D02*
X101052497Y-99922497D01*
X117168671Y-99316323D02*
X116944184Y-99540810D01*
D27*
X87825230Y-100186840D02*
X87690000Y-100322070D01*
X101052497Y-99922497D02*
X100788154Y-100186840D01*
D26*
X117356323Y-99316323D02*
X117168671Y-99316323D01*
X113815816Y-99540810D02*
X113325816Y-99050810D01*
%TO.N,USB_EXT1_SSTX+*%
X116983677Y-99131329D02*
X116835816Y-99279190D01*
X113924184Y-99279190D02*
X113434184Y-98789190D01*
D27*
X87825230Y-99953160D02*
X87690000Y-99817930D01*
D26*
X113434184Y-98789190D02*
X101815816Y-98789190D01*
D27*
X100867503Y-99737503D02*
X100651846Y-99953160D01*
X100651846Y-99953160D02*
X87825230Y-99953160D01*
D26*
X101815816Y-98789190D02*
X100867503Y-99737503D01*
X116835816Y-99279190D02*
X113924184Y-99279190D01*
X116983677Y-98943677D02*
X116983677Y-99131329D01*
D23*
%TO.N,CAM1_GPIO*%
X107624290Y-91360000D02*
X108284290Y-90700000D01*
X109860000Y-85830000D02*
X107540000Y-85830000D01*
X108284290Y-90700000D02*
X108290000Y-90700000D01*
X105650000Y-90020000D02*
X105650000Y-90050000D01*
X105500000Y-89870000D02*
X105650000Y-90020000D01*
X112170000Y-80767300D02*
X112104700Y-80832600D01*
X107540000Y-85830000D02*
X105500000Y-87870000D01*
X105500000Y-87870000D02*
X105500000Y-89870000D01*
X106960000Y-91360000D02*
X107624290Y-91360000D01*
X112104700Y-83585300D02*
X109860000Y-85830000D01*
X105650000Y-90050000D02*
X106960000Y-91360000D01*
X112104700Y-80832600D02*
X112104700Y-83585300D01*
%TO.N,CAM1_MCLK*%
X112551641Y-81092037D02*
X112358700Y-81284978D01*
X106310000Y-87480000D02*
X105800000Y-87990000D01*
X107494000Y-91106000D02*
X107760000Y-90840000D01*
X107760000Y-90840000D02*
X107760000Y-90690000D01*
X112358700Y-86191300D02*
X111070000Y-87480000D01*
X111070000Y-87480000D02*
X106310000Y-87480000D01*
X107095210Y-91106000D02*
X107494000Y-91106000D01*
X105800000Y-87990000D02*
X105800000Y-89810790D01*
X105800000Y-89810790D02*
X107095210Y-91106000D01*
X112358700Y-81284978D02*
X112358700Y-86191300D01*
%TO.N,CAM1_SCL0*%
X106054000Y-89694000D02*
X107040000Y-90680000D01*
X107040000Y-90680000D02*
X107240000Y-90680000D01*
X113830000Y-80940000D02*
X113830000Y-85240000D01*
X106465710Y-87750000D02*
X106054000Y-88161710D01*
X106054000Y-88161710D02*
X106054000Y-89694000D01*
X113830000Y-85240000D02*
X111320000Y-87750000D01*
X111320000Y-87750000D02*
X106465710Y-87750000D01*
%TO.N,CAM1_SDA0*%
X114587800Y-87182200D02*
X113510000Y-88260000D01*
X114572700Y-80500000D02*
X114587800Y-80515100D01*
X114587800Y-80515100D02*
X114587800Y-87182200D01*
X106710000Y-88260000D02*
X106600000Y-88150000D01*
X113510000Y-88260000D02*
X106710000Y-88260000D01*
%TO.N,UART4_RX*%
X118980197Y-126340000D02*
X115360000Y-126340000D01*
X119167208Y-126152989D02*
X118980197Y-126340000D01*
X114660000Y-127040000D02*
X114660000Y-127480000D01*
X115360000Y-126340000D02*
X114660000Y-127040000D01*
%TO.N,UART4_TX*%
X114120000Y-127490000D02*
X114120000Y-126960000D01*
X114120000Y-126960000D02*
X115270000Y-125810000D01*
X115270000Y-125810000D02*
X119010000Y-125810000D01*
X119010000Y-125810000D02*
X119190000Y-125630000D01*
%TO.N,+SIM_VCC*%
X119113000Y-101927000D02*
X91557000Y-101927000D01*
X84980000Y-101310000D02*
X83310000Y-102980000D01*
X90940000Y-101310000D02*
X84980000Y-101310000D01*
X119490000Y-97760000D02*
X119490000Y-101550000D01*
X120580000Y-96670000D02*
X119490000Y-97760000D01*
X119490000Y-101550000D02*
X119113000Y-101927000D01*
X91557000Y-101927000D02*
X90940000Y-101310000D01*
X127120000Y-96670000D02*
X120580000Y-96670000D01*
X127650000Y-96140000D02*
X127120000Y-96670000D01*
%TO.N,Net-(D10-A)*%
X128030000Y-134220000D02*
X120890000Y-134220000D01*
X120890000Y-134220000D02*
X120780000Y-134330000D01*
%TO.N,OVERCUR2*%
X97410000Y-116670000D02*
X100570000Y-116670000D01*
X97290000Y-116550000D02*
X97410000Y-116670000D01*
X101140000Y-117240000D02*
X105321401Y-117240000D01*
X100570000Y-116670000D02*
X101140000Y-117240000D01*
D25*
%TO.N,JETSON_CAN+*%
X93765106Y-96144894D02*
X93324894Y-96144894D01*
X97980650Y-91929350D02*
X93765106Y-96144894D01*
X98020000Y-91929350D02*
X97980650Y-91929350D01*
%TO.N,JETSON_CAN-*%
X98650000Y-91929350D02*
X98640650Y-91929350D01*
X98640650Y-91929350D02*
X93895106Y-96674894D01*
X93895106Y-96674894D02*
X93895106Y-96715106D01*
D23*
%TO.N,BATT2_CURRENT_SENS_PROT*%
X115300000Y-123230000D02*
X115010000Y-122940000D01*
X82609630Y-118292000D02*
X104880420Y-118292000D01*
X77065630Y-112748000D02*
X82609630Y-118292000D01*
X114036420Y-119618000D02*
X116080000Y-121661580D01*
X62170000Y-113610000D02*
X63032000Y-112748000D01*
X116080000Y-122870000D02*
X115720000Y-123230000D01*
X106206420Y-119618000D02*
X114036420Y-119618000D01*
X61800000Y-113610000D02*
X62170000Y-113610000D01*
X104880420Y-118292000D02*
X106206420Y-119618000D01*
X115720000Y-123230000D02*
X115300000Y-123230000D01*
X116080000Y-121661580D02*
X116080000Y-122870000D01*
X63032000Y-112748000D02*
X77065630Y-112748000D01*
%TO.N,BATT2_VOLTAGE_SENS_PROT*%
X63408000Y-113002000D02*
X61730000Y-114680000D01*
X104775210Y-118546000D02*
X82504420Y-118546000D01*
X115350000Y-121290790D02*
X113945210Y-119886000D01*
X115350000Y-122320000D02*
X115350000Y-121290790D01*
X113945210Y-119886000D02*
X113385210Y-119886000D01*
X113385210Y-119886000D02*
X113371210Y-119872000D01*
X113371210Y-119872000D02*
X106101210Y-119872000D01*
X76960420Y-113002000D02*
X63408000Y-113002000D01*
X82504420Y-118546000D02*
X76960420Y-113002000D01*
X106101210Y-119872000D02*
X104775210Y-118546000D01*
%TO.N,SPARE1_ADC1*%
X93065744Y-117871709D02*
X93232035Y-118038000D01*
X114154790Y-119364000D02*
X116740000Y-121949210D01*
X104985630Y-118038000D02*
X106311630Y-119364000D01*
X116740000Y-121949210D02*
X116740000Y-122220000D01*
X106311630Y-119364000D02*
X114154790Y-119364000D01*
X93232035Y-118038000D02*
X104985630Y-118038000D01*
%TO.N,SPARE2_ADC1*%
X105090840Y-117784000D02*
X106416840Y-119110000D01*
X97784000Y-117784000D02*
X105090840Y-117784000D01*
X97100000Y-117090000D02*
X97100000Y-117100000D01*
X114260000Y-119110000D02*
X115860000Y-120710000D01*
X97100000Y-117100000D02*
X97784000Y-117784000D01*
X115860000Y-120710000D02*
X117180000Y-120710000D01*
X106416840Y-119110000D02*
X114260000Y-119110000D01*
%TO.N,VBUS_CELL*%
X71810000Y-106720000D02*
X72070000Y-106720000D01*
X75572200Y-103217800D02*
X79892200Y-103217800D01*
X79892200Y-103217800D02*
X85890000Y-97220000D01*
X72070000Y-106720000D02*
X75572200Y-103217800D01*
X85890000Y-97220000D02*
X98370000Y-97220000D01*
X98370000Y-97220000D02*
X98950000Y-96640000D01*
%TO.N,SIM_RESET*%
X103560000Y-98170000D02*
X93270000Y-98170000D01*
X93270000Y-98170000D02*
X92490000Y-98950000D01*
X77440000Y-109760000D02*
X78000000Y-110320000D01*
X78395001Y-110310000D02*
X84010000Y-110310000D01*
X113198000Y-97198000D02*
X104532000Y-97198000D01*
X78385001Y-110320000D02*
X78395001Y-110310000D01*
X115170000Y-97540000D02*
X113540000Y-97540000D01*
X113540000Y-97540000D02*
X113198000Y-97198000D01*
X117371570Y-96760000D02*
X115950000Y-96760000D01*
X89220000Y-105100000D02*
X89220000Y-104260000D01*
X76620000Y-110000000D02*
X76860000Y-109760000D01*
X124520000Y-95250000D02*
X118881570Y-95250000D01*
X115950000Y-96760000D02*
X115170000Y-97540000D01*
X125160000Y-94710000D02*
X125060000Y-94710000D01*
X118881570Y-95250000D02*
X117371570Y-96760000D01*
X104532000Y-97198000D02*
X103560000Y-98170000D01*
X84010000Y-110310000D02*
X89220000Y-105100000D01*
X76860000Y-109760000D02*
X77440000Y-109760000D01*
X78000000Y-110320000D02*
X78385001Y-110320000D01*
X74730000Y-110000000D02*
X76620000Y-110000000D01*
X125060000Y-94710000D02*
X124520000Y-95250000D01*
%TO.N,SIM_CLK*%
X123428800Y-93621200D02*
X123490000Y-93560000D01*
X113140000Y-96690000D02*
X116208800Y-93621200D01*
X116208800Y-93621200D02*
X123428800Y-93621200D01*
X104260000Y-96690000D02*
X113140000Y-96690000D01*
X103300000Y-97650000D02*
X104260000Y-96690000D01*
X89220000Y-99210000D02*
X90780000Y-97650000D01*
X90780000Y-97650000D02*
X103300000Y-97650000D01*
%TO.N,SIM_DETECT*%
X115889010Y-94322200D02*
X129492200Y-94322200D01*
X129870000Y-94700000D02*
X129492200Y-94322200D01*
X113263210Y-96926000D02*
X113245210Y-96944000D01*
X92104000Y-97916000D02*
X90850000Y-99170000D01*
X104426790Y-96944000D02*
X103454790Y-97916000D01*
X113245210Y-96944000D02*
X104426790Y-96944000D01*
X90850000Y-99170000D02*
X90850000Y-99180000D01*
X113285210Y-96926000D02*
X113263210Y-96926000D01*
X103454790Y-97916000D02*
X92104000Y-97916000D01*
X115889010Y-94322200D02*
X113285210Y-96926000D01*
D28*
%TO.N,+5V_PROT*%
X76839800Y-110989800D02*
X72751853Y-110989800D01*
X89900000Y-117310000D02*
X83160000Y-117310000D01*
X72751853Y-110989800D02*
X66310000Y-104547947D01*
X83160000Y-117310000D02*
X76839800Y-110989800D01*
X90115000Y-117095000D02*
X89900000Y-117310000D01*
X66310000Y-104547947D02*
X66310000Y-102250000D01*
D23*
%TO.N,Net-(J13-Pin_6)*%
X91790700Y-118038000D02*
X91980000Y-117848700D01*
X61810000Y-112540000D02*
X61856000Y-112494000D01*
X77170840Y-112494000D02*
X82714840Y-118038000D01*
X61856000Y-112494000D02*
X77170840Y-112494000D01*
X82714840Y-118038000D02*
X91790700Y-118038000D01*
%TO.N,Net-(J13-Pin_7)*%
X77276050Y-112240000D02*
X82820050Y-117784000D01*
X82890000Y-117784000D02*
X91366000Y-117784000D01*
X61840000Y-111270000D02*
X62810000Y-112240000D01*
X91366000Y-117784000D02*
X91760000Y-117390000D01*
X61840000Y-111170000D02*
X61840000Y-111270000D01*
X62810000Y-112240000D02*
X77276050Y-112240000D01*
X91760000Y-117390000D02*
X95703592Y-117390000D01*
X95703592Y-117390000D02*
X95873592Y-117560000D01*
X82820050Y-117784000D02*
X82890000Y-117784000D01*
%TD*%
M02*
