%TF.GenerationSoftware,KiCad,Pcbnew,7.0.6-rc1-29-g152dc56df4*%
%TF.CreationDate,2023-07-03T16:00:48-04:00*%
%TF.ProjectId,pixc4-jetson-universal-carrier,70697863-342d-46a6-9574-736f6e2d756e,rev?*%
%TF.SameCoordinates,Original*%
%TF.FileFunction,Soldermask,Top*%
%TF.FilePolarity,Negative*%
%FSLAX46Y46*%
G04 Gerber Fmt 4.6, Leading zero omitted, Abs format (unit mm)*
G04 Created by KiCad (PCBNEW 7.0.6-rc1-29-g152dc56df4) date 2023-07-03 16:00:48*
%MOMM*%
%LPD*%
G01*
G04 APERTURE LIST*
G04 Aperture macros list*
%AMRoundRect*
0 Rectangle with rounded corners*
0 $1 Rounding radius*
0 $2 $3 $4 $5 $6 $7 $8 $9 X,Y pos of 4 corners*
0 Add a 4 corners polygon primitive as box body*
4,1,4,$2,$3,$4,$5,$6,$7,$8,$9,$2,$3,0*
0 Add four circle primitives for the rounded corners*
1,1,$1+$1,$2,$3*
1,1,$1+$1,$4,$5*
1,1,$1+$1,$6,$7*
1,1,$1+$1,$8,$9*
0 Add four rect primitives between the rounded corners*
20,1,$1+$1,$2,$3,$4,$5,0*
20,1,$1+$1,$4,$5,$6,$7,0*
20,1,$1+$1,$6,$7,$8,$9,0*
20,1,$1+$1,$8,$9,$2,$3,0*%
G04 Aperture macros list end*
%ADD10R,2.500000X1.000000*%
%ADD11R,1.100000X1.100000*%
%ADD12R,0.700000X0.600000*%
%ADD13RoundRect,0.150000X0.700000X-0.150000X0.700000X0.150000X-0.700000X0.150000X-0.700000X-0.150000X0*%
%ADD14RoundRect,0.250000X1.100000X-0.250000X1.100000X0.250000X-1.100000X0.250000X-1.100000X-0.250000X0*%
%ADD15R,2.200000X3.100000*%
%ADD16R,0.800000X1.700000*%
%ADD17RoundRect,0.150000X-0.700000X0.150000X-0.700000X-0.150000X0.700000X-0.150000X0.700000X0.150000X0*%
%ADD18RoundRect,0.250000X-1.100000X0.250000X-1.100000X-0.250000X1.100000X-0.250000X1.100000X0.250000X0*%
%ADD19C,1.400000*%
%ADD20R,3.500000X3.500000*%
%ADD21C,3.500000*%
%ADD22R,0.600000X0.400000*%
%ADD23RoundRect,0.100000X0.100000X-0.130000X0.100000X0.130000X-0.100000X0.130000X-0.100000X-0.130000X0*%
%ADD24RoundRect,0.100000X-0.130000X-0.100000X0.130000X-0.100000X0.130000X0.100000X-0.130000X0.100000X0*%
%ADD25R,1.000000X1.600000*%
%ADD26R,1.600000X1.000000*%
%ADD27R,0.350000X0.300000*%
%ADD28R,0.300000X0.350000*%
%ADD29R,0.600000X0.500000*%
%ADD30RoundRect,0.100000X0.130000X0.100000X-0.130000X0.100000X-0.130000X-0.100000X0.130000X-0.100000X0*%
%ADD31R,0.320000X0.860000*%
%ADD32R,3.000000X2.600000*%
%ADD33R,3.098800X5.207000*%
%ADD34R,0.990600X1.143000*%
%ADD35RoundRect,0.100000X-0.100000X0.130000X-0.100000X-0.130000X0.100000X-0.130000X0.100000X0.130000X0*%
%ADD36R,0.800000X0.900000*%
%ADD37R,4.100000X3.500000*%
%ADD38R,4.099999X3.500001*%
%ADD39C,0.800000*%
%ADD40C,5.400000*%
%ADD41R,0.300000X1.900000*%
%ADD42C,1.600000*%
%ADD43R,2.450000X3.200000*%
%ADD44R,0.800000X0.800000*%
%ADD45C,1.000000*%
%ADD46RoundRect,0.150000X-0.150000X-0.700000X0.150000X-0.700000X0.150000X0.700000X-0.150000X0.700000X0*%
%ADD47RoundRect,0.250000X-0.250000X-1.100000X0.250000X-1.100000X0.250000X1.100000X-0.250000X1.100000X0*%
%ADD48R,1.800000X3.400000*%
%ADD49RoundRect,0.225000X-0.225000X-0.250000X0.225000X-0.250000X0.225000X0.250000X-0.225000X0.250000X0*%
%ADD50RoundRect,0.012800X-0.147200X0.407200X-0.147200X-0.407200X0.147200X-0.407200X0.147200X0.407200X0*%
%ADD51RoundRect,0.012800X-0.407200X-0.147200X0.407200X-0.147200X0.407200X0.147200X-0.407200X0.147200X0*%
%ADD52R,3.100000X3.100000*%
%ADD53R,1.549400X2.692400*%
%ADD54RoundRect,0.140000X0.140000X0.170000X-0.140000X0.170000X-0.140000X-0.170000X0.140000X-0.170000X0*%
%ADD55R,0.635000X0.304800*%
%ADD56R,0.457200X1.295400*%
%ADD57RoundRect,0.250000X0.250000X0.475000X-0.250000X0.475000X-0.250000X-0.475000X0.250000X-0.475000X0*%
%ADD58RoundRect,0.218750X-0.218750X-0.256250X0.218750X-0.256250X0.218750X0.256250X-0.218750X0.256250X0*%
%ADD59RoundRect,0.250000X-0.300000X-0.300000X0.300000X-0.300000X0.300000X0.300000X-0.300000X0.300000X0*%
%ADD60RoundRect,0.250000X0.325000X0.650000X-0.325000X0.650000X-0.325000X-0.650000X0.325000X-0.650000X0*%
%ADD61R,1.350000X2.200000*%
%ADD62R,1.524000X0.533400*%
%ADD63R,4.648200X5.054600*%
%ADD64R,0.850000X0.280000*%
%ADD65R,0.280000X0.700000*%
%ADD66R,1.650000X2.400000*%
%ADD67R,0.804800X0.249200*%
%ADD68R,1.800000X3.400001*%
%ADD69RoundRect,0.147500X0.172500X-0.147500X0.172500X0.147500X-0.172500X0.147500X-0.172500X-0.147500X0*%
%ADD70RoundRect,0.125000X-0.537500X-0.125000X0.537500X-0.125000X0.537500X0.125000X-0.537500X0.125000X0*%
%ADD71RoundRect,0.218750X0.218750X0.256250X-0.218750X0.256250X-0.218750X-0.256250X0.218750X-0.256250X0*%
%ADD72RoundRect,0.147500X-0.147500X-0.172500X0.147500X-0.172500X0.147500X0.172500X-0.147500X0.172500X0*%
%ADD73RoundRect,0.225000X0.225000X0.250000X-0.225000X0.250000X-0.225000X-0.250000X0.225000X-0.250000X0*%
%ADD74RoundRect,0.225000X0.250000X-0.225000X0.250000X0.225000X-0.250000X0.225000X-0.250000X-0.225000X0*%
%ADD75RoundRect,0.250000X-0.325000X-0.650000X0.325000X-0.650000X0.325000X0.650000X-0.325000X0.650000X0*%
%ADD76C,1.200000*%
%ADD77C,3.900000*%
%ADD78C,1.150000*%
%ADD79C,1.650000*%
G04 APERTURE END LIST*
D10*
%TO.C,C9*%
X78392200Y-90238400D03*
X78392200Y-87238400D03*
%TD*%
D11*
%TO.C,D1*%
X75532200Y-92333400D03*
X75532200Y-89533400D03*
%TD*%
D12*
%TO.C,D6*%
X89392200Y-90618400D03*
X89392200Y-89218400D03*
%TD*%
D13*
%TO.C,J9*%
X135872200Y-95683400D03*
X135872200Y-94433400D03*
X135872200Y-93183400D03*
X135872200Y-91933400D03*
D14*
X139072200Y-97533400D03*
X139072200Y-90083400D03*
%TD*%
D15*
%TO.C,J10*%
X86915800Y-80993320D03*
X70665800Y-80993320D03*
D16*
X84415800Y-83893320D03*
X83165800Y-83893320D03*
X81915800Y-83893320D03*
X80665800Y-83893320D03*
X79415800Y-83893320D03*
X78165800Y-83893320D03*
X76915800Y-83893320D03*
X75665800Y-83893320D03*
X74415800Y-83893320D03*
X73165800Y-83893320D03*
%TD*%
D17*
%TO.C,J20*%
X63220000Y-112000000D03*
X63220000Y-113250000D03*
X63220000Y-114500000D03*
X63220000Y-115750000D03*
X63220000Y-117000000D03*
X63220000Y-118250000D03*
X63220000Y-119500000D03*
X63220000Y-120750000D03*
X63220000Y-122000000D03*
X63220000Y-123250000D03*
D18*
X60020000Y-110150000D03*
X60020000Y-125100000D03*
%TD*%
D19*
%TO.C,J27*%
X61310700Y-97173560D03*
X61310700Y-86173560D03*
D20*
X71310700Y-89173560D03*
D21*
X71310700Y-94173560D03*
%TD*%
D22*
%TO.C,R5*%
X78352200Y-92418400D03*
X78352200Y-91518400D03*
%TD*%
D23*
%TO.C,R12*%
X92920300Y-107378300D03*
X92920300Y-106738300D03*
%TD*%
D24*
%TO.C,R18*%
X88687200Y-87908400D03*
X89327200Y-87908400D03*
%TD*%
D25*
%TO.C,C7*%
X96812200Y-96718400D03*
X99812200Y-96718400D03*
%TD*%
D26*
%TO.C,C24*%
X101593520Y-108501100D03*
X101593520Y-105501100D03*
%TD*%
D25*
%TO.C,C10*%
X96812200Y-98963500D03*
X99812200Y-98963500D03*
%TD*%
%TO.C,C12*%
X96807200Y-101228400D03*
X99807200Y-101228400D03*
%TD*%
D27*
%TO.C,C14*%
X92092200Y-104098400D03*
X92092200Y-104658400D03*
%TD*%
D28*
%TO.C,C16*%
X95265300Y-108823300D03*
X95825300Y-108823300D03*
%TD*%
D26*
%TO.C,C22*%
X99381180Y-108485860D03*
X99381180Y-105485860D03*
%TD*%
%TO.C,C26*%
X103770300Y-108498300D03*
X103770300Y-105498300D03*
%TD*%
D29*
%TO.C,C18*%
X94370300Y-109623300D03*
X95470300Y-109623300D03*
%TD*%
D28*
%TO.C,C20*%
X97925300Y-102773300D03*
X97365300Y-102773300D03*
%TD*%
D30*
%TO.C,R6*%
X94732200Y-108818400D03*
X94092200Y-108818400D03*
%TD*%
D23*
%TO.C,R8*%
X93072200Y-104698400D03*
X93072200Y-104058400D03*
%TD*%
D31*
%TO.C,U3*%
X97370300Y-103788300D03*
X96570300Y-103788300D03*
X95770300Y-103788300D03*
X94970300Y-103788300D03*
X94170300Y-103788300D03*
X94170300Y-107658300D03*
X94970300Y-107658300D03*
X95770300Y-107658300D03*
X96570300Y-107658300D03*
X97370300Y-107658300D03*
D32*
X95770300Y-105723300D03*
%TD*%
D33*
%TO.C,D2*%
X89845300Y-109802400D03*
D34*
X90765301Y-105814600D03*
X88925299Y-105814600D03*
%TD*%
D35*
%TO.C,R19*%
X105257600Y-123657400D03*
X105257600Y-124297400D03*
%TD*%
D36*
%TO.C,Q1*%
X109590000Y-123240000D03*
X111490000Y-123240000D03*
X110540000Y-121240000D03*
%TD*%
D23*
%TO.C,R1*%
X108310000Y-123055000D03*
X108310000Y-122415000D03*
%TD*%
%TO.C,R2*%
X108330000Y-121560000D03*
X108330000Y-120920000D03*
%TD*%
D30*
%TO.C,R7*%
X76322200Y-108768400D03*
X75682200Y-108768400D03*
%TD*%
D23*
%TO.C,R9*%
X74645300Y-104518300D03*
X74645300Y-103878300D03*
%TD*%
D37*
%TO.C,L2*%
X75570300Y-115573300D03*
D38*
X85070300Y-115573300D03*
%TD*%
D23*
%TO.C,R14*%
X74770300Y-109248300D03*
X74770300Y-108608300D03*
%TD*%
D26*
%TO.C,C25*%
X83345300Y-108348300D03*
X83345300Y-105348300D03*
%TD*%
D25*
%TO.C,C13*%
X81698200Y-96746400D03*
X84698200Y-96746400D03*
%TD*%
D26*
%TO.C,C23*%
X81045300Y-108373300D03*
X81045300Y-105373300D03*
%TD*%
D28*
%TO.C,C17*%
X76862200Y-108768400D03*
X77422200Y-108768400D03*
%TD*%
D25*
%TO.C,C11*%
X81712200Y-98948400D03*
X84712200Y-98948400D03*
%TD*%
%TO.C,C8*%
X81712200Y-101148400D03*
X84712200Y-101148400D03*
%TD*%
D29*
%TO.C,C19*%
X75962200Y-109728400D03*
X77062200Y-109728400D03*
%TD*%
D27*
%TO.C,C15*%
X73645300Y-103918300D03*
X73645300Y-104478300D03*
%TD*%
D28*
%TO.C,C21*%
X79625300Y-102723300D03*
X79065300Y-102723300D03*
%TD*%
D26*
%TO.C,C27*%
X85570300Y-108348300D03*
X85570300Y-105348300D03*
%TD*%
D31*
%TO.C,U4*%
X79045300Y-103788300D03*
X78245300Y-103788300D03*
X77445300Y-103788300D03*
X76645300Y-103788300D03*
X75845300Y-103788300D03*
X75845300Y-107658300D03*
X76645300Y-107658300D03*
X77445300Y-107658300D03*
X78245300Y-107658300D03*
X79045300Y-107658300D03*
D32*
X77445300Y-105723300D03*
%TD*%
D23*
%TO.C,R15*%
X74770300Y-107918300D03*
X74770300Y-107278300D03*
%TD*%
D33*
%TO.C,D3*%
X71920300Y-109752400D03*
D34*
X72840301Y-105764600D03*
X71000299Y-105764600D03*
%TD*%
D39*
%TO.C,J1*%
X59475000Y-81750000D03*
X60068109Y-80318109D03*
X60068109Y-83181891D03*
X61500000Y-79725000D03*
D40*
X61500000Y-81750000D03*
D39*
X61500000Y-83775000D03*
X62931891Y-80318109D03*
X62931891Y-83181891D03*
X63525000Y-81750000D03*
%TD*%
%TO.C,J2*%
X59475000Y-133750000D03*
X60068109Y-132318109D03*
X60068109Y-135181891D03*
X61500000Y-131725000D03*
D40*
X61500000Y-133750000D03*
D39*
X61500000Y-135775000D03*
X62931891Y-132318109D03*
X62931891Y-135181891D03*
X63525000Y-133750000D03*
%TD*%
%TO.C,J3*%
X135475000Y-81750000D03*
X136068109Y-80318109D03*
X136068109Y-83181891D03*
X137500000Y-79725000D03*
D40*
X137500000Y-81750000D03*
D39*
X137500000Y-83775000D03*
X138931891Y-80318109D03*
X138931891Y-83181891D03*
X139525000Y-81750000D03*
%TD*%
%TO.C,J4*%
X135475000Y-133750000D03*
X136068109Y-132318109D03*
X136068109Y-135181891D03*
X137500000Y-131725000D03*
D40*
X137500000Y-133750000D03*
D39*
X137500000Y-135775000D03*
X138931891Y-132318109D03*
X138931891Y-135181891D03*
X139525000Y-133750000D03*
%TD*%
D41*
%TO.C,J5*%
X98250000Y-89400000D03*
X98750000Y-89400000D03*
X99250000Y-89400000D03*
X99750000Y-89400000D03*
X100250000Y-89400000D03*
X100750000Y-89400000D03*
X101250000Y-89400000D03*
X101750000Y-89400000D03*
X102250000Y-89400000D03*
X102750000Y-89400000D03*
X103250000Y-89400000D03*
X103750000Y-89400000D03*
X104250000Y-89400000D03*
X104750000Y-89400000D03*
X105250000Y-89400000D03*
X105750000Y-89400000D03*
X106250000Y-89400000D03*
X106750000Y-89400000D03*
X107250000Y-89400000D03*
X107750000Y-89400000D03*
X108250000Y-89400000D03*
X108750000Y-89400000D03*
X109250000Y-89400000D03*
X109750000Y-89400000D03*
X110250000Y-89400000D03*
X110750000Y-89400000D03*
X111250000Y-89400000D03*
X111750000Y-89400000D03*
X112250000Y-89400000D03*
X112750000Y-89400000D03*
X113250000Y-89400000D03*
X113750000Y-89400000D03*
X114250000Y-89400000D03*
X114750000Y-89400000D03*
X115250000Y-89400000D03*
X115750000Y-89400000D03*
X116250000Y-89400000D03*
X116750000Y-89400000D03*
X117250000Y-89400000D03*
X117750000Y-89400000D03*
X98250000Y-83100000D03*
X98750000Y-83100000D03*
X99250000Y-83100000D03*
X99750000Y-83100000D03*
X100250000Y-83100000D03*
X100750000Y-83100000D03*
X101250000Y-83100000D03*
X101750000Y-83100000D03*
X102250000Y-83100000D03*
X102750000Y-83100000D03*
X103250000Y-83100000D03*
X103750000Y-83100000D03*
X104250000Y-83100000D03*
X104750000Y-83100000D03*
X105250000Y-83100000D03*
X105750000Y-83100000D03*
X106250000Y-83100000D03*
X106750000Y-83100000D03*
X107250000Y-83100000D03*
X107750000Y-83100000D03*
X108250000Y-83100000D03*
X108750000Y-83100000D03*
X109250000Y-83100000D03*
X109750000Y-83100000D03*
X110250000Y-83100000D03*
X110750000Y-83100000D03*
X111250000Y-83100000D03*
X111750000Y-83100000D03*
X112250000Y-83100000D03*
X112750000Y-83100000D03*
X113250000Y-83100000D03*
X113750000Y-83100000D03*
X114250000Y-83100000D03*
X114750000Y-83100000D03*
X115250000Y-83100000D03*
X115750000Y-83100000D03*
X116250000Y-83100000D03*
X116750000Y-83100000D03*
X117250000Y-83100000D03*
X117750000Y-83100000D03*
D42*
X95750000Y-88625000D03*
X120250000Y-88625000D03*
X95750000Y-83875000D03*
X120250000Y-83875000D03*
D43*
X91825000Y-86250000D03*
X124175000Y-86250000D03*
%TD*%
D41*
%TO.C,J6*%
X98250000Y-132400000D03*
X98750000Y-132400000D03*
X99250000Y-132400000D03*
X99750000Y-132400000D03*
X100250000Y-132400000D03*
X100750000Y-132400000D03*
X101250000Y-132400000D03*
X101750000Y-132400000D03*
X102250000Y-132400000D03*
X102750000Y-132400000D03*
X103250000Y-132400000D03*
X103750000Y-132400000D03*
X104250000Y-132400000D03*
X104750000Y-132400000D03*
X105250000Y-132400000D03*
X105750000Y-132400000D03*
X106250000Y-132400000D03*
X106750000Y-132400000D03*
X107250000Y-132400000D03*
X107750000Y-132400000D03*
X108250000Y-132400000D03*
X108750000Y-132400000D03*
X109250000Y-132400000D03*
X109750000Y-132400000D03*
X110250000Y-132400000D03*
X110750000Y-132400000D03*
X111250000Y-132400000D03*
X111750000Y-132400000D03*
X112250000Y-132400000D03*
X112750000Y-132400000D03*
X113250000Y-132400000D03*
X113750000Y-132400000D03*
X114250000Y-132400000D03*
X114750000Y-132400000D03*
X115250000Y-132400000D03*
X115750000Y-132400000D03*
X116250000Y-132400000D03*
X116750000Y-132400000D03*
X117250000Y-132400000D03*
X117750000Y-132400000D03*
X98250000Y-126100000D03*
X98750000Y-126100000D03*
X99250000Y-126100000D03*
X99750000Y-126100000D03*
X100250000Y-126100000D03*
X100750000Y-126100000D03*
X101250000Y-126100000D03*
X101750000Y-126100000D03*
X102250000Y-126100000D03*
X102750000Y-126100000D03*
X103250000Y-126100000D03*
X103750000Y-126100000D03*
X104250000Y-126100000D03*
X104750000Y-126100000D03*
X105250000Y-126100000D03*
X105750000Y-126100000D03*
X106250000Y-126100000D03*
X106750000Y-126100000D03*
X107250000Y-126100000D03*
X107750000Y-126100000D03*
X108250000Y-126100000D03*
X108750000Y-126100000D03*
X109250000Y-126100000D03*
X109750000Y-126100000D03*
X110250000Y-126100000D03*
X110750000Y-126100000D03*
X111250000Y-126100000D03*
X111750000Y-126100000D03*
X112250000Y-126100000D03*
X112750000Y-126100000D03*
X113250000Y-126100000D03*
X113750000Y-126100000D03*
X114250000Y-126100000D03*
X114750000Y-126100000D03*
X115250000Y-126100000D03*
X115750000Y-126100000D03*
X116250000Y-126100000D03*
X116750000Y-126100000D03*
X117250000Y-126100000D03*
X117750000Y-126100000D03*
D42*
X95750000Y-131625000D03*
X120250000Y-131625000D03*
X95750000Y-126875000D03*
X120250000Y-126875000D03*
D43*
X91825000Y-129250000D03*
X124175000Y-129250000D03*
%TD*%
D44*
%TO.C,D4*%
X60858400Y-128714400D03*
X60858400Y-127114400D03*
%TD*%
%TO.C,D5*%
X62331600Y-128714400D03*
X62331600Y-127114400D03*
%TD*%
D45*
%TO.C,FID1*%
X71000000Y-125670000D03*
%TD*%
%TO.C,FID4*%
X103490000Y-91480000D03*
%TD*%
D46*
%TO.C,J12*%
X76150000Y-132210000D03*
X77400000Y-132210000D03*
X78650000Y-132210000D03*
X79900000Y-132210000D03*
D47*
X74300000Y-135410000D03*
X81750000Y-135410000D03*
%TD*%
D37*
%TO.C,L1*%
X93470300Y-115573300D03*
D38*
X102970300Y-115573300D03*
%TD*%
D30*
%TO.C,R16*%
X59430000Y-129590000D03*
X58790000Y-129590000D03*
%TD*%
D24*
%TO.C,R17*%
X63740000Y-129620000D03*
X64380000Y-129620000D03*
%TD*%
D48*
%TO.C,TP1*%
X129370000Y-126320000D03*
%TD*%
D45*
%TO.C,FID2*%
X127800000Y-112080000D03*
%TD*%
D49*
%TO.C,C63*%
X105968200Y-103581200D03*
X107518200Y-103581200D03*
%TD*%
D30*
%TO.C,C72*%
X126350000Y-95960000D03*
X125710000Y-95960000D03*
%TD*%
D50*
%TO.C,U7*%
X123910800Y-119770800D03*
X123110800Y-119770800D03*
X122310800Y-119770800D03*
X121510800Y-119770800D03*
D51*
X120275800Y-121005800D03*
X120275800Y-121805800D03*
X120275800Y-122605800D03*
X120275800Y-123405800D03*
D50*
X121510800Y-124640800D03*
X122310800Y-124640800D03*
X123110800Y-124640800D03*
X123910800Y-124640800D03*
D51*
X125145800Y-123405800D03*
X125145800Y-122605800D03*
X125145800Y-121805800D03*
X125145800Y-121005800D03*
D52*
X122710800Y-122205800D03*
%TD*%
D23*
%TO.C,C71*%
X121890000Y-105610000D03*
X121890000Y-104970000D03*
%TD*%
D24*
%TO.C,R20*%
X118653600Y-98221800D03*
X119293600Y-98221800D03*
%TD*%
%TO.C,R28*%
X69748000Y-116611400D03*
X70388000Y-116611400D03*
%TD*%
D30*
%TO.C,C65*%
X117134600Y-100076000D03*
X116494600Y-100076000D03*
%TD*%
D53*
%TO.C,L3*%
X69583300Y-122199400D03*
X66916300Y-122199400D03*
%TD*%
D46*
%TO.C,J34*%
X127410000Y-132150000D03*
X128660000Y-132150000D03*
X129910000Y-132150000D03*
X131160000Y-132150000D03*
D47*
X125560000Y-135350000D03*
X133010000Y-135350000D03*
%TD*%
D54*
%TO.C,C36*%
X126108400Y-118211600D03*
X125148400Y-118211600D03*
%TD*%
D35*
%TO.C,C61*%
X114528600Y-91602600D03*
X114528600Y-92242600D03*
%TD*%
D30*
%TO.C,C64*%
X109779200Y-103428800D03*
X109139200Y-103428800D03*
%TD*%
%TO.C,R24*%
X92780000Y-123050000D03*
X92140000Y-123050000D03*
%TD*%
%TO.C,R31*%
X68874600Y-115087400D03*
X68234600Y-115087400D03*
%TD*%
D55*
%TO.C,U13*%
X124993400Y-91795600D03*
X124993400Y-92303600D03*
X124993400Y-92811600D03*
X126517400Y-92811600D03*
X126517400Y-92303600D03*
X126517400Y-91795600D03*
D56*
X125755400Y-92303600D03*
%TD*%
D57*
%TO.C,C33*%
X122108000Y-93014800D03*
X120208000Y-93014800D03*
%TD*%
D35*
%TO.C,C39*%
X126466600Y-123007600D03*
X126466600Y-123647600D03*
%TD*%
D58*
%TO.C,D7*%
X84030000Y-125690000D03*
X85605000Y-125690000D03*
%TD*%
D30*
%TO.C,R21*%
X119293600Y-97510600D03*
X118653600Y-97510600D03*
%TD*%
%TO.C,R13*%
X119293600Y-101193600D03*
X118653600Y-101193600D03*
%TD*%
D23*
%TO.C,R10*%
X92920300Y-108643300D03*
X92920300Y-108003300D03*
%TD*%
D59*
%TO.C,D9*%
X75946000Y-98933000D03*
X78746000Y-98933000D03*
%TD*%
D57*
%TO.C,C32*%
X118399600Y-103200200D03*
X116499600Y-103200200D03*
%TD*%
D13*
%TO.C,J15*%
X135872200Y-105354600D03*
X135872200Y-104104600D03*
X135872200Y-102854600D03*
X135872200Y-101604600D03*
D14*
X139072200Y-107204600D03*
X139072200Y-99754600D03*
%TD*%
D60*
%TO.C,C93*%
X85560000Y-127700000D03*
X82610000Y-127700000D03*
%TD*%
D61*
%TO.C,L5*%
X120108000Y-95351600D03*
X122208000Y-95351600D03*
%TD*%
D35*
%TO.C,C46*%
X66979800Y-119288600D03*
X66979800Y-119928600D03*
%TD*%
D62*
%TO.C,Q2*%
X87249000Y-92973400D03*
X87249000Y-91703400D03*
X87249000Y-90433400D03*
X87249000Y-89163400D03*
D63*
X82638900Y-91068400D03*
%TD*%
D24*
%TO.C,R11*%
X118653600Y-100482400D03*
X119293600Y-100482400D03*
%TD*%
D64*
%TO.C,U6*%
X87905800Y-121266200D03*
X87905800Y-121766200D03*
X87905800Y-122266200D03*
X87905800Y-122766200D03*
X87905800Y-123266200D03*
X90855800Y-123266200D03*
X90855800Y-122766200D03*
X90855800Y-122266200D03*
X90855800Y-121766200D03*
X90855800Y-121266200D03*
D65*
X89130800Y-120716200D03*
X89130800Y-123816200D03*
D66*
X89380800Y-122266200D03*
D65*
X89630800Y-120716200D03*
X89630800Y-123816200D03*
%TD*%
D30*
%TO.C,C41*%
X124370000Y-95940000D03*
X123730000Y-95940000D03*
%TD*%
D49*
%TO.C,C30*%
X127749000Y-99288600D03*
X129299000Y-99288600D03*
%TD*%
D67*
%TO.C,U5*%
X123453200Y-100728399D03*
X123453200Y-100228400D03*
X123453200Y-99728398D03*
X123453200Y-99228399D03*
X123453200Y-98728397D03*
X123453200Y-98228398D03*
X123453200Y-97728399D03*
X120548400Y-97728399D03*
X120548400Y-98228398D03*
X120548400Y-98728400D03*
X120548400Y-99228399D03*
X120548400Y-99728401D03*
X120548400Y-100228400D03*
X120548400Y-100728399D03*
D68*
X122000800Y-99228399D03*
%TD*%
D23*
%TO.C,C92*%
X122660000Y-105615000D03*
X122660000Y-104975000D03*
%TD*%
D24*
%TO.C,C60*%
X104378800Y-102336600D03*
X105018800Y-102336600D03*
%TD*%
D69*
%TO.C,D11*%
X133080000Y-112347500D03*
X133080000Y-111377500D03*
%TD*%
D57*
%TO.C,C84*%
X130210600Y-92075000D03*
X128310600Y-92075000D03*
%TD*%
D35*
%TO.C,C69*%
X111125000Y-91592400D03*
X111125000Y-92232400D03*
%TD*%
D24*
%TO.C,C67*%
X112024200Y-103454200D03*
X112664200Y-103454200D03*
%TD*%
D30*
%TO.C,R35*%
X104104400Y-94640400D03*
X103464400Y-94640400D03*
%TD*%
D35*
%TO.C,C90*%
X123250000Y-91525000D03*
X123250000Y-92165000D03*
%TD*%
D24*
%TO.C,C91*%
X102710000Y-95590000D03*
X103350000Y-95590000D03*
%TD*%
D70*
%TO.C,U9*%
X68438600Y-117830600D03*
X68438600Y-118480600D03*
X68438600Y-119130600D03*
X68438600Y-119780600D03*
X70713600Y-119780600D03*
X70713600Y-119130600D03*
X70713600Y-118480600D03*
X70713600Y-117830600D03*
%TD*%
D24*
%TO.C,C31*%
X118664200Y-99745800D03*
X119304200Y-99745800D03*
%TD*%
%TO.C,R29*%
X68245200Y-116611400D03*
X68885200Y-116611400D03*
%TD*%
D49*
%TO.C,C59*%
X103339600Y-101142800D03*
X104889600Y-101142800D03*
%TD*%
D23*
%TO.C,C47*%
X66954400Y-117820400D03*
X66954400Y-117180400D03*
%TD*%
D30*
%TO.C,C66*%
X117094400Y-97561400D03*
X116454400Y-97561400D03*
%TD*%
%TO.C,C85*%
X128717000Y-93522800D03*
X128077000Y-93522800D03*
%TD*%
D17*
%TO.C,J7*%
X63220000Y-102260000D03*
X63220000Y-103510000D03*
X63220000Y-104760000D03*
X63220000Y-106010000D03*
D18*
X60020000Y-100410000D03*
X60020000Y-107860000D03*
%TD*%
D23*
%TO.C,C35*%
X86664800Y-121772200D03*
X86664800Y-121132200D03*
%TD*%
D71*
%TO.C,F1*%
X118365000Y-79530000D03*
X116790000Y-79530000D03*
%TD*%
D35*
%TO.C,R34*%
X103378000Y-96312200D03*
X103378000Y-96952200D03*
%TD*%
D24*
%TO.C,R25*%
X84012500Y-124510000D03*
X84652500Y-124510000D03*
%TD*%
D35*
%TO.C,R27*%
X106324400Y-123672600D03*
X106324400Y-124312600D03*
%TD*%
D61*
%TO.C,L6*%
X122157200Y-103124000D03*
X120057200Y-103124000D03*
%TD*%
D24*
%TO.C,C48*%
X69748000Y-115849400D03*
X70388000Y-115849400D03*
%TD*%
%TO.C,R36*%
X115351600Y-93141800D03*
X115991600Y-93141800D03*
%TD*%
D30*
%TO.C,C57*%
X117149800Y-101549200D03*
X116509800Y-101549200D03*
%TD*%
%TO.C,C70*%
X117094000Y-96062800D03*
X116454000Y-96062800D03*
%TD*%
D72*
%TO.C,D10*%
X118990000Y-134390000D03*
X119960000Y-134390000D03*
%TD*%
D46*
%TO.C,J26*%
X68005000Y-132210000D03*
X69255000Y-132210000D03*
X70505000Y-132210000D03*
D47*
X66155000Y-135410000D03*
X72355000Y-135410000D03*
%TD*%
D46*
%TO.C,J11*%
X85570000Y-132210000D03*
X86820000Y-132210000D03*
D47*
X83720000Y-135410000D03*
X88670000Y-135410000D03*
%TD*%
D73*
%TO.C,C40*%
X128410000Y-121767600D03*
X126860000Y-121767600D03*
%TD*%
D24*
%TO.C,C42*%
X106650000Y-92240000D03*
X107290000Y-92240000D03*
%TD*%
%TO.C,R30*%
X68241100Y-115849400D03*
X68881100Y-115849400D03*
%TD*%
%TO.C,C49*%
X125791000Y-99872800D03*
X126431000Y-99872800D03*
%TD*%
%TO.C,C62*%
X102740000Y-93000000D03*
X103380000Y-93000000D03*
%TD*%
D73*
%TO.C,C37*%
X123609400Y-118008400D03*
X122059400Y-118008400D03*
%TD*%
D13*
%TO.C,J28*%
X135872200Y-127453400D03*
X135872200Y-126203400D03*
X135872200Y-124953400D03*
X135872200Y-123703400D03*
X135872200Y-122453400D03*
X135872200Y-121203400D03*
X135872200Y-119953400D03*
X135872200Y-118703400D03*
X135872200Y-117453400D03*
X135872200Y-116203400D03*
X135872200Y-114953400D03*
X135872200Y-113703400D03*
X135872200Y-112453400D03*
X135872200Y-111203400D03*
D14*
X139072200Y-129303400D03*
X139072200Y-109353400D03*
%TD*%
D35*
%TO.C,C68*%
X108102400Y-91587400D03*
X108102400Y-92227400D03*
%TD*%
D23*
%TO.C,R38*%
X125730000Y-99049800D03*
X125730000Y-98409800D03*
%TD*%
D24*
%TO.C,C34*%
X118663800Y-98958400D03*
X119303800Y-98958400D03*
%TD*%
D74*
%TO.C,C38*%
X118541800Y-122695000D03*
X118541800Y-121145000D03*
%TD*%
D75*
%TO.C,C94*%
X95760000Y-122400000D03*
X98710000Y-122400000D03*
%TD*%
D39*
%TO.C,J31*%
X122403400Y-82473800D03*
D76*
X123723400Y-81423800D03*
X123723400Y-88823800D03*
X126263400Y-81423800D03*
X126263400Y-88823800D03*
X128803400Y-81423800D03*
X128803400Y-88823800D03*
D39*
X130903400Y-82473800D03*
%TD*%
D77*
%TO.C,SP1*%
X123000000Y-112000000D03*
%TD*%
D78*
%TO.C,J30*%
X72750000Y-102000000D03*
D79*
X72750000Y-122000000D03*
%TD*%
G36*
X120213039Y-104909685D02*
G01*
X120258794Y-104962489D01*
X120270000Y-105014000D01*
X120270000Y-119076000D01*
X120250315Y-119143039D01*
X120197511Y-119188794D01*
X120146000Y-119200000D01*
X106344000Y-119200000D01*
X106276961Y-119180315D01*
X106231206Y-119127511D01*
X106220000Y-119076000D01*
X106220000Y-105014000D01*
X106239685Y-104946961D01*
X106292489Y-104901206D01*
X106344000Y-104890000D01*
X120146000Y-104890000D01*
X120213039Y-104909685D01*
G37*
M02*
