M48
; DRILL file {KiCad 7.0.6-rc1-29-g152dc56df4} date Mon Jul  3 16:01:09 2023
; FORMAT={-:-/ absolute / inch / decimal}
; #@! TF.CreationDate,2023-07-03T16:01:09-04:00
; #@! TF.GenerationSoftware,Kicad,Pcbnew,7.0.6-rc1-29-g152dc56df4
; #@! TF.FileFunction,MixedPlating,1,10
FMAT,2
INCH
; #@! TA.AperFunction,Plated,PTH,ViaDrill
T1C0.0079
; #@! TA.AperFunction,Plated,PTH,ViaDrill
T2C0.0118
; #@! TA.AperFunction,Plated,PTH,ComponentDrill
T3C0.0118
; #@! TA.AperFunction,Plated,PTH,ComponentDrill
T4C0.0197
; #@! TA.AperFunction,Plated,PTH,ComponentDrill
T5C0.0394
; #@! TA.AperFunction,Plated,PTH,ComponentDrill
T6C0.0472
; #@! TA.AperFunction,Plated,PTH,ComponentDrill
T7C0.0748
; #@! TA.AperFunction,Plated,PTH,ComponentDrill
T8C0.1024
; #@! TA.AperFunction,Plated,PTH,ComponentDrill
T9C0.1063
; #@! TA.AperFunction,NonPlated,NPTH,ComponentDrill
T10C0.0315
; #@! TA.AperFunction,NonPlated,NPTH,ComponentDrill
T11C0.0453
; #@! TA.AperFunction,NonPlated,NPTH,ComponentDrill
T12C0.0472
; #@! TA.AperFunction,NonPlated,NPTH,ComponentDrill
T13C0.0650
%
G90
G05
T1
X2.3146Y-5.0709
X2.3957Y-5.0028
X2.4303Y-4.515
X2.4315Y-4.6705
X2.4323Y-4.5713
X2.4331Y-4.4728
X2.4335Y-4.4307
X2.4346Y-4.3768
X2.435Y-3.5575
X2.4354Y-4.6213
X2.4472Y-5.0063
X2.5346Y-5.128
X2.5382Y-4.8831
X2.539Y-4.852
X2.5394Y-4.1728
X2.5417Y-4.3252
X2.5425Y-3.963
X2.5425Y-4.3559
X2.5433Y-4.3771
X2.5433Y-4.3979
X2.5484Y-4.7087
X2.5492Y-4.9839
X2.5504Y-4.9559
X2.5516Y-4.802
X2.5539Y-4.0878
X2.5539Y-4.1118
X2.5543Y-4.7528
X2.5579Y-3.6551
X2.5579Y-4.5555
X2.5583Y-4.6555
X2.5591Y-4.6055
X2.5598Y-4.1504
X2.5669Y-4.0717
X2.5756Y-4.3
X2.589Y-4.8114
X2.5906Y-4.5165
X2.5913Y-4.5386
X2.5949Y-4.4957
X2.5969Y-3.8571
X2.6012Y-4.6862
X2.6063Y-3.8165
X2.6063Y-3.8363
X2.6071Y-4.8933
X2.6098Y-4.1539
X2.6106Y-4.0256
X2.611Y-4.6394
X2.6134Y-4.3012
X2.6181Y-3.6051
X2.6315Y-5.1205
X2.6516Y-4.1988
X2.6575Y-4.5378
X2.6587Y-4.5969
X2.6654Y-4.7346
X2.6724Y-5.0476
X2.674Y-5.1535
X2.6811Y-4.0031
X2.6839Y-3.7598
X2.6874Y-4.8799
X2.6902Y-3.7834
X2.6902Y-3.8032
X2.7051Y-4.1038
X2.7051Y-4.1245
X2.7063Y-4.3411
X2.7071Y-5.048
X2.7075Y-4.1457
X2.7083Y-3.8484
X2.7087Y-4.489
X2.7094Y-4.0768
X2.7102Y-4.3697
X2.7102Y-4.4004
X2.7189Y-4.0035
X2.7201Y-4.3067
X2.726Y-5.1319
X2.7327Y-4.3429
X2.7346Y-3.8579
X2.7461Y-4.5614
X2.7472Y-4.5307
X2.7626Y-5.2563
X2.7768Y-5.1472
X2.7846Y-4.6898
X2.8106Y-5.2512
X2.8272Y-4.2016
X2.8378Y-3.8571
X2.839Y-4.665
X2.8614Y-5.2512
X2.865Y-3.1831
X2.865Y-3.2264
X2.8673Y-3.8531
X2.8807Y-3.3681
X2.9039Y-3.8543
X2.9094Y-5.2504
X2.9421Y-4.3307
X2.9598Y-5.2531
X2.9674Y-3.3867
X2.974Y-3.622
X2.974Y-3.645
X2.975Y-3.511
X2.975Y-3.535
X2.9843Y-3.4417
X2.9879Y-3.8146
X2.989Y-3.2303
X2.9902Y-3.9429
X2.9925Y-3.7913
X2.9996Y-5.1295
X3.0Y-4.348
X3.0019Y-3.8287
X3.0031Y-4.687
X3.0039Y-4.3906
X3.0071Y-5.2579
X3.0094Y-3.4354
X3.0173Y-3.5059
X3.02Y-4.133
X3.02Y-4.159
X3.02Y-4.19
X3.024Y-3.8417
X3.0244Y-3.9701
X3.0256Y-4.348
X3.0301Y-3.2313
X3.0382Y-3.1862
X3.0462Y-3.2474
X3.0465Y-5.1323
X3.051Y-4.133
X3.051Y-4.16
X3.053Y-4.19
X3.059Y-3.437
X3.0768Y-3.1906
X3.085Y-3.639
X3.086Y-4.133
X3.0862Y-3.3929
X3.087Y-4.161
X3.087Y-4.19
X3.0965Y-5.1476
X3.1016Y-3.198
X3.113Y-4.4126
X3.115Y-3.437
X3.1244Y-3.1917
X3.1457Y-5.148
X3.1488Y-3.1713
X3.1577Y-3.1947
X3.1724Y-4.8417
X3.1738Y-3.2108
X3.1917Y-3.1571
X3.1933Y-5.02
X3.2039Y-3.3925
X3.2276Y-5.252
X3.2331Y-4.9024
X3.2484Y-3.2055
X3.2636Y-3.2258
X3.2797Y-3.2419
X3.2799Y-4.0543
X3.287Y-4.7953
X3.287Y-5.0815
X3.3092Y-5.0564
X3.3224Y-3.3965
X3.3239Y-5.0711
X3.3248Y-3.2594
X3.35Y-5.1213
X3.3594Y-4.9024
X3.3764Y-5.2575
X3.3882Y-4.7941
X3.3886Y-4.7736
X3.4037Y-5.086
X3.4118Y-4.8181
X3.4173Y-5.1539
X3.4189Y-5.2591
X3.4331Y-3.9157
X3.439Y-5.1531
X3.4476Y-4.0098
X3.4524Y-3.9298
X3.4524Y-3.9497
X3.4524Y-3.9705
X3.4598Y-5.1531
X3.4768Y-4.0048
X3.4831Y-5.1528
X3.4866Y-3.9071
X3.4909Y-4.0188
X3.4917Y-4.0421
X3.5016Y-3.8476
X3.5126Y-3.9059
X3.5126Y-4.1047
X3.517Y-3.461
X3.5232Y-5.1567
X3.5478Y-4.61
X3.549Y-3.414
X3.5693Y-5.1504
X3.5768Y-3.9047
X3.5867Y-5.165
X3.6074Y-5.165
X3.613Y-3.402
X3.614Y-3.433
X3.6213Y-4.6397
X3.6268Y-5.1177
X3.6272Y-4.45
X3.6276Y-5.0531
X3.6307Y-5.1531
X3.636Y-3.181
X3.638Y-3.272
X3.6413Y-3.8957
X3.6496Y-3.7717
X3.664Y-4.6406
X3.6742Y-3.7852
X3.6776Y-4.8465
X3.6906Y-4.8276
X3.6967Y-3.8077
X3.7217Y-3.8059
X3.7256Y-4.4421
X3.735Y-4.138
X3.736Y-4.166
X3.736Y-4.194
X3.7516Y-5.0862
X3.7634Y-4.8283
X3.7681Y-3.4091
X3.769Y-4.137
X3.771Y-4.167
X3.772Y-4.194
X3.7746Y-4.6283
X3.7957Y-3.3752
X3.7984Y-3.3969
X3.807Y-4.137
X3.808Y-4.166
X3.809Y-4.193
X3.8228Y-4.6098
X3.8236Y-3.3205
X3.826Y-4.3579
X3.83Y-3.187
X3.8303Y-4.5886
X3.8307Y-3.261
X3.8374Y-3.4539
X3.8453Y-3.3335
X3.8453Y-3.3563
X3.8463Y-3.1386
X3.8476Y-4.34
X3.8516Y-3.4087
X3.8516Y-3.4315
X3.865Y-3.5717
X3.8702Y-3.1386
X3.8805Y-4.7478
X3.885Y-3.6622
X3.8878Y-3.5717
X3.8878Y-5.1484
X3.889Y-3.4579
X3.8898Y-5.0622
X3.8957Y-3.8047
X3.8959Y-4.7325
X3.9053Y-3.1374
X3.9087Y-4.8732
X3.9098Y-5.1004
X3.9177Y-3.885
X3.9228Y-4.5717
X3.9272Y-5.0579
X3.9293Y-3.1374
X3.932Y-3.801
X3.9335Y-4.8945
X3.936Y-3.963
X3.9441Y-3.6665
X3.9445Y-3.885
X3.9449Y-3.5709
X3.9457Y-3.3217
X3.952Y-5.076
X3.9524Y-5.0543
X3.9528Y-4.7039
X3.9644Y-3.161
X3.9678Y-4.7167
X3.9819Y-5.302
X3.9843Y-4.7303
X3.9884Y-3.161
X3.9894Y-5.0673
X4.0016Y-3.6181
X4.0028Y-4.7449
X4.0038Y-3.1925
X4.0043Y-3.4587
X4.0047Y-4.3209
X4.0059Y-5.3063
X4.0071Y-3.5717
X4.0075Y-4.3597
X4.0094Y-5.0646
X4.0197Y-3.95
X4.0252Y-4.6876
X4.0252Y-4.7093
X4.026Y-5.3098
X4.0276Y-5.0827
X4.0277Y-3.1925
X4.0287Y-4.4646
X4.0358Y-5.1524
X4.039Y-5.0618
X4.0394Y-3.9681
X4.0437Y-3.7642
X4.0441Y-3.6614
X4.0453Y-3.2185
X4.048Y-5.3094
X4.0555Y-3.3677
X4.0644Y-3.2067
X4.0654Y-3.4709
X4.0678Y-5.309
X4.0693Y-3.7634
X4.0697Y-3.661
X4.07Y-3.7918
X4.07Y-3.817
X4.0723Y-4.8649
X4.073Y-3.726
X4.0846Y-5.2961
X4.0852Y-3.2067
X4.0858Y-3.6799
X4.0862Y-4.0547
X4.0862Y-5.1228
X4.0895Y-4.878
X4.0984Y-3.4142
X4.0986Y-3.726
X4.0993Y-5.1476
X4.0997Y-4.8122
X4.1043Y-3.2717
X4.1059Y-5.3114
X4.109Y-3.861
X4.1136Y-3.669
X4.115Y-3.764
X4.1196Y-4.8122
X4.12Y-5.1476
X4.1232Y-5.2996
X4.1235Y-3.2028
X4.124Y-3.4685
X4.1295Y-3.982
X4.1311Y-5.1272
X4.1323Y-3.5752
X4.1354Y-5.0417
X4.1429Y-4.85
X4.1442Y-3.2028
X4.1457Y-3.9205
X4.1465Y-4.6157
X4.1512Y-5.15
X4.1539Y-3.3921
X4.1567Y-3.5744
X4.1618Y-5.285
X4.1634Y-5.0217
X4.1657Y-3.2024
X4.1713Y-4.0776
X4.1746Y-3.4112
X4.1803Y-3.1823
X4.1835Y-5.1531
X4.1862Y-4.8374
X4.1886Y-4.8091
X4.1969Y-3.4705
X4.2022Y-3.2004
X4.2024Y-5.0157
X4.2028Y-5.2862
X4.2205Y-5.2685
X4.222Y-3.5701
X4.222Y-5.0331
X4.223Y-3.2004
X4.2252Y-3.1803
X4.2264Y-5.1354
X4.233Y-4.078
X4.2362Y-5.2874
X4.2421Y-4.8201
X4.2425Y-3.5705
X4.2461Y-5.1248
X4.2469Y-5.1472
X4.256Y-3.605
X4.256Y-3.631
X4.2563Y-3.3969
X4.2606Y-5.2799
X4.2622Y-5.0138
X4.2634Y-3.5709
X4.2794Y-5.2724
X4.281Y-3.215
X4.2811Y-3.1831
X4.282Y-3.6058
X4.2823Y-3.6307
X4.2827Y-5.1512
X4.286Y-5.0676
X4.2878Y-4.8547
X4.2898Y-4.8933
X4.2909Y-3.4185
X4.2954Y-3.5787
X4.2968Y-4.072
X4.3017Y-3.215
X4.3033Y-5.2724
X4.3075Y-3.1878
X4.3083Y-4.8937
X4.3142Y-4.8543
X4.3162Y-3.5787
X4.3237Y-5.2669
X4.328Y-4.8933
X4.3335Y-3.1874
X4.3348Y-3.5878
X4.34Y-5.286
X4.3556Y-3.5878
X4.3567Y-4.0709
X4.3581Y-5.1583
X4.3597Y-3.2157
X4.3685Y-5.2909
X4.3689Y-3.1917
X4.3724Y-3.9929
X4.375Y-3.607
X4.375Y-3.632
X4.3772Y-3.5756
X4.3799Y-5.0138
X4.3805Y-3.2157
X4.3821Y-5.1583
X4.3949Y-3.9933
X4.4004Y-3.5819
X4.4075Y-5.1587
X4.4112Y-3.4588
X4.4154Y-3.9937
X4.4161Y-3.1798
X4.4189Y-4.8512
X4.4189Y-5.0138
X4.4209Y-3.5823
X4.4273Y-3.4427
X4.4312Y-3.1926
X4.4356Y-4.073
X4.4362Y-3.9941
X4.4384Y-3.2142
X4.4402Y-5.2921
X4.4472Y-4.0929
X4.452Y-3.1953
X4.4583Y-5.2772
X4.4587Y-3.5701
X4.4592Y-3.2142
X4.4598Y-4.072
X4.4673Y-5.0209
X4.476Y-3.1402
X4.4783Y-5.2622
X4.4815Y-3.1866
X4.4819Y-4.0713
X4.4819Y-4.8173
X4.4929Y-5.0193
X4.4953Y-3.711
X4.4992Y-4.0858
X4.4992Y-5.1626
X4.5024Y-4.8339
X4.5059Y-3.9366
X4.5063Y-3.9588
X4.5063Y-3.9796
X4.5067Y-3.8014
X4.5067Y-3.8221
X4.5075Y-3.8604
X4.5075Y-3.8812
X4.5089Y-3.7286
X4.509Y-3.6316
X4.5107Y-3.1693
X4.5142Y-5.0189
X4.5181Y-5.2673
X4.5183Y-4.0794
X4.526Y-5.0815
X4.5264Y-5.1138
X4.528Y-4.8402
X4.5329Y-4.0647
X4.5378Y-5.0138
X4.5413Y-4.8157
X4.5414Y-3.667
X4.549Y-3.599
X4.5496Y-3.1642
X4.5512Y-4.0539
X4.5516Y-3.1941
X4.5575Y-3.2169
X4.5768Y-3.326
X4.5768Y-3.461
X4.578Y-5.2693
X4.5807Y-3.4118
X4.5848Y-3.782
X4.5848Y-3.841
X4.586Y-3.998
X4.586Y-4.051
X4.586Y-4.075
X4.5864Y-3.94
X4.59Y-3.641
X4.5923Y-3.7336
X4.5929Y-3.4472
X4.5961Y-4.8118
X4.5961Y-5.0937
X4.5972Y-3.1323
X4.6031Y-3.3441
X4.6057Y-3.8954
X4.6069Y-3.7483
X4.6071Y-3.4291
X4.6106Y-3.7713
X4.611Y-3.8713
X4.612Y-3.94
X4.612Y-3.998
X4.6134Y-4.7524
X4.6161Y-3.7295
X4.6165Y-5.1626
X4.6189Y-5.0945
X4.6203Y-3.9101
X4.623Y-3.183
X4.6236Y-3.3701
X4.6271Y-3.4438
X4.6343Y-3.4622
X4.6457Y-5.0882
X4.661Y-4.049
X4.662Y-4.073
X4.6673Y-4.876
X4.671Y-3.182
X4.671Y-3.839
X4.672Y-3.867
X4.672Y-3.927
X4.672Y-3.984
X4.672Y-4.9098
X4.6724Y-5.2528
X4.674Y-3.5181
X4.676Y-3.7754
X4.676Y-3.7994
X4.6916Y-4.9667
X4.6925Y-4.9461
X4.706Y-3.599
X4.7315Y-3.6425
X4.7315Y-3.6646
X4.744Y-3.907
X4.746Y-3.867
X4.746Y-3.946
X4.7551Y-5.2886
X4.7602Y-3.1933
X4.7602Y-3.6642
X4.789Y-3.958
X4.7911Y-4.5986
X4.7945Y-4.216
X4.7945Y-4.2399
X4.795Y-4.775
X4.795Y-4.81
X4.795Y-4.851
X4.7984Y-3.7744
X4.7988Y-4.1327
X4.7992Y-4.1587
X4.8Y-4.034
X4.8Y-4.06
X4.8Y-4.086
X4.803Y-3.908
X4.8031Y-4.9463
X4.8031Y-4.9702
X4.8081Y-4.5817
X4.809Y-3.649
X4.809Y-3.671
X4.82Y-3.855
X4.82Y-3.959
X4.8244Y-3.6008
X4.826Y-3.7752
X4.8287Y-4.1331
X4.8295Y-4.1583
X4.8528Y-3.6287
X4.8618Y-3.6835
X4.8665Y-4.0413
X4.868Y-4.776
X4.8717Y-3.7768
X4.876Y-3.7287
X4.8886Y-3.3543
X4.8898Y-3.4339
X4.8913Y-5.0823
X4.892Y-5.123
X4.8961Y-3.7772
X4.9043Y-3.8283
X4.9142Y-4.9858
X4.9276Y-3.7287
X4.9492Y-3.778
X4.951Y-3.633
X4.9524Y-3.932
X4.9744Y-3.778
X4.978Y-3.933
X4.9795Y-4.8681
X4.9831Y-3.8728
X5.0126Y-5.1406
X5.0213Y-3.9181
X5.0248Y-4.3264
X5.0256Y-3.785
X5.0374Y-3.9004
X5.0398Y-5.1441
X5.0406Y-5.2843
X5.0424Y-3.682
X5.0555Y-4.7929
X5.0681Y-3.6819
X5.0689Y-5.1398
X5.074Y-4.9866
X5.0756Y-3.7283
X5.0902Y-3.9106
X5.113Y-3.7283
X5.113Y-5.1378
X5.1146Y-4.4209
X5.1154Y-4.9854
X5.1217Y-3.6386
X5.1224Y-3.6106
X5.1327Y-3.7787
X5.1406Y-5.1173
X5.1559Y-3.778
X5.1654Y-5.1276
X5.1972Y-4.4232
X5.2354Y-4.2484
X5.2469Y-4.0476
X5.2592Y-4.2541
X5.2638Y-3.8091
X5.2705Y-3.6646
X5.2713Y-3.1957
X5.2739Y-4.2688
X5.2791Y-4.9045
X5.2799Y-4.813
X5.2815Y-3.8602
X5.2819Y-3.9283
X5.2822Y-3.8827
X5.2822Y-3.9035
X5.2835Y-4.1827
X5.2835Y-4.2035
X5.2839Y-4.2929
X5.2843Y-4.9701
X5.2852Y-3.4552
X5.2902Y-4.4752
X5.2902Y-4.6115
X5.2902Y-4.6322
X5.2917Y-4.6587
X5.2921Y-4.3791
X5.2921Y-4.5276
X5.2921Y-4.5717
X5.2937Y-4.9191
X5.2969Y-3.5187
X5.2969Y-3.5394
X5.2972Y-3.5634
X5.298Y-3.4925
X5.3323Y-5.061
X5.3913Y-3.6941
X5.3921Y-3.8346
X5.3972Y-3.7305
X5.3972Y-3.7544
X5.3972Y-4.7724
X5.398Y-4.724
X5.3984Y-3.9559
X5.3984Y-4.0128
X5.3984Y-4.0368
X5.3988Y-4.1112
X5.3988Y-4.1352
X5.3988Y-4.2402
X5.3988Y-4.822
X5.3996Y-4.3776
X5.4004Y-4.6961
X5.4012Y-4.8709
X5.4016Y-3.9209
X5.4035Y-3.8721
X5.4035Y-3.8929
X5.4035Y-4.9209
X5.4043Y-3.7815
X5.4051Y-4.6654
X5.4055Y-4.1638
X5.4059Y-3.6028
X5.4063Y-5.0185
X5.4071Y-3.6325
X5.4071Y-3.6533
X5.4087Y-4.5811
X5.4087Y-4.6051
X5.4157Y-4.5193
X5.4224Y-4.9398
X5.4224Y-4.9637
X5.4287Y-4.5945
X5.4461Y-4.8799
T2
X2.732Y-4.69
X2.8693Y-4.0902
X2.9071Y-4.3016
X2.9134Y-4.2331
X2.9433Y-4.9866
X2.961Y-4.9343
X2.9665Y-4.9866
X3.0087Y-4.7941
X3.0122Y-3.9906
X3.0528Y-4.9862
X3.0531Y-4.952
X3.0535Y-5.0181
X3.0772Y-4.863
X3.0805Y-4.3193
X3.1051Y-4.3004
X3.1173Y-4.2768
X3.1354Y-4.0441
X3.1484Y-5.0276
X3.201Y-3.524
X3.201Y-3.565
X3.201Y-3.604
X3.201Y-3.645
X3.2169Y-5.0969
X3.242Y-3.524
X3.242Y-3.565
X3.242Y-3.604
X3.242Y-3.645
X3.2484Y-5.0972
X3.291Y-3.524
X3.291Y-3.565
X3.291Y-3.604
X3.291Y-3.645
X3.356Y-4.354
X3.356Y-4.394
X3.356Y-4.434
X3.356Y-4.47
X3.356Y-4.51
X3.356Y-4.55
X3.356Y-4.59
X3.392Y-4.354
X3.392Y-4.392
X3.392Y-4.432
X3.392Y-4.47
X3.392Y-4.508
X3.392Y-4.548
X3.392Y-4.588
X3.6579Y-4.2783
X3.8024Y-4.2413
X3.8551Y-4.0476
X4.028Y-4.033
X4.064Y-4.356
X4.064Y-4.396
X4.064Y-4.432
X4.064Y-4.472
X4.064Y-4.514
X4.064Y-4.554
X4.064Y-4.594
X4.098Y-4.356
X4.098Y-4.396
X4.098Y-4.432
X4.098Y-4.472
X4.098Y-4.514
X4.098Y-4.554
X4.098Y-4.594
X4.232Y-4.212
X4.232Y-4.3084
X4.232Y-4.3587
X4.232Y-4.4114
X4.232Y-4.607
X4.2321Y-4.2643
X4.2321Y-4.5102
X4.2321Y-4.563
X4.2322Y-4.1604
X4.2323Y-4.4587
X4.2328Y-4.6586
X4.2824Y-4.212
X4.2824Y-4.3084
X4.2824Y-4.3587
X4.2824Y-4.4114
X4.2824Y-4.607
X4.2825Y-4.2643
X4.2825Y-4.5102
X4.2825Y-4.563
X4.2826Y-4.1604
X4.2827Y-4.4587
X4.2832Y-4.6586
X4.295Y-3.779
X4.295Y-3.928
X4.296Y-3.852
X4.3343Y-4.212
X4.3343Y-4.3084
X4.3343Y-4.3587
X4.3343Y-4.4114
X4.3343Y-4.607
X4.3344Y-4.2643
X4.3344Y-4.5102
X4.3344Y-4.563
X4.3345Y-4.1604
X4.3346Y-4.4587
X4.3351Y-4.6586
X4.3649Y-3.8511
X4.368Y-3.782
X4.368Y-3.928
X4.3862Y-4.212
X4.3862Y-4.3084
X4.3862Y-4.3587
X4.3862Y-4.4114
X4.3862Y-4.607
X4.3863Y-4.2643
X4.3863Y-4.5102
X4.3863Y-4.563
X4.3864Y-4.1604
X4.3865Y-4.4587
X4.3871Y-4.6586
X4.4381Y-4.212
X4.4381Y-4.3084
X4.4381Y-4.3587
X4.4381Y-4.4114
X4.4381Y-4.607
X4.4382Y-4.2643
X4.4382Y-4.5102
X4.4382Y-4.563
X4.4383Y-4.1604
X4.4384Y-4.4587
X4.439Y-4.6586
X4.443Y-3.781
X4.443Y-3.85
X4.444Y-3.928
X4.49Y-4.212
X4.49Y-4.3084
X4.49Y-4.3587
X4.49Y-4.4114
X4.49Y-4.607
X4.4901Y-4.2643
X4.4901Y-4.5102
X4.4901Y-4.563
X4.4902Y-4.1604
X4.4903Y-4.4587
X4.4909Y-4.6586
X4.542Y-4.212
X4.542Y-4.3084
X4.542Y-4.3587
X4.542Y-4.4114
X4.542Y-4.607
X4.542Y-4.2643
X4.542Y-4.5102
X4.542Y-4.563
X4.5421Y-4.1604
X4.5422Y-4.4587
X4.5428Y-4.6586
X4.5939Y-4.212
X4.5939Y-4.3084
X4.5939Y-4.3587
X4.5939Y-4.4114
X4.5939Y-4.607
X4.5939Y-4.2643
X4.594Y-4.5102
X4.594Y-4.563
X4.594Y-4.1604
X4.5942Y-4.4587
X4.5947Y-4.6586
X4.6458Y-4.212
X4.6458Y-4.3084
X4.6458Y-4.3587
X4.6458Y-4.4114
X4.6458Y-4.607
X4.6459Y-4.2643
X4.6459Y-4.5102
X4.6459Y-4.563
X4.6459Y-4.1604
X4.6461Y-4.4587
X4.6466Y-4.6586
X4.6989Y-4.2128
X4.6989Y-4.3092
X4.6989Y-4.3594
X4.6989Y-4.4122
X4.6989Y-4.6078
X4.699Y-4.2651
X4.699Y-4.511
X4.699Y-4.5638
X4.6991Y-4.1612
X4.6992Y-4.4594
X4.6998Y-4.6594
T3
X3.5Y-4.7798
X3.5Y-4.8475
X3.5189Y-4.8136
X3.5378Y-4.7798
X3.5378Y-4.8475
X3.8363Y-4.423
X3.8363Y-4.4608
X3.8701Y-4.4419
X3.904Y-4.423
X3.904Y-4.4608
T4
X2.3415Y-3.2185
X2.3415Y-5.2657
X2.3649Y-3.1621
X2.3649Y-3.2749
X2.3649Y-5.2094
X2.3649Y-5.3221
X2.4213Y-3.1388
X2.4213Y-3.2982
X2.4213Y-5.186
X2.4213Y-5.3455
X2.4776Y-3.1621
X2.4776Y-3.2749
X2.4776Y-5.2094
X2.4776Y-5.3221
X2.501Y-3.2185
X2.501Y-5.2657
X5.3337Y-3.2185
X5.3337Y-5.2657
X5.357Y-3.1621
X5.357Y-3.2749
X5.357Y-5.2094
X5.357Y-5.3221
X5.4134Y-3.1388
X5.4134Y-3.2982
X5.4134Y-5.186
X5.4134Y-5.3455
X5.4698Y-3.1621
X5.4698Y-3.2749
X5.4698Y-5.2094
X5.4698Y-5.3221
X5.4931Y-3.2185
X5.4931Y-5.2657
T5
X2.4138Y-3.3927
X2.4138Y-3.8257
T6
X3.7697Y-3.3022
X3.7697Y-3.4892
X3.7697Y-4.9951
X3.7697Y-5.1821
X4.7343Y-3.3022
X4.7343Y-3.4892
X4.7343Y-4.9951
X4.7343Y-5.1821
T7
X2.8075Y-3.5108
X2.8075Y-3.7076
T8
X4.8425Y-4.4094
T9
X2.4213Y-3.2185
X2.4213Y-5.2657
X5.4134Y-3.2185
X5.4134Y-5.2657
T10
X4.819Y-3.247
X5.1537Y-3.247
T11
X2.8642Y-4.0157
T12
X4.871Y-3.2057
X4.871Y-3.497
X4.971Y-3.2057
X4.971Y-3.497
X5.071Y-3.2057
X5.071Y-3.497
T13
X2.8642Y-4.8031
T0
M30
