%TF.GenerationSoftware,KiCad,Pcbnew,7.0.10*%
%TF.CreationDate,2024-02-09T12:16:23-05:00*%
%TF.ProjectId,pixc4-jetson-universal-carrier,70697863-342d-46a6-9574-736f6e2d756e,rev?*%
%TF.SameCoordinates,Original*%
%TF.FileFunction,Copper,L4,Inr*%
%TF.FilePolarity,Positive*%
%FSLAX46Y46*%
G04 Gerber Fmt 4.6, Leading zero omitted, Abs format (unit mm)*
G04 Created by KiCad (PCBNEW 7.0.10) date 2024-02-09 12:16:23*
%MOMM*%
%LPD*%
G01*
G04 APERTURE LIST*
%TA.AperFunction,ComponentPad*%
%ADD10C,0.499999*%
%TD*%
%TA.AperFunction,ComponentPad*%
%ADD11C,1.400000*%
%TD*%
%TA.AperFunction,ComponentPad*%
%ADD12R,3.500000X3.500000*%
%TD*%
%TA.AperFunction,ComponentPad*%
%ADD13C,3.500000*%
%TD*%
%TA.AperFunction,ComponentPad*%
%ADD14C,0.800000*%
%TD*%
%TA.AperFunction,ComponentPad*%
%ADD15C,5.400000*%
%TD*%
%TA.AperFunction,ComponentPad*%
%ADD16C,1.600000*%
%TD*%
%TA.AperFunction,ComponentPad*%
%ADD17C,0.600000*%
%TD*%
%TA.AperFunction,ComponentPad*%
%ADD18C,3.900000*%
%TD*%
%TA.AperFunction,ViaPad*%
%ADD19C,0.400000*%
%TD*%
%TA.AperFunction,ViaPad*%
%ADD20C,0.500000*%
%TD*%
%TA.AperFunction,ViaPad*%
%ADD21C,0.600000*%
%TD*%
%TA.AperFunction,Conductor*%
%ADD22C,0.144780*%
%TD*%
%TA.AperFunction,Conductor*%
%ADD23C,0.152400*%
%TD*%
%TA.AperFunction,Conductor*%
%ADD24C,0.102108*%
%TD*%
%TA.AperFunction,Conductor*%
%ADD25C,0.254000*%
%TD*%
%TA.AperFunction,Conductor*%
%ADD26C,0.304800*%
%TD*%
%TA.AperFunction,Conductor*%
%ADD27C,0.157480*%
%TD*%
G04 APERTURE END LIST*
D10*
%TO.N,GND*%
%TO.C,U14*%
X93459999Y-100730000D03*
X92360001Y-100730000D03*
%TD*%
D11*
%TO.N,*%
%TO.C,J27*%
X61310700Y-97173560D03*
X61310700Y-86173560D03*
D12*
%TO.N,GND*%
X71310700Y-89173560D03*
D13*
%TO.N,/MainPower/PWR_IN*%
X71310700Y-94173560D03*
%TD*%
D14*
%TO.N,GND*%
%TO.C,J1*%
X59475000Y-81750000D03*
X60068109Y-80318109D03*
X60068109Y-83181891D03*
X61500000Y-79725000D03*
D15*
X61500000Y-81750000D03*
D14*
X61500000Y-83775000D03*
X62931891Y-80318109D03*
X62931891Y-83181891D03*
X63525000Y-81750000D03*
%TD*%
%TO.N,GND*%
%TO.C,J2*%
X59475000Y-133750000D03*
X60068109Y-132318109D03*
X60068109Y-135181891D03*
X61500000Y-131725000D03*
D15*
X61500000Y-133750000D03*
D14*
X61500000Y-135775000D03*
X62931891Y-132318109D03*
X62931891Y-135181891D03*
X63525000Y-133750000D03*
%TD*%
%TO.N,GND*%
%TO.C,J3*%
X135475000Y-81750000D03*
X136068109Y-80318109D03*
X136068109Y-83181891D03*
X137500000Y-79725000D03*
D15*
X137500000Y-81750000D03*
D14*
X137500000Y-83775000D03*
X138931891Y-80318109D03*
X138931891Y-83181891D03*
X139525000Y-81750000D03*
%TD*%
%TO.N,GND*%
%TO.C,J4*%
X135475000Y-133750000D03*
X136068109Y-132318109D03*
X136068109Y-135181891D03*
X137500000Y-131725000D03*
D15*
X137500000Y-133750000D03*
D14*
X137500000Y-135775000D03*
X138931891Y-132318109D03*
X138931891Y-135181891D03*
X139525000Y-133750000D03*
%TD*%
D16*
%TO.N,+5V*%
%TO.C,J5*%
X95750000Y-88625000D03*
X120250000Y-88625000D03*
%TO.N,GND*%
X95750000Y-83875000D03*
X120250000Y-83875000D03*
%TD*%
%TO.N,+5V*%
%TO.C,J6*%
X95750000Y-131625000D03*
X120250000Y-131625000D03*
%TO.N,GND*%
X95750000Y-126875000D03*
X120250000Y-126875000D03*
%TD*%
D17*
%TO.N,GND*%
%TO.C,U6*%
X88900800Y-121406200D03*
X88900800Y-123126200D03*
X89380800Y-122266200D03*
X89860800Y-121406200D03*
X89860800Y-123126200D03*
%TD*%
%TO.N,GND*%
%TO.C,U10*%
X99161600Y-112344200D03*
X97441600Y-112344200D03*
X98301600Y-112824200D03*
X99161600Y-113304200D03*
X97441600Y-113304200D03*
%TD*%
D18*
%TO.N,GND*%
%TO.C,SP1*%
X123000000Y-112000000D03*
%TD*%
D19*
%TO.N,GND*%
X81280000Y-81970000D03*
X79910000Y-81120000D03*
%TO.N,CAM0_GPIO*%
X81180000Y-87440000D03*
X80630000Y-81790000D03*
%TO.N,CAM0_MCLK*%
X80030000Y-81720000D03*
X80620000Y-87510000D03*
%TO.N,CAM0_SCL0*%
X95260000Y-90820000D03*
X100200000Y-90700000D03*
X78910000Y-81550000D03*
%TO.N,CAM0_SDA0*%
X78600000Y-82020000D03*
%TO.N,CAM0_D1_N*%
X86557310Y-84170000D03*
%TO.N,CAM0_D1_P*%
X86022690Y-84170000D03*
%TO.N,CAM0_D3_N*%
X82040000Y-85660000D03*
%TO.N,CAM0_D3_P*%
X82540000Y-86080000D03*
%TO.N,CAM0_D2_N*%
X83199298Y-85718200D03*
%TO.N,CAM0_D2_P*%
X83180000Y-85170000D03*
%TO.N,CAM0_C_N*%
X85429017Y-85010983D03*
%TO.N,CAM0_C_P*%
X85050983Y-85389017D03*
%TO.N,GND*%
X89020000Y-84300000D03*
%TO.N,CAM0_D0_P*%
X87620000Y-84210000D03*
%TO.N,CAM0_D0_N*%
X88200000Y-84170000D03*
%TO.N,GND*%
X76350000Y-85220000D03*
%TO.N,+3V3_MIPI*%
X90085000Y-87815000D03*
X89235000Y-86965000D03*
%TO.N,GND*%
X86800000Y-130910000D03*
X118643400Y-80822800D03*
X127630000Y-109890000D03*
D20*
X110093600Y-115900000D03*
D19*
X118000000Y-129240000D03*
X99910000Y-124320000D03*
X92700000Y-95800000D03*
X82670000Y-81930000D03*
X118668800Y-101193600D03*
X92120000Y-129990000D03*
D20*
X108772800Y-106984800D03*
D19*
X78650000Y-130750000D03*
X132980000Y-107910000D03*
D20*
X107496771Y-105674800D03*
D19*
X130110000Y-91710000D03*
X113250000Y-90680000D03*
X97180000Y-110690000D03*
D20*
X119352800Y-110730000D03*
X107492800Y-109434000D03*
X114054284Y-113250000D03*
D19*
X104930000Y-130230000D03*
X69090000Y-109390000D03*
X70530000Y-130740000D03*
X87570000Y-101850000D03*
D20*
X114047084Y-112050000D03*
X107492800Y-106984800D03*
X118006771Y-105674800D03*
X111409942Y-106984800D03*
X115372855Y-113250000D03*
D19*
X81186305Y-86045166D03*
D20*
X116686455Y-114560000D03*
D19*
X114210500Y-86131400D03*
X114450000Y-99990000D03*
X65960000Y-97970000D03*
X99872800Y-96545400D03*
X105580000Y-90790000D03*
D20*
X82510000Y-129470000D03*
D19*
X128880000Y-126660000D03*
D20*
X107494600Y-108314000D03*
X108772800Y-109434000D03*
D19*
X95732600Y-105079800D03*
D20*
X115367455Y-108314000D03*
X108780000Y-113250000D03*
X116686026Y-108314000D03*
D19*
X100190000Y-98680000D03*
X116350000Y-86660000D03*
X87000000Y-84620000D03*
D20*
X119354600Y-108334000D03*
D19*
X86070000Y-121250000D03*
D20*
X107492800Y-110710000D03*
D19*
X67500000Y-115260000D03*
X124200000Y-87220000D03*
X77546200Y-106426000D03*
X112240000Y-127350000D03*
X105300000Y-99580000D03*
D20*
X107495029Y-114560000D03*
X115387084Y-118327800D03*
D19*
X64500000Y-105990000D03*
X92220000Y-130890000D03*
D20*
X108772800Y-117017800D03*
D19*
X86454400Y-129184400D03*
X102300000Y-129100000D03*
X97300000Y-82830000D03*
D20*
X111409942Y-112050000D03*
X110091371Y-106984800D03*
X110867599Y-97818001D03*
D19*
X66220000Y-124290000D03*
X76708000Y-106426000D03*
X111250000Y-127350000D03*
D20*
X118005029Y-115900000D03*
D19*
X117260000Y-131130000D03*
X67700000Y-120260000D03*
X130090000Y-92420000D03*
X103790000Y-130120000D03*
X78409800Y-105689400D03*
X117110000Y-95790000D03*
X78522207Y-87132533D03*
X75920000Y-82050000D03*
X111125000Y-91617800D03*
D20*
X119355029Y-115920000D03*
D19*
X104750000Y-88100000D03*
X100220000Y-84370000D03*
D20*
X116684226Y-117017800D03*
D19*
X124170000Y-85200000D03*
D20*
X79180000Y-108630000D03*
D19*
X124240000Y-129090000D03*
D20*
X118024229Y-118327800D03*
D19*
X120180000Y-93080000D03*
X86840000Y-133580000D03*
D20*
X116684226Y-106984800D03*
D19*
X88490000Y-97830000D03*
X102510000Y-130870000D03*
X93410000Y-123100000D03*
D20*
X111412171Y-115900000D03*
X114051055Y-105674800D03*
D19*
X90660000Y-130820000D03*
X95290000Y-129190000D03*
X79070000Y-112080000D03*
X64580000Y-100660000D03*
D20*
X119355029Y-114580000D03*
D19*
X115650000Y-91900000D03*
X94090000Y-98750000D03*
D20*
X108775029Y-114560000D03*
D19*
X94530000Y-96670000D03*
D20*
X118005029Y-114560000D03*
D19*
X128730000Y-93520000D03*
D20*
X116688197Y-105674800D03*
D19*
X95783400Y-105841800D03*
X118643400Y-97510600D03*
X76010000Y-96300000D03*
X136960000Y-97400000D03*
X96723200Y-105816400D03*
X92130000Y-113030000D03*
X77495400Y-105664000D03*
X115260000Y-127350000D03*
X64560000Y-109860000D03*
X65200000Y-103420000D03*
X85760000Y-133540000D03*
X102600000Y-100790000D03*
X133890000Y-81170000D03*
X115600000Y-102970000D03*
X134160000Y-99780000D03*
X103260000Y-88160000D03*
X64580000Y-110640000D03*
X133870000Y-93080000D03*
X114970000Y-129890000D03*
X61850000Y-90360000D03*
X94894400Y-105816400D03*
X116484400Y-103505000D03*
X65420000Y-109220000D03*
X83490000Y-121800000D03*
D20*
X119352800Y-107004800D03*
X77550000Y-125780000D03*
D19*
X108762800Y-91587800D03*
X65020000Y-105420000D03*
X124256800Y-130124200D03*
X133270000Y-102810000D03*
D20*
X107500000Y-113250000D03*
D19*
X137130000Y-107700000D03*
X70170000Y-133510000D03*
X122428000Y-100558600D03*
D20*
X107514229Y-118327800D03*
X116705655Y-118327800D03*
D19*
X81980000Y-133400000D03*
X85330000Y-124520000D03*
D20*
X107495029Y-115900000D03*
D19*
X94894400Y-106527600D03*
X120910000Y-81110000D03*
D20*
X109093000Y-99771200D03*
D19*
X121793000Y-121285000D03*
X121640600Y-100533200D03*
D20*
X112728513Y-109434000D03*
D19*
X107600000Y-134300000D03*
D20*
X115365655Y-110710000D03*
D19*
X126441200Y-99898200D03*
X97120000Y-84340000D03*
X110970000Y-81070000D03*
D20*
X77560000Y-127460000D03*
X115365655Y-117017800D03*
D19*
X118550000Y-123850000D03*
X103790000Y-102990000D03*
D20*
X114047084Y-110710000D03*
X108774600Y-108314000D03*
D19*
X68760000Y-128220000D03*
X111950000Y-131030000D03*
X91370000Y-103220000D03*
D20*
X108772800Y-112050000D03*
D19*
X112960000Y-103960000D03*
D20*
X114047084Y-109434000D03*
X119356771Y-105694800D03*
X111411742Y-108314000D03*
X114049313Y-114560000D03*
D19*
X102750000Y-81750000D03*
X105810000Y-81340000D03*
X105950000Y-103570000D03*
X99640000Y-116120000D03*
D20*
X119352800Y-112070000D03*
D19*
X68840000Y-111770000D03*
D20*
X107492800Y-117017800D03*
X119360000Y-113270000D03*
X81710000Y-129460000D03*
X109093000Y-95986600D03*
D19*
X78409800Y-106426000D03*
X80580000Y-122980000D03*
X106740000Y-127400000D03*
D20*
X110091371Y-112050000D03*
D19*
X99974400Y-100660200D03*
X69060000Y-101690000D03*
X134420000Y-111230000D03*
X68170000Y-95500000D03*
X84348626Y-85323326D03*
D20*
X118002800Y-109434000D03*
X114047084Y-106984800D03*
D19*
X116484400Y-102895400D03*
D20*
X115367884Y-115900000D03*
X110112800Y-118327800D03*
X110947200Y-99771200D03*
D19*
X76708000Y-105638600D03*
D20*
X116684226Y-110710000D03*
D19*
X137120000Y-100480000D03*
X98800000Y-128580000D03*
X129290000Y-99330000D03*
X75565000Y-89179400D03*
X89490000Y-130980000D03*
X101780000Y-90720000D03*
X98780000Y-87830000D03*
X122428000Y-97917000D03*
D20*
X112749942Y-118327800D03*
D19*
X64490000Y-123240000D03*
X114960000Y-129070000D03*
D20*
X112732484Y-105674800D03*
X116684226Y-112050000D03*
D19*
X137890000Y-116700000D03*
X108780000Y-130840000D03*
D20*
X108775029Y-115900000D03*
D19*
X137310000Y-91510000D03*
X108864400Y-128717000D03*
X83490000Y-129070000D03*
X114760000Y-133790000D03*
X73760000Y-97900000D03*
X127320000Y-130570000D03*
X128920000Y-94700000D03*
D20*
X119352800Y-109454000D03*
D19*
X116280000Y-133840000D03*
D20*
X118002800Y-106984800D03*
D19*
X131200000Y-130240000D03*
X104521000Y-95605600D03*
X117144800Y-100076000D03*
X137290000Y-118500000D03*
D20*
X111417142Y-113250000D03*
D19*
X88470000Y-130880000D03*
X121996200Y-99263200D03*
X136940000Y-93830000D03*
X96697800Y-105079800D03*
X137270000Y-96050000D03*
D20*
X119374229Y-118347800D03*
D19*
X111180000Y-90820000D03*
X108102400Y-91567000D03*
D20*
X119352800Y-117037800D03*
D19*
X113080000Y-81160000D03*
D20*
X108772800Y-110710000D03*
D19*
X117144800Y-101549200D03*
X120910000Y-93070000D03*
D20*
X112877600Y-99771200D03*
D19*
X67880000Y-128210000D03*
D20*
X78160000Y-123520000D03*
D19*
X107320000Y-80780000D03*
X77698600Y-87299800D03*
X120180000Y-92520000D03*
X97282000Y-80949800D03*
X121793000Y-122174000D03*
X88690000Y-102670000D03*
X85510000Y-84280000D03*
X117250000Y-94730000D03*
D20*
X115365655Y-106984800D03*
D19*
X135440000Y-128550000D03*
D20*
X118002800Y-112050000D03*
D19*
X137150000Y-111190000D03*
X66290000Y-105510000D03*
D20*
X114068513Y-118327800D03*
X110093171Y-108314000D03*
X112852200Y-97790000D03*
D19*
X68770000Y-105300000D03*
D20*
X110091371Y-109434000D03*
X108776771Y-105674800D03*
D19*
X104485000Y-93192600D03*
X67350000Y-106650000D03*
X77495400Y-104978200D03*
X91330000Y-86610000D03*
X58790000Y-128800000D03*
X123610000Y-102650000D03*
D20*
X109118400Y-97840800D03*
D19*
X117120000Y-98330000D03*
X101710000Y-87850000D03*
X117424200Y-80848200D03*
X87200000Y-99460000D03*
D20*
X112728513Y-110710000D03*
X110098571Y-113250000D03*
D19*
X78384400Y-104978200D03*
X126480000Y-123650000D03*
D20*
X114048884Y-108314000D03*
D19*
X79900000Y-130760000D03*
X68820000Y-103550000D03*
X111060000Y-101420000D03*
X76810000Y-97580000D03*
X134550000Y-90510000D03*
X112240000Y-123220000D03*
X109410000Y-80970000D03*
X128410000Y-121740000D03*
D20*
X118002800Y-110710000D03*
X108794229Y-118327800D03*
D19*
X134210000Y-109040000D03*
D20*
X110947200Y-96062800D03*
X111409942Y-117017800D03*
X116691426Y-113250000D03*
D19*
X92140000Y-128350000D03*
X69780000Y-115080000D03*
X82120000Y-124520000D03*
D20*
X112728513Y-117017800D03*
D19*
X68100000Y-101680000D03*
X68790000Y-97750000D03*
D20*
X115365655Y-109434000D03*
D19*
X134110000Y-122250000D03*
D20*
X115367884Y-114560000D03*
D19*
X94630000Y-112830000D03*
D20*
X76420000Y-121770000D03*
D19*
X129930000Y-126630000D03*
D20*
X112728513Y-112050000D03*
D19*
X107750000Y-122430000D03*
D20*
X116684226Y-109434000D03*
D19*
X109821900Y-133780000D03*
X116586000Y-92481400D03*
X67530000Y-116760000D03*
D20*
X118002800Y-117017800D03*
X114047084Y-117017800D03*
D19*
X104250000Y-83100000D03*
X105440000Y-130810000D03*
X97470000Y-87730000D03*
X94869000Y-105105200D03*
D20*
X112730313Y-108314000D03*
D19*
X110660000Y-103400000D03*
D20*
X112730742Y-114560000D03*
D19*
X121793000Y-123215400D03*
D20*
X112728513Y-106984800D03*
X111409942Y-109434000D03*
X110091371Y-110710000D03*
D19*
X68840000Y-110990000D03*
X134570000Y-88710000D03*
X64470000Y-124030000D03*
D20*
X115365655Y-112050000D03*
X118010000Y-113250000D03*
D19*
X84000000Y-81970000D03*
X99510000Y-98680000D03*
X76330000Y-80520000D03*
X89331800Y-87909400D03*
D20*
X111409942Y-110710000D03*
X110093600Y-114560000D03*
X111431371Y-118327800D03*
X77540000Y-126650000D03*
D19*
X107350000Y-130440000D03*
X95808800Y-106527600D03*
X98750000Y-130770000D03*
X66380000Y-109250000D03*
X134150000Y-98050000D03*
D20*
X112852200Y-96037400D03*
D19*
X96748600Y-106502200D03*
D20*
X110091371Y-117017800D03*
D19*
X114280000Y-103780000D03*
X76708000Y-104978200D03*
X90270000Y-80570000D03*
X129910000Y-112290000D03*
X85090000Y-130080000D03*
X75565000Y-89789000D03*
D20*
X114049313Y-115900000D03*
D19*
X92470000Y-86570000D03*
D20*
X116686455Y-115900000D03*
D19*
X108260000Y-127350000D03*
X105040000Y-128060000D03*
X123647200Y-121310400D03*
X64380000Y-130250000D03*
D20*
X112730742Y-115900000D03*
X111412171Y-114560000D03*
D19*
X68800000Y-114020000D03*
X112680000Y-101450000D03*
X87690000Y-100850000D03*
D20*
X111413913Y-105674800D03*
D19*
X90220000Y-82180000D03*
D20*
X107492800Y-112050000D03*
X118004600Y-108314000D03*
D19*
X106260000Y-130890000D03*
D20*
X112735713Y-113250000D03*
D19*
X68260000Y-123950000D03*
X137200000Y-99590000D03*
X125755400Y-92278200D03*
D20*
X110095342Y-105674800D03*
X115369626Y-105674800D03*
D19*
X119532400Y-91414600D03*
D20*
%TO.N,+5V*%
X85242400Y-116586000D03*
D19*
X97729000Y-110236000D03*
D20*
X85242400Y-115570000D03*
X86156800Y-111556800D03*
X85242400Y-114554000D03*
D19*
X86660000Y-122380000D03*
X121900000Y-105630000D03*
D20*
X86156800Y-116535200D03*
X85242400Y-111607600D03*
X86156800Y-114503200D03*
X86156800Y-112572800D03*
D19*
X86060000Y-121770000D03*
D20*
X73840000Y-109260000D03*
X86156800Y-113538000D03*
D19*
X124570000Y-97240000D03*
D20*
X85242400Y-112623600D03*
X86156800Y-115519200D03*
X86156800Y-110591600D03*
X85242400Y-113538000D03*
D19*
X120548400Y-98221800D03*
X104960000Y-90810000D03*
X102720000Y-93000000D03*
X124360000Y-95940000D03*
X60850000Y-127070000D03*
D21*
X102311200Y-102438200D03*
D20*
X85242400Y-110591600D03*
D19*
%TO.N,3V3_SYS*%
X118830000Y-87560000D03*
%TO.N,USB2-*%
X134540000Y-89374834D03*
X113263500Y-81640000D03*
%TO.N,USB2+*%
X134540000Y-89901834D03*
X112736500Y-81640000D03*
%TO.N,PORT_VBUS_2*%
X134243334Y-87763334D03*
X117020000Y-87100000D03*
%TO.N,USB3-*%
X111263500Y-81680000D03*
X137250000Y-98351500D03*
%TO.N,USB3+*%
X137250000Y-98878500D03*
X110736500Y-81680000D03*
%TO.N,PORT_VBUS_3*%
X133700000Y-96750000D03*
X110070000Y-80960000D03*
%TO.N,USB4-*%
X109263500Y-81660000D03*
X133583677Y-108053677D03*
%TO.N,USB4+*%
X133956323Y-108426323D03*
X108736500Y-81660000D03*
%TO.N,PORT_VBUS_4*%
X137300000Y-105760000D03*
X108740000Y-80850000D03*
%TO.N,ETH_RADIO_TX_N*%
X102630000Y-119546800D03*
X102304140Y-81090000D03*
X122125060Y-116374940D03*
%TO.N,ETH_RADIO_TX_P*%
X101695860Y-81090000D03*
X121694940Y-116805060D03*
X102630000Y-120353200D03*
%TO.N,ETH_RADIO_RX_N*%
X97575106Y-120014894D03*
X101304140Y-80290000D03*
X122000000Y-125635860D03*
%TO.N,ETH_RADIO_RX_P*%
X97004894Y-120585106D03*
X122000000Y-126244140D03*
X100695860Y-80290000D03*
%TO.N,ETH_SPARE_RX_P*%
X121780000Y-107694140D03*
X99804140Y-79690000D03*
%TO.N,ETH_SPARE_RX_N*%
X121780000Y-107085860D03*
X99195860Y-79690000D03*
%TO.N,ETH_SPARE_TX_P*%
X118770000Y-96504140D03*
X98304140Y-79720000D03*
%TO.N,ETH_SPARE_TX_N*%
X118770000Y-95895860D03*
X97695860Y-79720000D03*
D20*
%TO.N,Net-(D2-K)*%
X96580000Y-107730000D03*
X97920000Y-102810000D03*
D19*
%TO.N,FMU_I2C_1_SDA*%
X65000000Y-116980000D03*
X103437300Y-123567300D03*
%TO.N,FMU_I2C_1_SCL*%
X64970000Y-115710000D03*
X101670000Y-120520000D03*
%TO.N,GPS1_RX*%
X101200000Y-120150000D03*
X65820000Y-115280000D03*
%TO.N,GPS1_TX*%
X65800000Y-114720000D03*
X100782162Y-119804123D03*
%TO.N,+VDD_5V_PERIPH*%
X108220000Y-134110000D03*
X110960000Y-134390000D03*
X65910000Y-114190000D03*
X105710000Y-134240000D03*
X61760000Y-118630000D03*
X66840000Y-130060000D03*
X138330000Y-123950000D03*
X110235000Y-134265000D03*
X76380000Y-133550000D03*
X100400000Y-119480000D03*
X137560000Y-114790000D03*
X102590000Y-128570000D03*
%TO.N,BATT_VOLTAGE_SENS_PROT*%
X61860000Y-117380000D03*
X117320000Y-129400000D03*
X114360000Y-122780000D03*
%TO.N,BATT_CURRENT_SENS_PROT*%
X116740000Y-129380000D03*
X61780000Y-116110000D03*
X113840000Y-122360000D03*
%TO.N,FMU-CH1-PROT*%
X101840000Y-128640000D03*
X134410000Y-118330000D03*
%TO.N,IO-CH8-PROT*%
X104730000Y-134610000D03*
X137170000Y-119280000D03*
%TO.N,IO-CH7-PROT*%
X137110000Y-119990000D03*
X104290000Y-134910000D03*
%TO.N,IO-CH6-PROT*%
X103750000Y-134520000D03*
X137090000Y-121220000D03*
%TO.N,IO-CH5-PROT*%
X137130000Y-122480000D03*
X103320979Y-134848867D03*
%TO.N,IO-CH4-PROT*%
X137190000Y-123720000D03*
X102820000Y-134860000D03*
%TO.N,IO-CH3-PROT*%
X102260000Y-134870000D03*
X137250000Y-124990000D03*
%TO.N,IO-CH2-PROT*%
X101750000Y-134780000D03*
X134220000Y-126240000D03*
%TO.N,IO-CH1-PROT*%
X101140000Y-134670000D03*
X137320000Y-127470000D03*
%TO.N,ETH_RADIO_TX_POSTMAG_N*%
X134220000Y-117090660D03*
X137120000Y-101925460D03*
%TO.N,ETH_RADIO_TX_POSTMAG_P*%
X137120000Y-102533740D03*
X134220000Y-117698940D03*
%TO.N,ETH_RADIO_RX_POSTMAG_N*%
X134160000Y-124710660D03*
X137130000Y-104425460D03*
%TO.N,ETH_RADIO_RX_POSTMAG_P*%
X134160000Y-125318940D03*
X137130000Y-105033740D03*
%TO.N,ETH_SPARE_TX_POSTMAG_N*%
X137190000Y-92254260D03*
X134150000Y-98580860D03*
%TO.N,ETH_SPARE_TX_POSTMAG_P*%
X134150000Y-99189140D03*
X137190000Y-92862540D03*
%TO.N,ETH_SPARE_RX_POSTMAG_N*%
X134120000Y-106200860D03*
X137090000Y-94754260D03*
%TO.N,ETH_SPARE_RX_POSTMAG_P*%
X134120000Y-106809140D03*
X137090000Y-95362540D03*
D20*
%TO.N,Net-(D3-K)*%
X78245300Y-109710000D03*
X79640000Y-102720000D03*
D19*
%TO.N,+1V1*%
X118668800Y-98221800D03*
X122148600Y-92684600D03*
X122148600Y-93243400D03*
X108102400Y-92227400D03*
X111125000Y-92252800D03*
X107518200Y-103581200D03*
X123740000Y-95930000D03*
X112664200Y-103454200D03*
X116454000Y-96062800D03*
X103370000Y-92990000D03*
X121890000Y-104970000D03*
X116494600Y-100076000D03*
X109139200Y-103428800D03*
X116454400Y-97561400D03*
X122580000Y-95890000D03*
X121880000Y-95870000D03*
%TO.N,+5V_FMU*%
X124820000Y-126640000D03*
X108910000Y-123310000D03*
X108960000Y-124290000D03*
D20*
X103225600Y-116687600D03*
X75210000Y-125330000D03*
X104089200Y-113588800D03*
X104089200Y-115671600D03*
D19*
X102710000Y-95610000D03*
X122540000Y-91460000D03*
D20*
X75350000Y-126660000D03*
X104089200Y-111658400D03*
X92910000Y-108670000D03*
X103225600Y-111658400D03*
X74760000Y-126660000D03*
D21*
X69392800Y-119126000D03*
D19*
X126350000Y-95960000D03*
D20*
X79970000Y-127700000D03*
X104089200Y-112572800D03*
D19*
X109930000Y-124290000D03*
X62160000Y-127160000D03*
X109580000Y-123300000D03*
X66070000Y-119030000D03*
X109430000Y-124300000D03*
D20*
X104089200Y-114655600D03*
X103225600Y-110642400D03*
D19*
X81110000Y-127508000D03*
D20*
X103225600Y-113588800D03*
D19*
X65760000Y-122210000D03*
D20*
X103225600Y-112572800D03*
D19*
X122670000Y-105620000D03*
D20*
X103225600Y-115671600D03*
X104089200Y-116687600D03*
X103225600Y-114655600D03*
X104089200Y-110642400D03*
D19*
%TO.N,IRID_TX_IN_3.3*%
X115610000Y-81130000D03*
X79360000Y-81070000D03*
%TO.N,IRID_RING_3.3*%
X113309400Y-80014500D03*
X78640000Y-79270000D03*
%TO.N,IRID_RX_OUT_3.3*%
X115300000Y-80360000D03*
X73230000Y-82460000D03*
%TO.N,USB_EXT2_SSTX-*%
X113280000Y-103430000D03*
X100390000Y-128380000D03*
%TO.N,Net-(U9-VCC)*%
X69750000Y-115860000D03*
X70730000Y-119120000D03*
%TO.N,XAVIER_I2C1_SCL*%
X128010000Y-130660000D03*
X130370000Y-95980000D03*
X116920000Y-84940000D03*
%TO.N,CAM1_D0_N*%
X112454284Y-87445716D03*
%TO.N,CAM1_D0_P*%
X112045716Y-87854284D03*
X104100000Y-86720000D03*
X103010000Y-85540000D03*
%TO.N,CAM1_C_N*%
X108110000Y-86280000D03*
%TO.N,CAM1_C_P*%
X108990000Y-86830000D03*
%TO.N,CAM1_D1_N*%
X105510000Y-86160000D03*
%TO.N,CAM1_D1_P*%
X106035716Y-86644284D03*
%TO.N,XAVIER_I2C1_SDA*%
X130570000Y-129980000D03*
X116250000Y-84480000D03*
X130960000Y-95960000D03*
%TO.N,+3V3_MIPI*%
X90270000Y-95590000D03*
%TO.N,CAM0_D2_P*%
X113732690Y-90863129D03*
%TO.N,RC_INPUT*%
X76820000Y-100840000D03*
X101790000Y-110737300D03*
X64970000Y-92840000D03*
X106390000Y-122150000D03*
%TO.N,+VDD_5V_RADIO*%
X69240000Y-130350000D03*
X66500000Y-91570000D03*
X107240000Y-127840000D03*
%TO.N,BUZZER_OUT*%
X66320000Y-117840000D03*
X64810000Y-121970000D03*
%TO.N,SAFETY_VDD*%
X105750000Y-127550000D03*
X64880000Y-120720000D03*
X99280000Y-123780000D03*
%TO.N,SAFETY_SWITCH_IN*%
X64980000Y-118250000D03*
X103874349Y-123900000D03*
%TO.N,TELEM1_TX*%
X114280000Y-131130000D03*
X75180000Y-133430000D03*
%TO.N,TELEM1_RX*%
X113750000Y-133660000D03*
X73900000Y-133360000D03*
%TO.N,TELEM1_CTS*%
X113240000Y-134040000D03*
X72680000Y-133380000D03*
%TO.N,TELEM1_RTS*%
X71390000Y-133380000D03*
X112780000Y-134420000D03*
%TO.N,INTVCC*%
X125791000Y-99872800D03*
X120497600Y-99237800D03*
%TO.N,USB_EXT2_SSTX+*%
X113840000Y-103410000D03*
X100380000Y-128930000D03*
%TO.N,CAN_2+*%
X137730000Y-125470860D03*
X108695860Y-133920000D03*
%TO.N,CAN_2-*%
X109304140Y-133920000D03*
X137730000Y-126079140D03*
%TO.N,FMU_I2C_2_SDA*%
X64780000Y-125880000D03*
X107200000Y-133820000D03*
%TO.N,FMU_I2C_2_SCL*%
X64750000Y-126590000D03*
X106750000Y-134270000D03*
%TO.N,FMU-CH4-PROT*%
X99310000Y-129550000D03*
X134370000Y-113670000D03*
%TO.N,FMU-CH3-PROT*%
X99750000Y-128470000D03*
X134420000Y-115000000D03*
%TO.N,FMU-CH2-PROT*%
X134420000Y-116120000D03*
X101330000Y-128710000D03*
%TO.N,USB_EXT1_SSTX-*%
X84426323Y-128806323D03*
X117356323Y-99316323D03*
X87690000Y-100322070D03*
%TO.N,USB_EXT1_SSTX+*%
X87690000Y-99817930D03*
X84053677Y-128433677D03*
X116983677Y-98943677D03*
%TO.N,CAM0_D2_N*%
X114267310Y-90863129D03*
%TO.N,CAM0_D3_P*%
X115640983Y-87310983D03*
%TO.N,CAM1_GPIO*%
X108290000Y-90700000D03*
X112170000Y-80767300D03*
%TO.N,CAM1_MCLK*%
X107760000Y-90690000D03*
X112551641Y-81092037D03*
%TO.N,CAM1_SCL0*%
X113830000Y-80940000D03*
X107240000Y-90680000D03*
%TO.N,CAM1_SDA0*%
X106600000Y-88150000D03*
X114572700Y-80500000D03*
%TO.N,CAM0_D0_N*%
X97670000Y-84671100D03*
%TO.N,CAM0_D0_P*%
X97670000Y-85248900D03*
%TO.N,CAM0_C_N*%
X96410000Y-85730000D03*
%TO.N,CAM0_C_P*%
X96480000Y-86280000D03*
%TO.N,CAM0_D1_N*%
X97830000Y-86581100D03*
%TO.N,CAM0_D1_P*%
X97830000Y-87158900D03*
%TO.N,CAM0_GPIO*%
X101660000Y-93200000D03*
%TO.N,CAM0_MCLK*%
X100180000Y-93130000D03*
%TO.N,CAM0_SDA0*%
X98680000Y-93020000D03*
%TO.N,USBSS_TX_N*%
X112290000Y-90990000D03*
X105263500Y-81350000D03*
%TO.N,USBSS_TX_P*%
X111770000Y-90980000D03*
X104736500Y-81350000D03*
%TO.N,UART4_RX*%
X114660000Y-127480000D03*
X119167208Y-126152989D03*
%TO.N,UART4_TX*%
X119190000Y-125630000D03*
X114120000Y-127490000D03*
%TO.N,S.BUS_OUT*%
X67920000Y-130900000D03*
X113470000Y-127530000D03*
%TO.N,USB_CELL_SSTX+*%
X116643677Y-94833677D03*
X64600000Y-111706000D03*
X66200000Y-96937930D03*
%TO.N,USB_CELL_SSTX-*%
X66200000Y-97442070D03*
X117016323Y-95206323D03*
X64600000Y-111179000D03*
%TO.N,+SIM_VCC*%
X83310000Y-102980000D03*
X76300000Y-111520000D03*
X128077000Y-93522800D03*
X127650000Y-96140000D03*
%TO.N,Net-(D9-K)*%
X77380000Y-130360000D03*
X75950000Y-100150000D03*
X76190000Y-130290000D03*
%TO.N,Net-(D10-A)*%
X132010000Y-112350000D03*
X120780000Y-134330000D03*
X128030000Y-134220000D03*
%TO.N,USB_CELL_D+*%
X68330000Y-96097930D03*
X114180000Y-94260000D03*
X68710000Y-104236500D03*
%TO.N,USB_CELL_D-*%
X114526323Y-94706323D03*
X68710000Y-104763500D03*
X68330000Y-96602070D03*
%TO.N,USB_CELL_SSRX+*%
X114470000Y-96554501D03*
X75891759Y-96891759D03*
X68740000Y-110263500D03*
%TO.N,USB_CELL_SSRX-*%
X114470000Y-97081501D03*
X69410000Y-110310000D03*
X76248241Y-97248241D03*
%TO.N,USB_EXT1_D+*%
X114490000Y-98054502D03*
X91101500Y-131190000D03*
%TO.N,USB_EXT1_D-*%
X114490000Y-98581502D03*
X91628500Y-131190000D03*
%TO.N,USB_EXT1_SSRX+*%
X114460000Y-100554502D03*
X87351500Y-130890000D03*
X88311759Y-101721759D03*
%TO.N,USB_EXT1_SSRX-*%
X114460000Y-101081502D03*
X88668241Y-102078241D03*
X87878500Y-130890000D03*
%TO.N,USB_EXT2_D+*%
X115136323Y-103243677D03*
X107871500Y-130740000D03*
%TO.N,USB_EXT2_D-*%
X114763677Y-103616323D03*
X107850000Y-130170000D03*
%TO.N,USB_EXT2_SSRX+*%
X112150000Y-101440000D03*
X104121500Y-130750000D03*
X104132930Y-122230000D03*
%TO.N,USB_EXT2_SSRX-*%
X104648500Y-130750000D03*
X104637070Y-122230000D03*
X111630000Y-101430000D03*
%TO.N,PWRCTRL2*%
X101720000Y-109750000D03*
X102100000Y-100330000D03*
%TO.N,+3V3*%
X118414800Y-103454200D03*
X121920000Y-102463600D03*
X125710000Y-95960000D03*
X123260000Y-92170000D03*
X122650000Y-104980000D03*
X103378000Y-96951800D03*
X118389400Y-102844600D03*
X104889600Y-101142800D03*
X121920000Y-103784400D03*
X118668800Y-99745800D03*
X103480000Y-103710000D03*
X114528600Y-92242600D03*
X116484400Y-101549200D03*
X103454200Y-94640400D03*
X104368600Y-98069400D03*
X103360000Y-95590000D03*
X121920000Y-103124000D03*
X108770000Y-92220000D03*
%TO.N,OVERCUR3*%
X103378000Y-96312200D03*
X102330000Y-113400000D03*
%TO.N,OVERCUR2*%
X104104400Y-94640400D03*
X105321401Y-117240000D03*
X97290000Y-116550000D03*
%TO.N,CAN_1+*%
X137380000Y-116360860D03*
X110695860Y-131020000D03*
%TO.N,CAN_1-*%
X111304140Y-131020000D03*
X137380000Y-116969140D03*
D20*
%TO.N,/MainPower/PWR_IN*%
X81305400Y-91541600D03*
X83591400Y-90551000D03*
X82346800Y-92583000D03*
X82346800Y-90551000D03*
X81305400Y-90551000D03*
X83591400Y-89509600D03*
X83591400Y-92583000D03*
X83591400Y-91541600D03*
D19*
X75539600Y-91998800D03*
D20*
X81305400Y-89509600D03*
X82346800Y-91541600D03*
D19*
X78359000Y-92430600D03*
D20*
X82346800Y-89509600D03*
D19*
X75539600Y-92583000D03*
D20*
X81305400Y-92583000D03*
D19*
%TO.N,JETSON_USB1_D_P*%
X106736500Y-81290000D03*
X109104100Y-90900000D03*
%TO.N,JETSON_USB1_D_N*%
X107263500Y-81290000D03*
X109631100Y-90900000D03*
%TO.N,USBSS_RX_P*%
X110104099Y-91130000D03*
X103236500Y-81450000D03*
%TO.N,USBSS_RX_N*%
X103763500Y-81450000D03*
X110631099Y-91130000D03*
%TO.N,Net-(IC1-USB_R1)*%
X115351600Y-93141800D03*
%TO.N,JETSON_CAN+*%
X93324894Y-96144894D03*
X64870000Y-103830860D03*
X98020000Y-91929350D03*
%TO.N,JETSON_CAN-*%
X98650000Y-91929350D03*
X64870000Y-104439140D03*
X93895106Y-96715106D03*
%TO.N,PORT_VBUS_JETSON*%
X103780000Y-93469350D03*
X106180000Y-80830000D03*
%TO.N,GPIO02*%
X72830000Y-97870000D03*
X118320000Y-89190000D03*
X76640000Y-89050000D03*
%TO.N,BATT2_CURRENT_SENS_PROT*%
X115010000Y-122940000D03*
X61800000Y-113610000D03*
%TO.N,BATT2_VOLTAGE_SENS_PROT*%
X115350000Y-122320000D03*
X61730000Y-114680000D03*
%TO.N,SPARE1_ADC1*%
X116740000Y-122220000D03*
X93065744Y-117871709D03*
%TO.N,SPARE2_ADC1*%
X97100000Y-117090000D03*
X117180000Y-120710000D03*
%TO.N,Net-(J20-Pin_7)*%
X64730000Y-119600000D03*
X105230000Y-123190000D03*
D20*
%TO.N,Net-(J30-~{FULL_CARD_POWER_OFF})*%
X76510000Y-101360000D03*
X72880000Y-103890000D03*
%TO.N,PCIE_DIS*%
X78870000Y-109230000D03*
X74000000Y-107520000D03*
D19*
%TO.N,VBUS_CELL*%
X71810000Y-106720000D03*
X98950000Y-96640000D03*
%TO.N,SIM_RESET*%
X125160000Y-94710000D03*
X89220000Y-104260000D03*
X92490000Y-98950000D03*
X74730000Y-110000000D03*
%TO.N,SIM_CLK*%
X76200000Y-110440000D03*
X123490000Y-93560000D03*
X89220000Y-99210000D03*
%TO.N,SIM_DATA*%
X123850000Y-94710000D03*
X76850000Y-110440000D03*
X88560000Y-99240000D03*
%TO.N,SIM_DETECT*%
X129870000Y-94700000D03*
X90850000Y-99180000D03*
X76280000Y-119050000D03*
%TO.N,Net-(U9-+IN)*%
X106330000Y-122870000D03*
X72110000Y-118490000D03*
%TO.N,PGOOD2*%
X120548400Y-100228400D03*
X126570000Y-98370000D03*
%TO.N,+5V_PROT*%
X90115000Y-117095000D03*
X66310000Y-102250000D03*
%TO.N,RS232_TXD*%
X129870000Y-130500000D03*
%TO.N,RS232_RXD*%
X128750000Y-130550000D03*
%TO.N,+5V_PROT_INS*%
X118680000Y-133420000D03*
X118670000Y-124710000D03*
X95590000Y-122640000D03*
X93740000Y-122620000D03*
%TO.N,Net-(J13-Pin_6)*%
X61810000Y-112540000D03*
X91980000Y-117848700D03*
%TO.N,Net-(J13-Pin_7)*%
X95873592Y-117560000D03*
X61840000Y-111170000D03*
%TO.N,CAM0_D3_N*%
X116019017Y-87689017D03*
%TO.N,nMOD_SLEEP*%
X76100000Y-88310000D03*
X117030000Y-87660000D03*
X72080000Y-97970000D03*
%TO.N,SLEEP{slash}WAKE*%
X75580000Y-87660000D03*
X71420000Y-97870000D03*
X117640000Y-87940000D03*
%TD*%
D22*
%TO.N,CAM0_C_N*%
X85429017Y-85191451D02*
X85429017Y-85010983D01*
X86209753Y-85670300D02*
X85907866Y-85670300D01*
X86999700Y-86649700D02*
X86999700Y-86110000D01*
X88199700Y-86649700D02*
X88199700Y-86110000D01*
X87320300Y-85670300D02*
X87320300Y-86649700D01*
X88520300Y-86110000D02*
X88520300Y-86649700D01*
X89010000Y-85670300D02*
X88960000Y-85670300D01*
X89424700Y-86224700D02*
X89424700Y-86085000D01*
X89610000Y-86360000D02*
X89560000Y-86360000D01*
X89745300Y-86085000D02*
X89745300Y-86224700D01*
X92716205Y-85670300D02*
X90160000Y-85670300D01*
X93266282Y-85670300D02*
X92716205Y-85670300D01*
X93705982Y-86649700D02*
X93705982Y-86110000D01*
X94026582Y-86110000D02*
X94026582Y-86649700D01*
X94905982Y-86649700D02*
X94905982Y-86110000D01*
X95226582Y-86110000D02*
X95226582Y-86649700D01*
X95735316Y-85670300D02*
X95666282Y-85670300D01*
X95895316Y-85830300D02*
X95735316Y-85670300D01*
X96309700Y-85830300D02*
X95895316Y-85830300D01*
X96410000Y-85730000D02*
X96309700Y-85830300D01*
X87160000Y-86810000D02*
G75*
G03*
X87320300Y-86649700I0J160300D01*
G01*
X88199700Y-85320300D02*
G75*
G03*
X87760000Y-84880600I-439700J0D01*
G01*
X88360000Y-86810000D02*
G75*
G03*
X88520300Y-86649700I0J160300D01*
G01*
X88960000Y-85670300D02*
G75*
G03*
X88520300Y-86110000I0J-439700D01*
G01*
X89424700Y-86085000D02*
G75*
G03*
X89010000Y-85670300I-414700J0D01*
G01*
X94466282Y-85670282D02*
G75*
G03*
X94026582Y-86110000I18J-439718D01*
G01*
X85907866Y-85670300D02*
X85429017Y-85191451D01*
X94906000Y-86110000D02*
G75*
G03*
X94466282Y-85670300I-439700J0D01*
G01*
X94906000Y-86649700D02*
G75*
G03*
X95066282Y-86810000I160300J0D01*
G01*
%TO.N,CAM0_C_P*%
X85231451Y-85389017D02*
X85050983Y-85389017D01*
%TO.N,CAM0_C_N*%
X93866282Y-86809982D02*
G75*
G03*
X94026582Y-86649700I18J160282D01*
G01*
%TO.N,CAM0_C_P*%
X85792134Y-85949700D02*
X85231451Y-85389017D01*
%TO.N,CAM0_C_N*%
X93706000Y-86649700D02*
G75*
G03*
X93866282Y-86810000I160300J0D01*
G01*
%TO.N,CAM0_C_P*%
X86560000Y-85949700D02*
X86209753Y-85949700D01*
X86720300Y-86649700D02*
X86720300Y-86110000D01*
X87599700Y-85320300D02*
X87599700Y-85670300D01*
X87920300Y-86110000D02*
X87920300Y-85320300D01*
%TO.N,CAM0_C_N*%
X88199700Y-86110000D02*
X88199700Y-85320300D01*
X87760000Y-84880600D02*
G75*
G03*
X87320300Y-85320300I0J-439700D01*
G01*
%TO.N,CAM0_C_P*%
X88799700Y-86110000D02*
X88799700Y-86649700D01*
%TO.N,CAM0_C_N*%
X88199700Y-86649700D02*
G75*
G03*
X88360000Y-86810000I160300J0D01*
G01*
%TO.N,CAM0_C_P*%
X89145300Y-86224700D02*
X89145300Y-86085000D01*
X89610000Y-86639400D02*
X89560000Y-86639400D01*
X90024700Y-86085000D02*
X90024700Y-86224700D01*
X93266282Y-85949700D02*
X92716205Y-85949700D01*
X93426582Y-86649700D02*
X93426582Y-86110000D01*
X94626582Y-86649700D02*
X94626582Y-86110000D01*
X95505982Y-86110000D02*
X95505982Y-86649700D01*
X95826282Y-86109700D02*
X95666282Y-85949700D01*
%TO.N,CAM0_C_N*%
X95666282Y-85670282D02*
G75*
G03*
X95226582Y-86110000I18J-439718D01*
G01*
%TO.N,CAM0_C_P*%
X96309700Y-86109700D02*
X95826282Y-86109700D01*
X96480000Y-86280000D02*
X96309700Y-86109700D01*
X86720300Y-86110000D02*
G75*
G03*
X86560000Y-85949700I-160300J0D01*
G01*
X86720300Y-86649700D02*
G75*
G03*
X87160000Y-87089400I439700J0D01*
G01*
X89010000Y-85949700D02*
X88960000Y-85949700D01*
X87160000Y-87089400D02*
G75*
G03*
X87599700Y-86649700I0J439700D01*
G01*
X87599700Y-85670300D02*
X87599700Y-86649700D01*
%TO.N,CAM0_C_N*%
X86999700Y-86649700D02*
G75*
G03*
X87160000Y-86810000I160300J0D01*
G01*
%TO.N,CAM0_C_P*%
X87920300Y-85320300D02*
G75*
G03*
X87760000Y-85160000I-160300J0D01*
G01*
%TO.N,CAM0_C_N*%
X89610000Y-86360000D02*
G75*
G03*
X89745300Y-86224700I0J135300D01*
G01*
%TO.N,CAM0_C_P*%
X87920300Y-86649700D02*
G75*
G03*
X88360000Y-87089400I439700J0D01*
G01*
X88360000Y-87089400D02*
G75*
G03*
X88799700Y-86649700I0J439700D01*
G01*
%TO.N,CAM0_C_N*%
X86999700Y-86110000D02*
G75*
G03*
X86560000Y-85670300I-439700J0D01*
G01*
%TO.N,CAM0_C_P*%
X88960000Y-85949700D02*
G75*
G03*
X88799700Y-86110000I0J-160300D01*
G01*
X89145300Y-86085000D02*
G75*
G03*
X89010000Y-85949700I-135300J0D01*
G01*
%TO.N,CAM0_C_N*%
X89424700Y-86224700D02*
G75*
G03*
X89560000Y-86360000I135300J0D01*
G01*
%TO.N,CAM0_C_P*%
X89610000Y-86639400D02*
G75*
G03*
X90024700Y-86224700I0J414700D01*
G01*
X86209753Y-85949700D02*
X85792134Y-85949700D01*
%TO.N,CAM0_C_N*%
X95066282Y-86809982D02*
G75*
G03*
X95226582Y-86649700I18J160282D01*
G01*
%TO.N,CAM0_C_P*%
X90160000Y-85949700D02*
G75*
G03*
X90024700Y-86085000I0J-135300D01*
G01*
X93866282Y-87089382D02*
G75*
G03*
X94305982Y-86649700I18J439682D01*
G01*
X93426600Y-86110000D02*
G75*
G03*
X93266282Y-85949700I-160300J0D01*
G01*
X87760000Y-85160000D02*
G75*
G03*
X87599700Y-85320300I0J-160300D01*
G01*
X94626600Y-86110000D02*
G75*
G03*
X94466282Y-85949700I-160300J0D01*
G01*
%TO.N,CAM0_C_N*%
X87320300Y-85320300D02*
X87320300Y-85670300D01*
%TO.N,CAM0_C_P*%
X93426600Y-86649700D02*
G75*
G03*
X93866282Y-87089400I439700J0D01*
G01*
X89145300Y-86224700D02*
G75*
G03*
X89560000Y-86639400I414700J0D01*
G01*
X92716205Y-85949700D02*
X90160000Y-85949700D01*
%TO.N,CAM0_C_N*%
X93706000Y-86110000D02*
G75*
G03*
X93266282Y-85670300I-439700J0D01*
G01*
%TO.N,CAM0_C_P*%
X94626600Y-86649700D02*
G75*
G03*
X95066282Y-87089400I439700J0D01*
G01*
X95066282Y-87089382D02*
G75*
G03*
X95505982Y-86649700I18J439682D01*
G01*
X94466282Y-85949682D02*
G75*
G03*
X94305982Y-86110000I18J-160318D01*
G01*
X87920300Y-86649700D02*
X87920300Y-86110000D01*
X95666282Y-85949682D02*
G75*
G03*
X95505982Y-86110000I18J-160318D01*
G01*
X94305982Y-86110000D02*
X94305982Y-86649700D01*
%TO.N,CAM0_C_N*%
X90160000Y-85670300D02*
G75*
G03*
X89745300Y-86085000I0J-414700D01*
G01*
X86560000Y-85670300D02*
X86209753Y-85670300D01*
%TO.N,CAM0_D0_N*%
X88200000Y-84320000D02*
X88200000Y-84170000D01*
X90680300Y-84120300D02*
X90680300Y-84660000D01*
X91559700Y-84660000D02*
X91559700Y-84120300D01*
X91880300Y-84120300D02*
X91880300Y-84660000D01*
X95317870Y-84820300D02*
X94120000Y-84820300D01*
X88700300Y-84820300D02*
X88200000Y-84320000D01*
X90520000Y-84820300D02*
G75*
G03*
X90680300Y-84660000I0J160300D01*
G01*
X91559700Y-84120300D02*
G75*
G03*
X91120000Y-83680600I-439700J0D01*
G01*
X91559700Y-84660000D02*
G75*
G03*
X91720000Y-84820300I160300J0D01*
G01*
X96153440Y-84848990D02*
X95346560Y-84848990D01*
X91720000Y-84820300D02*
G75*
G03*
X91880300Y-84660000I0J160300D01*
G01*
X93080300Y-84120300D02*
X93080300Y-84660000D01*
X92320000Y-83680600D02*
G75*
G03*
X91880300Y-84120300I0J-439700D01*
G01*
X92759700Y-84120300D02*
G75*
G03*
X92320000Y-83680600I-439700J0D01*
G01*
X92920000Y-84820300D02*
G75*
G03*
X93080300Y-84660000I0J160300D01*
G01*
X93520000Y-83680600D02*
G75*
G03*
X93080300Y-84120300I0J-439700D01*
G01*
X93959700Y-84120300D02*
G75*
G03*
X93520000Y-83680600I-439700J0D01*
G01*
%TO.N,CAM0_D0_P*%
X87712434Y-84210000D02*
X87620000Y-84210000D01*
%TO.N,CAM0_D0_N*%
X92759700Y-84660000D02*
X92759700Y-84120300D01*
%TO.N,CAM0_D0_P*%
X87871217Y-84368783D02*
X87712434Y-84210000D01*
X87871217Y-84431217D02*
X87871217Y-84368783D01*
%TO.N,CAM0_D0_N*%
X97520800Y-84820300D02*
X96182130Y-84820300D01*
%TO.N,CAM0_D0_P*%
X88539700Y-85099700D02*
X87871217Y-84431217D01*
%TO.N,CAM0_D0_N*%
X91120000Y-83680600D02*
G75*
G03*
X90680300Y-84120300I0J-439700D01*
G01*
%TO.N,CAM0_D0_P*%
X89838957Y-85099700D02*
X88539700Y-85099700D01*
X90520000Y-85099700D02*
X89838957Y-85099700D01*
X90959700Y-84120300D02*
X90959700Y-84660000D01*
X91280300Y-84660000D02*
X91280300Y-84120300D01*
X92159700Y-84120300D02*
X92159700Y-84660000D01*
X93359700Y-84120300D02*
X93359700Y-84660000D01*
X93680300Y-84660000D02*
X93680300Y-84120300D01*
%TO.N,CAM0_D0_N*%
X97670000Y-84671100D02*
X97520800Y-84820300D01*
%TO.N,CAM0_D0_P*%
X97670000Y-85248900D02*
X97520800Y-85099700D01*
%TO.N,CAM0_D0_N*%
X93959700Y-84660000D02*
X93959700Y-84120300D01*
%TO.N,CAM0_D0_P*%
X90520000Y-85099700D02*
G75*
G03*
X90959700Y-84660000I0J439700D01*
G01*
%TO.N,CAM0_D0_N*%
X93959700Y-84660000D02*
G75*
G03*
X94120000Y-84820300I160300J0D01*
G01*
X96182130Y-84820300D02*
X96153440Y-84848990D01*
X95346560Y-84848990D02*
X95317870Y-84820300D01*
%TO.N,CAM0_D0_P*%
X91280300Y-84120300D02*
G75*
G03*
X91120000Y-83960000I-160300J0D01*
G01*
X91280300Y-84660000D02*
G75*
G03*
X91720000Y-85099700I439700J0D01*
G01*
X92480300Y-84120300D02*
G75*
G03*
X92320000Y-83960000I-160300J0D01*
G01*
X91720000Y-85099700D02*
G75*
G03*
X92159700Y-84660000I0J439700D01*
G01*
X92480300Y-84660000D02*
X92480300Y-84120300D01*
%TO.N,CAM0_D0_N*%
X92759700Y-84660000D02*
G75*
G03*
X92920000Y-84820300I160300J0D01*
G01*
X89838957Y-84820300D02*
X88700300Y-84820300D01*
%TO.N,CAM0_D0_P*%
X92920000Y-85099700D02*
G75*
G03*
X93359700Y-84660000I0J439700D01*
G01*
X93520000Y-83960000D02*
G75*
G03*
X93359700Y-84120300I0J-160300D01*
G01*
X92480300Y-84660000D02*
G75*
G03*
X92920000Y-85099700I439700J0D01*
G01*
X91120000Y-83960000D02*
G75*
G03*
X90959700Y-84120300I0J-160300D01*
G01*
%TO.N,CAM0_D0_N*%
X90520000Y-84820300D02*
X89838957Y-84820300D01*
%TO.N,CAM0_D0_P*%
X93680300Y-84120300D02*
G75*
G03*
X93520000Y-83960000I-160300J0D01*
G01*
X93680300Y-84660000D02*
G75*
G03*
X94120000Y-85099700I439700J0D01*
G01*
X97520800Y-85099700D02*
X94120000Y-85099700D01*
X92320000Y-83960000D02*
G75*
G03*
X92159700Y-84120300I0J-160300D01*
G01*
D23*
%TO.N,CAM0_SCL0*%
X100080000Y-90820000D02*
X95260000Y-90820000D01*
X100200000Y-90700000D02*
X100080000Y-90820000D01*
D24*
%TO.N,ETH_RADIO_TX_N*%
X120015746Y-117104684D02*
X121004684Y-116115746D01*
X106660000Y-119378350D02*
X106660000Y-119395746D01*
X102778946Y-119695746D02*
X105760000Y-119695746D01*
X106060000Y-119395746D02*
X106060000Y-119378350D01*
X118904684Y-119695746D02*
X120015746Y-118584684D01*
X102630000Y-119546800D02*
X102778946Y-119695746D01*
X120015746Y-118584684D02*
X120015746Y-117104684D01*
X106960000Y-119695746D02*
X118904684Y-119695746D01*
X121004684Y-116115746D02*
X121795316Y-116115746D01*
X122054510Y-116374940D02*
X122125060Y-116374940D01*
X121795316Y-116115746D02*
X122054510Y-116374940D01*
X106660050Y-119378350D02*
G75*
G03*
X106360000Y-119078350I-300050J-50D01*
G01*
X105760000Y-119695700D02*
G75*
G03*
X106060000Y-119395746I0J300000D01*
G01*
X106659954Y-119395746D02*
G75*
G03*
X106960000Y-119695746I300046J46D01*
G01*
X106360000Y-119078400D02*
G75*
G03*
X106060000Y-119378350I0J-300000D01*
G01*
%TO.N,ETH_RADIO_TX_P*%
X121215316Y-116624254D02*
X120524254Y-117315316D01*
X120524254Y-117315316D02*
X120524254Y-118795316D01*
X120524254Y-118795316D02*
X119115316Y-120204254D01*
X121694940Y-116805060D02*
X121694940Y-116734510D01*
X102778946Y-120204254D02*
X102630000Y-120353200D01*
X119115316Y-120204254D02*
X102778946Y-120204254D01*
X121584684Y-116624254D02*
X121215316Y-116624254D01*
X121694940Y-116734510D02*
X121584684Y-116624254D01*
%TO.N,ETH_RADIO_RX_N*%
X121950114Y-125685746D02*
X122000000Y-125635860D01*
X121155316Y-125225746D02*
X121615316Y-125685746D01*
X100190000Y-120915746D02*
X100190000Y-120836950D01*
X120585316Y-125225746D02*
X121155316Y-125225746D01*
X117555316Y-121215746D02*
X120044254Y-123704684D01*
X101090000Y-121215746D02*
X117555316Y-121215746D01*
X100790000Y-120836950D02*
X100790000Y-120915746D01*
X97575106Y-120014894D02*
X97575106Y-120225536D01*
X121615316Y-125685746D02*
X121950114Y-125685746D01*
X120044254Y-124684684D02*
X120585316Y-125225746D01*
X97575106Y-120225536D02*
X98565316Y-121215746D01*
X98565316Y-121215746D02*
X99890000Y-121215746D01*
X120044254Y-123704684D02*
X120044254Y-124684684D01*
X99890000Y-121215700D02*
G75*
G03*
X100190000Y-120915746I0J300000D01*
G01*
X100490000Y-120537000D02*
G75*
G03*
X100190000Y-120836950I0J-300000D01*
G01*
X100790050Y-120836950D02*
G75*
G03*
X100490000Y-120536950I-300050J-50D01*
G01*
X100789954Y-120915746D02*
G75*
G03*
X101090000Y-121215746I300046J46D01*
G01*
%TO.N,ETH_RADIO_RX_P*%
X120944684Y-125734254D02*
X121404684Y-126194254D01*
X121950114Y-126194254D02*
X122000000Y-126244140D01*
X97215536Y-120585106D02*
X98354684Y-121724254D01*
X121404684Y-126194254D02*
X121950114Y-126194254D01*
X120374684Y-125734254D02*
X120944684Y-125734254D01*
X117344684Y-121724254D02*
X119535746Y-123915316D01*
X97004894Y-120585106D02*
X97215536Y-120585106D01*
X98354684Y-121724254D02*
X117344684Y-121724254D01*
X119535746Y-123915316D02*
X119535746Y-124895316D01*
X119535746Y-124895316D02*
X120374684Y-125734254D01*
D25*
%TO.N,+VDD_5V_PERIPH*%
X79260000Y-135370000D02*
X79250000Y-135360000D01*
D26*
X119216000Y-132766000D02*
X119740000Y-133290000D01*
X108220000Y-134110000D02*
X108220000Y-134210000D01*
D25*
X138870000Y-125020000D02*
X138330000Y-125560000D01*
X137560000Y-114790000D02*
X137840000Y-114790000D01*
X103280000Y-129260000D02*
X102590000Y-128570000D01*
D26*
X138330000Y-127680000D02*
X138330000Y-125560000D01*
D25*
X105710000Y-134520000D02*
X104860000Y-135370000D01*
D26*
X110080000Y-134420000D02*
X110235000Y-134265000D01*
D25*
X103280000Y-130740000D02*
X105710000Y-133170000D01*
X104860000Y-135370000D02*
X79260000Y-135370000D01*
X138870000Y-115820000D02*
X138870000Y-125020000D01*
X138330000Y-125560000D02*
X138330000Y-123950000D01*
X105710000Y-134240000D02*
X105710000Y-134520000D01*
X103280000Y-130740000D02*
X103280000Y-129260000D01*
X66840000Y-132880000D02*
X69330000Y-135370000D01*
X66840000Y-132880000D02*
X66840000Y-130060000D01*
X69330000Y-135370000D02*
X79240000Y-135370000D01*
X105710000Y-134240000D02*
X105710000Y-133170000D01*
D26*
X110235000Y-134265000D02*
X111734000Y-132766000D01*
D25*
X79250000Y-135360000D02*
X79240000Y-135370000D01*
D26*
X132720000Y-133290000D02*
X138330000Y-127680000D01*
D25*
X137840000Y-114790000D02*
X138870000Y-115820000D01*
D26*
X119740000Y-133290000D02*
X132720000Y-133290000D01*
X108220000Y-134210000D02*
X108430000Y-134420000D01*
X108430000Y-134420000D02*
X110080000Y-134420000D01*
X111734000Y-132766000D02*
X119216000Y-132766000D01*
D24*
%TO.N,ETH_RADIO_TX_POSTMAG_N*%
X135245746Y-116194684D02*
X135245746Y-106445316D01*
X134220000Y-117090660D02*
X134269886Y-117140546D01*
X137070114Y-101975346D02*
X137120000Y-101925460D01*
X133655746Y-103074684D02*
X134755084Y-101975346D01*
X135245746Y-106445316D02*
X133655746Y-104855316D01*
X133655746Y-104855316D02*
X133655746Y-103074684D01*
X134299884Y-117140546D02*
X135245746Y-116194684D01*
X134269886Y-117140546D02*
X134299884Y-117140546D01*
X134755084Y-101975346D02*
X137070114Y-101975346D01*
%TO.N,ETH_RADIO_TX_POSTMAG_P*%
X135754254Y-106234684D02*
X134164254Y-104644684D01*
X134220000Y-117698940D02*
X134269886Y-117649054D01*
X137070114Y-102483854D02*
X137120000Y-102533740D01*
X134164254Y-104644684D02*
X134164254Y-103285316D01*
X134510516Y-117649054D02*
X135754254Y-116405316D01*
X135754254Y-116405316D02*
X135754254Y-106234684D01*
X134269886Y-117649054D02*
X134510516Y-117649054D01*
X134965716Y-102483854D02*
X137070114Y-102483854D01*
X134164254Y-103285316D02*
X134965716Y-102483854D01*
%TO.N,ETH_SPARE_TX_POSTMAG_N*%
X134199886Y-98630746D02*
X134429684Y-98630746D01*
X136246284Y-92304146D02*
X137140114Y-92304146D01*
X134150000Y-98580860D02*
X134199886Y-98630746D01*
X134895746Y-98164684D02*
X134895746Y-93654684D01*
X134895746Y-93654684D02*
X136246284Y-92304146D01*
X137140114Y-92304146D02*
X137190000Y-92254260D01*
X134429684Y-98630746D02*
X134895746Y-98164684D01*
%TO.N,ETH_SPARE_TX_POSTMAG_P*%
X134150000Y-99189140D02*
X134199886Y-99139254D01*
X134199886Y-99139254D02*
X134640316Y-99139254D01*
X136456916Y-92812654D02*
X137140114Y-92812654D01*
X137140114Y-92812654D02*
X137190000Y-92862540D01*
X135404254Y-93865316D02*
X136456916Y-92812654D01*
X135404254Y-98375316D02*
X135404254Y-93865316D01*
X134640316Y-99139254D02*
X135404254Y-98375316D01*
D23*
%TO.N,IRID_TX_IN_3.3*%
X79360000Y-79970000D02*
X79360000Y-81070000D01*
X115610000Y-81130000D02*
X114570000Y-81130000D01*
X113831800Y-80391800D02*
X113101800Y-80391800D01*
X113101800Y-80391800D02*
X112760000Y-80050000D01*
X112760000Y-80050000D02*
X102250000Y-80050000D01*
X114570000Y-81130000D02*
X113831800Y-80391800D01*
X102250000Y-80050000D02*
X101488000Y-79288000D01*
X80042000Y-79288000D02*
X79360000Y-79970000D01*
X101488000Y-79288000D02*
X80042000Y-79288000D01*
%TO.N,IRID_RING_3.3*%
X102314790Y-79734000D02*
X112814000Y-79734000D01*
X101614790Y-79034000D02*
X102314790Y-79734000D01*
X78640000Y-79270000D02*
X79320000Y-79270000D01*
X79556000Y-79034000D02*
X101614790Y-79034000D01*
X79320000Y-79270000D02*
X79556000Y-79034000D01*
X112814000Y-79734000D02*
X113094500Y-80014500D01*
X113094500Y-80014500D02*
X113309400Y-80014500D01*
%TO.N,XAVIER_I2C1_SCL*%
X129984000Y-95594000D02*
X130370000Y-95980000D01*
X118420790Y-84940000D02*
X116920000Y-84940000D01*
X121508800Y-88028010D02*
X121508800Y-89708010D01*
X121508800Y-88028010D02*
X118420790Y-84940000D01*
X127394790Y-95594000D02*
X129984000Y-95594000D01*
X121508800Y-89708010D02*
X127394790Y-95594000D01*
%TO.N,XAVIER_I2C1_SDA*%
X130340000Y-95340000D02*
X127500000Y-95340000D01*
X130960000Y-95960000D02*
X130340000Y-95340000D01*
X121762800Y-89602800D02*
X121762800Y-87922800D01*
X118320000Y-84480000D02*
X121762800Y-87922800D01*
X118320000Y-84480000D02*
X116250000Y-84480000D01*
X121762800Y-89602800D02*
X127500000Y-95340000D01*
%TO.N,RC_INPUT*%
X86130000Y-107140000D02*
X101690000Y-107140000D01*
X76820000Y-100840000D02*
X79830000Y-100840000D01*
X102370000Y-107820000D02*
X102370000Y-110157300D01*
X102370000Y-110157300D02*
X101790000Y-110737300D01*
X79830000Y-100840000D02*
X86130000Y-107140000D01*
X101690000Y-107140000D02*
X102370000Y-107820000D01*
D26*
%TO.N,+VDD_5V_RADIO*%
X106566000Y-128514000D02*
X107240000Y-127840000D01*
X83189301Y-128656000D02*
X86035301Y-125810000D01*
X70934000Y-128656000D02*
X83189301Y-128656000D01*
X104254000Y-128514000D02*
X106566000Y-128514000D01*
X86035301Y-125810000D02*
X101550000Y-125810000D01*
X104210000Y-128470000D02*
X104254000Y-128514000D01*
X69240000Y-130350000D02*
X70934000Y-128656000D01*
X101550000Y-125810000D02*
X104210000Y-128470000D01*
D25*
%TO.N,SAFETY_VDD*%
X100390000Y-123780000D02*
X103350000Y-126740000D01*
X99280000Y-123780000D02*
X100390000Y-123780000D01*
X103350000Y-126740000D02*
X104940000Y-126740000D01*
X104940000Y-126740000D02*
X105750000Y-127550000D01*
D24*
%TO.N,CAN_2+*%
X133644684Y-127495746D02*
X124194684Y-127495746D01*
X108745746Y-132964684D02*
X108745746Y-133870114D01*
X121754684Y-129935746D02*
X117074684Y-129935746D01*
X135619684Y-125520746D02*
X133644684Y-127495746D01*
X117074684Y-129935746D02*
X115374684Y-131635746D01*
X108745746Y-133870114D02*
X108695860Y-133920000D01*
X115374684Y-131635746D02*
X110074684Y-131635746D01*
X124194684Y-127495746D02*
X121754684Y-129935746D01*
X137680114Y-125520746D02*
X135619684Y-125520746D01*
X137730000Y-125470860D02*
X137680114Y-125520746D01*
X110074684Y-131635746D02*
X108745746Y-132964684D01*
%TO.N,CAN_2-*%
X135830316Y-126029254D02*
X133855316Y-128004254D01*
X133855316Y-128004254D02*
X129890000Y-128004254D01*
X124405316Y-128004254D02*
X121965316Y-130444254D01*
X121965316Y-130444254D02*
X117285316Y-130444254D01*
X129590000Y-128304254D02*
X129590000Y-128383050D01*
X109254254Y-133870114D02*
X109304140Y-133920000D01*
X124405316Y-128004254D02*
X128690000Y-128004254D01*
X110285316Y-132144254D02*
X109254254Y-133175316D01*
X109254254Y-133175316D02*
X109254254Y-133870114D01*
X137730000Y-126079140D02*
X137680114Y-126029254D01*
X137680114Y-126029254D02*
X135830316Y-126029254D01*
X117285316Y-130444254D02*
X115585316Y-132144254D01*
X115585316Y-132144254D02*
X110285316Y-132144254D01*
X128990000Y-128383050D02*
X128990000Y-128304254D01*
X129890000Y-128004300D02*
G75*
G03*
X129590000Y-128304254I0J-300000D01*
G01*
X128989950Y-128383050D02*
G75*
G03*
X129290000Y-128683050I300050J50D01*
G01*
X129290000Y-128683000D02*
G75*
G03*
X129590000Y-128383050I0J300000D01*
G01*
X128990046Y-128304254D02*
G75*
G03*
X128690000Y-128004254I-300046J-46D01*
G01*
D23*
%TO.N,FMU_I2C_2_SDA*%
X65250000Y-126350000D02*
X65250000Y-128436500D01*
X64780000Y-125880000D02*
X65250000Y-126350000D01*
X106470000Y-133820000D02*
X107200000Y-133820000D01*
X66420000Y-133010000D02*
X69084800Y-135674800D01*
X69084800Y-135674800D02*
X104986252Y-135674800D01*
X66420000Y-129606500D02*
X66420000Y-133010000D01*
X106260000Y-134401052D02*
X106260000Y-134030000D01*
X106260000Y-134030000D02*
X106470000Y-133820000D01*
X104986252Y-135674800D02*
X106260000Y-134401052D01*
X65250000Y-128436500D02*
X66420000Y-129606500D01*
%TO.N,FMU_I2C_2_SCL*%
X64750000Y-128295710D02*
X64750000Y-126590000D01*
X106750000Y-134270000D02*
X105066000Y-135954000D01*
X66166000Y-129711710D02*
X64750000Y-128295710D01*
X69004790Y-135954000D02*
X66166000Y-133115210D01*
X105066000Y-135954000D02*
X69004790Y-135954000D01*
X66166000Y-133115210D02*
X66166000Y-129711710D01*
%TO.N,S.BUS_OUT*%
X69530000Y-130900000D02*
X67920000Y-130900000D01*
X113250000Y-127750000D02*
X112430000Y-127750000D01*
X112430000Y-127750000D02*
X111085200Y-129094800D01*
X102030000Y-127270000D02*
X99200000Y-127270000D01*
X92500000Y-127730000D02*
X86710000Y-127730000D01*
X84460000Y-129980000D02*
X76414290Y-129980000D01*
X86710000Y-127730000D02*
X84460000Y-129980000D01*
X103854800Y-129094800D02*
X102030000Y-127270000D01*
X76346490Y-129912200D02*
X70517800Y-129912200D01*
X111085200Y-129094800D02*
X103854800Y-129094800D01*
X113470000Y-127530000D02*
X113250000Y-127750000D01*
X98310000Y-128160000D02*
X92930000Y-128160000D01*
X92930000Y-128160000D02*
X92500000Y-127730000D01*
X70517800Y-129912200D02*
X69530000Y-130900000D01*
X76414290Y-129980000D02*
X76346490Y-129912200D01*
X99200000Y-127270000D02*
X98310000Y-128160000D01*
D27*
%TO.N,USB_CELL_SSTX+*%
X108884184Y-95189190D02*
X106004184Y-92309190D01*
X66321259Y-97059189D02*
X66200000Y-96937930D01*
X106004184Y-92309190D02*
X91785816Y-92309190D01*
X116643677Y-94833677D02*
X116643677Y-95021329D01*
X116643677Y-95021329D02*
X116475816Y-95189190D01*
X116475816Y-95189190D02*
X108884184Y-95189190D01*
X76115816Y-94909190D02*
X73965817Y-97059189D01*
X89185816Y-94909190D02*
X76115816Y-94909190D01*
X91785816Y-92309190D02*
X89185816Y-94909190D01*
X73965817Y-97059189D02*
X66321259Y-97059189D01*
%TO.N,USB_CELL_SSTX-*%
X108775816Y-95450810D02*
X105895816Y-92570810D01*
X76224184Y-95170810D02*
X74074183Y-97320811D01*
X89294184Y-95170810D02*
X76224184Y-95170810D01*
X91894184Y-92570810D02*
X89294184Y-95170810D01*
X116828671Y-95206323D02*
X116584184Y-95450810D01*
X117016323Y-95206323D02*
X116828671Y-95206323D01*
X116584184Y-95450810D02*
X108775816Y-95450810D01*
X74074183Y-97320811D02*
X66321259Y-97320811D01*
X66321259Y-97320811D02*
X66200000Y-97442070D01*
X105895816Y-92570810D02*
X91894184Y-92570810D01*
%TO.N,USB_CELL_D+*%
X68451259Y-96219189D02*
X68330000Y-96097930D01*
X88265816Y-93279190D02*
X75945816Y-93279190D01*
X114180000Y-94260000D02*
X113995297Y-94444703D01*
X90325816Y-91219190D02*
X88265816Y-93279190D01*
X73005817Y-96219189D02*
X68451259Y-96219189D01*
X106304184Y-91219190D02*
X90325816Y-91219190D01*
X113995297Y-94444703D02*
X109529697Y-94444703D01*
X109529697Y-94444703D02*
X106304184Y-91219190D01*
X75945816Y-93279190D02*
X73005817Y-96219189D01*
%TO.N,USB_CELL_D-*%
X76054184Y-93540810D02*
X73114183Y-96480811D01*
X90434184Y-91480810D02*
X88374184Y-93540810D01*
X68451259Y-96480811D02*
X68330000Y-96602070D01*
X114526323Y-94706323D02*
X109421329Y-94706323D01*
X106195816Y-91480810D02*
X90434184Y-91480810D01*
X88374184Y-93540810D02*
X76054184Y-93540810D01*
X73114183Y-96480811D02*
X68451259Y-96480811D01*
X109421329Y-94706323D02*
X106195816Y-91480810D01*
%TO.N,USB_CELL_SSRX+*%
X93195816Y-93849190D02*
X90305816Y-96739190D01*
X90305816Y-96739190D02*
X76215816Y-96739190D01*
X105564184Y-93849190D02*
X93195816Y-93849190D01*
X76215816Y-96739190D02*
X76063247Y-96891759D01*
X108402184Y-96687190D02*
X105564184Y-93849190D01*
X76063247Y-96891759D02*
X75891759Y-96891759D01*
X114470000Y-96554501D02*
X114337311Y-96687190D01*
X114337311Y-96687190D02*
X108402184Y-96687190D01*
%TO.N,USB_CELL_SSRX-*%
X93304184Y-94110810D02*
X90414184Y-97000810D01*
X76248241Y-97076753D02*
X76248241Y-97248241D01*
X105455816Y-94110810D02*
X93304184Y-94110810D01*
X108293818Y-96948812D02*
X105455816Y-94110810D01*
X90414184Y-97000810D02*
X76324184Y-97000810D01*
X114470000Y-97081501D02*
X114337311Y-96948812D01*
X114337311Y-96948812D02*
X108293818Y-96948812D01*
X76324184Y-97000810D02*
X76248241Y-97076753D01*
%TO.N,USB_EXT1_SSRX+*%
X108485816Y-101899190D02*
X109697815Y-100687191D01*
X88311759Y-101721759D02*
X88483247Y-101721759D01*
X88925816Y-101279190D02*
X103274184Y-101279190D01*
X88483247Y-101721759D02*
X88925816Y-101279190D01*
X103894184Y-101899190D02*
X108485816Y-101899190D01*
X109697815Y-100687191D02*
X114327311Y-100687191D01*
X103274184Y-101279190D02*
X103894184Y-101899190D01*
X114327311Y-100687191D02*
X114460000Y-100554502D01*
%TO.N,USB_EXT1_SSRX-*%
X88668241Y-101906753D02*
X89034184Y-101540810D01*
X89034184Y-101540810D02*
X103165816Y-101540810D01*
X103165816Y-101540810D02*
X103785816Y-102160810D01*
X114327311Y-100948813D02*
X114460000Y-101081502D01*
X109806181Y-100948813D02*
X114327311Y-100948813D01*
X103785816Y-102160810D02*
X108594184Y-102160810D01*
X88668241Y-102078241D02*
X88668241Y-101906753D01*
X108594184Y-102160810D02*
X109806181Y-100948813D01*
D24*
%TO.N,CAN_1+*%
X137109684Y-116410746D02*
X127754684Y-125765746D01*
X112494684Y-128095746D02*
X110745746Y-129844684D01*
X127754684Y-125765746D02*
X123524684Y-125765746D01*
X137380000Y-116360860D02*
X137330114Y-116410746D01*
X110745746Y-130970114D02*
X110695860Y-131020000D01*
X121194684Y-128095746D02*
X112494684Y-128095746D01*
X137330114Y-116410746D02*
X137109684Y-116410746D01*
X110745746Y-129844684D02*
X110745746Y-130970114D01*
X123524684Y-125765746D02*
X121194684Y-128095746D01*
%TO.N,CAN_1-*%
X137320316Y-116919254D02*
X130774785Y-123464785D01*
X130774785Y-123889051D02*
X130774784Y-123889051D01*
X111254254Y-130055316D02*
X111254254Y-130970114D01*
X127965316Y-126274254D02*
X123735316Y-126274254D01*
X123735316Y-126274254D02*
X121405316Y-128604254D01*
X137380000Y-116969140D02*
X137330114Y-116919254D01*
X130830502Y-124369033D02*
X130830503Y-124369033D01*
X130406239Y-124369033D02*
X130350522Y-124313316D01*
X130774784Y-123889051D02*
X130830502Y-123944769D01*
X129926258Y-124313316D02*
X129926256Y-124313315D01*
X112705316Y-128604254D02*
X111254254Y-130055316D01*
X129926256Y-124313315D02*
X127965316Y-126274254D01*
X121405316Y-128604254D02*
X112705316Y-128604254D01*
X137330114Y-116919254D02*
X137320316Y-116919254D01*
X111254254Y-130970114D02*
X111304140Y-131020000D01*
X130774767Y-123464767D02*
G75*
G03*
X130774785Y-123889051I212133J-212133D01*
G01*
X130406240Y-124369032D02*
G75*
G03*
X130830502Y-124369032I212131J212131D01*
G01*
X130350521Y-124313317D02*
G75*
G03*
X129926259Y-124313317I-212131J-212131D01*
G01*
X130830501Y-124369032D02*
G75*
G03*
X130830502Y-123944769I-212101J212132D01*
G01*
%TO.N,JETSON_CAN+*%
X91384684Y-98295746D02*
X93324894Y-96355536D01*
X64870000Y-103830860D02*
X64919886Y-103880746D01*
X93324894Y-96355536D02*
X93324894Y-96144894D01*
X66729684Y-103880746D02*
X68104684Y-102505746D01*
X69344684Y-102505746D02*
X73554684Y-98295746D01*
X68104684Y-102505746D02*
X69344684Y-102505746D01*
X64919886Y-103880746D02*
X66729684Y-103880746D01*
X73554684Y-98295746D02*
X91384684Y-98295746D01*
%TO.N,JETSON_CAN-*%
X93684464Y-96715106D02*
X93895106Y-96715106D01*
X69555316Y-103014254D02*
X73765316Y-98804254D01*
X91595316Y-98804254D02*
X93684464Y-96715106D01*
X68315316Y-103014254D02*
X69555316Y-103014254D01*
X64870000Y-104439140D02*
X64919886Y-104389254D01*
X66940316Y-104389254D02*
X68315316Y-103014254D01*
X73765316Y-98804254D02*
X91595316Y-98804254D01*
X64919886Y-104389254D02*
X66940316Y-104389254D01*
D23*
%TO.N,GPIO02*%
X97368420Y-90260000D02*
X97198420Y-90430000D01*
X77130000Y-88560000D02*
X76640000Y-89050000D01*
X97198420Y-90430000D02*
X88590000Y-90430000D01*
X118320000Y-89190000D02*
X116470000Y-89190000D01*
X115400000Y-90260000D02*
X97368420Y-90260000D01*
X86720000Y-88560000D02*
X77130000Y-88560000D01*
X116470000Y-89190000D02*
X115400000Y-90260000D01*
X88590000Y-90430000D02*
X86720000Y-88560000D01*
%TO.N,Net-(J20-Pin_7)*%
X92630000Y-118480000D02*
X73110000Y-118480000D01*
X73110000Y-118480000D02*
X71986200Y-119603800D01*
X64733800Y-119603800D02*
X64730000Y-119600000D01*
X104930000Y-122890000D02*
X97040000Y-122890000D01*
X71986200Y-119603800D02*
X64733800Y-119603800D01*
X97040000Y-122890000D02*
X92630000Y-118480000D01*
X105230000Y-123190000D02*
X104930000Y-122890000D01*
%TO.N,PCIE_DIS*%
X77160000Y-107520000D02*
X78870000Y-109230000D01*
X77160000Y-107520000D02*
X74000000Y-107520000D01*
%TO.N,SIM_DATA*%
X113930000Y-97590000D02*
X112850000Y-98670000D01*
X104434910Y-98670000D02*
X103517110Y-99587800D01*
X88600000Y-99280000D02*
X88560000Y-99240000D01*
X115530000Y-96950000D02*
X114890000Y-97590000D01*
X116730000Y-96860000D02*
X116730000Y-96950000D01*
X118880000Y-94710000D02*
X116730000Y-96860000D01*
X112850000Y-98670000D02*
X104434910Y-98670000D01*
X88867800Y-99587800D02*
X88600000Y-99320000D01*
X114890000Y-97590000D02*
X113930000Y-97590000D01*
X123850000Y-94710000D02*
X118880000Y-94710000D01*
X88600000Y-99320000D02*
X88600000Y-99280000D01*
X103517110Y-99587800D02*
X88867800Y-99587800D01*
X116730000Y-96950000D02*
X115530000Y-96950000D01*
%TO.N,Net-(U9-+IN)*%
X92936000Y-118226000D02*
X97346000Y-122636000D01*
X106096000Y-122636000D02*
X106330000Y-122870000D01*
X97346000Y-122636000D02*
X106096000Y-122636000D01*
X72374000Y-118226000D02*
X92936000Y-118226000D01*
X72110000Y-118490000D02*
X72374000Y-118226000D01*
D25*
%TO.N,+5V_PROT_INS*%
X95610000Y-122620000D02*
X95620000Y-122620000D01*
X95570000Y-122620000D02*
X95590000Y-122640000D01*
X101760000Y-123270000D02*
X103218600Y-124728600D01*
X103218600Y-124728600D02*
X118651400Y-124728600D01*
X95590000Y-122640000D02*
X95610000Y-122620000D01*
X96270000Y-123270000D02*
X101760000Y-123270000D01*
X118651400Y-124728600D02*
X118670000Y-124710000D01*
X93740000Y-122620000D02*
X95570000Y-122620000D01*
X95620000Y-122620000D02*
X96270000Y-123270000D01*
D23*
%TO.N,nMOD_SLEEP*%
X97290000Y-89870000D02*
X111790000Y-89870000D01*
X115935710Y-86780000D02*
X116815710Y-87660000D01*
X77020790Y-88310000D02*
X77024790Y-88306000D01*
X111790000Y-89870000D02*
X114880000Y-86780000D01*
X116815710Y-87660000D02*
X117030000Y-87660000D01*
X86904420Y-88306000D02*
X88718420Y-90120000D01*
X77024790Y-88306000D02*
X86904420Y-88306000D01*
X114880000Y-86780000D02*
X115935710Y-86780000D01*
X97040000Y-90120000D02*
X97290000Y-89870000D01*
X88718420Y-90120000D02*
X97040000Y-90120000D01*
X76100000Y-88310000D02*
X77020790Y-88310000D01*
%TO.N,SLEEP{slash}WAKE*%
X97250790Y-89550000D02*
X111520000Y-89550000D01*
X114787800Y-86282200D02*
X116942200Y-86282200D01*
X97010790Y-89790000D02*
X97250790Y-89550000D01*
X75597600Y-87677600D02*
X76397600Y-87677600D01*
X116942200Y-86282200D02*
X117720000Y-87060000D01*
X76397600Y-87677600D02*
X76772000Y-88052000D01*
X75580000Y-87660000D02*
X75597600Y-87677600D01*
X87009630Y-88052000D02*
X88747630Y-89790000D01*
X76772000Y-88052000D02*
X87009630Y-88052000D01*
X117720000Y-87860000D02*
X117640000Y-87940000D01*
X111520000Y-89550000D02*
X114787800Y-86282200D01*
X88747630Y-89790000D02*
X97010790Y-89790000D01*
X117720000Y-87060000D02*
X117720000Y-87860000D01*
%TD*%
M02*
